<svg xmlns="http://www.w3.org/2000/svg" width="500" height="500" viewBox="0 0 200 200" overflow="hidden"><defs><radialGradient id="i" cx="100" cy="114" r="41" gradientUnits="userSpaceOnUse" class="svga-on-canvas-facehighlight-gradient-single-0"><stop stop-opacity=".5" stop-color="#e8d7d3" offset="0"/><stop stop-opacity="0" stop-color="#d9b8af" offset=".9"/></radialGradient><radialGradient id="j" cx="100" cy="54" r="37" gradientUnits="userSpaceOnUse" class="svga-on-canvas-facehighlight-gradient-single-1"><stop stop-opacity=".5" stop-color="#e8d7d3" offset="0"/><stop stop-opacity="0" stop-color="#d9b8af" offset=".9"/></radialGradient><radialGradient id="c" cx="126.289" cy="84.919" r="10.712" gradientTransform="matrix(-1 0 0 1 200 0)" gradientUnits="userSpaceOnUse" class="svga-on-canvas-eyesback-gradient-left-0"><stop stop-color="#fff" offset="0"/><stop stop-color="#fdfefe" offset=".544"/><stop stop-color="#f6f8f9" offset=".74"/><stop stop-color="#eaeff2" offset=".879"/><stop stop-color="#d9e3e8" offset=".992"/><stop stop-color="#d8e2e7" offset="1"/></radialGradient><radialGradient id="f" cx="125.89" cy="84.919" r="10.712" gradientUnits="userSpaceOnUse" class="svga-on-canvas-eyesback-gradient-right-0"><stop stop-color="#fff" offset="0"/><stop stop-color="#fdfefe" offset=".544"/><stop stop-color="#f6f8f9" offset=".74"/><stop stop-color="#eaeff2" offset=".879"/><stop stop-color="#d9e3e8" offset=".992"/><stop stop-color="#d8e2e7" offset="1"/></radialGradient><radialGradient id="d" cx="123.715" cy="85.489" fx="135.434" fy="85.522" r="16.667" gradientTransform="matrix(.9998 .0208 .0166 -.7998 -48.826 151.29)" gradientUnits="userSpaceOnUse" class="svga-on-canvas-eyesfront-gradient-left-3"><stop stop-color="#ca9b8e" offset="0"/><stop stop-opacity=".3" stop-color="#ca9b8e" offset=".7"/><stop stop-opacity="0" stop-color="#d9b8af" offset="1"/></radialGradient><radialGradient id="e" cx="122.874" cy="101.325" r="26.878" gradientTransform="matrix(-1 0 0 .7923 200 21.05)" gradientUnits="userSpaceOnUse" class="svga-on-canvas-eyesfront-gradient-left-4"><stop stop-opacity="0" offset=".95"/><stop stop-opacity=".2" offset="1"/></radialGradient><radialGradient id="g" cx="123.315" cy="85.489" fx="135.034" fy="85.522" r="16.667" gradientTransform="matrix(-.9998 .0208 -.0166 -.7998 248.027 151.299)" gradientUnits="userSpaceOnUse" class="svga-on-canvas-eyesfront-gradient-right-3"><stop stop-color="#ca9b8e" offset="0"/><stop stop-opacity=".3" stop-color="#ca9b8e" offset=".7"/><stop stop-opacity="0" stop-color="#d9b8af" offset="1"/></radialGradient><radialGradient id="h" cx="122.475" cy="101.325" r="26.878" gradientTransform="matrix(1 0 0 .7923 0 21.05)" gradientUnits="userSpaceOnUse" class="svga-on-canvas-eyesfront-gradient-right-4"><stop stop-opacity="0" offset=".95"/><stop stop-opacity=".2" offset="1"/></radialGradient><linearGradient id="b" x1="100" y1="142" x2="100" y2="139" gradientUnits="userSpaceOnUse" class="svga-on-canvas-mouth-gradient-single-0"><stop stop-color="#d1a99e" offset=".1"/><stop stop-color="#ca9b8e" offset="1"/></linearGradient><linearGradient id="a" x1="100" y1="170" x2="100" y2="132" gradientUnits="userSpaceOnUse" class="svga-on-canvas-chinshadow-gradient-single-0"><stop stop-opacity=".8" stop-color="#ca9b8e" offset="0"/><stop stop-color="#ab6957" offset=".7"/></linearGradient></defs><path d="M225 225H-25V-25h250v250z" fill="#00a8c6"/><path d="M10 33.299L0 16.649 10-.001l10 16.65-10 16.65zm30-16.65L30-.001l-10 16.65 10 16.65 10-16.65zm20 0L50-.001l-10 16.65 10 16.65 10-16.65zm20 0L70-.001l-10 16.65 10 16.65 10-16.65zm20 0L90-.001l-10 16.65 10 16.65 10-16.65zm20 0L110-.001l-10 16.65 10 16.65 10-16.65zm20 0L130-.001l-10 16.65 10 16.65 10-16.65zm20 0L150-.001l-10 16.65 10 16.65 10-16.65zm20 0L170-.001l-10 16.65 10 16.65 10-16.65zm20 0L190-.001l-10 16.65 10 16.65 10-16.65zM20 49.982l-10-16.65-10 16.65 10 16.65 10-16.65zm20 0l-10-16.65-10 16.65 10 16.65 10-16.65zm20 0l-10-16.65-10 16.65 10 16.65 10-16.65zm20 0l-10-16.65-10 16.65 10 16.65 10-16.65zm20 0l-10-16.65-10 16.65 10 16.65 10-16.65zm20 0l-10-16.65-10 16.65 10 16.65 10-16.65zm20 0l-10-16.65-10 16.65 10 16.65 10-16.65zm20 0l-10-16.65-10 16.65 10 16.65 10-16.65zm20 0l-10-16.65-10 16.65 10 16.65 10-16.65zm20 0l-10-16.65-10 16.65 10 16.65 10-16.65zM20 83.316l-10-16.65-10 16.65 10 16.65 10-16.65zm20 0l-10-16.65-10 16.65 10 16.65 10-16.65zm20 0l-10-16.65-10 16.65 10 16.65 10-16.65zm20 0l-10-16.65-10 16.65 10 16.65 10-16.65zm20 0l-10-16.65-10 16.65 10 16.65 10-16.65zm20 0l-10-16.65-10 16.65 10 16.65 10-16.65zm20 0l-10-16.65-10 16.65 10 16.65 10-16.65zm20 0l-10-16.65-10 16.65 10 16.65 10-16.65zm20 0l-10-16.65-10 16.65 10 16.65 10-16.65zm20 0l-10-16.65-10 16.65 10 16.65 10-16.65zM20 116.649L10 100 0 116.65l10 16.649 10-16.65zm20 0L30 100l-10 16.65 10 16.649 10-16.65zm20 0L50 100l-10 16.65 10 16.649 10-16.65zm20 0L70 100l-10 16.65 10 16.649 10-16.65zm20 0L90 100l-10 16.65 10 16.649 10-16.65zm20 0L110 100l-10 16.65 10 16.649 10-16.65zm20 0L130 100l-10 16.65 10 16.649 10-16.65zm20 0L150 100l-10 16.65 10 16.649 10-16.65zm20 0L170 100l-10 16.65 10 16.649 10-16.65zm20 0L190 100l-10 16.65 10 16.649 10-16.65zM20 149.982l-10-16.649-10 16.649 10 16.649 10-16.649zm20 0l-10-16.649-10 16.649 10 16.649 10-16.649zm20 0l-10-16.649-10 16.649 10 16.649 10-16.649zm20 0l-10-16.649-10 16.649 10 16.649 10-16.649zm20 0l-10-16.649-10 16.649 10 16.649 10-16.649zm20 0l-10-16.649-10 16.649 10 16.649 10-16.649zm20 0l-10-16.649-10 16.649 10 16.649 10-16.649zm20 0l-10-16.649-10 16.649 10 16.649 10-16.649zm20 0l-10-16.649-10 16.649 10 16.649 10-16.649zm20 0l-10-16.649-10 16.649 10 16.649 10-16.649zM20 183.315l-10-16.649-10 16.649 10 16.649 10-16.649zm20 0l-10-16.649-10 16.649 10 16.649 10-16.649zm20 0l-10-16.649-10 16.649 10 16.649 10-16.649zm20 0l-10-16.649-10 16.649 10 16.649 10-16.649zm20 0l-10-16.649-10 16.649 10 16.649 10-16.649zm20 0l-10-16.649-10 16.649 10 16.649 10-16.649zm20 0l-10-16.649-10 16.649 10 16.649 10-16.649zm20 0l-10-16.649-10 16.649 10 16.649 10-16.649zm20 0l-10-16.649-10 16.649 10 16.649 10-16.649zm20 0l-10-16.649-10 16.649 10 16.649 10-16.649z" fill="#009bb7"/><path d="M155.728 11.564H44.272C28.491 30.71 21.813 58.319 32.461 90.745c8.949 28.091 13.512 36.882 21.14 58.24 0 0 .003-4.164-.1-6.51 3.068 7.797 1.906 5.192 4.189 9.279.064-3.704-.192-7.47-.55-11.13 2.294 9.156 3.72 11.162 6.37 16.48.481-3.005.55-5.61.55-8.3.006.022 5.33 16.002 5.33 16.02.26.771.51 1.5.73 2.15.284-3.106.558-7.202.773-11.023a262.466 262.466 0 002.445 7.111c.388 2.607.785 5.354 1.151 8.021.15-1.35 50.867-1.35 51.018 0 .366-2.668.764-5.415 1.151-8.023a263.66 263.66 0 002.445-7.109c.216 3.821.489 7.917.773 11.023.221-.65.471-1.38.73-2.15 0-.018 5.324-15.997 5.33-16.02 0 2.689.068 5.295.55 8.3 2.65-5.318 4.076-7.324 6.37-16.48-.357 3.66-.614 7.426-.55 11.13 2.283-4.087 1.121-1.482 4.189-9.279-.103 2.346-.1 6.51-.1 6.51 7.628-21.358 12.19-30.149 21.14-58.24 10.652-32.426 3.974-60.035-11.807-79.181z" fill="#a8815a"/><path d="M155.731 11.562l1.149 5.18c13.415 18.712 18.158 44.437 8.958 73.864-7.896 26.509-10.606 31.566-18.6 55.41.228-8.06-.251-4.342 3.07-15.99 5.598-19.239 8.217-21.629 8.96-32.09-1.767 11.506-7.022 17.952-10.37 31.68-.112.387-1.438 5.071-1.58 5.44 0 .564-3.993 12.566-4.45 13.58 2.057-30.407 12.97-43.777 18.92-67.34 3.275-14.069 1.713-20.565-.21-34.17-.978-6.889-2.307-14.719-5.38-17.19 3.303 3.303 4.087 11.762 4.66 17.22.404 3.898 2.475 15.697.93 26.87-3.525 20.76-15.2 39.243-17.79 57.66 0 0 .01.01 0 .02-2.935 11.237-3.169 13.813-7.04 23.021-.176-4.356-.183-7.088.031-10.836 5.971-15.562 4.394-10.082 7.99-29.964-.22.598-3.94 11.747-7.424 22.354.236-2.84.535-6.295.902-10.704 0 0 0 .01-.01.03-3.081 20.755-1.168 10.467-6.479 28.02-1.796-14.726 2.294-35.978 2.71-39.279-3.055 12.144-4.802 21.952-4.28 33.93-.307.995-.52 1.694-.678 2.22-.717-11.735-.791-13.635-.795-13.939-.376 17.315.313 1.76-2.906 25.071l-.69 2.038c-.74-5.766-1.127-13.335-1.421-16.189-2.111-.395-4.519-.51-6.55-.51-9.976.257-3.828.929-17.36 1.256-13.532-.327-7.385-.999-17.361-1.256-2.031 0-4.438.115-6.55.51-.294 2.854-.68 10.424-1.42 16.189l-.69-2.038c-3.211-23.254-2.532-7.841-2.906-25.071-.004.305-.079 2.204-.795 13.94a372.72 372.72 0 00-.678-2.221c.521-11.978-1.225-21.786-4.28-33.93.416 3.302 4.506 24.554 2.71 39.279-5.323-17.587-3.395-7.268-6.479-28.02-.01-.021-.01-.03-.01-.03.368 4.41.666 7.865.902 10.705-3.483-10.606-7.204-21.757-7.424-22.354 3.596 19.873 2.02 14.401 7.991 29.965.214 3.747.207 6.479.031 10.835-3.871-9.208-4.105-11.783-7.04-23.021-.01-.01 0-.02 0-.02-2.59-18.417-14.265-36.9-17.79-57.66-1.545-11.173.525-22.972.93-26.87.573-5.458 1.357-13.917 4.66-17.22-3.073 2.471-4.402 10.301-5.38 17.19-1.923 13.605-3.485 20.101-.21 34.17 5.95 23.563 16.863 36.933 18.92 67.34-.457-1.014-4.45-13.016-4.45-13.58-.143-.369-1.468-5.054-1.58-5.44-3.348-13.728-8.604-20.174-10.37-31.68.743 10.461 3.362 12.851 8.96 32.09 3.321 11.648 2.843 7.931 3.07 15.99-7.993-23.844-10.703-28.901-18.6-55.41-9.2-29.427-4.457-55.152 8.958-73.864l1.149-5.18C28.488 30.708 21.813 58.32 32.461 90.745c8.949 28.091 13.512 36.882 21.14 58.24 0 0 .003-4.164-.1-6.51 3.068 7.797 1.906 5.192 4.189 9.279.064-3.704-.192-7.47-.55-11.13 2.294 9.156 3.72 11.162 6.37 16.48.481-3.005.55-5.61.55-8.3.006.022 5.33 16.002 5.33 16.02.26.771.51 1.5.73 2.15.284-3.106.558-7.202.773-11.023 2.884 8.8 2.179 4.808 3.597 15.133.15-1.35.303-2.573.458-3.707l.061.157c2.231-14.414 2.258-12.435 3.011-18.76 19.125 1.023 24.679 1.032 43.959 0 .757 6.367.762 4.21 3.011 18.76l.061-.158c.155 1.134.308 2.358.458 3.708 1.419-10.337.714-6.334 3.597-15.133.216 3.821.489 7.917.773 11.023.221-.65.471-1.38.73-2.15 0-.018 5.324-15.997 5.33-16.02 0 2.689.068 5.295.55 8.3 2.65-5.318 4.076-7.324 6.37-16.48-.357 3.66-.614 7.426-.55 11.13 2.283-4.087 1.121-1.482 4.189-9.279-.103 2.346-.1 6.51-.1 6.51 7.628-21.358 12.19-30.149 21.14-58.24 10.649-32.425 3.974-60.037-11.807-79.183zm-86.24 151.603c-1.323-5.24-2.458-8.576-3.365-11.2 1.074 2.769 1.867 4.804 2.233 5.771.499-2.595.93-5.54 1.05-6.54.171.597.405 1.37.686 2.266-.17 2.764-.369 5.963-.604 9.703zm1.561-10.15c.061-1.21.115-2.355.159-3.379.122.597.601 3.492 1.213 7.415-.772-2.268-1.148-3.366-1.372-4.036zm6.579-4.61c-.097.384-.678 3.295-1.321 6.632.183-2.979.253-5.581.209-7.292 1.364-.173 5.699-.332 12.026.629-3.126.021-6.73.031-10.914.031zm44.738 0c-4.185 0-7.789-.011-10.915-.031 5.565-.845 10.097-.874 12.026-.629-.044 1.711.026 4.312.21 7.29-.643-3.337-1.224-6.247-1.321-6.63zm5.207 8.646c.611-3.924 1.091-6.818 1.213-7.415.044 1.023.098 2.168.159 3.379-.224.669-.6 1.768-1.372 4.036zm2.933 6.114c-.234-3.74-.434-6.939-.604-9.704.28-.896.515-1.669.686-2.266.119 1 .551 3.945 1.05 6.54.366-.967 1.159-3.004 2.234-5.776-.907 2.625-2.042 5.962-3.366 11.206z" fill="#895c2f"/><path d="M195.417 199.778c-2.196-4.746-8.195-11.779-14.86-13.722-8.239-2.403-26.837-5.308-33.733-6.923-5.528-1.296-16.662-11.294-20.564-14.65-.7-.6-1.273-1.839-1.287-2.76-.139-10.864 4.195-39.724 4.195-39.724H70.833s4.334 28.859 4.193 39.724c-.011.921-.587 2.16-1.285 2.76-3.902 3.356-15.036 13.354-20.564 14.65-6.897 1.615-25.495 4.619-33.733 7.022-6.667 1.942-12.664 8.876-14.86 13.622-3.708 8.008-4.584 22.5-4.584 35h200c0-12.499-.877-26.991-4.583-34.999z" fill="#d9b8af"/><path d="M159.156 184.058c24.342 3.542 34.586 8.708 37.794 50.721H200c0-12.5-.877-26.992-4.583-35-2.196-4.746-8.195-11.779-14.86-13.722-8.239-2.403-26.837-5.308-33.733-6.923-5.528-1.296-18.242-12.069-21.643-16.35 3.36 4.704 12.791 15.605 21.054 18.46 3.953 1.366 7.245 1.988 12.921 2.814zm-105.39-2.814c8.263-2.854 17.693-13.756 21.054-18.46-3.4 4.28-16.114 15.054-21.643 16.35-6.896 1.615-25.494 4.619-33.733 7.022-6.665 1.942-12.664 8.876-14.86 13.622-3.706 8.008-4.583 22.5-4.583 35h3.05c3.188-41.744 13.475-47.183 37.794-50.721 5.675-.825 8.968-1.447 12.921-2.813z" fill="#e8d7d3"/><path d="M95.646 197.62s-5.074-1.609-7.083-2.379c-10.449-4.009-44.395-6.607-44.395-6.607s35.754 1.419 43.644 2.779c-.458-4.767-3.017-20.004-3.017-20.004s5.149 16.815 6.409 21.057c.674 2.268 4.442 5.154 4.442 5.154zm10.799-1.342c-.089.073-.191.168-.302.268.113-.085.215-.174.302-.268zm-10.799 1.342s2.893 2.992 4.347 3.03c1.91.051 4.828-2.899 6.151-4.104-1.265.957-4.159 1.391-5.31 1.436-1.33.051-5.188-.362-5.188-.362zm21.018-7.519c-1.545.248-4.386.789-4.386.789l2.287-14.89c-.646 3.071-4.474 16.211-8.12 20.278 1.91-1.616 6.158-2.391 8.324-2.704 10.236-1.484 10.232-1.483 41.062-4.94 0 0-29.071-.155-39.167 1.467z" fill="#ca9b8e"/><path d="M195.417 199.778c-2.196-4.746-8.195-11.779-14.86-13.722-8.239-2.403-26.837-5.308-33.733-6.923-5.528-1.296-16.662-11.294-20.564-14.65-.7-.6-1.273-1.839-1.287-2.76-.139-10.864 4.195-39.724 4.195-39.724H70.833s4.334 28.859 4.193 39.724c-.011.921-.587 2.16-1.285 2.76-3.902 3.356-15.036 13.354-20.564 14.65-6.897 1.615-25.495 4.619-33.733 7.022-6.667 1.942-12.664 8.876-14.86 13.622-3.708 8.008-4.584 22.5-4.584 35h200c0-12.499-.877-26.991-4.583-34.999z" fill="none" stroke="#ab6957" stroke-width="1.5"/><path d="M103.705 170.189c5.292-1.558 13.31-7.012 20.631-12.852.352-6.636 1.433-15.887 2.396-23.284-14.957-2.455-38.464-2.408-53.454.081.95 7.3 2.01 16.38 2.372 22.974 7.055 5.816 14.789 11.372 20.685 13.087.809.236 6.561.233 7.37-.006z" fill="url(#a)"/><path d="M111.806 235.888c-19.135 0-41.455-.074-68.233-.229l-23.679-.128c-14.298-.078-15.141-.094-16.887-.094l-4.899.007c-4.571-41.875 14.41-52.87 43.762-56.708 7.789-1.097 15.449-3.097 21.459-6.972 16.327 22.243 64.811 17.562 73.103-.629 1.39.53 2.539 1.215 3.977 1.734 4.666 3.433 11.072 5.836 17.628 6.199 26.008 1.441 44.419 12.996 44.057 54.64.003.165.004 1.175-.013 1.49-12.513 0-17.206.121-27.034.262-13.331.19-29.923.427-63.229.427l-.012.001z" fill="#386e77"/><path d="M201.055 234.64c-.41-7.385-4.064-28.058-10.36-37.541-12.482-18.805-42.26-12.206-49.132-19.693-4.986 10.159-24.975 16.595-31.594 17.54 19.181-6.36 27.237-10.959 30.42-21.87 6.405 8.33 41.074 1.971 54.717 24.331 3.995 6.547 7.794 27.386 5.949 37.233zM55.811 177.628c1.357-.315 2.034-1.249 3.381-1.614l-1.426-1.891c-9.049 7.052-42.909 2.645-54.519 24.036-3.659 6.741-6.127 22.788-4.192 36.439.537-8.384.799-26.314 7.095-35.798 11.324-17.06 31.974-12.553 47.619-19.775 6.983 8.6 17.888 12.828 28.984 14.577-13.921-3.631-21.903-9.762-26.942-15.974z" fill="#4d7e86"/><path d="M135.31 173.244c-5.532 11.514-47.35 24.923-70.93.879-1.466.622-5.852 2.112-5.852 2.112 17.176 23.386 67.511 23.534 80.909-.114-.059-.023-2.765-2.185-4.127-2.877z" fill="#265e68"/><path d="M136.38 171.002c-9.413 18.822-58.397 21.485-73.012.632-5.337 1.578-10.469 4.941-15.636 5.782-30.92 4.605-53.778 6.919-49.732 58.136 9.94 0-6.611-.065 45.571.215 123.59.71 119.562-.461 158.606-.461.029-.14.015-1.452.021-1.596 2.096-56.436-30.852-53.104-53.12-56.995-3.144-.718-6.066-2.773-8.635-3.945-1.419-.649-2.625-1.232-4.063-1.768zm-73.366 1.263c12.974 23.392 64.219 18.699 74.113.101 1.2.504 1.507.704 2.898 1.197-10.248 21.489-60.942 28.337-81.677 1.163.146-.041 3.204-1.913 4.666-2.461zM-.845 234.778c-2.421-26.431 1.797-48.043 32.78-53.345 10.276-1.896 16.557-1.962 25.384-5.794 16.763 27.405 72.098 23.158 83.598-1.305 1.652 1.409 4.228 3.03 7.405 3.785 18.098 4.299 54.838-.894 52.898 56.658-54.057-.702-98.865-2.344-202.065.001z" fill="#0c4049"/><path d="M47.69 83.08c-1.588-2.376-8.025-7.833-11.703-6.994-4.355.993-5.708 4.372-5.603 6.475.606 12.025 4.426 12.016 6.71 16.64 1.709 3.459 3.126 5.044 4.172 11.958.598 3.953 4.427 6.984 7.217 6.835 3.908-.21 6.994-3.716 8.291-7.173 2.689-7.178-4.951-21.556-9.084-27.741z" fill="#d9b8af" stroke="#ab6957" stroke-width="1.5"/><path d="M43.274 100.336c-.15-.554-.062-1.507.024-2.43.077-.84 1.438-3.888 1.348-4.44-.344-2.068-1.931-5.94-2.949-8.031-1.169-2.403-3.604-5.409-5.79-6.078-.904-.278-3.479.04-3.781.639-1.131 2.241-.615 4.411 1.1 10.21.85 2.873 3.915 6.207 3.998 6.54 1.067 4.343 5.099 11.284 6.488 12.839.256.288.519.452.579.376.059-.077-.104-.368-.361-.656-1.372-1.547-5.367-8.471-6.396-12.662-1.092-4.446 2.313-11.346 2.93-12.8.379.642.703 1.261.954 1.777.198.406.417.881.645 1.396-.367.76-4.245 6.367-3.026 10.606.451 1.563 2.054 4.592 3.432 6.187.483.559.893.717 1.19 1.234.341.599.732 1.279 1.792 1.726.215.091.408.121.577.111a1 1 0 00.667-.326c.029.271.044.617.051.94.007.413.073.752.162.755s.168-.333.161-.746c-.009-.509-.04-1.14-.132-1.437-.273-.873-1.028-1.832-1.829-2.844-.789-.996-1.603-2.029-1.834-2.886zm-6.314-5.697c-2.347-6.779-1.518-13.668-1.103-14.643 1.345 0 3.778 2.495 4.397 3.498-.38.857-3.417 6.496-3.294 11.145zm8.599 11.775c-.961-.403-1.303-1.001-1.635-1.58-.299-.524-1.018-1.022-1.346-1.378-.191-.209-.531-.767-.715-.892-1.762-7.606 1.345-10.382 1.967-10.964.231.729.411 1.399.5 1.939.082.496-1.28 3.552-1.352 4.327-.089.961-.182 1.954-.012 2.583.253.938 1.093 2 1.904 3.028.72.912 1.459 1.852 1.732 2.639-.093.166-.398.57-1.043.298z" fill="#ab6957"/><path d="M152.049 83.08c1.588-2.376 8.025-7.833 11.701-6.994 4.357.993 5.709 4.372 5.604 6.475-.605 12.025-4.426 12.016-6.709 16.64-1.711 3.459-3.127 5.044-4.174 11.958-.598 3.953-4.428 6.984-7.217 6.835-3.908-.21-6.994-3.716-8.291-7.173-2.688-7.178 4.953-21.556 9.086-27.741z" fill="#d9b8af" stroke="#ab6957" stroke-width="1.5"/><path d="M154.633 103.222c-.801 1.013-1.557 1.972-1.83 2.844-.092.297-.123.928-.131 1.437-.008.413.072.749.16.746.09-.003.154-.342.162-.755.008-.323.021-.67.051-.94a.99.99 0 00.666.326 1.3 1.3 0 00.578-.111c1.061-.446 1.449-1.126 1.791-1.726.297-.517.709-.675 1.191-1.234 1.377-1.594 2.98-4.624 3.432-6.187 1.219-4.239-2.66-9.846-3.027-10.606.229-.515.447-.989.645-1.396.252-.516.576-1.136.955-1.777.617 1.454 4.021 8.354 2.93 12.8-1.029 4.191-5.025 11.115-6.396 12.662-.256.288-.42.579-.361.656.061.076.322-.088.578-.376 1.391-1.556 5.422-8.496 6.49-12.839.082-.333 3.146-3.667 3.996-6.54 1.715-5.799 2.232-7.969 1.102-10.21-.303-.599-2.877-.917-3.783-.639-2.186.669-4.619 3.675-5.789 6.078-1.018 2.09-2.605 5.963-2.949 8.031-.09.552 1.271 3.6 1.348 4.44.086.922.176 1.875.025 2.43-.235.857-1.047 1.89-1.834 2.886zm4.851-19.728c.619-1.003 3.053-3.498 4.396-3.498.416.975 1.244 7.864-1.104 14.643.126-4.649-2.913-10.288-3.292-11.145zm-6.347 22.622c.273-.788 1.012-1.728 1.732-2.639.811-1.028 1.65-2.09 1.904-3.028.168-.629.076-1.623-.014-2.583-.07-.775-1.434-3.831-1.352-4.327.09-.54.27-1.21.5-1.939.623.582 3.729 3.358 1.967 10.964-.184.125-.523.683-.715.892-.328.356-1.047.854-1.346 1.378-.332.579-.674 1.177-1.635 1.58-.645.272-.948-.132-1.041-.298z" fill="#ab6957"/><path d="M138.275 134.933c-7.56 7.762-25.273 22.52-34.57 25.257-.809.238-6.561.241-7.37.006-10.402-3.025-26.524-18.002-34.545-25.284-.698-.634-1.876-2.14-2.323-2.97-6.875-12.77-18.452-54.948-18.462-54.995a60.39 60.39 0 01-2.004-15.382C38.949 28.09 66.155.919 99.773.867c33.621-.052 60.913 27.033 60.964 60.507a60.457 60.457 0 01-1.952 15.389c-.015.047-11.729 42.121-18.293 55.052-.432.852-1.55 2.432-2.217 3.118z" fill="#d9b8af"/><path d="M122.923 5.375c19.396 9.496 32.911 30.588 32.944 55.131a65.361 65.361 0 01-1.796 15.389c-.013.047-10.79 42.121-16.829 55.053-.398.852-1.426 2.432-2.039 3.117-6.955 7.762-23.252 22.52-31.805 25.258-.744.238-6.036.24-6.781.006-9.57-3.025-24.402-18.002-31.782-25.285-.642-.633-1.726-2.139-2.137-2.969-6.325-12.77-16.976-54.948-16.985-54.996a65.38 65.38 0 01-1.844-15.382C43.835 36.099 57.351 14.919 76.79 5.389c-22.202 9.066-37.828 30.804-37.789 56.176a60.39 60.39 0 002.004 15.382c.01.047 11.587 42.226 18.462 54.995.447.83 1.625 2.336 2.323 2.97 8.021 7.282 24.144 22.259 34.545 25.284.809.235 6.562.232 7.37-.006 9.297-2.737 27.011-17.495 34.57-25.257.667-.686 1.784-2.266 2.217-3.118 6.564-12.932 18.278-55.005 18.293-55.052a60.452 60.452 0 001.952-15.389c-.038-25.315-15.662-46.966-37.814-55.999z" fill="#d1a99e"/><path d="M138.275 134.933c-7.56 7.762-25.273 22.52-34.57 25.257-.809.238-6.561.241-7.37.006-10.402-3.025-26.524-18.002-34.545-25.284-.698-.634-1.876-2.14-2.323-2.97-6.875-12.77-18.452-54.948-18.462-54.995a60.39 60.39 0 01-2.004-15.382C38.949 28.09 66.155.919 99.773.867c33.621-.052 60.913 27.033 60.964 60.507a60.457 60.457 0 01-1.952 15.389c-.015.047-11.729 42.121-18.293 55.052-.432.852-1.55 2.432-2.217 3.118z" fill="none" stroke="#ab6957" stroke-width="1.5"/><path d="M100.2 142.947c-2.832.144-3.644-2.753-3.644-2.753s3.931.565 6.991-.353c.001.001-.855 2.981-3.347 3.106z" fill="url(#b)"/><path d="M100.488 140.76c-1.984.1-3.765-.077-3.877-.089a.249.249 0 01-.224-.272.258.258 0 01.274-.224c.041.003 4.096.405 6.738-.337.131-.032.271.041.309.174s-.04.27-.173.308c-.934.262-2.018.388-3.047.44z" fill="#ab6957"/><path d="M82.5 130.299s12.532 1.486 16.718 1.499c4.553.012 19.282-1.499 19.282-1.499-4.258 3.534-8.943 6.932-19.555 6.999-9.492.061-11.924-3.386-16.445-6.999z" fill="#fff"/><path d="M82.5 130.299s12.532 1.486 16.718 1.499c4.553.012 19.282-1.499 19.282-1.499-4.258 3.534-8.943 6.932-19.555 6.999-9.492.061-11.924-3.386-16.445-6.999z" fill="none" stroke="#ab6957" stroke-width=".75"/><path d="M59.722 85.795c2.578 4.596 2.19 5.704 10.268 4.467 9.691 0 17.711-1.976 17.711-5.558s-4.925-7.115-17.196-4.923C64.489 80.855 59.722 84 59.722 85.795z" fill="url(#c)"/><path d="M80.038 85.838a5.983 5.983 0 01-7.361 4.196 6.011 6.011 0 01-4.214-7.371 5.986 5.986 0 017.365-4.198 6.01 6.01 0 014.21 7.373z" fill="#b0b9d9" stroke="#576aab" stroke-width=".5"/><path d="M79.105 85.912c-.849 2.452-3.407 3.881-5.899 3.199-2.3-.631-3.752-2.838-3.563-5.171a21.893 21.893 0 012.756-.04c-.01.033-.027.062-.036.096-.306 1.125.407 2.305 1.592 2.63 1.189.326 2.401-.326 2.707-1.451.039-.147.06-.294.065-.439.813.296 1.611.679 2.378 1.176z" fill="#d4d8e8"/><path d="M75.063 82.46c-1.203-.344-2.429.342-2.739 1.54-.311 1.191.412 2.438 1.614 2.783 1.204.345 2.43-.342 2.741-1.534.313-1.198-.413-2.444-1.616-2.789zm.262 4.232c-.5.156-1.017-.051-1.154-.462-.133-.411.163-.867.667-1.019.503-.156 1.019.051 1.157.459.136.411-.163.867-.67 1.022z" opacity=".9"/><path d="M71.061 87.409c-.37.222-.922.023-1.238-.447-.316-.466-.269-1.024.102-1.247.368-.219.925-.021 1.239.446.312.467.267 1.027-.103 1.248z" fill="#fff" opacity=".6"/><path d="M78.96 83.99c-.846.507-2.117.051-2.837-1.02-.72-1.072-.612-2.352.234-2.857.844-.509 2.118-.053 2.834 1.019.719 1.072.615 2.35-.231 2.858z" fill="#fff" opacity=".8"/><path d="M54.8 84.999c0 13.807 8.507 25 19 25s19-11.193 19-25-8.507-25-19-25-19 11.193-19 25zm4.922.796c0-1.795 4.768-4.939 10.782-6.014C82.775 77.589 87.7 81.123 87.7 84.704c0 3.582-8.02 5.558-17.711 5.558-8.077 1.237-7.689.129-10.267-4.467z" fill="#d9b8af"/><path d="M58.697 86.046c-.075 6.904 8.647 12.467 18.038 12.434 9.389-.04 16.987-5.663 16.962-12.568-.023-6.903-7.647-12.467-17.04-12.431-9.392.038-17.858 3.121-17.96 12.565zm1.025-.251c0-1.795 4.768-4.939 10.782-6.014C82.775 77.589 87.7 81.123 87.7 84.704c0 3.582-8.02 5.558-17.711 5.558-8.077 1.237-7.689.129-10.267-4.467z" fill="url(#d)"/><path d="M59.722 85.795c2.578 4.596 2.19 5.704 10.268 4.467 9.691 0 17.711-1.976 17.711-5.558s-4.925-7.115-17.196-4.923C64.489 80.855 59.722 84 59.722 85.795z" fill="url(#e)"/><path d="M86.716 88.797s-1.383.778-2.354 1.036c-1.209.318-4.997.895-11.562 1.795 7.49-.531 10.48-.82 11.762-1.189 1.016-.292 2.154-1.642 2.154-1.642z" fill="#ab6957"/><path d="M87.757 83.463a.181.181 0 01-.011.247.183.183 0 01-.247.007l-3.871-3.383c-11.411-1.304-19.93.687-23.25 5.247l.536 2.4-3.114-2.69c3.172-4.526 6.306-7.915 25.828-6.735 2.305 2.252 3.509 3.379 4.129 4.907zm-1.125 3.979a.258.258 0 00.048-.306.258.258 0 00-.279-.135c-3.954 2.317-11.021 2.523-22.642 3.426l-2.25-1.384 1.653 2.046c12.582-.588 21.844-1.333 23.47-3.647z" fill="#1b2a40"/><path d="M139.879 85.795c-2.578 4.596-2.19 5.704-10.268 4.467-9.691 0-17.711-1.976-17.711-5.558s4.925-7.115 17.196-4.923c6.015 1.074 10.783 4.219 10.783 6.014z" fill="url(#f)"/><path d="M131.538 85.838a5.983 5.983 0 01-7.362 4.196c-3.196-.876-5.084-4.178-4.214-7.371a5.986 5.986 0 017.365-4.198 6.012 6.012 0 014.211 7.373z" fill="#b0b9d9" stroke="#576aab" stroke-width=".5"/><path d="M130.605 85.912c-.849 2.452-3.408 3.881-5.899 3.199-2.3-.631-3.753-2.838-3.563-5.171a21.897 21.897 0 012.756-.04c-.01.033-.027.062-.036.096-.306 1.125.407 2.305 1.593 2.63 1.189.326 2.401-.326 2.707-1.451.038-.147.06-.294.065-.439.812.296 1.611.679 2.377 1.176z" fill="#d4d8e8"/><path d="M126.563 82.46c-1.202-.344-2.429.342-2.738 1.54-.312 1.191.412 2.438 1.613 2.783 1.204.345 2.431-.342 2.742-1.534.311-1.198-.414-2.444-1.617-2.789zm.262 4.232c-.5.156-1.018-.051-1.154-.462-.133-.411.163-.867.667-1.019.503-.156 1.019.051 1.157.459.136.411-.163.867-.67 1.022z" opacity=".9"/><path d="M122.562 87.409c-.37.222-.923.023-1.238-.447-.316-.466-.27-1.024.102-1.247.367-.219.926-.021 1.239.446.312.467.266 1.027-.103 1.248z" fill="#fff" opacity=".6"/><path d="M130.46 83.99c-.846.507-2.116.051-2.837-1.02-.72-1.072-.612-2.352.234-2.857.845-.509 2.117-.053 2.834 1.019.719 1.072.616 2.35-.231 2.858z" fill="#fff" opacity=".8"/><path d="M125.801 59.999c-10.493 0-19 11.193-19 25s8.507 25 19 25 19-11.193 19-25-8.507-25-19-25zm3.81 30.263c-9.691 0-17.711-1.976-17.711-5.558s4.925-7.115 17.196-4.923c6.015 1.074 10.782 4.218 10.782 6.014-2.577 4.596-2.19 5.704-10.267 4.467z" fill="#d9b8af"/><path d="M122.943 73.48c-9.393-.036-17.017 5.528-17.04 12.431-.025 6.906 7.573 12.529 16.962 12.568 9.391.034 18.113-5.529 18.038-12.434-.101-9.443-8.567-12.526-17.96-12.565zm6.668 16.782c-9.691 0-17.711-1.976-17.711-5.558s4.925-7.115 17.196-4.923c6.015 1.074 10.782 4.218 10.782 6.014-2.577 4.596-2.19 5.704-10.267 4.467z" fill="url(#g)"/><path d="M139.879 85.795c-2.578 4.596-2.19 5.704-10.268 4.467-9.691 0-17.711-1.976-17.711-5.558s4.925-7.115 17.196-4.923c6.015 1.074 10.783 4.219 10.783 6.014z" fill="url(#h)"/><path d="M112.885 88.797s1.383.778 2.354 1.036c1.209.318 4.997.895 11.562 1.795-7.49-.531-10.48-.82-11.762-1.189-1.017-.292-2.154-1.642-2.154-1.642z" fill="#ab6957"/><path d="M115.973 78.555c19.522-1.179 22.656 2.209 25.828 6.735l-3.114 2.69.536-2.4c-3.32-4.56-11.839-6.551-23.25-5.247l-3.871 3.383a.18.18 0 01-.247-.007.183.183 0 01-.011-.247c.62-1.527 1.824-2.654 4.129-4.907zm20.465 12.535l1.653-2.046-2.25 1.384c-11.621-.903-18.688-1.109-22.642-3.426a.257.257 0 00-.279.135.258.258 0 00.048.306c1.627 2.313 10.888 3.058 23.47 3.647z" fill="#1b2a40"/><path d="M141 113.974c.035 22.622-18.292 40.994-40.938 41.025-22.642.037-41.028-18.273-41.063-40.9-.035-22.62 18.292-41.064 40.937-41.1 22.643-.035 41.031 18.35 41.064 40.975z" fill="url(#i)"/><path d="M137.5 53.999c0 20.711-16.789 37.5-37.499 37.5-20.711 0-37.501-16.789-37.501-37.5s16.79-37.5 37.501-37.5c20.71 0 37.499 16.789 37.499 37.5z" fill="url(#j)"/><path d="M54 74.189c9.954-9.974 16.761-5.915 30.589-3.264.845.162 6.32 1.539 5.31 3.469-.483.924-2.036.814-2.903.798-13.688-.256-20.344-9.995-32.996-1.003zm92 0c-9.953-9.974-16.761-5.915-30.589-3.264-.846.162-6.32 1.539-5.311 3.469.483.924 2.036.814 2.903.798 13.688-.256 20.345-9.995 32.997-1.003z" fill="#2a232b"/><path d="M105.07 117.886c1.053 0 1.338.28 1.338.625 0 .347-.328.879-1.338.624-1.109-.276-3.046-.148-3.046-.148s1.994-1.101 3.046-1.101zm-10.053 0c-1.054.001-1.337.282-1.337.628-.001.345.317.842 1.337.624 1.125-.241 3.046-.149 3.046-.149s-1.992-1.099-3.046-1.103zm13.592-3.738s1.458 1.654 1.154 3.403c-.294 1.699-3.238 2.447-3.238 2.447s2.044-1.297 2.292-2.873c.116-.735-.208-2.977-.208-2.977zm-17.992-1.702s-1.063 2.316-.755 3.727c.558 2.547 3.625 3.565 3.625 3.565s-1.914-1.747-2.594-3.291c-.744-1.684-.276-4.001-.276-4.001z" fill="#ab6957"/><path d="M105.019 115.38c1.021-.761 1.124-1.195.912-1.479-.21-.284-.823-.464-1.678.453-.942 1.012-2.991 1.758-2.991 1.758s2.735.031 3.757-.732z" fill="#e8d7d3"/><path d="M119.74 133.21c-13.47 0-17.96-3.72-19.72-4.18-1.62.36-6.35 4.73-21.51 4.11-.45-.02-1.06-.04-1.43-.12-3.19-2.37-3-6.36 3.14-7.91 5.72-1.15 11.97-5.01 19.95-5.01 6.74 0 10.37 2.45 19.62 5.03 2.47.68 4.8 1.33 5.19 4.67-.14 1.27-.84 2.35-2.14 3.26-.58.09-1.73.15-3.1.15z" fill="#b79675"/><path d="M95.87 127.4c1.2-1.24 2.17-3.14 3-4-.86 1.3-1.32 2.84-3 4zm.17-4.16c-2.23 3.02-2.41 3.13-5.17 6.17 2.9-2.21 3.71-3.49 5.17-6.17zm-4 1.66c-3.69 2.96-3.23 2.22-6.33 4.83 4.12-2.34 4.96-3.34 6.33-4.83zm-4.34 1c-4.01 2.49-1.09.78-7.33 5.17 2.65-1.2 2.52-1.03 7.33-5.17zm-4.66 1.5c-1.97.88-3.9 1.9-5.67 3.17 1.99-.84 3.87-1.94 5.67-3.17zm18.09-4c.89 1.35 1.36 2.87 3 4-1.25-1.28-2.05-3.02-3-4zm2.83-.16c1.75 3.24 2.61 4.23 5.17 6.17-2.77-3.05-2.94-3.16-5.17-6.17zm4 1.66c1.03 1.13 1.74 2.24 6.33 4.83-2.07-1.74-3.5-2.56-6.33-4.83zm4.34 1c4.51 3.88 4.58 3.92 7.33 5.17-3.87-2.72-4.54-3.43-7.33-5.17zm4.66 1.5c1.73 1.19 3.65 2.32 5.67 3.17-1.79-1.28-3.73-2.31-5.67-3.17z" fill="#a8815a"/><path d="M119.41 124.92c-9.65-2.3-15.75-7.96-30.02-2.83-1.96.66-7.64 2.62-9.19 2.93-.75.19-1.58.37-2.43.77-2.68 1.31-4.41 4.61-.71 7.33.42.09 1.15.11 1.61.13 14.96.57 19.76-3.71 21.32-4.12.67.17.86.31 1.5.65 6.34 3.58 18.76 3.81 21.42 3.36 1.22-.85 2.03-1.92 2.18-3.35-.42-3.59-3.01-4.12-5.68-4.87zm-18 3.86c-2.68-1.07-2.49.84-10.97 2.27-6.92 1.03-12.4 1.13-13.4 1.06-.69-.79-1.29-1.77-.89-2.74 1.39-2.77.41-1.39 13.75-5.91 14.77-5.36 10.59-2.05 29.55 3 3.89 1 3.69 1.54 4.41 2.94.38.96-.23 1.94-.91 2.71-2.65.16-14.31-.47-21.54-3.33zM81.229 37.267c12.868-1.984 19.271-3.835 26.7-2.011 17.444-4.256 44.396 12.821 44.058 12.472L141.505 9.063 88.143 6.881l-6.914 30.386z" fill="#986e43"/><path d="M50.214 85.807c2.957 4.436 8.314 11.276 12.339 14.709-2.166-5.199-11.455-39.957-5.884-58.116 6.415 19.058 17.901 30.843 28.959 35.166C90.152 84 96.677 90.884 102.587 95.204c-3.693-7.418-14.389-22.06-13.441-31.808 6.019 10.762 17.187 23.032 22.754 24.513-17.154-28.849-24.745-57.414-13.65-68.47 3.388 2.466 7.684 11.057 9.76 16.067 3.816-6.809 15.501-21.191 21.898-17.104 3.72.333 4.728 10.728 7.586 22.708 4.045 16.953 10.875 32.875-4.194 59.398 11.119-7.509 12.444-18.398 15.07-22.79 4.999 10.392-18.126 49.618-21.001 53.267C141.619 122.75 151.022 102.456 154 95c13.552-33.93 9.558-52.597 1.728-83.436-7.896-9.581-18.07-17.045-29.498-21.929-19.196-8.478-46.619-8.019-66.12-.95-23.241 8.537-45.426 35.3-44.1 59.82.534-2.312 1.689-7.771 3.347-10.7 4.39-7.421 7.084-12.414 19.143-22.311-4.311 7.94-9.086 17.787-11.97 26.22-.379 1.2-.099-.002-.92 3.19-4.831 19.61-4.502 36.043 4.05 57.6 0-.617-.12-5.095-.21-6.84-.829-30.82-3.078-26.765 4.546-46.484-1.788 11.785-5.229 15.159 3.954 54.514 2.669 11.057 7.916 20.029 9.11 21.63 2.258 3.269 11.117 15.923 14.49 20.58-.205-.998-3.327-14.442-3.46-15.01l.224.6c-3.956-14.167-9.111-30.121-8.1-45.687z" fill="#b79675"/><path d="M155.728 11.564a75.122 75.122 0 00-5.241-5.716c11.457 21.016 11.061 63.695.934 85.15 7.038-29.279 4.398-51.764-3.538-68.978 1.987 16.464 2.237 31.978-1.69 49.464-1.172-27.563-6.817-57.424-16.322-59.923-10.977-2.886-15.539 8.058-20.769 13.673-.173-8.436-7.063-13.397-11.004-11.641-9.891 4.408-8.668 29.141-6.553 40.405-8.174-20.514-3.401-27.292-2.115-43.828-13 15-12.089 31.694-7.428 48.829-11-19-8-43 7-59C67.229 10.592 59.735 34.63 70.185 59.893 58.097 42.439 64.788 21.31 67.229 3.625 52.156 34.975 45.806 45.856 50.778 77c-13.436-30.542 1.965-56.832 9.727-69.149-6 4-13.519 12.6-17.765 22.646C44.692 23.606 51.123 11.063 59 6c-13.274 4.286-19.292 15.971-22.461 23.692C41.606 7.936 59.577 3.009 66.338-2.241 46.903-.249 37.683 11.521 30.683 17.521 39.525 3.052 51.008-4.183 69.016-13.938c-3.097.738-6.091 1.604-8.907 2.624-23.241 8.537-45.426 35.3-44.1 59.82.534-2.312 1.689-7.771 3.347-10.7 4.39-7.421 7.084-12.414 19.143-22.311-4.311 7.94-9.086 17.787-11.97 26.22-.379 1.2-.099-.002-.92 3.19-4.831 19.61-4.502 36.043 4.05 57.6 0-.617-.12-5.095-.21-6.84-.829-30.82-3.078-26.765 4.546-46.484-1.788 11.785-5.229 15.159 3.954 54.514 2.669 11.057 7.916 20.029 9.11 21.63 2.258 3.269 11.117 15.923 14.49 20.58-.205-.998-3.327-14.442-3.46-15.01l.224.6c-3.956-14.168-9.11-30.122-8.1-45.688 2.957 4.436 8.314 11.276 12.339 14.709-2.166-5.199-11.455-39.957-5.884-58.116 6.415 19.058 17.901 30.843 28.959 35.166 4.525 6.434 11.05 13.318 16.96 17.638-3.693-7.418-14.389-22.06-13.441-31.808 6.019 10.762 17.187 23.032 22.754 24.513-17.154-28.849-24.745-57.414-13.65-68.47 3.165 2.303 7.121 9.95 9.321 15.031.018-1.067.018-1.067 0 0 .155.358.303.706.439 1.036 3.816-6.809 15.501-21.191 21.898-17.104 3.72.333 4.728 10.728 7.586 22.708 4.045 16.953 10.875 32.875-4.194 59.398 11.119-7.509 12.444-18.398 15.07-22.79 4.999 10.392-18.126 49.618-21.001 53.267C141.619 122.75 151.022 102.456 154 95c13.552-33.93 9.558-52.597 1.728-83.436z" fill="#a8815a"/><path d="M54.619 131.235c-4.236-6.189-8.827-15.104-12.867-30.5 0 0-.333-1.27-.799-3.182-4.715-19.148-7.161-35.212-2.584-50.318-2.627 11.899-1.206 21.003.692 32.688 2.087 12.705 7.72 37.278 15.558 51.312zm-21-94.75c-5.395 14.443-7.984 24.807-7.5 39 .504-10.111 1.391-18.327 7.5-39zm22 2.5c-2.777 13.875-4.327 20.931-1.716 33.45 1.867 9.42 3.447 14.162 6.216 23.3-7.462-34.216-7.615-31.349-4.5-56.75zm17.25 2.75c1.788 20.072 12.09 36.972 27.25 50.5-13.57-14.238-24.141-31.31-27.25-50.5zm12.75 5.5c5.267 19.48 9.782 27.643 25.61 39.93-14.708-13.427-18.402-19.485-25.61-39.93zm80.185-14.496c-.605-1.818-6.422-13.972-13.814-22.025 5.357 6.684 9.14 14.642 12.457 21.823.001 0 .112.219.249.629 4.96 13.976 5.59 33.072 5.089 39.832 1.509-9.67.907-26.541-3.981-40.259zM152.88 94.235c-4.602 8.878-6.871 12.852-7.598 14.196.001 0-.066.145-.216.378-7.072 11.362-8.508 11.86-15.897 20.216 11.511-11.104 14.506-13.565 23.711-34.79zm-9.581-26.245c.153 13.452-2.029 20.352-9.018 31.167 7.09-9.319 10.171-16.986 9.018-31.167zm-89.931 49.343s-.196-.748-.432-1.883c-3.218-15.218-3.527-22.919-3.817-29.715-.429 13.946.793 27.354 8.5 50.75 0 0-1.866-8.809-4.251-19.152zM28.804 16.079c3.802-5.144 5.058-6.782 9.815-11.093-8.532 6.663-14.775 14.633-19.724 29.688-.392 1.132-.346 1.071-.776 3.062 2.85-9.275 10.685-22.263 10.685-21.657zm28.625 25.406c4.052 13.7 12.798 26.843 25.671 34-12.003-8.066-20.84-21.406-25.671-34zm77.124-26.903c-1.265-1.483-2.858-2.238-4.327-2.826 1 .481 1.648.748 2.607 1.548 1.106 1.053 2.361 2.361 3.324 4.244 5.606 10.221 9.457 41.919 10.297 52.955-.033-10.903-2.88-46.483-11.901-55.921zm-36.784-1.366c4.979.069 8.812.213 12.009 12.171-2.399-13.053-8.19-12.38-12.009-12.171zM89.335-.068C80.56 6.535 75.979 18.659 75.792 29.408c1.041-10.47 5.662-22.547 13.543-29.476z" fill="#c6ac93"/><path d="M155.831 11.662c-7.896-9.582-18.174-17.143-29.602-22.027-19.196-8.478-46.619-8.019-66.12-.95-23.241 8.537-45.426 35.3-44.1 59.82 2.566-11.025 8.714-20.72 22.49-33.01-4.311 7.94-9.086 17.787-11.97 26.22-.379 1.2-.099-.002-.92 3.19-4.831 19.61-4.502 36.043 4.05 57.6 0-.617-.12-5.095-.21-6.84-.829-30.82.813-32.675 5.837-51.161-3.8 12.478-6.519 19.835 2.663 59.19 2.669 11.057 7.916 20.029 9.11 21.63 2.258 3.269 11.117 15.923 14.49 20.58-.206-1-11.993-45.903-11.29-58.21 3.365 4.433 9.484 11.38 13.86 14.88-2.168-6.381-5.93-23.423-6.5-27.07-.09-.65-.22-1.57-.38-2.68-1.189-7.291-1.932-21.021-.26-29.18 1.481 5.059 4.965 13.05 8.2 17.43 6.745 9.379 9.956 11.43 19.71 16.9 6.016 8.228 11.756 13.338 19.13 18.68-11.845-20.011-13.297-24.944-14.49-32.12 5.456 11.223 12.598 19.667 23.689 24.61-8.703-17.044-22.838-44.488-17.459-62.38.946-3.081 2.045-5.154 2.57-5.85v-.02c.068-.147.06-.129.1-.2 1.688 1.205 7.787 9.563 9.5 15.56.011-.01.011-.02.021-.03 1.267-2.533 4.484-7.169 7.729-10.56 16.615-16.613 16.758-2.04 18.721 7.41 8.082 32.594 11.446 46.342-3.431 69.58 8.596-3.947 15.656-15.089 17.521-24.45-3.159 23.102-11.221 34.676-23.69 55.74 2.91-2.089 2.59-1.882 3.59-2.61 32.326-22.212 42.264-80.399 30.242-102.902 8.775 19.989.511 75.588-29.771 101.052 19.955-29.485 20.537-43.486 22.56-65.62 1.35-14.309.449-18.735-.479-23.47.543 4.677.84 7.448-.261 17.42-1.973 15.043-4.987 31.514-16.689 41.79 13.733-20.855 10.343-35.993 2.68-65.98-1.979-7.784-2.434-23.397-15.47-14.3-5.16 3.425-10.166 10.124-12.99 15.68-1.562-5.649-4.792-11.777-9.97-17.24-.02-.02-.05-.07-.07-.06-1.822 2.912-10.67 11.246-2.61 37.07 3.86 12.465 9.448 22.083 15.67 32.39-13.746-7.828-28.114-32.458-26.791-51.62.313-5.359 1.382-12.417 1.22-17.9-.807 13.3-5.346 21.354-.98 34.6 0 0 1.26 4.12 3.15 8.55.561 13.101 6.94 22.296 13.94 33.65-17.286-15.125-27.847-36.655-30.3-57.9-.6-8.81 3.465-23.018 7.2-25.15-3.907 2.627-8.805 12.239-9.31 23.48-.385 10.926 6.498 30.484 14.2 41.27-9.374-6.058-18.5-12.899-26.13-34.66 1.899-8.935 4.806-14.084 5.6-25.91-1.883 12.57-4.897 15.589-8.03 28.11-2.011 7.073-2.438 30.361 6.75 55.33-5.463-6.071-14.528-19.557-16.93-27.3-8.496-22.848 3.521-47.839 6.52-51.8 1.659-2.32 4.089-4.836 5.07-7.43-3.984 6.947-6.792 4.377-14.27 24.56-3.99 11.964-3.175 25.464.46 35.44 1.321 3.516 4.859 9.505 6.88 14.2-1.688 13.469 5.969 41.852 9.82 54.5-10.324-16.373-17.78-24.85-22.22-53.02-3.586-22.754-7.284-36.619 11.98-75.14-3.442 6.136-5.164 9.043-9.13 17.13l-.01.01c-9.9 20.647-13.651 35.24-12.38 60.03-6.982-29.604.523-49.203 13.14-76.29C42.383 11.562 54.786 3.262 59.629 0c-4.802 2.877-35.973 19.182-42.84 43.215 2.334-20.755 21.345-44.678 43.81-52.69 18.812-6.53 46.021-7.101 64.75 1.18 12.789 5.481 23.954 14.45 31.83 25.437l-1.348-5.48z" fill="#895c2f"/></svg>