<svg xmlns="http://www.w3.org/2000/svg" width="500" height="500" viewBox="0 0 200 200" overflow="hidden"><defs><radialGradient id="k" cx="100" cy="114" r="41" gradientUnits="userSpaceOnUse" class="svga-on-canvas-facehighlight-gradient-single-0"><stop stop-opacity=".5" stop-color="#ffe4d6" offset="0"/><stop stop-opacity="0" stop-color="#f0c7b1" offset=".9"/></radialGradient><radialGradient id="l" cx="100" cy="54" r="37" gradientUnits="userSpaceOnUse" class="svga-on-canvas-facehighlight-gradient-single-1"><stop stop-opacity=".5" stop-color="#ffe4d6" offset="0"/><stop stop-opacity="0" stop-color="#f0c7b1" offset=".9"/></radialGradient><radialGradient id="c" cx="126.379" cy="84.372" r="10.565" gradientTransform="matrix(-1 0 0 1 200 0)" gradientUnits="userSpaceOnUse" class="svga-on-canvas-eyesback-gradient-left-0"><stop stop-color="#fff" offset="0"/><stop stop-color="#fdfefe" offset=".544"/><stop stop-color="#f6f8f9" offset=".74"/><stop stop-color="#eaeff2" offset=".879"/><stop stop-color="#d9e3e8" offset=".992"/><stop stop-color="#d8e2e7" offset="1"/></radialGradient><radialGradient id="g" cx="125.981" cy="84.372" r="10.565" gradientUnits="userSpaceOnUse" class="svga-on-canvas-eyesback-gradient-right-0"><stop stop-color="#fff" offset="0"/><stop stop-color="#fdfefe" offset=".544"/><stop stop-color="#f6f8f9" offset=".74"/><stop stop-color="#eaeff2" offset=".879"/><stop stop-color="#d9e3e8" offset=".992"/><stop stop-color="#d8e2e7" offset="1"/></radialGradient><radialGradient id="e" cx="123.515" cy="85.489" fx="135.233" fy="85.522" r="16.667" gradientTransform="matrix(.9998 .0208 .0166 -.7998 -48.426 151.295)" gradientUnits="userSpaceOnUse" class="svga-on-canvas-eyesfront-gradient-left-3"><stop stop-color="#e1ac8f" offset="0"/><stop stop-opacity=".3" stop-color="#e1ac8f" offset=".7"/><stop stop-opacity="0" stop-color="#f0c7b1" offset="1"/></radialGradient><radialGradient id="f" cx="123.064" cy="101.945" r="26.851" gradientTransform="matrix(-.8988 -.4384 -.32 .6561 220.169 89.004)" gradientUnits="userSpaceOnUse" class="svga-on-canvas-eyesfront-gradient-left-4"><stop stop-opacity="0" offset=".9"/><stop stop-opacity=".2" offset="1"/></radialGradient><radialGradient id="i" cx="123.116" cy="85.489" fx="134.835" fy="85.522" r="16.667" gradientTransform="matrix(-.9998 .0208 -.0166 -.7998 247.629 151.303)" gradientUnits="userSpaceOnUse" class="svga-on-canvas-eyesfront-gradient-right-3"><stop stop-color="#e1ac8f" offset="0"/><stop stop-opacity=".3" stop-color="#e1ac8f" offset=".7"/><stop stop-opacity="0" stop-color="#f0c7b1" offset="1"/></radialGradient><radialGradient id="j" cx="122.665" cy="101.945" r="26.851" gradientTransform="matrix(.8988 -.4384 .32 .6561 -20.21 88.83)" gradientUnits="userSpaceOnUse" class="svga-on-canvas-eyesfront-gradient-right-4"><stop stop-opacity="0" offset=".9"/><stop stop-opacity=".2" offset="1"/></radialGradient><linearGradient id="d" x1="132" y1="78" x2="126" y2="84" gradientTransform="translate(-50)" gradientUnits="userSpaceOnUse" class="svga-on-canvas-eyesiris-gradient-left-6"><stop stop-color="#fff" offset="0"/><stop stop-opacity="0" stop-color="#fff" offset="1"/></linearGradient><linearGradient id="h" x1="132" y1="78" x2="126" y2="84" gradientUnits="userSpaceOnUse" class="svga-on-canvas-eyesiris-gradient-right-6"><stop stop-color="#fff" offset="0"/><stop stop-opacity="0" stop-color="#fff" offset="1"/></linearGradient><linearGradient id="b" x1="100" y1="140" x2="100" y2="138" gradientUnits="userSpaceOnUse" class="svga-on-canvas-mouth-gradient-single-0"><stop stop-color="#e8b9a0" offset=".1"/><stop stop-color="#e1ac8f" offset="1"/></linearGradient><linearGradient id="a" x1="100" y1="171" x2="100" y2="128" gradientUnits="userSpaceOnUse" class="svga-on-canvas-chinshadow-gradient-single-0"><stop stop-opacity=".8" stop-color="#e1ac8f" offset="0"/><stop stop-color="#c27b55" offset=".7"/></linearGradient></defs><path d="M225 225H-25V-25h250v250z" fill="#c4c7f3"/><path d="M137.635-25h14.142L225 48.224v14.142L137.635-25zM225 90.649V76.507L123.492-25H109.35L225 90.649zm0 28.285v-14.142L95.208-25H81.065L225 118.934zm0 28.285v-14.143L66.925-25H52.782L225 147.219zM225 225v-7.071L-17.929-25H-25v7.071L217.929 225H225zm0-219.204V-8.345L208.345-25h-14.142L225 5.796zm0 28.285V19.939L180.061-25h-14.142L225 34.081zm0 141.422V161.36L38.64-25H24.497L225 175.503zM222.487-25L225-22.487V-25h-2.513zM48.224 225h14.143L-25 137.635v14.142L48.224 225zm-28.286 0h14.143L-25 165.919v14.143L19.938 225zm-28.283 0H5.798L-25 194.203v14.143L-8.345 225zm84.852 0H90.65L-25 109.351v14.142L76.507 225zm-98.994 0L-25 222.487V225h2.513zm183.847 0h14.143L-25 24.497V38.64L161.36 225zm-56.568 0h14.142L-25 81.066v14.142L104.792 225zm84.853 0h14.142L-25-3.787v14.142L189.645 225zM225 203.787v-14.143L10.354-25h-14.14L225 203.787zM133.076 225h14.142L-25 52.782v14.142L133.076 225z" fill="#a1a5e4"/><path d="M100.5 100.5h-1v-1h1v1z" fill="#2a232b"/><path d="M195.417 199.778c-2.196-4.746-8.195-11.779-14.86-13.722-8.239-2.403-26.837-5.308-33.733-6.923-5.528-1.296-16.662-11.294-20.564-14.65-.7-.6-1.273-1.839-1.287-2.76-.139-10.864 4.195-39.724 4.195-39.724H70.833s4.334 28.859 4.193 39.724c-.011.921-.587 2.16-1.285 2.76-3.902 3.356-15.036 13.354-20.564 14.65-6.897 1.615-25.495 4.619-33.733 7.022-6.667 1.942-12.664 8.876-14.86 13.622-3.708 8.008-4.584 22.5-4.584 35h200c0-12.499-.877-26.991-4.583-34.999z" fill="#f0c7b1"/><path d="M159.156 184.058c24.342 3.542 34.586 8.708 37.794 50.721H200c0-12.5-.877-26.992-4.583-35-2.196-4.746-8.195-11.779-14.86-13.722-8.239-2.403-26.837-5.308-33.733-6.923-5.528-1.296-18.242-12.069-21.643-16.35 3.36 4.704 12.791 15.605 21.054 18.46 3.953 1.366 7.245 1.988 12.921 2.814zm-105.39-2.814c8.263-2.854 17.693-13.756 21.054-18.46-3.4 4.28-16.114 15.054-21.643 16.35-6.896 1.615-25.494 4.619-33.733 7.022-6.665 1.942-12.664 8.876-14.86 13.622-3.706 8.008-4.583 22.5-4.583 35h3.05c3.188-41.744 13.475-47.183 37.794-50.721 5.675-.825 8.968-1.447 12.921-2.813z" fill="#ffe4d6"/><path d="M95.646 197.62s-5.074-1.609-7.083-2.379c-10.449-4.009-44.395-6.607-44.395-6.607s35.754 1.419 43.644 2.779c-.458-4.767-3.017-20.004-3.017-20.004s5.149 16.815 6.409 21.057c.674 2.268 4.442 5.154 4.442 5.154zm10.799-1.342c-.089.073-.191.168-.302.268.113-.085.215-.174.302-.268zm-10.799 1.342s2.893 2.992 4.347 3.03c1.91.051 4.828-2.899 6.151-4.104-1.265.957-4.159 1.391-5.31 1.436-1.33.051-5.188-.362-5.188-.362zm21.018-7.519c-1.545.248-4.386.789-4.386.789l2.287-14.89c-.646 3.071-4.474 16.211-8.12 20.278 1.91-1.616 6.158-2.391 8.324-2.704 10.236-1.484 10.232-1.483 41.062-4.94 0 0-29.071-.155-39.167 1.467z" fill="#e1ac8f"/><path d="M195.417 199.778c-2.196-4.746-8.195-11.779-14.86-13.722-8.239-2.403-26.837-5.308-33.733-6.923-5.528-1.296-16.662-11.294-20.564-14.65-.7-.6-1.273-1.839-1.287-2.76-.139-10.864 4.195-39.724 4.195-39.724H70.833s4.334 28.859 4.193 39.724c-.011.921-.587 2.16-1.285 2.76-3.902 3.356-15.036 13.354-20.564 14.65-6.897 1.615-25.495 4.619-33.733 7.022-6.667 1.942-12.664 8.876-14.86 13.622-3.708 8.008-4.584 22.5-4.584 35h200c0-12.499-.877-26.991-4.583-34.999z" fill="none" stroke="#c27b55" stroke-width="1.5"/><path d="M124.272 162.248a3.725 3.725 0 01-.051-.515c-.094-7.38 1.819-22.721 3.098-32.078-15.699-1.984-38.937-1.975-54.637.016 1.279 9.359 3.19 24.687 3.094 32.062a3.11 3.11 0 01-.03.367c3.825 3.586 7.667 6.528 11.055 8.151 5.312 2.546 21.035 2.427 26.401 0 3.411-1.541 7.254-4.439 11.07-8.003z" fill="url(#a)"/><path d="M100.149 235.501c-36.446 0-72.93-.368-108.449-1.096.12-20.336 7.704-44.369 28.687-51.396 4.938-1.846 16.188-3.148 24.401-4.099l.711-.083.069-.36c.021-.112.195-.247.274-.269 1.715-.198 2.971-.433 4.08-.64l.728-.135a.99.99 0 01.899.306c11.402 12.559 25.347 19.213 37.65 25.084 3.362 1.604 6.538 3.12 9.567 4.704.528.276 1.029.565 1.512.844a31.35 31.35 0 001.534.85l.253.128.239-.151c14.961-9.438 31.821-20.638 43.447-32.137a.802.802 0 01.75-.211c.888.209 1.764.371 2.652.535 1.105.205 2.248.416 3.44.727a.285.285 0 01.137.18l.086.326.335.042c2.063.258 4.156.465 6.372.685 9.69.959 20.673 2.045 29.422 8.015 12.045 7.939 17.589 29.405 18.789 47.052-.912.012-2.652.046-5.166.096-13.932.274-50.941 1.005-102.415 1.005-.001-.002 0-.002-.004-.002z" fill="#6a3a47"/><path d="M207.736 234.4c-.408.005-.99.016-1.725.028-3.039-16.858-6.315-31.74-17.834-43.399-10.539-8.782-28.915-5.961-42.535-10.969-12.926 14.626-29.187 23.197-43.576 29.279 14.264-9.024 36.136-23.31 43.687-32.288 5.783 1.338 33.561 3.724 43.194 10.297 12.045 7.94 17.589 29.406 18.789 47.052zM51.55 177.73c-.023-.025-26.379 3.491-31.163 5.278C-.596 190.035-8.18 214.069-8.3 234.404l.824.016c1.106-15.271 5.857-28.244 16.094-39.269 10.321-11.26 29.183-10.47 43.568-13.491 15.293 15.293 35.334 23.124 49.879 27.679-22.166-11.211-37.432-17.199-50.515-31.609z" fill="#794e5a"/><path d="M189.229 186.936c-10.788-7.36-24.537-7.347-36.014-8.782-.075-.285-.297-.483-.494-.535-2.157-.563-4.103-.794-6.104-1.265a1.304 1.304 0 00-1.216.343c-12.013 11.882-29.564 23.364-43.362 32.069-.95-.48-1.936-1.113-3.04-1.69-14.321-7.485-32.69-13.834-47.079-29.681a1.482 1.482 0 00-1.357-.463c-1.256.227-2.682.527-4.793.772-.207.024-.62.292-.691.669-8.181.947-19.799 2.273-24.849 4.162-20.823 6.974-29.03 30.729-29.03 52.36 120.98 2.487 212.138 0 217.07 0-.969-15.288-5.795-39.229-19.041-47.959zm-43.64-9.022c1.881.592 3.384 1.044 5.91 1.58-2.104 1.75-1.066.361-7.82 6.671-13.685 12.477-36.478 27.873-40.103 30.926-.008-.003-4.283-2.621-5.545-3.133 8.657-8.14 30.581-16.809 47.558-36.044zm-93.89.539c9.43 13.735 30.987 22.687 46.8 29.723.95.42 1.86.819 2.72 1.149-.704.48-4.058 3.29-4.647 3.874-31.748-13.889-41.131-22.162-50.322-33.566.234-.05 5.14-1.11 5.449-1.18zm-59.83 56.103c1.432-12.942 3.708-24.542 11.97-36.521 9.405-13.872 22.03-15.55 41.8-18.282 12.181 14.889 15.774 17.207 27.37 23.183 17.201 8.864 23.096 11.082 30.617 14.896 7.062-5.305 27.974-17.449 44.293-34.058 2.604-2.647 2.321-2.323 4.271-4.13 30.93 5.092 45.369-.379 55.439 54.742-74.084-1.467-142.612-1.308-215.76.17z" fill="#3c0f1b"/><path d="M45.443 82.722c-1.469-2.433-6.648-7.545-10.31-6.61-2.979.762-6.032 3.243-6.032 7.473-.001 6.553 1.496 9.338 2.501 12.311.856 2.53 3.915 7.167 5.761 8.964 2.273 2.208 5.957 9.35 6.404 10.079.705 1.154 1.877 2.988 4.043 3.057 3.29.104 7.085-2.105 7.323-3.488 1.287-7.499-5.87-25.456-9.69-31.786z" fill="#f0c7b1" stroke="#c27b55" stroke-width="1.5"/><path d="M43.596 99.086c-.142-.558.007-1.495.152-2.4.131-.826.255-1.605.18-2.157-.285-2.064-1.892-5.988-2.942-8.115-1.208-2.446-4.117-5.528-6.568-6.322-1.013-.329-1.681.064-2.067.463-.284.293-.347.637-.254.678.093.041.304-.244.61-.513.25-.22.617-.408 1.122-.369-.203 1.028-3.138 4.222-1.381 10.392.822 2.888 1.992 5.214 2.202 5.549.032.352.083.696.159 1.031.991 4.357 7.286 11.54 8.785 13.162.277.3.567.477.639.406.072-.072-.1-.368-.376-.671-1.48-1.611-7.734-8.777-8.69-12.981-1.754-7.702 1.916-7.832 4.499-12.473.397.657.733 1.288.993 1.814.203.413.429.896.661 1.417-.458.729-5.059 6.055-3.889 10.317.433 1.572 3.779 3.598 5.073 4.153.712.306.979.763 1.289 1.291.359.613.767 2.796 1.95 3.298.241.103.458.146.651.146a1.2 1.2 0 00.774-.28c.019.267.018.612.008.93-.011.411.046.748.147.756s.208-.317.221-.727c.016-.504.014-1.128-.077-1.426-.265-.88-1.076-1.871-1.934-2.921-.845-1.031-1.718-3.587-1.937-4.448zm-8.98-3.863c-2.322-6.84.993-12.744 1.514-13.684.908.787 2.662 1.841 3.314 2.87-3.114 5.395-4.633 1.642-4.828 10.814zm11.268 11.494c-1.072-.455-1.431-2.555-1.778-3.147-.314-.536-.639-1.089-1.461-1.443a3.848 3.848 0 01-.578-.328c-3.861-5.758.291-8.626 1.027-9.163.226.734.396 1.407.47 1.946.068.496-.058 1.284-.179 2.045-.15.944-.306 1.92-.145 2.553.24.941 1.14 3.529 2.01 4.594.772.945 1.564 1.919 1.835 2.713-.115.158-.481.535-1.201.23z" fill="#c27b55"/><path d="M154.295 82.722c1.469-2.433 6.648-7.545 10.311-6.61 2.979.762 6.031 3.243 6.031 7.473.002 6.553-1.496 9.338-2.5 12.311-.857 2.53-3.916 7.167-5.762 8.964-2.273 2.208-5.957 9.35-6.404 10.079-.705 1.154-1.877 2.988-4.043 3.057-3.291.104-7.086-2.105-7.324-3.488-1.286-7.499 5.871-25.456 9.691-31.786z" fill="#f0c7b1" stroke="#c27b55" stroke-width="1.5"/><path d="M154.205 103.536c-.857 1.05-1.668 2.041-1.934 2.921-.09.298-.092.922-.076 1.426.014.409.119.734.221.727s.158-.345.146-.756c-.01-.317-.01-.663.01-.93.186.152.439.28.773.28.193 0 .41-.043.65-.146 1.184-.502 1.592-2.686 1.951-3.298.311-.528.576-.985 1.289-1.291 1.293-.555 4.639-2.581 5.072-4.153 1.17-4.262-3.432-9.588-3.889-10.317.232-.522.457-1.004.66-1.417.26-.526.596-1.157.994-1.814 2.582 4.641 6.252 4.771 4.498 12.473-.957 4.204-7.209 11.37-8.689 12.981-.275.303-.447.599-.377.671.072.07.361-.106.639-.406 1.5-1.622 7.795-8.805 8.785-13.162.076-.334.129-.679.16-1.031.209-.334 1.379-2.661 2.201-5.549 1.758-6.17-1.178-9.364-1.381-10.392.504-.039.871.149 1.123.369.305.269.518.553.609.513.094-.041.029-.385-.254-.678-.387-.399-1.055-.792-2.068-.463-2.451.794-5.359 3.876-6.568 6.322-1.049 2.126-2.656 6.05-2.941 8.115-.074.552.049 1.331.18 2.157.145.906.293 1.843.152 2.4-.217.859-1.09 3.415-1.936 4.448zm6.09-19.127c.652-1.029 2.406-2.083 3.313-2.87.521.939 3.836 6.843 1.516 13.684-.196-9.172-1.716-5.419-4.829-10.814zm-7.643 22.077c.271-.794 1.064-1.768 1.836-2.713.869-1.065 1.77-3.653 2.01-4.594.16-.632.006-1.608-.145-2.553-.121-.761-.248-1.55-.18-2.045.074-.539.244-1.212.471-1.946.734.537 4.887 3.405 1.025 9.163a3.752 3.752 0 01-.578.328c-.822.354-1.146.908-1.461 1.443-.346.592-.705 2.692-1.777 3.147-.718.306-1.085-.071-1.201-.23z" fill="#c27b55"/><path d="M144.004 126.997c-5.003 10.225-20.047 28.437-30.801 33.266-5.366 2.412-21.089 2.53-26.401 0-10.646-5.067-25.765-23.057-30.801-33.266-5.613-11.374-14.851-48.553-14.863-48.607a62.25 62.25 0 01-2.004-15.623c-.052-34 27.154-61.598 60.772-61.65 33.621-.053 60.913 27.457 60.963 61.456a62.316 62.316 0 01-1.952 15.631c-.016.052-9.317 37.355-14.913 48.793z" fill="#f0c7b1"/><path d="M110.152 1.982c26.994 6.338 47.097 30.814 47.052 60.039a62.304 62.304 0 01-2.004 15.624c-.012.054-8.61 37.245-14.13 48.608-4.859 10.004-19.7 27.468-30.067 32.521-2.163 1.055-8.694 1.555-11.001 1.555-2.307 0-8.837-.5-11-1.555-10.367-5.053-25.209-22.517-30.067-32.521-5.521-11.363-14.119-48.554-14.13-48.608a62.252 62.252 0 01-2.004-15.624C42.756 32.796 62.857 8.32 89.853 1.982 61.03 6.877 39.087 32.232 39.134 62.767a62.25 62.25 0 002.004 15.623c.012.054 9.232 37.241 14.863 48.607 5.052 10.199 20.207 28.085 30.801 33.266 2.658 1.301 9.305 1.855 12.954 1.853 3.646.003 10.791-.552 13.447-1.853 10.594-5.182 25.748-23.066 30.801-33.266 5.631-11.366 14.852-48.553 14.862-48.607a62.25 62.25 0 002.004-15.623c.048-30.535-21.895-55.89-50.718-60.785z" fill="#e8b9a0"/><path d="M144.004 126.997c-5.003 10.225-20.047 28.437-30.801 33.266-5.366 2.412-21.089 2.53-26.401 0-10.646-5.067-25.765-23.057-30.801-33.266-5.613-11.374-14.851-48.553-14.863-48.607a62.25 62.25 0 01-2.004-15.623c-.052-34 27.154-61.598 60.772-61.65 33.621-.053 60.913 27.457 60.963 61.456a62.316 62.316 0 01-1.952 15.631c-.016.052-9.317 37.355-14.913 48.793z" fill="none" stroke="#c27b55" stroke-width="1.5"/><path d="M100.002 140.198c-5.219 0-6.442-2.251-6.442-2.251 6.903 1.402 12.884-.096 12.884-.096s-1.852 2.347-6.442 2.347z" fill="url(#b)"/><path d="M83.436 134.045c5.529-.367 8.751-1.781 11.503-1.845 1.422-.035 2.951.575 4.485.771 1.066.136 4.094-.765 5.184-.771 2.852-.017 7.046 1.422 11.926 1.845.175.015 0 0 0 0s-7.268 4.597-16.549 4.597c-10.506 0-16.549-4.597-16.549-4.597s-.177.011 0 0z" fill="#98a2a2"/><path d="M116.994 133.91c-.061-.109-.606-.244-.82-.238-.392.011-.842.262-1.648.271-.933.01-5.871.402-7.197.356-2.674-.094-4.802.44-7.342.44-2.542 0-4.853-.583-7.524-.489-1.327.048-6.085-.297-7.019-.308-.807-.01-1.119-.273-1.463-.308-.241-.023-.833.11-.95.222-.104.102.115.445.262.527.357.195 1.425.16 2.132.169.974.012 5.744.355 7.091.308 2.611-.093 4.94.544 7.471.544 2.53 0 4.676-.587 7.287-.494 1.343.048 6.295-.347 7.271-.357.706-.009 1.715-.039 2.075-.193.172-.072.435-.339.374-.45z" fill="#4a7474"/><path d="M88.386 135.437c9.831-.289 6.257.233 10.942.392 2.369.085 9.812-.924 12.748-.869-9.023 3.642-17.299 3.266-23.69.477zm23.268-1.815c-5.961-1.694-10.568-.265-11.703-.185-3.81.264-1.78-2.049-10.986.24 8.953-.126 6.496.491 10.721.567 1.677.029 10.17-.691 11.968-.622z" fill="#a8aaaa"/><path d="M92.763 135.67c4.978-.262 4.379 1.022 10.036.243 1.552-.212 2.205-.288 3.822-.221-4.831 1.898-9.926 1.562-13.858-.022z" fill="#b1b1b1"/><path d="M84.244 90.599a2.962 2.962 0 002.656-4.267l-3.079-6.258-17.826-1.93-5.955 6.134 4.864 6.321h19.34z" fill="url(#c)"/><path d="M80.288 86.088a5.98 5.98 0 01-7.358 4.196c-3.195-.876-5.083-4.178-4.212-7.371a5.983 5.983 0 017.362-4.198 6.011 6.011 0 014.208 7.373z" fill="#724f7c" stroke="#431a4e" stroke-width=".5"/><path d="M73.765 80.913l-.156-.279c-.548.218-1.076.445-1.575.687l.37.894-.047.517-1.426-.839c-.466.259-.898.529-1.318.804l.004.009-.489.55.781.799-1.052.574.398.657 1.857.185-1.741 1.181 1.863-.103-.982 1.693 2.297-1.39-.618 2.364 1.329-2.184.256 2.343.384-2.072.353-.043.5 2.35.152-.705c.201-.052.718.704.915.651L75.236 87l1.282 2.556-.52-2.651 1.578 2.05c.057-.018.196-.85.252-.867l-.982-1.469 1.785.539-1.071-1.16-.86-.712 3.586.803-1.997-1.217 1.411-.577-3.055-.309 3.021-1.602-2.734.698-.736-.399-.181-.354.052-.846.061-1.389-1.248 2.198-.11-1.609-.157-.421c-.25.087-.495.172-.736.265l-.112.386z" fill="#83678b"/><path d="M80.356 83.255c-5.242.239-7.907 1.36-11.707 2.631-.732-3.229 1.298-6.438 4.53-7.164s6.446 1.303 7.177 4.533z" fill="#623a6d" opacity=".9"/><path d="M75.369 82.498c-1.319-.378-2.666.375-3.005 1.69-.342 1.308.452 2.678 1.771 3.056 1.32.379 2.667-.375 3.009-1.684.343-1.315-.454-2.684-1.775-3.062z" opacity=".8"/><path d="M75.369 82.498c-1.319-.378-2.666.375-3.005 1.69-.342 1.308.452 2.678 1.771 3.056 1.32.379 2.667-.375 3.009-1.684.343-1.315-.454-2.684-1.775-3.062z" fill="none" stroke="#431a4e" stroke-width=".75"/><path d="M70.131 88.06c.613.973 1.426 1.706 2.578 1.95 1.326.281 1.477-1.483.528-1.685-.72-.152-1.176-.505-1.552-1.102-.688-1.093-2.106-.039-1.554.837z" fill="#fff" opacity=".4"/><path d="M75.033 81.493c.929.187 1.469.768 1.938 1.64.862 1.604 3.299.178 2.437-1.425-.757-1.408-2.019-2.613-3.625-2.938-2.057-.415-2.345 2.401-.75 2.723z" fill="url(#d)" transform="translate(.5 .5)"/><path d="M55 84.999c0 13.807 8.507 25 19 25s19-11.193 19-25-8.507-25-19-25-19 11.193-19 25zm5.039-.721l5.955-6.134 17.826 1.93 3.079 6.258a2.96 2.96 0 01-2.657 4.267h-19.34l-4.863-6.321z" fill="#f0c7b1"/><path d="M58.897 86.046c-.075 6.904 8.647 12.467 18.038 12.434 9.389-.04 16.987-5.663 16.962-12.568-.023-6.903-7.647-12.467-17.04-12.431-9.392.038-17.858 3.121-17.96 12.565zm1.142-1.768l5.955-6.134 17.826 1.93 3.079 6.258a2.96 2.96 0 01-2.657 4.267h-19.34l-4.863-6.321z" fill="url(#e)"/><path d="M84.244 90.599a2.962 2.962 0 002.656-4.267l-3.079-6.258-17.826-1.93-5.955 6.134 4.864 6.321h19.34z" fill="url(#f)"/><path d="M87.406 93.211l-4.187.361 3.807-1.033 1.474-.749-1.094 1.421z" fill="#c27b55"/><path d="M87.898 88.238l-4.959-7.203c-2.389-1.422-6.495-2.125-16.609-2.35l-5.744 5.691c1.69 2.556 3.31 4.38 4.949 5.509h20.999l-.999.844-21.026 1.201c-4.976-5.845-4.522-5.929-8.697-12.515l3.238 3.155 5.766-6.146c7.559.671 12.526 1.137 19.386 2.52l3.992 2.397-3.316-.185 3.02 7.082z" fill="#2a150e"/><path d="M115.358 90.599a2.96 2.96 0 01-2.657-4.267l3.079-6.258 17.826-1.93 5.955 6.134-4.864 6.321h-19.339z" fill="url(#g)"/><path d="M131.288 86.087a5.979 5.979 0 01-7.358 4.196 6.012 6.012 0 01-4.212-7.371 5.982 5.982 0 017.361-4.198 6.012 6.012 0 014.209 7.373z" fill="#724f7c" stroke="#431a4e" stroke-width=".5"/><path d="M124.766 80.913l-.155-.278c-.548.217-1.076.445-1.576.686l.37.894-.047.517-1.426-.839c-.467.259-.898.529-1.317.804l.004.009-.49.551.782.799-1.052.573.397.657 1.857.185-1.741 1.181 1.863-.103-.982 1.692 2.296-1.39-.616 2.364 1.328-2.184.257 2.343.384-2.073.353-.043.501 2.35.151-.704c.201-.052.719.703.915.651l-.585-2.556 1.283 2.556-.521-2.651 1.577 2.05c.057-.018.197-.85.253-.867l-.982-1.469 1.786.538-1.071-1.16-.859-.712 3.586.802-1.997-1.216 1.411-.577-3.054-.308 3.021-1.603-2.734.698-.736-.399-.18-.354.052-.847.061-1.388-1.247 2.198-.11-1.609-.156-.422c-.25.087-.495.173-.735.265l-.119.389z" fill="#83678b"/><path d="M131.355 83.255c-5.24.239-7.906 1.36-11.706 2.631a5.988 5.988 0 014.53-7.164 6.007 6.007 0 017.176 4.533z" fill="#623a6d" opacity=".9"/><path d="M126.37 82.498c-1.319-.378-2.666.376-3.005 1.69-.343 1.308.451 2.678 1.77 3.056 1.322.379 2.668-.375 3.009-1.684.343-1.315-.455-2.684-1.774-3.062z" opacity=".8"/><path d="M126.37 82.498c-1.319-.378-2.666.376-3.005 1.69-.343 1.308.451 2.678 1.77 3.056 1.322.379 2.668-.375 3.009-1.684.343-1.315-.455-2.684-1.774-3.062z" fill="none" stroke="#431a4e" stroke-width=".75"/><path d="M121.132 88.06c.612.973 1.426 1.706 2.577 1.95 1.326.281 1.478-1.482.528-1.685-.72-.152-1.177-.504-1.552-1.102-.687-1.093-2.106-.039-1.553.837z" fill="#fff" opacity=".4"/><path d="M127.034 81.493c.929.187 1.469.767 1.938 1.639.862 1.604 3.3.178 2.437-1.425-.757-1.408-2.018-2.613-3.625-2.938-2.057-.414-2.346 2.402-.75 2.724z" fill="url(#h)" transform="translate(-.5 .5)"/><path d="M125.602 59.999c-10.493 0-19 11.193-19 25s8.507 25 19 25 19-11.193 19-25-8.507-25-19-25zm9.096 30.6h-19.34a2.96 2.96 0 01-2.657-4.267l3.079-6.258 17.826-1.93 5.955 6.134-4.863 6.321z" fill="#f0c7b1"/><path d="M122.744 73.48c-9.393-.036-17.017 5.528-17.04 12.431-.025 6.906 7.573 12.529 16.962 12.568 9.391.034 18.113-5.529 18.038-12.434-.101-9.443-8.567-12.526-17.96-12.565zm11.954 17.119h-19.34a2.96 2.96 0 01-2.657-4.267l3.079-6.258 17.826-1.93 5.955 6.134-4.863 6.321z" fill="url(#i)"/><path d="M115.358 90.599a2.96 2.96 0 01-2.657-4.267l3.079-6.258 17.826-1.93 5.955 6.134-4.864 6.321h-19.339z" fill="url(#j)"/><path d="M111.102 91.791l1.474.749 3.807 1.033-4.187-.361-1.094-1.421z" fill="#c27b55"/><path d="M111.703 88.238l4.959-7.203c2.389-1.422 6.495-2.125 16.609-2.35l5.744 5.691c-1.69 2.556-3.31 4.38-4.949 5.509h-20.999l.999.844 21.026 1.201c4.976-5.845 4.522-5.929 8.697-12.515l-3.238 3.155-5.766-6.146c-7.559.671-12.526 1.137-19.386 2.52l-3.992 2.397 3.316-.185-3.02 7.082z" fill="#2a150e"/><path d="M141 113.974c.035 22.622-18.292 40.994-40.938 41.025-22.642.037-41.028-18.273-41.063-40.9-.035-22.62 18.292-41.064 40.937-41.1 22.643-.035 41.031 18.35 41.064 40.975z" fill="url(#k)"/><path d="M137.5 53.999c0 20.711-16.789 37.5-37.499 37.5-20.711 0-37.501-16.789-37.501-37.5s16.79-37.5 37.501-37.5c20.71 0 37.499 16.789 37.499 37.5z" fill="url(#l)"/><path d="M55.992 72.441c14.723-3.028 32.888 2.77 33.336-.649.164-1.252-.892-1.729-1.755-1.795-14.881-1.264-27.073-1.442-31.581 2.444zm88.016 0c-14.724-3.028-32.888 2.77-33.336-.649-.164-1.252.892-1.729 1.755-1.795 14.881-1.264 27.073-1.442 31.581 2.444z" fill="#b7513b"/><path d="M91.115 115.499c-.878 2.064 5.934 4.292 8.519 4.429 2.8.147 10.646-2.9 9.316-4.992-1.399-2.195-6.643-.286-8.906-.286-2.252-.001-7.753-1.905-8.929.849z" fill="#e1ac8f"/><path d="M101.857 117.058c-.23-.759 1.876-1.584 2.657-1.694 1.101-.16 3.36.802 3.158 1.592-.184.698-2.148-.533-2.86-.429-.734.107-2.737 1.242-2.955.531zm-6.883-.247c.968 0 2.404.623 2.668.074.315-.655-2.139-1.461-2.86-1.372-.596.07-2.733 1.315-2.439 1.839.274.481 1.355-.541 2.631-.541z" fill="#c27b55"/><path d="M100.089 111.999c.607 0 1.742-.74 1.792-2.23.201-6.008-.956-23.833-1.792-23.77-.78.059-2.267 17.637-1.948 23.77.079 1.502 1.263 2.23 1.948 2.23z" fill="#fff5ef" opacity=".2"/><path d="M121.84 132.49c-14.48-1.75-10.87-2.33-17.37-2.59a2.223 2.223 0 01-2.1-1.71c-.19-.83-.61-3.02-.31-5.48 2.65.32 14.42 2.84 17.17 4.68 2.25 1.54 2.31 3.36 2.61 5.1zm-41.07-5.1c2.82-1.89 15.09-4.46 17.04-4.66v-.01c.05-.01.09-.01.12-.01.3 2.46-.11 4.65-.31 5.48-.56 2.38-3.11 1.45-5.68 2.01-12.16 2.53-9.03 1.72-13.79 2.29.31-1.74.37-3.56 2.62-5.1z" fill="#b7513b"/><path d="M98.02 122.6c.27 2.09.04 4.17-.3 5.61a2.31 2.31 0 01-2.15 1.78c-1.26.05-2.71.11-3.6.3-12.24 2.55-8.97 1.7-13.93 2.31.01-.03.01-.07.02-.1.48-.46.94-.7.94-.7 6.58-4.7 17.57-.57 18.87-9.19.06 0 .12-.01.15-.01zm3.96 0c-.27 2.09-.04 4.17.3 5.61a2.31 2.31 0 002.15 1.78c1.26.05 2.71.11 3.6.3 12.24 2.55 8.97 1.7 13.93 2.31-.01-.03-.01-.07-.02-.1-.48-.46-.94-.7-.94-.7-6.58-4.7-17.57-.57-18.87-9.19-.06 0-.12-.01-.15-.01zm-18.11 5c-1.04.04-1.31.18-1.96.62-.05.05-1.01.92-.94.92-.31.35-.93 1.24-1.23 1.64 1.63-1.36 2-2.67 4.13-3.18zm3.62.31c4.34-1.52 6.03-3.11 9.13-4.25-2.82 1.74-5.2 3.73-9.13 4.25zm-3.25.63c2.22-1.49 4.02-2.27 5.75-3-1 .63-2.9 1.89-5.75 3zm8-1.13c1-.82 2.19-.93 3.25-1.75-1.09 1.12-1.95 1.06-3.25 1.75zm23.89.19c1.04.04 1.31.18 1.96.62.05.05 1.01.92.94.92.31.35.93 1.24 1.23 1.64-1.63-1.36-2-2.67-4.13-3.18zm-12.75-3.94c3.09 1.14 4.78 2.73 9.13 4.25-3.93-.52-6.31-2.51-9.13-4.25zm6.63 1.88c1.73.73 3.53 1.51 5.75 3-2.85-1.11-4.75-2.37-5.75-3zm-5.5.12c1.06.82 2.25.93 3.25 1.75-1.3-.69-2.16-.63-3.25-1.75z" fill="#a83c25"/><path d="M119.29 127.31c-2.94-1.97-15.41-4.51-17-4.66v-.01a4.02 4.02 0 00-.31-.03c-.27 2.09-.04 4.17.3 5.61a2.31 2.31 0 002.15 1.78c1.26.05 2.71.11 3.6.3 12.24 2.55 8.97 1.7 13.93 2.31-.33-1.8-.32-3.7-2.67-5.3zm-11.12 2.34c-.91-.16-2.12-.13-3.4-.08-.75.03-1.42-.47-1.61-1.19-.25-.92-.54-2.22-.83-5.42 2.1.42 5.78 1.78 8.1 2.39 8.29 2.01 9.41 2.32 10.99 6.83-.04-.02-13.21-2.53-13.25-2.53zm-30.13 2.95c4.96-.6 1.69.24 13.93-2.31.89-.19 2.34-.25 3.6-.3 1.04-.04 1.92-.77 2.15-1.78.33-1.44.57-3.52.3-5.61-.06 0-.23.03-.31.03v.01c-1.59.16-14.06 2.7-17 4.66-2.35 1.61-2.34 3.51-2.67 5.3zm.54-.42c1.58-4.51 2.7-4.82 10.99-6.83 2.32-.61 6-1.97 8.1-2.39-.29 3.2-.58 4.5-.83 5.42-.2.72-.86 1.21-1.61 1.19-1.28-.04-2.49-.07-3.4.08-.04 0-13.21 2.51-13.25 2.53z" fill="#891b03"/><path d="M158.43 41.325C140-4.765 100 .405 100 .405s-40-5.169-58.43 40.92c-9.245 23.12 2.158 50.324 2.158 50.324h5.826c-5.094-21.752.796-17.662 1.176-21.722.118-1.255-.3-3.367-.421-4.622-.592-6.112 1.982-18.029 5.245-23.173 1.603-2.526 5.369-6.659 8.174-7.699 9.97-3.694 20.044.715 22.854 1.421 4.461 1.12 22.373 1.12 26.836 0 3.343-.839 13.182-4.905 22.854-1.321 2.806 1.04 6.871 4.972 8.474 7.499 3.263 5.144 5.537 16.16 4.945 22.272-.121 1.255-.539 4.367-.422 5.623.107 1.147 2.617 3.689 2.898 4.807 1.16 4.612-1.722 16.915-1.722 16.915h5.825c.001 0 11.406-27.204 2.16-50.324z" fill="#2a232b"/><path d="M154.938 31.163C136.178-3.114 101.979-.631 100-.455c-1.979-.176-36.177-2.659-54.938 31.618-14.492 26.478-3.492 56.974-2.155 60.449.076.197 1.576.038 1.576.038-.006-.015-.104-.392-.166-.55-1.209-3.12-12.189-33.18 2.061-59.216C65.111-2.342 99.595 1.007 99.94 1.046l.06-.542.06.542c.345-.039 34.829-3.388 53.563 30.837 14.563 26.61 2.773 57.423 1.996 59.383-.021.055-.107.375-.111.383 0 0 1.506.169 1.575-.011 1.291-3.344 12.384-33.929-2.145-60.475z"/><path d="M148.74 83.98c-.07 5.17-2.36 10.62-5.3 14.98-2.86 4.24-10.31 5.75-15.82 5.75-4.5 0-8.51-.92-11.02-2.53-4.73-3.04-9.81-10.61-10.93-17.83 10.17-6.11 31.14-6.11 43.07-.37zm-97.48-.7c-.14 5.38 2.23 11.13 5.3 15.68 2.86 4.24 10.31 5.75 15.82 5.75 4.5 0 8.51-.92 11.02-2.53 4.59-2.95 9.5-10.16 10.81-17.18-10.81-6.34-31.61-7.03-42.95-1.72z" fill="#fff" opacity=".2"/><path d="M148.74 83.98c-11.93-5.73-32.9-5.74-43.06.36-.17-1.1-.25-2.19-.23-3.26.22-8.25 12.02-11.18 22.06-11.18 7.08 0 15.44 1.47 18.14 4.74 2.26 2.75 3.14 5.98 3.09 9.34zM72.49 69.9c-7.08 0-15.44 1.47-18.14 4.74-2.1 2.55-3.01 5.53-3.09 8.64 11.35-5.31 32.14-4.62 42.94 1.71.25-1.32.38-2.63.34-3.91-.22-8.25-12.02-11.18-22.05-11.18z" fill="#fff" opacity=".4"/><path d="M154.48 72.86c-.6-2.41-28.01-7.28-42.24-2.39-3.44 1.18-5.82 2.23-7.24 3.72v-.02c-.5.88-1.75 1.18-2.64.85-1.6-.61-3.22-.58-4.72 0-.88.34-2.14.03-2.64-.85v.02c-1.42-1.49-3.79-2.53-7.24-3.72-14.23-4.89-41.64-.01-42.24 2.39-.23.95-.54 6.06-.52 7.89.02 1.83 1.16 1.69 2.87 2.49.66.31 2.04 2.67 2.17 3.64.63 4.54 2.44 8.75 5.26 12.93 4.82 7.14 21.71 8.27 28.91 3.64 4.98-3.2 10.14-10.73 11.51-18.22.27-1.49.52-2.65.71-3.65l.01.05c.36-1.23 1.97-1.83 3.57-1.86 1.6.03 3.21.63 3.57 1.86l.01-.05c.18 1 .44 2.16.71 3.65 1.37 7.49 6.53 15.02 11.51 18.22 7.2 4.63 24.09 3.5 28.91-3.64 2.82-4.18 4.63-8.39 5.26-12.93.13-.98 1.51-3.34 2.17-3.64 1.71-.8 2.86-.65 2.87-2.49 0-1.83-.31-6.95-.54-7.89zm-71.36 28.89c-6.38 4.1-22.02 3.04-26.15-3.07-4.7-6.98-7.82-16.94-2.24-23.72 5.38-6.53 38.94-7.32 39.31 6.13.22 7.9-5.58 17.23-10.92 20.66zm59.91-3.07c-4.13 6.12-19.77 7.17-26.15 3.07-5.34-3.43-11.14-12.76-10.92-20.66.37-13.45 33.93-12.66 39.31-6.13 5.58 6.77 2.46 16.74-2.24 23.72z" fill="#2e0914"/><path d="M45.37 73.94c.05-.5.1-.89.15-1.09.6-2.41 28.01-7.28 42.24-2.39 3.44 1.18 5.82 2.23 7.24 3.72v-.02c0-.01-22-11.62-49.63-.22zm108.55 8.56c.67-.3 1.07-.7 1.08-1.77.02-1.82-.29-6.94-.52-7.89-.6-2.41-28.01-7.28-42.24-2.39-3.28 1.13-5.59 2.14-7.03 3.52 7.52-5.95 38.17-7.14 46.39 1.02 1.7 1.7 2.24 4.92 2.32 7.51z" fill="#3d121f"/></svg>