<svg xmlns="http://www.w3.org/2000/svg" width="500" height="500" viewBox="0 0 200 200" overflow="hidden"><defs><radialGradient id="k" cx="100" cy="114" r="41" gradientUnits="userSpaceOnUse" class="svga-on-canvas-facehighlight-gradient-single-0"><stop stop-opacity=".5" stop-color="#ffe4d6" offset="0"/><stop stop-opacity="0" stop-color="#f0c7b1" offset=".9"/></radialGradient><radialGradient id="l" cx="100" cy="54" r="37" gradientUnits="userSpaceOnUse" class="svga-on-canvas-facehighlight-gradient-single-1"><stop stop-opacity=".5" stop-color="#ffe4d6" offset="0"/><stop stop-opacity="0" stop-color="#f0c7b1" offset=".9"/></radialGradient><radialGradient id="c" cx="126.289" cy="84.919" r="10.712" gradientTransform="matrix(-1 0 0 1 200 0)" gradientUnits="userSpaceOnUse" class="svga-on-canvas-eyesback-gradient-left-0"><stop stop-color="#fff" offset="0"/><stop stop-color="#fdfefe" offset=".544"/><stop stop-color="#f6f8f9" offset=".74"/><stop stop-color="#eaeff2" offset=".879"/><stop stop-color="#d9e3e8" offset=".992"/><stop stop-color="#d8e2e7" offset="1"/></radialGradient><radialGradient id="g" cx="125.89" cy="84.919" r="10.712" gradientUnits="userSpaceOnUse" class="svga-on-canvas-eyesback-gradient-right-0"><stop stop-color="#fff" offset="0"/><stop stop-color="#fdfefe" offset=".544"/><stop stop-color="#f6f8f9" offset=".74"/><stop stop-color="#eaeff2" offset=".879"/><stop stop-color="#d9e3e8" offset=".992"/><stop stop-color="#d8e2e7" offset="1"/></radialGradient><radialGradient id="e" cx="123.715" cy="85.489" fx="135.434" fy="85.522" r="16.667" gradientTransform="matrix(.9998 .0208 .0166 -.7998 -48.826 151.29)" gradientUnits="userSpaceOnUse" class="svga-on-canvas-eyesfront-gradient-left-3"><stop stop-color="#e1ac8f" offset="0"/><stop stop-opacity=".3" stop-color="#e1ac8f" offset=".7"/><stop stop-opacity="0" stop-color="#f0c7b1" offset="1"/></radialGradient><radialGradient id="f" cx="122.874" cy="101.325" r="26.878" gradientTransform="matrix(-1 0 0 .7923 200 21.05)" gradientUnits="userSpaceOnUse" class="svga-on-canvas-eyesfront-gradient-left-4"><stop stop-opacity="0" offset=".95"/><stop stop-opacity=".2" offset="1"/></radialGradient><radialGradient id="i" cx="123.315" cy="85.489" fx="135.034" fy="85.522" r="16.667" gradientTransform="matrix(-.9998 .0208 -.0166 -.7998 248.027 151.299)" gradientUnits="userSpaceOnUse" class="svga-on-canvas-eyesfront-gradient-right-3"><stop stop-color="#e1ac8f" offset="0"/><stop stop-opacity=".3" stop-color="#e1ac8f" offset=".7"/><stop stop-opacity="0" stop-color="#f0c7b1" offset="1"/></radialGradient><radialGradient id="j" cx="122.475" cy="101.325" r="26.878" gradientTransform="matrix(1 0 0 .7923 0 21.05)" gradientUnits="userSpaceOnUse" class="svga-on-canvas-eyesfront-gradient-right-4"><stop stop-opacity="0" offset=".95"/><stop stop-opacity=".2" offset="1"/></radialGradient><linearGradient id="d" x1="127.637" y1="79.822" x2="125.91" y2="81.88" gradientTransform="translate(-50)" gradientUnits="userSpaceOnUse" class="svga-on-canvas-eyesiris-gradient-left-1"><stop stop-color="#fff" offset="0"/><stop stop-opacity="0" stop-color="#fff" offset="1"/></linearGradient><linearGradient id="h" x1="129.637" y1="79.823" x2="127.91" y2="81.881" gradientUnits="userSpaceOnUse" class="svga-on-canvas-eyesiris-gradient-right-1"><stop stop-color="#fff" offset="0"/><stop stop-opacity="0" stop-color="#fff" offset="1"/></linearGradient><linearGradient id="b" x1="100" y1="140" x2="100" y2="137" gradientUnits="userSpaceOnUse" class="svga-on-canvas-mouth-gradient-single-0"><stop stop-color="#e8b9a0" offset=".1"/><stop stop-color="#e1ac8f" offset="1"/></linearGradient><linearGradient id="a" x1="100" y1="171" x2="100" y2="130" gradientUnits="userSpaceOnUse" class="svga-on-canvas-chinshadow-gradient-single-0"><stop stop-opacity=".8" stop-color="#e1ac8f" offset="0"/><stop stop-color="#c27b55" offset=".7"/></linearGradient></defs><path d="M225 225H-25V-25h250v250z" fill="#14305c"/><path d="M100.5 100.5h-1v-1h1v1z" fill="#a68469"/><path d="M195.417 199.778c-2.196-4.746-8.195-11.779-14.86-13.722-8.239-2.403-26.837-5.308-33.733-6.923-5.528-1.296-16.662-11.294-20.564-14.65-.7-.6-1.273-1.839-1.287-2.76-.139-10.864 4.195-39.724 4.195-39.724H70.833s4.334 28.859 4.193 39.724c-.011.921-.587 2.16-1.285 2.76-3.902 3.356-15.036 13.354-20.564 14.65-6.897 1.615-25.495 4.619-33.733 7.022-6.667 1.942-12.664 8.876-14.86 13.622-3.708 8.008-4.584 22.5-4.584 35h200c0-12.499-.877-26.991-4.583-34.999z" fill="#f0c7b1"/><path d="M159.156 184.058c24.342 3.542 34.586 8.708 37.794 50.721H200c0-12.5-.877-26.992-4.583-35-2.196-4.746-8.195-11.779-14.86-13.722-8.239-2.403-26.837-5.308-33.733-6.923-5.528-1.296-18.242-12.069-21.643-16.35 3.36 4.704 12.791 15.605 21.054 18.46 3.953 1.366 7.245 1.988 12.921 2.814zm-105.39-2.814c8.263-2.854 17.693-13.756 21.054-18.46-3.4 4.28-16.114 15.054-21.643 16.35-6.896 1.615-25.494 4.619-33.733 7.022-6.665 1.942-12.664 8.876-14.86 13.622-3.706 8.008-4.583 22.5-4.583 35h3.05c3.188-41.744 13.475-47.183 37.794-50.721 5.675-.825 8.968-1.447 12.921-2.813z" fill="#ffe4d6"/><path d="M95.646 197.62s-5.074-1.609-7.083-2.379c-10.449-4.009-44.395-6.607-44.395-6.607s35.754 1.419 43.644 2.779c-.458-4.767-3.017-20.004-3.017-20.004s5.149 16.815 6.409 21.057c.674 2.268 4.442 5.154 4.442 5.154zm10.799-1.342c-.089.073-.191.168-.302.268.113-.085.215-.174.302-.268zm-10.799 1.342s2.893 2.992 4.347 3.03c1.91.051 4.828-2.899 6.151-4.104-1.265.957-4.159 1.391-5.31 1.436-1.33.051-5.188-.362-5.188-.362zm21.018-7.519c-1.545.248-4.386.789-4.386.789l2.287-14.89c-.646 3.071-4.474 16.211-8.12 20.278 1.91-1.616 6.158-2.391 8.324-2.704 10.236-1.484 10.232-1.483 41.062-4.94 0 0-29.071-.155-39.167 1.467z" fill="#e1ac8f"/><path d="M195.417 199.778c-2.196-4.746-8.195-11.779-14.86-13.722-8.239-2.403-26.837-5.308-33.733-6.923-5.528-1.296-16.662-11.294-20.564-14.65-.7-.6-1.273-1.839-1.287-2.76-.139-10.864 4.195-39.724 4.195-39.724H70.833s4.334 28.859 4.193 39.724c-.011.921-.587 2.16-1.285 2.76-3.902 3.356-15.036 13.354-20.564 14.65-6.897 1.615-25.495 4.619-33.733 7.022-6.667 1.942-12.664 8.876-14.86 13.622-3.708 8.008-4.584 22.5-4.584 35h200c0-12.499-.877-26.991-4.583-34.999z" fill="none" stroke="#c27b55" stroke-width="1.5"/><path d="M75.602 162.779c7.126 5.302 15.497 9.087 24.401 9.087 8.902 0 17.269-3.781 24.394-9.08a4.06 4.06 0 01-.175-1.053c-.088-6.862 1.561-20.607 2.82-30.025-15.654-1.97-38.431-1.97-54.084 0 1.26 9.419 2.908 23.163 2.819 30.024-.004.331-.07.688-.175 1.047z" fill="url(#a)"/><path d="M204.771 234.683c-25.073-.247-64.243-.011-96.057.107l3.764-34.23c.389-8.876 4.307-11.191 6.412-16.545 8.523-21.672 5.125-15.237 7.986-33.135 9.692 1.334 17.243 21.017 24.338 23.615-.013.428-.331 2.404-.756 4.897 36.661 7.593 49.542-.657 54.313 55.291zM93.475 200.708c-1.059-3.137-5.48-7.747-7.551-10.751-3.566-5.185-6.529-10.696-10.881-23.596-.007-.147-.702-11.408-1.848-16.205-5.765 2.713-4.729 7.144-13.599 17.518-1.859 2.164-5.543 2.829-9.259 5.004a42.135 42.135 0 00-.15 5.647c-9.297 1.408-35.372 7.032-44.861 14.346C.927 202.832-9.178 221.673-7.57 235.593c28.234-.305 71.192-.595 107.381-.803 0 0 1.301-19.904-6.86-34.308.182.07.359.143.524.226z" fill="#4b2824"/><path d="M50.767 179.432c-19.906 5.692-32.87 9.836-42.029 15.092-4.175 7.794-11.07 18.835-14.845 40.267-.052.001-.968-.093-1.021-.093.093-17.071 7.793-30.803 12.432-41.844 10.206-8.257 32.288-12.34 44.999-14.381.037.07.428.893.464.959zm99.731.136c12.711 2.041 31.496 4.167 42.121 10.917 7.375 11.125 11.428 26.836 11.521 43.907-.052 0-.968.094-1.021.093-3.774-21.432-8.325-33.206-12.5-41-9.159-5.256-20.679-7.266-40.585-12.958.036-.065.427-.888.464-.959z" fill="#5a3834"/><path d="M119.635 201.16c-1.72-.976-4.987-1.16-7.002.596.596-1.756 2.792-3.204 5.675-3.524 9.016 1.769 19.906 13.866 30.706 18.396-10.708-1.83-21.196-10.824-29.379-15.468zm-25.968 1.007L92.479 200c-2.057.038-6.953.482-9.014 2.309-9.292 8.233-24.119 12.352-30.718 16.655 33.956-9.062 27.456-16.228 40.92-16.797z" fill="#2c100c"/><path d="M115.619 198.985c-1.493.426-3.061 1.553-3.142 1.574.389-8.876 4.307-11.191 6.412-16.545 8.523-21.672 5.125-15.237 7.986-33.135 1.941.266 3.798 1.415 5.582 3.085-1.227 9.5-3.84 17-7.646 25.567 4.461-2.522 9.298-5.611 13.672-8.026-9.092 8.185-19.967 15.576-22.864 27.48zm-22.144 1.723c-1.059-3.137-5.48-7.747-7.551-10.751-3.566-5.185-6.529-10.696-10.881-23.596-.007-.147-.702-11.408-1.848-16.205-3.646 1.714-3.34 2.955-5.771 7.11 1.958 10.127 5.915 16.565 11.527 24.985-4.784-3.154-11.462-8.545-18.071-11.847 11.134 8.348 21.139 18.74 28.653 29.804 2.439-.743 2.533-.205 3.942.5z" fill="#3c1a17"/><path d="M193.414 189.487c-8.551-5.06-23.349-8.462-42.541-10.779l.454-4.287c-7.108-2.46-15.008-22.473-24.872-23.66-7.303 44.887-11.722 29.555-15.365 49.24-.662 3.579-2.853 32.529-2.965 33.917l-7.725.01c.547-17.962-6.32-32.084-6.74-32.994-.877-3.118-5.549-7.995-7.646-11.038-5.437-7.907-7.91-15.09-10.862-23.54 0 0-.482-11.635-1.662-16.356-5.941 2.726-5.056 6.065-13.979 16.499-2.523 2.937-5.948 4.17-9.286 6.17a42.544 42.544 0 00-.135 5.452c-34.277 4.349-41.74 11.957-45.889 13.782-2.94 9.523-12.333 23.334-12.421 43.842 29.629 0 34.064.401 123.482.081 13.869-.059 27.733-.134 41.604-.223 20.477-.12 48.669.467 48.669.467.001-21.331-4.666-34.168-12.121-46.583zm-75.78-2.566c6.985-13.686 6.985-16.936 9.68-35.623 8.454 2.822 16.191 20.952 23.12 23.187-4.939 25.516-2.263 35.379-1.91 41.354-2.575-1.386-4.559-2.651-7.061-4.148-7.721-4.629-13.066-10.239-21.258-13.583-2.219-.936-5.408.459-7.36 1.894 1.077-9.419 2.167-7.944 4.789-13.081zm1.652 11.801l.007-.041c.272-.044.116-.004-.007.041zm-6.53 4.051c.389-1.978 3.374-3.115 4.863-3.621-1.926 8.558-4.446 20.08-4.495 34.762l-3.749.003c.108-1.285 1.798-23.079 3.381-31.144zm-13.825 31.158l-2.369.004c1.111-12.801-5.605-23.81-8.693-33.038.806-.082 3.21-.736 3.875-.622 1.643 1.239 9.255 21.6 7.187 33.656zM60.03 167.448c9.546-10.978 7.557-13.666 12.843-16.896.331 3.15.595 6.323.761 9.506.563 11.263-.939 3.57 3.492 15.177 6.513 17.058 12.336 18.518 15.318 24.367-10.575-.741-12.118 7.192-21.631 10.363-8.755 3.447-6.354 1.844-18.373 8.736 3.358-23.819-1.74-34.836-1.74-45.571 3.459-1.789 6.78-2.763 9.33-5.682zm-66.827 67.121c1.667-20.667 9.704-34.022 13-41.333 4.645-2.986 20.026-10.925 43.921-14.394.336 6.598 1.925 12.369 2.053 18.93.238 6.276.213 14.08-.253 21.732 4.45-2.042 8.725-4.477 13.68-6.258 13.805-5.006 11.434-6.111 18.043-10.674 1.583-1.104 1.344-1.118 2.722-1.463 2.565 7.987 10.662 18.897 8.807 32.827-35.245.072-70.327.29-101.973.633zm121.406-.655c-.317-12.454 2.644-23.005 4.664-35.122 4.855.064 18.32 13.418 30.146 18.427.271-4.209-.175-12.976-.175-22.733-.004-.29.911-8.994 1.529-14.842 11.277 3.239 29.571 3.27 41.841 11.982 4.922 9.443 10.851 20.048 11.255 42.61-27.951-.234-58.437-.337-89.26-.322z" fill="#1d0805"/><path d="M47.34 82.506c-1.378-2.405-9.403-6.675-11.855-6.501-4.229.299-5.137 5.269-5.446 7.648-.609 4.696.645 10 1.485 13.201.687 2.615 2.874 7.578 4.214 9.883 1.197 2.062 4.145 5.792 5.733 7.525 1.398 1.529 4.73 4.311 7.248 3.632 2.769-.744 6.015-3.945 6.239-5.312 1.207-7.41-4.032-23.819-7.618-30.076z" fill="#f0c7b1" stroke="#c27b55" stroke-width="1.5"/><path d="M42.903 99.38c-.142-.584.007-1.569.151-2.521.131-.868.255-1.686.18-2.265-.284-2.169-1.888-6.29-2.936-8.524-1.206-2.568-3.157-5.803-5.602-6.639-1.011-.346-2.073-.522-2.145-.241-.611 1.943-.563 7.341-.212 11.338.987 11.242 10.375 19.34 11.872 21.045.276.314.566.501.637.426.072-.076-.1-.388-.375-.704-1.477-1.692-8.314-8.684-9.27-13.098-1.012-4.685 3-12.386 3.776-13.855.397.69.732 1.352.991 1.904.204.434.429.941.66 1.489-.456.767-3.656 6.36-2.489 10.836.431 1.651 2.379 3.778 3.67 4.362.71.321.978.801 1.287 1.355.359.645.765 1.374 1.946 1.903.24.108.457.151.649.151.333 0 .586-.135.773-.295.019.282-.349 2.52-.357 2.853-.012.431.045.787.146.796.101.008.207-.334.221-.766.016-.529.379-3.061.289-3.372-.264-.923-1.073-1.964-1.93-3.068-.841-1.083-1.713-2.206-1.932-3.11zm-8.475-3.964c-2.316-7.184 1.456-13.479 1.977-14.464.906.826 1.704 1.932 2.354 3.015-.473.863-4.233 6.617-4.331 11.449zm10.759 10.415c-1.069-.479-1.427-1.12-1.774-1.742-.313-.562-.637-1.143-1.458-1.515a3.749 3.749 0 01-.576-.346c-2.646-6.304.289-9.059 1.025-9.625.226.771.394 1.478.468 2.045.067.521-.058 1.348-.179 2.148-.149.992-.305 2.018-.144 2.681.239.989 1.137 2.146 2.005 3.263.771.993 1.562 2.015 1.832 2.849-.115.168-.481.566-1.199.242z" fill="#c27b55"/><path d="M152.398 82.506c1.377-2.405 9.402-6.675 11.855-6.501 4.229.299 5.137 5.269 5.445 7.648.609 4.696-.645 10-1.484 13.201-.688 2.615-2.875 7.578-4.215 9.883-1.197 2.062-4.145 5.792-5.732 7.525-1.398 1.529-4.73 4.311-7.248 3.632-2.77-.744-6.016-3.945-6.238-5.312-1.207-7.41 4.032-23.819 7.617-30.076z" fill="#f0c7b1" stroke="#c27b55" stroke-width="1.5"/><path d="M154.902 102.491c-.855 1.104-1.666 2.146-1.93 3.068-.09.312.273 2.843.289 3.372.014.432.119.773.221.766.102-.009.158-.365.146-.796-.01-.333-.377-2.57-.357-2.853.188.16.439.295.771.295.193 0 .41-.043.65-.151 1.182-.53 1.588-1.259 1.945-1.903.311-.555.578-1.034 1.287-1.355 1.291-.584 3.24-2.711 3.67-4.362 1.168-4.476-2.031-10.07-2.488-10.836.23-.548.457-1.056.66-1.489.26-.552.594-1.214.99-1.904.777 1.469 4.789 9.17 3.777 13.855-.955 4.415-7.793 11.406-9.27 13.098-.275.316-.447.628-.375.704.072.075.361-.111.637-.426 1.498-1.705 10.885-9.803 11.873-21.045.35-3.997.396-9.395-.213-11.338-.072-.281-1.135-.104-2.145.241-2.445.836-4.396 4.071-5.604 6.639-1.047 2.234-2.65 6.354-2.936 8.524-.076.579.049 1.397.18 2.265.145.951.293 1.936.15 2.521-.213.903-1.086 2.026-1.928 3.11zm6.077-18.525c.65-1.083 1.449-2.188 2.355-3.015.52.986 4.291 7.28 1.977 14.464-.1-4.831-3.858-10.585-4.332-11.449zm-7.627 21.624c.271-.834 1.063-1.856 1.832-2.849.869-1.118 1.766-2.274 2.006-3.263.16-.663.006-1.689-.145-2.681-.121-.8-.246-1.627-.178-2.148.074-.567.242-1.273.467-2.045.736.566 3.672 3.321 1.025 9.625a3.702 3.702 0 01-.576.346c-.82.372-1.145.953-1.457 1.515-.348.622-.705 1.263-1.775 1.742-.717.323-1.084-.075-1.199-.242z" fill="#c27b55"/><path d="M100.002.867C66.381.813 39.186 28.343 39.134 62.366a62.395 62.395 0 001.953 15.641h.004c.011.054 8.713 39.241 14.519 51.175 6.073 12.487 23.814 32.685 44.392 32.685 20.582 0 38.32-20.197 44.392-32.685 5.805-11.935 14.507-51.122 14.519-51.175h.005a62.401 62.401 0 001.952-15.641C160.819 28.343 133.623.813 100.002.867z" fill="#f0c7b1"/><path d="M120.754 4.512c21.441 9.489 36.411 31.135 36.45 56.363a62.395 62.395 0 01-1.953 15.641h-.005c-.011.054-8.713 39.24-14.519 51.177-5.709 11.738-21.608 32.469-40.725 32.469s-35.016-20.73-40.725-32.469C53.471 115.756 44.77 76.57 44.758 76.516h-.004a62.355 62.355 0 01-1.953-15.641c.038-25.229 15.008-46.874 36.45-56.363-23.386 8.55-40.076 31.208-40.117 57.854a62.395 62.395 0 001.953 15.641h.004c.011.054 8.713 39.241 14.519 51.175 6.073 12.487 23.814 32.685 44.392 32.685 20.579 0 38.319-20.197 44.392-32.685 5.805-11.935 14.507-51.122 14.519-51.175h.005a62.401 62.401 0 001.952-15.641c-.04-26.646-16.73-49.304-40.116-57.854z" fill="#e8b9a0"/><path d="M100.002.867C66.381.813 39.186 28.343 39.134 62.366a62.395 62.395 0 001.953 15.641h.004c.011.054 8.713 39.241 14.519 51.175 6.073 12.487 23.814 32.685 44.392 32.685 20.582 0 38.32-20.197 44.392-32.685 5.805-11.935 14.507-51.122 14.519-51.175h.005a62.401 62.401 0 001.952-15.641C160.819 28.343 133.623.813 100.002.867z" fill="none" stroke="#c27b55" stroke-width="1.5"/><path d="M99.999 139.499c-5.771 0-7.125-2.385-7.125-2.385h14.253s-2.053 2.385-7.128 2.385z" fill="url(#b)"/><path d="M82.714 133.245c3.826-.701 8.662-2.674 11.707-2.744 1.573-.038 3.262.642 4.961.859 1.18.153 4.529-.853 5.732-.859 3.155-.018 8.781 2.043 12.174 2.744.185.043 0 0 0 0s-7.021 4.444-17.287 4.444c-11.62 0-17.287-4.444-17.287-4.444s-.189.038 0 0z" fill="#904539"/><path d="M117.761 133.204c-.258-.056-.84-.021-1.045-.016-.422.013-.756-.085-1.682-.094-1.033-.009-5.48-.199-6.948-.25-2.954-.106-5.31.49-8.118.49-2.811 0-5.368-.653-8.323-.548-1.466.056-5.709.293-6.743.308-.921.013-1.282.098-1.709.089-.199-.007-.827-.037-1.072.034-.203.064-.124.414.04.505.395.22 1.938-.171 2.719-.161 1.078.011 5.335-.037 6.826-.09 2.888-.104 5.464.606 8.262.606 2.801 0 5.173-.657 8.063-.553 1.485.053 5.941.044 7.021.036.783-.01 2.45.33 2.849.161.19-.08.088-.467-.14-.517z" fill="#621609"/><path d="M87.409 134.113c1.815-.054 3.684-.205 5.5-.162 2.239.052 4.365.521 6.604.6 2.417.085 4.659-.36 7.028-.515 1.975-.123 4.068.044 6.05.084-9.292 3.785-19.204 2.624-25.182-.007zm19.479-1.808c1.823-.063 3.693.062 5.516.103-9.196-2.434-7.134-.943-11.926-.519-2.092.186-3.736-.851-5.776-.851-2.21.052-4.438.812-6.352 1.335 1.779-.06 3.608-.194 5.392-.104 2.181.105 4.295.526 6.498.526 2.249.001 4.4-.42 6.648-.49z" fill="#984f44"/><path d="M87.409 134.113c1.815-.054 3.684-.205 5.5-.162 2.239.052 4.365.521 6.604.6 2.417.085 4.659-.36 7.028-.515 1.975-.123 4.068.044 6.05.084-9.292 3.785-19.204 2.624-25.182-.007zm19.479-1.808c1.823-.063 3.693.062 5.516.103-9.196-2.434-7.134-.943-11.926-.519-2.092.186-3.736-.851-5.776-.851-2.21.052-4.438.812-6.352 1.335 1.779-.06 3.608-.194 5.392-.104 2.181.105 4.295.526 6.498.526 2.249.001 4.4-.42 6.648-.49z" fill="#9f5a4f"/><path d="M59.722 85.795c2.578 4.596 2.19 5.704 10.268 4.467 9.691 0 17.711-1.976 17.711-5.558s-4.925-7.115-17.196-4.923C64.489 80.855 59.722 84 59.722 85.795z" fill="url(#c)"/><path d="M80.038 85.838a5.983 5.983 0 01-7.361 4.196 6.011 6.011 0 01-4.214-7.371 5.986 5.986 0 017.365-4.198 6.01 6.01 0 014.21 7.373z" fill="#681711" stroke="#3a0400" stroke-width=".5"/><path d="M78.717 82.673c-.569.873-2.036.925-3.276.117-1.24-.808-1.784-2.17-1.215-3.043.568-.872 2.036-.924 3.276-.117 1.238.809 1.782 2.172 1.215 3.043z" fill="url(#d)" opacity=".7" transform="translate(.25 .25)"/><path d="M54.8 84.999c0 13.807 8.507 25 19 25s19-11.193 19-25-8.507-25-19-25-19 11.193-19 25zm4.922.796c0-1.795 4.768-4.939 10.782-6.014C82.775 77.589 87.7 81.123 87.7 84.704c0 3.582-8.02 5.558-17.711 5.558-8.077 1.237-7.689.129-10.267-4.467z" fill="#f0c7b1"/><path d="M58.697 86.046c-.075 6.904 8.647 12.467 18.038 12.434 9.389-.04 16.987-5.663 16.962-12.568-.023-6.903-7.647-12.467-17.04-12.431-9.392.038-17.858 3.121-17.96 12.565zm1.025-.251c0-1.795 4.768-4.939 10.782-6.014C82.775 77.589 87.7 81.123 87.7 84.704c0 3.582-8.02 5.558-17.711 5.558-8.077 1.237-7.689.129-10.267-4.467z" fill="url(#e)"/><path d="M59.722 85.795c2.578 4.596 2.19 5.704 10.268 4.467 9.691 0 17.711-1.976 17.711-5.558s-4.925-7.115-17.196-4.923C64.489 80.855 59.722 84 59.722 85.795z" fill="url(#f)"/><path d="M86.716 88.797s-1.383.778-2.354 1.036c-1.209.318-4.997.895-11.562 1.795 7.49-.531 10.48-.82 11.762-1.189 1.016-.292 2.154-1.642 2.154-1.642z" fill="#c27b55"/><path d="M87.757 83.463a.181.181 0 01-.011.247.183.183 0 01-.247.007l-3.871-3.383c-11.411-1.304-19.93.687-23.25 5.247l.536 2.4-3.114-2.69c3.172-4.526 6.306-7.915 25.828-6.735 2.305 2.252 3.509 3.379 4.129 4.907zm-1.125 3.979a.258.258 0 00.048-.306.258.258 0 00-.279-.135c-3.954 2.317-11.021 2.523-22.642 3.426l-2.25-1.384 1.653 2.046c12.582-.588 21.844-1.333 23.47-3.647z" fill="#582311"/><path d="M139.879 85.795c-2.578 4.596-2.19 5.704-10.268 4.467-9.691 0-17.711-1.976-17.711-5.558s4.925-7.115 17.196-4.923c6.015 1.074 10.783 4.219 10.783 6.014z" fill="url(#g)"/><path d="M131.538 85.838a5.983 5.983 0 01-7.362 4.196c-3.196-.876-5.084-4.178-4.214-7.371a5.986 5.986 0 017.365-4.198 6.012 6.012 0 014.211 7.373z" fill="#681711" stroke="#3a0400" stroke-width=".5"/><path d="M130.717 82.673c-.569.873-2.036.925-3.276.117-1.239-.808-1.784-2.17-1.215-3.043.568-.872 2.035-.924 3.275-.117 1.239.809 1.783 2.172 1.216 3.043z" fill="url(#h)" opacity=".7" transform="translate(-.25 .25)"/><path d="M125.801 59.999c-10.493 0-19 11.193-19 25s8.507 25 19 25 19-11.193 19-25-8.507-25-19-25zm3.81 30.263c-9.691 0-17.711-1.976-17.711-5.558s4.925-7.115 17.196-4.923c6.015 1.074 10.782 4.218 10.782 6.014-2.577 4.596-2.19 5.704-10.267 4.467z" fill="#f0c7b1"/><path d="M122.943 73.48c-9.393-.036-17.017 5.528-17.04 12.431-.025 6.906 7.573 12.529 16.962 12.568 9.391.034 18.113-5.529 18.038-12.434-.101-9.443-8.567-12.526-17.96-12.565zm6.668 16.782c-9.691 0-17.711-1.976-17.711-5.558s4.925-7.115 17.196-4.923c6.015 1.074 10.782 4.218 10.782 6.014-2.577 4.596-2.19 5.704-10.267 4.467z" fill="url(#i)"/><path d="M139.879 85.795c-2.578 4.596-2.19 5.704-10.268 4.467-9.691 0-17.711-1.976-17.711-5.558s4.925-7.115 17.196-4.923c6.015 1.074 10.783 4.219 10.783 6.014z" fill="url(#j)"/><path d="M112.885 88.797s1.383.778 2.354 1.036c1.209.318 4.997.895 11.562 1.795-7.49-.531-10.48-.82-11.762-1.189-1.017-.292-2.154-1.642-2.154-1.642z" fill="#c27b55"/><path d="M115.973 78.555c19.522-1.179 22.656 2.209 25.828 6.735l-3.114 2.69.536-2.4c-3.32-4.56-11.839-6.551-23.25-5.247l-3.871 3.383a.18.18 0 01-.247-.007.183.183 0 01-.011-.247c.62-1.527 1.824-2.654 4.129-4.907zm20.465 12.535l1.653-2.046-2.25 1.384c-11.621-.903-18.688-1.109-22.642-3.426a.257.257 0 00-.279.135.258.258 0 00.048.306c1.627 2.313 10.888 3.058 23.47 3.647z" fill="#582311"/><path d="M141 113.974c.035 22.622-18.292 40.994-40.938 41.025-22.642.037-41.028-18.273-41.063-40.9-.035-22.62 18.292-41.064 40.937-41.1 22.643-.035 41.031 18.35 41.064 40.975z" fill="url(#k)"/><path d="M137.5 53.999c0 20.711-16.789 37.5-37.499 37.5-20.711 0-37.501-16.789-37.501-37.5s16.79-37.5 37.501-37.5c20.71 0 37.499 16.789 37.499 37.5z" fill="url(#l)"/><path d="M51.602 75.92c18.88-17.059 45.16-8.306 39.295-6.457-2.034.641-21.156-5.938-39.295 6.457zm96.796 0c-18.88-17.059-45.16-8.306-39.296-6.457 2.035.641 21.157-5.938 39.296 6.457z" fill="#a68469"/><path d="M96.831 88.524s-1.399 11.117-2.026 13.281c-1.379 4.752-6.168 11.417-5.239 14.429 1.859 6.022 7.537 4.493 10.524 4.471 2.763-.022 8.072 1.552 9.162-2.37.352-1.266-.441-4.466-.441-4.466s-2.644 3.112-8.875 2.767c-1.778-.099-4.671-2.096-4.704-4.912-.043-3.817 1.802-7.035 2.205-10.824.304-2.878-.606-12.376-.606-12.376z" fill="#e1ac8f"/><path d="M105.194 118.969c1.075 0 1.366.326 1.366.729 0 .404-.335 1.026-1.366.73-1.134-.323-3.113-.175-3.113-.175s2.036-1.284 3.113-1.284zm-10.272 0c-1.077.001-1.366.328-1.366.733-.001.403.323.983 1.366.729 1.15-.282 3.112-.175 3.112-.175s-2.035-1.283-3.112-1.287zm13.888-5.1s1.489 1.933 1.18 3.975c-.301 1.983-3.31 2.861-3.31 2.861s2.089-1.516 2.342-3.356c.118-.863-.212-3.48-.212-3.48zm-18.383-1.986s-1.086 2.704-.772 4.352c.571 2.976 3.704 4.164 3.704 4.164s-1.955-2.039-2.65-3.842c-.761-1.97-.282-4.674-.282-4.674z" fill="#c27b55"/><path d="M105.141 115.311c1.043-.889 1.148-1.396.932-1.729-.215-.334-.841-.545-1.714.528-.963 1.18-3.056 2.054-3.056 2.054s2.795.034 3.838-.853z" fill="#ffe4d6"/><path d="M80.709 34.557c4.12-3.041 9.715-3.693 16.558-2.323 5.292-3.294 15.869-3.224 21.709.397l3.457-11.98-52.341 4.046 10.617 9.86z" fill="#875d3b"/><path d="M37.21 85.336C30.116 58.218 25.398 27.461 56.669 4.26c8.853-6.426 19.862-7.773 27.538-7.773 7.993 0 14.477 1.499 16.341 2.514l.208.113.226-.074c3.118-.994 6.957-1.523 11.105-1.523 12.853 0 30.869 5.057 42.893 19.25 9.14 10.794 17.774 30.855 7.105 65.169h-.021s-.148.557-.178.658c-3.457-1.473-6.839-2.475-10.114-3.446-9.063-2.684-16.885-5.001-21.658-16.18-.145-.351-.324-1.477-.555-2.901-1.291-7.984-4.308-26.68-17.779-32.709-1.935-.786-3.569-1.147-5.168-1.147-3.145 0-6.156 1.448-9.458 4.553-2.634-1.141-4.917-1.696-6.969-1.696-6.327 0-11.363 5.228-17.386 18.047-1.894 3.907-3.031 7.417-4.033 10.513-2.585 7.979-4.453 13.746-16.391 20.029-2.946 1.61-6.195 3.212-9.339 4.763a335.218 335.218 0 00-5.826 2.916z" fill="#a68469"/><path d="M105.614 18.714c28.229-5.106 32.704 52.078 48.686 56.757-5.396-12.071-9.353-23.835-10.437-39.693 5.436 18.565 9.51 26.904 15.007 32.183 1.502-24.864-.523-39.573-10.287-57.487-11.435-9.425-25.767-12.957-36.496-12.957-4.148 0-7.987.529-11.105 1.523l-.226.074-.208-.114C98.684-2.016 92.2-3.514 84.207-3.514c-6.564 0-15.56.996-23.566 5.299-16.149 21.305-22.681 46.93-18.205 72.56 4.621-11.663 6.659-23.953 13.344-38.567-4.635 14.005-4.171 23.974-8.25 35.83 18.181-11.603 12.193-26.447 24.42-41.95 5.769-7.744 24.145-8.777 25.393.941.185-.172.368-.331.552-.493.961-4.849 2.269-10.405 7.719-11.392z" fill="#976f50"/><path d="M57.586 48.567c2.488-7.87 2.448-9.899 3.634-14.406 6.92-26.707 30.524-20.736 34.72-14.67.239.326.37.502.37.502l-.432-.462c-3.573-4.105-21.731-9.218-30.48 8.441-3.575 7.438-3.433 11.222-7.812 20.595zm9.749-37.835c1.352-1.039 2.308-1.662 2.308-1.662 9.619-6.638 18.8-7.501 28.365-4.885-1.694-.654-4.498-1.815-8.446-2.275C54.374-.636 48.087 38.732 45.361 47.047c5.496-11.465 7.88-25.243 21.974-36.315zm61.081 10.982c-8.457-10.152-18.242-13.946-30.749-8.106 28.427-9.983 38.845 27.518 44.156 36.784-3.438-8.458-3.668-17.072-13.407-28.678zm-33.125-9.321c11.223-9.433 43.926-13.407 59.469 34.102l.991 2.984C145.496-6.657 105.58 1.864 95.291 12.393z" fill="#875d3b"/><path d="M148.279 73.767c-8.26-3.9-13.81-8.055-16.069-17.367-2.688-11.38-8.134-37.877-29.107-32.761 19.153-6.747 27.954 14.231 31.313 32.346 1.65 8.279 5.768 12.699 13.863 17.782zM72.228 42.1c.617-1.427 1.069-2.362 1.069-2.362 5.09-10.386 9.833-15.72 20.634-12.144-10.938-4.992-17.75 1.245-22.704 11.35-11.184 23.131-1.875 18.542-22.472 36.376C68.963 61.573 63.204 62.519 72.228 42.1zm87.939-7.515c2.018 13.188 2.591 19.962-.066 40.124 4.807-18.866 3.597-27.699.066-40.124zM38.838 48.115c.58-8.917 2.583-20.242 8.558-27.817-14.095 14.207-11.714 45.655-7.811 57.147-1.149-6.031-1.246-22.778-.747-29.33z" fill="#b59a85"/><path d="M100.813-1.388c-4.242-2.307-28.469-6.317-44.469 5.297-30.673 22.757-27.235 52.654-19.474 82.13 4.602-2.415 10.669-5.203 15.765-7.989 16.905-8.898 13.998-17.051 20.636-30.759 8.125-17.298 14.163-19.455 23.996-15.057 5.525-5.315 9.678-6.338 14.285-4.468 15.916 7.123 17.097 32.984 18.091 35.366 6.675 15.644 19.279 14.258 32.586 20.117.081-.283.162-.565.235-.856h.009c23.049-73.483-38.522-91.186-61.66-83.781zm63.678 61.025c-.694 9.357-2.821 21.306-2.965 22.217-11.304-6.112-22.484-4.722-29.412-20.063-.037-.099-.007.036-.037-.182-4.062-30.844-22.014-44.849-34.902-30.933-8.594-4.358-14.148-2.036-19.747 4.896C63.429 52.96 70.694 64.903 51.31 76.41c-4.381 2.677-10.079 5.823-13.695 8.081-4.668-23.015-11.621-58.396 24.802-81.297C82.234-6.986 97.779-.972 99.483-.972c4.143 1.02 5.63 1.567 9.75 3.413-3.416-1.949-5.337-2.747-6.782-3.256 28.811-3.927 66.642 14.401 62.04 60.452z" fill="#784b28"/><path d="M148.74 83.98c-.07 5.17-2.36 10.62-5.3 14.98-2.86 4.24-10.31 5.75-15.82 5.75-4.5 0-8.51-.92-11.02-2.53-4.73-3.04-9.81-10.61-10.93-17.83 10.17-6.11 31.14-6.11 43.07-.37zm-97.48-.7c-.14 5.38 2.23 11.13 5.3 15.68 2.86 4.24 10.31 5.75 15.82 5.75 4.5 0 8.51-.92 11.02-2.53 4.59-2.95 9.5-10.16 10.81-17.18-10.81-6.34-31.61-7.03-42.95-1.72z" fill="#fff" opacity=".2"/><path d="M148.74 83.98c-11.93-5.73-32.9-5.74-43.06.36-.17-1.1-.25-2.19-.23-3.26.22-8.25 12.02-11.18 22.06-11.18 7.08 0 15.44 1.47 18.14 4.74 2.26 2.75 3.14 5.98 3.09 9.34zM72.49 69.9c-7.08 0-15.44 1.47-18.14 4.74-2.1 2.55-3.01 5.53-3.09 8.64 11.35-5.31 32.14-4.62 42.94 1.71.25-1.32.38-2.63.34-3.91-.22-8.25-12.02-11.18-22.05-11.18z" fill="#fff" opacity=".4"/><path d="M154.48 72.86c-.6-2.41-28.01-7.28-42.24-2.39-3.44 1.18-5.82 2.23-7.24 3.72v-.02c-.5.88-1.75 1.18-2.64.85-1.6-.61-3.22-.58-4.72 0-.88.34-2.14.03-2.64-.85v.02c-1.42-1.49-3.79-2.53-7.24-3.72-14.23-4.89-41.64-.01-42.24 2.39-.23.95-.54 6.06-.52 7.89.02 1.83 1.16 1.69 2.87 2.49.66.31 2.04 2.67 2.17 3.64.63 4.54 2.44 8.75 5.26 12.93 4.82 7.14 21.71 8.27 28.91 3.64 4.98-3.2 10.14-10.73 11.51-18.22.27-1.49.52-2.65.71-3.65l.01.05c.36-1.23 1.97-1.83 3.57-1.86 1.6.03 3.21.63 3.57 1.86l.01-.05c.18 1 .44 2.16.71 3.65 1.37 7.49 6.53 15.02 11.51 18.22 7.2 4.63 24.09 3.5 28.91-3.64 2.82-4.18 4.63-8.39 5.26-12.93.13-.98 1.51-3.34 2.17-3.64 1.71-.8 2.86-.65 2.87-2.49 0-1.83-.31-6.95-.54-7.89zm-71.36 28.89c-6.38 4.1-22.02 3.04-26.15-3.07-4.7-6.98-7.82-16.94-2.24-23.72 5.38-6.53 38.94-7.32 39.31 6.13.22 7.9-5.58 17.23-10.92 20.66zm59.91-3.07c-4.13 6.12-19.77 7.17-26.15 3.07-5.34-3.43-11.14-12.76-10.92-20.66.37-13.45 33.93-12.66 39.31-6.13 5.58 6.77 2.46 16.74-2.24 23.72z" fill="#c20b0b"/><path d="M45.37 73.94c.05-.5.1-.89.15-1.09.6-2.41 28.01-7.28 42.24-2.39 3.44 1.18 5.82 2.23 7.24 3.72v-.02c0-.01-22-11.62-49.63-.22zm108.55 8.56c.67-.3 1.07-.7 1.08-1.77.02-1.82-.29-6.94-.52-7.89-.6-2.41-28.01-7.28-42.24-2.39-3.28 1.13-5.59 2.14-7.03 3.52 7.52-5.95 38.17-7.14 46.39 1.02 1.7 1.7 2.24 4.92 2.32 7.51z" fill="#d12121"/></svg>