<svg xmlns="http://www.w3.org/2000/svg" width="500" height="500" viewBox="0 0 200 200" overflow="hidden"><defs><radialGradient id="i" cx="100" cy="114" r="41" gradientUnits="userSpaceOnUse" class="svga-on-canvas-facehighlight-gradient-single-0"><stop stop-opacity=".5" stop-color="#ffe4d6" offset="0"/><stop stop-opacity="0" stop-color="#f0c7b1" offset=".9"/></radialGradient><radialGradient id="j" cx="100" cy="54" r="37" gradientUnits="userSpaceOnUse" class="svga-on-canvas-facehighlight-gradient-single-1"><stop stop-opacity=".5" stop-color="#ffe4d6" offset="0"/><stop stop-opacity="0" stop-color="#f0c7b1" offset=".9"/></radialGradient><radialGradient id="c" cx="126.275" cy="85.349" r="10.629" gradientTransform="matrix(-1 0 0 1 200 0)" gradientUnits="userSpaceOnUse" class="svga-on-canvas-eyesback-gradient-left-0"><stop stop-color="#fff" offset="0"/><stop stop-color="#fdfefe" offset=".544"/><stop stop-color="#f6f8f9" offset=".74"/><stop stop-color="#eaeff2" offset=".879"/><stop stop-color="#d9e3e8" offset=".992"/><stop stop-color="#d8e2e7" offset="1"/></radialGradient><radialGradient id="f" cx="125.875" cy="85.349" r="10.629" gradientUnits="userSpaceOnUse" class="svga-on-canvas-eyesback-gradient-right-0"><stop stop-color="#fff" offset="0"/><stop stop-color="#fdfefe" offset=".544"/><stop stop-color="#f6f8f9" offset=".74"/><stop stop-color="#eaeff2" offset=".879"/><stop stop-color="#d9e3e8" offset=".992"/><stop stop-color="#d8e2e7" offset="1"/></radialGradient><radialGradient id="d" cx="123.715" cy="83.955" fx="135.822" fy="83.989" r="17.219" gradientTransform="matrix(.9998 .0206 .0166 -.7916 -48.8 147.858)" gradientUnits="userSpaceOnUse" class="svga-on-canvas-eyesfront-gradient-left-3"><stop stop-color="#e1ac8f" offset="0"/><stop stop-opacity=".3" stop-color="#e1ac8f" offset=".7"/><stop stop-opacity="0" stop-color="#f0c7b1" offset="1"/></radialGradient><radialGradient id="e" cx="123.018" cy="104.865" r="27.497" gradientTransform="matrix(-.9336 -.3584 -.3046 .7935 223.772 65.736)" gradientUnits="userSpaceOnUse" class="svga-on-canvas-eyesfront-gradient-left-4"><stop stop-opacity="0" offset=".95"/><stop stop-opacity=".2" offset="1"/></radialGradient><radialGradient id="g" cx="123.315" cy="83.955" fx="135.422" fy="83.989" r="17.219" gradientTransform="matrix(-.9998 .0206 -.0166 -.7916 248.002 147.866)" gradientUnits="userSpaceOnUse" class="svga-on-canvas-eyesfront-gradient-right-3"><stop stop-color="#e1ac8f" offset="0"/><stop stop-opacity=".3" stop-color="#e1ac8f" offset=".7"/><stop stop-opacity="0" stop-color="#f0c7b1" offset="1"/></radialGradient><radialGradient id="h" cx="122.617" cy="104.865" r="27.498" gradientTransform="matrix(.9336 -.3584 .3046 .7935 -23.799 65.592)" gradientUnits="userSpaceOnUse" class="svga-on-canvas-eyesfront-gradient-right-4"><stop stop-opacity="0" offset=".95"/><stop stop-opacity=".2" offset="1"/></radialGradient><linearGradient id="b" x1="100" y1="142" x2="100" y2="139" gradientUnits="userSpaceOnUse" class="svga-on-canvas-mouth-gradient-single-0"><stop stop-color="#e8b9a0" offset=".1"/><stop stop-color="#e1ac8f" offset="1"/></linearGradient><linearGradient id="a" x1="100" y1="171" x2="100" y2="131" gradientUnits="userSpaceOnUse" class="svga-on-canvas-chinshadow-gradient-single-0"><stop stop-opacity=".8" stop-color="#e1ac8f" offset="0"/><stop stop-color="#c27b55" offset=".7"/></linearGradient></defs><path d="M225 225H-25V-25h250v250z" fill="#f1d4af"/><path d="M0-5v210m10 0V-5m10 210V-5m10 210V-5m10 210V-5m10 210V-5m10 210V-5m10 210V-5m10 210V-5m10 210V-5m10 210V-5m10 210V-5m10 210V-5m10 210V-5m10 210V-5m10 210V-5m10 210V-5m10 210V-5m10 210V-5m10 210V-5m10 210V-5" fill="none" stroke="#e2bd8d" stroke-width="5"/><path d="M146.969 104.885c-46.51-1.001-92.949.02-93.95.02-2.675 4.014-4.176 11.498-3.28 15.61.934 4.212 4.441 8.009 5.66 16.46.07.83-.04 1.71.3 2.76.35 1.001 2.022 3.206 3.34 3.44l.5-.061c.523.935 1.48 1.218 2.11.91 1.516 2.89 3.099-.453 5.14 1.32 3.383 2.757 3.832.049 6.58-.931 2.146-.04 5.034 3.43 7.71.761 5.499-5.354 8.082 4.5 12.97 1.869 1-.506 3.922-2.7 5.96-1.42 3.889-2.455 5.717 5.161 11.56-.05 5.623-5.015 6.653 1.352 10.72.51 1.852-.43 2.478-1.777 4.35-1.67 2.654 1.003 3.25 3.637 6.57.931 2.014-1.75 3.577 1.521 5.141-1.32.62.311 1.589.028 2.109-.91l.51.061c1.243-.235 2.975-2.42 3.341-3.44.488-1.559-.315-5.524 3.609-13.46 3.995-8.164 3.346-15.441-.95-21.39z" fill="#2f211e"/><path d="M146.969 104.885c-46.51-1.001-92.949.02-93.95.02-2.675 4.014-4.176 11.498-3.28 15.61.934 4.212 4.441 8.009 5.66 16.46.07.83-.04 1.71.3 2.76.35 1.001 2.022 3.206 3.34 3.44l.5-.061c.523.935 1.48 1.218 2.11.91 1.516 2.89 3.099-.453 5.14 1.32 3.383 2.757 3.832.049 6.58-.931 2.146-.04 5.034 3.43 7.71.761 5.499-5.354 8.082 4.5 12.97 1.869 1-.506 3.922-2.7 5.96-1.42 3.889-2.455 5.717 5.161 11.56-.05 5.623-5.015 6.653 1.352 10.72.51 1.852-.43 2.478-1.777 4.35-1.67 2.654 1.003 3.25 3.637 6.57.931 2.014-1.75 3.577 1.521 5.141-1.32.62.311 1.589.028 2.109-.91l.51.061c1.243-.235 2.975-2.42 3.341-3.44.488-1.559-.315-5.524 3.609-13.46 3.995-8.164 3.346-15.441-.95-21.39zm.07 20.89c-5.513 10.228-2.238 14.543-6.01 16.14a.38.38 0 00-.141.03c-.312-.07-.85-.322-1.14-.46-.006.015-.19.59-.36 1.04-.058.078-.041.102-.199.26a.58.58 0 00-.13.08c-.37.084-.932-.389-1.28-.63-.951 2.268-1.016 1.841-1.86 1.57-2.987-.938-3.279.839-4.62 1.39-1.356.511-2.175-1.354-4.46-2.03-2.538-.171-3.387 1.449-4.89 1.75-2.598.548-5.365-5.445-11.05.08-5.063 4.924-6.429-2.163-10.91.24-4.396-2.515-5.807 4.695-10.95-.3-5.512-5.221-8.704-.136-9.84.01-1.911.413-2.582-1.3-5.19-1.8-2.841 0-3.702 2.653-5.31 2.05-1.344-.553-1.628-2.329-4.62-1.39-1 .32-1.005.471-1.86-1.57-.344.238-.908.715-1.28.63-.04-.03-.08-.06-.13-.08-.379-.509-.325-.681-.56-1.3.191-.098-.692.358-1.14.46a.308.308 0 00-.13-.03c-.2-.08-.47-.35-.73-.67-1.661-2.134-1.418-1.179-1.63-4.35-1.82-12.19-11.412-17.353-3.55-31.81 30.144.618 62.703.696 93.88.02 4.538 8.689 3.378 14.442.09 20.67z" fill="#201311"/><path d="M195.417 199.778c-2.196-4.746-8.195-11.779-14.86-13.722-8.239-2.403-26.837-5.308-33.733-6.923-5.528-1.296-16.662-11.294-20.564-14.65-.7-.6-1.273-1.839-1.287-2.76-.139-10.864 4.195-39.724 4.195-39.724H70.833s4.334 28.859 4.193 39.724c-.011.921-.587 2.16-1.285 2.76-3.902 3.356-15.036 13.354-20.564 14.65-6.897 1.615-25.495 4.619-33.733 7.022-6.667 1.942-12.664 8.876-14.86 13.622-3.708 8.008-4.584 22.5-4.584 35h200c0-12.499-.877-26.991-4.583-34.999z" fill="#f0c7b1"/><path d="M159.156 184.058c24.342 3.542 34.586 8.708 37.794 50.721H200c0-12.5-.877-26.992-4.583-35-2.196-4.746-8.195-11.779-14.86-13.722-8.239-2.403-26.837-5.308-33.733-6.923-5.528-1.296-18.242-12.069-21.643-16.35 3.36 4.704 12.791 15.605 21.054 18.46 3.953 1.366 7.245 1.988 12.921 2.814zm-105.39-2.814c8.263-2.854 17.693-13.756 21.054-18.46-3.4 4.28-16.114 15.054-21.643 16.35-6.896 1.615-25.494 4.619-33.733 7.022-6.665 1.942-12.664 8.876-14.86 13.622-3.706 8.008-4.583 22.5-4.583 35h3.05c3.188-41.744 13.475-47.183 37.794-50.721 5.675-.825 8.968-1.447 12.921-2.813z" fill="#ffe4d6"/><path d="M95.646 197.62s-5.074-1.609-7.083-2.379c-10.449-4.009-44.395-6.607-44.395-6.607s35.754 1.419 43.644 2.779c-.458-4.767-3.017-20.004-3.017-20.004s5.149 16.815 6.409 21.057c.674 2.268 4.442 5.154 4.442 5.154zm10.799-1.342c-.089.073-.191.168-.302.268.113-.085.215-.174.302-.268zm-10.799 1.342s2.893 2.992 4.347 3.03c1.91.051 4.828-2.899 6.151-4.104-1.265.957-4.159 1.391-5.31 1.436-1.33.051-5.188-.362-5.188-.362zm21.018-7.519c-1.545.248-4.386.789-4.386.789l2.287-14.89c-.646 3.071-4.474 16.211-8.12 20.278 1.91-1.616 6.158-2.391 8.324-2.704 10.236-1.484 10.232-1.483 41.062-4.94 0 0-29.071-.155-39.167 1.467z" fill="#e1ac8f"/><path d="M195.417 199.778c-2.196-4.746-8.195-11.779-14.86-13.722-8.239-2.403-26.837-5.308-33.733-6.923-5.528-1.296-16.662-11.294-20.564-14.65-.7-.6-1.273-1.839-1.287-2.76-.139-10.864 4.195-39.724 4.195-39.724H70.833s4.334 28.859 4.193 39.724c-.011.921-.587 2.16-1.285 2.76-3.902 3.356-15.036 13.354-20.564 14.65-6.897 1.615-25.495 4.619-33.733 7.022-6.667 1.942-12.664 8.876-14.86 13.622-3.708 8.008-4.584 22.5-4.584 35h200c0-12.499-.877-26.991-4.583-34.999z" fill="none" stroke="#c27b55" stroke-width="1.5"/><path d="M100.021 171.866c8.183 0 16.871-4.943 24.199-10.675-.001-6.702 1.451-19.105 2.652-28.205-15.382-2.247-38.406-2.279-53.766-.152 1.184 8.96 2.625 21.206 2.671 28.02 7.342 5.913 16.045 11.012 24.244 11.012z" fill="url(#a)"/><path d="M42.77 235.757l1.323-60.852s10.194-2.487 16.635-6.313c17.496 21.953 69.451 17.333 78.336-.62 1.489.525 2.721 1.197 4.262 1.713 5 3.386 9.213 4.494 9.213 4.494l.935 61.685c-14.286.188-110.704-.107-110.704-.107z" fill="#f5f4f5"/><path d="M154.014 177.705c-4.236-.719-7.611-1.697-9.452-3.544-5.343 10.025-26.763 16.378-33.855 17.309 20.554-6.276 29.188-10.813 32.598-21.583 1.99 2.383 6.522 3.549 12.313 4.538l-1.604 3.28zM52.67 174.381c1.454-.312 2.18-1.234 3.623-1.593l-1.528-1.867c-3.114 2.234-8.971 3.305-15.9 4.424l.188 3.738c3.956-.79 7.817-1.788 11.429-3.323 7.483 8.485 19.168 12.659 31.06 14.387-14.918-3.585-23.472-9.636-28.872-15.766z" fill="#fff"/><path d="M137.861 170.055c-5.929 11.361-50.74 24.595-76.009.866-1.571.615-6.271 2.085-6.271 2.085 18.406 23.08 72.345 23.227 86.702-.112-.062-.024-2.962-2.157-4.422-2.839z" fill="#dfdde2"/><path d="M139.008 167.841c-10.087 18.575-62.578 21.204-78.239.625-5.72 1.556-11.219 4.876-16.756 5.707l-1.243 61.584 110.703.107-.855-62.386c-3.369-.707-6.501-2.737-9.254-3.894-1.522-.639-2.814-1.214-4.356-1.743zm-78.618 1.246c13.903 23.086 68.817 18.455 79.419.099 1.286.499 1.615.696 3.106 1.183-10.982 21.208-65.306 27.967-87.525 1.147.156-.04 3.433-1.887 5-2.429zm-6.103 3.331c17.963 27.046 77.26 22.856 89.583-1.287a20.069 20.069 0 007.936 3.735l1.66 59.08-110.377.016 1.904-58.299c2.784-1.399 7.254-2.431 9.294-3.245z" fill="#b8b6c9"/><path d="M-4.529 235.566c-2.574-13.852-2.292-47.592 9.013-47.521 13.136-5.311 29.269-11.404 42.802-15.311 6.908-7.246 13.436-14.137 26.188-21.314.389 2.599 1.874 8.541.011 11.773-1.355 2.352-5.783 5.576-9.554 8.368-2.029 2.72-3.927 5.374-6.599 9.089 5.168 22.301 9.601 33.78 10.097 53.123 0 0-1.452.689 64.471.397 2.215-22.339 4.993-33.561 10.379-54.098 0 0-4.308-5.014-7.207-8.87-2.054-1.997-8.36-7.532-8.84-8.651-1.175-2.741-.548-6.188.11-11.367 10.793 4.873 17 12.021 26.082 21.303 7.729 2.119 30.86 9.967 42.445 15.216 3.965-.11 6.203 1.999 7.872 5.466 5.405 11.195 4.126 27.297 2.18 42.789-19.091.031-155.034 2.212-209.45-.392z" fill="#dcc96b"/><path d="M73.875 154.081c.16 1.07.304 2.085.411 3.041-.218.266-17.212 23.353-17.336 23.525 4.176-9.499 10.15-19.342 16.925-26.566zm52.178 0c-.159 1.07-.184 2.085-.291 3.041.218.266 16.931 22.469 17.054 22.642-4.425-8.85-9.988-18.459-16.763-25.683zm38.955 31.073c-4.28 6.231-5.194 8.382-9.879 14.557 1.071 0 2.799.166 3.87.166 3.664-6.285 3.671-9.484 6.009-14.723zm4.386 45.225c3.793-8.9 6.934-16.711 10.739-25.624l-1.247-2.014c-3.169 9.155-6.532 18.458-9.492 27.638zM41.048 199.877c1.071 0 2.799-.166 3.871-.166-4.685-6.175-5.599-6.561-9.878-12.792 2.336 5.239 2.343 6.673 6.007 12.958zm-19.887 2.864l-1.247 2.014c3.806 8.913 4.765 16.724 8.559 25.624-2.961-9.18-4.143-18.483-7.312-27.638z" fill="#cdb84f"/><path d="M65.638 169.283c1.181-1.646 5.237-7.272 8.601-12.561.988 5.457-.826 8.694-8.601 12.561zm60.102-12.923c2.553 4.396 5.562 8.772 8.664 12.803-8.404-3.827-8.969-7.74-8.664-12.803z" fill="#bda736"/><path d="M126.318 151.359c.008-.061.017-.118.023-.174 18.093 9.999 28.576 25.02 40.747 36.217-.448.721-1.228 1.193-1.687 1.905-12.745-9.698-18.802-24.361-39.083-37.948zm-54.582.663c-15.034 8.213-36.242 33.357-38.318 35.269.448.724.691.577 1.15 1.288 12.746-9.697 16.225-19.296 37.168-36.557zm123.133 35.682c-1-.799-24.646-10.039-42.59-14.969 33.698 16.299 45.587 18.545 51.471 24.321-.383-.999-1.164-9.567-8.881-9.352zM47.458 172.555c-13.524 3.914-30.839 10.098-42.975 15.491-5.364.106-9.208 7.93-10.031 16.084 7.462-16.813 3.775-5.51 53.006-31.575z" fill="#ebdb8a"/><path d="M206.6 210.062c-.34-8.635-3.055-23.103-11.691-22.46-.714-.61-20.822-9.767-42.285-15.611-7.353-7.455-16.515-17.598-26.371-20.957-.711 6.428-1.477 10.622.216 12.714 2.241 2.439 4.93 4.879 7.568 6.522 4.616 6.136 8.139 9.778 8.139 9.778-5.43 20.703-8.815 31.314-10.973 53.688H68.798c-2.157-22.373-5.543-32.984-10.973-53.688 0 0 3.522-3.643 8.139-9.778 2.639-1.644 5.327-4.083 7.568-6.522 1.692-2.092.927-6.286.216-12.714-9.856 3.359-19.019 13.502-26.371 20.957-21.463 5.845-41.571 15.001-42.285 15.611-8.637-.643-11.352 13.825-11.691 22.46C-7.01 220.549-5.164 235-5.014 236h210.029c.15-1.001 1.996-15.451 1.585-25.938zM72.984 163.194c-2.258 2.233-3.658 3.181-6.473 5.282 4.829-6.271 4.341-5.433 7.708-11.229.151 2.492-.786 5.504-1.235 5.947zm-76.156 70.834c-1.082-12.844-2.916-24.41.43-36.992 1.281-4.827 2.484-8.095 7.455-8.509 1.067 5.538 8.132 28.724 14.298 44.533-6.226-24.192-5.311-18.81-8.219-28.452-.964-3.235-1.854-6.486-2.979-9.672-.783-2.214-1.65-4.387-2.262-6.653l40.433-14.865c-.279.283-12.895 13.434-13.199 13.804 1.847 3.021 7.816 7.222 10.845 11.758-12.436 1.174-18.508 3.173-23 3.84.331.919 9.061 25.353 9.976 27.656-1.479-7.917-4.816-20.297-8.637-27.211 1.41-.179 18.077-2.492 23.393-3.477-1.476-2.854-8.043-8.437-11.559-12.619 20.646-18.162 25.422-27.402 39.593-35.454.15 1.509.443 3.011.55 4.519-15.795 23.533-17.649 23.567-17.649 23.567 4.585 17.81 10.532 35.824 10.532 54.073l-70.001.154zm130.188-70.834c-.448-.443-1.386-3.455-1.235-5.947 3.367 5.797 2.879 4.958 7.708 11.229-2.815-2.101-4.216-3.048-6.473-5.282zm76.156 70.834l-70-.154c0-18.249 5.947-36.264 10.532-54.073 0 0-1.854-.034-17.649-23.567.106-1.508.399-3.01.55-4.519 14.171 8.052 18.946 17.292 39.593 35.454-3.516 4.183-10.083 9.766-11.559 12.619 5.315.984 21.982 3.298 23.393 3.477-3.82 6.914-7.157 19.294-8.637 27.211.915-2.304 9.645-26.737 9.976-27.656-4.492-.667-10.564-2.666-23-3.84 3.028-4.536 8.998-8.736 10.845-11.758-.305-.37-12.92-13.521-13.199-13.804l40.433 14.865c-.611 2.267-1.479 4.439-2.262 6.653-1.125 3.186-2.015 6.437-2.979 9.672-2.908 9.643-1.993 4.26-8.219 28.452 6.166-15.81 13.23-38.995 14.298-44.533 4.971.414 6.174 3.682 7.455 8.509 3.345 12.582 1.511 24.149.429 36.992z" fill="#ae9620"/><path d="M47.69 83.08c-1.588-2.376-8.025-7.833-11.703-6.994-4.355.993-5.708 4.372-5.603 6.475.606 12.025 4.426 12.016 6.71 16.64 1.709 3.459 3.126 5.044 4.172 11.958.598 3.953 4.427 6.984 7.217 6.835 3.908-.21 6.994-3.716 8.291-7.173 2.689-7.178-4.951-21.556-9.084-27.741z" fill="#f0c7b1" stroke="#c27b55" stroke-width="1.5"/><path d="M43.274 100.336c-.15-.554-.062-1.507.024-2.43.077-.84 1.438-3.888 1.348-4.44-.344-2.068-1.931-5.94-2.949-8.031-1.169-2.403-3.604-5.409-5.79-6.078-.904-.278-3.479.04-3.781.639-1.131 2.241-.615 4.411 1.1 10.21.85 2.873 3.915 6.207 3.998 6.54 1.067 4.343 5.099 11.284 6.488 12.839.256.288.519.452.579.376.059-.077-.104-.368-.361-.656-1.372-1.547-5.367-8.471-6.396-12.662-1.092-4.446 2.313-11.346 2.93-12.8.379.642.703 1.261.954 1.777.198.406.417.881.645 1.396-.367.76-4.245 6.367-3.026 10.606.451 1.563 2.054 4.592 3.432 6.187.483.559.893.717 1.19 1.234.341.599.732 1.279 1.792 1.726.215.091.408.121.577.111a1 1 0 00.667-.326c.029.271.044.617.051.94.007.413.073.752.162.755s.168-.333.161-.746c-.009-.509-.04-1.14-.132-1.437-.273-.873-1.028-1.832-1.829-2.844-.789-.996-1.603-2.029-1.834-2.886zm-6.314-5.697c-2.347-6.779-1.518-13.668-1.103-14.643 1.345 0 3.778 2.495 4.397 3.498-.38.857-3.417 6.496-3.294 11.145zm8.599 11.775c-.961-.403-1.303-1.001-1.635-1.58-.299-.524-1.018-1.022-1.346-1.378-.191-.209-.531-.767-.715-.892-1.762-7.606 1.345-10.382 1.967-10.964.231.729.411 1.399.5 1.939.082.496-1.28 3.552-1.352 4.327-.089.961-.182 1.954-.012 2.583.253.938 1.093 2 1.904 3.028.72.912 1.459 1.852 1.732 2.639-.093.166-.398.57-1.043.298z" fill="#c27b55"/><path d="M152.049 83.08c1.588-2.376 8.025-7.833 11.701-6.994 4.357.993 5.709 4.372 5.604 6.475-.605 12.025-4.426 12.016-6.709 16.64-1.711 3.459-3.127 5.044-4.174 11.958-.598 3.953-4.428 6.984-7.217 6.835-3.908-.21-6.994-3.716-8.291-7.173-2.688-7.178 4.953-21.556 9.086-27.741z" fill="#f0c7b1" stroke="#c27b55" stroke-width="1.5"/><path d="M154.633 103.222c-.801 1.013-1.557 1.972-1.83 2.844-.092.297-.123.928-.131 1.437-.008.413.072.749.16.746.09-.003.154-.342.162-.755.008-.323.021-.67.051-.94a.99.99 0 00.666.326 1.3 1.3 0 00.578-.111c1.061-.446 1.449-1.126 1.791-1.726.297-.517.709-.675 1.191-1.234 1.377-1.594 2.98-4.624 3.432-6.187 1.219-4.239-2.66-9.846-3.027-10.606.229-.515.447-.989.645-1.396.252-.516.576-1.136.955-1.777.617 1.454 4.021 8.354 2.93 12.8-1.029 4.191-5.025 11.115-6.396 12.662-.256.288-.42.579-.361.656.061.076.322-.088.578-.376 1.391-1.556 5.422-8.496 6.49-12.839.082-.333 3.146-3.667 3.996-6.54 1.715-5.799 2.232-7.969 1.102-10.21-.303-.599-2.877-.917-3.783-.639-2.186.669-4.619 3.675-5.789 6.078-1.018 2.09-2.605 5.963-2.949 8.031-.09.552 1.271 3.6 1.348 4.44.086.922.176 1.875.025 2.43-.235.857-1.047 1.89-1.834 2.886zm4.851-19.728c.619-1.003 3.053-3.498 4.396-3.498.416.975 1.244 7.864-1.104 14.643.126-4.649-2.913-10.288-3.292-11.145zm-6.347 22.622c.273-.788 1.012-1.728 1.732-2.639.811-1.028 1.65-2.09 1.904-3.028.168-.629.076-1.623-.014-2.583-.07-.775-1.434-3.831-1.352-4.327.09-.54.27-1.21.5-1.939.623.582 3.729 3.358 1.967 10.964-.184.125-.523.683-.715.892-.328.356-1.047.854-1.346 1.378-.332.579-.674 1.177-1.635 1.58-.645.272-.948-.132-1.041-.298z" fill="#c27b55"/><path d="M158.785 78.006h-.005c-.01.046-12.197 40.27-15.879 52.418a17.166 17.166 0 01-3.556 6.386c-6.375 7.194-23.768 25.057-39.324 25.057-15.849 0-33.591-19.045-39.708-26.214a16.297 16.297 0 01-3.172-5.765c-3.607-11.551-16.126-51.648-16.137-51.694h-.001a62.422 62.422 0 01-2.002-15.634C38.949 28.536 66.155.92 99.773.867c33.621-.053 60.913 27.476 60.964 61.499a62.387 62.387 0 01-1.952 15.64z" fill="#f0c7b1"/><path d="M132.168 10.26c14.31 11.135 23.671 29.457 23.699 50.208a67.459 67.459 0 01-1.796 15.641h-.004c-.009.046-11.223 40.27-14.608 52.417-.658 2.358-1.776 4.551-3.271 6.385-5.865 7.195-21.866 25.059-36.178 25.059-14.582 0-30.904-19.047-36.531-26.215-1.327-1.689-2.306-3.633-2.918-5.764-3.318-11.552-14.836-51.649-14.846-51.695h-.001a67.6 67.6 0 01-1.842-15.634c-.029-20.827 9.348-39.239 23.713-50.412-17.193 10.909-28.618 30.258-28.584 52.31a62.416 62.416 0 002.002 15.634h.001c.01.046 12.53 40.143 16.137 51.694a16.321 16.321 0 003.172 5.765c6.116 7.169 23.858 26.214 39.708 26.214 15.557 0 32.949-17.862 39.324-25.057a17.158 17.158 0 003.556-6.386c3.682-12.148 15.869-52.372 15.879-52.418h.005a62.395 62.395 0 001.952-15.641c-.033-21.976-11.44-41.23-28.569-52.105z" fill="#e8b9a0"/><path d="M158.785 78.006h-.005c-.01.046-12.197 40.27-15.879 52.418a17.166 17.166 0 01-3.556 6.386c-6.375 7.194-23.768 25.057-39.324 25.057-15.849 0-33.591-19.045-39.708-26.214a16.297 16.297 0 01-3.172-5.765c-3.607-11.551-16.126-51.648-16.137-51.694h-.001a62.422 62.422 0 01-2.002-15.634C38.949 28.536 66.155.92 99.773.867c33.621-.053 60.913 27.476 60.964 61.499a62.387 62.387 0 01-1.952 15.64z" fill="none" stroke="#c27b55" stroke-width="1.5"/><path d="M100.389 141.808c-3.458 0-4.907-2.678-4.907-2.678l9.74-.188c0-.001-1.789 2.866-4.833 2.866z" fill="url(#b)"/><path d="M98.82 139.206c-1.781 0-3.136-.171-3.231-.184-.146-.02-.248-.146-.228-.282.02-.138.157-.227.301-.214.04.006 6.084.5 9.357-.195.156-.03.289.057.321.189a.253.253 0 01-.202.299c-1.409.299-5.042.387-6.318.387zm-14.429-5.382c-.365-.663 4.097.111 6.79-.551 2.98-.732 6.101.208 9.133.479 2.382.213 4.838-.975 7.191-.436 3.261.747 8.236-.196 7.843.594-.273.548-4.893 1.05-7.524.604-2.301-.39-4.683.556-7.006.73-2.885.217-5.767-1.385-8.614-.933-3.282.521-7.503.077-7.813-.487z" fill="#c27b55"/><path d="M62.381 89.681c2.428 2.331 6.769 2.584 13.004 2.584 6.229 0 9.858-1.361 11.353-4.016 1.805-3.206-3.878-9.816-12.912-9.816-5.805 0-18.305 4.665-11.445 11.248z" fill="url(#c)"/><path d="M81.735 88.146c-1.087 5.321-5.202 8.456-9.201 6.994-3.996-1.46-6.356-6.964-5.269-12.286 1.086-5.324 5.211-8.458 9.207-6.996 3.993 1.46 6.351 6.964 5.263 12.288z" fill="#7085b3" stroke="#2b4785" stroke-width=".5"/><path d="M80.568 88.271c-1.06 4.085-4.26 6.469-7.374 5.332-2.875-1.053-4.689-4.732-4.454-8.62a20.332 20.332 0 013.444-.066c-.012.056-.033.104-.045.161-.381 1.875.509 3.841 1.991 4.384 1.487.542 3.001-.545 3.385-2.419.047-.245.073-.49.081-.732a13.594 13.594 0 012.972 1.96z" fill="#8d9ec2"/><path d="M75.515 82.518c-1.501-.574-3.035.569-3.422 2.564-.389 1.986.515 4.063 2.017 4.638 1.505.575 3.039-.569 3.426-2.555.391-1.996-.516-4.074-2.021-4.647zm.329 7.053c-.625.258-1.271-.085-1.443-.771-.166-.685.205-1.444.833-1.698.629-.259 1.273.086 1.447.767.169.681-.203 1.443-.837 1.702z" opacity=".9"/><path d="M70.514 90.765c-.463.37-1.152.04-1.548-.744-.396-.777-.335-1.708.129-2.079.458-.364 1.156-.034 1.549.744.388.778.333 1.71-.13 2.079z" fill="#fff" opacity=".6"/><path d="M80.388 85.068c-1.058.843-2.647.083-3.547-1.701-.9-1.786-.764-3.92.293-4.762 1.056-.849 2.646-.087 3.542 1.699.898 1.785.769 3.917-.288 4.764z" fill="#fff" opacity=".9"/><path d="M54.8 79.995c0 13.807 8.507 30.004 19 30.004s19-11.193 19-25-8.507-25-19-25-19 6.189-19 19.996zm7.581 9.686c-6.859-6.583 5.641-11.248 11.444-11.248 9.034 0 14.717 6.61 12.912 9.816-1.494 2.654-5.123 4.016-11.353 4.016-6.235 0-10.575-.254-13.003-2.584z" fill="#f0c7b1"/><path d="M58.697 84.55c-.075 7.456 8.647 13.464 18.038 13.428 9.389-.043 16.987-6.116 16.962-13.573-.023-7.456-7.647-13.465-17.04-13.426-9.392.042-17.858 3.371-17.96 13.571zm15.128-5.917c9.034 0 14.718 6.542 12.912 9.716-1.494 2.627-5.123 3.975-11.353 3.975-6.235 0-10.576-.251-13.005-2.558-6.858-6.516 5.642-11.133 11.446-11.133z" fill="url(#d)"/><path d="M62.381 89.681c2.428 2.331 6.769 2.584 13.004 2.584 6.229 0 9.858-1.361 11.353-4.016 1.805-3.206-3.878-9.816-12.912-9.816-5.805 0-18.305 4.665-11.445 11.248z" fill="url(#e)"/><path d="M89.188 82.843c.345-.344-4.745-7.529-13.379-7.832-9.13-.319-16.789 6.017-16.789 6.017s8.302-6.009 16.569-5.565c9.611.517 13.327 7.651 13.599 7.38z" fill="#c27b55"/><path d="M86.479 88.878l.335-2.293c-3.319-8.705-15.518-11.145-25.718-2.11-.359.462-.768.821-.468 1.832l2.711 4.484c-2.466-2.355-3.742-4.143-4.917-5.817l-.952-.498c12.896-12.359 27.1-9.455 31.717 1.537l-1.12-.167-1.588 3.032zm-3.909 2.467c-4.308.56-7.537 1.078-13.275.76 3.658.858 9.547.593 13.275-.76z" fill="#153a4d"/><path d="M137.22 89.681c-2.428 2.331-6.769 2.584-13.004 2.584-6.229 0-9.858-1.361-11.353-4.016-1.805-3.206 3.878-9.816 12.912-9.816 5.804 0 18.304 4.665 11.445 11.248z" fill="url(#f)"/><path d="M132.734 88.146c-1.088 5.321-5.203 8.456-9.202 6.992-3.994-1.458-6.356-6.963-5.267-12.284 1.087-5.324 5.21-8.458 9.204-6.994 3.997 1.458 6.355 6.963 5.265 12.286z" fill="#7085b3" stroke="#2b4785" stroke-width=".5"/><path d="M131.569 88.271c-1.062 4.085-4.261 6.468-7.375 5.33-2.875-1.052-4.69-4.73-4.454-8.618a20.448 20.448 0 013.445-.066c-.011.055-.035.103-.046.161-.381 1.875.508 3.84 1.99 4.383 1.489.542 3.001-.547 3.385-2.42.049-.244.073-.49.083-.732a13.873 13.873 0 012.972 1.962z" fill="#8d9ec2"/><path d="M126.517 82.518c-1.504-.573-3.036.569-3.425 2.564-.387 1.987.515 4.063 2.02 4.637 1.504.575 3.035-.57 3.426-2.555.389-1.995-.518-4.073-2.021-4.646zm.326 7.053c-.623.258-1.271-.085-1.44-.771-.168-.684.204-1.445.833-1.697.629-.26 1.272.085 1.445.766.17.68-.203 1.442-.838 1.702z" opacity=".9"/><path d="M121.514 90.765c-.461.368-1.15.039-1.547-.745-.396-.776-.335-1.706.128-2.079.459-.364 1.155-.033 1.547.746.391.777.337 1.708-.128 2.078z" fill="#fff" opacity=".6"/><path d="M131.388 85.068c-1.06.844-2.646.083-3.548-1.701-.897-1.786-.766-3.919.293-4.761 1.056-.85 2.646-.088 3.54 1.698.901 1.787.772 3.918-.285 4.764z" fill="#fff" opacity=".9"/><path d="M125.801 59.999c-10.493 0-19 11.193-19 25s8.507 25 19 25 19-15.513 19-29.319-8.507-20.681-19-20.681zm-1.585 32.266c-6.229 0-9.858-1.361-11.353-4.016-1.805-3.206 3.878-9.816 12.912-9.816 5.804 0 18.304 4.665 11.444 11.248-2.427 2.33-6.768 2.584-13.003 2.584z" fill="#f0c7b1"/><path d="M122.943 70.979c-9.393-.039-17.017 5.971-17.04 13.426-.025 7.458 7.573 13.53 16.962 13.573 9.391.037 18.113-5.972 18.038-13.428-.101-10.2-8.567-13.529-17.96-13.571zm14.278 18.787c-2.429 2.307-6.77 2.558-13.005 2.558-6.229 0-9.858-1.348-11.353-3.975-1.806-3.173 3.878-9.716 12.912-9.716 5.804 0 18.305 4.617 11.446 11.133z" fill="url(#g)"/><path d="M137.22 89.681c-2.428 2.331-6.769 2.584-13.004 2.584-6.229 0-9.858-1.361-11.353-4.016-1.805-3.206 3.878-9.816 12.912-9.816 5.804 0 18.304 4.665 11.445 11.248z" fill="url(#h)"/><path d="M110.413 82.843c-.345-.344 4.745-7.529 13.379-7.832 9.13-.319 16.789 6.017 16.789 6.017s-8.302-6.009-16.569-5.565c-9.612.517-13.327 7.651-13.599 7.38z" fill="#c27b55"/><path d="M111.533 85.845l-1.12.167c4.617-10.991 18.82-13.896 31.717-1.537l-.952.498c-1.175 1.674-2.451 3.462-4.917 5.817l2.711-4.484c.3-1.01-.108-1.37-.468-1.832-10.2-9.035-22.398-6.595-25.718 2.11l.335 2.293-1.588-3.032zm18.773 6.259c-5.738.318-8.968-.2-13.275-.76 3.728 1.354 9.616 1.619 13.275.76z" fill="#153a4d"/><path d="M141 113.974c.035 22.622-18.292 40.994-40.938 41.025-22.642.037-41.028-18.273-41.063-40.9-.035-22.62 18.292-41.064 40.937-41.1 22.643-.035 41.031 18.35 41.064 40.975z" fill="url(#i)"/><path d="M137.5 53.999c0 20.711-16.789 37.5-37.499 37.5-20.711 0-37.501-16.789-37.501-37.5s16.79-37.5 37.501-37.5c20.71 0 37.499 16.789 37.499 37.5z" fill="url(#j)"/><path d="M56.113 72.739c32.178-9.407 39.48 9.836 32.802 3.849-6.938-6.22-22.957-5.668-32.802-3.849zm87.776-.008c-9.304-1.701-22.773-2.38-30.946 2.53-1.01.606-5.017 4.041-3.951 1.625 1.937-4.4 14.752-10.004 34.897-4.155z" fill="#4e4341"/><path d="M101.1 120.646c-.471.511-.856.45-1.301-.08l-4.95-5.988H107l-5.9 6.068z" fill="#e1ac8f"/><path d="M93.461 115.507l6.435 5.235c.537.437.744.271.464-.367l-2.295-5.2a1.686 1.686 0 01-.078-.943l1.676-26.41-6.383 25.917a1.26 1.26 0 00.181 1.768z" fill="#c27b55"/><path d="M45.066 90.479c-1.663-4.941-4.339-12.356-8.735-15.286-2.688-14.785-7.848-34.075 7.836-52.385 3.342-3.917 7.695-7.354 12.827-8.128C69.672-4.083 84.836-12.747 119.576-1.432c52.479 15.34 43.691 53.39 41.853 76.293-2.476 2.597-4.824 9.932-6.139 14.359-1.17-25.195-10.647-60.91-38.688-60.91-14.208 0-17.067 5.674-37.26 3.394-37.291-2.878-30.359 41.538-34.276 58.775z" fill="#4e4341"/><path d="M102.566 19.442C88.011 22.011 80 16 83 5c-5.661 3.59-7.699 9.31-6.903 14.442C72.65 15.482 72.796 8.737 74.843 1c-8.02 8.578-9.465 16.139-7.549 23.801-5.012-5.458-8.708-12.687-3.697-18.978-2.321 2.513-4.498 5.343-6.603 8.459-.479.072-4.142 2.217-4.142 2.217 2.935 0 9.319 2.98 13.005 9.154-4.542-1.424-10.958.219-13.534 2.379-9.399 7.885-14.204 20.903-7.164 61.423 2.253-11.969 1.543-23.55 3.268-33.198 2.885-16.144 10.068-26.874 30.916-24.951 20.192 2.28 23.052-3.394 37.26-3.394 28.04 0 37.518 35.715 38.688 60.91 1.314-4.427 3.663-11.762 6.139-14.359.302-3.759.416-3.52.79-7.927-8.351-38.051-29.13-52.481-59.654-47.094z" fill="#2f211e"/><path d="M39.369 61.985c-3.731-41.197 18.025-41.045 21-38.75-4.147-.49-18.255-4.19-21 38.75zm47.25-52.5c1.66 4.085 4.553 6.995 10.868 7.394 0 0 1.125.776 17.403-2.094 2.292-.411 3.952-.545 4.729-.549-11.957-1.088-26.498 6.664-33-4.751zm63.772 17.107s-.389-.601-1.072-1.436c-9.444-11.944-25.151-12.229-24.199-11.171-.937-1.19 19.347 2.377 26.987 18.344 4.835 8.836 1.414 2.542 5.513 10.656-3.603-11.325-5.445-13.693-7.229-16.393zm-20.209-9.087s-1.276-.383-2.578-.662c-1.301-.277-2.615-.469-2.614-.469-3.583-.505-6.562-.275-8.37-.138 6.199.063 15.622 1.509 20.75 5.5-2.169-2.197-4.643-3.564-7.188-4.231zm-92.813 27.23c-1.341 9.794-1.69 21.234 3.25 29.75-3.289-8.111-3.363-20.993-3.25-29.75zm36.174-15.777c.823.173 1.125.078 1.125.078s-.278.029-1.063-.253c-6.856-2.076-9.987-15.147 1.013-27.297-13.182 10.291-9.689 26.328-1.075 27.472zm9.076-23.723C78.885 8.15 76.356 11.463 75.917 16c-.636 7.067 3.239 12.869 10.953 13.485-12.168-2.827-11.76-16.377-4.251-24.25zm26.801 5.125s-8.481.526-16.551-2.875c8.332 4.85 17.038 4.377 27 2.5-4.194.182-6.358.288-10.449.375z" fill="#3f312e"/><path d="M122.869 8.069c-10.39.727-12.784.221-17.333-2.333 5.777 2.53 7.943 1.873 17.333 2.333zm-36.502 8.445c-5.562-5.748-3.748-8.528-3.748-8.528s-2.659 7.062 6.636 11.581c5.177 2.818 14.232.009 16.864-.331-3.433-.012-14.556 2.451-19.752-2.722zm-26.998 8.721c-18.715.179-19.006 29.31-16.603 47.764.5-17.624.132-45.229 16.603-47.764zm101.368 37.131c-2.301-13.429-7.88-28.915-19.618-35.88 9.534 7.617 16.44 24.531 19.618 35.88zm-1.118-18.131c-.742-13.17-7.966-23.253-18.114-30.338 8.933 8.29 15.918 18.145 18.114 30.338zm-25.75-35.5c-11.854-6.716-22.503-11.642-36.5-7.5 12.801-2.116 23.475 1.819 36.5 7.5zm-51-10.75c-10.119.956-17.762 5.85-18.528 15.99C65.948 3.828 73.604-.092 82.869-2.015zM75.254 13.19C77.523 1.846 85.291-.489 94.426-2.125 84.84-1.67 75.651 1.79 75.254 13.19z" fill="#5d5857"/><path d="M119.669-2.115c-35.293-11.496-50.395-2.204-62.85 16.12-5.104.782-9.536 4.29-12.88 8.21-15.82 18.468-10.556 38.009-7.88 52.76 4.675 3.016 7.39 11.212 9.05 16.18 4.515-16.777-3.539-62.465 34.2-59.55 20.792 2.347 23.297-3.704 38.46-3.38 25.709-1.096 36.541 36.643 37.29 62.45 1.127-3.874 3.839-13.236 6.659-16.08 1.515-19.184 12.438-60.783-42.049-76.71zm41.07 77.11c-2.396 2.86-4.208 7.944-5.22 11.51.247-23.89-10.323-61.938-37.74-61.06-15.95-.254-17.956 5.64-38.19 3.59-18.563-1.35-28.966 9.705-32.23 26.71-1.966 9.824-.408 22.838-2.2 33.51-1.491-4.808-4.014-11.26-8.21-14.08-1.698-18.831-5.956-33.256 8.28-51.85 3.022-3.928 8.035-7.64 12.89-8.72C65.066 7.31 73.121-14.71 118.979.145c48.937 14.371 43.621 49.924 41.76 74.85z" fill="#201311"/><path d="M143.62 100.1c-2.36 2.2-6.23 3.04-13.56 3.04-9.78 0-16.18-1.09-20.41-9.51-3.29-6.54-4.62-13.56-3.02-15.98 2.21-3.34 8.57-5.61 15.67-6.28 12.33 5.86 20.99 17.61 21.32 28.73zM72.01 71.17c-7.64.21-15.09 2.35-18.27 7.05-2.18 3.21-1.69 12.55-.22 16.94 2 5.99 5.07 7.98 16.42 7.98 9.78 0 16.18-1.09 20.41-9.51.42-.84.81-1.69 1.17-2.54-3.23-8.14-10.36-15.66-19.51-19.92z" fill="#fff" opacity=".2"/><path d="M146.48 95.17c-.71 2.12-1.56 3.73-2.86 4.94-.33-11.12-8.99-22.87-21.33-28.74 9.37-.89 19.99.99 23.97 6.86 2.18 3.21 1.69 12.54.22 16.94zm-53.1-17.52c-2.79-4.23-12.22-6.73-21.37-6.47 9.16 4.25 16.28 11.77 19.52 19.92 2.41-5.74 3.24-11.34 1.85-13.45z" fill="#fff" opacity=".4"/><path d="M151.79 73.61c-10.18-5.46-36.14-7.01-45.5.15-.8.47-4.23-.53-6.29-.53-1.95 0-5.42 1.05-6.29.53-9.36-7.16-35.32-5.61-45.5-.15-1.46.79-1.62 4.51-.35 5.08.91.41 1.51.98 1.46 1.98-.32 5.62 1.23 12.92 1.91 14.93.87 2.59 2.44 7.41 9.29 8.6 5.83 1.01 16.43 1.48 21.94-.17 9.99-2.98 14.24-18.04 14.42-23.17l.01.02c.4-1.8 5.82-1.8 6.23 0l.01-.02c.17 5.13 4.43 20.19 14.42 23.17 5.51 1.65 16.11 1.18 21.94.17 6.85-1.19 8.42-6.01 9.29-8.6.68-2.02 2.23-9.31 1.92-14.93-.05-1 .56-1.57 1.46-1.98 1.25-.57 1.09-4.29-.37-5.08zm-70.38 27.75c-5.06 1.51-14.32 1.61-19.71.67-4.54-.79-6.44-3.26-7.7-7.03-1.48-4.4-1.87-13.51.16-16.5 6.76-9.98 33.87-8.05 38.8-.58 2.2 3.35-2.07 20.61-11.55 23.44zM146 95.01c-1.26 3.77-3.17 6.24-7.7 7.03-5.39.94-14.65.84-19.71-.67-9.48-2.83-13.75-20.09-11.55-23.44 4.93-7.47 32.04-9.4 38.8.58 2.03 2.98 1.64 12.1.16 16.5z" fill="#107aa8"/><path d="M118.58 101.32c2.79.83 6.86 1.24 10.85 1.27-12.54 1.22-15.39-3.4-17.12-5.16-3.52-3.59-5.69-8.95-5.85-16.65.03 6.08 4.3 18.21 12.12 20.54zm-24.89-27.6c-9.36-7.16-35.32-5.62-45.5-.15 23.24-6.52 36.74-3.15 45.5.15zM61.68 102c-4.54-.79-6.44-3.26-7.7-7.03-1.32-3.93-1.77-11.62-.4-15.35-1.83 4.22-1.12 12.39.26 16.5 1.6 4.8 4.54 7.18 17.34 6.46-3.47.07-6.93-.14-9.5-.58zm91.29-25.7c-.04-1.13-.45-2.32-1.2-2.73-9.98-5.36-35.14-6.94-44.93-.25 13.16-5.27 32.13-6.01 46.13 2.98z" fill="#248bb7"/></svg>