<svg xmlns="http://www.w3.org/2000/svg" width="500" height="500" viewBox="0 0 200 200" overflow="hidden"><defs><radialGradient id="e" cx="100" cy="114" r="41" gradientUnits="userSpaceOnUse" class="svga-on-canvas-facehighlight-gradient-single-0"><stop stop-opacity=".5" stop-color="#ffe2d6" offset="0"/><stop stop-opacity="0" stop-color="#ffd0bc" offset=".9"/></radialGradient><radialGradient id="f" cx="100" cy="54" r="37" gradientUnits="userSpaceOnUse" class="svga-on-canvas-facehighlight-gradient-single-1"><stop stop-opacity=".5" stop-color="#ffe2d6" offset="0"/><stop stop-opacity="0" stop-color="#ffd0bc" offset=".9"/></radialGradient><radialGradient id="a" cx="100" cy="100" r="150" gradientUnits="userSpaceOnUse" class="svga-on-canvas-backs-gradient-single-1"><stop stop-opacity="0" stop-color="#cdb380" offset="0"/><stop stop-color="#be9f63" offset=".2"/><stop stop-opacity="0" stop-color="#be9f63" offset="1"/></radialGradient><radialGradient id="c" cx="125.2" cy="85" r="13" gradientTransform="matrix(-1 0 0 1 200 0)" gradientUnits="userSpaceOnUse" class="svga-on-canvas-eyesback-gradient-left-0"><stop stop-color="#fff" offset="0"/><stop stop-color="#fdfefe" offset=".544"/><stop stop-color="#f6f8f9" offset=".74"/><stop stop-color="#eaeff2" offset=".879"/><stop stop-color="#d9e3e8" offset=".992"/><stop stop-color="#d8e2e7" offset="1"/></radialGradient><radialGradient id="d" cx="124.801" cy="85" r="13" gradientUnits="userSpaceOnUse" class="svga-on-canvas-eyesback-gradient-right-0"><stop stop-color="#fff" offset="0"/><stop stop-color="#fdfefe" offset=".544"/><stop stop-color="#f6f8f9" offset=".74"/><stop stop-color="#eaeff2" offset=".879"/><stop stop-color="#d9e3e8" offset=".992"/><stop stop-color="#d8e2e7" offset="1"/></radialGradient><linearGradient id="b" x1="100" y1="171" x2="100" y2="128" gradientUnits="userSpaceOnUse" class="svga-on-canvas-chinshadow-gradient-single-0"><stop stop-opacity=".8" stop-color="#f0b399" offset="0"/><stop stop-color="#d17f5b" offset=".7"/></linearGradient></defs><path d="M225 225H-25V-25h250v250z" fill="#cdb380"/><path d="M100 99.999l-10-150h20l-10 150zM72.382-47.775L53.01-42.802 100 99.999 72.382-47.775zM36.5-36.265L18.973-26.63 100 99.999 36.5-36.265zM4.607-16.192L-9.973-2.5 100 99.999 4.607-16.192zm-25.899 27.374l-10.717 16.887L100 99.999-21.292 11.182zm-18.277 32.954l-6.18 19.022L100 99.999-39.569 44.136zM-49.077 80.6l-1.256 19.961L100 99.999-49.077 80.6zm-.141 37.683l3.748 19.646L100 99.999l-149.218 18.284zm9.235 36.534l8.516 18.098L100 99.999l-139.983 54.818zm18.03 33.09l12.75 15.411L100 99.999l-121.953 87.908zM3.74 215.474l16.182 11.757L100 99.999 3.74 215.474zm31.741 20.311l18.597 7.363L100 99.999 35.481 235.785zm35.795 11.779l19.844 2.507L100 99.999 71.276 247.564zm37.601 2.507l19.844-2.507L100 99.999l8.877 150.072zm37.042-6.923l18.598-7.362L100 99.999l45.919 143.149zm34.157-15.917l16.183-11.756L100 99.999l80.076 127.232zm29.125-23.911l12.751-15.411L100 99.999 209.201 203.32zm22.264-30.403l8.519-18.098L100 99.999l131.465 72.918zm14.004-34.984l3.75-19.648L100 99.999l145.469 37.934zm4.863-37.369L249.078 80.6 100 99.999l150.332.565zm-4.583-37.403l-6.179-19.025L100 99.999l145.749-36.838zm-13.74-35.089l-10.716-16.891L100 99.999l132.009-71.927zm-22.035-30.57l-14.58-13.695L100 99.999 209.974-2.498zm-28.946-24.129l-17.527-9.639L100 99.999l81.028-126.626zM146.992-42.8l-19.374-4.978L100 99.999 146.992-42.8z" fill="url(#a)"/><path d="M100.5 100.5h-1v-1h1v1z" fill="#d6c4c4"/><path d="M195.417 199.778c-2.196-4.746-8.195-11.779-14.86-13.722-8.239-2.403-26.837-5.308-33.733-6.923-5.528-1.296-16.662-11.294-20.564-14.65-.7-.6-1.273-1.839-1.287-2.76-.139-10.864 4.195-39.724 4.195-39.724H70.833s4.334 28.859 4.193 39.724c-.011.921-.587 2.16-1.285 2.76-3.902 3.356-15.036 13.354-20.564 14.65-6.897 1.615-25.495 4.619-33.733 7.022-6.667 1.942-12.664 8.876-14.86 13.622-3.708 8.008-4.584 22.5-4.584 35h200c0-12.499-.877-26.991-4.583-34.999z" fill="#ffd0bc"/><path d="M159.156 184.058c24.342 3.542 34.586 8.708 37.794 50.721H200c0-12.5-.877-26.992-4.583-35-2.196-4.746-8.195-11.779-14.86-13.722-8.239-2.403-26.837-5.308-33.733-6.923-5.528-1.296-18.242-12.069-21.643-16.35 3.36 4.704 12.791 15.605 21.054 18.46 3.953 1.366 7.245 1.988 12.921 2.814zm-105.39-2.814c8.263-2.854 17.693-13.756 21.054-18.46-3.4 4.28-16.114 15.054-21.643 16.35-6.896 1.615-25.494 4.619-33.733 7.022-6.665 1.942-12.664 8.876-14.86 13.622-3.706 8.008-4.583 22.5-4.583 35h3.05c3.188-41.744 13.475-47.183 37.794-50.721 5.675-.825 8.968-1.447 12.921-2.813z" fill="#ffe2d6"/><path d="M95.646 197.62s-5.074-1.609-7.083-2.379c-10.449-4.009-44.395-6.607-44.395-6.607s35.754 1.419 43.644 2.779c-.458-4.767-3.017-20.004-3.017-20.004s5.149 16.815 6.409 21.057c.674 2.268 4.442 5.154 4.442 5.154zm10.799-1.342c-.089.073-.191.168-.302.268.113-.085.215-.174.302-.268zm-10.799 1.342s2.893 2.992 4.347 3.03c1.91.051 4.828-2.899 6.151-4.104-1.265.957-4.159 1.391-5.31 1.436-1.33.051-5.188-.362-5.188-.362zm21.018-7.519c-1.545.248-4.386.789-4.386.789l2.287-14.89c-.646 3.071-4.474 16.211-8.12 20.278 1.91-1.616 6.158-2.391 8.324-2.704 10.236-1.484 10.232-1.483 41.062-4.94 0 0-29.071-.155-39.167 1.467z" fill="#f0b399"/><path d="M195.417 199.778c-2.196-4.746-8.195-11.779-14.86-13.722-8.239-2.403-26.837-5.308-33.733-6.923-5.528-1.296-16.662-11.294-20.564-14.65-.7-.6-1.273-1.839-1.287-2.76-.139-10.864 4.195-39.724 4.195-39.724H70.833s4.334 28.859 4.193 39.724c-.011.921-.587 2.16-1.285 2.76-3.902 3.356-15.036 13.354-20.564 14.65-6.897 1.615-25.495 4.619-33.733 7.022-6.667 1.942-12.664 8.876-14.86 13.622-3.708 8.008-4.584 22.5-4.584 35h200c0-12.499-.877-26.991-4.583-34.999z" fill="none" stroke="#d17f5b" stroke-width="1.5"/><path d="M109.536 170.861c4.446-1.662 9.623-5.664 14.692-10.57.134-7.874 1.927-22.141 3.129-30.907-15.727-1.816-38.988-1.81-54.712.013 1.201 8.766 2.992 23.017 3.125 30.887 5.071 4.909 10.251 8.915 14.699 10.578 4.473 1.672 14.594 1.672 19.067-.001z" fill="url(#b)"/><path d="M83.208 235.787c-42.755 0-73.116-.341-83.557-.936-3.228-41.46 17.049-50.314 25.922-52.197 5.111-1.218 9.139-1.593 12.692-1.923 8.462-.786 15.16-1.409 30.099-12.227.523.666 1.8 2.359 4.153 5.55 6.948 9.244 17.385 14.505 28.689 14.505h.004c12.805-.002 24.814-6.654 33.019-18.271 15.056 9.254 18.229 9.549 25.801 10.25 2.497.231 5.604.52 9.799 1.21 11.838 1.591 20.825 8.087 26.003 18.786 4.405 9.103 6.021 21.193 4.56 34.087-11.646.646-63.764 1.166-117.175 1.166h-.009z" fill="#f3f1f4"/><path d="M170.909 182.255c-16.76-2.76-17.282-1.24-36.82-12.64-16.477 23.799-46.336 23.876-61.12 4.21-.313-.425-4.146-5.627-4.52-6-21.537 15.697-25.967 10.671-43.18 14.539-17.198 3.865-28.875 17.4-26.11 52.611.01.12.01.229.03.35 26.152 1.595 181.717.986 201.65-.229 1.429-24.934-.59-48.066-29.93-52.841zM-.331 234.966c-.458-22.065 2.924-46.19 26.26-50.9 17.291-3.49 21.274 1.1 42.39-15.7 1.11 1.66 2.4 3.72 3.84 5.98 13.218 20.3 44.471 23.502 62.05-4a92.345 92.345 0 006.47 4.59c23.186 15.306 60.738-4.709 59.65 59.89-65.409-1.202-134.356-1.18-200.66.14z" fill="#cfc8d7"/><path d="M107.44 237.709c-2.775 0-10.727.208-16.512-.23l-.01-.171c-.818-18.658 1.129-30.719 4.537-39.288l.048-.123-.093-.093c-.905-.904-2.425-1.935-4.034-3.025-1.611-1.093-3.275-2.221-4.336-3.246.625-.732 1.395-1.454 2.348-2.201.245-.125 1.162-.843 5.974-4.971l.362-.31c.818-.178 2.138-.293 3.738-.293 2.183 0 4.731.221 6.512.563 1.561 1.458 3.451 5.329 4.158 7.17-.976 2.291-2.128 3.129-3.717 4.284-.774.563-1.652 1.201-2.652 2.112l-.083.075.021.111c4.026 20.31 4.027 25.054 4.027 29.642.001 2.021.001 6.609.339 9.985-.15.007-.363.009-.627.009z" fill="#131111"/><path d="M110.35 191.495c-.754-1.995-2.71-5.93-4.28-7.359-2.876-.563-7.983-.843-10.47-.24-.108.088-6.248 5.383-6.31 5.26-.906.708-1.788 1.504-2.52 2.39 2.061 2.076 6.655 4.556 8.5 6.4-3.65 9.18-5.33 21.59-4.55 39.38.01.11.01.23.02.34 6.756.52 16.55.331 17.55.223-1.16-11.307 1.438-10.455-4.39-39.853 3.068-2.795 4.965-2.996 6.45-6.541zm-5.25 19.04c-.021-.05-.04-.1-.051-.13 2 10.55 1.38 18.632 2.891 26.972-4.736-.318-12.014-.052-16.771-.052.369-7.198 1.188-31.684 4.74-39.74.17-.046.339-.084.509-.125l-1.032 34.736 2.747-35.066.06-.008 1.801 32.605.417-32.734h.077l4.199 36.355-2.3-36.137c.314.063.629.141.942.233.03 0 .07.01.1.03.104 1.002.936 8.402 1.671 13.061zm-.881-13.809c-2.774-1.251-6.363-1.026-9.129.24-1.681-1.813-4.08-3.077-7.53-5.391a51.98 51.98 0 012.21-1.81c.08 0 3.48-2.771 3.54-2.83.92-.84 1.74-1.79 2.52-2.62 2.93-.12 7.23.02 9.82.14 1.5 1.876 2.931 4.696 4.01 6.94-1.961 2.871-3.901 4.15-5.441 5.331z"/><path d="M78.196 213.077c-11.534-40.071-9.954-27.403-13.027-43.143 2.028-4.813 7.587-12.618 8.67-13.775l.08-.086c2.292 24.007 8.958 13.636 23.784 27.722-8.475 5.654-16.331 20.332-19.507 29.282zm57.168-42.777c-1.448-3.702-8.248-11.669-9.386-12.873 1.424 20.678-15.146 16.551-24.35 26.2 8.812 5.713 17.173 20.66 20.172 29.455 12.853-36.679 10.221-21.867 13.564-42.782z" fill="#f3f1f4"/><path d="M125.801 156.967c0 5.137-.42 9.162-1.262 10.339-2.443 5.809-13.103 9.853-16.39 11.51-2.495 1.227-4.942 2.809-6.83 4.85 3.813 2.476 5.705 3.383 12.93 14.44 4.246 7.109 6.539 12.448 7.561 15.64 12.922-35.152 10.657-23.062 13.793-43.507-1.585-4.086-8.802-12.354-9.802-13.272zm-4.092 53.709c-2.716-8.644-11.075-22.913-19.43-27.091 3.937-2.957 5.031-3.131 9.729-5.279 14.396-6.42 14.985-12.385 14.138-20.271 1.207 1.423 7.328 8.664 8.896 12.023-4.008 23.058-8.097 22.241-13.333 40.618zm-42.51-38.78c-4.408-3.649-3.16-8.162-5.189-16.215-.902 1-7.741 8.882-10.016 14.305 7.125 24.375 7.375 22.5 14.185 43.75 3.031-8.905 11.558-24.37 20.24-30.009-6.93-6.326-15.654-8.728-19.22-11.831zm5.46 25.509c-2.221 3.666-4.517 7.48-6.37 13.28-1.17-7.95-11.17-32.296-12.92-40.95 1.638-3.588 7.771-12.451 8.521-13.165 1.366 7.078.066 13.462 5.669 16.995 2.621 1.996 11.104 5.32 17.52 10.36-3.891 2.31-5.985 3.671-12.42 13.48z" fill="#cfc8d7"/><path d="M49.857 234.908c-8.87 0-16.864-.137-23.156-.396-.07-.556-.155-1.27-.257-2.121-1.053-8.829-3.834-32.147-9.695-47.528 9.497-3.835 25.02-6.691 36.643-8.118 7.833 16.249 26.729 42.336 39.987 57.234-14.945.607-29.971.929-43.519.929h-.003zm100.286 0c8.87 0 16.863-.137 23.156-.396.07-.556.154-1.27.256-2.121 1.054-8.829 3.835-32.147 9.695-47.528-9.497-3.835-25.02-6.691-36.643-8.118-7.833 16.249-26.729 42.336-39.987 57.234 14.945.607 29.971.929 43.519.929h.004z" fill="#864025"/><path d="M32.153 211.959l-10.48-12.96 2.43-16.078 9.723 12.804-1.673 16.234zm15.231-19.39l-11.591-12.686-1.968 15.841 11.61 12.397 1.949-15.552zm11.433-4.421l-11.708-10.331.275 14.752 12.322 11.557-.889-15.978zM42.32 223.673l-10.167-11.714-5.018 15.35 11.118 12.987 4.067-16.623zm15.787-3.831l-12.671-11.72-3.116 15.551 14.234 11.113 1.553-14.944zm15.272-6.309l-13.673-9.407-1.599 15.716 14.288 11.107.984-17.416zm92.795-17.808l9.724-12.804 2.43 16.078-10.48 12.96-1.674-16.234zm-11.61 12.397l11.609-12.397-1.967-15.841-11.592 12.686 1.95 15.552zm-14.27-3.996l12.321-11.557.275-14.752-11.708 10.331-.888 15.978zm21.452 36.17l11.119-12.987-5.019-15.35-10.167 11.714 4.067 16.623zm-18.301-5.51l14.234-11.113-3.115-15.551-12.672 11.72 1.553 14.944zm-15.84-3.837l14.287-11.107-1.599-15.716-13.673 9.407.985 17.416z" fill="#955238"/><path d="M53.689 176.205c-10.802 1.308-27.48 4.184-37.58 8.38 0 .011.01.021.01.03 6.68 17.19 9.418 44.907 10.14 50.38 13.662.58 38.444.678 68.2-.56-12.807-14.219-32.776-41.463-40.77-58.23zm-26.76 58.061c0-8.767-2.644-33.854-9.81-49.33 14.354-4.252 24.106-5.545 36.1-7.931 8.677 20.651 22.083 40.424 38.45 56.45-20.815-.489-43.934-.227-64.74.811zm78.612.17c29.756 1.237 54.538 1.14 68.199.56.723-5.473 3.461-33.189 10.141-50.38 0-.01.01-.02.01-.03-10.1-4.196-26.777-7.072-37.58-8.38-7.994 16.766-27.963 44.01-40.77 58.23zm2.79-.981c16.367-16.026 29.772-35.799 38.45-56.45 11.993 2.386 21.746 3.679 36.1 7.931-7.166 15.477-9.811 40.563-9.811 49.33-20.804-1.038-43.924-1.3-64.739-.811z" fill="#581900"/><path d="M47.69 83.08c-1.588-2.376-8.025-7.833-11.703-6.994-4.355.993-5.708 4.372-5.603 6.475.606 12.025 4.426 12.016 6.71 16.64 1.709 3.459 3.126 5.044 4.172 11.958.598 3.953 4.427 6.984 7.217 6.835 3.908-.21 6.994-3.716 8.291-7.173 2.689-7.178-4.951-21.556-9.084-27.741z" fill="#ffd0bc" stroke="#d17f5b" stroke-width="1.5"/><path d="M43.274 100.336c-.15-.554-.062-1.507.024-2.43.077-.84 1.438-3.888 1.348-4.44-.344-2.068-1.931-5.94-2.949-8.031-1.169-2.403-3.604-5.409-5.79-6.078-.904-.278-3.479.04-3.781.639-1.131 2.241-.615 4.411 1.1 10.21.85 2.873 3.915 6.207 3.998 6.54 1.067 4.343 5.099 11.284 6.488 12.839.256.288.519.452.579.376.059-.077-.104-.368-.361-.656-1.372-1.547-5.367-8.471-6.396-12.662-1.092-4.446 2.313-11.346 2.93-12.8.379.642.703 1.261.954 1.777.198.406.417.881.645 1.396-.367.76-4.245 6.367-3.026 10.606.451 1.563 2.054 4.592 3.432 6.187.483.559.893.717 1.19 1.234.341.599.732 1.279 1.792 1.726.215.091.408.121.577.111a1 1 0 00.667-.326c.029.271.044.617.051.94.007.413.073.752.162.755s.168-.333.161-.746c-.009-.509-.04-1.14-.132-1.437-.273-.873-1.028-1.832-1.829-2.844-.789-.996-1.603-2.029-1.834-2.886zm-6.314-5.697c-2.347-6.779-1.518-13.668-1.103-14.643 1.345 0 3.778 2.495 4.397 3.498-.38.857-3.417 6.496-3.294 11.145zm8.599 11.775c-.961-.403-1.303-1.001-1.635-1.58-.299-.524-1.018-1.022-1.346-1.378-.191-.209-.531-.767-.715-.892-1.762-7.606 1.345-10.382 1.967-10.964.231.729.411 1.399.5 1.939.082.496-1.28 3.552-1.352 4.327-.089.961-.182 1.954-.012 2.583.253.938 1.093 2 1.904 3.028.72.912 1.459 1.852 1.732 2.639-.093.166-.398.57-1.043.298z" fill="#d17f5b"/><path d="M152.049 83.08c1.588-2.376 8.025-7.833 11.701-6.994 4.357.993 5.709 4.372 5.604 6.475-.605 12.025-4.426 12.016-6.709 16.64-1.711 3.459-3.127 5.044-4.174 11.958-.598 3.953-4.428 6.984-7.217 6.835-3.908-.21-6.994-3.716-8.291-7.173-2.688-7.178 4.953-21.556 9.086-27.741z" fill="#ffd0bc" stroke="#d17f5b" stroke-width="1.5"/><path d="M154.633 103.222c-.801 1.013-1.557 1.972-1.83 2.844-.092.297-.123.928-.131 1.437-.008.413.072.749.16.746.09-.003.154-.342.162-.755.008-.323.021-.67.051-.94a.99.99 0 00.666.326 1.3 1.3 0 00.578-.111c1.061-.446 1.449-1.126 1.791-1.726.297-.517.709-.675 1.191-1.234 1.377-1.594 2.98-4.624 3.432-6.187 1.219-4.239-2.66-9.846-3.027-10.606.229-.515.447-.989.645-1.396.252-.516.576-1.136.955-1.777.617 1.454 4.021 8.354 2.93 12.8-1.029 4.191-5.025 11.115-6.396 12.662-.256.288-.42.579-.361.656.061.076.322-.088.578-.376 1.391-1.556 5.422-8.496 6.49-12.839.082-.333 3.146-3.667 3.996-6.54 1.715-5.799 2.232-7.969 1.102-10.21-.303-.599-2.877-.917-3.783-.639-2.186.669-4.619 3.675-5.789 6.078-1.018 2.09-2.605 5.963-2.949 8.031-.09.552 1.271 3.6 1.348 4.44.086.922.176 1.875.025 2.43-.235.857-1.047 1.89-1.834 2.886zm4.851-19.728c.619-1.003 3.053-3.498 4.396-3.498.416.975 1.244 7.864-1.104 14.643.126-4.649-2.913-10.288-3.292-11.145zm-6.347 22.622c.273-.788 1.012-1.728 1.732-2.639.811-1.028 1.65-2.09 1.904-3.028.168-.629.076-1.623-.014-2.583-.07-.775-1.434-3.831-1.352-4.327.09-.54.27-1.21.5-1.939.623.582 3.729 3.358 1.967 10.964-.184.125-.523.683-.715.892-.328.356-1.047.854-1.346 1.378-.332.579-.674 1.177-1.635 1.58-.645.272-.948-.132-1.041-.298z" fill="#d17f5b"/><path d="M144.004 126.306c-6.87 10.846-23.072 30.329-34.468 34.563-4.474 1.663-14.594 1.663-19.067 0-11.396-4.235-27.596-23.719-34.467-34.563-6.753-10.657-14.852-48.287-14.863-48.341a61.586 61.586 0 01-2.004-15.538C39.082 28.614 66.289 1.169 99.907 1.116c33.621-.053 60.913 27.306 60.963 61.119a61.642 61.642 0 01-1.952 15.544c-.017.053-8.138 37.827-14.914 48.527z" fill="#ffd0bc"/><path d="M110.152 1.978c26.994 6.303 47.097 30.644 47.052 59.708a61.624 61.624 0 01-2.004 15.537c-.012.054-7.377 37.684-14.13 48.341-6.872 10.844-22.339 29.588-33.734 33.823-1.476.549-5.027 1.103-7.334 1.103-2.307 0-5.857-.554-7.333-1.103-11.396-4.235-26.863-22.979-33.734-33.823-6.753-10.657-14.119-48.287-14.13-48.341a61.578 61.578 0 01-2.004-15.537C42.756 32.622 62.857 8.281 89.853 1.978 61.03 6.845 39.087 32.061 39.134 62.427a61.598 61.598 0 002.004 15.538c.012.054 8.11 37.684 14.863 48.341 6.871 10.845 23.072 30.328 34.467 34.563 2.239.833 5.889 1.247 9.537 1.244 3.646.001 7.292-.411 9.53-1.244 11.396-4.235 27.596-23.719 34.468-34.563 6.753-10.657 14.852-48.287 14.862-48.341a61.586 61.586 0 002.004-15.538c.049-30.366-21.894-55.582-50.717-60.449z" fill="#f7c1aa"/><path d="M144.004 126.306c-6.87 10.846-23.072 30.329-34.468 34.563-4.474 1.663-14.594 1.663-19.067 0-11.396-4.235-27.596-23.719-34.467-34.563-6.753-10.657-14.852-48.287-14.863-48.341a61.586 61.586 0 01-2.004-15.538C39.082 28.614 66.289 1.169 99.907 1.116c33.621-.053 60.913 27.306 60.963 61.119a61.642 61.642 0 01-1.952 15.544c-.017.053-8.138 37.827-14.914 48.527z" fill="none" stroke="#d17f5b" stroke-width="1.5"/><path d="M100.34 141.925c-1.526 0-2.998-.193-3.9-.547a.5.5 0 01.365-.931c1.664.653 5.855.676 7.704-.193a.5.5 0 01.426.904c-1.12.526-2.891.767-4.595.767zm14.685-8.481a.786.786 0 00-.618-1.444c-11.666 4.992-28.742.338-28.912.292a.786.786 0 10-.422 1.514c.463.128 7.692 2.1 16.034 2.1 4.62-.001 9.578-.605 13.918-2.462z" fill="#d17f5b"/><path d="M74.8 71.999c7.18 0 13 5.82 13 13s-5.82 13-13 13-13-5.82-13-13 5.82-13 13-13z" fill="url(#c)"/><path d="M81 85a6 6 0 11-12-.002A6 6 0 0181 85z" fill="#7085b3"/><path d="M71.512 87.805c.875-.072.1-.306.1-.306-.433-.233-1.248-.592-1.248-.921 0-1.031 1.414-1.299-.034-1.705-1.504-1.38 1.167-1.352 1.147-1.398-.975-2.376.299-1.071.835-1.773 1.988-2.599.554.267 1.633 0 .391-.096-.78-1.531.034-1.33.539.132.662.58.662.58.393-.077 1.008-.682 1.008-.682.749.226 1.275 1.29 1.043 1.091.368-.045.884-.221 1.286-.341 0 0 .07-.239.139-.033.917 2.661 3.284 2.47.559 3.24 0 0-.176 0 .382.442 2.71 2.164-2.102 1.495.451 2.49.104-.104-1.53.965-1.53 1.261 0 .501-1.042 1.818-1.946 1.3-.504-.288-.581.6-.877.19-.581-.803-1.742-.035-1.313-.773.634-.521-.654.204-.904.204-.828 0 1.083-2.783 3.894-.715.822.602-.864-1.433.625-1.433.149.049.104-.521.104-.682-.774-.151 1.39-.003 1.39-1.262.137.027.509-.35-1.635 0 0 0-.068-.75-.034-.886.11-.438 1.214-.298.904-.75l-.799-1.604c-2.573-.414-1.102-.672-2.711-.341-.076.378-3.445 1.984-3.338 2.729.1.702 2.115.938.208 2.182 2.858 5.472-2.11-.125-.035 1.226z" fill="#8d9ec2"/><path d="M75 79.749l.171 4.393 1.837-3.993-1.523 4.123 3.227-2.985-2.985 3.226 4.124-1.523-3.992 1.839 4.392.17-4.392.17 3.992 1.839-4.124-1.523 2.985 3.226-3.227-2.985 1.523 4.123-1.837-3.993L75 90.249l-.171-4.393-1.838 3.993 1.522-4.123-3.226 2.985 2.985-3.226-4.124 1.523 3.992-1.839-4.39-.17 4.39-.17-3.992-1.839 4.124 1.523-2.985-3.226 3.226 2.985-1.522-4.123 1.838 3.993.171-4.393z" fill="#3f5a94"/><path d="M75.796 81.067l-.539 3.315 1.981-2.711-1.766 2.857 2.87-1.748-2.725 1.964 3.319-.515-3.268.771 3.266.794-3.317-.538 2.712 1.982-2.858-1.765 1.748 2.869-1.964-2.725.516 3.319-.771-3.27-.795 3.264.539-3.315-1.984 2.711 1.768-2.857-2.869 1.748 2.725-1.964-3.319.516 3.269-.771-3.264-.793 3.315.537-2.712-1.982 2.858 1.765-1.747-2.869 1.964 2.725-.516-3.318.772 3.27.792-3.266z" fill="#2b4785"/><path d="M77.25 85a2.25 2.25 0 11-4.5 0 2.25 2.25 0 014.5 0z" opacity=".9"/><path d="M72.637 89.311c-.331.332-.985.215-1.46-.261-.476-.475-.593-1.129-.261-1.461.331-.331.985-.214 1.46.261.476.476.593 1.129.261 1.461z" fill="#fff" opacity=".7"/><path d="M79.806 83.818c-.496.496-1.697.1-2.682-.886-.986-.986-1.382-2.187-.886-2.683.496-.496 1.697-.1 2.682.886.986.987 1.382 2.187.886 2.683z" fill="#fff" opacity=".9"/><path d="M56.198 84.999c0 13.807 8.507 25 19 25s19-11.193 19-25-8.507-25-19-25-19 11.193-19 25zm5.602 0c0-7.18 5.82-13 13-13s13 5.82 13 13-5.82 13-13 13-13-5.82-13-13z" fill="#ffd0bc"/><path d="M61.8 84.999c0 7.18 5.82 13 13 13s13-5.82 13-13-5.82-13-13-13-13 5.82-13 13zm1 0c0-6.627 5.373-12 12-12s12 5.373 12 12c0 6.628-5.373 12-12 12s-12-5.372-12-12z" fill="#782c76"/><path d="M137.801 84.999c0 7.18-5.82 13-13 13s-13-5.82-13-13 5.82-13 13-13 13 5.82 13 13z" fill="url(#d)"/><path d="M131 84.999c0 3.316-2.684 6-6 6s-6-2.684-6-6 2.684-6 6-6 6 2.684 6 6z" fill="#7085b3"/><path d="M121.508 87.806c.879-.076.105-.305.105-.305-.434-.234-1.254-.592-1.254-.926 0-1.031 1.418-1.295-.023-1.705-1.512-1.377 1.16-1.348 1.137-1.395-.973-2.379.305-1.072.844-1.775 1.98-2.596.551.27 1.629 0 .387-.094-.785-1.529.035-1.33.539.135.656.58.656.58.398-.076 1.008-.68 1.008-.68.75.223 1.277 1.289 1.043 1.09.375-.047.891-.223 1.289-.34 0 0 .07-.24.141-.035.914 2.66 3.281 2.473.563 3.24 0 0-.176 0 .375.439 2.707 2.168-2.098 1.494.457 2.49.105-.1-1.535.967-1.535 1.266 0 .498-1.043 1.816-1.945 1.295-.504-.287-.586.604-.879.193-.574-.803-1.746-.035-1.313-.773.633-.521-.656.205-.902.205-.832 0 1.078-2.783 3.891-.715.82.598-.867-1.436.633-1.436.141.047.105-.521.105-.68-.785-.152 1.383-.006 1.383-1.266.141.029.516-.346-1.629 0 0 0-.07-.75-.035-.885.105-.439 1.207-.299.902-.75l-.797-1.605c-2.578-.41-1.102-.668-2.719-.34-.07.381-3.445 1.986-3.34 2.73.105.703 2.121.938.211 2.18 2.858 5.481-2.11-.121-.036 1.233z" fill="#8d9ec2"/><path d="M125 79.749l.176 4.395 1.828-3.996-1.523 4.125 3.234-2.988-2.988 3.229 4.125-1.523-3.996 1.84 4.395.17-4.395.17 3.996 1.84-4.125-1.523 2.988 3.229-3.234-2.988 1.523 4.125-1.828-3.996-.176 4.391-.176-4.395-1.84 3.996 1.523-4.125-3.223 2.988 2.988-3.229-4.125 1.523 3.996-1.84-4.395-.17 4.395-.17-3.996-1.84 4.125 1.523-2.988-3.229 3.223 2.988-1.523-4.125 1.84 3.996.176-4.391z" fill="#3f5a94"/><path d="M125.797 81.067l-.539 3.316 1.98-2.713-1.77 2.859 2.871-1.752-2.719 1.969 3.316-.516-3.27.768 3.27.797-3.316-.539 2.707 1.98-2.859-1.764 1.746 2.871-1.957-2.725.516 3.316-.773-3.267-.797 3.264.539-3.316-1.98 2.713 1.77-2.859-2.871 1.752 2.719-1.969-3.316.516 3.27-.768-3.27-.797 3.316.539-2.707-1.98 2.859 1.764-1.746-2.871 1.957 2.725-.516-3.316.773 3.27.797-3.267z" fill="#2b4785"/><path d="M127.25 84.999a2.25 2.25 0 11-4.502-.002 2.25 2.25 0 014.502.002z" opacity=".9"/><path d="M122.633 89.312c-.328.328-.984.217-1.453-.264-.48-.475-.598-1.125-.258-1.459.328-.328.984-.211 1.453.264.48.474.598 1.125.258 1.459z" fill="#fff" opacity=".7"/><path d="M129.805 83.815c-.492.498-1.699.105-2.684-.885-.984-.984-1.383-2.186-.879-2.678.492-.498 1.688-.105 2.672.885.996.985 1.383 2.186.891 2.678z" fill="#fff" opacity=".9"/><path d="M124.402 59.999c-10.493 0-19 11.193-19 25s8.507 25 19 25 19-11.193 19-25-8.506-25-19-25zM124.801 98c-7.18 0-13-5.82-13-13s5.82-13 13-13 13 5.82 13 13c0 7.179-5.821 13-13 13z" fill="#ffd0bc"/><path d="M124.801 71.999c-7.18 0-13 5.82-13 13s5.82 13 13 13 13-5.82 13-13-5.821-13-13-13zm0 25c-6.627 0-12-5.372-12-12 0-6.627 5.373-12 12-12s12 5.373 12 12c0 6.628-5.373 12-12 12z" fill="#782c76"/><path d="M141 113.974c.035 22.622-18.292 40.994-40.938 41.025-22.642.037-41.028-18.273-41.063-40.9-.035-22.62 18.292-41.064 40.937-41.1 22.643-.035 41.031 18.35 41.064 40.975z" fill="url(#e)"/><path d="M137.5 53.999c0 20.711-16.789 37.5-37.499 37.5-20.711 0-37.501-16.789-37.501-37.5s16.79-37.5 37.501-37.5c20.71 0 37.499 16.789 37.499 37.5z" fill="url(#f)"/><path d="M93.7 78.245c-9.176-3.435-12.813-6.732-20.729-9.713-6.51-2.452-13.342-2.906-20.071-1.49 8.225.87 11.916.9 20.316 4.263 6.808 2.725 13.154 6.568 20.484 6.94zm12.8.3c9.176-3.62 13.013-7.447 20.929-10.589 6.51-2.584 13.342-3.063 20.071-1.57-8.225.917-11.916.948-20.316 4.493-6.808 2.872-13.354 7.274-20.684 7.666z" fill="#d6c4c4"/><path d="M94.796 89.999s.662 2.241.681 2.916c.032 1.147-.103 2.045-.191 2.927-.58 5.758-3.586 14.09-3.425 18.067.07 1.712 1.128 4.21 1.128 4.21s-2.542-.701-3.101-5.553c-.23-2.002 1.721-5.877 2.403-7.755.647-1.785 1.91-7.571 2.353-9.437.187-.781.521-1.724.516-2.533-.004-.72-.364-2.842-.364-2.842zm-.29 28.603s.301 2.663 3.245 3.315c2.763.612 4.313-2.404 4.313-2.404s-2.296 1.547-4.06.991c-.93-.291-3.498-1.902-3.498-1.902zm10.592-5.735c-.02.639-.199 2.485-.199 2.485s.906-1.484.964-2.07c.104-1.052-1.065-4.084-1.065-4.084s.327 2.742.3 3.669z" fill="#f0b399"/><path d="M92.478 108.461c-1.227 4.164-2.094 8.571 1.484 10.533.468.257.969.446 1.479.554.277.058.48.31.723.474.558.384 1.478.438 2.117.555 2.458.455 4.941-.609 5.549-3.155-1.53 2.193-2.884 2.799-4.966 2.624-2.498-.211-4.583-2.446-5.237-5.069a14.958 14.958 0 01-.425-4.754c.108-1.396.488-2.781.708-4.164.413-2.495 1.411-7.713 1.404-10.318-.399 1.816-1.121 6.099-1.395 7.145-.204.778-.637 2.358-.813 3.146a49.07 49.07 0 01-.628 2.429zm-.284 6.943c-.163-1.227.045-2.518.295-3.708.088 2.364.71 5.117 2.126 6.864-1.223-.522-2.213-1.604-2.421-3.156-.146-1.097.252 1.886 0 0z" fill="#d17f5b"/><path d="M95.565 113.18c.158.764.032 1.453-.282 1.542-.313.088-.636-.376-.793-1.14-.158-.763-.09-1.535.222-1.623.314-.089.695.458.853 1.221z" fill="#ffe2d6"/><path d="M142.99 18.11c9.29 3.25 23.25 29 19.24 55.05-1.43 9.27-.15 4.2-6.29 19.67l-6.49.3c-1.51-4.33 5.35-18.12 2.83-29.88-2.32-10.83.88-28.7-9.29-45.14zm-85.98 0c-9.29 3.25-23.25 29-19.24 55.05 1.43 9.27.15 4.2 6.29 19.67l6.49.3C52.06 88.8 45.2 75 47.72 63.24c2.32-10.82-.88-28.69 9.29-45.13z" fill="#d6c4c4"/><path d="M156.74 35.09c-3.37-4.72-6.83-9.29-11.32-12.53-.71-1.49-1.51-2.98-2.42-4.45 4.32 1.52 9.67 7.93 13.74 16.98zm4.72 28.73c0 .01.01.02.01.03.09.11.1.13-.01-.03zm-6.54-.55c-1.54-4.02-1.21-5.99-1.78-10.23 6.16 6.88 8.25 10.84 9.19 12.14-1.62-4.79-6.37-10.62-9.3-12.72-.62-7.45-1.57-10.44-2.94-14.98 1.11.84 7.88 8.07 11.16 14-2.4-8.41-10.33-13.93-11.33-14.29l-.05.11c1.63 9.99 1 19.29 2.42 25.93 2.52 11.76-4.34 25.56-2.83 29.88.44-.86 4.33-13.8 4.58-17.12.2-2.67 1.56-7.46 1.01-11.92 2.02 2.52 4.07 6.34 6.71 10.92-1.44-5.02-4.16-9.44-6.84-11.72zM57.01 18.11c-.91 1.47-1.71 2.96-2.42 4.45-4.5 3.24-7.95 7.8-11.32 12.53 4.06-9.05 9.41-15.46 13.74-16.98zM38.53 63.85c0-.01.01-.02.01-.03-.11.16-.1.14-.01.03zM38.26 75c2.63-4.58 4.68-8.41 6.71-10.92-.54 4.46.81 9.25 1.01 11.92.25 3.33 4.14 16.26 4.58 17.12 1.5-4.32-5.36-18.12-2.84-29.88 1.42-6.64.79-15.94 2.42-25.93l-.05-.11c-1 .35-8.93 5.87-11.33 14.29 3.27-5.93 10.05-13.16 11.16-14-1.37 4.54-2.32 7.54-2.94 14.98-2.93 2.1-7.68 7.93-9.3 12.72.94-1.3 3.04-5.26 9.19-12.14-.57 4.24-.24 6.21-1.78 10.23-2.69 2.27-5.41 6.69-6.83 11.72z" fill="#c7a2a2"/><path d="M155.94 92.83c2.53-7.48 4.06-9.89 4.99-17.47 2.24-20.53-1.92-31.89-1.92-31.89-2.25-7.64-8.02-22.11-16.02-25.2 9.45 3.14 22.48 23.89 19.5 54.51-.68 8.58-3.92 13.4-6.55 20.05zm-111.88 0c-2.53-7.48-4.06-9.89-4.99-17.47-2.24-20.53 1.92-31.89 1.92-31.89 2.25-7.64 8.02-22.11 16.02-25.2-9.45 3.14-22.48 23.89-19.5 54.51.68 8.58 3.92 13.4 6.55 20.05z" fill="#a86868"/><path d="M77.4 5c-.22-.54.04-1.16.58-1.39C84.81.75 91.03-.59 100-.6c8.18-.01 14.61 1.55 23 4.65.57.21.84.87.57 1.42-4.1 8.37-12.76 14.57-23.03 14.57-10.32 0-19.43-5.85-23.14-15.04z" fill="#ded6d6"/><path d="M126.39 107.87c-15.66 0-21.19-17.14-21.19-21.52 0-8.59 6.99-15.59 15.59-15.59h18.09c6.52 0 11.83 5.3 11.83 11.82-.01 14.42-10.46 25.29-24.32 25.29zm-52.78 0c15.66 0 21.19-17.14 21.19-21.52 0-8.59-6.99-15.59-15.59-15.59h-18.1c-6.52 0-11.82 5.3-11.82 11.82.01 14.42 10.46 25.29 24.32 25.29z" fill="#107aa8" opacity=".7"/><path d="M150.31 87.31c-12.66-3.75-27.83-6.14-43.59-7.63 2.51-5.26 7.86-8.91 14.06-8.91h18.09c6.52 0 11.83 5.3 11.83 11.82 0 1.62-.14 3.2-.39 4.72zm-57.6-8.73c-2.7-4.66-7.73-7.81-13.49-7.81h-18.1c-4.66 0-8.69 2.72-10.62 6.65 13.09-.02 27.65.25 42.21 1.16z" fill="#5b1d0d" opacity=".1"/><path d="M138.88 70.29h-18.09c-5.72 0-10.74 2.99-13.58 7.49-3.76 1.11-10.53 1.14-14.39 0-2.85-4.5-7.87-7.49-13.58-7.49h-18.1c-6.79 0-12.3 5.51-12.3 12.3 0 14.25 9.98 25.39 24.23 25.75 15.9.41 22.23-16.43 22.23-21.99 0-1.27-.15-2.5-.43-3.69 1.73-1.13 8.53-1.15 10.29 0-.28 1.18-.43 2.42-.43 3.69 0 5.55 6.33 22.4 22.24 21.99 14.24-.36 24.23-11.5 24.23-25.75-.02-6.79-5.53-12.3-12.32-12.3zM73.61 107.4c-13.39 0-23.84-10.28-23.84-24.8 0-6.26 5.09-11.35 11.35-11.35h18.1c8.33 0 15.11 6.78 15.11 15.11 0 4.28-5.41 21.04-20.72 21.04zm52.78 0c-15.31 0-20.72-16.76-20.72-21.04 0-8.33 6.78-15.11 15.11-15.11h18.09c6.26 0 11.35 5.09 11.35 11.35 0 14.52-10.44 24.8-23.83 24.8z" fill="#1a1a1a"/><path d="M104.36 79.25c1.67-6.81 10.16-10.06 20.78-11.12 12.62-1.26 21.46-.12 29.13 4.46.45.27.73.76.73 1.28v3.87c0 .51-.21.99-.58 1.34l-3.6 3.4c.05-2.41-1.05-5.04-3.94-7.36-2.64-2.11-11-2.97-20.31-2.8-9.91.19-15.12 1.75-20.32 6.6l-1.89.33zm-8.72 0c-1.67-6.81-10.16-10.06-20.78-11.12-12.62-1.26-21.45-.13-29.13 4.46-.45.27-.73.76-.73 1.28v3.87c0 .51.21.99.58 1.34l3.6 3.4c-.05-2.41 1.05-5.04 3.94-7.36 2.64-2.11 11-2.97 20.31-2.8 9.91.19 15.12 1.75 20.32 6.6l1.89.33z"/><path d="M154.04 77.3c-.14-3.26-.6-3.52-1.98-4.41 0 0-1.23-.83-2.92-1.57-2.31-1.03-3.17-1.34-4.92-1.91 2.67.52 9.19 2.52 9.76 5.16.21.86.14 1.84.06 2.73zm-28.09-8.63c-7.38.84-15.72 2.28-19.97 8.35 4.45-5.33 11.39-6.57 19.97-8.35zm-78.02 4.21c1.24-.83 2.92-1.57 2.92-1.57 2.95-1.32 4-1.61 4.92-1.91-1.68.32-3.38.74-5.1 1.51-4.97 2.2-4.98 3.34-4.71 6.38.14-3.45.74-3.6 1.97-4.41zm26.12-4.21c9.17 1.91 12.03 2.63 16.29 5.07 2.3 1.55 2.69 2.1 3.68 3.29-4.25-6.09-12.54-7.52-19.97-8.36z" fill="#4d4d4d"/></svg>