<svg xmlns="http://www.w3.org/2000/svg" width="500" height="500" viewBox="0 0 200 200" overflow="hidden"><defs><radialGradient id="j" cx="100" cy="114" r="41" gradientUnits="userSpaceOnUse" class="svga-on-canvas-facehighlight-gradient-single-0"><stop stop-opacity=".5" stop-color="#fdc5a5" offset="0"/><stop stop-opacity="0" stop-color="#eeaa83" offset=".9"/></radialGradient><radialGradient id="k" cx="100" cy="54" r="37" gradientUnits="userSpaceOnUse" class="svga-on-canvas-facehighlight-gradient-single-1"><stop stop-opacity=".5" stop-color="#fdc5a5" offset="0"/><stop stop-opacity="0" stop-color="#eeaa83" offset=".9"/></radialGradient><radialGradient id="a" cx="100" cy="100" r="150" gradientUnits="userSpaceOnUse" class="svga-on-canvas-backs-gradient-single-1"><stop stop-opacity="0" stop-color="#ece5ce" offset="0"/><stop stop-color="#ddd1ab" offset=".2"/><stop stop-opacity="0" stop-color="#ddd1ab" offset="1"/></radialGradient><radialGradient id="d" cx="126.289" cy="84.919" r="10.712" gradientTransform="matrix(-1 0 0 1 200 0)" gradientUnits="userSpaceOnUse" class="svga-on-canvas-eyesback-gradient-left-0"><stop stop-color="#fff" offset="0"/><stop stop-color="#fdfefe" offset=".544"/><stop stop-color="#f6f8f9" offset=".74"/><stop stop-color="#eaeff2" offset=".879"/><stop stop-color="#d9e3e8" offset=".992"/><stop stop-color="#d8e2e7" offset="1"/></radialGradient><radialGradient id="g" cx="125.89" cy="84.919" r="10.712" gradientUnits="userSpaceOnUse" class="svga-on-canvas-eyesback-gradient-right-0"><stop stop-color="#fff" offset="0"/><stop stop-color="#fdfefe" offset=".544"/><stop stop-color="#f6f8f9" offset=".74"/><stop stop-color="#eaeff2" offset=".879"/><stop stop-color="#d9e3e8" offset=".992"/><stop stop-color="#d8e2e7" offset="1"/></radialGradient><radialGradient id="e" cx="123.715" cy="85.489" fx="135.434" fy="85.522" r="16.667" gradientTransform="matrix(.9998 .0208 .0166 -.7998 -48.826 151.29)" gradientUnits="userSpaceOnUse" class="svga-on-canvas-eyesfront-gradient-left-3"><stop stop-color="#df9164" offset="0"/><stop stop-opacity=".3" stop-color="#df9164" offset=".7"/><stop stop-opacity="0" stop-color="#eeaa83" offset="1"/></radialGradient><radialGradient id="f" cx="122.874" cy="101.325" r="26.878" gradientTransform="matrix(-1 0 0 .7923 200 21.05)" gradientUnits="userSpaceOnUse" class="svga-on-canvas-eyesfront-gradient-left-4"><stop stop-opacity="0" offset=".95"/><stop stop-opacity=".2" offset="1"/></radialGradient><radialGradient id="h" cx="123.315" cy="85.489" fx="135.034" fy="85.522" r="16.667" gradientTransform="matrix(-.9998 .0208 -.0166 -.7998 248.027 151.299)" gradientUnits="userSpaceOnUse" class="svga-on-canvas-eyesfront-gradient-right-3"><stop stop-color="#df9164" offset="0"/><stop stop-opacity=".3" stop-color="#df9164" offset=".7"/><stop stop-opacity="0" stop-color="#eeaa83" offset="1"/></radialGradient><radialGradient id="i" cx="122.475" cy="101.325" r="26.878" gradientTransform="matrix(1 0 0 .7923 0 21.05)" gradientUnits="userSpaceOnUse" class="svga-on-canvas-eyesfront-gradient-right-4"><stop stop-opacity="0" offset=".95"/><stop stop-opacity=".2" offset="1"/></radialGradient><linearGradient id="c" x1="100" y1="141" x2="100" y2="137" gradientUnits="userSpaceOnUse" class="svga-on-canvas-mouth-gradient-single-0"><stop stop-color="#e69d73" offset=".1"/><stop stop-color="#df9164" offset="1"/></linearGradient><linearGradient id="b" x1="100" y1="172" x2="100" y2="128" gradientUnits="userSpaceOnUse" class="svga-on-canvas-chinshadow-gradient-single-0"><stop stop-opacity=".8" stop-color="#df9164" offset="0"/><stop stop-color="#c06530" offset=".7"/></linearGradient></defs><path d="M225 225H-25V-25h250v250z" fill="#ece5ce"/><path d="M100 99.999l-10-150h20l-10 150zM72.382-47.775L53.01-42.802 100 99.999 72.382-47.775zM36.5-36.265L18.973-26.63 100 99.999 36.5-36.265zM4.607-16.192L-9.973-2.5 100 99.999 4.607-16.192zm-25.899 27.374l-10.717 16.887L100 99.999-21.292 11.182zm-18.277 32.954l-6.18 19.022L100 99.999-39.569 44.136zM-49.077 80.6l-1.256 19.961L100 99.999-49.077 80.6zm-.141 37.683l3.748 19.646L100 99.999l-149.218 18.284zm9.235 36.534l8.516 18.098L100 99.999l-139.983 54.818zm18.03 33.09l12.75 15.411L100 99.999l-121.953 87.908zM3.74 215.474l16.182 11.757L100 99.999 3.74 215.474zm31.741 20.311l18.597 7.363L100 99.999 35.481 235.785zm35.795 11.779l19.844 2.507L100 99.999 71.276 247.564zm37.601 2.507l19.844-2.507L100 99.999l8.877 150.072zm37.042-6.923l18.598-7.362L100 99.999l45.919 143.149zm34.157-15.917l16.183-11.756L100 99.999l80.076 127.232zm29.125-23.911l12.751-15.411L100 99.999 209.201 203.32zm22.264-30.403l8.519-18.098L100 99.999l131.465 72.918zm14.004-34.984l3.75-19.648L100 99.999l145.469 37.934zm4.863-37.369L249.078 80.6 100 99.999l150.332.565zm-4.583-37.403l-6.179-19.025L100 99.999l145.749-36.838zm-13.74-35.089l-10.716-16.891L100 99.999l132.009-71.927zm-22.035-30.57l-14.58-13.695L100 99.999 209.974-2.498zm-28.946-24.129l-17.527-9.639L100 99.999l81.028-126.626zM146.992-42.8l-19.374-4.978L100 99.999 146.992-42.8z" fill="url(#a)"/><path d="M100.5 100.5h-1v-1h1v1z" fill="#543c32"/><path d="M195.417 199.778c-2.196-4.746-8.195-11.779-14.86-13.722-8.239-2.403-26.837-5.308-33.733-6.923-5.528-1.296-16.662-11.294-20.564-14.65-.7-.6-1.273-1.839-1.287-2.76-.139-10.864 4.195-39.724 4.195-39.724H70.833s4.334 28.859 4.193 39.724c-.011.921-.587 2.16-1.285 2.76-3.902 3.356-15.036 13.354-20.564 14.65-6.897 1.615-25.495 4.619-33.733 7.022-6.667 1.942-12.664 8.876-14.86 13.622-3.708 8.008-4.584 22.5-4.584 35h200c0-12.499-.877-26.991-4.583-34.999z" fill="#eeaa83"/><path d="M159.156 184.058c24.342 3.542 34.586 8.708 37.794 50.721H200c0-12.5-.877-26.992-4.583-35-2.196-4.746-8.195-11.779-14.86-13.722-8.239-2.403-26.837-5.308-33.733-6.923-5.528-1.296-18.242-12.069-21.643-16.35 3.36 4.704 12.791 15.605 21.054 18.46 3.953 1.366 7.245 1.988 12.921 2.814zm-105.39-2.814c8.263-2.854 17.693-13.756 21.054-18.46-3.4 4.28-16.114 15.054-21.643 16.35-6.896 1.615-25.494 4.619-33.733 7.022-6.665 1.942-12.664 8.876-14.86 13.622-3.706 8.008-4.583 22.5-4.583 35h3.05c3.188-41.744 13.475-47.183 37.794-50.721 5.675-.825 8.968-1.447 12.921-2.813z" fill="#fdc5a5"/><path d="M95.646 197.62s-5.074-1.609-7.083-2.379c-10.449-4.009-44.395-6.607-44.395-6.607s35.754 1.419 43.644 2.779c-.458-4.767-3.017-20.004-3.017-20.004s5.149 16.815 6.409 21.057c.674 2.268 4.442 5.154 4.442 5.154zm10.799-1.342c-.089.073-.191.168-.302.268.113-.085.215-.174.302-.268zm-10.799 1.342s2.893 2.992 4.347 3.03c1.91.051 4.828-2.899 6.151-4.104-1.265.957-4.159 1.391-5.31 1.436-1.33.051-5.188-.362-5.188-.362zm21.018-7.519c-1.545.248-4.386.789-4.386.789l2.287-14.89c-.646 3.071-4.474 16.211-8.12 20.278 1.91-1.616 6.158-2.391 8.324-2.704 10.236-1.484 10.232-1.483 41.062-4.94 0 0-29.071-.155-39.167 1.467z" fill="#df9164"/><path d="M195.417 199.778c-2.196-4.746-8.195-11.779-14.86-13.722-8.239-2.403-26.837-5.308-33.733-6.923-5.528-1.296-16.662-11.294-20.564-14.65-.7-.6-1.273-1.839-1.287-2.76-.139-10.864 4.195-39.724 4.195-39.724H70.833s4.334 28.859 4.193 39.724c-.011.921-.587 2.16-1.285 2.76-3.902 3.356-15.036 13.354-20.564 14.65-6.897 1.615-25.495 4.619-33.733 7.022-6.667 1.942-12.664 8.876-14.86 13.622-3.708 8.008-4.584 22.5-4.584 35h200c0-12.499-.877-26.991-4.583-34.999z" fill="none" stroke="#c06530" stroke-width="1.5"/><path d="M74.853 164.349c7.212 4.619 15.864 7.518 25.15 7.518 9.283 0 17.933-2.897 25.143-7.514-.541-.765-.911-1.767-.924-2.619-.091-7.111 1.683-21.616 2.956-31.035-15.597-3.146-38.76-3.146-54.355 0 1.273 9.419 3.047 23.924 2.955 31.034-.011.834-.386 1.847-.925 2.616z" fill="url(#b)"/><path d="M111.806 235.888c-19.135 0-41.455-.074-68.233-.229l-23.679-.128c-14.298-.078-15.141-.094-16.887-.094l-4.899.007c-4.571-41.875 14.41-52.87 43.762-56.708 7.789-1.097 15.449-3.097 21.459-6.972 16.327 22.243 64.811 17.562 73.103-.629 1.39.53 2.539 1.215 3.977 1.734 4.666 3.433 11.072 5.836 17.628 6.199 26.008 1.441 44.419 12.996 44.057 54.64.003.165.004 1.175-.013 1.49-12.513 0-17.206.121-27.034.262-13.331.19-29.923.427-63.229.427l-.012.001z" fill="#9d69bc"/><path d="M201.055 234.64c-.41-7.385-4.064-28.058-10.36-37.541-12.482-18.805-42.26-12.206-49.132-19.693-4.986 10.159-24.975 16.595-31.594 17.54 19.181-6.36 27.237-10.959 30.42-21.87 6.405 8.33 41.074 1.971 54.717 24.331 3.995 6.547 7.794 27.386 5.949 37.233zM55.811 177.628c1.357-.315 2.034-1.249 3.381-1.614l-1.426-1.891c-9.049 7.052-42.909 2.645-54.519 24.036-3.659 6.741-6.127 22.788-4.192 36.439.537-8.384.799-26.314 7.095-35.798 11.324-17.06 31.974-12.553 47.619-19.775 6.983 8.6 17.888 12.828 28.984 14.577-13.921-3.631-21.903-9.762-26.942-15.974z" fill="#b186cb"/><path d="M135.31 173.244c-5.532 11.514-47.35 24.923-70.93.879-1.466.622-5.852 2.112-5.852 2.112 17.176 23.386 67.511 23.534 80.909-.114-.059-.023-2.765-2.185-4.127-2.877z" fill="#8a4fad"/><path d="M136.38 171.002c-9.413 18.822-58.397 21.485-73.012.632-5.337 1.578-10.469 4.941-15.636 5.782-30.92 4.605-53.778 6.919-49.732 58.136 9.94 0-6.611-.065 45.571.215 123.59.71 119.562-.461 158.606-.461.029-.14.015-1.452.021-1.596 2.096-56.436-30.852-53.104-53.12-56.995-3.144-.718-6.066-2.773-8.635-3.945-1.419-.649-2.625-1.232-4.063-1.768zm-73.366 1.263c12.974 23.392 64.219 18.699 74.113.101 1.2.504 1.507.704 2.898 1.197-10.248 21.489-60.942 28.337-81.677 1.163.146-.041 3.204-1.913 4.666-2.461zM-.845 234.778c-2.421-26.431 1.797-48.043 32.78-53.345 10.276-1.896 16.557-1.962 25.384-5.794 16.763 27.405 72.098 23.158 83.598-1.305 1.652 1.409 4.228 3.03 7.405 3.785 18.098 4.299 54.838-.894 52.898 56.658-54.057-.702-98.865-2.344-202.065.001z" fill="#67258e"/><path d="M46.778 83.613c-2.623-1.48-8.575-8.52-11.138-7.517-1.655.646-2.377 5.504-2.638 7.47-.333 2.525-.929 7.711-.328 10.185.725 2.985 3.631 8.507 5.37 11.027 1.468 2.122 5.211 5.797 6.407 8.088.759 1.454 1.493 5.373 4.083 5.12 1.674-.164 5.537-3.072 5.744-4.452 1.128-7.477-2.335-27.006-7.5-29.921z" fill="#eeaa83" stroke="#c06530" stroke-width="1.5"/><path d="M43.313 99.76c-.125-.556.006-1.491.133-2.395.115-.824.224-1.601.158-2.151-.251-2.06-1.66-5.975-2.578-8.097-1.059-2.44-2.771-5.515-4.919-6.307-.888-.33-1.473.063-1.813.461-.248.292-.305.636-.223.676.082.041.266-.244.535-.512.219-.219.542-.407.983-.368-.178 1.026-1.091 6.582-.696 10.369.311 2.978 1.489 5.202 1.673 5.536.028.352.073.695.139 1.028.869 4.347 4.648 9.29 5.963 10.908.243.298.496.476.56.404.062-.074-.087-.368-.33-.668-1.298-1.609-5.042-6.533-5.879-10.728-.89-4.45 2.167-11.048 2.849-12.443.348.655.643 1.285.87 1.809.179.412.378.894.581 1.414-.402.729-3.211 6.042-2.187 10.295.38 1.568 2.088 3.589 3.223 4.143.624.306.859.761 1.13 1.288.314.613.673 1.307 1.708 1.81.211.101.402.144.571.144a.968.968 0 00.679-.281c.017.268.016.611.007.928-.01.411.041.747.129.756.088.008.182-.318.192-.726.016-.503.013-1.125-.067-1.422-.232-.877-.942-1.867-1.694-2.915-.74-1.031-1.506-2.098-1.697-2.956zm-6.775-3.855c-2.035-6.825 0-13.093.458-14.029.795.785 2.108 2.213 2.679 3.239-.417.823-3.052 6.2-3.137 10.79zm8.78 9.986c-.938-.456-1.253-1.067-1.557-1.657-.275-.535-.56-1.087-1.281-1.44a3.11 3.11 0 01-.505-.328c-2.324-5.988.254-8.606.899-9.142.199.731.346 1.403.411 1.941.061.495-.05 1.28-.156 2.041-.132.942-.268 1.916-.127 2.546.211.94.999 2.038 1.76 3.1.677.943 1.373 1.915 1.609 2.708-.1.158-.422.535-1.053.231z" fill="#c06530"/><path d="M152.961 83.613c2.623-1.48 8.574-8.52 11.137-7.517 1.656.646 2.379 5.504 2.639 7.47.334 2.525.928 7.711.328 10.185-.725 2.985-3.631 8.507-5.371 11.027-1.467 2.122-5.211 5.797-6.406 8.088-.76 1.454-1.492 5.373-4.084 5.12-1.674-.164-5.535-3.072-5.744-4.452-1.128-7.477 2.335-27.006 7.501-29.921z" fill="#eeaa83" stroke="#c06530" stroke-width="1.5"/><path d="M154.729 102.716c-.752 1.047-1.463 2.038-1.695 2.915-.078.297-.082.919-.066 1.422.012.407.105.733.193.726.088-.009.139-.345.129-.756a10.9 10.9 0 01.006-.928.97.97 0 00.68.281c.168 0 .359-.043.57-.144 1.035-.503 1.395-1.196 1.709-1.81.271-.527.506-.982 1.131-1.288 1.133-.554 2.842-2.575 3.223-4.143 1.023-4.253-1.785-9.566-2.188-10.295.203-.52.402-1.002.582-1.414.225-.524.521-1.154.869-1.809.682 1.395 3.738 7.993 2.848 12.443-.838 4.195-4.582 9.118-5.879 10.728-.242.3-.393.594-.33.668.064.071.318-.106.561-.404 1.314-1.618 5.094-6.561 5.963-10.908.066-.333.111-.677.139-1.028.184-.334 1.363-2.558 1.674-5.536.395-3.788-.518-9.343-.695-10.369.441-.039.764.149.982.368.268.268.453.552.535.512.08-.041.023-.384-.223-.676-.342-.397-.926-.791-1.813-.461-2.148.792-3.861 3.867-4.92 6.307-.92 2.123-2.326 6.037-2.578 8.097-.066.55.043 1.328.158 2.151.127.904.256 1.839.133 2.395-.193.858-.958 1.925-1.698 2.956zm5.335-17.601c.57-1.026 1.883-2.455 2.678-3.239.457.936 2.494 7.204.459 14.029-.086-4.59-2.721-9.967-3.137-10.79zm-6.697 20.545c.236-.793.932-1.765 1.609-2.708.762-1.063 1.549-2.16 1.76-3.1.141-.631.006-1.604-.127-2.546-.105-.76-.217-1.546-.156-2.041.066-.539.213-1.21.412-1.941.645.536 3.223 3.154.898 9.142a3.34 3.34 0 01-.504.328c-.723.353-1.008.905-1.281 1.44-.305.59-.619 1.201-1.559 1.657-.63.304-.952-.073-1.052-.231z" fill="#c06530"/><path d="M100.002.867C66.381.813 39.186 28.343 39.134 62.366a62.401 62.401 0 001.953 15.641h.004c.011.054 8.845 35.747 15.375 54.081 5.578 15.662 23.021 29.779 43.536 29.779 20.514 0 37.958-14.117 43.537-29.779 6.529-18.334 15.362-54.027 15.374-54.081h.005a62.395 62.395 0 001.952-15.641C160.819 28.343 133.623.813 100.002.867z" fill="#eeaa83"/><path d="M146.769 22.992c7.449 10.317 10.881 23.178 10.902 37.137.01 6.46-1.889 15.641-1.889 15.641-.012.054-8.522 35.747-14.816 54.081-5.376 15.661-21.191 29.779-40.963 29.779-19.773 0-35.585-14.118-40.961-29.779-6.296-18.334-14.809-54.027-14.82-54.081 0 0-1.895-10.154-1.886-15.641.021-13.956 3.448-26.813 10.895-37.128-8.781 10.663-14.072 24.382-14.095 39.365a62.401 62.401 0 001.953 15.641h.004c.011.054 8.845 35.747 15.375 54.081 5.578 15.662 23.021 29.779 43.536 29.779 20.514 0 37.958-14.117 43.537-29.779 6.529-18.334 15.362-54.027 15.374-54.081h.005a62.395 62.395 0 001.952-15.641c-.024-14.987-5.318-28.71-14.103-39.374z" fill="#e69d73"/><path d="M100.002.867C66.381.813 39.186 28.343 39.134 62.366a62.401 62.401 0 001.953 15.641h.004c.011.054 8.845 35.747 15.375 54.081 5.578 15.662 23.021 29.779 43.536 29.779 20.514 0 37.958-14.117 43.537-29.779 6.529-18.334 15.362-54.027 15.374-54.081h.005a62.395 62.395 0 001.952-15.641C160.819 28.343 133.623.813 100.002.867z" fill="none" stroke="#c06530" stroke-width="1.5"/><path d="M100.671 140.999c-5.683-.008-7.963-3.983-7.963-3.983 6.845 2.441 15.408.264 15.408.264s-1.739 3.728-7.445 3.719z" fill="url(#c)"/><path d="M81.783 130.557c3.57-.112 10.625-.609 13.211-.457 1.337.079 3.53.999 4.971 1.313 1.003.22 4.814-.817 5.842-.822 2.687-.017 8.513 1.274 11.642 1.782.173.027 0 0 0 0s-7.699 6.575-17.56 6.143c-11.161-.491-18.106-7.959-18.106-7.959s-.177.005 0 0z" fill="#9d6d5f"/><path d="M117.743 132.177c-.085-.126-.641-.245-.846-.221-.373.044-.643.389-1.425.458-.904.084-5.695.815-7.002.782-2.629-.064-5.647.561-8.157.451-2.513-.11-6.464-1.159-9.077-1.344-1.297-.092-6.623-1.333-7.505-1.507-.759-.15-.82-.506-1.125-.607-.215-.074-.832-.023-.999.09-.145.1-.1.557.001.683.248.305 1.167.435 1.838.568.931.184 6.336 1.438 7.67 1.532 2.586.186 6.589 1.303 9.123 1.414 2.532.112 5.608-.587 8.21-.521 1.338.034 6.197-.699 7.156-.784.694-.064 1.556-.179 1.876-.402.153-.105.345-.46.262-.592z" fill="#6f3322"/><path d="M99.999 137.244c-4.411-.192-11.369-1.912-14.032-4.152 1.629.195 5.155.481 6.772.693 1.997.265 4.761 1.003 6.795 1.192 2.196.202 5.2-.237 7.342-.422 1.79-.153 4.563-.661 6.35-.72-3.005 1.793-8.969 3.595-13.227 3.409zm7.158-4.638c1.602-.081 4.101-.628 5.694-.675-1.796-.491-4.499-.493-6.406-.697-1.646-.174-4.155.69-5.787.804-1.838.132-4.022-1.204-5.733-1.333-1.857-.138-5.733.283-7.555.604 1.556.17 4.94.433 6.472.682 1.878.306 4.573.966 6.522 1.052 1.998.088 4.819-.335 6.793-.437z" fill="#a5796c"/><path d="M100.006 136.455c-2.626-.118-6.989-1.062-8.873-2.365a82.66 82.66 0 012.348.189c.146.015.293.031.438.05.757.101 1.489.304 2.271.515.759.207 2.481.47 3.329.557.167.019.333.027.501.034 1.043.048 2.983-.061 3.943-.21.609-.095 1.182-.192 1.77-.247.32-.032.669-.047 1.061-.049a25.9 25.9 0 011.036.017c-1.767.895-5.117 1.628-7.824 1.509z" fill="#ac8579"/><path d="M79.382 131.481s-.708-1.188-.609-1.633c.139-.619 1.923-1.85 1.923-1.85s-1.08 1.415-1.247 1.863c-.161.433-.067 1.62-.067 1.62z" fill="#c06530"/><path d="M59.722 85.795c2.578 4.596 2.19 5.704 10.268 4.467 9.691 0 17.711-1.976 17.711-5.558s-4.925-7.115-17.196-4.923C64.489 80.855 59.722 84 59.722 85.795z" fill="url(#d)"/><path d="M81.485 86.896c-1.087 5.321-5.202 8.456-9.201 6.994-3.996-1.46-6.356-6.964-5.269-12.286 1.086-5.324 5.211-8.458 9.207-6.996 3.993 1.46 6.351 6.964 5.263 12.288z" fill="#b0b9d9" stroke="#576aab" stroke-width=".5"/><path d="M80.318 87.021c-1.06 4.085-4.26 6.469-7.374 5.332-2.875-1.053-4.689-4.732-4.454-8.62a20.332 20.332 0 013.444-.066c-.012.056-.033.104-.045.161-.381 1.875.509 3.841 1.991 4.384 1.487.542 3.001-.545 3.385-2.419.047-.245.073-.49.081-.732a13.594 13.594 0 012.972 1.96z" fill="#d4d8e8"/><path d="M75.265 81.268c-1.501-.574-3.035.569-3.422 2.564-.389 1.986.515 4.063 2.017 4.638 1.505.575 3.039-.569 3.426-2.555.391-1.996-.516-4.074-2.021-4.647zm.329 7.053c-.625.258-1.271-.085-1.443-.771-.166-.685.205-1.444.833-1.698.629-.259 1.273.086 1.447.767.169.681-.203 1.443-.837 1.702z" opacity=".9"/><path d="M70.264 89.515c-.463.37-1.152.04-1.548-.744-.396-.777-.335-1.708.129-2.079.458-.364 1.156-.034 1.549.744.388.778.333 1.71-.13 2.079z" fill="#fff" opacity=".6"/><path d="M80.138 83.818c-1.058.843-2.647.083-3.547-1.701-.9-1.786-.764-3.92.293-4.762 1.056-.849 2.646-.087 3.542 1.699.898 1.785.769 3.917-.288 4.764z" fill="#fff" opacity=".9"/><path d="M54.8 84.999c0 13.807 8.507 25 19 25s19-11.193 19-25-8.507-25-19-25-19 11.193-19 25zm4.922.796c0-1.795 4.768-4.939 10.782-6.014C82.775 77.589 87.7 81.123 87.7 84.704c0 3.582-8.02 5.558-17.711 5.558-8.077 1.237-7.689.129-10.267-4.467z" fill="#eeaa83"/><path d="M58.697 86.046c-.075 6.904 8.647 12.467 18.038 12.434 9.389-.04 16.987-5.663 16.962-12.568-.023-6.903-7.647-12.467-17.04-12.431-9.392.038-17.858 3.121-17.96 12.565zm1.025-.251c0-1.795 4.768-4.939 10.782-6.014C82.775 77.589 87.7 81.123 87.7 84.704c0 3.582-8.02 5.558-17.711 5.558-8.077 1.237-7.689.129-10.267-4.467z" fill="url(#e)"/><path d="M59.722 85.795c2.578 4.596 2.19 5.704 10.268 4.467 9.691 0 17.711-1.976 17.711-5.558s-4.925-7.115-17.196-4.923C64.489 80.855 59.722 84 59.722 85.795z" fill="url(#f)"/><path d="M86.716 88.797s-1.383.778-2.354 1.036c-1.209.318-4.997.895-11.562 1.795 7.49-.531 10.48-.82 11.762-1.189 1.016-.292 2.154-1.642 2.154-1.642z" fill="#c06530"/><path d="M87.757 83.463a.181.181 0 01-.011.247.183.183 0 01-.247.007l-3.871-3.383c-11.411-1.304-19.93.687-23.25 5.247l.536 2.4-3.114-2.69c3.172-4.526 6.306-7.915 25.828-6.735 2.305 2.252 3.509 3.379 4.129 4.907zm-1.125 3.979a.258.258 0 00.048-.306.258.258 0 00-.279-.135c-3.954 2.317-11.021 2.523-22.642 3.426l-2.25-1.384 1.653 2.046c12.582-.588 21.844-1.333 23.47-3.647z" fill="#09152e"/><path d="M139.879 85.795c-2.578 4.596-2.19 5.704-10.268 4.467-9.691 0-17.711-1.976-17.711-5.558s4.925-7.115 17.196-4.923c6.015 1.074 10.783 4.219 10.783 6.014z" fill="url(#g)"/><path d="M132.984 86.896c-1.088 5.321-5.203 8.456-9.202 6.992-3.994-1.458-6.356-6.963-5.267-12.284 1.087-5.324 5.21-8.458 9.204-6.994 3.997 1.458 6.355 6.963 5.265 12.286z" fill="#b0b9d9" stroke="#576aab" stroke-width=".5"/><path d="M131.819 87.021c-1.062 4.085-4.261 6.468-7.375 5.33-2.875-1.052-4.69-4.73-4.454-8.618a20.448 20.448 0 013.445-.066c-.011.055-.035.103-.046.161-.381 1.875.508 3.84 1.99 4.383 1.489.542 3.001-.547 3.385-2.42.049-.244.073-.49.083-.732a13.873 13.873 0 012.972 1.962z" fill="#d4d8e8"/><path d="M126.767 81.268c-1.504-.573-3.036.569-3.425 2.564-.387 1.987.515 4.063 2.02 4.637 1.504.575 3.035-.57 3.426-2.555.389-1.995-.518-4.073-2.021-4.646zm.326 7.053c-.623.258-1.271-.085-1.44-.771-.168-.684.204-1.445.833-1.697.629-.26 1.272.085 1.445.766.17.68-.203 1.442-.838 1.702z" opacity=".9"/><path d="M121.764 89.515c-.461.368-1.15.039-1.547-.745-.396-.776-.335-1.706.128-2.079.459-.364 1.155-.033 1.547.746.391.777.337 1.708-.128 2.078z" fill="#fff" opacity=".6"/><path d="M131.638 83.818c-1.06.844-2.646.083-3.548-1.701-.897-1.786-.766-3.919.293-4.761 1.056-.85 2.646-.088 3.54 1.698.901 1.787.772 3.918-.285 4.764z" fill="#fff" opacity=".9"/><path d="M125.801 59.999c-10.493 0-19 11.193-19 25s8.507 25 19 25 19-11.193 19-25-8.507-25-19-25zm3.81 30.263c-9.691 0-17.711-1.976-17.711-5.558s4.925-7.115 17.196-4.923c6.015 1.074 10.782 4.218 10.782 6.014-2.577 4.596-2.19 5.704-10.267 4.467z" fill="#eeaa83"/><path d="M122.943 73.48c-9.393-.036-17.017 5.528-17.04 12.431-.025 6.906 7.573 12.529 16.962 12.568 9.391.034 18.113-5.529 18.038-12.434-.101-9.443-8.567-12.526-17.96-12.565zm6.668 16.782c-9.691 0-17.711-1.976-17.711-5.558s4.925-7.115 17.196-4.923c6.015 1.074 10.782 4.218 10.782 6.014-2.577 4.596-2.19 5.704-10.267 4.467z" fill="url(#h)"/><path d="M139.879 85.795c-2.578 4.596-2.19 5.704-10.268 4.467-9.691 0-17.711-1.976-17.711-5.558s4.925-7.115 17.196-4.923c6.015 1.074 10.783 4.219 10.783 6.014z" fill="url(#i)"/><path d="M112.885 88.797s1.383.778 2.354 1.036c1.209.318 4.997.895 11.562 1.795-7.49-.531-10.48-.82-11.762-1.189-1.017-.292-2.154-1.642-2.154-1.642z" fill="#c06530"/><path d="M115.973 78.555c19.522-1.179 22.656 2.209 25.828 6.735l-3.114 2.69.536-2.4c-3.32-4.56-11.839-6.551-23.25-5.247l-3.871 3.383a.18.18 0 01-.247-.007.183.183 0 01-.011-.247c.62-1.527 1.824-2.654 4.129-4.907zm20.465 12.535l1.653-2.046-2.25 1.384c-11.621-.903-18.688-1.109-22.642-3.426a.257.257 0 00-.279.135.258.258 0 00.048.306c1.627 2.313 10.888 3.058 23.47 3.647z" fill="#09152e"/><path d="M141 113.974c.035 22.622-18.292 40.994-40.938 41.025-22.642.037-41.028-18.273-41.063-40.9-.035-22.62 18.292-41.064 40.937-41.1 22.643-.035 41.031 18.35 41.064 40.975z" fill="url(#j)"/><path d="M137.5 53.999c0 20.711-16.789 37.5-37.499 37.5-20.711 0-37.501-16.789-37.501-37.5s16.79-37.5 37.501-37.5c20.71 0 37.499 16.789 37.499 37.5z" fill="url(#k)"/><path d="M74.799 71.28c-4.425-.475-21.252 3.714-21.252 3.714s16.789-6.74 23.757-5.667c5.188.798 14.397 5.077 12.706 7.339-1.361 1.821-5.602-4.354-15.211-5.386zm34.932 5.118c-1.713-2.292 7.592-6.31 13.546-6.804 7.117-.59 22.914 4.085 22.914 4.085s-15.9-2.628-20.377-2.106c-9.816 1.145-14.704 6.67-16.083 4.825z" fill="#543c32"/><path d="M105.07 117.886c1.053 0 1.338.28 1.338.625 0 .347-.328.879-1.338.624-1.109-.276-3.046-.148-3.046-.148s1.994-1.101 3.046-1.101zm-10.053 0c-1.054.001-1.337.282-1.337.628-.001.345.317.842 1.337.624 1.125-.241 3.046-.149 3.046-.149s-1.992-1.099-3.046-1.103zm13.592-3.738s1.458 1.654 1.154 3.403c-.294 1.699-3.238 2.447-3.238 2.447s2.044-1.297 2.292-2.873c.116-.735-.208-2.977-.208-2.977zm-17.992-1.702s-1.063 2.316-.755 3.727c.558 2.547 3.625 3.565 3.625 3.565s-1.914-1.747-2.594-3.291c-.744-1.684-.276-4.001-.276-4.001z" fill="#c06530"/><path d="M105.019 115.38c1.021-.761 1.124-1.195.912-1.479-.21-.284-.823-.464-1.678.453-.942 1.012-2.991 1.758-2.991 1.758s2.735.031 3.757-.732z" fill="#fdc5a5"/><path d="M162.973 40.273c-15.033-55.027-101.961-61.83-126.595-.228-11.02 27.558 15.94 73.711 15.94 73.711-.962-6.957-4.86-37.856-4.86-37.856 0-2 1.915-4.507 2.272-5.973 1.718-7.055-4.882-16.666-2.272-28.859 2.222-10.38 5.558-17.637 15.408-23.673 13.231-8.108 20.458 5.525 26.34 9.323 4.617 2.98 17.091 3.121 21.972.597 6.122-3.166 14.95-14.205 24.761-11.017 11.622 3.776 16.601 19.828 17.03 22.789.916 8.798-4.469 26.247-2.699 30.84.504 1.309 1.617 3.689 1.898 4.807 1.16 4.612-4.088 39.009-4.088 39.009s22.388-46.035 14.893-73.47z" fill="#543c32"/><path d="M137.697 13.5C127.979 8.857 119 17 110 23c-13.773 7.069-21-5-32-10-9-5-21 3-28 12-10.24 15.824-7.005 28.784-3.229 45.535-3.841 3.196 2.723 27.464 5.036 39.4C50.406 99.271 47.458 75.9 47.458 75.9c0-.415.096-.854.229-1.299.511-1.699 1.76-3.512 2.042-4.674 1.718-7.055-4.882-16.666-2.272-28.859 2.222-10.38 5.558-17.637 15.408-23.673 13.231-8.108 20.458 5.525 26.34 9.323 4.617 2.98 17.091 3.121 21.972.597 6.122-3.166 14.95-14.205 24.761-11.017 11.622 3.776 16.601 19.828 17.03 22.789.916 8.798-4.469 26.247-2.699 30.84.504 1.309 1.617 3.689 1.898 4.807.037.146.066.323.091.527a.677.677 0 01.005-.047c.54 4.834-2.166 24.674-3.489 33.824 3.99-18.04 8.449-34.593 4.355-41.351 3.74-22.285 8.438-42.785-15.432-54.187z" fill="#452c22"/><path d="M148.08 113.744c8.659-21.56 17.811-48.317 13.182-72.508-1.357-4.808-3.467-12.578-12.334-22.463C115.737-18.332 59.483-6.218 39.958 35.8c-11.417 24.404-.214 54.246 12.359 77.957-11.042-19.293-16.693-32.944-18.75-54.101-.622-7.079.718-16.492 4.499-24.868 15.194-33.563 54.39-49.58 87.349-35.863 13.259 5.328 27.885 17.106 35.03 32.893 4.882 10.828 4.249 20.507 3.181 32.421-.771 6.491-3.043 16.094-3.617 17.865-2.544 8.367-.627 2.872-4.759 14.623-2.986 7.768-4.608 11.26-7.17 17.017z" fill="#26130b"/></svg>