<svg xmlns="http://www.w3.org/2000/svg" width="500" height="500" viewBox="0 0 200 200" overflow="hidden"><defs><radialGradient id="i" cx="100" cy="113" r="40" gradientUnits="userSpaceOnUse" class="svga-on-canvas-facehighlight-gradient-single-0"><stop stop-opacity=".5" stop-color="#e9bfa9" offset="0"/><stop stop-opacity="0" stop-color="#daa488" offset=".9"/></radialGradient><radialGradient id="j" cx="100" cy="57" r="36" gradientUnits="userSpaceOnUse" class="svga-on-canvas-facehighlight-gradient-single-1"><stop stop-opacity=".5" stop-color="#e9bfa9" offset="0"/><stop stop-opacity="0" stop-color="#daa488" offset=".9"/></radialGradient><radialGradient id="c" cx="129.05" cy="85.956" r="15.117" gradientTransform="scale(-1 1) rotate(5.981 22.869 -1851.746)" gradientUnits="userSpaceOnUse" class="svga-on-canvas-eyesback-gradient-left-0"><stop stop-color="#fff" offset="0"/><stop stop-color="#fcfdfd" offset=".316"/><stop stop-color="#f4f7f8" offset=".505"/><stop stop-color="#e5ecef" offset=".661"/><stop stop-color="#d8e2e7" offset=".76"/></radialGradient><radialGradient id="f" cx="129.049" cy="85.956" r="15.117" gradientTransform="rotate(5.981 122.875 62.424)" gradientUnits="userSpaceOnUse" class="svga-on-canvas-eyesback-gradient-right-0"><stop stop-color="#fff" offset="0"/><stop stop-color="#fcfdfd" offset=".316"/><stop stop-color="#f4f7f8" offset=".505"/><stop stop-color="#e5ecef" offset=".661"/><stop stop-color="#d8e2e7" offset=".76"/></radialGradient><radialGradient id="d" cx="121.786" cy="84.496" fx="133.039" fy="84.527" r="16.003" gradientTransform="matrix(.9998 .0208 .0166 -.7998 -44.952 149.543)" gradientUnits="userSpaceOnUse" class="svga-on-canvas-eyesfront-gradient-left-3"><stop stop-color="#cb8b6a" offset="0"/><stop stop-opacity=".3" stop-color="#cb8b6a" offset=".7"/><stop stop-opacity="0" stop-color="#daa488" offset="1"/></radialGradient><radialGradient id="e" cx="69.124" cy="107.529" r="29.525" gradientTransform="translate(-1.68 1.728) scale(1.0336)" gradientUnits="userSpaceOnUse" class="svga-on-canvas-eyesfront-gradient-left-4"><stop stop-opacity="0" offset=".95"/><stop stop-opacity=".3" offset="1"/></radialGradient><radialGradient id="g" cx="121.786" cy="84.496" fx="133.039" fy="84.527" r="16.003" gradientTransform="matrix(-.9998 .0208 -.0166 -.7998 244.952 149.543)" gradientUnits="userSpaceOnUse" class="svga-on-canvas-eyesfront-gradient-right-3"><stop stop-color="#cb8b6a" offset="0"/><stop stop-opacity=".3" stop-color="#cb8b6a" offset=".7"/><stop stop-opacity="0" stop-color="#daa488" offset="1"/></radialGradient><radialGradient id="h" cx="69.124" cy="107.529" r="29.525" gradientTransform="matrix(-1.0336 0 0 1.0336 201.68 1.728)" gradientUnits="userSpaceOnUse" class="svga-on-canvas-eyesfront-gradient-right-4"><stop stop-opacity="0" offset=".95"/><stop stop-opacity=".3" offset="1"/></radialGradient><linearGradient id="b" x1="100" y1="143" x2="100" y2="140" gradientUnits="userSpaceOnUse" class="svga-on-canvas-mouth-gradient-single-0"><stop stop-color="#d29779" offset=".1"/><stop stop-color="#cb8b6a" offset="1"/></linearGradient><linearGradient id="a" x1="99.98" y1="171.27" x2="99.98" y2="136.351" gradientUnits="userSpaceOnUse" class="svga-on-canvas-chinshadow-gradient-single-0"><stop stop-opacity=".8" stop-color="#cb8b6a" offset="0"/><stop stop-color="#ac5f38" offset=".7"/></linearGradient></defs><path d="M225 225H-25V-25h250v250z" fill="#e5fcc2"/><path d="M10 33.299L0 16.649 10-.001l10 16.65-10 16.65zm30-16.65L30-.001l-10 16.65 10 16.65 10-16.65zm20 0L50-.001l-10 16.65 10 16.65 10-16.65zm20 0L70-.001l-10 16.65 10 16.65 10-16.65zm20 0L90-.001l-10 16.65 10 16.65 10-16.65zm20 0L110-.001l-10 16.65 10 16.65 10-16.65zm20 0L130-.001l-10 16.65 10 16.65 10-16.65zm20 0L150-.001l-10 16.65 10 16.65 10-16.65zm20 0L170-.001l-10 16.65 10 16.65 10-16.65zm20 0L190-.001l-10 16.65 10 16.65 10-16.65zM20 49.982l-10-16.65-10 16.65 10 16.65 10-16.65zm20 0l-10-16.65-10 16.65 10 16.65 10-16.65zm20 0l-10-16.65-10 16.65 10 16.65 10-16.65zm20 0l-10-16.65-10 16.65 10 16.65 10-16.65zm20 0l-10-16.65-10 16.65 10 16.65 10-16.65zm20 0l-10-16.65-10 16.65 10 16.65 10-16.65zm20 0l-10-16.65-10 16.65 10 16.65 10-16.65zm20 0l-10-16.65-10 16.65 10 16.65 10-16.65zm20 0l-10-16.65-10 16.65 10 16.65 10-16.65zm20 0l-10-16.65-10 16.65 10 16.65 10-16.65zM20 83.316l-10-16.65-10 16.65 10 16.65 10-16.65zm20 0l-10-16.65-10 16.65 10 16.65 10-16.65zm20 0l-10-16.65-10 16.65 10 16.65 10-16.65zm20 0l-10-16.65-10 16.65 10 16.65 10-16.65zm20 0l-10-16.65-10 16.65 10 16.65 10-16.65zm20 0l-10-16.65-10 16.65 10 16.65 10-16.65zm20 0l-10-16.65-10 16.65 10 16.65 10-16.65zm20 0l-10-16.65-10 16.65 10 16.65 10-16.65zm20 0l-10-16.65-10 16.65 10 16.65 10-16.65zm20 0l-10-16.65-10 16.65 10 16.65 10-16.65zM20 116.649L10 100 0 116.65l10 16.649 10-16.65zm20 0L30 100l-10 16.65 10 16.649 10-16.65zm20 0L50 100l-10 16.65 10 16.649 10-16.65zm20 0L70 100l-10 16.65 10 16.649 10-16.65zm20 0L90 100l-10 16.65 10 16.649 10-16.65zm20 0L110 100l-10 16.65 10 16.649 10-16.65zm20 0L130 100l-10 16.65 10 16.649 10-16.65zm20 0L150 100l-10 16.65 10 16.649 10-16.65zm20 0L170 100l-10 16.65 10 16.649 10-16.65zm20 0L190 100l-10 16.65 10 16.649 10-16.65zM20 149.982l-10-16.649-10 16.649 10 16.649 10-16.649zm20 0l-10-16.649-10 16.649 10 16.649 10-16.649zm20 0l-10-16.649-10 16.649 10 16.649 10-16.649zm20 0l-10-16.649-10 16.649 10 16.649 10-16.649zm20 0l-10-16.649-10 16.649 10 16.649 10-16.649zm20 0l-10-16.649-10 16.649 10 16.649 10-16.649zm20 0l-10-16.649-10 16.649 10 16.649 10-16.649zm20 0l-10-16.649-10 16.649 10 16.649 10-16.649zm20 0l-10-16.649-10 16.649 10 16.649 10-16.649zm20 0l-10-16.649-10 16.649 10 16.649 10-16.649zM20 183.315l-10-16.649-10 16.649 10 16.649 10-16.649zm20 0l-10-16.649-10 16.649 10 16.649 10-16.649zm20 0l-10-16.649-10 16.649 10 16.649 10-16.649zm20 0l-10-16.649-10 16.649 10 16.649 10-16.649zm20 0l-10-16.649-10 16.649 10 16.649 10-16.649zm20 0l-10-16.649-10 16.649 10 16.649 10-16.649zm20 0l-10-16.649-10 16.649 10 16.649 10-16.649zm20 0l-10-16.649-10 16.649 10 16.649 10-16.649zm20 0l-10-16.649-10 16.649 10 16.649 10-16.649zm20 0l-10-16.649-10 16.649 10 16.649 10-16.649z" fill="#ceed9f"/><path d="M19.273 278.474c-2.987 0-5.493-.846-7.277-2.449.26.058.551.086.869.086 3.453 0 9.151-3.228 11.324-7.389.217-2.067-.396-4.376-1.812-6.896-3.315-5.838-8.82-7.466-14.648-9.189-4.849-1.434-9.862-2.916-13.504-7.058-9.954-10.596-9.202-23.263 2.233-37.651l-.196-1.463c-3.866-7.445-4.552-14.183-2.053-20.081 3.215-7.589 11.649-13.6 24.39-17.383l.078-.022-.006-.081c-.188-2.399.79-5.015 2.684-7.174 2.575-2.938 6.422-4.685 10.832-4.919l.178-.009-.101-.147c-2.886-4.215-3.457-8.688-1.566-12.274 1.472-2.79 4.241-4.593 7.055-4.593 1.668 0 3.204.638 4.439 1.846.103.064.497.535.59.659 1.017 1.34 1.395 2.912 1.182 4.919-.374-3.863-2.871-5.271-5.219-5.271-2.852 0-5.581 1.867-6.489 4.44-.638 1.809-.888 5.502 4.603 9.93l.146-.134c-1.75-2.598-2.347-5.018-1.775-7.19.577-2.192 2.337-4.074 5.237-5.6-2.102 3.184-.972 7.345 1.311 9.902 2.368 2.658 7.015 4.122 13.083 4.121 9.51 0 19.561-3.474 22.882-7.908 2.887-3.866 2.608-10.002 2.232-12.271 3.171 3.053 4.943 8.707 4.871 15.585-.113 10.844-5.03 26.601-18.489 38.301-5.133 4.465-10.948 8.174-16.572 11.762-1.728 1.103-3.456 2.205-5.167 3.329-21.479 14.074-16.134 26.021-10.476 38.668a176.426 176.426 0 012.029 4.654c5.482 7.098 4.38 13.164 2.493 17.009-3.674 7.474-12.743 11.941-19.391 11.941z" fill="#3b3128"/><path d="M12.475 191.111c.852-1.361 2.349-3.862 4.827-6.614 12.467-14.117 39.351-14.11 51.802-22.074 4.492-2.792 13.153-11.878 5.33-3.896-7.607 7.618-16.997 10.345-36.132 15.341-19.646 5.101-23.722 15.032-25.852 17.167.013-.658.016-.924.025.076zm29.59-5.067c18.531-10.538 27.64-4.63 40.413-28.171 1.319-2.504 2.089-4.04 1.927-3.741-14.254 28.508-25.318 17.027-51.257 37.2-1.104.854-4.972 3.886-4.727 5.26 0 0-1.025-2.159 13.644-10.548zm18.271-24.363c8.71-1.954 14.749-6.304 13.749-5.729-20.646 10.732-50.717-.626-52.951 17.25 3.043-14.031 19.984-6.666 39.202-11.521zm-45.665 81.293c1.967 2.627 5.455 6.543 7.947 11.192 1.007 2.038 1.655 3.269 1.536 3.021-.15-.233-.734-1.797-1.758-3.979-5.519-10.923-26.096-32.407-9.883-48.119-11.558 10.306-7.063 25.558 2.158 37.885zm22.477-89.766c1.112 1.929 3.154 3.298 4.97 3.814 3.627 1.172-5.838-1.214-4.942-7.852.154-1.678.952-3.258 1.145-3.711-1.683 2.793-2.337 4.868-1.173 7.749z" fill="#2c2219"/><path d="M24.172 184.311c-14.06 5.821-44.699 43.764-21.156 59.208l1.699 1.207c16.558 9.814 13.79 8.106 20.289 15.289-4.825-5.396-11.641-8.378-18.119-11.143-2.706-1.175-5.711-2.516-8.177-4.419-5.273-3.865-7.719-8.127-8.96-13.253-4.119-14.397 19.45-41.539 34.424-46.889zm-5.182 28.413c-2.208 7.286-2.518 14.654.167 22.124 1.798 3.846-.713-7.868-.577-9.888.646-9.091 4.533-16.651 10.343-23.616 8.475-11.28 20.252-14.138 34.692-21.842-18.447 7.838-37.363 10.155-44.625 33.222zm52.575-54.262c-2.912 1.841-5.708 3.029-5.574 2.941-20.028 7.146-49.126 4.403-56.009 31.838l.567-1.694c.548-1.896 2.616-6.506 5.634-9.749 8.07-8.863 21.092-10.477 29.116-12.297 4.584-1.002 10.72-2.457 15.161-3.974 11.71-4.021 17.587-10.996 19.145-15.144.121-.286.216-.501.292-.666-.7 1.313-3.382 5.74-8.332 8.745zm8.331-8.744c.25-.47.245-.536 0 0zM47.45 160.992c9.354.252 18.606-.313 27.512-6.406 5.241-3.517 7.248-8.298 6.702-13.057-.076-.789-.115-1.153-.104-.972-.027.342.266 2.631-.726 5.634-.648 1.879-1.709 3.466-3.079 4.816.37-.723.602-1.56.62-2.501a9.384 9.384 0 01-.636.988c-3.322 4.435-13.373 7.908-22.882 7.908-6.068.001-10.714-1.463-13.083-4.121-2.282-2.558-3.413-6.719-1.311-9.902-.345.182-.672.369-.985.561-.983 3.555-1.464 6.757.521 9.06 2.653 3.077 6.233 4.825 10.177 5.602-5.993.279-11.489.254-15.006.646-14.071 1.387-14.16 8.158-14.964 10.815 3.344-9.759 9.123-9.686 27.244-9.071zM31 146c1.601-4.003 5.766-5.438 9.929-5.34a6.15 6.15 0 00-3.179-.879c-2.814 0-5.583 1.803-7.055 4.593-1.89 3.586-1.319 8.06 1.566 12.274l.101.147-.178.009c-4.41.234-8.257 1.981-10.832 4.919-1.894 2.159-2.872 4.774-2.684 7.174l.006.081-.078.022c-12.741 3.783-21.175 9.794-24.39 17.383-2.143 5.058-1.937 10.734.602 16.943-2.575-15.776 6.479-28.02 24.293-32.77-.505-1.557 1.681-5.714 3.897-8.558 1.298-1.666 7-6 12-4C32 155 30 151 31 146z" fill="#4a423a"/><path d="M79.819 136.945c.458 2.279.748 8.596-2.16 12.49-5.553 7.413-29.061 11.355-35.81 3.78-2.465-2.763-3.387-7.021-1.07-10.11-6.617 3.309-7.218 8.135-3.86 13.12-14.194-11.442 6.99-20.876 6.99-7.99.402-2.144.317-4.209-1.02-5.97 0-.011-.01-.03-.03-.04-.071-.095-.506-.624-.6-.67-6.176-6.035-18.103 3.432-10.08 15.149-8.822.469-14.027 6.88-13.61 12.2-20.399 6.058-32.254 18.669-22.41 37.55.053.4.104.791.22 1.41-10.107 12.719-13.392 25.898-2.23 37.78 7.915 8.998 22.008 5.433 28.14 16.229 1.13 2.011 2.05 4.44 1.81 6.801-2.576 4.933-9.791 8.206-12.48 7.13 9.597 9.559 39.416-7.206 24.64-26.32-5.823-14.095-15.662-27.427 8.41-43.2 7.38-4.85 15.06-9.28 21.75-15.1 20.3-17.645 22.519-45.971 13.4-54.239zm-61.22 32.22c.025.389.171 1.045.26 1.38-16.569 7.271-24.051 21.227-22.81 34.94-8.403-17.972 3.563-30.356 22.55-36.32zm-21.93 38.24c.02.021.03.04.04.061 0 0-.02.01-.02.02a.19.19 0 01-.02-.081zm75.23-23.62c-15.535 17.703-45.832 24.573-43.55 45.75 1.207 11.019 10.133 22.296 11.35 27.311 3.174 13.123-17.963 26.659-27.43 19.31 4.433.477 9.54-2.942 11.94-6.96.302-1.101.302-4.294-1.93-8.06-5.682-9.708-17.007-7.609-25.5-14.44-3.81-3.06-6.81-7.27-8.18-12-3.542-12.195 5.291-22.773 8.35-27.4l-.4-.79c-1.744-13.806 8.071-30.664 22.64-35.979-.044-.089-.22-1.106-.22-1.74-.058-6.386 7.545-11.939 13.5-11.939-7.29-12.228 3.765-20.163 9.51-15.08.046.022.415.359.58.58.02.01.04.029.04.05.97 1.14 1.33 2.56 1.35 4.03-.25-1.46-.85-2.78-2.03-3.721-3.075-4.464-20.004 4.023-3.53 14.99-4.196-5.593-4.388-10.792 1.97-14.22-1.868 2.829-1.264 6.942 1.13 9.819 5.876 7.062 22.977 4.923 30.75 1.011 5.573-2.813 9.361-6.896 7.93-16.73 9.537 11.063 1.383 35.223-8.27 46.208z" fill="#0d0905"/><path d="M190.858 199.866c-6.008-10.158-13.474-11.973-19.628-13.936-6.323-2.016-19.346-3.178-26.449-4.6-6.86-1.373-23.153-5.789-23.339-13.488-.192-8.066 4.291-40.09 4.291-40.09H74.005s4.487 32.023 4.294 40.09c-.184 7.699-16.48 12.115-23.341 13.488-7.104 1.422-20.125 2.584-26.448 4.6-6.156 1.963-13.624 3.777-19.632 13.936-3.644 6.16-6.008 16.133-6.008 27.133h194c-.001-11-2.361-20.973-6.012-27.133z" fill="#daa488"/><path d="M121.442 167.843c2.495 10.929 18.165 13.698 26.293 15.325 21.909 4.379 33.772 5.134 42.297 19.539 2.903 4.916 5.459 15.864 5.962 24.153 1.835.291.531-17.432-5.136-26.994-9.742-16.472-29.089-15.135-46.077-18.535-6.86-1.373-23.153-5.789-23.339-13.488zm-42.884 0c-.186 7.699-16.479 12.115-23.339 13.488-16.988 3.4-36.335 2.063-46.077 18.535-5.667 9.563-6.971 27.285-5.136 26.994.503-8.289 3.059-19.237 5.962-24.153 8.524-14.405 20.388-15.16 42.297-19.539 8.128-1.627 23.798-4.397 26.293-15.325z" fill="#e9bfa9"/><path d="M51.206 189.513s28.641.299 33.473 1.885c2.314.758 8.372 5.633 8.372 5.633s-6.556-3.17-8.658-3.758c-4.883-1.364-33.187-3.76-33.187-3.76zm48.589 10.486c2.053-.041 7.887-3.799 7.887-3.799s-5.574 2.059-7.342 2.16c-1.491.086-6.366-1.238-6.366-1.238s4.138 2.91 5.821 2.877zm17.213-7.242c6.75-1.818 29.786-3.23 29.786-3.23s-23.791-.516-30.51 1.725c-2.252.752-7.562 5.16-7.562 5.16s6.064-3.058 8.286-3.655z" fill="#cb8b6a"/><path d="M190.858 199.866c-9.741-16.471-29.122-15.142-46.077-18.535-6.86-1.373-23.153-5.789-23.339-13.488-.192-8.066 4.291-40.09 4.291-40.09H74.005s4.487 32.023 4.294 40.09c-.184 7.699-16.48 12.115-23.341 13.488-7.104 1.422-20.125 2.584-26.448 4.6-6.156 1.963-13.624 3.777-19.632 13.936C5.234 206.027 2.87 216 2.87 227h194c-.001-11.001-2.361-20.974-6.012-27.134z" fill="none" stroke="#ac5f38" stroke-width="1.5"/><path d="M74.767 128.517c.729 5.276 4.358 31.969 4.182 39.342-.001.048-.011.094-.013.141 5.877 2.477 12.865 4.005 21.167 4 8.141.005 14.977-1.448 20.719-3.824-.008-.105-.026-.209-.029-.315-.175-7.381 3.45-34.068 4.179-39.343l.017-.113H74.751l.016.112z" fill="url(#a)"/><path d="M110.139 228.889c-17.864 0-38.7-.069-63.699-.213l-22.105-.12c-13.348-.072-16.001-.087-17.631-.087l-4.573.006c.032-40.523 20.015-43.334 41.17-46.313 7.271-1.023 14.789-2.082 21.584-4.733 8.525 11.975 21.924 13.591 33.912 13.591.667 0 1.341-.006 2.016-.017 12.668-.285 27.552-4.774 32.317-14.161.614.234 1.186.504 1.738.766.621.293 1.263.597 1.974.854 4.65 1.684 10.432 2.48 16.552 3.324 20.011 2.76 44.916 6.193 44.578 45.069.003.154.004 1.097-.012 1.392-11.682 0-19.607.113-28.782.244-12.445.178-27.935.398-59.027.398h-.012z" fill="#09aac5"/><path d="M197.869 226.999c-2.027-5.485-.96-15.439-6.837-24.292-11.653-17.556-33.322-15.948-53.227-21.639-4.204 8.565-12.24 13.539-21.429 16.39l-.016-.047c9.016-3.198 16.683-8.066 21.003-16.475a78.151 78.151 0 01-1.499-.448l.956-1.836c24.187 7.439 43.709 2.062 55.037 21.214 3.652 6.16 6.012 16.133 6.012 27.133zM57.233 182.344c1.267-.294 2.53-.607 3.788-.948l-1.332-1.765c-23.343 6.027-40.887 2.21-51.548 20.235-3.65 6.16-6.011 16.133-6.011 27.133 2.027-5.485.96-15.439 6.837-24.292 10.571-15.926 29.385-16.085 47.646-20.225 6.519 8.028 16.042 13.7 26.402 15.333-12.995-3.39-21.077-9.672-25.782-15.471z" fill="#1fbad4"/><path d="M132.08 178.811c-4.996 7.702-18.542 12.955-33.907 12.955-15.182 0-27.706-5.206-33.5-13.926l-.044-.065 1.235 1.856c-1.369.581-4.817 1.748-4.817 1.748l-1.446-1.86.089.117c.271.354.553.736.851 1.14 4.359 5.904 11.656 15.785 36.296 15.785 2.162 0 4.443-.079 6.78-.235 16.303-1.168 26.873-6.359 32.244-15.839-.055-.023-2.509-1.031-3.781-1.676z" fill="#009cb6"/><path d="M133.079 176.717c-5.041 10.081-21.03 13.934-32.27 14.187-14.635.228-27.563-1.841-35.89-13.597-26.368 10.344-62.89-3.587-62.89 51.269 9.28 0-4.304-.062 44.41.2 115.375.663 115.16-.43 151.61-.43.027-.131.023-1.356.021-1.49.44-50.604-41.021-41.186-61.195-48.488-1.371-.497-2.453-1.15-3.796-1.651zm-68.49 1.179c13.809 20.776 60.199 16.511 68.44-.561 1.12.471 2.34.94 3.64 1.4-3.904 8.186-12.275 16.001-33.06 17.49-32.014 2.134-39.41-10.844-43.84-16.65.136-.038 3.456-1.168 4.82-1.679zm-62.42 50.509c2.5-22.877 4.756-39.219 32.69-44.068 9.593-1.77 14.509-1.939 24.83-4.731 7.873 10.792 15.739 18.518 44.7 17.3 21.37-2.377 28.569-9.619 32.461-18.1 26.52 8.347 59.285-.172 60.88 49.38-50.465-.657-99.22-1.97-195.561.219z" fill="#008197"/><path d="M45.671 83.846c-1.485-2.408-6.327-8.995-10.031-8.071-3.012.755-2.973 4.861-3.206 7.289-.34 3.563-.464 9.771.525 12.29.951 2.418 3.96 7.092 5.828 8.874 2.299 2.185 5.97 9.15 6.422 9.872.711 1.142 2.137 2.776 4.325 2.647 3.071-.181 5.724-3.018 5.965-4.386 1.301-7.42-5.963-22.251-9.828-28.515z" fill="#daa488" stroke="#ac5f38" stroke-width="1.5"/><path d="M44.2 98.511c-.143-.55.007-1.479.154-2.375.133-.817.258-1.588.182-2.134-.289-2.043-1.915-5.926-2.976-8.03-1.223-2.421-3.199-5.471-5.679-6.257-1.024-.326-1.699.063-2.089.458-.288.29-.353.63-.259.671.095.04.307-.242.617-.508.254-.217-.508-.039 0 0-.205 1.017-.865 6.162-.41 9.918.358 2.955 1.05 5.162 1.263 5.492.031.349.083.689.16 1.02 1.002 4.312 7.518 9.95 9.034 11.557.28.296.574.473.646.4.072-.073-.101-.365-.379-.664-1.498-1.595-7.971-7.214-8.939-11.375-1.027-4.414 3.912-10.958 4.699-12.343.401.65.742 1.274 1.004 1.795.207.408.434.886.67 1.403-.463.721-5.118 5.992-3.934 10.21.438 1.556 3.822 3.561 5.131 4.11.72.303.99.754 1.304 1.277.364.608.033 2.179 1.23 2.677.244.103.464.144.659.144.338 0 .594-.127.783-.278.02.266.019.605.009.921-.012.407.047.596.148.604.103.008.21-.17.223-.574.017-.5.014-1.116-.077-1.412-.269-.868-1.088-1.851-1.957-2.89-.854-1.024-.995-2.964-1.217-3.817zm-9.231-3.823c-2.348-6.77 1.283-12.936 1.81-13.865 1.012.39 2.562 2.145 3.221 3.163-.48.816-4.933 6.149-5.031 10.702zm10.803 10.787c-1.084-.451-.706-1.939-1.056-2.525-.318-.531-.646-1.078-1.479-1.429a3.806 3.806 0 01-.583-.325c-2.682-5.939.293-8.537 1.039-9.068.229.726.399 1.392.476 1.926.068.49-.059 1.27-.181 2.023-.153.934-.31 1.901-.147 2.526.244.931.411 2.904 1.291 3.958.781.935 1.583 1.899 1.857 2.685-.118.157-.489.532-1.217.229z" fill="#ac5f38"/><path d="M154.066 83.846c1.486-2.408 6.328-8.995 10.031-8.071 3.012.755 2.973 4.861 3.207 7.289.34 3.563.463 9.771-.525 12.29-.951 2.418-3.961 7.092-5.828 8.874-2.299 2.185-5.971 9.15-6.422 9.872-.711 1.142-2.137 2.776-4.326 2.647-3.07-.181-5.723-3.018-5.965-4.386-1.3-7.42 5.965-22.251 9.828-28.515z" fill="#daa488" stroke="#ac5f38" stroke-width="1.5"/><path d="M154.322 102.327c-.869 1.039-1.688 2.022-1.957 2.89-.092.296-.094.912-.078 1.412.014.404.121.582.225.574.102-.008.16-.196.148-.604a9.285 9.285 0 01.008-.921c.189.151.445.278.783.278.195 0 .416-.041.66-.144 1.195-.498.865-2.068 1.229-2.677.314-.523.584-.975 1.305-1.277 1.309-.549 4.693-2.554 5.131-4.11 1.184-4.218-3.471-9.489-3.934-10.21.234-.517.463-.995.668-1.403a24.53 24.53 0 011.006-1.795c.787 1.384 5.725 7.929 4.699 12.343-.969 4.161-7.441 9.781-8.939 11.375-.279.299-.453.591-.381.664.074.072.367-.104.646-.4 1.516-1.606 8.031-7.245 9.033-11.557.078-.33.131-.671.162-1.02.211-.331.904-2.537 1.262-5.492.455-3.756-.205-8.901-.41-9.918.508-.039-.254-.217 0 0 .311.266.523.548.617.508.094-.041.029-.381-.258-.671-.391-.394-1.066-.784-2.09-.458-2.48.786-4.457 3.836-5.68 6.257-1.061 2.104-2.686 5.987-2.975 8.03-.076.546.049 1.317.182 2.134.146.896.297 1.824.154 2.375-.222.854-.362 2.794-1.216 3.817zm5.416-18.34c.66-1.019 2.209-2.773 3.221-3.163.527.929 4.158 7.095 1.811 13.865-.098-4.554-4.551-9.887-5.032-10.702zm-6.988 21.259c.273-.785 1.076-1.75 1.857-2.685.879-1.053 1.047-3.026 1.291-3.958.162-.625.006-1.592-.146-2.526-.123-.754-.25-1.534-.182-2.023.076-.535.246-1.201.475-1.926.746.531 3.721 3.128 1.039 9.068a3.758 3.758 0 01-.584.325c-.832.351-1.16.898-1.479 1.429-.35.586.029 2.074-1.055 2.525-.728.303-1.099-.072-1.216-.229z" fill="#ac5f38"/><path d="M100.103.867C66.481.814 39.286 27.899 39.234 61.374a60.458 60.458 0 001.953 15.389h.004c.011.053 6.322 32.098 11.785 46.085 4.253 10.89 10.61 37.576 47.125 37.555 36.515.021 42.872-26.665 47.125-37.555 5.463-13.987 11.773-46.032 11.785-46.085h.005a60.452 60.452 0 001.952-15.389C160.919 27.899 133.723.814 100.103.867z" fill="#daa488"/><path d="M150.307 27.3c5.293 9.096 8.347 19.746 8.364 31.14a62.567 62.567 0 01-1.883 15.389h-.004c-.012.053-5.969 32.098-11.234 46.085-4.1 10.89-10.353 37.576-45.547 37.555-35.195.021-41.448-26.665-45.547-37.555-5.266-13.987-11.223-46.032-11.234-46.085h-.004a62.56 62.56 0 01-1.882-15.389c.017-11.394 3.071-22.043 8.362-31.139-6.647 9.702-10.543 21.43-10.563 34.072a60.458 60.458 0 001.953 15.389h.004c.011.053 6.322 32.098 11.785 46.085 4.253 10.89 10.61 37.576 47.125 37.555 36.515.021 42.873-26.665 47.125-37.555 5.463-13.987 11.773-46.032 11.785-46.085h.005a60.452 60.452 0 001.952-15.389A60.217 60.217 0 00150.307 27.3z" fill="#d29779"/><path d="M100.103.867C66.481.814 39.286 27.899 39.234 61.374a60.458 60.458 0 001.953 15.389h.004c.011.053 6.322 32.098 11.785 46.085 4.253 10.89 10.61 37.576 47.125 37.555 36.515.021 42.872-26.665 47.125-37.555 5.463-13.987 11.773-46.032 11.785-46.085h.005a60.452 60.452 0 001.952-15.389C160.919 27.899 133.723.814 100.103.867z" fill="none" stroke="#ac5f38" stroke-width="1.5"/><path d="M99.983 143.169c-3.24 0-4.753-3.102-4.753-3.102l9.279-.067s-1.677 3.169-4.526 3.169z" fill="url(#b)"/><path d="M99.869 131.603c-6.552 0-9.471 2.347-12 5.397h24c-2.098-3.125-5.166-5.397-12-5.397z" fill="#fff"/><path d="M99.869 131.603c-6.552 0-9.471 2.347-12 5.397h24c-2.098-3.125-5.166-5.397-12-5.397z" fill="none" stroke="#d12800" stroke-width=".75"/><path d="M61.952 84.523c-.506-2.285 5.191-3.973 12.711-3.051 7.518.923 12.738 5.524 12.052 7.844-.38 1.286-10.639 3.245-14.253 2.847-3.664-.405-9.288-2.123-10.51-7.64z" fill="url(#c)"/><path d="M84.379 90.205c-1.521 7.45-7.283 11.838-12.882 9.792-5.594-2.044-8.899-9.75-7.376-17.2 1.521-7.454 7.296-11.841 12.89-9.794 5.59 2.043 8.891 9.748 7.368 17.202z" fill="#3c8d8e" stroke="#0c5f60" stroke-width=".5"/><path d="M82.746 90.379c-1.484 5.719-5.964 9.057-10.323 7.465-4.024-1.474-6.565-6.625-6.235-12.067a28.548 28.548 0 014.822-.093c-.017.078-.047.145-.063.225-.533 2.626.713 5.377 2.787 6.138 2.081.759 4.202-.764 4.738-3.387.066-.343.103-.687.113-1.025a19.138 19.138 0 014.161 2.744z" fill="#529c9d"/><path d="M75.671 82.326c-2.102-.804-4.249.797-4.791 3.59-.544 2.781.721 5.689 2.823 6.493 2.107.805 4.254-.797 4.797-3.577.548-2.795-.723-5.705-2.829-6.506zm.461 9.874c-.875.362-1.78-.119-2.021-1.079-.232-.958.286-2.022 1.167-2.377.881-.362 1.782.12 2.025 1.073.237.954-.284 2.02-1.171 2.383z" opacity=".9"/><path d="M68.67 93.872c-.648.518-1.613.056-2.168-1.042-.554-1.088-.47-2.391.181-2.911.641-.51 1.618-.047 2.168 1.042.544 1.09.466 2.394-.181 2.911z" fill="#fff" opacity=".6"/><path d="M82.493 85.895c-1.481 1.181-3.707.116-4.966-2.38-1.26-2.5-1.07-5.489.41-6.667 1.478-1.188 3.704-.123 4.958 2.378 1.259 2.5 1.078 5.483-.402 6.669z" fill="#fff" opacity=".9"/><path d="M55.5 88c0 13.807 8.06 24.999 18 24.999s18-11.192 18-24.999c0-13.808-8.06-25-18-25s-18 11.192-18 25zm6.452-3.477c-.506-2.285 5.191-3.973 12.711-3.051 7.518.923 12.738 5.524 12.052 7.844-.38 1.286-10.639 3.245-14.253 2.847-3.664-.405-9.288-2.123-10.51-7.64z" fill="#daa488"/><path d="M72.462 92.163c3.614.398 13.873-1.561 14.253-2.847.687-2.32-4.534-6.921-12.052-7.844-6.46-.792-11.563.345-12.556 2.128.898-6.4 7.7-11.397 15.987-11.434 8.911-.037 16.148 5.676 16.172 12.765.021 7.088-7.185 12.862-16.095 12.902-8.913.037-16.149-5.676-16.173-12.764 0-.105.016-.208.019-.313 1.331 5.327 6.835 7.008 10.445 7.407z" fill="url(#d)"/><path d="M61.952 84.523c-.506-2.285 5.191-3.973 12.711-3.051 7.518.923 12.738 5.524 12.052 7.844-.38 1.286-10.639 3.245-14.253 2.847-3.664-.405-9.288-2.123-10.51-7.64z" fill="url(#e)"/><path d="M62.349 79.417c4.208-1.978 9.35-2.16 13.838-1.005 2.404.561 4.965 1.285 7.063 2.638 1.945 1.135 3.525 2.5 5.002 4.19-1.342-1.701-2.773-3.118-4.623-4.27-2.276-1.416-4.769-2.294-7.364-2.916-4.587-1.126-9.723-.87-13.916 1.363z" fill="#ac5f38"/><path d="M57.318 80.972s2.328.881 3.595.62c-.39-.459-1.096-1.604-1.096-1.604s1.853.551 3.151.032c.88-.352 4.065-1 5.456-1.066 1.687-.082 5.073.125 6.735.424 3.374.608 8.985 2.63 11.678 7.184.255.572 1.407.921 1.407.921s-1.02-.215-1.149.042c-.282.561 1.298 2.016 1.496 2.197-.161-.145-1.289-1.135-1.722-.967-.061.022-.137.388-.155.482.3-2.426-4.838-6.746-12.052-7.604-7.52-.894-13.217.743-12.711 2.958 1.222 5.348 6.846 7.013 10.51 7.405 2.526.271 8.298-.577 11.675-1.537l1.011-.317c-1.999 1.009-7.524 2.195-9.767 2.403-.744.07-2.24.104-2.986.085-5.949-.158-10.16-3.179-11.729-7.26-.125-.328-.494-.619-.838-.696-1.604-.361-5.096-1.811-5.096-1.811 2.32.361 3.483.674 5.305.059-1.779-.666-2.718-1.95-2.718-1.95z"/><path d="M138.048 84.523c.506-2.285-5.191-3.973-12.711-3.051-7.518.923-12.738 5.524-12.052 7.844.38 1.286 10.639 3.245 14.253 2.847 3.664-.405 9.288-2.123 10.51-7.64z" fill="url(#f)"/><path d="M135.879 90.205c-1.521 7.45-7.283 11.838-12.882 9.792-5.594-2.044-8.899-9.75-7.376-17.2 1.521-7.454 7.296-11.841 12.89-9.794 5.59 2.043 8.891 9.748 7.368 17.202z" fill="#3c8d8e" stroke="#0c5f60" stroke-width=".5"/><path d="M134.246 90.379c-1.484 5.719-5.964 9.057-10.323 7.465-4.024-1.474-6.565-6.625-6.235-12.067a28.548 28.548 0 014.822-.093c-.017.078-.047.145-.063.225-.533 2.626.713 5.377 2.787 6.138 2.081.759 4.202-.764 4.738-3.387.066-.343.103-.687.113-1.025a19.138 19.138 0 014.161 2.744z" fill="#529c9d"/><path d="M127.171 82.326c-2.102-.804-4.249.797-4.791 3.59-.544 2.781.721 5.689 2.823 6.493 2.107.805 4.254-.797 4.797-3.577.548-2.795-.723-5.705-2.829-6.506zm.461 9.874c-.875.362-1.78-.119-2.021-1.079-.232-.958.286-2.022 1.167-2.377.881-.362 1.782.12 2.025 1.073.237.954-.284 2.02-1.171 2.383z" opacity=".9"/><path d="M120.17 93.872c-.648.518-1.613.056-2.168-1.042-.554-1.088-.47-2.391.181-2.911.641-.51 1.618-.047 2.168 1.042.544 1.09.466 2.394-.181 2.911z" fill="#fff" opacity=".6"/><path d="M133.993 85.895c-1.481 1.181-3.707.116-4.966-2.38-1.26-2.5-1.07-5.489.41-6.667 1.478-1.188 3.704-.123 4.958 2.378 1.259 2.5 1.078 5.483-.402 6.669z" fill="#fff" opacity=".9"/><path d="M126.5 63c-9.94 0-18 11.192-18 25 0 13.807 8.06 24.999 18 24.999s18-11.192 18-24.999c0-13.808-8.06-25-18-25zm1.038 29.163c-3.614.398-13.873-1.561-14.253-2.847-.687-2.32 4.534-6.921 12.052-7.844 7.52-.922 13.217.767 12.711 3.051-1.222 5.517-6.846 7.235-10.51 7.64z" fill="#daa488"/><path d="M127.538 92.163c-3.614.398-13.873-1.561-14.253-2.847-.687-2.32 4.534-6.921 12.052-7.844 6.46-.792 11.563.345 12.556 2.128-.898-6.4-7.7-11.397-15.987-11.434-8.911-.037-16.148 5.676-16.172 12.765-.021 7.088 7.185 12.862 16.095 12.902 8.913.037 16.149-5.676 16.173-12.764 0-.105-.016-.208-.019-.313-1.331 5.327-6.835 7.008-10.445 7.407z" fill="url(#g)"/><path d="M138.048 84.523c.506-2.285-5.191-3.973-12.711-3.051-7.518.923-12.738 5.524-12.052 7.844.38 1.286 10.639 3.245 14.253 2.847 3.664-.405 9.288-2.123 10.51-7.64z" fill="url(#h)"/><path d="M137.651 79.417c-4.208-1.978-9.35-2.16-13.838-1.005-2.404.561-4.965 1.285-7.063 2.638-1.945 1.135-3.525 2.5-5.002 4.19 1.342-1.701 2.773-3.118 4.623-4.27 2.276-1.416 4.769-2.294 7.364-2.916 4.587-1.126 9.723-.87 13.916 1.363z" fill="#ac5f38"/><path d="M142.682 80.972s-2.328.881-3.595.62c.39-.459 1.096-1.604 1.096-1.604s-1.853.551-3.151.032c-.88-.352-4.065-1-5.456-1.066-1.687-.082-5.073.125-6.735.424-3.374.608-8.985 2.63-11.678 7.184-.255.572-1.407.921-1.407.921s1.02-.215 1.149.042c.282.561-1.298 2.016-1.496 2.197.161-.145 1.289-1.135 1.722-.967.061.022.137.388.155.482-.3-2.426 4.838-6.746 12.052-7.604 7.52-.894 13.217.743 12.711 2.958-1.222 5.348-6.846 7.013-10.51 7.405-2.526.271-8.298-.577-11.675-1.537l-1.011-.317c1.999 1.009 7.524 2.195 9.767 2.403.744.07 2.24.104 2.986.085 5.949-.158 10.16-3.179 11.729-7.26.125-.328.494-.619.838-.696 1.604-.361 5.096-1.811 5.096-1.811-2.32.361-3.483.674-5.305.059 1.779-.666 2.718-1.95 2.718-1.95z"/><path d="M140.204 113.007c.035 22.275-17.995 40.365-40.273 40.396-22.274.036-40.361-17.993-40.396-40.272-.034-22.274 17.995-40.361 40.273-40.396 22.275-.034 40.363 17.995 40.396 40.272z" fill="url(#i)"/><path d="M135 55.999c0 19.329-15.671 35-35 35s-35-15.671-35-35 15.671-35 35-35 35 15.671 35 35z" fill="url(#j)"/><path d="M90.857 72.446c-12.948-4.229-18.875-4.225-33.252-2.519-.434.051-2.459.548-2.637.221 11.896-2.694 21.942-3.566 33.164.925.399.16 2.779 1.045 2.725 1.373zm18.121-.032c9.882-6.264 21.947-6.458 33.14-3.238.444.128 2.899.624 2.915 1.026-24.447-5.39-36.055 2.212-36.055 2.212z" fill="#3b3128"/><path d="M108.922 115.926c.172-.464.276-.95.358-1.437.03-.18-.207-.842-.228-.632-.092.854-.554 2.051-1.445 2.313-1.022.299-1.61-.05-1.703-1.063-.094-1.02.269-2.375-.099-3.323-.238-.613-.773-1.111-1.321-1.456.413 1.849.743 4.265-1.02 5.589.151.18.289.266.422.302a1.643 1.643 0 00-.422.118c-.697.317-3.238.92-3.978.596-.175-.077-.561-.139-1.047-.186-.326-.286-.924-1.031-1.203-1.204-1.098-.682-1.671-1.876-1.739-3.148-.147-2.679 1.239-5.664 4.39-6.829-3.231-.91-4.574 4.413-6.69 5.6-1.267.711-2.476 1.342-2.453 2.929.007.525.07 1.286.307 1.925-.38-.536-.631-1.021-.667-.594-.309 3.608 4.084 2.615 5.457 2.864 1.134.205 3.081.493 4.027.51 1.027.018 2.582-.342 3.596-.51.982-.165 2.696.033 3.957-.535.744-.336 1.812-.556 1.812-2.005l-.363.296c.017-.041.037-.079.052-.12z" fill="#cb8b6a"/><path d="M90.631 113.653c.136-.436.335-.872.66-1.201-.57.992-.649 2.412-.137 3.444.629 1.269 1.752 1 2.828.511s1.976-.851 3.094-.478c.87.29 1.569.722 2.526.72 1.023-.002 1.786-.428 2.736-.724 1.155-.345 2.129-.147 3.214.342 1.021.461 2.191 1.044 2.981-.106.698-1.04.623-2.648.015-3.709 1.364 1.398 1.034 5.385-1.576 4.882-.358-.073-.991-.512-1.311-.425-.577.157-1.305.006-1.889-.05-1.061-.103-1.982-.099-2.991.158-.387.09-.784.143-1.182.139-.474-.005-.954-.241-1.404-.214-1.265.077-2.516-.194-3.785-.112-1.081.069-1.945 1.023-3.018.159-.947-.796-1.092-2.209-.761-3.336.069-.222-.131.446 0 0zm10.448-7.856c.503.105.96.334 1.384.62-1.257-2.003-4.454-1.277-5.726.313 1.301-.694 2.853-1.265 4.342-.933.241.051-.481-.108 0 0z" fill="#ac5f38"/><path d="M91.934 113.093c-1.776.928 1.459 5.222.898 1.789-.234-1.432.571-2.413-.898-1.789-.596.255.329-.172 0 0z" fill="#e9bfa9"/><path d="M163.476 45.849c-5.519-34.778-111.662-67.828-118.46-15.277-.885 18.136-10.912 73.919-11.9 84.041 6.018-18.799 20.431-5.47 38.764-49.857 4.9-11.864 11.813-39.917 31.311-41.801 9.464-.893 16.743 3.867 19.483 12.72 8.666-4.414 8.823 13.935 10.045 23.533 1.612 12.513.039 18.399 7.431 27.51.063.161 1.351 1.595 1.363 1.609 11.489 12.621 22.998 12.145 25.989 24.744 1.173 4.932-5.766-67.708-4.026-67.222z" fill="#3b3128" opacity=".1"/><path d="M10.679 67.989c-.08.52-.14 1.05-.18 1.58-3.683 6.71-.19 17.072 7.2 19.07 3.015 2.597 6.918 4.146 10.19 4.51-15.537 2.907-24.403-12.993-17.21-25.16zm130.31 82.813c1.873 11.332-8.278 12.377-17.511 19.258l-.136-.146c3.56-4.151 8.838-4.812 12.242-8.592 5.51-6.138-.258-14.435 1.428-20.549 2.926-10.847 21.597-10.767 21.597-24.554-.088-11.4-10.183-10.74-13.68-25.996 3.991 4.223 8.235 7.215 14.113 9.352 2.064 2.779 5.38 10.297 2.086 14.754l-.133-.071c1.018-3.279.099-7.181-1.637-9.489-1.885-2.487-3.539-2.963-5.204-3.87 6.479 8.318 6.148 15.227 6.144 15.296 0 18.127-24.507 11.586-19.896 31.825.395 1.726.462 2.093.595 2.789l-.008-.007zM28.074 93.072a25.8 25.8 0 01-2.282.473c-19.331 17.736 8.183 44.458 20.79 26.081l-.148-.132c-1.512 1.33-3.145 2.004-4.854 2.004h-.001c-4.978-.002-9.098-5.829-7.713-10.782 2.755-9.938 16.66-13.418 22.715-21.969 3.322-4.667 7.244-13.057 9.402-18.934l-.181-.083c-9.065 16.289-23.697 25.106-37.728 23.342zm26.672-1.239c-2.594 6.695-17.633 13.882-13.478 23.168l.189-.06c-.4-2.134.236-4.373 1.944-6.846 5.659-8.237 14.417-8.034 16.256-22.935l-.188-.059c-1.45 2.741-2.006 3.88-4.723 6.732zm114.68 15.73c1.005 1.093 2.341 3.133 3.048 5.467l.195-.025c.314-7.889-6.813-11.093-13.422-13.359.99 1.468 13.351 10.311 5.77 21.729-6.407 9.553-20.878 9.986-24.507 22.293.191 2.607 1.072 5.197 1.342 8.249 1.865 3.505 1.438 5.546.955 6.777l.176.092c2.649-3.987.84-6.468-.039-8.81-4.883-13.385 11.86-17.55 21.416-26.186 7.449-7.448 7.023-12.846 5.066-16.227zm3.785-19.889c4.254-.131 8.963-2.941 9.957-8.197l-.181-.076c-3.981 5.667-9.384 4.417-10.994 3.249 4.146-3.207 6.866-7.883 7.496-13.841.855-8.086-2.466-16.957-6.196-21.562.679-4.414-.745-5.51-3.217-7.753l-.149.131c2.775 4.03-1.925 10.404-7.444 2.045 1.132 1.552 2.68 3.229 4.529 3.746C161.146 8.458 137.41-4.324 123.985.435c-44.853-30.048-87.356 3.13-94.583 58.978-8.654-6.647-17.233-1.502-18.283 9.256-2.856 27.867 36.579 37.724 57.34-6.717 5.763-12.363 13.758-38.861 34.479-40.863.731-.07 1.461-.106 2.166-.106 8.938 0 15.002 5.705 17.664 14.319 9.215-4.692 12.382 13.048 13.681 23.25 1.714 13.297.041 19.554 7.897 29.234.067.171 1.436 1.697 1.448 1.711 12.213 13.413 23 8.257 26.729 19.893 1.64 5.134-1.395 9.365-4.83 13.418 1.683-.594 5.142-.965 8.508-2.992 10.803-6.517 12.52-21.241-2.99-32.142z" fill="#3b3128"/><path d="M80.007 36.444c3.484-8.505 13.429-16.407 28.114-15.8 7.039.291 15.361 8.612 14.549 15.101-9.122-8.453-29.394-8.453-42.663.699z" fill="#1c150e"/><path d="M170.429 39.816c2.258 2.056 3.086 2.956 2.981 5.889-1.468 6.625-9.488 4.38-13.608.529 7.969 4.011 13.608-.529 10.627-6.418zm12.739 39.662l-.05-.021c-.736 1.761-1.699 3.408-3.118 4.827-7 5-16 2-22-3 4.172 4.768 9.765 6.677 15.508 6.609-.101-.072-.195-.147-.297-.219 4.254-.131 8.963-2.941 9.957-8.196zM21 106.283c.924-5.081 3.351-9.303 6.474-13.071 0 0-.799.187-1.682.333-13.494 12.38-4.18 29.248 7.159 31.901-7.382-3.722-12.657-10.692-11.951-19.163zM65.802 69.73c-1.389 5.293-6.815 15.637-9.221 19.017-6.055 8.55-19.96 12.031-22.715 21.969-1.832 6.554 5.961 14.591 12.568 8.778l.148.132a18.011 18.011 0 01-1.248 1.604c-11.551 8.911-20.499-8.806-11.334-17.946 9.878-9.85 23.354-10.072 31.802-33.554zM27.801 93.135c-13.83 3.412-24.862-12.053-17.122-25.146-.08.52-.14 1.05-.18 1.58-3.683 6.71-.19 17.072 7.2 19.07 2.989 2.574 6.848 4.115 10.102 4.496zm141.387 29.254c-1.076.251-1.021.252-1.494.419 3.436-4.053 6.47-8.284 4.83-13.418-3.797-11.849-14.94-6.297-27.454-20.715-.021-.132-.021-.132 0 0-8.636-9.933-6.913-16.879-8.62-30.123-1.299-10.201-4.466-27.941-13.681-23.25-3.2-10.356-10.696-15.091-19.83-14.213-20.72 2.001-28.716 28.5-34.479 40.863-17.827 38.158-49.375 36.244-56.151 17.442 2.157 2.185 8.936 7.523 11.927 8.292C40.55 91.879 52 82.284 59 67.284c10-22 21-60 51-52 6 2 13 8 14 16 1-4 5.137-1.504 6-1 7.536 4.402 8 31 12 47 2 8 8 13 14 16 9 4 25 10 19 22 6.769-4.062 8.493-11.33 7.043-18.394 5.822 10.061 1.611 22.135-12.855 25.499zm-8.059-8.06l-.133-.071c1.017-3.275.104-7.174-1.637-9.489-1.885-2.487-3.539-2.963-5.204-3.87 4.465 5.581 6.358 12.247 6.144 15.296 0 8.941-6.206 12.02-11.986 15.351 4.062-3.166 8.695-5.614 10.688-10.262 1.146-3.44 1.423-9.372-2.048-13.682-11.664-14.484-11.253-14.337-11.94-17.292 3.938 3.995 7.768 6.989 14.031 9.265 2.063 2.779 5.379 10.297 2.085 14.754zm11.54-1.325l-.195.025c-.707-2.334-2.043-4.374-3.048-5.467 1.957 3.382 2.383 8.779-5.066 16.228-9.556 8.636-26.299 12.801-21.416 26.186.879 2.342 2.688 4.822.039 8.81l-.176-.092c.483-1.231.91-3.272-.955-6.777-.27-3.052-1.15-5.642-1.342-8.249 3.629-12.307 18.1-12.74 24.507-22.293 7.571-11.404-4.733-20.192-5.77-21.729 6.608 2.265 13.736 5.469 13.422 13.358zm-33.75-101.536c1.651-.094 6.902.992 11.702 5.47.264.246 1.177.876 1.267 1.242-.053-.213-.432-.529-.565-.695-8.649-10.731-20.844-10.137-26.215 1.18 3.729-5.926 7.352-7.427 13.811-7.197zM125.292 12.5c3.131-6.863 6.52-8.033 11.678-9.144-2.425.7-4.488 1.909-6.559 3.308-2.207 1.491-3.769 3.584-5.119 5.836zM98.428-3.456c6.193.112 9.726.061 15.894 2.858 3.988 1.808 8.072 6.634 9.125 10.58.092.343.146.956.357 1.247-.157-.216-.236-.559-.338-.802-.903-2.179-2.23-4.043-3.886-5.615-3.045-2.892-9.305-6.081-13.272-7.017-2.595-.612-5.238-.923-7.88-1.251zM85.466 8.464c8.818-2.963 18.533-4.691 27.102-.052 7.246 3.922 12.452 15.885 12.019 21.152.035-.425-.144-.972-.211-1.389-.442-2.74-1.213-5.677-3.733-9.784-8.021-13.069-20.488-13.879-35.177-9.927zm39.622 16.872c4.646-5.594 9.915-8.012 15.557-3.422 3.039 2.473 5.411 7.471 7.541 12.139.311.68 1.049 1.718 1.128 2.47-.023-.226-3.622-5.88-3.745-6.071-8.109-12.362-13.295-11.777-20.481-5.116zm3.79 2.894c2.147-.928 5.885-2.564 10.627 3.72 8.927 11.829 8.434 30.24 9.228 31.829 0 0-2.488-11.189-5.874-20.503-2.357-6.943-6.085-18.386-13.981-15.046zm.627-27.289c-5.084 7.857-4.512 12.572-4.862 14.069 0-4.912-.396-7.672 4.862-14.069zM51.946 19.75c4.472-7.266 10.315-14.187 17.663-18.69 8.727-4.957 20.542-5.78 22.963-5.192-.413-.1-1.087.085-1.501.125C79.942-2.928 67.39 4.184 60.268 10.735c-3.039 2.795-5.703 5.831-8.322 9.015zm32.657-9.581c-10.324 3.203-16.542 11.63-21.404 21.625C54.049 50.6 52.301 58.256 50.5 65.223c.259-1 5.646-49.053 34.103-55.054zM22.081 63.668c-3.561 8.263 7.553 11.926 16.005 5.157 1.625-1.303 3.44-3.105 4.366-5.016-8.112 16.739-25.89 9.267-20.371-.141zm-2.396 12.686c3.221 6.726 11.029 8.173 17.526 5.532C47.338 77.77 48.468 69.088 49.138 67.6c-.467 1.039-.135 3.909-2.753 8.552-7.062 12.519-23.269 10.289-26.7.202zm131.887-29.363c5.011 7.583 12.652 33.006 27.642 15.851-1.259 1.44-7.862 12.561-17.513 4.278-2.713-2.719-4.492-6.374-6.011-9.85-.768-1.759-4.118-10.279-4.118-10.279z" fill="#2c2219"/><path d="M11.021 72.976a26.67 26.67 0 01.098-4.307c.713-7.312 4.967-12.225 10.584-12.225 2.024 0 4.145.678 6.218 1.957-9.528-3.028-15.498 5.236-16.9 14.575zm15.437 15.026c.412.124.996.163 1.375.362-1.165-.611-2.362-1.095-3.475-1.823-8.705-5.689-9.406-16.603-5.602-22.126 2-2.904 4.856-4.222 8.06-5.354-16.256 1.918-18.509 23.49-.358 28.941zm42.019-51.444c8.522-15.251 18.99-26.346 36.584-25.088 8.769.627 12.573 5.472 13.573 6.249-.695-.54-1.208-1.363-1.875-1.952C106 6.247 83.032 6.989 67.955 31.316c-14.095 22.74-8.382 47.693-30.983 56.808 21.78-7.227 18.722-28.684 31.505-51.566zm72.078-20.624c4.046 2.542 6.225 7.406 8.431 11.449 3.468 6.355 11.339 20.026 18.525 19.247-.817.088-2.025-.526-2.74-.868-6.921-3.315-10.014-14.387-13.951-20.79-7.076-11.503-13.41-15.536-23.121-6.073 3.662-2.801 8.314-5.82 12.856-2.965zm10.119 39.165c.313 0 1.294 3.863 1.411 4.243 3.23 10.488 5.633 20.354 13.769 24.604 3.326 1.738 7.543 1.937 11.065.615-1.68.63-6.101.697-9.473-1.113-8.039-4.448-12.801-20.943-16.772-28.349-.001 0 .347.649 0 0zm12.122 8.94c8.201 8.268 16.567-2.15 16.567-2.15-.07-.044-1.289.962-1.435 1.061-5.791 3.958-11.011 5.188-19.353-9.521-1.483-2.614-2.706-5.6-4.612-7.941 2.535 5.343 4.491 14.173 8.833 18.551zm-2.517 25.263c9.286 3.633 14.87 4.469 17.569 14.461.243.9.716 2.036.731 2.972-.015-.868-.262-1.837-.415-2.689-2.922-16.191-16.892-13.159-24.917-22.424-7.583-8.756-6.702-24.363-14.525-44.845 8.576 29.401 2.06 44.893 21.557 52.525zm-88.25-92.48c1.241-1.198 3.136-1.921 4.725-2.482 7.571-2.674 15.332-1.807 21.078-1.52 13.311.664 19.81 4.694 25.242 10.029-13.312-17.487-42.199-14.566-51.045-6.027zM44.67 22.597c-1.168 2.621-2.494 5.509-3.051 8.347.083-.421.374-.872.547-1.259 2.896-6.466 5.574-10.3 9.528-15.151 3.799-5.568 9.38-11.069 15.787-13.439-7.877 1.947-17.352 9.259-22.811 21.502zm-5.631 33.18c-.198 1.042-.562 2.207-.573 3.274.009-.869.568-1.976.821-2.793 2.163-7.005 3.842-10.827 6.375-17.01 2.431-5.937 3.638-11.355 10.621-20.705-10.338 10.845-14.47 22.582-17.244 37.234zm16.336-27.835c-2.789 4.838-6.141 16.149-6.712 20.02.157-1.067 2.891-7.599 3.657-9.29 1.558-3.547 3.591-6.816 5.289-10.283 6.162-12.574 12.357-15.401 14.494-16.916-7.041 3.308-11.977 8.128-16.728 16.469zM32.739 77.635c3.527.049 6.748-1.36 9.404-3.594 4.966-4.177 5.505-15.654 5.311-16.667.115.6-.32 1.634-.458 2.207-2.021 8.361-5.425 11.157-6.411 12.335-5.188 6.198-12.555 4.282-16.445 4.018 2.678.871 5.732 1.998 8.599 1.701zM135.581 7.312c2.286-.523 5.451-1.355 8.763.376.767.4 1.354.956 2.052 1.447-.68-.478-1.141-1.345-1.83-1.865-4.273-3.233-12.625-4.116-18.211 7.018 2.263-3.269 5.224-6.061 9.226-6.976zm5.783 24.535c5.162 8.297 6.934 15.202 6.99 16.202-.257-4.489-2.794-13.511-5.681-17.594-4.828-6.831-10.648-9.3-16.343-2.971 6.1-5.485 10.664-2.661 15.034 4.363zm-25.921-24.53c4.175 3.956 6.33 6.555 8.45 11.981.154.395.785 1.475.709 1.904.18-1-2.36-12.5-8.289-16.704-5.316-3.771-11.695-5.085-18.12-4.544 6.495.628 12.454 2.819 17.25 7.363zM26.531 114.318c.908 3.285 3.005 5.68 5.192 8.166-2.104-2.392-3.806-5.666-4.187-8.842-1.254-10.454 14.183-19.624 18.236-22.463-10.075 5.195-22.295 12.086-19.241 23.139zM159 121.284c.902-2.707 1.123-5.713.253-8.457-1.509-4.762-10.313-12.876-13.038-18.543 2.083 9.288 12.847 11.595 12.382 22.561-.573 13.472-20.439 13.494-21.831 25.208-.852 7.131 5.628 15.771-4.449 21.886-2.313 1.404-4.846 2.436-6.994 4.104-1.688 1.312-2.598 2.547-1.235 1.572 6.083-4.354 11.355-5.69 14.86-9.83 5.911-6.979-2.328-15.025 2.204-22.31 3.188-5.123 14.697-8.842 17.848-16.191 1.102-3.305-1.992 4.648 0 0z" fill="#4a423a"/><path d="M173.609 87.849c5.387-.243 8.898-3.05 9.87-9.46-3.175 4.882-8.078 5.779-11.181 4.17 11.266-8.857 8.878-24.411 1.141-35.03.742-3.228.077-6.223-4.45-8.89 2.911 2.471 1.497 7.196-1.66 6.74-4.094-36.541-26.934-49.917-43.39-45.29-13.518-9.722-28.565-14.841-45.87-10.29-34.667 9.075-43.87 39.112-48.83 69.36-2.077-1.411-4.948-3.106-7.42-3.13-6.215-.062-10.224 5.815-11.05 11.39-8.445 12.359.59 28.023 14.71 26.25-16.989 15.276 1.356 38.655 15.81 30.931 2.886-1.545 5.02-4.014 6-6.07-4.84 6.229-13.562.649-13.23-5.819.458-8.869 13.948-13.878 20.28-20.321-2.623 5.241-18.354 13.693-12.89 23.1.005 0 .197.315.2.32-2.039-12.234 16.625-11.175 18.2-31.201 11.19-20.805 16.276-50.683 34.67-60.46 10.764-5.729 23.353-3.221 28.26 11.44 12.934-7.735 13.381 35.532 13.93 38.91.96 6.084 4.058 11.426 8.271 15.91 2.857 13.654 9.712 13.542 12.34 21.32.77 2.29.88 4.98.319 7.32-2.92 12.169-24.624 10.664-21.47 27.59.858 4.641 3.469 11.16-2.5 15.92-3.733 2.997-8.958 4.384-11.45 8.729 9.444-7.482 20.484-8.248 19.74-19.079 1.473 3.192 1.471 5.439-.27 8.369.026-.029.779-.87.779-.909 6.333-7.552-4.379-11.542 2.33-20.29 5.887-7.674 30.81-16.702 25.37-30.301.769 1.268 1.858 3.806 2.29 5.04-.467 3.046-2.945 6.55-4.96 8.811 2.138-.488 5.975-1.001 9.36-3.101 11.603-7.217 11.673-21.985-3.249-31.979zm-156.51.25c-5.549-2.098-9.671-11.194-6.64-18.01-.363 6.421 1.901 13.634 6.64 18.01zm-6.42-20.11c-.08.52-.14 1.05-.18 1.58-3.683 6.71-.19 17.072 7.2 19.07 3.015 2.597 6.918 4.146 10.19 4.51-15.537 2.907-24.403-12.993-17.21-25.16zm32.64 40.05c-1.445 2.091-2.427 4.432-1.96 6.921-4.132-9.234 10.863-16.337 13.48-23.091 2.703-2.825 3.257-3.958 4.72-6.72-1.83 14.831-10.581 14.655-16.24 22.89zm13.18-19.35c-6.028 8.513-19.968 12.038-22.73 22-1.855 6.634 6.043 14.762 12.73 8.88-12.518 18.248-39.865-8.311-20.64-25.95.76-.11 1.51-.26 2.24-.45 9.674 1.281 22.187-2.964 31.63-14.32.01 0 .02-.01.02-.02 2.33-2.8 4.37-5.87 6.14-9.05-2.105 5.733-6.063 14.236-9.39 18.91zm66.92 81.29c3.541-4.132 8.822-4.794 12.24-8.59 5.546-6.178-.225-14.516 1.45-20.59 2.91-10.792 21.6-10.715 21.6-24.58-.088-11.373-10.232-11.034-13.6-25.661 4.459 4.709 9.038 7.344 13.899 9.11 1.941 2.641 5.329 10.15 2.04 14.601 1.165-3.166.117-7.266-1.609-9.561-2.066-2.728-3.826-3.043-5.681-4.15 6.864 8.566 6.44 15.63 6.44 15.63 0 17.419-23.907 12.546-20.25 30.23.196 1 .624 2.692.89 4.09a.173.173 0 00-.05-.03c.021.01.03.021.05.04 2.09 11.542-8.069 12.493-17.419 19.461zm38.32-45.75c-6.924 6.401-17.294 8.011-21.15 18.88-.306-10.538 13.433-10.289 18.5-19.979 1.69-3.222 1.953-7.32 1.601-8.061 0-2.538-1.591-7.867-6.271-13.88 7.516 4.415 7.361 11.318 6.431 13.481 2.209-1.546 3.365-7.719-.98-14.281 8.169 7.525 9.98 15.73 1.869 23.84zm7.16-17.31c2.592 3.737 2.784 9.406-4.61 16.801-9.573 8.647-26.357 12.809-21.439 26.29.885 2.365 2.672 4.772.05 8.72.597-1.519.777-3.598-.96-6.86-.248-2.982-1.139-5.604-1.33-8.21 3.622-12.24 18.049-12.624 24.49-22.229 7.605-11.455-4.923-20.591-5.601-21.591 2.891 1.01 13.438 3.935 13.07 13.161-.821-2.712-2.574-5.2-3.67-6.082zm7.25 12.81c-3.326 2.004-7.141 2.506-8.141 2.86 3.398-4.015 6.219-8.195 4.61-13.23-3.758-11.723-14.523-6.502-26.75-19.93-.112-.122-1.376-1.544-1.43-1.68-7.846-9.677-6.185-15.976-7.891-29.21-1.295-10.17-4.581-28.055-13.72-23.38-2.851-9.242-9.671-15.153-19.9-14.17-20.827 2.012-28.627 28.2-34.56 40.92 0 .01 0 .02-.01.03-20.624 44.127-59.998 34.618-57.14 6.74 1.021-10.465 9.459-15.968 18.26-9.08 7.36-57.481 50.768-88.344 94.45-59.08 14.854-4.919 37.499 9.926 42.96 44.76-2.972-.829-6.056-5.883-6.72-8.19.49 1.76 1.42 3.45 2.44 4.95 5.747 8.061 10.12 1.48 7.399-2.47 2.901 2.632 3.636 3.35 3.19 7.63.01.03.01.05-.01.08 5.651 6.941 11.34 25.178-1.101 35.17h-.01c-.08.07-.17.14-.25.2 1.095.924 6.884 3.011 11.24-3.19-.965 5.104-5.571 8.12-10.17 8.12 15.754 10.895 14.015 25.66 3.254 32.15z" fill="#0d0905"/></svg>