<svg xmlns="http://www.w3.org/2000/svg" width="500" height="500" viewBox="0 0 200 200" overflow="hidden"><defs><radialGradient id="h" cx="100" cy="113" r="40" gradientUnits="userSpaceOnUse" class="svga-on-canvas-facehighlight-gradient-single-0"><stop stop-opacity=".5" stop-color="#fbe4dd" offset="0"/><stop stop-opacity="0" stop-color="#ecc4b8" offset=".9"/></radialGradient><radialGradient id="i" cx="100" cy="57" r="36" gradientUnits="userSpaceOnUse" class="svga-on-canvas-facehighlight-gradient-single-1"><stop stop-opacity=".5" stop-color="#fbe4dd" offset="0"/><stop stop-opacity="0" stop-color="#ecc4b8" offset=".9"/></radialGradient><radialGradient id="b" cx="126.485" cy="86.435" r="13.37" gradientTransform="matrix(-1.0172 0 0 1.0172 202.565 -1.469)" gradientUnits="userSpaceOnUse" class="svga-on-canvas-eyesback-gradient-left-0"><stop stop-color="#fff" offset="0"/><stop stop-color="#fdfefe" offset=".544"/><stop stop-color="#f6f8f9" offset=".74"/><stop stop-color="#eaeff2" offset=".879"/><stop stop-color="#d9e3e8" offset=".992"/><stop stop-color="#d8e2e7" offset="1"/></radialGradient><radialGradient id="e" cx="126.484" cy="86.435" r="13.371" gradientTransform="translate(-2.565 -1.469) scale(1.0172)" gradientUnits="userSpaceOnUse" class="svga-on-canvas-eyesback-gradient-right-0"><stop stop-color="#fff" offset="0"/><stop stop-color="#fdfefe" offset=".544"/><stop stop-color="#f6f8f9" offset=".74"/><stop stop-color="#eaeff2" offset=".879"/><stop stop-color="#d9e3e8" offset=".992"/><stop stop-color="#d8e2e7" offset="1"/></radialGradient><radialGradient id="c" cx="121.915" cy="85.945" fx="133.772" fy="85.978" r="16.863" gradientTransform="matrix(.9998 .0208 .0166 -.7998 -45.234 152.149)" gradientUnits="userSpaceOnUse" class="svga-on-canvas-eyesfront-gradient-left-3"><stop stop-color="#dda696" offset="0"/><stop stop-opacity=".3" stop-color="#dda696" offset=".7"/><stop stop-opacity="0" stop-color="#ecc4b8" offset="1"/></radialGradient><radialGradient id="d" cx="72.994" cy="103.619" r="22.097" gradientTransform="matrix(1.0455 -.0545 .0548 1.0391 -8.936 .763)" gradientUnits="userSpaceOnUse" class="svga-on-canvas-eyesfront-gradient-left-4"><stop stop-opacity="0" offset=".95"/><stop stop-opacity=".3" offset="1"/></radialGradient><radialGradient id="f" cx="121.915" cy="85.945" fx="133.772" fy="85.978" r="16.863" gradientTransform="matrix(-.9998 .0208 -.0166 -.7998 245.234 152.149)" gradientUnits="userSpaceOnUse" class="svga-on-canvas-eyesfront-gradient-right-3"><stop stop-color="#dda696" offset="0"/><stop stop-opacity=".3" stop-color="#dda696" offset=".7"/><stop stop-opacity="0" stop-color="#ecc4b8" offset="1"/></radialGradient><radialGradient id="g" cx="72.994" cy="103.619" r="22.097" gradientTransform="matrix(-1.0455 -.0545 -.0548 1.0391 208.936 .763)" gradientUnits="userSpaceOnUse" class="svga-on-canvas-eyesfront-gradient-right-4"><stop stop-opacity="0" offset=".95"/><stop stop-opacity=".3" offset="1"/></radialGradient><linearGradient id="a" x1="99.98" y1="171.27" x2="99.98" y2="136.351" gradientUnits="userSpaceOnUse" class="svga-on-canvas-chinshadow-gradient-single-0"><stop stop-opacity=".8" stop-color="#dda696" offset="0"/><stop stop-color="#be725b" offset=".7"/></linearGradient></defs><path d="M225 225H-25V-25h250v250z" fill="#774f38"/><path d="M-25 62.366V48.224L48.224-25h14.142L-25 62.366zM90.649-25H76.507L-25 76.507v14.142L90.649-25zm28.285 0h-14.142L-25 104.792v14.143L118.934-25zm28.285 0h-14.143L-25 133.075v14.143L147.219-25zM225-25h-7.071L-25 217.929V225h7.071L225-17.929V-25zM5.796-25H-8.345L-25-8.345V5.796L5.796-25zm28.285 0H19.939L-25 19.939v14.142L34.081-25zm141.422 0H161.36L-25 161.36v14.143L175.503-25zM-25-22.487L-22.487-25H-25v2.513zm250 174.263v-14.143L137.635 225h14.142L225 151.776zm0 28.286v-14.143L165.919 225h14.143L225 180.062zm0 28.283v-14.143L194.203 225h14.143L225 208.345zm0-84.852V109.35L109.351 225h14.142L225 123.493zm0 98.994L222.487 225H225v-2.513zm0-183.847V24.497L24.497 225H38.64L225 38.64zm0 56.568V81.066L81.066 225h14.142L225 95.208zm0-84.853V-3.787L-3.787 225h14.142L225 10.355zM203.787-25h-14.143L-25 189.646v14.141L203.787-25zM225 66.924V52.782L52.782 225h14.142L225 66.924z" fill="#683e26"/><path d="M151.582 41.064l-99.508-5.662S27 218.282 27 223.998c0 0 100.899.72 143.907 0-.804-7.919-19.325-182.934-19.325-182.934z" fill="#875d3b"/><path d="M190.858 199.866c-6.008-10.158-13.474-11.973-19.628-13.936-6.323-2.016-19.346-3.178-26.449-4.6-6.86-1.373-23.153-5.789-23.339-13.488-.192-8.066 4.291-40.09 4.291-40.09H74.005s4.487 32.023 4.294 40.09c-.184 7.699-16.48 12.115-23.341 13.488-7.104 1.422-20.125 2.584-26.448 4.6-6.156 1.963-13.624 3.777-19.632 13.936-3.644 6.16-6.008 16.133-6.008 27.133h194c-.001-11-2.361-20.973-6.012-27.133z" fill="#ecc4b8"/><path d="M121.442 167.843c2.495 10.929 18.165 13.698 26.293 15.325 21.909 4.379 33.772 5.134 42.297 19.539 2.903 4.916 5.459 15.864 5.962 24.153 1.835.291.531-17.432-5.136-26.994-9.742-16.472-29.089-15.135-46.077-18.535-6.86-1.373-23.153-5.789-23.339-13.488zm-42.884 0c-.186 7.699-16.479 12.115-23.339 13.488-16.988 3.4-36.335 2.063-46.077 18.535-5.667 9.563-6.971 27.285-5.136 26.994.503-8.289 3.059-19.237 5.962-24.153 8.524-14.405 20.388-15.16 42.297-19.539 8.128-1.627 23.798-4.397 26.293-15.325z" fill="#fbe4dd"/><path d="M51.206 189.513s28.641.299 33.473 1.885c2.314.758 8.372 5.633 8.372 5.633s-6.556-3.17-8.658-3.758c-4.883-1.364-33.187-3.76-33.187-3.76zm48.589 10.486c2.053-.041 7.887-3.799 7.887-3.799s-5.574 2.059-7.342 2.16c-1.491.086-6.366-1.238-6.366-1.238s4.138 2.91 5.821 2.877zm17.213-7.242c6.75-1.818 29.786-3.23 29.786-3.23s-23.791-.516-30.51 1.725c-2.252.752-7.562 5.16-7.562 5.16s6.064-3.058 8.286-3.655z" fill="#dda696"/><path d="M190.858 199.866c-9.741-16.471-29.122-15.142-46.077-18.535-6.86-1.373-23.153-5.789-23.339-13.488-.192-8.066 4.291-40.09 4.291-40.09H74.005s4.487 32.023 4.294 40.09c-.184 7.699-16.48 12.115-23.341 13.488-7.104 1.422-20.125 2.584-26.448 4.6-6.156 1.963-13.624 3.777-19.632 13.936C5.234 206.027 2.87 216 2.87 227h194c-.001-11.001-2.361-20.974-6.012-27.134z" fill="none" stroke="#be725b" stroke-width="1.5"/><path d="M86.802 168.302c5.312 2.491 21.035 2.373 26.401 0 2.491-1.102 5.112-2.879 7.755-5.086.699-10.328 3.327-29.728 3.986-34.51a186.78 186.78 0 00-3.428-.303H78.609c-1.305.103-2.578.216-3.811.339.66 4.783 3.223 23.705 3.958 34.093 2.751 2.351 5.475 4.262 8.046 5.467z" fill="url(#a)"/><path d="M1.21 226.811c-.09-1.096.089-6.144.169-7.69 1.305-24.199 9.403-29.321 42.489-39.116 15.99-4.732 20.453-6.269 26.144-18.359 1.614-3.43 3.009-6.393 6.011-7.444 15.289 8.429 28.472 8.16 47.416 1.143 3.516.491 4.597 4.978 5.414 8.217 5.254 20.016 37.606 15.497 52.146 23.753 15.091 7.44 15.778 32.33 15.631 39.781a.675.675 0 01.006.056c-19.631.831-170.956 1.234-195.426-.341z" fill="#152c5e"/><path d="M176.786 216.725c.847-10.266 1.101-18.312 4.157-27.83-4.426 14.753 1.476 26.354-7.266 34.423 1.097-2.637 2.839-3.32 3.109-6.593zM24 203c-1.608-3.938-3.672-7.405-4.444-13.604-.28.134-.394-.626-.666-.492 1.111 11.097 4.736 15.713 5.84 31.829-.174-5.776.804-13.975-.73-17.733zm97.459-46.726c-.581.144-1.164.78-1.75.899 8.181 7.474 2.813 10.296 14.771 23.422.333-.167 1.415-.766 2.718-1.523-7.879-4.461-9.65-15.535-15.739-22.798zM126 180c.447 1.342 1.101 2.482 1.859 3.603-.457.174-.908.362-1.37.522-2.363-3.073-4.632-6.134-6.139-12.489-1.558-6.561-.884-5.584-5.94-12.752.319-.045.954-.411 1.448-.491 4.785 6.63 6.75 13.975 10.142 21.607zm7.719 1.005c-.481.25-.969.488-1.457.725-6.715-7.001-9.364-15.664-13.832-23.789.307-.059.907-.818 1.188-.876 3.964 4.215 3.947 6.305 5.151 10.061 1.569 4.702 5.834 10.763 8.95 13.879zm-22.507-20.98c3.591 9.259 5.941 16.57 6.595 26.388-.469.085-.937.17-1.407.242-.65-5.13-1.491-10.462-1.739-11.689-.992-4.915-2.781-11.482-4.401-14.82.318-.033.634-.083.952-.121zm14.407 24.401c-.555.185-1.115.352-1.676.519-5.889-7.32-5.781-16.893-10.411-26.211.182-.025.465-.041.646-.068 5.14 8.711 3.5 6.198 5.83 15.03 1.221 4.617 3.743 8.768 5.611 10.73zm-10.11 2.359c-.369.053-.746.089-1.12.133-1.339-9.809-1.877-17.542-5.437-26.651.249-.022.499-.037.747-.062 3.223 7.918 4.532 19.147 5.81 26.58zm-24.428-26.421c-3.267 8.975-3.961 15.986-4.586 25.452-.369-.063-.742-.123-1.105-.191.281-8.057 1.408-18.063 4.9-25.33.263.027.527.045.791.069zm-15.692 22.53c-.419-.152-.842-.297-1.26-.458 5.056-6.227 7.374-16.511 7.99-24.521.332.081.663.15.995.226.239 9.451-3.2 16.69-7.725 24.753zm14.39-22.649c-4.003 7.147-5.299 17.074-5.13 25.23-.319-.063-.618-.137-.93-.203-.337-9.561.856-17.051 5.107-25.256.32.04.629.196.953.229zM66.165 179.01c-.527-.256-1.054-.51-1.576-.774 2.807-1.871 5.653-4.711 7.56-7.97 1.716-2.93 5.611-11.628 6.41-14.44.269.104.543.189.816.282-2.063 9.022-6.466 17.247-13.21 22.902zm7.344 3.195c-.559-.215-1.106-.456-1.661-.682 4.743-7.656 6.889-16.213 7.854-25.317.614.203 1.23 1.398 1.847 1.56-1.419 8.741-2.916 17.095-8.04 24.439zm4.72-26.5c-.65 1.82-1.54 3.55-2.45 5.311-2.167 4.379-4.345 11.597-11.83 16.88a78.31 78.31 0 01-1.618-.854c6.891-5.698 10.479-14.131 14.154-21.908.563.212 1.145.332 1.744.571z" fill="#0a1f4f"/><path d="M60.172 177.15l-1.928-1.29c-16.809 6.537-42.125 8.875-52 25.125-3.719 6.119-4.913 15.014-4.913 26.014 2.027-5.485.759-14.439 6.636-23.292 11.434-17.226 31.804-15.387 52.205-26.557zm129.861 26.557c5.067 9.34 4.608 17.807 6.636 23.292 0-11-2.281-19.354-4.913-26.014-7.483-18.933-33.191-16.791-50-23.328l-1.928 1.29c20.401 11.17 38.375 2.955 50.205 24.76z" fill="#233b6d"/><path d="M181.049 187.226c-14.496-8.229-46.88-3.804-52.1-23.69-.653-2.542-1.702-7.762-5.53-8.29-.188.037-.761-.129-.76-.129-15.076 5.88-30.845 7.63-46.67-1.011-7.111 2.493-5.169 15.246-18.61 21.22-5.86 2.654-13.6 4.395-24.6 7.98-25.782 8.41-30.463 16.581-31.5 35.81-.073 1.41-.273 6.859-.16 7.79 27.119 1.767 181.426.968 195.61.34.01-.05.01-.1 0-.149.288-14.425-2.905-33.573-15.68-39.871zm-57.25-31.402c7.203 2.412-.831 13.455 15.84 21.791-2.201 1.354-4.629 2.715-5.159 2.98-11.958-13.126-6.443-15.043-14.173-23.123 1.432-.646 2.152-1.228 3.492-1.648zm-3.882 1.739c3.964 4.215 3.648 5.807 4.853 9.563 1.568 4.703 5.833 10.764 8.949 13.88a54.134 54.134 0 01-7.229 3.12c-2.363-3.073-4.408-6.164-6.039-12.489-1.438-5.573-.936-6.018-5.741-12.652.999-.142 3.631-1.099 5.207-1.422zm-5.639 1.5c5.14 8.711 3.4 5.8 5.73 14.632 1.22 4.618 3.742 8.769 5.61 10.73-3.01 1-6.1 1.75-9.22 2.229-.65-5.13-1.414-10.458-1.64-11.689-1-5.454-2.881-11.482-4.501-14.82 1.282-.129 2.752-.891 4.021-1.082zm-4.579 1.142c3.223 7.918 4.532 19.146 5.81 26.58-2.942.418-6.063.57-8.979.57-.001-.025-1.897-15.809-2.641-26.162 2.028-.3 4.16-.531 5.81-.988zm-6.31 1.008c.05 11.677.956 14.712 2.41 26.152-3.489.01-6.97-.149-10.459-.45 2.365-19.61 3.55-25.632 3.55-25.632 1.842 0 3.513-.037 4.499-.07zm-5.12.07c-2.776 15.35-3.252 19.064-3.58 25.572-3.189-.268-6.325-.668-9.3-1.23.281-8.057 1.408-18.063 4.9-25.33 2.65.27 5.32.978 7.98.988zm-8.49-1.038c-4.003 7.147-5.299 17.074-5.13 25.23-3.873-.771-7.202-1.758-10.52-3.04 5.056-6.227 7.374-16.511 7.99-24.521 2.523.616 5.191 1.784 7.66 2.331zm-8.23-2.479c-1.419 8.741-2.916 17.096-8.04 24.439a96.06 96.06 0 01-8.92-3.97c2.807-1.871 5.653-4.711 7.56-7.97 1.716-2.93 5.511-11.429 6.31-14.241.98.38 2.09 1.481 3.09 1.742zm-5.76-2.962c.77.471 1.49.761 2.34 1.101-.65 1.82-1.44 3.351-2.35 5.111-2.167 4.379-4.345 11.597-11.83 16.88-1.39-.71-2.77-1.46-4.12-2.25 11.579-6.242 9.623-17.968 15.96-20.842zm-74.23 71.851c.136-3.996.887-16.321 3.59-22.41 2.73-6.149 8-10.39 13.88-13.52-.402 9.421 4.184 10.589 4.5 21.85.09 3.41.56 6.76 1.13 10.12-.26-3.53-.37-7.03-.35-10.57.058-10.247-4.58-12.021-4.58-21.779 7.43-3.782 15.967-6.216 24.41-8.761 4.94-1.479 9.94-3.029 14.56-5.359 13.184 8.692 25.449 13.279 47.35 13.149 15.873 0 25.119-4.104 34.9-11.109 13.149 6.077 30.126 5.28 39.46 10.91-1.655 4.925-2.791 7.494-3.1 10.18-.715 6.32.347 10.814-.561 16.62-.53 3.37-3.12 5.85-3.82 9.16 2.036-6.202 5.709-3.93 5.261-18.551-.257-8.245.476-8.458 2.779-17.069 11.486 7.199 14.441 24.116 15.091 37.58-33.237-.219-181.394-.161-194.5-.441z" fill="#000f30"/><path d="M144.004 125.052c-5.003 10.066-20.047 27.996-30.801 32.751-5.366 2.374-21.089 2.491-26.401 0-10.646-4.989-25.765-22.701-30.801-32.751-5.613-11.199-14.852-47.803-14.863-47.856a60.396 60.396 0 01-2.004-15.382C39.082 28.339 66.289 1.168 99.907 1.116c33.621-.052 60.913 27.032 60.963 60.506a60.457 60.457 0 01-1.952 15.389c-.017.052-9.318 36.779-14.914 48.041z" fill="#ecc4b8"/><path d="M110.152 1.969c26.994 6.24 47.097 30.337 47.052 59.111a60.441 60.441 0 01-2.004 15.382c-.012.053-8.61 36.669-14.13 47.856-4.859 9.849-19.7 27.043-30.067 32.019-2.163 1.037-8.694 1.529-11.001 1.529-2.307 0-8.837-.492-11-1.529-10.367-4.976-25.209-22.17-30.067-32.019-5.521-11.188-14.119-47.803-14.13-47.856a60.39 60.39 0 01-2.004-15.382C42.756 32.307 62.857 8.209 89.853 1.969 61.03 6.788 39.087 31.751 39.134 61.813a60.402 60.402 0 002.004 15.382c.012.053 9.232 36.665 14.863 47.856 5.052 10.041 20.207 27.65 30.801 32.751 2.658 1.28 9.305 1.827 12.954 1.824 3.646.003 10.791-.544 13.447-1.824 10.594-5.102 25.748-22.71 30.801-32.751 5.631-11.191 14.852-47.803 14.862-47.856a60.396 60.396 0 002.004-15.382c.048-30.062-21.895-55.025-50.718-59.844z" fill="#e4b5a7"/><path d="M144.004 125.052c-5.003 10.066-20.047 27.996-30.801 32.751-5.366 2.374-21.089 2.491-26.401 0-10.646-4.989-25.765-22.701-30.801-32.751-5.613-11.199-14.852-47.803-14.863-47.856a60.396 60.396 0 01-2.004-15.382C39.082 28.339 66.289 1.168 99.907 1.116c33.621-.052 60.913 27.032 60.963 60.506a60.457 60.457 0 01-1.952 15.389c-.017.052-9.318 36.779-14.914 48.041z" fill="none" stroke="#be725b" stroke-width="1.5"/><path d="M94.859 136.427c.259.002 11.018-.099 11.018-.099s-3.174.714-5.865.688c-2.324-.019-5.153-.589-5.153-.589z" fill="#dda696"/><path d="M86.537 134.998c-.649-.642 3.796-2.875 5.987-3.547 2.769-.882 5.481-.17 8.3-.383 2.571-.195 4.901-.735 7.421.076 2.277.733 6.579 3.048 6.292 3.601-.289.558-4.189-1.703-6.378-2.18-2.508-.534-4.781.241-7.28.488-2.558.254-5.083-.713-7.64-.307-2.319.368-6.345 2.605-6.702 2.252z" fill="#be725b"/><path d="M86.929 86.347a6.46 6.46 0 01.257 1.758c0 1.481-.523 2.881-1.44 4.135-4.077.038-16.966.706-18.935-.303-2.813-1.441-5.323-7.369-5.506-8.827 9.995-5.75 17.37-4.631 25.624 3.237z" fill="url(#b)"/><path d="M85.129 91.205c-1.521 7.45-7.283 11.838-12.882 9.792-5.594-2.044-8.899-9.75-7.376-17.2 1.521-7.454 7.296-11.841 12.89-9.794 5.59 2.043 8.891 9.748 7.368 17.202z" fill="#b0b9d9" stroke="#576aab" stroke-width=".5"/><path d="M83.496 91.379c-1.484 5.719-5.964 9.057-10.323 7.465-4.024-1.474-6.565-6.625-6.235-12.067a28.548 28.548 0 014.822-.093c-.017.078-.047.145-.063.225-.533 2.626.713 5.377 2.787 6.138 2.081.759 4.202-.764 4.738-3.387.066-.343.103-.687.113-1.025a19.138 19.138 0 014.161 2.744z" fill="#d4d8e8"/><path d="M76.421 83.326c-2.102-.804-4.249.797-4.791 3.59-.544 2.781.721 5.689 2.823 6.493 2.107.805 4.254-.797 4.797-3.577.548-2.795-.723-5.705-2.829-6.506zm.461 9.874c-.875.362-1.78-.119-2.021-1.079-.232-.958.286-2.022 1.167-2.377.881-.362 1.782.12 2.025 1.073.237.954-.284 2.02-1.171 2.383z" opacity=".9"/><path d="M69.42 94.872c-.648.518-1.613.056-2.168-1.042-.554-1.088-.47-2.391.181-2.911.641-.51 1.618-.047 2.168 1.042.544 1.09.466 2.394-.181 2.911z" fill="#fff" opacity=".6"/><path d="M83.243 86.895c-1.481 1.181-3.707.116-4.966-2.38-1.26-2.5-1.07-5.489.41-6.667 1.478-1.188 3.704-.123 4.958 2.378 1.259 2.5 1.078 5.483-.402 6.669z" fill="#fff" opacity=".9"/><path d="M56 88c0 13.808 8.06 24.999 18 24.999S92 101.808 92 88c0-13.809-8.06-25.001-18-25.001S56 74.191 56 88zm5.305-4.891c9.995-5.749 17.37-4.63 25.624 3.237a6.46 6.46 0 01.257 1.758c0 1.481-.523 2.881-1.44 4.135-4.077.038-16.966.706-18.935-.303-2.813-1.44-5.324-7.368-5.506-8.827z" fill="#ecc4b8"/><path d="M61.409 83.595c.522 1.979 2.833 7.026 5.401 8.342 1.969 1.009 14.857.341 18.935.303.917-1.253 1.44-2.653 1.44-4.135a6.46 6.46 0 00-.257-1.758c-8.166-7.784-15.476-8.95-25.31-3.407 1.968-5.724 8.522-9.952 16.34-9.987 9.393-.04 17.018 5.981 17.041 13.451.023 7.469-7.572 13.554-16.961 13.596-9.393.04-17.016-5.981-17.039-13.45a10.986 10.986 0 01.41-2.955z" fill="url(#c)"/><path d="M66.811 91.937c-2.813-1.441-5.323-7.369-5.506-8.827 9.995-5.749 17.37-4.63 25.624 3.237a6.46 6.46 0 01.257 1.758c0 1.481-.523 2.881-1.44 4.135-4.078.037-16.967.705-18.935-.303z" fill="url(#d)"/><path d="M61.338 79.989c3.414-1.34 14.297-4.254 19.581-1.339-7.571-2.357-15.137.167-19.581 1.339zm22.149.993c1.651.614 2.711 1.961 3.462 3.018-1.097-1.164-2.631-2.394-3.462-3.018z" fill="#be725b"/><path d="M84.061 80.665c-8.34-2.665-14.866-2.633-23.188.795-3.914.541-5.456.196-7.438-.252 1.121.955 2.072 1.884 4.313 2.033-1.188.298-1.629.301-2.938.361 1.983.619 3.232 1.038 5.29 1.375-.863.409-2.028.538-3.103.438.925.726 2.301.661 3.688 1.124 3.867 5.08 4.676 6.192 5.875 6.251 10.059.608 16.311-.248 20.313-.813-1.499-.19-17.826.781-20.063-.313-2.813-1.375-5.323-7.031-5.506-8.423 10.251-5.626 17.743-4.379 26.256 3.659-1.948-2.957-4.397-4.875-7.75-6.485l4.251.25z"/><path d="M113.071 86.347a6.46 6.46 0 00-.257 1.758c0 1.481.523 2.881 1.44 4.135 4.077.038 16.966.706 18.935-.303 2.813-1.441 5.323-7.369 5.506-8.827-9.995-5.75-17.37-4.631-25.624 3.237z" fill="url(#e)"/><path d="M135.129 91.205c-1.521 7.45-7.283 11.838-12.882 9.792-5.594-2.044-8.899-9.75-7.376-17.2 1.521-7.454 7.296-11.841 12.89-9.794 5.59 2.043 8.891 9.748 7.368 17.202z" fill="#b0b9d9" stroke="#576aab" stroke-width=".5"/><path d="M133.496 91.379c-1.484 5.719-5.964 9.057-10.323 7.465-4.024-1.474-6.565-6.625-6.235-12.067a28.548 28.548 0 014.822-.093c-.017.078-.047.145-.063.225-.533 2.626.713 5.377 2.787 6.138 2.081.759 4.202-.764 4.738-3.387.066-.343.103-.687.113-1.025a19.138 19.138 0 014.161 2.744z" fill="#d4d8e8"/><path d="M126.421 83.326c-2.102-.804-4.249.797-4.791 3.59-.544 2.781.721 5.689 2.823 6.493 2.107.805 4.254-.797 4.797-3.577.548-2.795-.723-5.705-2.829-6.506zm.461 9.874c-.875.362-1.78-.119-2.021-1.079-.232-.958.286-2.022 1.167-2.377.881-.362 1.782.12 2.025 1.073.237.954-.284 2.02-1.171 2.383z" opacity=".9"/><path d="M119.42 94.872c-.648.518-1.613.056-2.168-1.042-.554-1.088-.47-2.391.181-2.911.641-.51 1.618-.047 2.168 1.042.544 1.09.466 2.394-.181 2.911z" fill="#fff" opacity=".6"/><path d="M133.243 86.895c-1.481 1.181-3.707.116-4.966-2.38-1.26-2.5-1.07-5.489.41-6.667 1.478-1.188 3.704-.123 4.958 2.378 1.259 2.5 1.078 5.483-.402 6.669z" fill="#fff" opacity=".9"/><path d="M126 62.999c-9.94 0-18 11.193-18 25.001 0 13.808 8.06 24.999 18 24.999S144 101.808 144 88c0-13.809-8.06-25.001-18-25.001zm7.189 28.938c-1.969 1.009-14.857.341-18.935.303-.917-1.253-1.44-2.653-1.44-4.135 0-.601.096-1.187.257-1.758 8.254-7.868 15.629-8.986 25.624-3.237-.182 1.458-2.693 7.386-5.506 8.827z" fill="#ecc4b8"/><path d="M138.591 83.595c-.522 1.979-2.833 7.026-5.401 8.342-1.969 1.009-14.857.341-18.935.303-.917-1.253-1.44-2.653-1.44-4.135 0-.601.096-1.187.257-1.758 8.166-7.784 15.476-8.95 25.31-3.407-1.968-5.724-8.522-9.952-16.34-9.987-9.393-.04-17.018 5.981-17.041 13.451-.023 7.469 7.572 13.554 16.961 13.596 9.393.04 17.016-5.981 17.039-13.45a10.986 10.986 0 00-.41-2.955z" fill="url(#f)"/><path d="M133.189 91.937c2.813-1.441 5.323-7.369 5.506-8.827-9.995-5.749-17.37-4.63-25.624 3.237a6.46 6.46 0 00-.257 1.758c0 1.481.523 2.881 1.44 4.135 4.078.037 16.967.705 18.935-.303z" fill="url(#g)"/><path d="M119.081 78.65c5.284-2.915 16.167-.001 19.581 1.339-4.444-1.172-12.01-3.696-19.581-1.339zm-6.03 5.35c.751-1.057 1.811-2.404 3.462-3.018-.831.624-2.365 1.854-3.462 3.018z" fill="#be725b"/><path d="M115.939 80.665c8.34-2.665 14.865-2.633 23.188.795 3.914.541 5.456.196 7.438-.252-1.121.955-2.072 1.884-4.313 2.033 1.188.298 1.629.301 2.938.361-1.983.619-3.232 1.038-5.29 1.375.863.409 2.028.538 3.103.438-.925.726-2.301.661-3.688 1.124-3.867 5.08-4.676 6.192-5.875 6.251-10.059.608-16.311-.248-20.313-.813 1.499-.19 17.826.781 20.063-.313 2.813-1.375 5.323-7.031 5.506-8.423-10.251-5.626-17.743-4.379-26.256 3.659 1.948-2.957 4.397-4.875 7.75-6.485l-4.251.25z"/><path d="M140.204 113.007c.035 22.275-17.995 40.365-40.273 40.396-22.274.036-40.361-17.993-40.396-40.272-.034-22.274 17.995-40.361 40.273-40.396 22.275-.034 40.363 17.995 40.396 40.272z" fill="url(#h)"/><path d="M135 55.999c0 19.329-15.671 35-35 35s-35-15.671-35-35 15.671-35 35-35 35 15.671 35 35z" fill="url(#i)"/><path d="M57.992 72.441c14.723-3.028 33.357 2.799 33.336-.649 0-.869-.892-1.128-1.755-1.194-14.881-1.265-21.274-2.175-31.581 1.843zm84.016 0c-4.028-.829-6.352-1.175-12.865-.904-7.413.219-20.486 2.799-20.471.254 0-.869.892-1.128 1.755-1.194 14.953-1.269 21.281-2.171 31.581 1.844z" fill="#a68469"/><path d="M96.831 85.761s-1.399 11.117-2.026 13.281c-1.379 4.752-6.168 11.418-5.239 14.43 1.859 6.022 7.537 4.493 10.524 4.471 2.763-.022 8.072 1.552 9.162-2.37.352-1.266-.441-4.466-.441-4.466s-2.644 3.112-8.875 2.767c-1.778-.099-4.671-2.096-4.704-4.912-.043-3.817 1.802-7.036 2.205-10.825.304-2.878-.606-12.376-.606-12.376z" fill="#dda696"/><path d="M105.194 116.207c1.075 0 1.366.326 1.366.729 0 .404-.335 1.026-1.366.73-1.134-.323-3.113-.175-3.113-.175s2.036-1.284 3.113-1.284zm-10.272 0c-1.077.001-1.366.328-1.366.733-.001.403.323.983 1.366.729 1.15-.282 3.112-.175 3.112-.175s-2.035-1.283-3.112-1.287zm13.888-5.1s1.489 1.933 1.18 3.975c-.301 1.983-3.31 2.861-3.31 2.861s2.089-1.516 2.342-3.356c.118-.862-.212-3.48-.212-3.48zm-18.383-1.986s-1.086 2.704-.772 4.352c.571 2.976 3.704 4.164 3.704 4.164s-1.955-2.039-2.65-3.842c-.761-1.97-.282-4.674-.282-4.674z" fill="#be725b"/><path d="M105.141 112.549c1.043-.889 1.148-1.396.932-1.729-.215-.334-.841-.545-1.714.528-.963 1.18-3.056 2.054-3.056 2.054s2.795.035 3.838-.853z" fill="#fbe4dd"/><path d="M38.854 237.82l9.88-202.719 105.496 1.162 1.025 203.314s-105.203-.463-116.401-1.757zm98.252-2.541c-4.241-47.633 1.152-84.777 5.499-114.713 2.44-16.806 4.572-31.486 4.458-44.428-2.542 1.415-21.941 1.903-21.941 1.903-14.513 2.338-25.333.387-25.782.438-1.982-12.335-2.297-14.256-2.726-17.048-1.333 11.235-.355 13.67-1.37 15.249-2.873.713-22.804-.167-23.806-.237-5.478 2.035-9.035-2.194-12.427-1.241-1.982 1.505-5.386 1.669-6.386 1.42-1.023 20.123 2.42 35.283 6.058 51.303 9 39.633 8.399 50.872 5.508 104.881.001 0 62.261 2.128 72.915 2.473z" fill="#a68469" opacity=".1"/><path d="M177.393 209.541c-15.107-60.344 3.552-108.071-9.179-151.026-6.063-20.427-18.396-46.964-42.724-57.386-6.483-2.787-12.601-3.207-19.46-2.256C102.159-2.304 97.966-2.9 93.568-2.9c-30.232 0-49.746 25.833-59.244 54.789-5.943 18.135-7.341 33.902-5.755 64.884 3.633 70.935-3.103 88.369-14.274 117.075 17.224.024 36.536 4.694 63.515 4.779 22.28.08 102.989.006 109.574-.733-6.407-14.509-7.435-18.125-9.991-28.353zm-38.087 27.813c-44.235-1.525-58.379.504-77.335-.458 3.085-57.769 3.929-68.17-5.236-108.528-3.815-16.8-7.374-32.516-5.986-53.916 1.84-.071 3.204.365 4.861 1.224v.005c.079.043.154.086.23.131.05-.268.105-.577.162-.836l.118-.089-.098-.02c.638-3.158 1.735-6.719 3.175-10.297l.191.054a59.613 59.613 0 00-.838 8.586l-.03.053c3.296-.917 7.163 1.845 10.161 1.845.87-.06 1.588-.369 2.394-.662 1.102-15.937 2.326-22.387 4.625-27.361l.188.063c-1.329 6.207-1.753 14.946-1.297 26.715l-.012.016c2.685-.26 5.862.912 8.171.815 0-3.915.676-9.192.94-12.385l.199.002c.403 6.263 1.163 10.374 1.782 13.256 5.281-1.185 5.041-.413 7.762-.57.189-.009.377-.028.556-.064l.03-.046-.1.008c-.677-8.054 2.333-25.156 3.102-29.187l.198.019c-.008 7.96.718 11.325 3.793 30.548 1.722-.197 4.705.844 6.717 1.081 0-3.986-.013-3.709.01-5.85h.199c.033 2.019.142 3.989.735 5.933 3.159.066 5.395-1.403 8.343-1.122.369-16.421-1.055-25.078-1.897-32.829l.196-.037c4.08 15.22 5.452 31.663 5.565 33.095.38-.028 1.758-.133 2.461-.246.431-3.141 2.143-21.364 1.309-26.247l.194-.046c2.643 8.591 2.331 15.253 2.524 25.565 2.552-.785 6.706.343 9.615.015-.4-7.699-.557-14.668-2.451-21.243l.189-.063c2.292 5.971 4.105 13.197 4.986 20.951l.045-.025c6.444.5 5.332-.919 9.239-2.14 1.388 36.867-17.048 86.646-9.685 164.287z" fill="#a68469"/><path d="M180.326 238.184c-13.273.212-38.624-.278-41.021-.829-2.923-30.82-1.775-57.236.579-80.211 3.563-34.778 9.895-61.65 9.112-83.836.153-1.482 2.837-.396 3.497-1.095-4.5-29.25-14.214-47.686-29.494-59.91 64.384 45.135 14.583 132.535 23.191 167.176 1.473-18.377 13.012-69.387 15.809-79.376-5 36-17 78 3 112-2.631-14.907-2.954-30.583-2.994-45.681.771 25.114 10.241 48.194 18.321 71.762zM58.674 65.947c.174-.459.336-.917.522-1.377l.191.054a59.613 59.613 0 00-.838 8.586l-.03.053c.829-.23 1.694-.228 2.572-.096.46-12.512 2.842-25.349 9.909-35.065-8.61 7.044-10.48 17.765-12.326 27.845zM101 31.102c-4.32 7.921-5.012 16.878-5.807 25.753a251.31 251.31 0 011.828-11.146l.198.019c-.008 7.96.718 11.325 3.793 30.548.581-.066 1.31.014 2.092.15C99.585 61.645 97.306 46.8 101 31.102zm6.107 46.153c.21.036.428.078.622.101 0-3.986-.013-3.709.01-5.85h.199c.033 2.019.142 3.989.735 5.933.322.007.628-.012.933-.033-.598-6.521-.606-12.56-.606-19.304-1.919 6.715-1.081 12.512-1.893 19.153zm9.565-.95c.116.006.227 0 .345.012.369-16.421-1.055-25.078-1.897-32.829l.196-.037c4.08 15.22 5.452 31.663 5.565 33.095a54.77 54.77 0 001.757-.156c-1.144-16.075-3.59-31.982-11.638-46.289 3.768 15.072 3.988 31.03 5.672 46.204zm19.307-.659c.347-.006.685-.021 1.005-.058-.4-7.699-.557-14.668-2.451-21.243l.189-.063c2.292 5.971 4.105 13.197 4.986 20.951l.045-.025a31.81 31.81 0 002.031.1c-1.098-13.198-6.537-25.602-12.785-37.206 3.852 12.514 6.768 25.029 6.98 37.544zM124.84 56.501c.076-2.761.039-5.108-.189-6.448l.194-.046c2.643 8.591 2.331 15.253 2.524 25.565.555-.17 1.193-.239 1.87-.264.08-12.715-1.994-25.322-6.239-37.208.654 5.894 1.731 12.213 1.84 18.401zM86 50.102c-3.781 7.562-3.098 16.018-4.701 24.521a9.47 9.47 0 001.45.07c0-3.915.676-9.192.94-12.385l.199.002c.403 6.263 1.163 10.374 1.782 13.256.642-.144 1.2-.258 1.694-.35C85.62 67.168 84.213 59.034 86 50.102zm-7-10c-8.426 9.362-8.087 23.107-8.83 34.67.297-.103.594-.213.904-.326 1.102-15.937 2.326-22.387 4.625-27.361l.188.063c-1.329 6.207-1.753 14.946-1.297 26.715l-.012.016c.748-.072 1.534-.029 2.329.063-.461-11.604-2.373-23.121 2.093-33.84zm2-23c-25.15 16.485-39 47-35 75 5 37 11 73 6 110 3-31-2-62-8-93 5 34 5 68-4 101 3.177-16.681.047-32.73-1.376-49.151.141 25.13-5.941 50.009-14.846 73.181 16.549.846 36.42 3.267 38.192 2.766 3.085-57.769 3.929-68.17-5.236-108.528-3.815-16.8-7.374-32.516-5.986-53.916 0-.001 2.159-29.259 30.252-57.352z" fill="#976f50"/><path d="M64.672 42.118C74.59 24.24 80.38 19.473 94.632 11.415c.176-.104-.702.439-2.147 1.33-13.909 8.561-20.427 17.138-27.813 29.373zm71.07-5.005c9.163 18.181 9.775 30.657 9.025 24.705-.8-4.99-1.419-10.855-6.312-22.197-5.369-11.776-14.072-23.532-25.283-30.441 6.265 4.251 13.787 10.928 22.57 27.933zm-44.215 6.623c-1.861 13.125-1.499 23.37-1.487 22.57.06-9.996 2.285-23.7 4.771-33.506 2.673-9.599 5.599-14.82 6.494-16.746-3.897 7.315-8.106 16.715-9.778 27.682zm19.918 15.555c.067 1.53.117 2.458.109 2.274-.562-6.037 1.766-16.643-5.494-38.71 3.005 10.557 4.782 19.543 5.385 36.436zm18.82 4.629c.329 2.116.547 3.4.509 3.145-1.188-7.196-.94-20.108-7.805-34.964-4.252-9.161-8.862-13.611-10.668-15.707 6.751 8.26 13.186 16.734 17.964 47.526zm-50.962-3.106c.534-8.417 1.123-9.623 1.675-12.166 3.557-14.121 5.869-18.655 10.179-25.844-13.126 20.091-11.854 38.01-11.854 38.01zm-41.798 2.559c-.024.471-.016 2.812-.008 2.419.584-20.045 24.285-54.716 40.33-60.582-15.512 4.981-38.491 33.758-40.322 58.163zm.683 39.976c.687 5.613 1.616 9.97 1.536 9.472-3.8-17.919 1.102-58.568 12.54-73.07-8.319 9.994-16.889 36.062-14.076 63.598zm-3.931 54.972c-.697 3.996-.614 3.458-.165 1.388 3.824-18.365.212-50.656-1.332-66.366.001-1.006 2.915 49.069 1.497 64.978zM145.164 23.022c2.272 3.198 7.384 9.497 12.905 23.33 4.216 10.549-1.739-5.479-3.84-10.089-7.777-18.021-18.42-26.645-36.157-33.313 15.418 6.636 19.979 11.373 27.092 20.072zm15.185 77.712c-1.174 11.388 1.192-7.638 1.439-10.115 2.257-19.967-1.41-33.458-8.753-46.237 6.236 12.022 10.295 23.795 7.314 56.352zm6.256 71.737c.702 3.44 1.178 5.512 1.091 5.1-4.749-24.438-.502-87.206-.472-89.487-.281 6.191-7.091 54.755-.619 84.387z" fill="#b59a85"/><path d="M177.489 209.517c-15.15-60.52 3.6-107.91-9.18-151.03-7.061-23.79-20.16-47.76-42.78-57.45-6.84-2.94-13.17-3.16-19.47-2.26-7.271-2.21-16.46-2.55-25.811.07-24.32 6.79-38.6 30.39-46.02 53.01-5.61 17.12-7.43 32.3-5.76 64.92 3.57 69.692-2.795 87.556-14.32 117.17 17.259 0 36.599 4.694 63.66 4.779 22.157.084 104.198.003 109.72-.75-6.386-14.459-7.451-18.108-10.039-28.459zm-50.48 27.379c-28.229-.85-46.33.71-64.63-.079-.101-.005-.202-.013-.303-.017.586-10.989 1.823-25.713 2.103-51.044.452-48.899-16.046-69.102-13.336-111.208.227-.008.457-.022.677-.012.25.01.49.04.72.08 1.22.17 2.3.61 3.27 1.12 0 .03 0 .06-.01.08.02-.02.03-.04.04-.06.13.07.25.14.38.22 0-.05.01-.1.02-.15.05-.27.1-.55.16-.83 0-.04.01-.07.02-.11.66-3.27 1.79-6.85 3.17-10.28a59.5 59.5 0 00-.84 8.6c0 .06-.01.12 0 .18.24-.07.48-.13.72-.16 3.13-.44 6.75 2.02 9.58 1.98.67-.05 1.31-.28 1.95-.51.16-.07.31-.12.47-.18.31-4.51.82-9.25 1.05-11.59.53-5.39 1.31-10.91 3.57-15.8-1.09 5.09-1.83 13.05-1.3 26.74 0 .04.01.08.01.12.2-.02.41-.04.62-.04.82-.03 1.67.06 2.52.19.1.01.2.03.29.04 1.53.25 3.07.6 4.57.62.12 0 .23 0 .35-.01v-.11c.01-2.05.18-4.74.59-8.73.14-1.21.25-2.42.35-3.63.39 6.06 1.1 10.09 1.79 13.3 0 .02.01.05.01.07.14-.03.27-.06.39-.09 1.93-.49 2.02-.59 4.55-.58 1.16 0 2.06.13 2.91.08.2-.01.4-.03.59-.07 0-.05-.01-.1-.01-.14-.17-2.02-.24-3.89-.18-5.14.14-3.1 1.56-15 3.28-24.02-.01 9.93 1.6 15.67 2.9 24.94.26 1.86.52 3.71.88 5.53.01.06.02.12.029.19.131-.02.271-.03.41-.03 1.84-.03 4 .75 6.11 1.06.13.02.26.04.38.05v-2.67c-.01-1.27 0-2.36.01-3.29.04 2.49.19 3.89.63 5.58.04.14.08.29.131.45.159 0 .319.01.47.01.149-.01.29-.01.43-.02 1.79-.11 3.5-.72 5.26-1.02.62-.11 1.2-.15 1.75-.12.2 0 .4.02.601.04.01-.08.01-.17 0-.25.029-1.56.029-3.4.01-5.6-.13-14.33-.6-15.11-1.9-27.1 4.295 16.023 5.57 33.176 5.57 33.176s1.846-.128 2.642-.266c.438-3.102 2.152-21.467 1.318-26.35 2.63 8.55 2.33 15.2 2.521 25.58.01.03.01.06.01.09.18-.06.359-.11.54-.14 2.67-.55 5.96.38 9 .14l.27-.03c0-.03-.01-.06-.01-.1-.4-8.32-.64-14.98-2.45-21.26 2.181 5.68 4.08 13 4.95 20.66 0 .02.01.04.01.07 0 .05.011.1.011.15.01.03.01.06.02.1.08.01.16.01.25.02 1.23.11 2.47.19 3.65.05 1.994-.247 3.513-1.582 5.379-2.165.667 15.533-3.643 42.797-5.319 54.003-.839 5.757-1.671 11.249-2.304 16.2-4.776 36.774-4.247 71.054-2.08 93.846-3.753-.104-7.801-.221-12.19-.354zm34.33.891c-1.8-7.09-3.66-14.75-4.26-17.54-4.78-22.08-6.68-57.7-2.35-79.69-4.511 19.601-5.551 53.73 1.359 80.94.95 3.74 2.66 9.79 4.641 16.28-5.631-.109-12.501-.275-20.942-.51-.994-13.384-1.845-33.824-.302-56.421 2.255-36.467 10.913-86.177 9.76-107.737.274-.075.549-.15.834-.203.24-.05.48-.09.72-.13.96-.15 1.94-.25 2.9-.38l.37-.06c-.021-.09-.03-.18-.03-.28-.74-6.93-2.86-22.16-9.47-35.44-1.13-2.28-2.32-4.61-3.88-6.63-3.04-3.91-13.34-16.09-17.87-17.71 5.41 2.95 13.46 13.25 17.09 18.32 3.9 5.53 11.52 24.85 13.56 40.08.061.47.131.95.19 1.42-.97.08-1.96.1-2.93.23a7.8 7.8 0 00-.7.11c-.42.08-.83.18-1.23.32-1.93.68-3.449 2.17-5.54 2.4-1.109.13-2.26.1-3.399.05 0-.09-.01-.18-.021-.27.011-.01.03-.01.04-.02-.01 0-.029 0-.04.01-.279-4.54-.79-8.8-1.95-13.38-.579-2.27-2.67-7.84-5.1-12.25-.4-.72-.8-1.4-1.21-2.04.3.67.59 1.35.85 2.05 2.421 6.29 3.271 14.06 4.381 26.28-2.79.02-6.21-.83-8.98-.13.23-8.92.4-16.72-3.11-26.27-.09-.27-.189-.53-.29-.8v.65c.018 10.723-.445 18.599-1.341 27.3l-1.868.208c-.281-6.221-.846-14.428-1.7-19.028-1.32-7.09-2.931-12.55-4.62-17.04-.29-.8-.58-1.55-.88-2.28.02.47.05.94.08 1.41l.06.89c1.37 19.23 2.05 29.71 2.33 35.64-.43-.02-.91-.01-1.45.05-1.93.2-3.81.71-5.75.89-.1.01-.2.02-.31.01-.641-3.39-.811-6.35-.92-9.67a.028.028 0 010-.04 9.525 9.525 0 01-.021-.56 37.702 37.702 0 00-.68 7.91c.01.39.04 1.22.08 2.26-1.971-.27-4.221-1-6.13-.84-.41-2.81-.541-5.15-.601-5.79-.5-5.21-2.49-17.76-2.67-28.99-.01-.83-.01-1.65 0-2.46-.03.08-.06.17-.09.26-.24.73-.49 1.52-.73 2.38-2.43 8.47-4.82 22.83-3.8 33.37-1.58.02-2.19-.74-7.46.6-.66-4.44-1.37-9.72-1.83-16.91-.05-.68-.09-1.39-.12-2.11-.13.69-.27 1.39-.4 2.12-.85 4.72-1.57 10.17-1.12 16.04-1.97-.09-3.37-.38-4.54-.6l-.28-.06c-.91-.17-1.7-.29-2.55-.22.04-9.19.5-23.44 1.29-27.48l.15-.72c.04-.19.08-.38.13-.57-.24.37-.46.73-.67 1.11v.01c-2.87 5.07-4 11.09-4.68 16.86-.26 2.15-.57 6.99-.64 11.66-.66.18-1.32.34-1.98.36-2.37.18-5.19-2.63-9.53-1.96.26-2.61.69-5.89 1.39-10.11.13-.77.27-1.54.43-2.3.12-.56.24-1.12.37-1.68 1.53-6.51 4.05-12.69 7.29-18.56-4.84 7.94-7.48 15.26-8.86 21.6-2.1 4.37-3.69 9.15-4.28 13.58-.96-.58-2.05-1.07-3.28-1.24a3.26 3.26 0 00-.7-.07c-.67-.05-1.38.01-2.14.2 1.06-5.01 2.81-10.72 4.72-16.16.05-.14.1-.27.14-.41 2.31-6.51 4.81-12.58 6.62-16.49 4.05-8.76 9.38-13.92 17.64-22.9-7.84 7.83-14.29 13.62-18.31 21.5-2.34 4.59-4.76 9.25-6.34 14.17-1.32 4.14-3.99 12.8-5.18 20.49-.02.08-.03.16-.04.23.24-.08.47-.13.7-.18a8.668 8.668 0 011.384-.166c-1.706 21.073 1.026 39.395 7.971 68.821 0 0 1.324 6.811 2.002 12.007 2.208 19.151 1.688 29.073 1.495 63.551.009 5.47-.461 11.988-.714 17.839-5.923-.293-11.821-.83-17.718-1.401.91-2.79 1.93-5.59 2.73-8.08 4.77-14.79 7.95-48.95 1.23-86.431 4.23 28.811 3.22 58.641-.75 81.271-.67 3.82-2.34 8.6-3.64 13.2-6.5-.63-12.99-1.271-19.51-1.61-3.19-.17-6.16-.24-9.08-.29 16.37-39.41 18.46-57.8 16.27-124.56-.68-20.86-1.4-40.54 8.37-65.61 16.17-41.49 46.03-49.89 65.84-44.35.189.04.38.1.57.15.27-.03.54-.07.81-.1 9.23-1.1 16.92.36 26.6 7.13 23.62 16.52 35.21 48.19 36.87 76.97 1.65 28.58-4.13 64.52.98 100.85 1.78 12.64 5.04 24.949 8.85 37.12.44 1.51 3.83 9.34 6.96 16.529-3.54.361-9.22.541-25.54.231z" fill="#784b28"/><path d="M91.69 89.23c-3.71 7.46-14.12 8.15-17.78 8.15H61.79c-5.75 0-10.86-7.99-10.86-14.29v-6.16c0-.23.11-.46.29-.7l40.47 13zm18.68-12.58c-2.07 1.43-3.39 3.35-3.39 5.92v.5c0 2.44.5 4.47 1.34 6.15 3.71 7.46 14.12 8.15 17.78 8.15h12.12c4.09 0 7.85-4.05 9.68-8.66l-37.53-12.06z" fill="#fff" opacity=".2"/><path d="M91.69 89.23L51.21 76.22c.99-1.32 4.4-2.7 6.15-2.91 2.18-.26 6.63-.69 11.94-.69 8.86 0 23.72 1.29 23.72 9.96v.5c0 2.44-.5 4.47-1.33 6.15zm57.38-6.15v-6.16c0-.23-.11-.46-.29-.7-.99-1.32-4.4-2.7-6.15-2.91-2.18-.26-6.63-.69-11.94-.69-6.23 0-15.41.64-20.33 4.03l37.53 12.06c.75-1.86 1.18-3.81 1.18-5.63z" fill="#fff" opacity=".4"/><path d="M149.73 78.68v-1.76c0-2.1-4.9-3.99-7.01-4.25-9.42-1.12-31.52-2.02-35.7 6.76-2.78-.92-5.88-1.28-7.02-1.29-1.14.01-4.24.37-7.02 1.29-4.17-8.77-26.27-7.88-35.7-6.76-2.11.25-7.01 2.14-7.01 4.25v1.76H45.5v2.36h4.77v2.04c0 6.3 5.15 14.94 11.51 14.94H73.9c8.33 0 19.76-3.13 19.76-14.94v-.5c0-.76-.1-1.46-.29-2.12 3.46-1.07 5.55-1.29 6.62-1.31 1.07.01 3.16.24 6.62 1.31-.19.66-.29 1.36-.29 2.12v.5c0 11.81 11.44 14.94 19.76 14.94h12.12c6.36 0 11.51-8.64 11.51-14.94v-2.04h4.77v-2.36h-4.75zm-56.87 4.4c0 13.11-14.5 14.13-18.95 14.13H61.79c-5.66 0-10.7-7.9-10.7-14.13v-6.16c0-1.31 4.09-3.18 6.29-3.44 2.17-.26 6.62-.69 11.92-.69 8.8 0 23.55 1.27 23.55 9.79v.5zm56.05 0c0 6.23-5.04 14.13-10.7 14.13h-12.12c-4.45 0-18.95-1.02-18.95-14.13v-.5c0-8.52 14.76-9.79 23.55-9.79 5.31 0 9.75.43 11.92.69 2.2.26 6.3 2.13 6.3 3.44v6.16z" fill="#604ab3"/></svg>