<svg xmlns="http://www.w3.org/2000/svg" width="500" height="500" viewBox="0 0 200 200" overflow="hidden"><defs><radialGradient id="l" cx="100" cy="113" r="40" gradientUnits="userSpaceOnUse" class="svga-on-canvas-facehighlight-gradient-single-0"><stop stop-opacity=".5" stop-color="#fff4f3" offset="0"/><stop stop-opacity="0" stop-color="#f3d4cf" offset=".9"/></radialGradient><radialGradient id="m" cx="100" cy="57" r="36" gradientUnits="userSpaceOnUse" class="svga-on-canvas-facehighlight-gradient-single-1"><stop stop-opacity=".5" stop-color="#fff4f3" offset="0"/><stop stop-opacity="0" stop-color="#f3d4cf" offset=".9"/></radialGradient><radialGradient id="a" cx="100" cy="100" r="150" gradientUnits="userSpaceOnUse" class="svga-on-canvas-backs-gradient-single-1"><stop stop-opacity="0" stop-color="#5e8c6a" offset="0"/><stop stop-color="#477d55" offset=".2"/><stop stop-opacity="0" stop-color="#477d55" offset="1"/></radialGradient><radialGradient id="d" cx="126.443" cy="86.829" r="13.737" gradientTransform="matrix(-1.0172 0 0 1.0172 202.565 -1.469)" gradientUnits="userSpaceOnUse" class="svga-on-canvas-eyesback-gradient-left-0"><stop stop-color="#fff" offset="0"/><stop stop-color="#fdfefe" offset=".544"/><stop stop-color="#f6f8f9" offset=".74"/><stop stop-color="#eaeff2" offset=".879"/><stop stop-color="#d9e3e8" offset=".992"/><stop stop-color="#d8e2e7" offset="1"/></radialGradient><radialGradient id="h" cx="126.443" cy="86.829" r="13.737" gradientTransform="translate(-2.565 -1.469) scale(1.0172)" gradientUnits="userSpaceOnUse" class="svga-on-canvas-eyesback-gradient-right-0"><stop stop-color="#fff" offset="0"/><stop stop-color="#fdfefe" offset=".544"/><stop stop-color="#f6f8f9" offset=".74"/><stop stop-color="#eaeff2" offset=".879"/><stop stop-color="#d9e3e8" offset=".992"/><stop stop-color="#d8e2e7" offset="1"/></radialGradient><radialGradient id="f" cx="122.915" cy="85.449" fx="134.942" fy="85.483" r="17.105" gradientTransform="matrix(.9998 .0208 .0166 -.7998 -47.226 151.236)" gradientUnits="userSpaceOnUse" class="svga-on-canvas-eyesfront-gradient-left-3"><stop stop-color="#e4b3ab" offset="0"/><stop stop-opacity=".3" stop-color="#e4b3ab" offset=".7"/><stop stop-opacity="0" stop-color="#f3d4cf" offset="1"/></radialGradient><radialGradient id="g" cx="74.869" cy="108.958" r="29.944" gradientTransform="matrix(.875 -.0456 .0459 .8698 2.89 16.306)" gradientUnits="userSpaceOnUse" class="svga-on-canvas-eyesfront-gradient-left-4"><stop stop-opacity="0" offset=".95"/><stop stop-opacity=".3" offset="1"/></radialGradient><radialGradient id="j" cx="122.915" cy="85.449" fx="134.942" fy="85.483" r="17.105" gradientTransform="matrix(-.9998 .0208 -.0166 -.7998 247.226 151.236)" gradientUnits="userSpaceOnUse" class="svga-on-canvas-eyesfront-gradient-right-3"><stop stop-color="#e4b3ab" offset="0"/><stop stop-opacity=".3" stop-color="#e4b3ab" offset=".7"/><stop stop-opacity="0" stop-color="#f3d4cf" offset="1"/></radialGradient><radialGradient id="k" cx="74.869" cy="108.958" r="29.944" gradientTransform="matrix(-.875 -.0456 -.0459 .8698 197.11 16.306)" gradientUnits="userSpaceOnUse" class="svga-on-canvas-eyesfront-gradient-right-4"><stop stop-opacity="0" offset=".95"/><stop stop-opacity=".3" offset="1"/></radialGradient><linearGradient id="e" x1="130" y1="81" x2="126" y2="85" gradientTransform="translate(-50)" gradientUnits="userSpaceOnUse" class="svga-on-canvas-eyesiris-gradient-left-6"><stop stop-color="#fff" offset="0"/><stop stop-opacity="0" stop-color="#fff" offset="1"/></linearGradient><linearGradient id="i" x1="130" y1="81" x2="126" y2="85" gradientUnits="userSpaceOnUse" class="svga-on-canvas-eyesiris-gradient-right-6"><stop stop-color="#fff" offset="0"/><stop stop-opacity="0" stop-color="#fff" offset="1"/></linearGradient><linearGradient id="c" x1="100" y1="143" x2="100" y2="140" gradientUnits="userSpaceOnUse" class="svga-on-canvas-mouth-gradient-single-0"><stop stop-color="#ebc3bd" offset=".1"/><stop stop-color="#e4b3ab" offset="1"/></linearGradient><linearGradient id="b" x1="99.98" y1="171.27" x2="99.98" y2="136.351" gradientUnits="userSpaceOnUse" class="svga-on-canvas-chinshadow-gradient-single-0"><stop stop-opacity=".8" stop-color="#e4b3ab" offset="0"/><stop stop-color="#c5796d" offset=".7"/></linearGradient></defs><path d="M225 225H-25V-25h250v250z" fill="#5e8c6a"/><path d="M100 99.999l-10-150h20l-10 150zM72.382-47.775L53.01-42.802 100 99.999 72.382-47.775zM36.5-36.265L18.973-26.63 100 99.999 36.5-36.265zM4.607-16.192L-9.973-2.5 100 99.999 4.607-16.192zm-25.899 27.374l-10.717 16.887L100 99.999-21.292 11.182zm-18.277 32.954l-6.18 19.022L100 99.999-39.569 44.136zM-49.077 80.6l-1.256 19.961L100 99.999-49.077 80.6zm-.141 37.683l3.748 19.646L100 99.999l-149.218 18.284zm9.235 36.534l8.516 18.098L100 99.999l-139.983 54.818zm18.03 33.09l12.75 15.411L100 99.999l-121.953 87.908zM3.74 215.474l16.182 11.757L100 99.999 3.74 215.474zm31.741 20.311l18.597 7.363L100 99.999 35.481 235.785zm35.795 11.779l19.844 2.507L100 99.999 71.276 247.564zm37.601 2.507l19.844-2.507L100 99.999l8.877 150.072zm37.042-6.923l18.598-7.362L100 99.999l45.919 143.149zm34.157-15.917l16.183-11.756L100 99.999l80.076 127.232zm29.125-23.911l12.751-15.411L100 99.999 209.201 203.32zm22.264-30.403l8.519-18.098L100 99.999l131.465 72.918zm14.004-34.984l3.75-19.648L100 99.999l145.469 37.934zm4.863-37.369L249.078 80.6 100 99.999l150.332.565zm-4.583-37.403l-6.179-19.025L100 99.999l145.749-36.838zm-13.74-35.089l-10.716-16.891L100 99.999l132.009-71.927zm-22.035-30.57l-14.58-13.695L100 99.999 209.974-2.498zm-28.946-24.129l-17.527-9.639L100 99.999l81.028-126.626zM146.992-42.8l-19.374-4.978L100 99.999 146.992-42.8z" fill="url(#a)"/><path d="M100.5 100.5h-1v-1h1v1z" fill="#6b4e40"/><path d="M190.858 199.866c-6.008-10.158-13.474-11.973-19.628-13.936-6.323-2.016-19.346-3.178-26.449-4.6-6.86-1.373-23.153-5.789-23.339-13.488-.192-8.066 4.291-40.09 4.291-40.09H74.005s4.487 32.023 4.294 40.09c-.184 7.699-16.48 12.115-23.341 13.488-7.104 1.422-20.125 2.584-26.448 4.6-6.156 1.963-13.624 3.777-19.632 13.936-3.644 6.16-6.008 16.133-6.008 27.133h194c-.001-11-2.361-20.973-6.012-27.133z" fill="#f3d4cf"/><path d="M121.442 167.843c2.495 10.929 18.165 13.698 26.293 15.325 21.909 4.379 33.772 5.134 42.297 19.539 2.903 4.916 5.459 15.864 5.962 24.153 1.835.291.531-17.432-5.136-26.994-9.742-16.472-29.089-15.135-46.077-18.535-6.86-1.373-23.153-5.789-23.339-13.488zm-42.884 0c-.186 7.699-16.479 12.115-23.339 13.488-16.988 3.4-36.335 2.063-46.077 18.535-5.667 9.563-6.971 27.285-5.136 26.994.503-8.289 3.059-19.237 5.962-24.153 8.524-14.405 20.388-15.16 42.297-19.539 8.128-1.627 23.798-4.397 26.293-15.325z" fill="#fff4f3"/><path d="M51.206 189.513s28.641.299 33.473 1.885c2.314.758 8.372 5.633 8.372 5.633s-6.556-3.17-8.658-3.758c-4.883-1.364-33.187-3.76-33.187-3.76zm48.589 10.486c2.053-.041 7.887-3.799 7.887-3.799s-5.574 2.059-7.342 2.16c-1.491.086-6.366-1.238-6.366-1.238s4.138 2.91 5.821 2.877zm17.213-7.242c6.75-1.818 29.786-3.23 29.786-3.23s-23.791-.516-30.51 1.725c-2.252.752-7.562 5.16-7.562 5.16s6.064-3.058 8.286-3.655z" fill="#e4b3ab"/><path d="M190.858 199.866c-9.741-16.471-29.122-15.142-46.077-18.535-6.86-1.373-23.153-5.789-23.339-13.488-.192-8.066 4.291-40.09 4.291-40.09H74.005s4.487 32.023 4.294 40.09c-.184 7.699-16.48 12.115-23.341 13.488-7.104 1.422-20.125 2.584-26.448 4.6-6.156 1.963-13.624 3.777-19.632 13.936C5.234 206.027 2.87 216 2.87 227h194c-.001-11.001-2.361-20.974-6.012-27.134z" fill="none" stroke="#c5796d" stroke-width="1.5"/><path d="M96.621 172.397c1.862 1.009 4.905 1.009 6.765.001 4.022-2.175 10.793-6.271 17.707-10.99.604-7.53 1.97-18.516 2.938-25.903-14.398-1.508-33.984-1.493-48.319.038.961 7.323 2.309 18.157 2.919 25.666 7.015 4.801 13.916 8.981 17.99 11.188z" fill="url(#b)"/><path d="M4.299 238.659c-.18-1-2.264-16.415-2.47-22.946-.294-9.499 1.371-23.079 10.881-22.987 10.824-7.524 29.089-14.021 41.718-17.795 7.903-8.587 9.483-11.971 22.612-17.874l-.01-.127c1.513 10.484 2.967 15.62-8.844 19.862-1.893 2.63-3.665 5.194-6.158 8.787 3.793 20.511 4.981 34.739 5.444 53.437 0 0 3.771.011 65.288-.271 2.066-21.594-.221-33.876 4.806-53.726 0 0-4.021-4.846-6.726-8.573-11.595-4.517-9.139-11.206-8.146-19.353 10.072 4.714 13.179 8.309 21.653 17.281 6.702 1.904 13.776 3.962 20.646 6.653 9.097 3.563 20.648 10.538 21.648 11.366 3.7-.107 5.789 1.931 7.347 5.283 5.044 10.821 3.85 26.385 2.034 41.358-17.815.031-140.942 2.14-191.723-.375z" fill="#82cbe2"/><path d="M77.464 159.895a82.99 82.99 0 01.383 2.938c-.204.257-15.968 22.574-16.084 22.742 3.898-9.183 9.38-18.697 15.701-25.68zm44.96 0c-.148 1.034-.172 2.015-.271 2.938.203.257 15.799 21.719 15.914 21.887-4.129-8.555-9.321-17.842-15.643-24.825zm36.351 30.035c-3.994 6.022-4.847 8.102-9.219 14.07 1 0 2.612.162 3.612.162 3.42-6.076 3.426-9.169 5.607-14.232zm4.093 43.714c3.54-8.603 6.471-16.152 10.022-24.768l-1.164-1.946c-2.956 8.848-6.095 17.84-8.858 26.714zM46.831 204.162c1 0 2.612-.162 3.612-.162-4.372-5.969-5.225-6.342-9.219-12.364 2.182 5.063 2.188 6.45 5.607 12.526zm-18.558 2.768l-1.164 1.946c3.552 8.615 4.447 16.165 7.987 24.768-2.763-8.874-3.866-17.866-6.823-26.714z" fill="#64b8d3"/><path d="M77.059 169.855c-.83 2.3-3.59 4.11-5.59 5.25-.97.55-1.99 1.02-3.02 1.46.47-.68.95-1.36 1.44-2.03 2.32-3.24 4.58-6.5 6.75-9.85.31-.48.61-.97.91-1.46.16 2.171.34 4.65-.49 6.63zm46.11.451c-1.26-2.11-1.14-4.94-1-7.351 2.3 4.101 4.72 8.11 7.45 11.971.28.399.56.79.85 1.18-2.92-1.311-5.64-3.01-7.3-5.8z" fill="#49a6c3"/><path d="M122.672 157.263c.007-.057.015-.112.021-.169 16.884 9.666 24.725 22.013 36.082 32.836-.418.697-1.146 1.155-1.573 1.843-11.894-9.376-15.605-21.377-34.53-34.51zm-47.203.642c-14.219 4.537-32.507 31.672-34.445 33.519.418.697.645.558 1.073 1.245 11.895-9.375 12.212-20.383 33.372-34.764zm118.519 39.773c-1.558-3.353-3.646-5.391-7.347-5.283-1-.828-12.552-7.804-21.648-11.366-6.636-2.6-13.705-3.761-20.203-5.61 31.446 15.756 44.648 20.435 50.14 26.017-.288-.782-.598-3.02-.942-3.758zM10 198c14.511-7.683 26.714-13.407 44.203-23.001-12.62 3.784-30.732 10.246-41.493 17.727-7.185-.069-9.89 7.664-10.658 15.546C5.147 202.205 6.798 200.401 10 198z" fill="#a3dff1"/><path d="M197.589 214.005c-.21-5.52-1.16-11.329-3.51-16.369-1.24-2.67-2.91-4.83-5.979-5.24a9.85 9.85 0 00-1.08-.09c-.11-.011-.23-.021-.341-.011-.069-.06-.149-.1-.22-.149-2.31-1.47-4.7-2.82-7.01-4.17-4.66-2.721-9.39-5.07-14.42-7.04-6.74-2.641-13.66-4.67-20.61-6.63-.79-.83-1.59-1.67-2.38-2.511-3.51-3.729-6.99-7.409-11.24-10.319-2.3-1.58-4.75-2.92-7.27-4.101-.271-.13-.54-.25-.811-.38-.029-.02-.069-.029-.109-.05-.021.2-.05.39-.08.58-.2 1.33-.42 2.67-.58 4-.04.29-.07.57-.1.86-.011.149-.03.29-.04.439-.23 2.66-.32 5.66 1.159 8 1.82 2.87 4.7 4.49 7.79 5.68a131.614 131.614 0 006.36 8.061c.12.14.24.28.35.43-.939 3.71-1.59 7.51-2.17 11.28-.819 5.42-1.35 10.84-1.489 16.32-.15 5.449-.011 10.939-.311 16.39-.17 3.22-.53 6.44-.83 9.66-1.069 0-2.14.01-3.21.01l-31.72.15c-10.06.05-20.11.08-30.17.109-.21-9.699-.71-19.359-1.81-29.01-.58-5.01-1.06-10.04-1.95-15.01-.55-3.09-1.1-6.18-1.7-9.26 2.03-2.92 4.05-5.851 6.11-8.75 3.65-1.311 7.29-3.131 9.13-6.58 1.14-2.16.78-5.261.54-7.65l-.03-.29c-.03-.27-.05-.53-.09-.79-.15-1.359-.36-2.72-.55-4.07-.04-.199-.06-.39-.09-.59-.05.021-.09.04-.13.051-.29.13-.58.25-.87.369-2.75 1.17-5.42 2.521-7.9 4.181-2.34 1.56-4.5 3.33-6.53 5.27-1.99 1.91-3.76 4.09-5.6 6.141-.57.64-1.14 1.27-1.7 1.909-1.31.391-2.61.801-3.91 1.2-4.93 1.53-9.75 3.29-14.58 5.11-2.61.99-5.18 2.07-7.75 3.16-2.38 1.02-4.81 2.01-7.07 3.279-2.51 1.4-5.09 2.86-7.56 4.48-.18.11-.36.229-.54.35-.11.07-.21.141-.31.21-.6-.01-1.2.03-1.79.15-3.79.729-6.07 4.16-7.31 7.55-1.79 4.891-2.01 10.24-1.85 15.391.17 5.38.92 10.71 1.56 16.039.27 2.271.57 4.53.9 6.79 0 .07.01.141.03.21l1.83.091c4.09.21 8.18.39 12.27.479 16.34.37 32.69.65 49.03.71h.24c4.1.01 8.19.01 12.29-.01 11.2-.06 22.4-.11 33.61-.16 6.36-.03 12.72-.06 19.08-.1.09 0 .18 0 .27-.011 5.011-.02 10.021-.06 15.03-.119 15.45-.16 30.91-.36 46.36-.48.63-.01 1.25-.02 1.88-.02.02-.131.029-.25.04-.381.279-2.46.529-4.93.76-7.39.541-5.798.902-11.528.681-17.358zm-120.53-44.15c-.83 2.3-3.59 4.11-5.59 5.25-.97.55-1.99 1.02-3.02 1.46.47-.68.95-1.36 1.44-2.03 2.32-3.24 4.58-6.5 6.75-9.85.31-.48.61-.97.91-1.46.16 2.171.34 4.65-.49 6.63zm-12.37 69.071c-12.94.029-25.88.06-38.82-.011h-.29c-6.52-.04-13.03-.16-19.55-.319-.29-2.9-.59-5.811-.94-8.71-.69-5.681-1.44-11.36-1.4-17.101.03-5.2.18-11.33 3.06-15.859 1.11-1.75 2.74-2.95 4.65-3.421.54-.14 1.11-.22 1.7-.22.01-.01.01-.01.02 0 .31 2.05.66 4.09 1.01 6.141.36 2.159.64 4.34 1.22 6.449.62 2.19 1.25 4.38 1.95 6.551 1.3 4 2.59 8 3.85 12.02 1.26 4.06 3.14 7.86 4.73 11.79-1.11-4.08-2.59-8.04-3.6-12.14-.99-3.98-2.25-7.83-3.53-11.721-.37-1.12-.71-2.239-1.03-3.37-.94-3.229-1.72-6.47-2.45-9.77-.49-1.98-.96-3.96-1.44-5.94-.03-.119-.06-.229-.09-.35.12-.06.24-.12.35-.18.28-.15.56-.29.83-.431 2.67-1.39 5.35-2.76 8.08-4.02 4.87-2.23 9.93-4.21 14.94-6.11 5.05-1.91 10.08-3.859 15.1-5.85-2.34 2.63-4.66 5.27-6.93 7.96-1.78 2.11-3.35 4.35-4.84 6.64-.14.21-.28.42-.41.641.11.189.23.37.36.56 2.54 3.89 5.15 7.76 7.83 11.561-2.62.22-5.24.47-7.85.789-3.51.431-6.99.931-10.44 1.721-.73.17-1.46.33-2.2.479-.31.07-.62.141-.94.2.07.2.13.41.19.61 2.53 8.71 4.24 17.66 7.32 26.22-.87-5.3-1.74-10.57-2.98-15.8-.72-2.99-1.52-5.96-2.6-8.851a28.43 28.43 0 00-.7-1.72c.7-.1 1.4-.22 2.1-.35 3.52-.63 7.04-1.2 10.59-1.63 2.64-.32 5.26-.71 7.88-1.141.39-.06.78-.12 1.17-.189l-.27-.45a94.478 94.478 0 00-3.41-5.36c-1.66-2.33-3.38-4.56-5.18-6.74 1.78-2.289 3.72-4.42 5.72-6.529 3.1-3.271 6.08-6.63 9.08-9.99.26-.3.53-.61.8-.91.06-.06.11-.13.17-.189 3.5-3.95 6.95-7.83 11.19-11.051 2.44-1.869 5.06-3.47 7.78-4.93.2-.11.39-.21.59-.31.14 1.47.3 2.939.4 4.42-2.85 4.09-5.75 8.149-8.67 12.21-.74 1.02-1.46 2.05-2.17 3.08-.04.05-.08.109-.12.16-1.58 2.3-3.12 4.63-4.61 6.989-.13.21-.26.41-.39.62.05.42.09.83.14 1.24.97 9.04 1.84 18.09 2.86 27.13.95 8.49 1.65 17 2.7 25.47-.84.012-1.67.012-2.51.012zm58.48-68.62c-1.26-2.11-1.14-4.94-1-7.351 2.3 4.101 4.72 8.11 7.45 11.971.28.399.56.79.85 1.18-2.92-1.311-5.64-3.01-7.3-5.8zm66.81 68.389c-5.431-.03-10.87-.06-16.301-.08-13.55-.04-27.09-.03-40.63.03.11-.62.23-1.25.34-1.87.551-3.04 1.25-6.12 1.45-9.2.37-5.479.511-10.939.66-16.43.14-5.41.78-10.811 1.32-16.18.319-3.141.64-6.29 1.12-9.41.06-.41.12-.811.189-1.21-.1-.15-.21-.29-.319-.44-.021-.02-.03-.04-.051-.06-1.71-2.23-3.46-4.42-5.149-6.66l-.21-.271a95.196 95.196 0 01-1.91-2.609c-2.851-4.04-5.561-8.181-8.25-12.33.1-1.46.28-2.91.42-4.37.18.11.37.21.55.32 2.45 1.43 4.84 2.97 7.061 4.739 4.069 3.24 7.569 6.99 11.1 10.771.01.01.02.03.03.04l.87.93c3.14 3.35 6.3 6.68 9.6 9.88 2 1.94 4.09 3.78 6.15 5.66-.36.44-.71.88-1.061 1.33-1.56 2.02-2.88 4.27-4.25 6.42-1.189 1.96-2.32 3.94-3.39 5.96-.08.14-.15.28-.22.42.369.07.739.141 1.109.2 2.8.51 5.62.97 8.44 1.36 4.1.569 8.18 1.26 12.279 1.8a39.9 39.9 0 00-.649 1.29c-1.34 2.75-2.43 5.84-3.351 8.75-1.699 5.359-3.06 10.72-4.06 16.26 1.01-2.63 1.94-5.28 2.87-7.93.99-2.84 1.8-5.761 2.83-8.59 1.16-3.211 2.29-6.431 3.41-9.65.069-.19.13-.37.199-.561-.319-.05-.64-.109-.949-.159-4.15-.75-8.29-1.521-12.471-2.11-2.729-.38-5.479-.69-8.229-.96 2.81-4.36 5.47-8.81 8.13-13.26.1-.181.21-.351.31-.521a8.89 8.89 0 00-.51-.58c-2.01-2.25-4.109-4.439-6.149-6.68-2.16-2.38-4.37-4.72-6.591-7.05 6.46 2.38 12.95 4.66 19.381 7.109 4.77 1.82 9.3 4.23 13.85 6.54 2.03 1.021 4.11 2 6.16 3.04.24.11.479.23.71.351.149.08.29.149.43.229-.57 2.19-1.38 4.29-2.11 6.431-1.05 3.08-1.88 6.22-2.779 9.35-.37 1.27-.75 2.54-1.16 3.8-1.37 4.17-2.66 8.32-3.73 12.59-.93 3.7-1.859 7.41-2.779 11.11 2.979-7.91 5.47-15.97 8.08-24.01 1.409-4.34 2.47-8.771 3.68-13.17.53-1.931 1.03-3.84 1.4-5.79.029-.15.06-.3.09-.46.229.02.449.05.67.1.59.1 1.149.271 1.689.49 1.36.56 2.311 1.71 3.011 3.07.02.029.029.06.05.09.79 1.56 1.25 3.38 1.63 4.859 2.66 10.36 1.72 21.28.75 31.78-.17 1.85-.33 3.69-.48 5.54a861.48 861.48 0 00-4.28-.038z" fill="#3295b4"/><path d="M140.337 130.669c-6.672 9.572-28.551 24.338-37.142 29.263-1.757 1.008-4.626 1.008-6.383-.001-8.584-4.93-30.469-19.691-37.144-29.262C51.541 119.018 41.15 77 41.138 76.946a60.39 60.39 0 01-2.004-15.382C39.082 28.09 66.289.919 99.907.867 133.528.815 160.82 27.9 160.87 61.374a60.457 60.457 0 01-1.952 15.389c-.017.052-10.43 42.213-18.581 53.906z" fill="#f3d4cf"/><path d="M132.741 10.389c15.702 10.981 25.962 29.15 25.93 49.708a60.435 60.435 0 01-2.004 15.382c-.012.053-10.491 42.01-18.53 53.723-6.665 9.715-25.83 26.717-37.145 29.995-.475.138-1.505.138-1.98 0-11.314-3.278-30.479-20.28-37.144-29.995-8.039-11.713-18.519-53.669-18.53-53.723a60.39 60.39 0 01-2.004-15.382c-.032-20.559 10.227-38.727 25.929-49.708-16.937 10.783-28.162 29.672-28.129 51.175a60.39 60.39 0 002.004 15.382c.012.053 10.403 42.071 18.53 53.723 6.675 9.57 28.56 24.332 37.144 29.262l.002.001h-.005c.879.504 2.036.757 3.193.755 1.157.002 2.314-.251 3.193-.755h-.005l.002-.001c8.585-4.93 30.469-19.691 37.145-29.262 8.127-11.651 18.519-53.669 18.529-53.723a60.39 60.39 0 002.004-15.382c.034-21.503-11.191-40.392-28.129-51.175z" fill="#ebc3bd"/><path d="M140.337 130.669c-6.672 9.572-28.551 24.338-37.142 29.263-1.757 1.008-4.626 1.008-6.383-.001-8.584-4.93-30.469-19.691-37.144-29.262C51.541 119.018 41.15 77 41.138 76.946a60.39 60.39 0 01-2.004-15.382C39.082 28.09 66.289.919 99.907.867 133.528.815 160.82 27.9 160.87 61.374a60.457 60.457 0 01-1.952 15.389c-.017.052-10.43 42.213-18.581 53.906z" fill="none" stroke="#c5796d" stroke-width="1.5"/><path d="M99.983 143.169c-3.24 0-4.753-3.102-4.753-3.102l9.279-.067s-1.677 3.169-4.526 3.169z" fill="url(#c)"/><path d="M99.869 131.603c-6.552 0-9.471 2.347-12 5.397h24c-2.098-3.125-5.166-5.397-12-5.397z" fill="#fff"/><path d="M99.869 131.603c-6.552 0-9.471 2.347-12 5.397h24c-2.098-3.125-5.166-5.397-12-5.397z" fill="none" stroke="#b70000" stroke-width=".75"/><path d="M87.406 85s.229 1.408.229 2.353c0 .804-.079 1.592-.223 2.361l-.006-.049-1.239 3.592c-12.532 2.012-19.052 1.868-20.346 0-2.511-3.626-3.766-5.613-4.094-11.03 6.761.441 18.484-7.501 25.679 2.773z" fill="url(#d)"/><path d="M83.206 89.5c-1.231 4.522-5.896 7.187-10.429 5.944-4.528-1.241-7.203-5.918-5.97-10.442 1.23-4.526 5.905-7.19 10.434-5.947 4.527 1.24 7.198 5.918 5.965 10.445z" fill="#b0b9d9" stroke="#576aab" stroke-width=".5"/><path d="M73.962 82.168l-.221-.395c-.776.308-1.524.631-2.232.973l.524 1.267-.066.732-2.021-1.189c-.66.367-1.273.75-1.867 1.14l.005.013-.692.78 1.107 1.132-1.491.813.563.931 2.633.262-2.468 1.673 2.641-.146-1.393 2.396 3.255-1.969-.875 3.349 1.883-3.093.363 3.319.544-2.936.5-.061.709 3.329.216-.998c.284-.074 1.018.997 1.297.922l-.829-3.621 1.817 3.621-.737-3.756 2.236 2.905c.08-.025.278-1.204.357-1.228l-1.392-2.081 2.53.763-1.518-1.643-1.219-1.009 5.083 1.137-2.83-1.723 2-.818-4.329-.437 4.281-2.27-3.875.988-1.043-.565-.256-.501.074-1.199.086-1.967-1.768 3.113-.156-2.279-.222-.597c-.354.124-.702.245-1.043.375l-.161.548z" fill="#d4d8e8"/><path d="M83.303 85.487c-7.429.338-11.206 1.927-16.591 3.727-1.038-4.574 1.839-9.12 6.42-10.149 4.58-1.029 9.135 1.846 10.171 6.422z" fill="#8f9cca" opacity=".9"/><path d="M76.234 84.415c-1.869-.536-3.777.532-4.258 2.395-.484 1.853.64 3.793 2.51 4.329 1.871.537 3.781-.532 4.264-2.386.487-1.864-.643-3.803-2.516-4.338z" opacity=".8"/><path d="M76.234 84.415c-1.869-.536-3.777.532-4.258 2.395-.484 1.853.64 3.793 2.51 4.329 1.871.537 3.781-.532 4.264-2.386.487-1.864-.643-3.803-2.516-4.338z" fill="none" stroke="#576aab" stroke-width=".75"/><path d="M68.812 92.294c.868 1.378 2.021 2.416 3.653 2.762 1.879.398 2.094-2.101.748-2.387-1.02-.215-1.667-.715-2.199-1.561-.975-1.548-2.985-.055-2.202 1.186z" fill="#fff" opacity=".5"/><path d="M76.468 83.449c1.316.265 2.082 1.087 2.747 2.323 1.222 2.272 4.676.252 3.453-2.019-1.073-1.995-2.86-3.703-5.138-4.162-2.915-.587-3.324 3.402-1.062 3.858z" fill="url(#e)" transform="translate(0 .25)"/><path d="M55 88c0 13.808 8.507 24.999 19 24.999S93 101.808 93 88c0-13.809-8.507-25.001-19-25.001S55 74.191 55 88zm6.728-5.773c6.761.441 18.483-7.501 25.679 2.773 0 0 .229 1.408.229 2.353 0 .804-.079 1.592-.223 2.361l-.006-.049-1.239 3.592c-12.532 2.012-19.052 1.868-20.346 0-2.511-3.627-3.766-5.613-4.094-11.03z" fill="#f3d4cf"/><path d="M60 86.075c.023 7.732 7.646 13.964 17.039 13.924 9.389-.043 16.984-6.343 16.961-14.075-.023-7.733-7.648-13.966-17.041-13.925-9.391.043-16.982 6.343-16.959 14.076zm1.728-3.848c6.761.441 18.483-7.501 25.679 2.773 0 0 .229 1.408.229 2.353 0 .804-.079 1.592-.223 2.361l-.006-.049-1.239 3.592c-12.532 2.012-19.052 1.868-20.346 0-2.511-3.627-3.766-5.613-4.094-11.03z" fill="url(#f)"/><path d="M65.821 93.256c-2.511-3.626-3.766-5.613-4.094-11.03 6.761.441 18.483-7.501 25.679 2.773 0 0 .229 1.408.229 2.353 0 .804-.079 1.592-.223 2.361l-.006-.049-1.239 3.592c-12.532 2.013-19.052 1.869-20.346 0z" fill="url(#g)"/><path d="M66.743 77.239c3.619-.602 14.869-1.189 19.433 2.761-6.916-3.879-14.841-2.983-19.433-2.761z" fill="#c5796d"/><path d="M66.008 80.011c-2.064.413-6.817-.817-9.987-2.012 1.351.882 2.35 1.722 3.659 2.26-1.147.229-2.911 0-5.146-.496 2.832 1.847 4.239 2.518 5.891 2.667-.087 4.733 2.622 8.9 4.449 11.227l-2.278 1.985c1.233-.639 2.331-1.083 3.351-1.055 1.504.662 2.649 1.054 4.465 1.489l-1.55 1.923c1.763-.754 3.144-1.807 5.583-2.357 4.403-.993 11.677-1.049 12.431-1.899.684-.771.761-2.298.532-4.117l-1.041 2.969c-.109.313-.463.608-.79.659-12.146 1.883-18.48 1.716-19.754-.093-2.511-3.568-3.766-5.523-4.094-10.854 6.761.435 18.483-7.381 25.679 2.729l-.352-1.757c0 .062 1.344.662 1.344.662-5.664-6.272-11.227-6.163-22.392-3.93z" fill="#09112e"/><path d="M112.594 85s-.229 1.408-.229 2.353c0 .804.079 1.592.223 2.361l.006-.049 1.239 3.592c12.532 2.012 19.052 1.868 20.346 0 2.511-3.626 3.766-5.613 4.094-11.03-6.761.441-18.484-7.501-25.679 2.773z" fill="url(#h)"/><path d="M133.199 89.5c-1.231 4.522-5.896 7.187-10.429 5.944-4.528-1.241-7.203-5.918-5.97-10.442 1.23-4.526 5.905-7.19 10.434-5.947 4.527 1.24 7.199 5.918 5.965 10.445z" fill="#b0b9d9" stroke="#576aab" stroke-width=".5"/><path d="M123.955 82.168l-.221-.395c-.776.308-1.524.631-2.232.973l.524 1.267-.066.732-2.021-1.189c-.66.367-1.273.75-1.867 1.14l.005.013-.692.78 1.107 1.132-1.492.811.563.931 2.633.262-2.468 1.673 2.641-.146-1.392 2.398 3.255-1.969-.875 3.349 1.883-3.093.363 3.319.544-2.936.5-.061.709 3.329.216-.998c.284-.074 1.018.997 1.297.922l-.829-3.621 1.817 3.621-.737-3.756 2.236 2.905c.08-.025.278-1.204.357-1.228l-1.392-2.081 2.53.763-1.518-1.643-1.219-1.009 5.083 1.137-2.83-1.723 2-.818-4.329-.437 4.281-2.27-3.875.988-1.043-.565-.256-.501.074-1.199.086-1.967-1.768 3.113-.156-2.279-.222-.597c-.354.124-.702.245-1.043.375l-.161.548z" fill="#d4d8e8"/><path d="M133.296 85.487c-7.429.338-11.206 1.927-16.591 3.727-1.038-4.574 1.839-9.12 6.42-10.149 4.58-1.029 9.135 1.846 10.171 6.422z" fill="#8f9cca" opacity=".9"/><path d="M126.229 84.415c-1.869-.536-3.777.532-4.259 2.395-.484 1.853.641 3.793 2.509 4.329 1.873.537 3.78-.532 4.266-2.386.484-1.864-.644-3.803-2.516-4.338z" opacity=".8"/><path d="M126.229 84.415c-1.869-.536-3.777.532-4.259 2.395-.484 1.853.641 3.793 2.509 4.329 1.873.537 3.78-.532 4.266-2.386.484-1.864-.644-3.803-2.516-4.338z" fill="none" stroke="#576aab" stroke-width=".75"/><path d="M118.805 92.294c.868 1.378 2.021 2.416 3.653 2.762 1.879.398 2.094-2.101.748-2.387-1.02-.215-1.667-.715-2.199-1.561-.975-1.548-2.985-.055-2.202 1.186z" fill="#fff" opacity=".5"/><path d="M126.461 83.449c1.316.265 2.082 1.087 2.747 2.323 1.222 2.272 4.676.252 3.453-2.019-1.073-1.995-2.86-3.703-5.138-4.162-2.915-.587-3.324 3.402-1.062 3.858z" fill="url(#i)" transform="translate(0 .25)"/><path d="M126 62.999c-10.493 0-19 11.193-19 25.001 0 13.808 8.507 24.999 19 24.999S145 101.808 145 88c0-13.809-8.507-25.001-19-25.001zm8.179 30.257c-1.294 1.868-7.813 2.013-20.346 0l-1.239-3.592-.006.049a12.81 12.81 0 01-.223-2.361c0-.945.229-2.353.229-2.353 7.195-10.274 18.918-2.332 25.679-2.773-.329 5.418-1.584 7.404-4.094 11.03z" fill="#f3d4cf"/><path d="M123.041 71.999c-9.393-.041-17.018 6.192-17.041 13.925-.023 7.732 7.572 14.031 16.961 14.075 9.393.04 17.016-6.192 17.039-13.924.023-7.733-7.568-14.033-16.959-14.076zm11.138 21.257c-1.294 1.868-7.813 2.013-20.346 0l-1.239-3.592-.006.049a12.81 12.81 0 01-.223-2.361c0-.945.229-2.353.229-2.353 7.195-10.274 18.918-2.332 25.679-2.773-.329 5.418-1.584 7.404-4.094 11.03z" fill="url(#j)"/><path d="M134.179 93.256c2.511-3.626 3.766-5.613 4.094-11.03-6.761.441-18.483-7.501-25.679 2.773 0 0-.229 1.408-.229 2.353 0 .804.079 1.592.223 2.361l.006-.049 1.239 3.592c12.532 2.013 19.052 1.869 20.346 0z" fill="url(#k)"/><path d="M113.824 80c4.563-3.95 15.813-3.363 19.433-2.761-4.592-.222-12.517-1.118-19.433 2.761z" fill="#c5796d"/><path d="M133.992 80.011c2.064.413 6.817-.817 9.987-2.012-1.351.882-2.35 1.722-3.659 2.26 1.147.229 2.911 0 5.146-.496-2.832 1.847-4.239 2.518-5.891 2.667.087 4.733-2.622 8.9-4.449 11.227l2.278 1.985c-1.233-.639-2.331-1.083-3.351-1.055-1.504.662-2.649 1.054-4.465 1.489l1.55 1.923c-1.763-.754-3.144-1.807-5.583-2.357-4.403-.993-11.677-1.049-12.431-1.899-.684-.771-.761-2.298-.532-4.117l1.041 2.969c.109.313.463.608.79.659 12.146 1.883 18.48 1.716 19.754-.093 2.511-3.568 3.766-5.523 4.094-10.854-6.761.435-18.483-7.381-25.679 2.729l.352-1.757c0 .062-1.344.662-1.344.662 5.664-6.272 11.227-6.163 22.392-3.93z" fill="#09112e"/><path d="M140.204 113.007c.035 22.275-17.995 40.365-40.273 40.396-22.274.036-40.361-17.993-40.396-40.272-.034-22.274 17.995-40.361 40.273-40.396 22.275-.034 40.363 17.995 40.396 40.272z" fill="url(#l)"/><path d="M135 55.999c0 19.329-15.671 35-35 35s-35-15.671-35-35 15.671-35 35-35 35 15.671 35 35z" fill="url(#m)"/><path d="M74.799 69.068c-4.425-.475-21.252 3.714-21.252 3.714s16.789-6.74 23.757-5.667c5.188.798 14.397 5.077 12.706 7.339-1.361 1.821-5.602-4.354-15.211-5.386zm34.932 5.119c-1.713-2.292 7.592-6.31 13.546-6.804 7.117-.59 22.914 4.085 22.914 4.085s-15.9-2.628-20.377-2.106c-9.816 1.144-14.704 6.669-16.083 4.825z" fill="#2a232b"/><path d="M99.044 91.436s-.827 19.066-.713 23.254c.032 1.188 2.32 4.304 2.164 6.575 0 0-4.462-.325-5.914-.838-1.519-.538-3.869-1.588-2.94-4.521 1.323-4.171 7.403-24.47 7.403-24.47z" fill="#e4b3ab"/><path d="M98.627 119.026s-1.851-.657-3.02-.624c-1.064.033-1.218-.676-1.11-1.079.108-.403.473-.654 1.501-.38 1.029.276 2.629 2.083 2.629 2.083zm2.755.002s1.847-.609 3.02-.622c1.064-.013 1.219-.677 1.11-1.079-.108-.404-.473-.657-1.501-.383-1.029.278-2.629 2.084-2.629 2.084z" fill="#c5796d"/><path d="M47.869 62.985c3.513-27.218 48.858-44.766 54.189-42.089 3.002-1.44 59.328 41.036 59.561 62.839 0 0-22.007 19.356-22.043 12.485-.167-6.713-13.667-24.08-19.264-31.097-5.428-6.805-11.027-15.225-14.647-23.392-4.578 8.854-19.762 23.128-25.737 27.531C67.71 78.266 61 97.833 57.482 108.704c-.619 1.911-4.764 11.061-5.409 13.031-4.546-11.096-8.057-31.378-4.204-58.75z" fill="#6b4e40" opacity=".1"/><path d="M168.612 36.164c-11.808-25.213-46.156-48.481-67.878-36.371C56.411-23.993-12.496 66.971 47.647 132.54c.04.039.068.08.106.117 6.074 6.596 13.227 12.621 20.452 17.504-7.228-9.984-13.803-23.407-15.666-35.879 5.939-18.021 9.266-33.725 25.459-47.317 11.026-9.255 24.281-19.122 26.669-31.375 8.063 19.831 29.816 38.467 34.742 52.624.175 14.627-3.735 28.098-4.854 32.623.078-.156.164-.309.252-.461 2.984-5.375 5.861-10.77 7.771-16.451.83 17.059-5.808 30.435-9.904 39.925a1.623 1.623 0 01-.096.229c.096-.055.184-.117.277-.174 10.322-6.818 20.082-19.361 26.105-31.27-.029 6.242-.487 14.134-.654 16.42 12.835-17.958 14.087-34.884 15.084-37.911 1.148 5.97 3.297 11.975 4.45 14.41-.6-16.577 1.277-44.141-9.228-69.39z" fill="#6b4e40"/><path d="M51.208 109.438c0-6.093 5.659-15.235 9.328-19.373-2.775 5.59-9.544 23.984-12.005 36.941-10.121-26.649-12.492-60.43 1.831-85.612-7.582 20.698-12.034 42.867-4.909 64.212-.282-10.386-3.378-28.761 11.511-52.691-4.56 17.202-7.616 36.037-5.756 56.523zm81.768 34.209c7.391-16.72 11.956-30.775 10.782-43.793-2.152-25.444-27.056-37.068-38.985-64.839a29.04 29.04 0 00.444-5.539c9.521 17.034 19.978 32.215 32.325 47.389 8.24 11.171 9.617 24.143 9.675 37.368 8.372-21.988 6.938-47.563-1.999-68.982 10.55 22.035 11.512 45.986 7.673 69.938 9.591-21.079 15.347-44.071 9.591-67.063 7.674 15.328 6.716 32.574 4.798 49.817 4.887-15.444 4.245-31.577 4.527-47.23 4.599 17.244 5.055 34.973 5.669 53.032-1.95-5.682-2.966-10.747-3.828-15.828-.933 7.967-8.212 29.021-13.68 36.627.328-4.131 1.277-12.111.624-15.301 7.063-15.559 9.48-33.147 4.829-48.237 5.855 21.703-3.052 49.26-18.405 68.239-6.756 8.352-14.04 14.402-14.04 14.402zM31.064 89.32c-6.8-45.275 9.097-58.79 13.522-70.31-29.467 43.476-22.078 83.66 4.453 113.845-4.957-12.771-8.754-27.238-9.195-40.821-2.356-23.177 2.663-43.048 16.813-60.129C36.466 39.67 32.89 69.26 31.064 89.32zm30.443-17.927c.009-.046.054-.11.073-.151 6.306-13.188 36.734-34.118 34.307-50.216.066 15.25-31.614 36.903-34.38 50.367zm83.391-.852c-6.164-26.016-21.354-29.824-28.256-47.629 4.427 16.434 24.973 33.724 28.256 47.629zm12.095-13.023c-.429-1-2.813-44.361-41.932-52.052 32.93 9.368 40.117 47.816 41.932 52.052zM54.609 48.921c2.004-8.177 19.884-29.726 44.862-36.666-32.533 5.77-42.975 28.99-44.862 36.666z" fill="#5c3d2e"/><path d="M139.866 89.507a52.165 52.165 0 012.585 12.531c-1.793 5.488-4.423 10.873-7.097 16.119 2.723-11.277 4.594-19.577 4.512-28.65zm-73.837 58.43c-6.774-9.178-12.443-20.299-14.15-31.596a147.685 147.685 0 00-3.069 11.373c-.164 1-7.26-16.94-9.166-35.68.441 13.583 3.739 27.053 8.696 39.825 5.187 5.804 11.126 11.167 17.689 16.078z" fill="#4c2d1e"/><path d="M99.492 21.262c6.403 27.793-34.873 40.474-47.226 76.474 6.103-31.751 52.87-50.751 47.226-76.474zM61.565 55.39c7.799-16.374 20.656-28.475 35.459-38.564-17.019 8.952-28.237 20.881-35.459 38.564zM44.976 31.335C57.328 16.982 73.192 2.764 93.413 6.039 71.708-.369 56.906 15.907 44.976 31.335zm99.444 8.709c-7.511-14.379-11.145-24.352-28.859-28.113 13.37 4.007 23.333 15.677 28.859 28.113zm16.411 1.269c-8.623-20.082-15.026-37.805-40.267-40.29 19.958 3.809 32.746 22.771 40.267 40.29zm-11.832 46.666c-6.548-25.538-31.097-43.208-37.737-69.219 5.847 26.088 29.017 43.797 37.737 69.219z" fill="#7a6155"/><path d="M68.099 150.319c-.357-.24-.713-.482-1.071-.742-7.286-5.061-13.82-10.709-19.416-16.789l-.105-.117c-18.576-20.25-26.419-44.969-22.688-71.48C28.485 32.793 56.267-4.408 85.672-4.408c5.168 0 10.234 1.339 15.061 3.98a23.654 23.654 0 019.824-2.902c.989-.11 2.008-.165 3.02-.165 22.907 0 46.485 20.957 55.21 39.577 10.676 25.664 8.609 53.598 9.244 69.465-1.773.431-4.38-14.611-4.7-13.611-2.573 15.701-7.636 27.015-15.258 37.785.342-5.056.642-11.302.69-16.279-5.813 11.226-16.08 24.686-26.651 31.145.644-1.295 5.088-11.688 6.555-15.709 2.759-8.625 3.989-16.467 3.762-23.93-1.189 3.328-7.057 16.209-8.058 15.842 1.29-5.103 5.015-18.297 4.849-32.574-2.741-7.384-12.181-19.162-16.715-24.847-6.644-8.33-13.507-16.938-17.777-27.128-2.516 11.593-15.759 20.462-25.535 29.844l-1.06 1.019c-15.514 12.631-19.253 28.552-25.41 47.239 1.617 10.686 6.855 22.955 14.758 34.453l.317.453c.187.271.373.535.563.799l-.262.271zM85.601-3.042c-27.724 0-51.227 30.485-57.536 57.25-8.282 38.193 6.515 69.453 37.047 92.8-5.138-7.166-11.279-17.813-13.293-29.828-1.255 4.081-2.127 7.559-2.953 11.145-.874-1.174-11.19-25.575-9.863-52.053 1.522-30.324 18.792-47.229 19.792-46.254-24.225 26.663-20.743 68.367-10.323 96.284 8.589-43.809 21.73-53.742 30.996-62.736 9.346-9.079 22.174-17.653 24.512-29.297.84-3.792.87-8.88-.459-14.422 1-.263 2.621 8.516 1.45 15.145 4.28 9.938 11.15 18.077 17.798 25.946 11.641 13.784 20.032 24.737 21.18 38.901 1.676 18.497-6.649 34.395-10.519 43.248 9.021-7.685 19.341-20.076 25.357-33.021 12.789-27.033 6.814-49.114 6.814-49.114 4.394 14.256 2.641 31.864-4.81 48.315.605 3.115-.233 10.563-.574 14.588 4.892-7.168 12.303-27.878 13.241-35.958.15-.004 3.665 14.189 3.777 14.535-.797-25.368-1.724-48.296-12.615-70.531-7.655-16.931-31.764-34.917-52.126-34.917-5.002 0-10.735 1.879-15.997 6.018l-.243-.296a27.158 27.158 0 013.368-2.48c-4.573-2.17-9.289-3.268-14.021-3.268zm51.188 115.768a175.015 175.015 0 01-.87 3.895c2.262-4.479 4.684-9.54 6.353-14.64a53.072 53.072 0 00-2.217-11.269c-.08 7.773-1.608 15.162-3.266 22.014z" fill="#3d2012"/></svg>