<svg xmlns="http://www.w3.org/2000/svg" width="500" height="500" viewBox="0 0 200 200" overflow="hidden"><defs><radialGradient id="s" cx="100" cy="113" r="40" gradientUnits="userSpaceOnUse" class="svga-on-canvas-facehighlight-gradient-single-0"><stop stop-opacity=".5" stop-color="#e8d7d3" offset="0"/><stop stop-opacity="0" stop-color="#d9b8af" offset=".9"/></radialGradient><radialGradient id="t" cx="100" cy="57" r="36" gradientUnits="userSpaceOnUse" class="svga-on-canvas-facehighlight-gradient-single-1"><stop stop-opacity=".5" stop-color="#e8d7d3" offset="0"/><stop stop-opacity="0" stop-color="#d9b8af" offset=".9"/></radialGradient><radialGradient id="d" cx="-558.588" cy="-490.918" r="84.646" gradientTransform="matrix(.096 -.0248 .0245 .0961 140.548 120.358)" gradientUnits="userSpaceOnUse" class="svga-on-canvas-eyesiris-gradient-left-1"><stop stop-opacity=".8" stop-color="#fff" offset="0"/><stop stop-opacity="0" stop-color="#fff" offset="1"/></radialGradient><radialGradient id="e" cx="-565.337" cy="-492.691" r="84.644" gradientTransform="matrix(.0991 .00089 -.0011 .0991 130.377 136.353)" gradientUnits="userSpaceOnUse" class="svga-on-canvas-eyesiris-gradient-left-2"><stop stop-opacity=".8" stop-color="#fff" offset="0"/><stop stop-opacity="0" stop-color="#fff" offset="1"/></radialGradient><radialGradient id="l" cx="-578.76" cy="-490.73" r="84.646" gradientTransform="matrix(.096 -.0248 .0245 .0961 192.48 119.84)" gradientUnits="userSpaceOnUse" class="svga-on-canvas-eyesiris-gradient-right-1"><stop stop-opacity=".8" stop-color="#fff" offset="0"/><stop stop-opacity="0" stop-color="#fff" offset="1"/></radialGradient><radialGradient id="m" cx="-584.778" cy="-487.329" r="84.644" gradientTransform="matrix(.0991 .00089 -.0011 .0991 182.31 135.839)" gradientUnits="userSpaceOnUse" class="svga-on-canvas-eyesiris-gradient-right-2"><stop stop-opacity=".8" stop-color="#fff" offset="0"/><stop stop-opacity="0" stop-color="#fff" offset="1"/></radialGradient><radialGradient id="c" cx="125.219" cy="89.891" r="13.439" gradientTransform="matrix(-1.0552 .0927 .0919 1.0549 197.787 -17.405)" gradientUnits="userSpaceOnUse" class="svga-on-canvas-eyesback-gradient-left-0"><stop stop-color="#fff" offset="0"/><stop stop-color="#fdfefe" offset=".544"/><stop stop-color="#f6f8f9" offset=".74"/><stop stop-color="#eaeff2" offset=".879"/><stop stop-color="#d9e3e8" offset=".992"/><stop stop-color="#d8e2e7" offset="1"/></radialGradient><radialGradient id="k" cx="125.219" cy="89.891" r="13.439" gradientTransform="matrix(1.0552 .0927 -.0919 1.0549 2.212 -17.405)" gradientUnits="userSpaceOnUse" class="svga-on-canvas-eyesback-gradient-right-0"><stop stop-color="#fff" offset="0"/><stop stop-color="#fdfefe" offset=".544"/><stop stop-color="#f6f8f9" offset=".74"/><stop stop-color="#eaeff2" offset=".879"/><stop stop-color="#d9e3e8" offset=".992"/><stop stop-color="#d8e2e7" offset="1"/></radialGradient><radialGradient id="i" cx="124.909" cy="84.956" fx="139.085" fy="84.626" r="17.962" gradientTransform="matrix(.9998 .0208 .0193 -.9282 -51.432 161.214)" gradientUnits="userSpaceOnUse" class="svga-on-canvas-eyesfront-gradient-left-3"><stop stop-color="#ca9b8e" offset="0"/><stop stop-opacity=".3" stop-color="#ca9b8e" offset=".7"/><stop stop-opacity="0" stop-color="#d9b8af" offset="1"/></radialGradient><radialGradient id="j" cx="82.066" cy="77.677" r="19.326" gradientTransform="matrix(.6928 -.0978 .0983 .7033 9.918 45.798)" gradientUnits="userSpaceOnUse" class="svga-on-canvas-eyesfront-gradient-left-4"><stop stop-opacity="0" offset=".9"/><stop stop-opacity=".3" offset="1"/></radialGradient><radialGradient id="q" cx="124.909" cy="84.956" fx="139.085" fy="84.626" r="17.962" gradientTransform="matrix(-.9998 .0208 -.0193 -.9282 251.433 161.214)" gradientUnits="userSpaceOnUse" class="svga-on-canvas-eyesfront-gradient-right-3"><stop stop-color="#ca9b8e" offset="0"/><stop stop-opacity=".3" stop-color="#ca9b8e" offset=".7"/><stop stop-opacity="0" stop-color="#d9b8af" offset="1"/></radialGradient><radialGradient id="r" cx="82.066" cy="77.677" r="19.326" gradientTransform="matrix(-.6928 -.0978 -.0983 .7033 190.082 45.798)" gradientUnits="userSpaceOnUse" class="svga-on-canvas-eyesfront-gradient-right-4"><stop stop-opacity="0" offset=".9"/><stop stop-opacity=".3" offset="1"/></radialGradient><linearGradient id="f" x1="122.283" y1="93.047" x2="123.61" y2="91.466" gradientTransform="translate(-52)" gradientUnits="userSpaceOnUse" class="svga-on-canvas-eyesiris-gradient-left-5"><stop stop-color="#fff" offset="0"/><stop stop-opacity="0" stop-color="#fff" offset="1"/></linearGradient><linearGradient id="g" x1="127" y1="85" x2="125" y2="87" gradientTransform="translate(-50)" gradientUnits="userSpaceOnUse" class="svga-on-canvas-eyesiris-gradient-left-6"><stop stop-color="#fff" offset="0"/><stop stop-opacity="0" stop-color="#fff" offset="1"/></linearGradient><linearGradient id="h" x1="130" y1="81" x2="126" y2="85" gradientTransform="translate(-50)" gradientUnits="userSpaceOnUse" class="svga-on-canvas-eyesiris-gradient-left-7"><stop stop-color="#fff" offset="0"/><stop stop-opacity="0" stop-color="#fff" offset="1"/></linearGradient><linearGradient id="n" x1="120.284" y1="93.047" x2="121.611" y2="91.467" gradientUnits="userSpaceOnUse" class="svga-on-canvas-eyesiris-gradient-right-5"><stop stop-color="#fff" offset="0"/><stop stop-opacity="0" stop-color="#fff" offset="1"/></linearGradient><linearGradient id="o" x1="127" y1="85" x2="125" y2="87" gradientUnits="userSpaceOnUse" class="svga-on-canvas-eyesiris-gradient-right-6"><stop stop-color="#fff" offset="0"/><stop stop-opacity="0" stop-color="#fff" offset="1"/></linearGradient><linearGradient id="p" x1="130" y1="81" x2="126" y2="85" gradientUnits="userSpaceOnUse" class="svga-on-canvas-eyesiris-gradient-right-7"><stop stop-color="#fff" offset="0"/><stop stop-opacity="0" stop-color="#fff" offset="1"/></linearGradient><linearGradient id="b" x1="100" y1="142" x2="100" y2="139" gradientUnits="userSpaceOnUse" class="svga-on-canvas-mouth-gradient-single-0"><stop stop-color="#d1a99e" offset=".1"/><stop stop-color="#ca9b8e" offset="1"/></linearGradient><linearGradient id="a" x1="99.98" y1="171.27" x2="99.98" y2="136.351" gradientUnits="userSpaceOnUse" class="svga-on-canvas-chinshadow-gradient-single-0"><stop stop-opacity=".8" stop-color="#ca9b8e" offset="0"/><stop stop-color="#ab6957" offset=".7"/></linearGradient></defs><path d="M225 225H-25V-25h250v250z" fill="#9de0ad"/><path d="M30.816 56.624l3.375 1.049-2.886 2.041.045 3.535-2.833-2.114-3.347 1.136 1.134-3.348-2.114-2.833 3.535.044 2.041-2.886 1.05 3.376zm9.235-23.365l-1.586 5.428-5.372 1.771 4.672 3.187.025 5.655 4.475-3.458 5.385 1.725-1.905-5.325 3.303-4.588-5.653.168-3.344-4.563zM9.358 99.38l-2.422 3.986-4.711.273 3.104 3.526-1.17 4.508 4.344-1.807 3.987 2.514-.421-4.643 3.633-2.954-4.602-1.063-1.742-4.34zm1.913-28.326l.168 3.531-2.814 2.14 3.41.932 1.166 3.337 1.939-2.955 3.534-.077-2.21-2.759 1.019-3.384-3.306 1.25-2.906-2.015zM5.396 51.958l3.615-2.959.182 4.63 3.969 2.479-4.407 1.602-1.163 4.49-2.905-3.641L0 58.856l2.612-3.853-1.735-4.307 4.519 1.262zm-.174 84.04l2.556-1.095-.621 2.515 1.908 1.88-2.799.256-1.377 2.256-1.111-2.357-2.758-.484 2.115-1.714-.329-2.556 2.416 1.299zm15.31 19.009l2.81.867-2.402 1.688.038 2.922-2.358-1.748-2.785.939.943-2.768-1.76-2.342 2.942.037 1.699-2.387.873 2.792zm10.502-71.212l4.647.739-3.406 3.215.738 4.622-4.139-2.236-4.191 2.116.849-4.598-3.329-3.312 4.666-.606 2.132-4.164 2.033 4.224zm-8.915-53.893l5.203 1.198-4.104 3.329.474 5.232-4.507-2.832-4.909 2.035 1.322-5.08-3.509-3.974 5.325-.307 2.738-4.491 1.967 4.89zm4.639 106.412l4.432-.083-2.633 3.463 1.437 4.064-4.2-1.354L22.251 145l.04-4.301-3.627-2.46 4.226-1.304 1.298-4.115 2.57 3.494zm29.7 12.257l4.296-.914-1.894 3.861 2.184 3.68-4.349-.525-2.947 3.188-.792-4.187-4.005-1.709 3.86-2.063.468-4.242 3.179 2.911zm-15.089 14.414l5.203 1.198-4.104 3.329.474 5.232-4.507-2.832-4.909 2.035 1.322-5.08-3.509-3.975 5.325-.307 2.738-4.491 1.967 4.891zm-10.5-52.15l5.203 1.199-4.104 3.328.474 5.232-4.507-2.832-4.909 2.035 1.322-5.08-3.509-3.974 5.325-.308 2.738-4.49 1.967 4.89zm14.913 22.172l2.81.867-2.402 1.688.038 2.922-2.358-1.748-2.785.939.943-2.768-1.76-2.342 2.942.037 1.699-2.387.873 2.792zM39.066 13.124l3.375 1.049-2.886 2.041.045 3.535-2.833-2.114-3.347 1.136 1.134-3.348-2.114-2.833 3.535.044 2.041-2.886 1.05 3.376zm21.868-9.607l4.466-.13-2.609 3.538 1.505 4.106L60.041 9.7l-3.536 2.667-.019-4.36-3.691-2.457 4.244-1.365L58.293 0l2.641 3.517zm4.848 168.49l2.81.867-2.402 1.688.038 2.922-2.358-1.748-2.785.939.943-2.768-1.76-2.342 2.942.037 1.699-2.387.873 2.792zm-15.874-63.518l4.072-.469-2.299 3.158 1.465 3.299-3.91-.764-3.165 2.505-.116-3.63-3.422-1.752 3.84-1.479 1.047-3.586 2.488 2.718zm119.276 12.371l-3.376-1.049 2.886-2.041-.045-3.535 2.833 2.113 3.347-1.135-1.134 3.348 2.114 2.832-3.535-.045-2.04 2.887-1.05-3.375zm-9.236 23.364l1.587-5.428 5.371-1.771-4.672-3.187-.024-5.655-4.475 3.458-5.386-1.725 1.905 5.325-3.303 4.589 5.652-.168 3.345 4.562zm30.694-66.121l2.422-3.986 4.712-.273-3.104-3.526 1.17-4.508-4.345 1.807-3.987-2.514.421 4.643-3.633 2.954 4.602 1.063 1.742 4.34zm-1.913 28.327l-.168-3.531 2.814-2.14-3.409-.932-1.166-3.337-1.939 2.955-3.534.077 2.211 2.759-1.02 3.384 3.307-1.25 2.904 2.015zm5.875 19.095l-3.615 2.959-.182-4.63-3.969-2.479 4.406-1.602 1.163-4.49 2.905 3.642 4.688-.298-2.612 3.853 1.735 4.307-4.519-1.262zm.174-84.04l-2.556 1.095.62-2.515-1.907-1.88 2.799-.256 1.377-2.256 1.11 2.357 2.759.484-2.115 1.714.329 2.556-2.416-1.299zm-15.31-19.008l-2.811-.867 2.402-1.688-.037-2.922 2.358 1.748 2.784-.939-.943 2.768 1.76 2.342-2.942-.037-1.699 2.387-.872-2.792zm-10.502 71.211l-4.647-.739 3.406-3.215-.738-4.622 4.139 2.236 4.191-2.116-.85 4.598 3.329 3.312-4.665.606-2.132 4.164-2.033-4.224zm8.915 53.893l-5.203-1.198 4.104-3.329-.474-5.232 4.507 2.832 4.909-2.035-1.322 5.08 3.509 3.975-5.325.307-2.737 4.491-1.968-4.891zm-4.64-106.412l-4.432.083 2.634-3.463-1.437-4.064 4.2 1.354 3.541-2.595-.039 4.301 3.627 2.46-4.226 1.304-1.299 4.115-2.569-3.495zm-21.273-6.156l-4.296.914 1.894-3.861-2.185-3.68 4.349.525 2.947-3.188.792 4.187 4.006 1.709-3.86 2.063-.469 4.242-3.178-2.911zm6.663-20.515l-5.203-1.198 4.104-3.329-.474-5.232 4.507 2.832 4.909-2.035-1.322 5.08 3.509 3.975-5.325.307-2.737 4.491-1.968-4.891zm10.5 52.15l-5.203-1.199 4.104-3.328-.474-5.232 4.507 2.832 4.909-2.035-1.322 5.08 3.509 3.974-5.325.308-2.737 4.49-1.968-4.89zM131.544 149.7l-2.81-.867 2.402-1.688-.038-2.922 2.358 1.748 2.784-.939-.943 2.768 1.76 2.342-2.942-.037-1.699 2.387-.872-2.792zm29.39 14.66l-3.376-1.049 2.886-2.041-.045-3.535 2.833 2.113 3.347-1.135-1.134 3.348 2.114 2.832-3.535-.045-2.04 2.887-1.05-3.375zm-21.869 9.607l-4.466.13 2.609-3.539-1.505-4.105 4.255 1.33 3.535-2.667.019 4.36 3.691 2.457-4.243 1.365-1.254 4.186-2.641-3.517zm-4.847-168.49l-2.811-.867 2.402-1.688L133.772 0l2.358 1.748 2.784-.939-.943 2.768 1.76 2.342-2.942-.037-1.699 2.387-.872-2.792zm17.558 106.042l-4.072.469 2.299-3.158-1.465-3.299 3.91.764 3.165-2.505.115 3.63 3.423 1.752-3.84 1.479-1.048 3.586-2.487-2.718z" fill="#c0efcb"/><path d="M151.582 41.064l-99.508-5.662S27 218.282 27 223.998c0 0 100.899.72 143.907 0-.804-7.919-19.325-182.934-19.325-182.934z" fill="#0c080c"/><path d="M190.858 199.866c-6.008-10.158-13.474-11.973-19.628-13.936-6.323-2.016-19.346-3.178-26.449-4.6-6.86-1.373-23.153-5.789-23.339-13.488-.192-8.066 4.291-40.09 4.291-40.09H74.005s4.487 32.023 4.294 40.09c-.184 7.699-16.48 12.115-23.341 13.488-7.104 1.422-20.125 2.584-26.448 4.6-6.156 1.963-13.624 3.777-19.632 13.936-3.644 6.16-6.008 16.133-6.008 27.133h194c-.001-11-2.361-20.973-6.012-27.133z" fill="#d9b8af"/><path d="M121.442 167.843c2.495 10.929 18.165 13.698 26.293 15.325 21.909 4.379 33.772 5.134 42.297 19.539 2.903 4.916 5.459 15.864 5.962 24.153 1.835.291.531-17.432-5.136-26.994-9.742-16.472-29.089-15.135-46.077-18.535-6.86-1.373-23.153-5.789-23.339-13.488zm-42.884 0c-.186 7.699-16.479 12.115-23.339 13.488-16.988 3.4-36.335 2.063-46.077 18.535-5.667 9.563-6.971 27.285-5.136 26.994.503-8.289 3.059-19.237 5.962-24.153 8.524-14.405 20.388-15.16 42.297-19.539 8.128-1.627 23.798-4.397 26.293-15.325z" fill="#e8d7d3"/><path d="M51.206 189.513s28.641.299 33.473 1.885c2.314.758 8.372 5.633 8.372 5.633s-6.556-3.17-8.658-3.758c-4.883-1.364-33.187-3.76-33.187-3.76zm48.589 10.486c2.053-.041 7.887-3.799 7.887-3.799s-5.574 2.059-7.342 2.16c-1.491.086-6.366-1.238-6.366-1.238s4.138 2.91 5.821 2.877zm17.213-7.242c6.75-1.818 29.786-3.23 29.786-3.23s-23.791-.516-30.51 1.725c-2.252.752-7.562 5.16-7.562 5.16s6.064-3.058 8.286-3.655z" fill="#ca9b8e"/><path d="M190.858 199.866c-9.741-16.471-29.122-15.142-46.077-18.535-6.86-1.373-23.153-5.789-23.339-13.488-.192-8.066 4.291-40.09 4.291-40.09H74.005s4.487 32.023 4.294 40.09c-.184 7.699-16.48 12.115-23.341 13.488-7.104 1.422-20.125 2.584-26.448 4.6-6.156 1.963-13.624 3.777-19.632 13.936C5.234 206.027 2.87 216 2.87 227h194c-.001-11.001-2.361-20.974-6.012-27.134z" fill="none" stroke="#ab6957" stroke-width="1.5"/><path d="M74.767 128.517c.729 5.276 4.358 31.969 4.182 39.342-.001.048-.011.094-.013.141 5.877 2.477 12.865 4.005 21.167 4 8.141.005 14.977-1.448 20.719-3.824-.008-.105-.026-.209-.029-.315-.175-7.381 3.45-34.068 4.179-39.343l.017-.113H74.751l.016.112z" fill="url(#a)"/><path d="M43.52 224.812c-25.518 0-39.538-.228-41.685-.677l-.006-.106c-1.693-26.63 13.847-40.759 47.508-43.193 12.458 7.729 32.47 11.655 59.42 11.655 28.606 0 56.588-4.536 67.29-6.486 15.393 8.005 21.154 18.146 21.173 37.391-3.973.296-97.133 1.417-153.692 1.417l-.008-.001z" fill="#39557e"/><path d="M197.22 223.395s.123-29.332-29.542-35.087c4.5-.689 5.727-1.822 8.369-2.304 15.392 8.005 21.154 18.146 21.173 37.391zm-48.141-33.413c-28.224 3.263-75.592 5.834-99.743-9.147-29.679 2.148-49.28 13.477-47.501 43.3.125.026.294.052.5.076 1.263-17.184 6.809-23.152 16.483-29.703 3.413 4.323 5.416 12.663 5.416 18.717 0-8.584.171-12.44-1.001-21.023 9.145-5.108 19.212-6.182 28.034-7.614 29.392 14.174 77.348 12.686 97.812 5.394z" fill="#4e688d"/><path d="M37.72 183.39c27.476 18.844 85.402 17.577 118.296 13.195 8.217-1.4-77.094 16.199-118.296-13.195z" fill="#27446f"/><path d="M176.029 185.905c-34.551 6.296-97.805 12.705-126.7-5.17-30.352 2.195-49.475 13.813-47.6 43.3 0 .061.01.12.01.181 7.252 1.769 192.442-.348 195.58-.73 0-18.136-4.682-28.969-21.29-37.581zm-174.16 38.13c0-15.576 5.009-27.341 17.333-33.974 1.613 2.277 3.151 8.374 3.471 9.014 0 0-.755-7.2-2.224-9.776 3.821-2.025 8.463-4.228 17.2-6.094 25.036 18.93 93.373 20.543 130.85 10.5-.01 0-.03.011-.06.011-30.759 8.372-103.456 7.688-130.41-10.591 1.55-.478 9.214-1.622 11.12-1.89 41.865 26.274 125.692 5.373 126.692 5.373 15.153 8.502 20.633 18.511 21.219 36.707-69.006-2.146-157.695 1.551-195.191.72z" fill="#0c2850"/><path d="M100.103.867C66.481.814 39.286 27.899 39.234 61.374a60.458 60.458 0 001.953 15.389h.004c.011.053 6.322 32.098 11.785 46.085 4.253 10.89 10.61 37.576 47.125 37.555 36.515.021 42.872-26.665 47.125-37.555 5.463-13.987 11.773-46.032 11.785-46.085h.005a60.452 60.452 0 001.952-15.389C160.919 27.899 133.723.814 100.103.867z" fill="#d9b8af"/><path d="M150.307 27.3c5.293 9.096 8.347 19.746 8.364 31.14a62.567 62.567 0 01-1.883 15.389h-.004c-.012.053-5.969 32.098-11.234 46.085-4.1 10.89-10.353 37.576-45.547 37.555-35.195.021-41.448-26.665-45.547-37.555-5.266-13.987-11.223-46.032-11.234-46.085h-.004a62.56 62.56 0 01-1.882-15.389c.017-11.394 3.071-22.043 8.362-31.139-6.647 9.702-10.543 21.43-10.563 34.072a60.458 60.458 0 001.953 15.389h.004c.011.053 6.322 32.098 11.785 46.085 4.253 10.89 10.61 37.576 47.125 37.555 36.515.021 42.873-26.665 47.125-37.555 5.463-13.987 11.773-46.032 11.785-46.085h.005a60.452 60.452 0 001.952-15.389A60.217 60.217 0 00150.307 27.3z" fill="#d1a99e"/><path d="M100.103.867C66.481.814 39.286 27.899 39.234 61.374a60.458 60.458 0 001.953 15.389h.004c.011.053 6.322 32.098 11.785 46.085 4.253 10.89 10.61 37.576 47.125 37.555 36.515.021 42.872-26.665 47.125-37.555 5.463-13.987 11.773-46.032 11.785-46.085h.005a60.452 60.452 0 001.952-15.389C160.919 27.899 133.723.814 100.103.867z" fill="none" stroke="#ab6957" stroke-width="1.5"/><path d="M99.825 142.068c-3.24 0-4.753-2.802-4.753-2.802s4.797.781 9.279-.064c.001 0-1.676 2.866-4.526 2.866z" fill="url(#b)"/><path d="M95.211 139.349c-.132-.039-.23-.149-.208-.285a.256.256 0 01.286-.209c3.612.857 5.963.661 8.766-.043.145-.035.27.062.297.195s-.063.256-.193.296c-3.061.904-6.017.938-8.948.046zm-9.764-6.391c.313-.144.582-.086 1.073-.115 1.419-.249 3.128-.323 4.54-.611 1.348-.274 2.774-.662 4.158-.597 1.488.071 2.879.669 4.353.829 1.401.151 2.708-.229 4.053-.557 1.542-.376 3.01-.287 4.56.006 1.938.363 3.774.857 5.689 1.038.582.055.365.413.032.454-1.713.205-3.431-.068-5.194-.249-1.425-.146-2.868-.329-4.274.021-1.518.379-3.437.822-4.605.808-1.3-.017-2.521-.538-3.784-.807-1.551-.327-3.091-.02-4.647.143-1.938.201-3.672.34-5.579.047-.51-.078-.516-.345-.375-.41z" fill="#ab6957"/><path d="M86.66 84.231c.748 1.472 1.181 3.05 1.181 4.654 0 3.108-1.716 5.337-3.133 6.88-6.936 6.296-17.723 5.964-23.191-1.044-.984-1.617-1.528-3.528-1.518-5.667 5.02-12.787 18.86-16.378 26.661-4.823z" fill="url(#c)"/><path d="M83.5 88a8.5 8.5 0 01-17 0c0-4.694 3.807-8.5 8.501-8.5A8.499 8.499 0 0183.5 88z" fill="#4e60a3"/><path d="M74.048 78.595l-.101.012c.041.191.081.384.12.575l-.019-.587zm.018.585c.099 2.793.262 5.282.732 6.183.249-.986-.173-3.443-.732-6.183zm.734 6.185c-.061.236-.153.397-.294.452-.142.053-.319-.008-.521-.146.058.236.052.422-.051.537-.102.114-.285.142-.527.11.16.184.242.353.206.5-.039.148-.189.258-.415.343.225.088.376.199.411.347.036.148-.046.315-.205.498.241-.029.426.001.525.115.101.114.106.301.05.537.199-.137.376-.197.518-.142.143.053.234.216.291.454.114-.215.243-.353.396-.368.148-.02.307.084.466.267.002-.244.053-.423.181-.51.124-.086.311-.069.537.018-.11-.216-.148-.398-.078-.534.071-.135.245-.207.487-.235-.199-.14-.321-.283-.318-.436-.001-.153.119-.296.321-.434-.241-.03-.412-.103-.484-.237-.07-.135-.031-.319.081-.535-.229.085-.413.102-.538.016-.126-.086-.177-.267-.178-.51-.158.182-.316.282-.468.262-.152-.02-.282-.154-.393-.369zm.86.106c.679-.758 1.446-3.13 2.224-5.813-1.21 2.516-2.222 4.795-2.224 5.813zm2.223-5.814c.085-.172.172-.348.253-.524a1.707 1.707 0 01-.09-.037c-.054.188-.108.376-.163.561zm-1.506 6.308c.953-.357 2.736-2.101 4.671-4.115-2.24 1.667-4.197 3.215-4.671 4.115zm4.671-4.114c.142-.106.287-.213.433-.318-.021-.025-.043-.047-.06-.07-.124.127-.247.259-.373.388zm-4.271 4.887c1.01.125 3.399-.591 6.052-1.475-2.761.435-5.212.896-6.052 1.475zm6.052-1.475c.156-.022.318-.048.478-.073l-.02-.081-.458.154zm-6.054 2.343c.836.583 3.284 1.057 6.038 1.505-2.642-.897-5.027-1.627-6.038-1.505zm6.038 1.505c.135.047.271.095.404.138a.923.923 0 00.018-.071c-.137-.02-.281-.043-.422-.067zm-6.446-.736c.471.902 2.42 2.462 4.649 4.142-1.924-2.025-3.696-3.78-4.649-4.142zm4.651 4.139l.253.268a.468.468 0 01.043-.046c-.099-.074-.201-.149-.296-.222zm-5.366-3.647c-.004 1.019.995 3.302 2.191 5.827-.764-2.688-1.516-5.066-2.191-5.827zm2.192 5.827c.03.106.062.215.09.324.021-.008.036-.015.055-.02a29.277 29.277 0 00-.145-.304zm-3.056-5.726c-.476.902-.653 3.386-.768 6.178.574-2.733 1.011-5.188.768-6.178zm-.767 6.178c-.023.106-.044.214-.066.323.02.004.035.005.055.007l.011-.33zm-.042-6.489c-.844.576-2.154 2.697-3.553 5.114 1.778-2.154 3.307-4.126 3.553-5.114zm-3.552 5.114c-.074.09-.152.185-.229.274.018.012.034.02.053.034l.176-.308zm2.978-5.765c-1.015.119-3.16 1.385-5.522 2.875 2.577-1.08 4.843-2.113 5.522-2.875zm-5.522 2.878c-.122.051-.247.102-.372.156.009.019.021.038.033.057.114-.07.227-.143.339-.213zm5.315-3.723c-.951-.365-3.441-.238-6.227-.016 2.784.238 5.273.376 6.227.016zm-6.226-.016a85.865 85.865 0 00-.457-.041c-.001.027-.003.053-.001.08.155-.015.308-.028.458-.039zm6.435-.827c-.67-.763-2.932-1.809-5.499-2.905 2.351 1.502 4.489 2.783 5.499 2.905zm-5.499-2.905l-.446-.285c-.013.026-.026.053-.041.078.164.07.329.138.487.207zm6.077 2.257c-.239-.989-1.758-2.967-3.521-5.132 1.385 2.425 2.683 4.552 3.521 5.132zm-3.52-5.132c-.095-.163-.188-.329-.281-.494l-.079.054c.119.147.243.295.36.44z" fill="url(#d)" transform="translate(0 1)"/><path d="M76.255 78.622l-.1-.014-.034.586c.043-.19.09-.382.134-.572zm-.135.571c-.627 2.724-1.114 5.17-.892 6.162.496-.888.722-3.371.892-6.162zm-.891 6.163c-.119.212-.25.344-.401.36-.15.014-.306-.091-.464-.276-.006.243-.06.421-.188.505-.128.083-.313.063-.539-.03.107.219.143.403.069.536-.075.133-.249.201-.489.224.194.144.312.289.308.441-.003.152-.126.292-.327.428.24.034.41.111.478.247.067.136.025.318-.091.532.229-.081.414-.093.537-.003.123.088.17.27.164.514.166-.177.325-.278.478-.253.148.02.274.16.382.379.064-.236.16-.396.306-.447.143-.051.318.014.515.157-.051-.237-.041-.423.063-.536s.29-.136.532-.102c-.157-.187-.238-.356-.195-.504.039-.148.192-.255.423-.336-.226-.091-.372-.206-.407-.354-.032-.149.053-.316.218-.495-.243.023-.427-.009-.524-.125-.099-.115-.102-.303-.039-.538-.201.134-.38.19-.521.132-.147-.056-.236-.219-.288-.456zm.804.327c.852-.558 2.206-2.65 3.652-5.04-1.82 2.117-3.387 4.056-3.652 5.04zm3.652-5.042c.126-.145.255-.292.38-.44-.027-.019-.052-.04-.078-.06l-.302.5zm-3.088 5.704c1.013-.099 3.187-1.322 5.577-2.767-2.596 1.031-4.887 2.02-5.577 2.767zm5.576-2.766c.165-.065.333-.131.501-.195-.014-.029-.029-.056-.04-.083-.153.091-.306.186-.461.278zm-5.39 3.615c.943.382 3.437.309 6.227.142-2.779-.294-5.265-.483-6.227-.142zm6.227.142c.158.019.32.036.48.053l.003-.083-.483.03zm-6.452.697c.655.78 2.898 1.871 5.442 3.017-2.321-1.551-4.435-2.873-5.442-3.017zM82 91.049c.117.08.236.161.354.238.013-.021.024-.042.035-.063a21.45 21.45 0 01-.389-.175zm-6.036-2.379c.221.993 1.699 3.004 3.419 5.205-1.335-2.456-2.592-4.609-3.419-5.205zm3.42 5.202c.059.106.117.217.176.325a.595.595 0 01.053-.034l-.229-.291zm-4.238-4.912c-.267.982.107 3.447.608 6.195-.043-2.794-.153-5.285-.608-6.195zm.608 6.195c.002.11.004.224.004.337a.39.39 0 01.058-.005l-.062-.332zm-1.469-6.321c-.693.748-1.508 3.102-2.341 5.769 1.261-2.493 2.321-4.75 2.341-5.769zm-2.341 5.769c-.05.096-.099.195-.147.295l.051.021.096-.316zm1.64-6.279c-.964.338-2.779 2.048-4.756 4.021 2.276-1.621 4.263-3.13 4.756-4.021zm-4.756 4.021l-.29.206c.014.016.027.028.041.045.082-.085.167-.168.249-.251zm4.369-4.799c-1.01-.148-3.409.521-6.078 1.349 2.77-.377 5.226-.789 6.078-1.349zm-6.078 1.351c-.131.018-.265.034-.4.054a.744.744 0 00.018.063c.128-.037.256-.078.382-.117zm6.098-2.22c-.824-.599-3.263-1.121-6.01-1.627 2.626.95 4.995 1.727 6.01 1.627zm-6.01-1.627l-.432-.158c-.008.026-.016.051-.021.077.153.026.306.053.453.081zm6.43.867c-.45-.911-2.363-2.506-4.561-4.23 1.883 2.06 3.617 3.851 4.561 4.23zm-4.561-4.229l-.355-.391-.061.065c.14.109.281.218.416.326zm5.287 3.752c.024-1.017-.93-3.321-2.073-5.868.709 2.701 1.414 5.091 2.073 5.868zm-2.073-5.868c-.049-.182-.096-.366-.144-.55l-.09.032c.078.173.158.347.234.518z" fill="url(#e)" transform="translate(0 1)"/><path d="M78.334 88a3.334 3.334 0 11-6.667-.003 3.334 3.334 0 016.667.003z" fill="#4e60a3"/><path d="M78.334 88a3.334 3.334 0 11-6.667-.003 3.334 3.334 0 016.667.003z" opacity=".9"/><path d="M70.35 90.893a1.389 1.389 0 111.548 2.308 1.389 1.389 0 01-1.548-2.308z" fill="url(#f)" opacity=".5" transform="translate(0 1)"/><path d="M77.635 86.536c-.356.53-1.373.468-2.275-.136-.903-.605-1.346-1.526-.991-2.055l.001-.001c.354-.53 1.372-.469 2.274.137.903.604 1.346 1.524.992 2.054l-.001.001z" fill="url(#g)" opacity=".5" transform="translate(0 1)"/><path d="M81.682 85.121c-.806 1.237-2.884 1.31-4.641.166-1.756-1.145-2.527-3.075-1.722-4.311.806-1.235 2.884-1.31 4.641-.166 1.755 1.146 2.525 3.077 1.722 4.311z" fill="url(#h)" opacity=".75" transform="translate(0 1)"/><path d="M55 89c0 13.808 8.507 24.999 19 24.999S93 102.808 93 89c0-13.809-8.507-25.001-19-25.001S55 75.191 55 89zm6.517 5.721c-.984-1.617-1.528-3.528-1.518-5.667 5.02-12.787 18.86-16.378 26.661-4.822.748 1.472 1.181 3.05 1.181 4.654 0 3.108-1.716 5.337-3.133 6.88-6.936 6.295-17.723 5.963-23.191-1.045z" fill="#d9b8af"/><path d="M57.063 86.713c.814 9.341 9.499 16.142 19.41 15.198 9.908-.95 17.284-9.286 16.465-18.625-.814-9.342-9.5-16.145-19.412-15.199-9.911.951-17.283 9.287-16.463 18.626zm2.936 2.341c5.02-12.787 18.86-16.378 26.661-4.822.748 1.472 1.181 3.05 1.181 4.654 0 3.108-1.716 5.337-3.133 6.88-6.936 6.296-17.723 5.964-23.191-1.044-.985-1.618-1.529-3.529-1.518-5.668z" fill="url(#i)"/><path d="M81.835 79.36c1.751 1.137 3.391 2.746 4.825 4.871.748 1.472 1.181 3.05 1.181 4.654 0 3.108-1.716 5.337-3.133 6.88-6.936 6.296-17.723 5.964-23.191-1.044-.984-1.617-1.528-3.528-1.518-5.667 2.306-5.874 6.475-9.8 11.063-11.216.492-.123.994-.221 1.506-.293 3.346-.474 6.55.249 9.267 1.815z" fill="url(#j)"/><path d="M85.831 76.642c-5.97-3.487-13.357-4.669-21.869-.887 6.324-3.724 15.427-4.019 21.869.887z" fill="#ab6957"/><path d="M61.42 94.437c5.438 6.916 16.313 7.27 23.288 1.123-8.216 8.689-21.928 4.374-23.288-1.123zm27.958-14.422c-6.384-8.038-22.106-6.856-30.795-.861 2.103-.601 3.804-1.189 6.62-2.33-5.615 2.601-5.615 4.669-10.263 9.476l2.246-1.852-1.182 3.369c1.184-1.713 1.863-2.423 2.638-3.015-.296 1.064-.473 1.714-.709 3.015 1.58-2.138 2.498-3.246 3.724-4.197-1.403 1.989-1.822 3.855-2.01 6.325 4.965-13.89 20.687-17.496 28.312-3.487-.464-2.242-1.42-3.989-2.482-5.556 1.747.8 3.175 2.443 4.492 4.965-1.063-4.314-1.714-5.438-5.379-8.275l4.788 2.423z" fill="#1b2a40"/><path d="M113.34 84.231c-.748 1.472-1.181 3.05-1.181 4.654 0 3.108 1.716 5.337 3.133 6.88 6.936 6.296 17.723 5.964 23.191-1.044.984-1.617 1.528-3.528 1.518-5.667-5.02-12.787-18.86-16.378-26.661-4.823z" fill="url(#k)"/><path d="M133.5 88a8.5 8.5 0 01-17 0c0-4.694 3.807-8.5 8.501-8.5A8.499 8.499 0 01133.5 88z" fill="#4e60a3"/><path d="M124.048 78.595l-.101.012c.041.191.081.384.12.575l-.019-.587zm.018.585c.099 2.793.262 5.282.732 6.183.249-.986-.173-3.443-.732-6.183zm.734 6.185c-.061.236-.153.397-.294.452-.142.053-.319-.008-.521-.146.058.236.052.422-.051.537-.102.114-.285.142-.527.11.16.184.242.353.206.5-.039.148-.189.258-.415.343.225.088.376.199.411.347.036.148-.046.315-.205.498.241-.029.426.001.525.115.101.114.106.301.05.537.199-.137.376-.197.518-.142.143.053.234.216.291.454.114-.215.243-.353.396-.368.148-.02.307.084.466.267.002-.244.053-.423.181-.51.124-.086.311-.069.537.018-.11-.216-.148-.398-.078-.534.071-.135.245-.207.487-.235-.199-.14-.321-.283-.318-.436-.001-.153.119-.296.321-.434-.241-.03-.412-.103-.484-.237-.07-.135-.031-.319.081-.535-.229.085-.413.102-.538.016-.126-.086-.177-.267-.178-.51-.158.182-.316.282-.468.262-.152-.02-.282-.154-.393-.369zm.86.106c.679-.758 1.446-3.13 2.224-5.813-1.21 2.516-2.222 4.795-2.224 5.813zm2.223-5.814c.085-.172.172-.348.253-.524a1.707 1.707 0 01-.09-.037c-.054.188-.108.376-.163.561zm-1.506 6.308c.953-.357 2.736-2.101 4.671-4.115-2.24 1.667-4.197 3.215-4.671 4.115zm4.671-4.114c.142-.106.287-.213.433-.318-.021-.025-.043-.047-.06-.07-.124.127-.247.259-.373.388zm-4.271 4.887c1.01.125 3.399-.591 6.052-1.475-2.761.435-5.212.896-6.052 1.475zm6.052-1.475c.156-.022.318-.048.478-.073l-.02-.081-.458.154zm-6.054 2.343c.836.583 3.284 1.057 6.038 1.505-2.642-.897-5.027-1.627-6.038-1.505zm6.038 1.505c.135.047.271.095.404.138a.923.923 0 00.018-.071c-.137-.02-.281-.043-.422-.067zm-6.446-.736c.471.902 2.42 2.462 4.649 4.142-1.924-2.025-3.696-3.78-4.649-4.142zm4.651 4.139l.253.268a.468.468 0 01.043-.046c-.099-.074-.201-.149-.296-.222zm-5.366-3.647c-.004 1.019.995 3.302 2.191 5.827-.764-2.688-1.516-5.066-2.191-5.827zm2.192 5.827c.03.106.062.215.09.324.021-.008.036-.015.055-.02a29.277 29.277 0 00-.145-.304zm-3.056-5.726c-.476.902-.653 3.386-.768 6.178.574-2.733 1.011-5.188.768-6.178zm-.767 6.178c-.023.106-.044.214-.066.323.02.004.035.005.055.007l.011-.33zm-.042-6.489c-.844.576-2.154 2.697-3.553 5.114 1.778-2.154 3.307-4.126 3.553-5.114zm-3.552 5.114c-.074.09-.152.185-.229.274.018.012.034.02.053.034l.176-.308zm2.978-5.765c-1.015.119-3.16 1.385-5.522 2.875 2.577-1.08 4.843-2.113 5.522-2.875zm-5.522 2.878c-.122.051-.247.102-.372.156.009.019.021.038.033.057.114-.07.227-.143.339-.213zm5.315-3.723c-.951-.365-3.441-.238-6.227-.016 2.784.238 5.273.376 6.227.016zm-6.226-.016a85.865 85.865 0 00-.457-.041c-.001.027-.003.053-.001.08.155-.015.308-.028.458-.039zm6.435-.827c-.67-.763-2.932-1.809-5.499-2.905 2.351 1.502 4.489 2.783 5.499 2.905zm-5.499-2.905l-.446-.285c-.013.026-.026.053-.041.078.164.07.329.138.487.207zm6.077 2.257c-.239-.989-1.758-2.967-3.521-5.132 1.385 2.425 2.683 4.552 3.521 5.132zm-3.52-5.132c-.095-.163-.188-.329-.281-.494l-.079.054c.119.147.243.295.36.44z" fill="url(#l)" transform="translate(0 1)"/><path d="M126.255 78.622l-.1-.014-.034.586c.043-.19.09-.382.134-.572zm-.135.571c-.627 2.724-1.114 5.17-.892 6.162.496-.888.722-3.371.892-6.162zm-.891 6.163c-.119.212-.25.344-.401.36-.15.014-.306-.091-.464-.276-.006.243-.06.421-.188.505-.128.083-.313.063-.539-.03.107.219.143.403.069.536-.075.133-.249.201-.489.224.194.144.312.289.308.441-.003.152-.126.292-.327.428.24.034.41.111.478.247.067.136.025.318-.091.532.229-.081.414-.093.537-.003.123.088.17.27.164.514.166-.177.325-.278.478-.253.148.02.274.16.382.379.064-.236.16-.396.306-.447.143-.051.318.014.515.157-.051-.237-.041-.423.063-.536s.29-.136.532-.102c-.157-.187-.238-.356-.195-.504.039-.148.192-.255.423-.336-.226-.091-.372-.206-.407-.354-.032-.149.053-.316.218-.495-.243.023-.427-.009-.524-.125-.099-.115-.102-.303-.039-.538-.201.134-.38.19-.521.132-.147-.056-.236-.219-.288-.456zm.804.327c.852-.558 2.206-2.65 3.652-5.04-1.82 2.117-3.387 4.056-3.652 5.04zm3.652-5.042c.126-.145.255-.292.38-.44-.027-.019-.052-.04-.078-.06l-.302.5zm-3.088 5.704c1.013-.099 3.187-1.322 5.577-2.767-2.596 1.031-4.887 2.02-5.577 2.767zm5.576-2.766c.165-.065.333-.131.501-.195-.014-.029-.029-.056-.04-.083-.153.091-.306.186-.461.278zm-5.39 3.615c.943.382 3.437.309 6.227.142-2.779-.294-5.265-.483-6.227-.142zm6.227.142c.158.019.32.036.48.053l.003-.083-.483.03zm-6.452.697c.655.78 2.898 1.871 5.442 3.017-2.321-1.551-4.435-2.873-5.442-3.017zM132 91.049c.117.08.236.161.354.238.013-.021.024-.042.035-.063a21.45 21.45 0 01-.389-.175zm-6.036-2.379c.221.993 1.699 3.004 3.419 5.205-1.335-2.456-2.592-4.609-3.419-5.205zm3.42 5.202c.059.106.117.217.176.325a.595.595 0 01.053-.034l-.229-.291zm-4.238-4.912c-.267.982.107 3.447.608 6.195-.043-2.794-.153-5.285-.608-6.195zm.608 6.195c.002.11.004.224.004.337a.39.39 0 01.058-.005l-.062-.332zm-1.469-6.321c-.693.748-1.508 3.102-2.341 5.769 1.261-2.493 2.321-4.75 2.341-5.769zm-2.341 5.769c-.05.096-.099.195-.147.295l.051.021.096-.316zm1.64-6.279c-.964.338-2.779 2.048-4.756 4.021 2.276-1.621 4.263-3.13 4.756-4.021zm-4.756 4.021l-.29.206c.014.016.027.028.041.045.082-.085.167-.168.249-.251zm4.369-4.799c-1.01-.148-3.409.521-6.078 1.349 2.77-.377 5.226-.789 6.078-1.349zm-6.078 1.351c-.131.018-.265.034-.4.054a.744.744 0 00.018.063c.128-.037.256-.078.382-.117zm6.098-2.22c-.824-.599-3.263-1.121-6.01-1.627 2.626.95 4.995 1.727 6.01 1.627zm-6.01-1.627l-.432-.158c-.008.026-.016.051-.021.077.153.026.306.053.453.081zm6.43.867c-.45-.911-2.363-2.506-4.561-4.23 1.883 2.06 3.617 3.851 4.561 4.23zm-4.561-4.229l-.355-.391-.061.065c.14.109.281.218.416.326zm5.287 3.752c.024-1.017-.93-3.321-2.073-5.868.709 2.701 1.414 5.091 2.073 5.868zm-2.073-5.868c-.049-.182-.096-.366-.144-.55l-.09.032c.078.173.158.347.234.518z" fill="url(#m)" transform="translate(0 1)"/><path d="M128.334 88a3.334 3.334 0 11-6.667-.003 3.334 3.334 0 016.667.003z" fill="#4e60a3"/><path d="M128.334 88a3.334 3.334 0 11-6.667-.003 3.334 3.334 0 016.667.003z" opacity=".9"/><path d="M120.35 90.893a1.389 1.389 0 111.548 2.308 1.389 1.389 0 01-1.548-2.308z" fill="url(#n)" opacity=".5" transform="translate(0 1)"/><path d="M127.635 86.536c-.356.53-1.373.468-2.275-.136-.903-.605-1.346-1.526-.991-2.055l.001-.001c.354-.53 1.372-.469 2.274.137.903.604 1.346 1.524.992 2.054l-.001.001z" fill="url(#o)" opacity=".5" transform="translate(0 1)"/><path d="M131.682 85.121c-.806 1.237-2.884 1.31-4.641.166-1.756-1.145-2.527-3.075-1.722-4.311.806-1.235 2.884-1.31 4.641-.166 1.755 1.146 2.525 3.077 1.722 4.311z" fill="url(#p)" opacity=".75" transform="translate(0 1)"/><path d="M126 63.999c-10.493 0-19 11.192-19 25.001 0 13.808 8.507 24.999 19 24.999S145 102.808 145 89c0-13.809-8.507-25.001-19-25.001zm-10.708 31.766c-1.417-1.542-3.133-3.771-3.133-6.88 0-1.604.433-3.182 1.181-4.654 7.801-11.556 21.642-7.964 26.661 4.822.011 2.139-.533 4.05-1.518 5.667-5.468 7.009-16.255 7.341-23.191 1.045z" fill="#d9b8af"/><path d="M126.475 68.087c-9.912-.946-18.598 5.857-19.412 15.199-.819 9.339 6.557 17.676 16.465 18.625 9.911.944 18.596-5.857 19.41-15.198.819-9.339-6.553-17.675-16.463-18.626zm12.008 26.634c-5.469 7.008-16.256 7.34-23.191 1.044-1.417-1.542-3.133-3.771-3.133-6.88 0-1.604.433-3.182 1.181-4.654 7.801-11.556 21.642-7.964 26.661 4.822.011 2.14-.533 4.051-1.518 5.668z" fill="url(#q)"/><path d="M118.165 79.36c-1.751 1.137-3.391 2.746-4.825 4.871-.748 1.472-1.181 3.05-1.181 4.654 0 3.108 1.716 5.337 3.133 6.88 6.936 6.296 17.723 5.964 23.191-1.044.984-1.617 1.528-3.528 1.518-5.667-2.306-5.874-6.475-9.8-11.063-11.216a14.572 14.572 0 00-1.506-.293c-3.346-.474-6.55.249-9.267 1.815z" fill="url(#r)"/><path d="M114.169 76.642c5.97-3.487 13.357-4.669 21.869-.887-6.324-3.724-15.427-4.019-21.869.887z" fill="#ab6957"/><path d="M115.292 95.56c6.975 6.147 17.85 5.792 23.288-1.123-1.36 5.497-15.072 9.812-23.288 1.123zm.118-17.968c-3.665 2.837-4.315 3.96-5.379 8.275 1.317-2.522 2.745-4.165 4.492-4.965-1.063 1.567-2.019 3.314-2.482 5.556 7.625-14.008 23.347-10.403 28.312 3.487-.188-2.47-.606-4.335-2.01-6.325 1.226.951 2.144 2.059 3.724 4.197-.236-1.3-.413-1.951-.709-3.015.774.591 1.454 1.302 2.638 3.015l-1.182-3.369 2.246 1.852c-4.647-4.807-4.647-6.875-10.263-9.476 2.816 1.141 4.518 1.729 6.62 2.33-8.688-5.995-24.411-7.177-30.795.861l4.788-2.423z" fill="#1b2a40"/><path d="M140.204 113.007c.035 22.275-17.995 40.365-40.273 40.396-22.274.036-40.361-17.993-40.396-40.272-.034-22.274 17.995-40.361 40.273-40.396 22.275-.034 40.363 17.995 40.396 40.272z" fill="url(#s)"/><path d="M135 55.999c0 19.329-15.671 35-35 35s-35-15.671-35-35 15.671-35 35-35 35 15.671 35 35z" fill="url(#t)"/><path d="M93.3 76.245c-9.176-3.089-12.813-6.054-20.729-8.735-6.51-2.206-13.342-2.613-20.071-1.34 8.225.782 11.916.809 20.316 3.833 6.808 2.452 13.154 5.907 20.484 6.242zm13.2.3c9.176-3.089 13.013-6.354 20.929-9.035 6.51-2.206 13.342-2.613 20.071-1.34-8.225.782-11.916.809-20.316 3.833-6.808 2.452-13.354 6.207-20.684 6.542z" fill="#2a232b"/><path d="M93.787 116.99s1.319-.969 5.75-.969c5.24 0 6.685.759 6.685.759s-3.71 2.4-6.937 1.925c-2.772-.41-5.498-1.715-5.498-1.715z" fill="#ca9b8e"/><path d="M100.06 120.097c-1.181 0-2.382-.529-3.423-1.045-.423-.208-.838-.374-1.304-.461-.582-.109-1.656.086-2.085-.356-.457-.473-.085-1.217.54-1.244.771.012 1.551.067 2.298.267 1.309.35 2.427 1.254 3.814 1.366 1.051.084 2.219-.58 3.159-.977.738-.312 3.209-1.475 3.805-.457.369.629-.222 1.075-.789 1.107-.702.039-1.394.277-2.043.534-1.255.496-2.591 1.266-3.972 1.266z" fill="#ba8171"/><path d="M99.989 116.076c.556 0 1.853-.647 1.64-1.902-1.26-7.41-1.64-20.245-1.64-20.245s-.964 15.033-1.788 20.245c-.2 1.269 1.159 1.902 1.788 1.902z" fill="#f8f8f8" opacity=".2"/><path d="M38.854 237.82l9.88-202.719 105.496 1.162 1.025 203.314s-105.203-.463-116.401-1.757zm98.252-2.541c-4.241-47.633 1.152-84.777 5.499-114.713 2.44-16.806 4.572-31.486 4.458-44.428-2.542 1.415-21.941 1.903-21.941 1.903-14.513 2.338-25.333.387-25.782.438-1.982-12.335-2.297-14.256-2.726-17.048-1.333 11.235-.355 13.67-1.37 15.249-2.873.713-22.804-.167-23.806-.237-5.478 2.035-9.035-2.194-12.427-1.241-1.982 1.505-5.386 1.669-6.386 1.42-1.023 20.123 2.42 35.283 6.058 51.303 9 39.633 8.399 50.872 5.508 104.881.001 0 62.261 2.128 72.915 2.473z" fill="#2a232b" opacity=".1"/><path d="M177.393 209.541c-15.107-60.344 3.552-108.071-9.179-151.026-6.063-20.427-18.396-46.964-42.724-57.386-6.483-2.787-12.601-3.207-19.46-2.256C102.159-2.304 97.966-2.9 93.568-2.9c-30.232 0-49.746 25.833-59.244 54.789-5.943 18.135-7.341 33.902-5.755 64.884 3.633 70.935-3.103 88.369-14.274 117.075 17.224.024 36.536 4.694 63.515 4.779 22.28.08 102.989.006 109.574-.733-6.407-14.509-7.435-18.125-9.991-28.353zm-38.087 27.813c-44.235-1.525-58.379.504-77.335-.458 3.085-57.769 3.929-68.17-5.236-108.528-3.815-16.8-7.374-32.516-5.986-53.916 1.84-.071 3.204.365 4.861 1.224v.005c.079.043.154.086.23.131.05-.268.105-.577.162-.836l.118-.089-.098-.02c.638-3.158 1.735-6.719 3.175-10.297l.191.054a59.613 59.613 0 00-.838 8.586l-.03.053c3.296-.917 7.163 1.845 10.161 1.845.87-.06 1.588-.369 2.394-.662 1.102-15.937 2.326-22.387 4.625-27.361l.188.063c-1.329 6.207-1.753 14.946-1.297 26.715l-.012.016c2.685-.26 5.862.912 8.171.815 0-3.915.676-9.192.94-12.385l.199.002c.403 6.263 1.163 10.374 1.782 13.256 5.281-1.185 5.041-.413 7.762-.57.189-.009.377-.028.556-.064l.03-.046-.1.008c-.677-8.054 2.333-25.156 3.102-29.187l.198.019c-.008 7.96.718 11.325 3.793 30.548 1.722-.197 4.705.844 6.717 1.081 0-3.986-.013-3.709.01-5.85h.199c.033 2.019.142 3.989.735 5.933 3.159.066 5.395-1.403 8.343-1.122.369-16.421-1.055-25.078-1.897-32.829l.196-.037c4.08 15.22 5.452 31.663 5.565 33.095.38-.028 1.758-.133 2.461-.246.431-3.141 2.143-21.364 1.309-26.247l.194-.046c2.643 8.591 2.331 15.253 2.524 25.565 2.552-.785 6.706.343 9.615.015-.4-7.699-.557-14.668-2.451-21.243l.189-.063c2.292 5.971 4.105 13.197 4.986 20.951l.045-.025c6.444.5 5.332-.919 9.239-2.14 1.388 36.867-17.048 86.646-9.685 164.287z" fill="#2a232b"/><path d="M180.326 238.184c-13.273.212-38.624-.278-41.021-.829-2.923-30.82-1.775-57.236.579-80.211 3.563-34.778 9.895-61.65 9.112-83.836.153-1.482 2.837-.396 3.497-1.095-4.5-29.25-14.214-47.686-29.494-59.91 64.384 45.135 14.583 132.535 23.191 167.176 1.473-18.377 13.012-69.387 15.809-79.376-5 36-17 78 3 112-2.631-14.907-2.954-30.583-2.994-45.681.771 25.114 10.241 48.194 18.321 71.762zM58.674 65.947c.174-.459.336-.917.522-1.377l.191.054a59.613 59.613 0 00-.838 8.586l-.03.053c.829-.23 1.694-.228 2.572-.096.46-12.512 2.842-25.349 9.909-35.065-8.61 7.044-10.48 17.765-12.326 27.845zM101 31.102c-4.32 7.921-5.012 16.878-5.807 25.753a251.31 251.31 0 011.828-11.146l.198.019c-.008 7.96.718 11.325 3.793 30.548.581-.066 1.31.014 2.092.15C99.585 61.645 97.306 46.8 101 31.102zm6.107 46.153c.21.036.428.078.622.101 0-3.986-.013-3.709.01-5.85h.199c.033 2.019.142 3.989.735 5.933.322.007.628-.012.933-.033-.598-6.521-.606-12.56-.606-19.304-1.919 6.715-1.081 12.512-1.893 19.153zm9.565-.95c.116.006.227 0 .345.012.369-16.421-1.055-25.078-1.897-32.829l.196-.037c4.08 15.22 5.452 31.663 5.565 33.095a54.77 54.77 0 001.757-.156c-1.144-16.075-3.59-31.982-11.638-46.289 3.768 15.072 3.988 31.03 5.672 46.204zm19.307-.659c.347-.006.685-.021 1.005-.058-.4-7.699-.557-14.668-2.451-21.243l.189-.063c2.292 5.971 4.105 13.197 4.986 20.951l.045-.025a31.81 31.81 0 002.031.1c-1.098-13.198-6.537-25.602-12.785-37.206 3.852 12.514 6.768 25.029 6.98 37.544zM124.84 56.501c.076-2.761.039-5.108-.189-6.448l.194-.046c2.643 8.591 2.331 15.253 2.524 25.565.555-.17 1.193-.239 1.87-.264.08-12.715-1.994-25.322-6.239-37.208.654 5.894 1.731 12.213 1.84 18.401zM86 50.102c-3.781 7.562-3.098 16.018-4.701 24.521a9.47 9.47 0 001.45.07c0-3.915.676-9.192.94-12.385l.199.002c.403 6.263 1.163 10.374 1.782 13.256.642-.144 1.2-.258 1.694-.35C85.62 67.168 84.213 59.034 86 50.102zm-7-10c-8.426 9.362-8.087 23.107-8.83 34.67.297-.103.594-.213.904-.326 1.102-15.937 2.326-22.387 4.625-27.361l.188.063c-1.329 6.207-1.753 14.946-1.297 26.715l-.012.016c.748-.072 1.534-.029 2.329.063-.461-11.604-2.373-23.121 2.093-33.84zm2-23c-25.15 16.485-39 47-35 75 5 37 11 73 6 110 3-31-2-62-8-93 5 34 5 68-4 101 3.177-16.681.047-32.73-1.376-49.151.141 25.13-5.941 50.009-14.846 73.181 16.549.846 36.42 3.267 38.192 2.766 3.085-57.769 3.929-68.17-5.236-108.528-3.815-16.8-7.374-32.516-5.986-53.916 0-.001 2.159-29.259 30.252-57.352z" fill="#1b141c"/><path d="M64.672 42.118C74.59 24.24 80.38 19.473 94.632 11.415c.176-.104-.702.439-2.147 1.33-13.909 8.561-20.427 17.138-27.813 29.373zm71.07-5.005c9.163 18.181 9.775 30.657 9.025 24.705-.8-4.99-1.419-10.855-6.312-22.197-5.369-11.776-14.072-23.532-25.283-30.441 6.265 4.251 13.787 10.928 22.57 27.933zm-44.215 6.623c-1.861 13.125-1.499 23.37-1.487 22.57.06-9.996 2.285-23.7 4.771-33.506 2.673-9.599 5.599-14.82 6.494-16.746-3.897 7.315-8.106 16.715-9.778 27.682zm19.918 15.555c.067 1.53.117 2.458.109 2.274-.562-6.037 1.766-16.643-5.494-38.71 3.005 10.557 4.782 19.543 5.385 36.436zm18.82 4.629c.329 2.116.547 3.4.509 3.145-1.188-7.196-.94-20.108-7.805-34.964-4.252-9.161-8.862-13.611-10.668-15.707 6.751 8.26 13.186 16.734 17.964 47.526zm-50.962-3.106c.534-8.417 1.123-9.623 1.675-12.166 3.557-14.121 5.869-18.655 10.179-25.844-13.126 20.091-11.854 38.01-11.854 38.01zm-41.798 2.559c-.024.471-.016 2.812-.008 2.419.584-20.045 24.285-54.716 40.33-60.582-15.512 4.981-38.491 33.758-40.322 58.163zm.683 39.976c.687 5.613 1.616 9.97 1.536 9.472-3.8-17.919 1.102-58.568 12.54-73.07-8.319 9.994-16.889 36.062-14.076 63.598zm-3.931 54.972c-.697 3.996-.614 3.458-.165 1.388 3.824-18.365.212-50.656-1.332-66.366.001-1.006 2.915 49.069 1.497 64.978zM145.164 23.022c2.272 3.198 7.384 9.497 12.905 23.33 4.216 10.549-1.739-5.479-3.84-10.089-7.777-18.021-18.42-26.645-36.157-33.313 15.418 6.636 19.979 11.373 27.092 20.072zm15.185 77.712c-1.174 11.388 1.192-7.638 1.439-10.115 2.257-19.967-1.41-33.458-8.753-46.237 6.236 12.022 10.295 23.795 7.314 56.352zm6.256 71.737c.702 3.44 1.178 5.512 1.091 5.1-4.749-24.438-.502-87.206-.472-89.487-.281 6.191-7.091 54.755-.619 84.387z" fill="#3a353a"/><path d="M177.489 209.517c-15.15-60.52 3.6-107.91-9.18-151.03-7.061-23.79-20.16-47.76-42.78-57.45-6.84-2.94-13.17-3.16-19.47-2.26-7.271-2.21-16.46-2.55-25.811.07-24.32 6.79-38.6 30.39-46.02 53.01-5.61 17.12-7.43 32.3-5.76 64.92 3.57 69.692-2.795 87.556-14.32 117.17 17.259 0 36.599 4.694 63.66 4.779 22.157.084 104.198.003 109.72-.75-6.386-14.459-7.451-18.108-10.039-28.459zm-50.48 27.379c-28.229-.85-46.33.71-64.63-.079-.101-.005-.202-.013-.303-.017.586-10.989 1.823-25.713 2.103-51.044.452-48.899-16.046-69.102-13.336-111.208.227-.008.457-.022.677-.012.25.01.49.04.72.08 1.22.17 2.3.61 3.27 1.12 0 .03 0 .06-.01.08.02-.02.03-.04.04-.06.13.07.25.14.38.22 0-.05.01-.1.02-.15.05-.27.1-.55.16-.83 0-.04.01-.07.02-.11.66-3.27 1.79-6.85 3.17-10.28a59.5 59.5 0 00-.84 8.6c0 .06-.01.12 0 .18.24-.07.48-.13.72-.16 3.13-.44 6.75 2.02 9.58 1.98.67-.05 1.31-.28 1.95-.51.16-.07.31-.12.47-.18.31-4.51.82-9.25 1.05-11.59.53-5.39 1.31-10.91 3.57-15.8-1.09 5.09-1.83 13.05-1.3 26.74 0 .04.01.08.01.12.2-.02.41-.04.62-.04.82-.03 1.67.06 2.52.19.1.01.2.03.29.04 1.53.25 3.07.6 4.57.62.12 0 .23 0 .35-.01v-.11c.01-2.05.18-4.74.59-8.73.14-1.21.25-2.42.35-3.63.39 6.06 1.1 10.09 1.79 13.3 0 .02.01.05.01.07.14-.03.27-.06.39-.09 1.93-.49 2.02-.59 4.55-.58 1.16 0 2.06.13 2.91.08.2-.01.4-.03.59-.07 0-.05-.01-.1-.01-.14-.17-2.02-.24-3.89-.18-5.14.14-3.1 1.56-15 3.28-24.02-.01 9.93 1.6 15.67 2.9 24.94.26 1.86.52 3.71.88 5.53.01.06.02.12.029.19.131-.02.271-.03.41-.03 1.84-.03 4 .75 6.11 1.06.13.02.26.04.38.05v-2.67c-.01-1.27 0-2.36.01-3.29.04 2.49.19 3.89.63 5.58.04.14.08.29.131.45.159 0 .319.01.47.01.149-.01.29-.01.43-.02 1.79-.11 3.5-.72 5.26-1.02.62-.11 1.2-.15 1.75-.12.2 0 .4.02.601.04.01-.08.01-.17 0-.25.029-1.56.029-3.4.01-5.6-.13-14.33-.6-15.11-1.9-27.1 4.295 16.023 5.57 33.176 5.57 33.176s1.846-.128 2.642-.266c.438-3.102 2.152-21.467 1.318-26.35 2.63 8.55 2.33 15.2 2.521 25.58.01.03.01.06.01.09.18-.06.359-.11.54-.14 2.67-.55 5.96.38 9 .14l.27-.03c0-.03-.01-.06-.01-.1-.4-8.32-.64-14.98-2.45-21.26 2.181 5.68 4.08 13 4.95 20.66 0 .02.01.04.01.07 0 .05.011.1.011.15.01.03.01.06.02.1.08.01.16.01.25.02 1.23.11 2.47.19 3.65.05 1.994-.247 3.513-1.582 5.379-2.165.667 15.533-3.643 42.797-5.319 54.003-.839 5.757-1.671 11.249-2.304 16.2-4.776 36.774-4.247 71.054-2.08 93.846-3.753-.104-7.801-.221-12.19-.354zm34.33.891c-1.8-7.09-3.66-14.75-4.26-17.54-4.78-22.08-6.68-57.7-2.35-79.69-4.511 19.601-5.551 53.73 1.359 80.94.95 3.74 2.66 9.79 4.641 16.28-5.631-.109-12.501-.275-20.942-.51-.994-13.384-1.845-33.824-.302-56.421 2.255-36.467 10.913-86.177 9.76-107.737.274-.075.549-.15.834-.203.24-.05.48-.09.72-.13.96-.15 1.94-.25 2.9-.38l.37-.06c-.021-.09-.03-.18-.03-.28-.74-6.93-2.86-22.16-9.47-35.44-1.13-2.28-2.32-4.61-3.88-6.63-3.04-3.91-13.34-16.09-17.87-17.71 5.41 2.95 13.46 13.25 17.09 18.32 3.9 5.53 11.52 24.85 13.56 40.08.061.47.131.95.19 1.42-.97.08-1.96.1-2.93.23a7.8 7.8 0 00-.7.11c-.42.08-.83.18-1.23.32-1.93.68-3.449 2.17-5.54 2.4-1.109.13-2.26.1-3.399.05 0-.09-.01-.18-.021-.27.011-.01.03-.01.04-.02-.01 0-.029 0-.04.01-.279-4.54-.79-8.8-1.95-13.38-.579-2.27-2.67-7.84-5.1-12.25-.4-.72-.8-1.4-1.21-2.04.3.67.59 1.35.85 2.05 2.421 6.29 3.271 14.06 4.381 26.28-2.79.02-6.21-.83-8.98-.13.23-8.92.4-16.72-3.11-26.27-.09-.27-.189-.53-.29-.8v.65c.018 10.723-.445 18.599-1.341 27.3l-1.868.208c-.281-6.221-.846-14.428-1.7-19.028-1.32-7.09-2.931-12.55-4.62-17.04-.29-.8-.58-1.55-.88-2.28.02.47.05.94.08 1.41l.06.89c1.37 19.23 2.05 29.71 2.33 35.64-.43-.02-.91-.01-1.45.05-1.93.2-3.81.71-5.75.89-.1.01-.2.02-.31.01-.641-3.39-.811-6.35-.92-9.67a.028.028 0 010-.04 9.525 9.525 0 01-.021-.56 37.702 37.702 0 00-.68 7.91c.01.39.04 1.22.08 2.26-1.971-.27-4.221-1-6.13-.84-.41-2.81-.541-5.15-.601-5.79-.5-5.21-2.49-17.76-2.67-28.99-.01-.83-.01-1.65 0-2.46-.03.08-.06.17-.09.26-.24.73-.49 1.52-.73 2.38-2.43 8.47-4.82 22.83-3.8 33.37-1.58.02-2.19-.74-7.46.6-.66-4.44-1.37-9.72-1.83-16.91-.05-.68-.09-1.39-.12-2.11-.13.69-.27 1.39-.4 2.12-.85 4.72-1.57 10.17-1.12 16.04-1.97-.09-3.37-.38-4.54-.6l-.28-.06c-.91-.17-1.7-.29-2.55-.22.04-9.19.5-23.44 1.29-27.48l.15-.72c.04-.19.08-.38.13-.57-.24.37-.46.73-.67 1.11v.01c-2.87 5.07-4 11.09-4.68 16.86-.26 2.15-.57 6.99-.64 11.66-.66.18-1.32.34-1.98.36-2.37.18-5.19-2.63-9.53-1.96.26-2.61.69-5.89 1.39-10.11.13-.77.27-1.54.43-2.3.12-.56.24-1.12.37-1.68 1.53-6.51 4.05-12.69 7.29-18.56-4.84 7.94-7.48 15.26-8.86 21.6-2.1 4.37-3.69 9.15-4.28 13.58-.96-.58-2.05-1.07-3.28-1.24a3.26 3.26 0 00-.7-.07c-.67-.05-1.38.01-2.14.2 1.06-5.01 2.81-10.72 4.72-16.16.05-.14.1-.27.14-.41 2.31-6.51 4.81-12.58 6.62-16.49 4.05-8.76 9.38-13.92 17.64-22.9-7.84 7.83-14.29 13.62-18.31 21.5-2.34 4.59-4.76 9.25-6.34 14.17-1.32 4.14-3.99 12.8-5.18 20.49-.02.08-.03.16-.04.23.24-.08.47-.13.7-.18a8.668 8.668 0 011.384-.166c-1.706 21.073 1.026 39.395 7.971 68.821 0 0 1.324 6.811 2.002 12.007 2.208 19.151 1.688 29.073 1.495 63.551.009 5.47-.461 11.988-.714 17.839-5.923-.293-11.821-.83-17.718-1.401.91-2.79 1.93-5.59 2.73-8.08 4.77-14.79 7.95-48.95 1.23-86.431 4.23 28.811 3.22 58.641-.75 81.271-.67 3.82-2.34 8.6-3.64 13.2-6.5-.63-12.99-1.271-19.51-1.61-3.19-.17-6.16-.24-9.08-.29 16.37-39.41 18.46-57.8 16.27-124.56-.68-20.86-1.4-40.54 8.37-65.61 16.17-41.49 46.03-49.89 65.84-44.35.189.04.38.1.57.15.27-.03.54-.07.81-.1 9.23-1.1 16.92.36 26.6 7.13 23.62 16.52 35.21 48.19 36.87 76.97 1.65 28.58-4.13 64.52.98 100.85 1.78 12.64 5.04 24.949 8.85 37.12.44 1.51 3.83 9.34 6.96 16.529-3.54.361-9.22.541-25.54.231z"/><path d="M144.81 91.54C142.14 98.8 135.17 104 127 104c-10.48 0-19-8.52-19-19 0-3.42.92-6.62 2.51-9.4 17.51-1.54 27.86 3.37 34.3 15.94zM56.51 75.6A18.861 18.861 0 0054 85c0 10.48 8.52 19 19 19 8.17 0 15.14-5.2 17.81-12.46-6.44-12.57-16.79-17.48-34.3-15.94z" fill="#fff" opacity=".2"/><path d="M110.51 75.6c3.28-5.73 9.43-9.6 16.49-9.6 10.48 0 19 8.52 19 19 0 2.3-.43 4.5-1.19 6.54-6.44-12.57-16.79-17.48-34.3-15.94zm-19.7 15.94A18.69 18.69 0 0092 85c0-10.48-8.52-19-19-19-7.06 0-13.22 3.88-16.49 9.6 17.51-1.54 27.86 3.37 34.3 15.94z" fill="#fff" opacity=".4"/><path d="M156.69 79.96l-9.77 3.44C146.1 73.1 137.51 65 127 65c-9.41 0-17.28 6.51-19.41 15.26-.01 0-.01-.01-.02-.02-1.69-1.69-4.97-2.51-7.57-2.51s-5.88.83-7.57 2.51c-.01 0-.01.01-.02.02C90.28 71.5 82.41 65 73 65c-10.51 0-19.1 8.11-19.92 18.4l-9.77-3.44v2.88l9.76 3.43C53.73 96.72 62.39 105 73 105c11.05 0 20-8.95 20-20 0-.31-.03-.62-.05-.93h.03c0-2.39 3.6-4.68 7.02-4.68s7.02 2.3 7.02 4.68h.03c-.02.31-.05.62-.05.93 0 11.05 8.95 20 20 20 10.61 0 19.27-8.27 19.94-18.72l9.76-3.43v-2.89zM73 103.5c-10.22 0-18.5-8.28-18.5-18.5S62.78 66.5 73 66.5 91.5 74.78 91.5 85s-8.28 18.5-18.5 18.5zm54 0c-10.22 0-18.5-8.28-18.5-18.5s8.28-18.5 18.5-18.5 18.5 8.28 18.5 18.5-8.28 18.5-18.5 18.5z" fill="#604ab3"/></svg>