<svg xmlns="http://www.w3.org/2000/svg" width="500" height="500" viewBox="0 0 200 200" overflow="hidden"><defs><radialGradient id="k" cx="100" cy="113" r="40" gradientUnits="userSpaceOnUse" class="svga-on-canvas-facehighlight-gradient-single-0"><stop stop-opacity=".5" stop-color="#ffc6b3" offset="0"/><stop stop-opacity="0" stop-color="#f2aa92" offset=".9"/></radialGradient><radialGradient id="l" cx="100" cy="57" r="36" gradientUnits="userSpaceOnUse" class="svga-on-canvas-facehighlight-gradient-single-1"><stop stop-opacity=".5" stop-color="#ffc6b3" offset="0"/><stop stop-opacity="0" stop-color="#f2aa92" offset=".9"/></radialGradient><radialGradient id="c" cx="125.187" cy="87.442" r="12.841" gradientTransform="matrix(-1.0592 .0004 -.0004 1.0589 206.511 -6.126)" gradientUnits="userSpaceOnUse" class="svga-on-canvas-eyesback-gradient-left-0"><stop stop-color="#fff" offset="0"/><stop stop-color="#fdfefe" offset=".544"/><stop stop-color="#f6f8f9" offset=".74"/><stop stop-color="#eaeff2" offset=".879"/><stop stop-color="#d9e3e8" offset=".992"/><stop stop-color="#d8e2e7" offset="1"/></radialGradient><radialGradient id="g" cx="125.187" cy="87.442" r="12.841" gradientTransform="matrix(1.0592 .0004 .0004 1.0589 -6.511 -6.126)" gradientUnits="userSpaceOnUse" class="svga-on-canvas-eyesback-gradient-right-0"><stop stop-color="#fff" offset="0"/><stop stop-color="#fdfefe" offset=".544"/><stop stop-color="#f6f8f9" offset=".74"/><stop stop-color="#eaeff2" offset=".879"/><stop stop-color="#d9e3e8" offset=".992"/><stop stop-color="#d8e2e7" offset="1"/></radialGradient><radialGradient id="e" cx="123.519" cy="84.391" fx="136.103" fy="84.426" r="17.898" gradientTransform="matrix(.9998 .0208 .0166 -.7998 -48.415 149.318)" gradientUnits="userSpaceOnUse" class="svga-on-canvas-eyesfront-gradient-left-3"><stop stop-color="#e38e72" offset="0"/><stop stop-opacity=".3" stop-color="#e38e72" offset=".7"/><stop stop-opacity="0" stop-color="#f2aa92" offset="1"/></radialGradient><radialGradient id="f" cx="81.644" cy="80.739" r="21.259" gradientTransform="matrix(.6987 -.0371 .0367 .7092 13.865 40.094)" gradientUnits="userSpaceOnUse" class="svga-on-canvas-eyesfront-gradient-left-4"><stop stop-opacity="0" offset=".9"/><stop stop-opacity=".3" offset="1"/></radialGradient><radialGradient id="i" cx="123.519" cy="84.391" fx="136.103" fy="84.426" r="17.898" gradientTransform="matrix(-.9998 .0208 -.0166 -.7998 248.415 149.318)" gradientUnits="userSpaceOnUse" class="svga-on-canvas-eyesfront-gradient-right-3"><stop stop-color="#e38e72" offset="0"/><stop stop-opacity=".3" stop-color="#e38e72" offset=".7"/><stop stop-opacity="0" stop-color="#f2aa92" offset="1"/></radialGradient><radialGradient id="j" cx="81.644" cy="80.739" r="21.259" gradientTransform="matrix(-.6987 -.0371 -.0367 .7092 186.135 40.094)" gradientUnits="userSpaceOnUse" class="svga-on-canvas-eyesfront-gradient-right-4"><stop stop-opacity="0" offset=".9"/><stop stop-opacity=".3" offset="1"/></radialGradient><linearGradient id="d" x1="130" y1="81" x2="126" y2="85" gradientTransform="translate(-50)" gradientUnits="userSpaceOnUse" class="svga-on-canvas-eyesiris-gradient-left-6"><stop stop-color="#fff" offset="0"/><stop stop-opacity="0" stop-color="#fff" offset="1"/></linearGradient><linearGradient id="h" x1="130" y1="81" x2="126" y2="85" gradientUnits="userSpaceOnUse" class="svga-on-canvas-eyesiris-gradient-right-6"><stop stop-color="#fff" offset="0"/><stop stop-opacity="0" stop-color="#fff" offset="1"/></linearGradient><linearGradient id="b" x1="100" y1="141" x2="100" y2="138" gradientUnits="userSpaceOnUse" class="svga-on-canvas-mouth-gradient-single-0"><stop stop-color="#ea9c82" offset=".1"/><stop stop-color="#e38e72" offset="1"/></linearGradient><linearGradient id="a" x1="99.98" y1="171.27" x2="99.98" y2="136.351" gradientUnits="userSpaceOnUse" class="svga-on-canvas-chinshadow-gradient-single-0"><stop stop-opacity=".8" stop-color="#e38e72" offset="0"/><stop stop-color="#c45e3b" offset=".7"/></linearGradient></defs><path d="M225 225H-25V-25h250v250z" fill="#ece5ce"/><path d="M0-5v210m10 0V-5m10 210V-5m10 210V-5m10 210V-5m10 210V-5m10 210V-5m10 210V-5m10 210V-5m10 210V-5m10 210V-5m10 210V-5m10 210V-5m10 210V-5m10 210V-5m10 210V-5m10 210V-5m10 210V-5m10 210V-5m10 210V-5m10 210V-5" fill="none" stroke="#ddd1ab" stroke-width="5"/><path d="M41.279 215.266c-.033-.044-.063-.094-.095-.14 3.872-1.418 107.984 7.4 115.031 6.323-.001.108-.007.217-.007.325.282-.064.24-.075.254-.359.259-.032 1.051-.167.027-.457 3.485-63.467 43.554-53.333 20.529-111.343-5.448-13.536-5.042-26.26-6.357-42.117-1.84 1.797-1.238 11.106-3.489 28.325 17.078 53.526 2.414 51.246-11.503 76.872-4.604 8.467-8.295 17.095-9.091 26.65-22.673-39.208-16.05-38.328-6.981-62.078-1.56 2.201-7.898 6.916-13.709 8.025 14.211-10.797 22.683-10.831 22.98-76.708-13.031-6.03-24.886-17.239-32.2-29.8-9.476 19.65-26.281 27.875-47.75 31.14-5.35 2.72-10.92 5-16.55 7.08-.476 27.679 6.753 46.579 21.26 66.64-5.091-3.645-10.294-9.649-13.96-14.758 4.4 8.811 10.944 16.104 9.16 31.867-1.972 17.313-18.629 29.105-18.629 51.372-16.264-25.388-21.752-14.633-17.979-42.312-6.177-10.806-9.18-18.142-11.68-25.979-.605-.005-1.578.138-2.133.204-7.074 26.657 3.058 46.46 22.872 71.228z" fill="#cea57c"/><path d="M142.489 227.847h-90V97.24h90v130.607z" fill="#be8f5f"/><path d="M156.49 220.958c3.485-63.467 43.554-53.333 20.529-111.343-4.317-10.726-4.958-20.946-5.692-32.615h-.641c.342 11.384.54 21.512 3.883 31.266 20.946 61.4-17.667 48.849-18.343 112.635-4.423-.602-111.114-7.244-115.042-5.775-14.061-20.667-24.449-40.831-22.283-63.372-.668-.594-1.228-1.297-1.759-2.028-4.286 23.862 5.757 42.566 24.137 65.541-.033-.044-.063-.094-.095-.14 3.872-1.418 107.984 7.4 115.031 6.323-.001.108-.007.217-.007.325.282-.064.24-.075.254-.359.26-.033 1.052-.168.028-.458z" fill="#af7b46"/><path d="M190.858 199.866c-6.008-10.158-13.474-11.973-19.628-13.936-6.323-2.016-19.346-3.178-26.449-4.6-6.86-1.373-23.153-5.789-23.339-13.488-.192-8.066 4.291-40.09 4.291-40.09H74.005s4.487 32.023 4.294 40.09c-.184 7.699-16.48 12.115-23.341 13.488-7.104 1.422-20.125 2.584-26.448 4.6-6.156 1.963-13.624 3.777-19.632 13.936-3.644 6.16-6.008 16.133-6.008 27.133h194c-.001-11-2.361-20.973-6.012-27.133z" fill="#f2aa92"/><path d="M121.442 167.843c2.495 10.929 18.165 13.698 26.293 15.325 21.909 4.379 33.772 5.134 42.297 19.539 2.903 4.916 5.459 15.864 5.962 24.153 1.835.291.531-17.432-5.136-26.994-9.742-16.472-29.089-15.135-46.077-18.535-6.86-1.373-23.153-5.789-23.339-13.488zm-42.884 0c-.186 7.699-16.479 12.115-23.339 13.488-16.988 3.4-36.335 2.063-46.077 18.535-5.667 9.563-6.971 27.285-5.136 26.994.503-8.289 3.059-19.237 5.962-24.153 8.524-14.405 20.388-15.16 42.297-19.539 8.128-1.627 23.798-4.397 26.293-15.325z" fill="#ffc6b3"/><path d="M51.206 189.513s28.641.299 33.473 1.885c2.314.758 8.372 5.633 8.372 5.633s-6.556-3.17-8.658-3.758c-4.883-1.364-33.187-3.76-33.187-3.76zm48.589 10.486c2.053-.041 7.887-3.799 7.887-3.799s-5.574 2.059-7.342 2.16c-1.491.086-6.366-1.238-6.366-1.238s4.138 2.91 5.821 2.877zm17.213-7.242c6.75-1.818 29.786-3.23 29.786-3.23s-23.791-.516-30.51 1.725c-2.252.752-7.562 5.16-7.562 5.16s6.064-3.058 8.286-3.655z" fill="#e38e72"/><path d="M190.858 199.866c-9.741-16.471-29.122-15.142-46.077-18.535-6.86-1.373-23.153-5.789-23.339-13.488-.192-8.066 4.291-40.09 4.291-40.09H74.005s4.487 32.023 4.294 40.09c-.184 7.699-16.48 12.115-23.341 13.488-7.104 1.422-20.125 2.584-26.448 4.6-6.156 1.963-13.624 3.777-19.632 13.936C5.234 206.027 2.87 216 2.87 227h194c-.001-11.001-2.361-20.974-6.012-27.134z" fill="none" stroke="#c45e3b" stroke-width="1.5"/><path d="M83.869 167.568c7.443 3.113 24.852 3.176 32.267 0 1.555-.665 3.14-1.648 4.733-2.873.526-9.943 3.455-31.496 4.102-36.179l.017-.113H82.682c-2.727.202-5.355.438-7.833.709.778 5.658 3.493 25.843 4.016 35.462 1.694 1.283 3.371 2.312 5.004 2.994z" fill="url(#a)"/><path d="M93.589 228.292c-8.632 0-18.516-.143-30.217-.437-5.24-.133-10.38-.197-15.713-.197-8.082 0-15.041.146-21.771.288-5.62.118-10.929.229-16.081.229-4.201 0-7.974-.075-11.533-.23l-.612-.026-.023-.281c-.55-6.277-.329-11.201.657-14.635 2.739-9.57 11.779-22.221 13.349-22.804 17.165-5.583 22.101-5.852 26.671-6.81 1.788-.086 3.637-.176 6.081-.586 1.753-.305 3.492-1.017 5.174-1.705 2.067-.846 4.019-1.645 5.835-1.645.592 0 1.129.084 1.643.256.212.077.427.165.632.282l-.024.12.026.198c.479 4.203.973 7.772 1.408 10.921l.011.079.081.015c11.784 1.007 26.305 2.259 40.89 2.259 14.972 0 29.065-1.255 40.758-2.309l.079-.007.011-.079c.422-3.005.913-6.566 1.4-10.813l.061-.52c.146-.037.349-.126.57-.196a4.838 4.838 0 011.557-.242c1.702 0 3.576.752 5.561 1.547 1.637.656 3.33 1.336 5.133 1.697 1.221.247 2.486.299 3.71.349.322.014.645.026.965.043 11.05 1.62 12.476 1.811 27.626 6.813.092.038.205.077.328.119.38.13.9.308 1.043.567 1.617 2.864 3.238 5.418 4.806 7.889 5.13 8.081 9.56 15.062 10.143 27.528.008.11.015.203.019.295h-.778c-40.024.014-59.705.721-75.52 1.289-11.024.397-20.54.739-33.956.739z" fill="#82cbe2"/><path d="M203.838 226.266l-.906.001c-3.369-15.058-15.396-31.068-18.229-32.479-9.956-4.956-30.352-7.399-40.493-11.396-.742 12.815-3.105 19.729-4.671 34.673-1.357-7.705 2.116-31.016 2.697-35.99l.143-1.218c1.688-.431 2.109-1.127 7.688 1.108 4.488 1.8 5.622 1.925 8.843 2.046 13.716.514 15.933 3.408 28.591 6.855 2.022.551.082-1.032 6.177 8.575 5.205 8.202 9.623 15.195 10.16 27.825zm-207.676 0l.906.001c3.369-15.058 15.396-31.068 18.229-32.479 9.956-4.956 30.256-7.399 40.397-11.396.742 12.815 3.201 19.729 4.767 34.673 1.357-7.705-2.116-31.016-2.697-35.99l-.143-1.218c-1.688-.431-2.109-1.127-7.688 1.108-4.488 1.8-5.622 1.915-8.843 2.046-11.774 1.875-13.637 2.176-28.591 6.855-1.936.804-.082-1.032-6.177 8.575-5.205 8.202-9.623 15.195-10.16 27.825z" fill="#a3dff1"/><path d="M100.071 195.291c-14.397 0-28.77-.943-40.47-1.926-.103-1.298.002.355-.45-1.647l.131.019c12.446 1.671 26.582 2.555 40.878 2.555h.004c14.571 0 28.595-.894 40.561-2.584l.132-.02-.02.133c-.122.829-.229 1.131-.329 1.91-12.239 1.007-39.437 1.56-40.437 1.56zm40.034 2.015c.098-.799.199-1.606.313-2.437l.019-.131-.131.019c-11.884 1.659-25.772 2.536-40.166 2.536-14.12 0-28.104-.866-40.438-2.507l-.13-.017.018.13c.104.76.199 1.503.289 2.238 26.742 1.949 48.289 3.023 80.226.169z" fill="#64b8d3"/><path d="M203.919 225.966c-.76-16.261-7.99-23.11-14.96-35.461-.21-.38-1.019-.603-1.42-.729-12.39-3.909-15.91-6.21-27.66-6.82-1.55-.08-3.13-.08-4.66-.39-4.729-.95-8.85-4.15-12.3-3-.22.07-.43.16-.64.28-.021.18-.04.35-.061.52-.479 4.18-.96 7.68-1.399 10.811-24.459 2.949-57.911 2.638-81.63.05-.44-3.181-.93-6.721-1.41-10.931-.02-.13-.03-.26-.05-.39-.21-.12-.43-.21-.65-.29-3.7-1.24-8.16 1.901-12.7 2.691-8.426 1.466-8.81-.086-32.77 7.799-1.67.62-10.74 13.54-13.41 22.87-1.16 4.04-1.11 9.54-.66 14.67l.03.37.7.029c18.55.811 35.87-.829 65.1-.09 62.13 1.561 54.81-1.56 139.69-1.59h.88c0-.139-.01-.269-.02-.399zm-63.18-34.16c-.12.83-.23 1.63-.33 2.41-26.396 2.747-55.546 2.747-80.8.05-.11-.79-.22-1.601-.34-2.431 26.88 3.61 58.55 3.21 81.47-.029zm-.9 6.889c-23.66 2.05-55.979 1.99-79.67.04-.14-1.25-.3-2.53-.48-3.85 26.63 3.54 57.86 3.149 80.63-.03-.18 1.321-.34 2.6-.48 3.84zm32.931 26.64c-6.54.07-13.091.131-19.631.21-14.439.171-40.329 1.511-49.81 1.521-43.15.09-33.54-.41-52.82-.49-19.22-.04-34.91 1.53-52.25 1.09-.1-7.37.5-12.37 2.95-17.479 3.34-6.91 6.22-12.351 11.11-18.22.14-.16.4-.2.59-.271 5.14-1.9 11.21-4.22 17.85-5.69 8.16-1.81 12.65-1.109 17.87-3.46 3.45-1.55 6.08-3.189 8.45-2.51.06 4.23.32 7.69.68 11.07l.06.53c.09.83.19 1.659.3 2.5l.06.55c.16 1.28.33 2.569.5 3.93.03.19.06.38.08.58.6 4.72 1.24 10.19 1.7 17.87.57-7.17.36-12.3-.21-17.67 26.29 3.42 56.96 3.05 79.521-.03-.601 5.4-.801 10.49-.23 17.7.46-7.55 1.12-13.061 1.73-17.91.02-.2.05-.4.069-.59.17-1.35.34-2.64.5-3.92l.061-.57c.1-.83.2-1.66.279-2.49.03-.18.051-.359.061-.54.36-3.369.62-6.84.67-10.96 3.87-1.17 8.32 3.391 14.25 4.021 5.85.63 11.84 1.457 17.47 3.308 4.15 1.359 11.21 3.362 12.891 4.372.34.21.77 1.49.96 1.891 4.87 9.71 12.439 15.149 14.52 32.26-24.941-.623-25.472-.653-30.231-.603z" fill="#3295b4"/><path d="M144.736 125.052c-4.549 9.721-18.57 27.825-28.601 32.018-7.442 3.112-24.824 3.112-32.267 0-10.029-4.192-24.05-22.297-28.601-32.018-5.29-11.297-14.118-47.803-14.13-47.856a60.396 60.396 0 01-2.004-15.382C39.082 28.339 66.289 1.168 99.907 1.116c33.621-.052 60.913 27.032 60.963 60.506a60.457 60.457 0 01-1.952 15.389c-.017.052-8.873 36.7-14.182 48.041z" fill="#f2aa92"/><path d="M110.152 1.969c26.994 6.24 47.097 30.337 47.052 59.111a60.441 60.441 0 01-2.004 15.382c-.012.053-8.158 36.591-13.396 47.856-4.417 9.497-18.244 26.812-27.867 31.286-3.169 1.473-10.439 1.823-13.935 1.823-3.494 0-10.765-.351-13.933-1.823-9.623-4.474-23.451-21.789-27.867-31.286-5.239-11.266-13.385-47.803-13.396-47.856a60.39 60.39 0 01-2.004-15.382C42.756 32.307 62.857 8.209 89.853 1.969 61.03 6.788 39.087 31.751 39.134 61.813a60.402 60.402 0 002.004 15.382c.012.053 8.781 36.586 14.13 47.856 4.602 9.696 18.738 27.446 28.601 32.018 3.671 1.703 12.088 2.334 16.134 2.334 4.043 0 12.464-.632 16.133-2.334 9.862-4.571 24-22.321 28.601-32.018 5.35-11.271 14.119-47.803 14.13-47.856a60.396 60.396 0 002.004-15.382c.047-30.062-21.896-55.025-50.719-59.844z" fill="#ea9c82"/><path d="M144.736 125.052c-4.549 9.721-18.57 27.825-28.601 32.018-7.442 3.112-24.824 3.112-32.267 0-10.029-4.192-24.05-22.297-28.601-32.018-5.29-11.297-14.118-47.803-14.13-47.856a60.396 60.396 0 01-2.004-15.382C39.082 28.339 66.289 1.168 99.907 1.116c33.621-.052 60.913 27.032 60.963 60.506a60.457 60.457 0 01-1.952 15.389c-.017.052-8.873 36.7-14.182 48.041z" fill="none" stroke="#c45e3b" stroke-width="1.5"/><path d="M100.091 139.322c-4.952 0-6.142-3.033-6.142-3.033 6.246 2.316 11.836-.124 11.836-.124s-1.339 3.157-5.694 3.157z" fill="url(#b)"/><path d="M85.595 129.671c2.677-.132 7.545-1.077 10.096-.988 1.319.046 2.63.953 4.007 1.242.958.202 3.935-1.1 4.915-1.162 2.572-.162 7.409.744 9.771.92.13.011 0 0 0 0s-5.776 7.727-14.463 7.725c-9.831-.002-14.326-7.737-14.326-7.737s-.132.007 0 0z" fill="#92002a" stroke="#830026" stroke-width=".75"/><path d="M114.739 129.405c-.045-.131-.461-.189-.624-.139-.3.094-.663.521-1.313.686-.748.191-5.021 1.431-6.193 1.49-2.365.118-4.438.943-6.76.938-2.323-.005-4.34-.929-6.716-1.058-1.18-.065-5.194-1.216-5.947-1.4-.65-.16-.89-.574-1.162-.686-.189-.077-.652-.02-.743.105-.079.107.088.609.2.75.271.336 1.103.506 1.667.647.779.199 4.759 1.366 5.949 1.433 2.305.13 4.308 1.125 6.612 1.127 2.306.003 4.405-.904 6.729-1.022 1.195-.062 5.53-1.313 6.332-1.513.58-.146 1.388-.399 1.672-.68.138-.133.343-.545.297-.678z" fill="#64001d"/><path d="M99.799 136.138c-3.914 0-7.707-1.246-10.289-3.693 1.36.19 2.83.207 4.269.403 1.773.242 3.429.921 5.248 1.034 1.968.125 3.916-.495 5.886-.841 1.644-.289 4.21-1.067 5.742-1.302-2.926 2.243-7.078 4.399-10.856 4.399zm5.457-5.095c1.49-.149 3.855-.879 5.226-1.04-1.406-.413-3.829-.279-5.576-.441-1.506-.139-3.244.861-4.817 1.016-1.774.175-2.94-1.233-4.607-1.369-1.809-.147-3.787.559-5.336.915 1.387.188 2.877.239 4.309.517 1.753.341 3.405.992 5.223 1.054 1.859.062 3.741-.469 5.578-.652z" fill="#a1103a"/><path d="M105.695 133.406c-.308.01-.625.025-.93.051a9.427 9.427 0 00-.961.123c-.538.099-1.074.233-1.638.369-.888.216-1.726.392-2.662.391-.15 0-.301-.007-.452-.017a10.715 10.715 0 01-2.191-.412c-.693-.204-1.353-.401-2.019-.492-.128-.017-.259-.029-.387-.042a20.669 20.669 0 00-1.255-.063c1.734 1.396 4.128 2.038 6.468 2.041 2.411.001 4.278-.843 6.027-1.949z" fill="#b1234c"/><path d="M60.606 84.841c9.825-9.869 20.004-8.215 25.751-1.317a8.05 8.05 0 01.875 4.343c-.187 2.243-2.023 4.452-2.862 4.886a18.776 18.776 0 01-7.547 2.09c-1.004.057-1.597.079-2.459 0-1.709-.157-3.145-.513-4.85-1.213-2.795-1.148-5.434-3.113-7.677-6.048-.033-.042-.081-.067-.132-.068s-.1.022-.134.062l-.089.108a.195.195 0 00-.021.211 10.298 10.298 0 01-.673-1.036l.018.01c-.462-.834-.441-1.676-.2-2.028z" fill="url(#c)"/><path d="M83.206 88.75c-1.231 4.522-5.896 7.187-10.429 5.944-4.528-1.241-7.203-5.918-5.97-10.442 1.23-4.526 5.905-7.19 10.434-5.947 4.527 1.24 7.198 5.918 5.965 10.445z" fill="#4d3623" stroke="#1f1105" stroke-width=".5"/><path d="M73.962 81.418l-.221-.395c-.776.308-1.524.631-2.232.973l.524 1.267-.066.732-2.021-1.189c-.66.367-1.273.75-1.867 1.14l.005.013-.692.78 1.107 1.132-1.491.813.563.931 2.633.262-2.468 1.673 2.641-.146-1.393 2.396 3.255-1.969-.875 3.349 1.883-3.093.363 3.319.544-2.936.5-.061.709 3.329.216-.998c.284-.074 1.018.997 1.297.922l-.829-3.621 1.817 3.621-.737-3.756 2.236 2.905c.08-.025.278-1.204.357-1.228l-1.392-2.081 2.53.763-1.518-1.643-1.219-1.009 5.083 1.137-2.83-1.723 2-.818-4.329-.437 4.281-2.27-3.875.988-1.043-.565-.256-.501.074-1.199.086-1.967-1.768 3.113-.156-2.279-.222-.597c-.354.124-.702.245-1.043.375l-.161.548z" fill="#5c4633"/><path d="M83.303 84.737c-7.429.338-11.206 1.927-16.591 3.727-1.038-4.574 1.839-9.12 6.42-10.149 4.58-1.029 9.135 1.846 10.171 6.422z" fill="#3e2816" opacity=".9"/><path d="M76.234 83.665c-1.869-.536-3.777.532-4.258 2.395-.484 1.853.64 3.793 2.51 4.329 1.871.537 3.781-.532 4.264-2.386.487-1.864-.643-3.803-2.516-4.338z" opacity=".8"/><path d="M76.234 83.665c-1.869-.536-3.777.532-4.258 2.395-.484 1.853.64 3.793 2.51 4.329 1.871.537 3.781-.532 4.264-2.386.487-1.864-.643-3.803-2.516-4.338z" fill="none" stroke="#1f1105" stroke-width=".75"/><path d="M68.812 91.544c.868 1.378 2.021 2.416 3.653 2.762 1.879.398 2.094-2.101.748-2.387-1.02-.215-1.667-.715-2.199-1.561-.975-1.548-2.985-.055-2.202 1.186z" fill="#fff" opacity=".5"/><path d="M76.468 83.449c1.316.265 2.082 1.087 2.747 2.323 1.222 2.272 4.676.252 3.453-2.019-1.073-1.995-2.86-3.703-5.138-4.162-2.915-.587-3.324 3.402-1.062 3.858z" fill="url(#d)" transform="translate(0 -.5)"/><path d="M55.5 87c0 13.808 8.283 24.999 18.5 24.999S92.5 100.808 92.5 87c0-13.809-8.283-25.001-18.5-25.001S55.5 73.191 55.5 87zm5.29-.14l.018.01c-.464-.835-.442-1.677-.201-2.029 9.825-9.869 20.004-8.215 25.751-1.317a8.05 8.05 0 01.875 4.343c-.187 2.243-2.023 4.452-2.862 4.886a18.776 18.776 0 01-7.547 2.09c-1.004.057-1.597.079-2.459 0-1.709-.157-3.145-.513-4.85-1.213-2.795-1.148-5.434-3.113-7.677-6.048-.033-.042-.081-.067-.132-.068s-.1.022-.134.062l-.089.108a.195.195 0 00-.021.211 10.45 10.45 0 01-.672-1.035z" fill="#f2aa92"/><path d="M59.397 85.083c.023 8.56 7.646 15.459 17.038 15.416 9.389-.049 16.985-7.022 16.961-15.583-.023-8.562-7.647-15.463-17.04-15.417-9.391.05-16.983 7.023-16.959 15.584zm1.393 1.777l.018.01c-.464-.835-.442-1.677-.201-2.029 9.825-9.869 20.004-8.215 25.751-1.317a8.05 8.05 0 01.875 4.343c-.187 2.243-2.023 4.452-2.862 4.886a18.776 18.776 0 01-7.547 2.09c-1.004.057-1.597.079-2.459 0-1.709-.157-3.145-.513-4.85-1.213-2.795-1.148-5.434-3.113-7.677-6.048-.033-.042-.081-.067-.132-.068s-.1.022-.134.062l-.089.108a.195.195 0 00-.021.211 10.45 10.45 0 01-.672-1.035z" fill="url(#e)"/><path d="M86.366 83.544a8.059 8.059 0 01.866 4.323c-.187 2.243-2.023 4.452-2.862 4.886a18.776 18.776 0 01-7.547 2.09c-1.004.057-1.597.079-2.459 0-1.709-.157-3.145-.513-4.85-1.213-2.795-1.148-5.434-3.113-7.677-6.048-.033-.042-.081-.067-.132-.068s-.1.022-.134.062l-.089.108a.195.195 0 00-.021.211 10.298 10.298 0 01-.673-1.036l.018.01c-.464-.835-.442-1.677-.201-2.029 5.075-5.098 10.243-7.115 14.848-6.929 4.335.36 8.186 2.454 10.913 5.633z" fill="url(#f)"/><path d="M88.72 80.246c-10.614-5.735-17.602-6.912-29.764.871 5.904-4.377 15.198-10.215 29.764-.871z" fill="#c45e3b"/><path d="M83.382 93.339l.818.22-2.012.25 1.579.635s-2.043-.21-2.587-.084c-6.677 1.549-13.526.203-17.381-3.689-.484-.149-1.645.105-1.645.105l1.156-.609c-.339-.63-.965-.497-2.986-.403.95-.306 1.928-.601 1.85-.834l-.707-1.09a.184.184 0 01.016-.221l.089-.102a.172.172 0 01.265.004c6.175 7.677 15.34 8.45 22.533 4.914l-.988.904zm4.931-10.617c-1.012-.981-1.752-1.504-2.806-2.059.774-.323 1.857-.513 1.857-.513l-3.095-.377c-6.089-3.332-9.937-3.585-16.336-1.394-.797.273-2.852-.338-4.646-.939l2.033 1.955c-1.244.038-2.207-.3-3.541-.559l2.2 1.259c-.95.699-1.94.65-4.954.562l2.444 1.316c-1.067.404-1.521.275-2.982-.047.489.504.92.862 1.498 1.162-.785.05-1.807.152-3.175-.278.675.699 1.281 1.296 1.756 1.469l-1.07.44 1.516.559-1.053.655c1.203.046 1.836.305 2.849.916-.464-.793-.442-1.594-.201-1.928 10.473-9.996 21.35-7.552 26.829.108l-.736-1.344 1.354 1.279-1.242-1.732 1.12.596-1.074-1.522 1.455.416z" fill="#1b2a40"/><path d="M139.394 84.841c-9.825-9.869-20.004-8.215-25.751-1.317a8.05 8.05 0 00-.875 4.343c.187 2.243 2.023 4.452 2.862 4.886a18.776 18.776 0 007.547 2.09c1.004.057 1.597.079 2.459 0 1.709-.157 3.145-.513 4.85-1.213 2.795-1.148 5.434-3.113 7.677-6.048.033-.042.081-.067.132-.068s.1.022.134.062l.089.108c.05.06.054.142.021.211.252-.344.478-.689.673-1.036l-.018.01c.462-.834.441-1.676.2-2.028z" fill="url(#g)"/><path d="M133.199 88.75c-1.231 4.522-5.896 7.187-10.429 5.944-4.528-1.241-7.203-5.918-5.97-10.442 1.23-4.526 5.905-7.19 10.434-5.947 4.527 1.24 7.199 5.918 5.965 10.445z" fill="#4d3623" stroke="#1f1105" stroke-width=".5"/><path d="M123.955 81.418l-.221-.395c-.776.308-1.524.631-2.232.973l.524 1.267-.066.732-2.021-1.189c-.66.367-1.273.75-1.867 1.14l.005.013-.692.78 1.107 1.132-1.492.811.563.931 2.633.262-2.468 1.673 2.641-.146-1.392 2.398 3.255-1.969-.875 3.349 1.883-3.093.363 3.319.544-2.936.5-.061.709 3.329.216-.998c.284-.074 1.018.997 1.297.922l-.829-3.621 1.817 3.621-.737-3.756 2.236 2.905c.08-.025.278-1.204.357-1.228l-1.392-2.081 2.53.763-1.518-1.643-1.219-1.009 5.083 1.137-2.83-1.723 2-.818-4.329-.437 4.281-2.27-3.875.988-1.043-.565-.256-.501.074-1.199.086-1.967-1.768 3.113-.156-2.279-.222-.597c-.354.124-.702.245-1.043.375l-.161.548z" fill="#5c4633"/><path d="M133.296 84.737c-7.429.338-11.206 1.927-16.591 3.727-1.038-4.574 1.839-9.12 6.42-10.149 4.58-1.029 9.135 1.846 10.171 6.422z" fill="#3e2816" opacity=".9"/><path d="M126.229 83.665c-1.869-.536-3.777.532-4.259 2.395-.484 1.853.641 3.793 2.509 4.329 1.873.537 3.78-.532 4.266-2.386.484-1.864-.644-3.803-2.516-4.338z" opacity=".8"/><path d="M126.229 83.665c-1.869-.536-3.777.532-4.259 2.395-.484 1.853.641 3.793 2.509 4.329 1.873.537 3.78-.532 4.266-2.386.484-1.864-.644-3.803-2.516-4.338z" fill="none" stroke="#1f1105" stroke-width=".75"/><path d="M118.805 91.544c.868 1.378 2.021 2.416 3.653 2.762 1.879.398 2.094-2.101.748-2.387-1.02-.215-1.667-.715-2.199-1.561-.975-1.548-2.985-.055-2.202 1.186z" fill="#fff" opacity=".5"/><path d="M126.461 83.449c1.316.265 2.082 1.087 2.747 2.323 1.222 2.272 4.676.252 3.453-2.019-1.073-1.995-2.86-3.703-5.138-4.162-2.915-.587-3.324 3.402-1.062 3.858z" fill="url(#h)" transform="translate(0 -.5)"/><path d="M126 61.999c-10.217 0-18.5 11.192-18.5 25.001 0 13.808 8.283 24.999 18.5 24.999S144.5 100.808 144.5 87c0-13.809-8.283-25.001-18.5-25.001zm12.537 25.897a.195.195 0 00-.021-.211l-.089-.108c-.034-.04-.083-.063-.134-.062s-.099.026-.132.068c-2.243 2.935-4.882 4.9-7.677 6.048-1.705.701-3.141 1.056-4.85 1.213-.862.08-1.455.058-2.459 0a18.776 18.776 0 01-7.547-2.09c-.839-.434-2.676-2.643-2.862-4.886a8.05 8.05 0 01.875-4.343c5.747-6.898 15.926-8.551 25.751 1.317.241.352.263 1.194-.201 2.029l.018-.01c-.194.346-.42.69-.672 1.035z" fill="#f2aa92"/><path d="M123.644 69.499c-9.393-.045-17.017 6.856-17.04 15.417-.024 8.56 7.572 15.533 16.961 15.583 9.392.043 17.015-6.856 17.038-15.416.024-8.561-7.568-15.534-16.959-15.584zm14.893 18.397a.195.195 0 00-.021-.211l-.089-.108c-.034-.04-.083-.063-.134-.062s-.099.026-.132.068c-2.243 2.935-4.882 4.9-7.677 6.048-1.705.701-3.141 1.056-4.85 1.213-.862.08-1.455.058-2.459 0a18.776 18.776 0 01-7.547-2.09c-.839-.434-2.676-2.643-2.862-4.886a8.05 8.05 0 01.875-4.343c5.747-6.898 15.926-8.551 25.751 1.317.241.352.263 1.194-.201 2.029l.018-.01c-.194.346-.42.69-.672 1.035z" fill="url(#i)"/><path d="M113.634 83.544a8.059 8.059 0 00-.866 4.323c.187 2.243 2.023 4.452 2.862 4.886a18.776 18.776 0 007.547 2.09c1.004.057 1.597.079 2.459 0 1.709-.157 3.145-.513 4.85-1.213 2.795-1.148 5.434-3.113 7.677-6.048.033-.042.081-.067.132-.068s.1.022.134.062l.089.108c.05.06.054.142.021.211.252-.344.478-.689.673-1.036l-.018.01c.464-.835.442-1.677.201-2.029-5.075-5.098-10.243-7.115-14.848-6.929-4.335.36-8.186 2.454-10.913 5.633z" fill="url(#j)"/><path d="M111.28 80.246c10.614-5.735 17.602-6.912 29.764.871-5.904-4.377-15.198-10.215-29.764-.871z" fill="#c45e3b"/><path d="M115.63 92.437c7.193 3.537 16.358 2.764 22.533-4.914a.172.172 0 01.265-.004l.089.102a.184.184 0 01.016.221l-.707 1.09c-.078.233.899.528 1.85.834-2.021-.094-2.647-.227-2.986.403l1.156.609s-1.16-.254-1.645-.105c-3.854 3.892-10.704 5.238-17.381 3.689-.544-.126-2.587.084-2.587.084l1.579-.635-2.012-.25.818-.22-.988-.904zm-2.486-10.134l-1.074 1.522 1.12-.596-1.242 1.732 1.354-1.279-.736 1.344c5.479-7.66 16.356-10.104 26.829-.108.241.334.263 1.135-.201 1.928 1.013-.61 1.646-.87 2.849-.916l-1.053-.655 1.516-.559-1.07-.44c.475-.172 1.081-.77 1.756-1.469-1.368.43-2.39.328-3.175.278.578-.299 1.009-.657 1.498-1.162-1.461.322-1.915.452-2.982.047l2.444-1.316c-3.014.088-4.004.137-4.954-.562l2.2-1.259c-1.334.259-2.297.597-3.541.559l2.033-1.955c-1.795.601-3.85 1.212-4.646.939-6.399-2.191-10.247-1.938-16.336 1.394l-3.095.377s1.083.19 1.857.513c-1.054.554-1.794 1.077-2.806 2.059l1.455-.416z" fill="#1b2a40"/><path d="M140.204 113.007c.035 22.275-17.995 40.365-40.273 40.396-22.274.036-40.361-17.993-40.396-40.272-.034-22.274 17.995-40.361 40.273-40.396 22.275-.034 40.363 17.995 40.396 40.272z" fill="url(#k)"/><path d="M135 55.999c0 19.329-15.671 35-35 35s-35-15.671-35-35 15.671-35 35-35 35 15.671 35 35z" fill="url(#l)"/><path d="M74.799 69.068c-4.425-.475-21.252 3.714-21.252 3.714s16.789-6.74 23.757-5.667c5.188.798 14.397 5.077 12.706 7.339-1.361 1.821-5.602-4.354-15.211-5.386zm34.932 5.119c-1.713-2.292 7.592-6.31 13.546-6.804 7.117-.59 22.914 4.085 22.914 4.085s-15.9-2.628-20.377-2.106c-9.816 1.144-14.704 6.669-16.083 4.825z" fill="#2a232b"/><path d="M99.044 91.436s-.827 19.066-.713 23.254c.032 1.188 2.32 4.304 2.164 6.575 0 0-4.462-.325-5.914-.838-1.519-.538-3.869-1.588-2.94-4.521 1.323-4.171 7.403-24.47 7.403-24.47z" fill="#e38e72"/><path d="M98.627 119.026s-1.851-.657-3.02-.624c-1.064.033-1.218-.676-1.11-1.079.108-.403.473-.654 1.501-.38 1.029.276 2.629 2.083 2.629 2.083zm2.755.002s1.847-.609 3.02-.622c1.064-.013 1.219-.677 1.11-1.079-.108-.404-.473-.657-1.501-.383-1.029.278-2.629 2.084-2.629 2.084z" fill="#c45e3b"/><path d="M51.396 214.38c-15.723-25.105-21.321-14.91-17.672-42.457-5.209-9.411-9.375-18.77-12.191-28.824-5.598-21.481.132-35.265 5.142-50.948C21.889 26.813 59.341-9.001 100.71-9.001c32.28 0 67.16 23.47 67.471 75.221-.514 9.459-1.932 25.343-3.003 32.165 17.769 55.029 2.501 50.649-11.07 76.357-3.681 6.968-8.012 17.267-8.919 27.573-18.66-33.246-16.96-38.325-10.676-53.39 7.504-17.985 4.547-4.07-10.03-2.422 13.563-10.49 22.717-10.462 23.003-75.823a.099.099 0 00-.054-.091c-12.352-5.881-24.037-17.006-31.256-29.76a.094.094 0 00-.082-.05h-.003a.095.095 0 00-.085.057C107.671 58.623 93.38 68.21 69.67 71.92c-4.629 2.417-9.738 4.666-16.104 7.085a.1.1 0 00-.063.092c-.428 25.658 5.466 43.881 20.327 65.193-7.085-3.254-12.746-12.711-12.746-12.711-.355 0 2.484 4.965 2.662 5.281 19.809 35.294-12.119 46.623-12.35 77.52z" fill="#ddbc9b" opacity=".1"/><path d="M50.101 212.286c-16.177-25.105-21.937-14.91-18.182-42.457-5.36-9.411-9.647-18.77-12.543-28.824-5.76-21.481.135-35.265 5.29-50.948C19.741 24.72 58.275-11.095 100.841-11.095c33.21 0 69.099 23.47 69.419 75.221-.527 9.459-1.984 25.343-3.089 32.165 18.283 55.029 2.573 50.649-11.39 76.357-3.789 6.968-8.242 17.267-9.175 27.573-19.202-33.246-17.451-38.325-10.984-53.39 7.718-17.985 2.953-4.116-10.321-1.223 13.954-10.49 23.373-11.661 23.668-77.022a.097.097 0 00-.058-.091c-12.709-5.881-24.729-17.006-32.156-29.76a.1.1 0 00-.086-.05h-.004a.098.098 0 00-.086.057c-8.577 17.787-23.281 27.374-47.675 31.084-4.764 2.417-10.02 4.666-16.569 7.085a.1.1 0 00-.065.092c-.441 25.657 5.624 44.881 20.914 66.193-7.322-5.419-13.113-13.711-13.113-13.711-.366 0 2.556 4.965 2.738 5.281 20.38 35.295-12.471 46.624-12.708 77.52z" fill="#ddbc9b"/><path d="M27.34 109.853c-.751-7.729-12.676-57.451 16.781-93.862-13.992 27.157-18.065 63.81-16.781 93.862zm140.181-15.812c4.414-30.432 5.609-63.063-19.443-86.74 12.375 24.191 21.013 41.89 19.443 86.74zM143.14 22.856c-2.382 11.089 1.711 25.652 3.052 35.713-6.99-5.635-11.156-13.569-15.962-24.596 1.055 6.228 3.485 17.428 16.972 31.263-21.798-19.468-26.475-29.291-22.914-52.455-.198.877-.389 1.705-.573 2.49.477-2.542.913-5.288 1.285-8.271-3.201 18-27.117 50.049-47.061 56.902-3.01 3.013-5.737 3.154-8.993 5.917 27.231-4.152 44.396-19.706 48.078-30.866 7.436 12.238 20.931 23.546 33.167 29.331 1.848-16.192-4-26.142-7.051-45.428zm-41.604.713c-9 15-14.354 24.5-28.354 33.5 4.545-3.637 7.687-9.667 9.531-14.927C77.203 50.297 68.565 55.381 61 62c7.516-8.268 17.645-19.858 24.036-30.931-6.442 8.582-16.813 15.337-26.036 23 7.256-6.029 13-13.667 17-21.667-2.775 3.7-7.862 6.459-14 12.598 8.972-11.966 9.88-17.484 12.419-22.405-6.216 10.474-11.655 14.106-17.794 19.295-4.221 17.702-4.461 25.388-5.256 35.113-.039.469 17.113-6.963 17.535-7.177l.042-.007c15.992-13.57 22.556-27.725 32.59-46.25zM60 137c2.788 11.151 1.226 21.095-2.464 32.735-.488-10.761-8.475-21.806-14.417-31.462 1.364 20.726 3.566 30.364.083 46.129-1.866-28.597-7.833-38.269-16.583-59.417-3.527 13.393-2.659 30.866 5.299 44.844-3.755 27.547 2.005 17.352 18.182 42.457.238-30.896 33.088-42.226 12.707-77.52-.183-.316-3.104-5.281-2.738-5.281 0 0 5.792 8.292 13.113 13.711-22.233-24.211-28.063-54.711-28.7-87.711C39.495 95.233 54 117 60 137zm109.126-35.544c.865 16.928 5.439 38.169-9.257 51.947 6-10 3.131-23.403.131-33.403.376 26.762-10.812 42.834-13.809 60.402-.456-8.086-2.304-17.859 1.473-31.015-3.663 6.402-7.795 13.848-9.388 22.723-5.241-9.827-2.367-17.266-.533-26.834 7.778-8.19 13.157-23.839 14.294-33.894-.935 8.266-6.287 20.703-12.478 25.897-.001.009-.536 1.809-1.124 3.782.044-.333.086-.668.125-1.008-8.928 21.01-13.345 23.131 8.046 60.166.845-9.357 4.724-19.388 9.175-27.573 13.455-24.772 28.62-22.169 13.345-71.19z" fill="#cea57c"/><path d="M155.339 79.777c4.269-17.414-2.295-44.215-5.664-49.444 5.253 8.148 12.299 30.132 5.664 49.444zm4.102 7.922c.458-2.363 14.095-28.735-8.994-65.914 20.885 38.017 9.458 63.518 8.994 65.914zM34.086 55.382c1-.447 7.361-47.259 48.429-56.088-43.069 7.589-47.429 55.643-48.429 56.088zm5.67 44.385c-.024-1.003-8.152-47.383 14.691-77.104-26.451 31.304-14.715 76.104-14.691 77.104zm3.257 31.389c-1.428-1.897-13.106-33.317-7.671-69.134-10.056 37.562 6.919 68.134 7.671 69.134zM153.395 30.807c-1-.295-13.057-35.017-37.847-31.593 21.684-1.229 36.847 31.295 37.847 31.593zm-20.632 17.99s-9.419-14.771-6.004-39.082c-3.152 14.84-2.821 25.098 6.004 39.082zm2.661-11.495c2.568 7.16 8.104 14.888 9.026 15.499-1.001-.663-9.66-13.341-11.684-34.227.18 6.269.518 12.76 2.658 18.728zM88.142 57.415c7.993-7.77 25.836-15.403 35.973-52.374-10.877 34.152-27.518 44.155-35.973 52.374zm.025-30.406c6.991-6.677 9.494-13.522 9.407-19.946-.716 6.447-4.207 14.98-9.407 19.946zm-10.021 3.329c.377-.013 1.333-1.137 1.603-1.373 7.977-6.959 11.625-12.581 12.388-22.236-1.171 11.009-12.989 23.575-13.991 23.609zm-1.343-1.979s8.23-9.662 11.186-23.308c-3.13 10.887-11.186 23.308-11.186 23.308zm-20.4 125.376c.581-1 1.925-20.274-7.62-28.24 6.005 6.094 8.2 27.239 7.62 28.24zm.017-.01c-.46-7.765-7.55-13.918-8.99-23.647.536 12.408 8.195 16.828 8.99 23.647zm-15.325 6.677c-.959-2.241 3.723-12.528-10.313-34.283 11.433 20.579 9.851 33.203 10.313 34.283zm.02-1.321c-1.186-4.379.906-13.748-4.325-28.989 2.734 10.111 2.791 23.317 4.325 28.989zm108.909-27.792c-4.108 8.074-12.523 13.667-10.338 33.775-.201-1.853.16-3.941.305-5.79 1.957-24.953 8.672-5.729 16.046-52.242-1.784 7.138-3.142 18.616-6.013 24.257zm-2.295 36.44c.371-1.456.345-3.097.603-4.586 2.182-12.614 6.991-19.381 7.411-39.744-.962 16.481-8.222 30.106-8.014 44.33zm17.378-26.702c.469-3.128 6.825-7.942 1.996-32.945 2.746 25.659-1.535 29.869-1.996 32.945zm.001.031c.438-1 3.109-17.928-3.651-30.616 4.719 10.273 4.09 29.616 3.651 30.616z" fill="#ecd5bd"/><path d="M18.901 151.753a64.006 64.006 0 011.238-7.817c2.5 7.838 5.503 15.074 11.68 25.88-3.773 27.679 2.116 17.422 18.38 42.81 0-22.267 17.058-34.558 19.03-51.87 1.784-15.764-4.759-22.359-9.16-31.17 3.666 5.108 8.469 10.416 13.56 14.061-14.507-20.062-21.735-38.961-21.26-66.64 5.63-2.08 11.2-4.36 16.55-7.08 21.469-3.266 38.274-11.49 47.75-31.14 7.314 12.562 19.169 23.77 32.2 29.8-.298 65.876-9.77 66.413-23.98 77.209 5.811-1.109 12.751-5.729 14.311-7.93-9.068 23.75-15.193 23.472 7.479 62.68.796-9.556 4.586-19.383 9.19-27.85 13.917-25.626 29.741-22.284 11.45-77.29 1.544-9.539 2.827-18.686 3-27.83.175 3.245.276 6.377.367 9.425h.641c-.257-4.086-.525-8.347-.968-12.875-.657-106.408-155.465-102.179-145.79 25.9-5.227 15.913-11.063 29.484-5.29 50.95a74.169 74.169 0 00-2.137 8.749c.532.731 1.091 1.434 1.759 2.028zm6.058-57.468c.095 1 3.72 27.654 1.32 8.13-17.743-144.346 166.257-154.346 139.86-.519-1.794 10.454-.768 5.549.961-5.12 17.259 58.25-3.75 45.563-18.32 87.37-1.37 3.939-2.34 9-2.74 13.13-21.623-38.089-11.207-41.533-5.64-60.7 6.599-7.292 10.615-15.871 11.71-26.52-2.591 17.989-14.384 30.05-24.181 34.06 5.116-3.371 10.438-6.975 13.601-12.39 2.034-2.136 11.762-26.173 8.12-72.03-1.673-20.141-8.437-26.107-6.931-34.66-1.396 6.717 2.429 11.257 4.71 25.08 1.055 6.458 1.431 15.847 1.431 17.57-10.923-5.965-24.91-18.89-31.76-29.79 4.461-9.145 6.782-23.075 8.6-31.87-5.416 22.088-9.213 52.515-53.76 62.3 7.232-3.953 22.987-12.243 39.25-45.36.02-.01.029-.02.029-.04 8.711-17.095.602-2.034-.09-.8-.013-.026-.01-.103-.01.01-20.156 36.093-36.387 45.333-58.75 54.6.01-.68.02-1.36.05-2.04 27.481-8.941 44.618-41.674 39.07-33.58-8.877 13.02-24.155 28.015-39.06 33.34.017-1 .183-4.32.46-7.14 19.215-13.644 23.448-20.838 30.89-33.8.556-.979 1.037-1.813 1.454-2.526-4.483 6.824-16.303 23.2-32.294 35.725.44-4.62 1.1-9.22 1.89-13.79.921-1.218 8.834-7.552 15.32-20.74 3.094-6.249 4.27-9.59 4.27-9.59-.871 1.578-6.035 13.404-19.31 28.78 2.19-12.138 5.188-23.076 8.57-35.03-5.756 17.895-11.357 37.272-13.01 56.8-.488 1-1.416 37.987 17.235 63.969-28.77-30.95-24.066-68.987-23.885-81.719-.09 0-.75 10.35-.8 11.05-3.867 51.415 25.597 63.853 24 90.61-1.172 19.548-17.347 30.422-17.49 53.89-12.637-21.956-19.809-15.55-16.85-39.3.077-1 1.134-8.253.08-15.33-1.696-11.256-4.121-14.498-3.766-16.86-.269 1.428.351 2.886 1.417 6.7 1.909 6.668 2.163 15.704 1.33 22.73-16.523-32.548-14.211-49.843-6.981-74.6z" fill="#af7b46"/><path d="M144.81 91.54C142.14 98.8 135.17 104 127 104c-10.48 0-19-8.52-19-19 0-3.42.92-6.62 2.51-9.4 17.51-1.54 27.86 3.37 34.3 15.94zM56.51 75.6A18.861 18.861 0 0054 85c0 10.48 8.52 19 19 19 8.17 0 15.14-5.2 17.81-12.46-6.44-12.57-16.79-17.48-34.3-15.94z" fill="#fff" opacity=".2"/><path d="M110.51 75.6c3.28-5.73 9.43-9.6 16.49-9.6 10.48 0 19 8.52 19 19 0 2.3-.43 4.5-1.19 6.54-6.44-12.57-16.79-17.48-34.3-15.94zm-19.7 15.94A18.69 18.69 0 0092 85c0-10.48-8.52-19-19-19-7.06 0-13.22 3.88-16.49 9.6 17.51-1.54 27.86 3.37 34.3 15.94z" fill="#fff" opacity=".4"/><path d="M156.69 79.96l-9.77 3.44C146.1 73.1 137.51 65 127 65c-9.41 0-17.28 6.51-19.41 15.26-.01 0-.01-.01-.02-.02-1.69-1.69-4.97-2.51-7.57-2.51s-5.88.83-7.57 2.51c-.01 0-.01.01-.02.02C90.28 71.5 82.41 65 73 65c-10.51 0-19.1 8.11-19.92 18.4l-9.77-3.44v2.88l9.76 3.43C53.73 96.72 62.39 105 73 105c11.05 0 20-8.95 20-20 0-.31-.03-.62-.05-.93h.03c0-2.39 3.6-4.68 7.02-4.68s7.02 2.3 7.02 4.68h.03c-.02.31-.05.62-.05.93 0 11.05 8.95 20 20 20 10.61 0 19.27-8.27 19.94-18.72l9.76-3.43v-2.89zM73 103.5c-10.22 0-18.5-8.28-18.5-18.5S62.78 66.5 73 66.5 91.5 74.78 91.5 85s-8.28 18.5-18.5 18.5zm54 0c-10.22 0-18.5-8.28-18.5-18.5s8.28-18.5 18.5-18.5 18.5 8.28 18.5 18.5-8.28 18.5-18.5 18.5z" fill="#97cf10"/></svg>