<svg xmlns="http://www.w3.org/2000/svg" width="500" height="500" viewBox="0 0 200 200" overflow="hidden"><defs><radialGradient id="j" cx="100" cy="113" r="40" gradientUnits="userSpaceOnUse" class="svga-on-canvas-facehighlight-gradient-single-0"><stop stop-opacity=".5" stop-color="#ffe4d6" offset="0"/><stop stop-opacity="0" stop-color="#f0c7b1" offset=".9"/></radialGradient><radialGradient id="k" cx="100" cy="57" r="36" gradientUnits="userSpaceOnUse" class="svga-on-canvas-facehighlight-gradient-single-1"><stop stop-opacity=".5" stop-color="#ffe4d6" offset="0"/><stop stop-opacity="0" stop-color="#f0c7b1" offset=".9"/></radialGradient><radialGradient id="b" cx="125.675" cy="87.605" r="15.179" gradientTransform="matrix(-.9148 .0479 .0523 .9986 184.431 -6.602)" gradientUnits="userSpaceOnUse" class="svga-on-canvas-eyesback-gradient-left-0"><stop stop-color="#fff" offset="0"/><stop stop-color="#fdfefe" offset=".544"/><stop stop-color="#f6f8f9" offset=".74"/><stop stop-color="#eaeff2" offset=".879"/><stop stop-color="#d9e3e8" offset=".992"/><stop stop-color="#d8e2e7" offset="1"/></radialGradient><radialGradient id="f" cx="125.674" cy="87.605" r="15.179" gradientTransform="matrix(.9148 .0479 -.0523 .9986 15.57 -6.602)" gradientUnits="userSpaceOnUse" class="svga-on-canvas-eyesback-gradient-right-0"><stop stop-color="#fff" offset="0"/><stop stop-color="#fdfefe" offset=".544"/><stop stop-color="#f6f8f9" offset=".74"/><stop stop-color="#eaeff2" offset=".879"/><stop stop-color="#d9e3e8" offset=".992"/><stop stop-color="#d8e2e7" offset="1"/></radialGradient><radialGradient id="d" cx="123.905" cy="84.411" fx="137.93" fy="82.292" r="18.705" gradientTransform="matrix(.9998 .0208 .0166 -.7998 -49.189 149.347)" gradientUnits="userSpaceOnUse" class="svga-on-canvas-eyesfront-gradient-left-3"><stop stop-color="#e1ac8f" offset="0"/><stop stop-opacity=".3" stop-color="#e1ac8f" offset=".7"/><stop stop-opacity="0" stop-color="#f0c7b1" offset="1"/></radialGradient><radialGradient id="e" cx="69.404" cy="106.952" r="29.508" gradientTransform="rotate(-2.982 100.545 115.184) scale(1.0336)" gradientUnits="userSpaceOnUse" class="svga-on-canvas-eyesfront-gradient-left-4"><stop stop-opacity="0" offset=".95"/><stop stop-opacity=".3" offset="1"/></radialGradient><radialGradient id="h" cx="123.905" cy="84.411" fx="137.93" fy="82.292" r="18.705" gradientTransform="matrix(-.9998 .0208 -.0166 -.7998 249.189 149.347)" gradientUnits="userSpaceOnUse" class="svga-on-canvas-eyesfront-gradient-right-3"><stop stop-color="#e1ac8f" offset="0"/><stop stop-opacity=".3" stop-color="#e1ac8f" offset=".7"/><stop stop-opacity="0" stop-color="#f0c7b1" offset="1"/></radialGradient><radialGradient id="i" cx="69.404" cy="106.952" r="29.508" gradientTransform="scale(-1.0336 1.0336) rotate(-3 .494 3805.793)" gradientUnits="userSpaceOnUse" class="svga-on-canvas-eyesfront-gradient-right-4"><stop stop-opacity="0" offset=".95"/><stop stop-opacity=".3" offset="1"/></radialGradient><linearGradient id="c" x1="130" y1="81" x2="126" y2="85" gradientTransform="translate(-50)" gradientUnits="userSpaceOnUse" class="svga-on-canvas-eyesiris-gradient-left-6"><stop stop-color="#fff" offset="0"/><stop stop-opacity="0" stop-color="#fff" offset="1"/></linearGradient><linearGradient id="g" x1="130" y1="81" x2="126" y2="85" gradientUnits="userSpaceOnUse" class="svga-on-canvas-eyesiris-gradient-right-6"><stop stop-color="#fff" offset="0"/><stop stop-opacity="0" stop-color="#fff" offset="1"/></linearGradient><linearGradient id="a" x1="99.98" y1="171.27" x2="99.98" y2="136.351" gradientUnits="userSpaceOnUse" class="svga-on-canvas-chinshadow-gradient-single-0"><stop stop-opacity=".8" stop-color="#e1ac8f" offset="0"/><stop stop-color="#c27b55" offset=".7"/></linearGradient></defs><path d="M225 225H-25V-25h250v250z" fill="#45ada8"/><path d="M225 66.045V46.523c-8.393-7.17-16.444-14.676-24.006-22.532C206.423 16.09 215.705 4.264 225 .533v-16.039c-3.896 1.01-7.948 3.157-10.891 4.849-9.592 5.514-16.968 14.41-23.396 23.297C180.981 1.161 172.431-11.375 166.43-25h-16.256c7.101 18.589 18.696 35.418 31.924 50.498-3.762 6.007-7.353 12.13-11.097 18.132-6.771 10.854-13.008 21.979-18.061 33.713-1.74-.122-3.482-.236-5.227-.348-.102-11.296-1.301-22.637-2.591-33.427-2.758-23.073-7.297-45.836-11.994-68.568h-15.287c3.512 16.925 6.991 33.854 9.757 50.925 2.627 16.216 5.104 33.229 5.117 49.989-17.066-1.536-33.684-4.704-47.991-15.619-22.846-17.429-21.9-26.78-25.009-40.538C68.462 4.662 80.021-9.181 83.404-25H67.848C65.56-17.579 61.103-10.434 57.28-4.268c-1.766 2.849-3.54 5.708-5.319 8.565C41.416-4.602 16.985-1.963 3.134-5.856c-8.089-2.274-17.358-7.185-25.183-11.213A185.55 185.55 0 01-25-18.619v16.811c7.296 3.502 14.678 6.469 20.881 9.151 12.571 5.436 27.6 2.613 42.814 7.009 2.774.801 3.976 1.791 4.725 3.446-5.892 9.124-12.53 15.882-24.782 18.239C6.717 38.331-9.568 36.45-25 35.374V50.51c14.17.911 30.442 2.151 42.378.754 12.875-1.506 23.256-6.821 30.822-14.903 3.926 13.052 9.926 23.987 32.905 39.741 15.079 10.337 32.932 13.381 50.891 14.876-2.058 20.178-10.428 37.32-32.693 54.405-10.407 7.985-21.317 14.728-34.237 24.035a285.45 285.45 0 00-6.204-1.832c-14.62-4.125-46.417-6.59-53.1-6.965 8.508-6.75 17.07-13.123 22.152-23.144 11.073-21.834.773-48.529-17.324-59.654-8.379-5.15-22.056-8.642-35.59-13v15.465c6.097 2.013 12.208 3.99 18.242 6.175 3.371 1.221 7.316 2.72 10.326 4.67-1.389-.644 14.647 9.087 13.954 28.72-.661 18.694-21.119 26.841-34.167 41.017a88.977 88.977 0 00-8.354 1.198V225h8.315c-2.877-17.495-2.37-34.53 8.331-50.064 8.69-.111 43.984 2.377 59.317 6.059C37.81 193.899 34.342 209.025 34.122 225H48.77c.262-8.053 1.59-15.874 5.038-23.062 3.074-6.407 8.375-11.441 14.043-15.887 6.325 2.192 12.58 4.603 18.827 6.916 21.501 7.963 39.663-16.236 68.072-27.625.472-.189.954-.367 1.429-.554 10.135 21.642 24.926 41.005 40.126 60.211H215.3c-16.396-20.788-33.895-42.817-44.951-65.021 25.817-7.328 33.013-2.973 40.158 3.964 5.458 5.298 10.602 12.362 14.493 20.076v-26.446a93.01 93.01 0 00-3.028-3.367c-7.024-7.418-15.717-12.491-26.009-13.126-10.466-.645-21.483 2.115-31.569 5.142-7.333-20.176-7.046-36.563-1.767-53.077 15.35 1.577 40.417 6.625 48.157 20.097 5.229 9.103 8.712 18.285 14.216 28.972v-34.389c-1.05-1.908-2.147-3.734-3.344-5.472-10.035-14.583-35.667-21.38-53.283-23.575 5.96-12.576 12.812-22.861 24.354-41.835C202.896 47.331 213.716 56.986 225 66.045zM147.094 92l.459.028c-.258.887-.503 1.777-.737 2.671.108-.897.19-1.798.278-2.699zm-37.575 81.981c-4.553 2.729-9.252 6.184-14.766 5.801-3.813-.264-8.413-2.824-12.214-4.384 23.267-16.107 52.827-33.469 61.801-67.581-1.749 15.194.747 28.782 6.11 43.354-14.534 6.134-26.056 13.894-40.931 22.81z" fill="#2f9e98"/><path d="M100.5 100.5h-1v-1h1v1z" fill="#ddbc9b"/><path d="M190.858 199.866c-6.008-10.158-13.474-11.973-19.628-13.936-6.323-2.016-19.346-3.178-26.449-4.6-6.86-1.373-23.153-5.789-23.339-13.488-.192-8.066 4.291-40.09 4.291-40.09H74.005s4.487 32.023 4.294 40.09c-.184 7.699-16.48 12.115-23.341 13.488-7.104 1.422-20.125 2.584-26.448 4.6-6.156 1.963-13.624 3.777-19.632 13.936-3.644 6.16-6.008 16.133-6.008 27.133h194c-.001-11-2.361-20.973-6.012-27.133z" fill="#f0c7b1"/><path d="M121.442 167.843c2.495 10.929 18.165 13.698 26.293 15.325 21.909 4.379 33.772 5.134 42.297 19.539 2.903 4.916 5.459 15.864 5.962 24.153 1.835.291.531-17.432-5.136-26.994-9.742-16.472-29.089-15.135-46.077-18.535-6.86-1.373-23.153-5.789-23.339-13.488zm-42.884 0c-.186 7.699-16.479 12.115-23.339 13.488-16.988 3.4-36.335 2.063-46.077 18.535-5.667 9.563-6.971 27.285-5.136 26.994.503-8.289 3.059-19.237 5.962-24.153 8.524-14.405 20.388-15.16 42.297-19.539 8.128-1.627 23.798-4.397 26.293-15.325z" fill="#ffe4d6"/><path d="M51.206 189.513s28.641.299 33.473 1.885c2.314.758 8.372 5.633 8.372 5.633s-6.556-3.17-8.658-3.758c-4.883-1.364-33.187-3.76-33.187-3.76zm48.589 10.486c2.053-.041 7.887-3.799 7.887-3.799s-5.574 2.059-7.342 2.16c-1.491.086-6.366-1.238-6.366-1.238s4.138 2.91 5.821 2.877zm17.213-7.242c6.75-1.818 29.786-3.23 29.786-3.23s-23.791-.516-30.51 1.725c-2.252.752-7.562 5.16-7.562 5.16s6.064-3.058 8.286-3.655z" fill="#e1ac8f"/><path d="M190.858 199.866c-9.741-16.471-29.122-15.142-46.077-18.535-6.86-1.373-23.153-5.789-23.339-13.488-.192-8.066 4.291-40.09 4.291-40.09H74.005s4.487 32.023 4.294 40.09c-.184 7.699-16.48 12.115-23.341 13.488-7.104 1.422-20.125 2.584-26.448 4.6-6.156 1.963-13.624 3.777-19.632 13.936C5.234 206.027 2.87 216 2.87 227h194c-.001-11.001-2.361-20.974-6.012-27.134z" fill="none" stroke="#c27b55" stroke-width="1.5"/><path d="M100.002 171.005c10.695 0 16.372-2.606 20.836-5.726.384-8.456 2.755-26.607 3.782-34.206-14.799-1.759-34.763-1.747-49.5.032 1.023 7.564 3.362 25.461 3.771 33.979 4.509 3.205 10.195 5.921 21.111 5.921z" fill="url(#a)"/><path d="M110.139 228.889c-17.864 0-38.7-.069-63.699-.213l-22.105-.12c-13.348-.072-16.001-.087-17.631-.087l-4.573.006c.032-40.523 20.015-43.334 41.17-46.313 7.271-1.023 14.789-2.082 21.584-4.733 8.525 11.975 21.924 13.591 33.912 13.591.667 0 1.341-.006 2.016-.017 12.668-.285 27.552-4.774 32.317-14.161.614.234 1.186.504 1.738.766.621.293 1.263.597 1.974.854 4.65 1.684 10.432 2.48 16.552 3.324 20.011 2.76 44.916 6.193 44.578 45.069.003.154.004 1.097-.012 1.392-11.682 0-19.607.113-28.782.244-12.445.178-27.935.398-59.027.398h-.012z" fill="#09aac5"/><path d="M197.869 226.999c-2.027-5.485-.96-15.439-6.837-24.292-11.653-17.556-33.322-15.948-53.227-21.639-4.204 8.565-12.24 13.539-21.429 16.39l-.016-.047c9.016-3.198 16.683-8.066 21.003-16.475a78.151 78.151 0 01-1.499-.448l.956-1.836c24.187 7.439 43.709 2.062 55.037 21.214 3.652 6.16 6.012 16.133 6.012 27.133zM57.233 182.344c1.267-.294 2.53-.607 3.788-.948l-1.332-1.765c-23.343 6.027-40.887 2.21-51.548 20.235-3.65 6.16-6.011 16.133-6.011 27.133 2.027-5.485.96-15.439 6.837-24.292 10.571-15.926 29.385-16.085 47.646-20.225 6.519 8.028 16.042 13.7 26.402 15.333-12.995-3.39-21.077-9.672-25.782-15.471z" fill="#1fbad4"/><path d="M132.08 178.811c-4.996 7.702-18.542 12.955-33.907 12.955-15.182 0-27.706-5.206-33.5-13.926l-.044-.065 1.235 1.856c-1.369.581-4.817 1.748-4.817 1.748l-1.446-1.86.089.117c.271.354.553.736.851 1.14 4.359 5.904 11.656 15.785 36.296 15.785 2.162 0 4.443-.079 6.78-.235 16.303-1.168 26.873-6.359 32.244-15.839-.055-.023-2.509-1.031-3.781-1.676z" fill="#009cb6"/><path d="M133.079 176.717c-5.041 10.081-21.03 13.934-32.27 14.187-14.635.228-27.563-1.841-35.89-13.597-26.368 10.344-62.89-3.587-62.89 51.269 9.28 0-4.304-.062 44.41.2 115.375.663 115.16-.43 151.61-.43.027-.131.023-1.356.021-1.49.44-50.604-41.021-41.186-61.195-48.488-1.371-.497-2.453-1.15-3.796-1.651zm-68.49 1.179c13.809 20.776 60.199 16.511 68.44-.561 1.12.471 2.34.94 3.64 1.4-3.904 8.186-12.275 16.001-33.06 17.49-32.014 2.134-39.41-10.844-43.84-16.65.136-.038 3.456-1.168 4.82-1.679zm-62.42 50.509c2.5-22.877 4.756-39.219 32.69-44.068 9.593-1.77 14.509-1.939 24.83-4.731 7.873 10.792 15.739 18.518 44.7 17.3 21.37-2.377 28.569-9.619 32.461-18.1 26.52 8.347 59.285-.172 60.88 49.38-50.465-.657-99.22-1.97-195.561.219z" fill="#008197"/><path d="M100.002.867C66.384.919 39.082 28.09 39.134 61.564a60.48 60.48 0 002.002 15.382h.001c.013.054 11.543 37.969 14.021 50.423 1.382 6.945 9.063 15.403 16.531 20.513 6.967 4.767 11.263 11.388 28.313 11.388s21.346-6.621 28.313-11.388c7.468-5.109 15.149-13.567 16.531-20.513 2.479-12.454 14.009-50.37 14.02-50.423h.002a60.48 60.48 0 002.002-15.382C160.923 28.09 133.62.919 100.002.867z" fill="#f0c7b1"/><path d="M146.772 22.738c7.478 10.183 11.917 22.87 11.898 36.626a62.683 62.683 0 01-1.93 15.382h-.002c-.011.053-11.124 37.969-13.512 50.423-1.335 6.945-8.737 15.403-15.935 20.513-6.718 4.767-10.854 11.388-27.291 11.388-16.434 0-20.575-6.621-27.291-11.388-7.197-5.109-14.602-13.567-15.931-20.513-2.391-12.454-13.504-50.37-13.515-50.423a62.635 62.635 0 01-1.931-15.382c-.021-13.752 4.416-26.435 11.889-36.617-8.812 10.525-14.112 24.056-14.089 38.817a60.48 60.48 0 002.002 15.382h.001c.015.054 11.545 37.969 14.023 50.423 1.382 6.945 9.063 15.403 16.531 20.513 6.967 4.767 11.263 11.388 28.313 11.388s21.346-6.621 28.313-11.388c7.468-5.109 15.149-13.567 16.531-20.513 2.479-12.454 14.009-50.37 14.02-50.423h.002a60.48 60.48 0 002.002-15.382c.024-14.765-5.281-28.3-14.098-38.826z" fill="#e8b9a0"/><path d="M100.002.867C66.384.919 39.082 28.09 39.134 61.564a60.48 60.48 0 002.002 15.382h.001c.013.054 11.543 37.969 14.021 50.423 1.382 6.945 9.063 15.403 16.531 20.513 6.967 4.767 11.263 11.388 28.313 11.388s21.346-6.621 28.313-11.388c7.468-5.109 15.149-13.567 16.531-20.513 2.479-12.454 14.009-50.37 14.02-50.423h.002a60.48 60.48 0 002.002-15.382C160.923 28.09 133.62.919 100.002.867z" fill="none" stroke="#c27b55" stroke-width="1.5"/><path d="M99.867 142.685c-4.159 0-7.651-3.162-7.651-3.162 7.261 1.131 16.154-.671 16.154-.671s-3.251 3.833-8.503 3.833z" fill="#e1ac8f"/><path d="M99.869 138.507c-2.691.025-8.86-1.635-11.18-2.938-1.374-.769-3.749-3.433-5.4-4.788-.635-.521-.371-1.528.466-1.569 2.036-.099 4.65.979 5.876 1.169 2.565.389 5.805 1.835 10.195 1.835 3.262 0 6.828-1.15 9.101-1.574 1.367-.254 4.529-1.376 6.755-1.501.838-.05 1.18.777.56 1.316-1.739 1.526-4.526 4.328-6.028 5.112-2.431 1.268-7.92 2.916-10.345 2.938z" opacity=".5"/><path d="M86.859 129.328s.286 2.427.722 3.12c.6.954 4.257 2.914 5.717 3.188.993.184 2.814.476 3.816.613 1.085.148 1.695.015 2.791-.021 1.179-.038 2.186.132 3.336-.135.819-.19 3.215-.834 3.997-1.145.604-.242 1.814-.643 2.364-.992.456-.288 1.866-1.333 2.146-1.795.366-.605.709-2.752.709-2.752l-25.598-.081z" fill="#fff"/><path d="M92.17 129.748s-.522 5.283-.568 5.375c-.047.092-.179-5.375-.179-5.375h.747zm2.194.587l.464 5.601.298-5.601h-.762zm5.121.826l.579 5.088.375-5.176-.954.088zm4.493-1.068c.973.088 1.298 5.446 1.298 5.446l.134-5.446h-1.432zm3.727-.655s.386 5.114.44 5.018c.053-.097.153-5.018.153-5.018h-.593zm-18.829-.002l.283 4.181.283-4.181h-.566zm21.499-.425l.086 4.38.432-4.413-.518.033z" opacity=".1"/><path d="M116.764 129.126c-1.218-.406-3.771-.125-5.061-.294-1.83-.239-5.542-.409-7.392-.356-1.161.034-3.449.457-4.608.484-1.191.027-3.562-.461-4.751-.471-1.888-.012-5.689.214-7.54.534-1.279.222-3.89-.113-4.914.475-.237.137-.095.75 0 .981.862 2.089 4.188 5.489 7.067 7.497a18.64 18.64 0 0010.643 3.381c4.035.003 8.785-2.247 12.762-5.639 1.758-1.5 3.982-4.091 4.353-5.537.189-.73-.244-.95-.559-1.055zm-16.948 7.226c-2.488.019-8.26-1.229-10.697-2.494-1.461-.759-3.7-2.577-5.226-3.708-.588-.435-.454-.789.321-.822 1.882-.084 5.042.944 6.177 1.1 2.371.324 5.366 1.531 9.425 1.531 3.013 0 6.312-.959 8.414-1.311 1.264-.213 4.833-1.278 6.89-1.384.775-.04.926.276.354.727-1.61 1.271-4.326 3.216-6.055 4.066-2.195 1.082-7.362 2.271-9.603 2.295z" fill="#f39" stroke="#f01884" stroke-width=".75"/><path d="M86.869 134.124c2.588.523 8.417 3.611 13.315 3.444 5.105-.175 12.685-4.745 13.685-4.244.373 1.199-9.853 6.985-13.685 7.077-3.437.081-14.398-4.916-13.315-6.277zm12.616-2.963c3.109-.042 6.909-.442 9.469-1.672-2.918-1.013-6.938.115-9.251.168-3 .07-5.51-.934-8.289.058 2.655.907 5.384 1.483 8.071 1.446z" fill="#ff4da6"/><path d="M97.732 139.024c-1.881-.424-1.945-.596-.162-.42 1.09.106 2.18.132 3.238.03.141-.015.281-.029.419-.049 1.195-.157 2.479-.546 3.768-1.051 2.015-.792 2.051-.6.053.446-1.467.767-2.831 1.324-3.798 1.44l-.062.007c-.824.082-2.065-.087-3.456-.403z" fill="#ff66b3"/><path d="M79.599 130.722s-.561-1.256-.482-1.724c.11-.657 1.521-1.958 1.521-1.958s-.854 1.498-.986 1.971c-.129.457-.053 1.711-.053 1.711zm40.564.159s.609-1.364.523-1.873c-.119-.714-1.652-2.127-1.652-2.127s.929 1.628 1.072 2.142c.139.496.057 1.858.057 1.858z" fill="#c27b55"/><path d="M60.986 83.262c.405-.904 2.145-2.183 5.923-3.078 1.724-.409 4.107-.321 6.578-.143 5.98.429 11.736 4.248 13.547 7.316h.012c.351.611.565 1.192.585 1.702.041 1.082-.444 1.94-1.316 2.623l.003-.004c-2.256 1.847-8.541 2.244-12.319 2.213-7.52-.063-9.723-2.969-9.723-2.969-.938-1.243-2.008-2.639-2.695-4.086l.028.036c-.715-1.591-.636-2.143-.719-3.156a2.19 2.19 0 01.096-.454z" fill="url(#b)"/><path d="M82.456 89.5c-1.231 4.522-5.896 7.187-10.429 5.944-4.528-1.241-7.203-5.918-5.97-10.442 1.23-4.526 5.905-7.19 10.434-5.947 4.527 1.24 7.198 5.918 5.965 10.445z" fill="#ddb332" stroke="#af8400" stroke-width=".5"/><path d="M73.212 82.168l-.221-.395c-.776.308-1.524.631-2.232.973l.524 1.267-.066.732-2.021-1.189c-.66.367-1.273.75-1.867 1.14l.005.013-.692.78 1.107 1.132-1.491.813.563.931 2.633.262-2.468 1.673 2.641-.146-1.393 2.396 3.255-1.969-.875 3.349 1.883-3.093.363 3.319.544-2.936.5-.061.709 3.329.216-.998c.284-.074 1.018.997 1.297.922l-.829-3.621 1.817 3.621-.737-3.756 2.236 2.905c.08-.025.278-1.204.357-1.228l-1.392-2.081 2.53.763-1.518-1.643-1.219-1.009 5.083 1.137-2.83-1.723 2-.818-4.329-.437 4.281-2.27-3.875.988-1.043-.565-.256-.501.074-1.199.086-1.967-1.768 3.113-.156-2.279-.222-.597c-.354.124-.702.245-1.043.375l-.161.548z" fill="#ecc54d"/><path d="M82.553 85.487c-7.429.338-11.206 1.927-16.591 3.727-1.038-4.574 1.839-9.12 6.42-10.149 4.58-1.029 9.135 1.846 10.171 6.422z" fill="#cea21a" opacity=".9"/><path d="M75.484 84.415c-1.869-.536-3.777.532-4.258 2.395-.484 1.853.64 3.793 2.51 4.329 1.871.537 3.781-.532 4.264-2.386.487-1.864-.643-3.803-2.516-4.338z" opacity=".8"/><path d="M75.484 84.415c-1.869-.536-3.777.532-4.258 2.395-.484 1.853.64 3.793 2.51 4.329 1.871.537 3.781-.532 4.264-2.386.487-1.864-.643-3.803-2.516-4.338z" fill="none" stroke="#af8400" stroke-width=".75"/><path d="M68.062 92.294c.868 1.378 2.021 2.416 3.653 2.762 1.879.398 2.094-2.101.748-2.387-1.02-.215-1.667-.715-2.199-1.561-.975-1.548-2.985-.055-2.202 1.186z" fill="#fff" opacity=".5"/><path d="M76.468 83.449c1.316.265 2.082 1.087 2.747 2.323 1.222 2.272 4.676.252 3.453-2.019-1.073-1.995-2.86-3.703-5.138-4.162-2.915-.587-3.324 3.402-1.062 3.858z" fill="url(#c)" transform="translate(-.75 .25)"/><path d="M56 88c0 13.808 8.06 24.999 18 24.999S92 101.808 92 88c0-13.809-8.06-25.001-18-25.001S56 74.191 56 88zm5.58-1.164l.028.036c-.715-1.591-.636-2.143-.719-3.156.015-.149.048-.301.097-.454.405-.904 2.145-2.183 5.923-3.078 1.724-.409 4.107-.321 6.578-.143 5.98.429 11.736 4.248 13.547 7.316h.012c.351.611.565 1.192.585 1.702.041 1.082-.444 1.94-1.316 2.623l.003-.004c-2.256 1.847-8.541 2.244-12.319 2.213-7.52-.063-9.723-2.969-9.723-2.969-.939-1.243-2.008-2.639-2.696-4.086z" fill="#f0c7b1"/><path d="M57.143 85.081c.027 8.284 8.484 14.962 18.902 14.919 10.414-.047 18.836-6.796 18.813-15.08-.028-8.285-8.487-14.963-18.903-14.92-10.416.047-18.836 6.796-18.812 15.081zm4.465 1.791c-.715-1.591-.636-2.143-.719-3.156.015-.149.048-.301.097-.454.405-.904 2.145-2.183 5.923-3.078 1.724-.409 4.107-.321 6.578-.143 5.98.429 11.736 4.248 13.547 7.316h.012c.351.611.565 1.192.585 1.702.041 1.082-.444 1.94-1.316 2.623l.003-.004c-2.256 1.847-8.541 2.244-12.319 2.213-7.52-.063-9.723-2.969-9.723-2.969-.938-1.243-2.008-2.639-2.695-4.086l.027.036z" fill="url(#d)"/><path d="M64.275 90.922c-.938-1.243-2.008-2.639-2.695-4.086l.028.036c-.715-1.591-.636-2.143-.719-3.156.015-.149.048-.301.097-.454.405-.904 2.145-2.183 5.923-3.078 1.724-.409 4.107-.321 6.578-.143 5.98.429 11.736 4.248 13.547 7.316h.012c.351.611.565 1.192.585 1.702.041 1.082-.444 1.94-1.316 2.623l.003-.004c-2.256 1.847-8.541 2.244-12.319 2.213-7.52-.063-9.724-2.969-9.724-2.969z" fill="url(#e)"/><path d="M88.256 84.111c-6.821-5.453-10.878-7.558-19.341-7.756 5.832-.553 11.102 1.27 14.204 3.22 1.451.912 4.137 3.662 5.137 4.536z" fill="#c27b55"/><path d="M73.998 93.782c3.778.031 10.063-.36 12.319-2.179-3.322 2.549-8.594 2.881-11.579 2.931-1.947.032-5.992-.08-7.732-.953-.844-.423-2.398-1.754-2.73-2.721-.001 0 2.203 2.861 9.722 2.922zM60.151 79.638c-2.637.1-4.002-.024-4.002-.024 1.445 1.008 1.701 1.207 2.362 2.363 1.348 2.355 3.097 4.895 3.097 4.895-.715-1.567-.636-2.11-.719-3.107-.071-.864 1.554-2.436 6.02-3.477 1.724-.402 4.107-.315 6.578-.141 5.98.423 11.736 4.183 13.547 7.204.27-.012.587-.017.693-.13.106-.114.056-.489-.021-.626-2.488-4.434-11.123-9.373-18.236-9-4.946.259-7.478 1.973-9.319 2.043z" fill="#d6f7f4"/><path d="M139.014 83.262c-.405-.904-2.145-2.183-5.923-3.078-1.724-.409-4.107-.321-6.578-.143-5.98.429-11.736 4.248-13.547 7.316h-.012c-.351.611-.565 1.192-.585 1.702-.041 1.082.444 1.94 1.316 2.623l-.003-.004c2.256 1.847 8.541 2.244 12.319 2.213 7.52-.063 9.723-2.969 9.723-2.969.938-1.243 2.008-2.639 2.695-4.086a6.082 6.082 0 00-.028.036c.715-1.591.636-2.143.719-3.156a2.128 2.128 0 00-.096-.454z" fill="url(#f)"/><path d="M133.949 89.5c-1.231 4.522-5.896 7.187-10.429 5.944-4.528-1.241-7.203-5.918-5.97-10.442 1.23-4.526 5.905-7.19 10.434-5.947 4.527 1.24 7.199 5.918 5.965 10.445z" fill="#ddb332" stroke="#af8400" stroke-width=".5"/><path d="M124.705 82.168l-.221-.395c-.776.308-1.524.631-2.232.973l.524 1.267-.066.732-2.021-1.189c-.66.367-1.273.75-1.867 1.14l.005.013-.692.78 1.107 1.132-1.492.811.563.931 2.633.262-2.468 1.673 2.641-.146-1.392 2.398 3.255-1.969-.875 3.349 1.883-3.093.363 3.319.544-2.936.5-.061.709 3.329.216-.998c.284-.074 1.018.997 1.297.922l-.829-3.621 1.817 3.621-.737-3.756 2.236 2.905c.08-.025.278-1.204.357-1.228l-1.392-2.081 2.53.763-1.518-1.643-1.219-1.009 5.083 1.137-2.83-1.723 2-.818-4.329-.437 4.281-2.27-3.875.988-1.043-.565-.256-.501.074-1.199.086-1.967-1.768 3.113-.156-2.279-.222-.597c-.354.124-.702.245-1.043.375l-.161.548z" fill="#ecc54d"/><path d="M134.046 85.487c-7.429.338-11.206 1.927-16.591 3.727-1.038-4.574 1.839-9.12 6.42-10.149 4.58-1.029 9.135 1.846 10.171 6.422z" fill="#cea21a" opacity=".9"/><path d="M126.979 84.415c-1.869-.536-3.777.532-4.259 2.395-.484 1.853.641 3.793 2.509 4.329 1.873.537 3.78-.532 4.266-2.386.484-1.864-.644-3.803-2.516-4.338z" opacity=".8"/><path d="M126.979 84.415c-1.869-.536-3.777.532-4.259 2.395-.484 1.853.641 3.793 2.509 4.329 1.873.537 3.78-.532 4.266-2.386.484-1.864-.644-3.803-2.516-4.338z" fill="none" stroke="#af8400" stroke-width=".75"/><path d="M119.555 92.294c.868 1.378 2.021 2.416 3.653 2.762 1.879.398 2.094-2.101.748-2.387-1.02-.215-1.667-.715-2.199-1.561-.975-1.548-2.985-.055-2.202 1.186z" fill="#fff" opacity=".5"/><path d="M126.461 83.449c1.316.265 2.082 1.087 2.747 2.323 1.222 2.272 4.676.252 3.453-2.019-1.073-1.995-2.86-3.703-5.138-4.162-2.915-.587-3.324 3.402-1.062 3.858z" fill="url(#g)" transform="translate(.75 .25)"/><path d="M126 62.999c-9.94 0-18 11.193-18 25.001 0 13.808 8.06 24.999 18 24.999S144 101.808 144 88c0-13.809-8.06-25.001-18-25.001zm9.725 27.923s-2.203 2.906-9.723 2.969c-3.778.031-10.063-.366-12.319-2.213l.003.004c-.872-.682-1.357-1.541-1.316-2.623.02-.509.234-1.09.585-1.702h.012c1.811-3.068 7.566-6.887 13.547-7.316 2.471-.178 4.854-.266 6.578.143 3.778.895 5.518 2.173 5.923 3.078.049.152.082.305.097.454-.083 1.013-.004 1.565-.719 3.156l.028-.036c-.689 1.447-1.758 2.843-2.696 4.086z" fill="#f0c7b1"/><path d="M124.045 70c-10.416-.043-18.875 6.635-18.902 14.92-.023 8.284 8.398 15.033 18.813 15.08 10.418.043 18.875-6.635 18.902-14.919.023-8.285-8.397-15.034-18.813-15.081zm14.375 16.836c-.688 1.447-1.757 2.843-2.695 4.086 0 0-2.203 2.906-9.723 2.969-3.778.031-10.063-.366-12.319-2.213l.003.004c-.872-.682-1.357-1.541-1.316-2.623.02-.509.234-1.09.585-1.702h.012c1.811-3.068 7.566-6.887 13.547-7.316 2.471-.178 4.854-.266 6.578.143 3.778.895 5.518 2.173 5.923 3.078.049.152.082.305.097.454-.083 1.013-.004 1.565-.719 3.156a.364.364 0 01.027-.036z" fill="url(#h)"/><path d="M135.725 90.922c.938-1.243 2.008-2.639 2.695-4.086a6.082 6.082 0 00-.028.036c.715-1.591.636-2.143.719-3.156a2.222 2.222 0 00-.097-.454c-.405-.904-2.145-2.183-5.923-3.078-1.724-.409-4.107-.321-6.578-.143-5.98.429-11.736 4.248-13.547 7.316h-.012c-.351.611-.565 1.192-.585 1.702-.041 1.082.444 1.94 1.316 2.623l-.003-.004c2.256 1.847 8.541 2.244 12.319 2.213 7.52-.063 9.724-2.969 9.724-2.969z" fill="url(#i)"/><path d="M111.744 84.111c6.821-5.453 10.878-7.558 19.341-7.756-5.832-.553-11.102 1.27-14.204 3.22-1.451.912-4.137 3.662-5.137 4.536z" fill="#c27b55"/><path d="M135.725 90.86c-.332.966-1.887 2.297-2.73 2.721-1.74.873-5.785.985-7.732.953-2.985-.049-8.257-.381-11.579-2.931 2.256 1.819 8.541 2.21 12.319 2.179 7.518-.061 9.722-2.922 9.722-2.922zm-5.196-13.266c-7.113-.373-15.748 4.565-18.236 9-.076.137-.127.512-.021.626.106.114.424.118.693.13 1.811-3.021 7.566-6.781 13.547-7.204 2.471-.174 4.854-.261 6.578.141 4.466 1.041 6.091 2.613 6.02 3.477-.083.997-.004 1.541-.719 3.107 0 0 1.749-2.54 3.097-4.895.661-1.156.917-1.355 2.362-2.363 0 0-1.365.124-4.002.024-1.84-.069-4.372-1.783-9.319-2.043z" fill="#d6f7f4"/><path d="M140.204 113.007c.035 22.275-17.995 40.365-40.273 40.396-22.274.036-40.361-17.993-40.396-40.272-.034-22.274 17.995-40.361 40.273-40.396 22.275-.034 40.363 17.995 40.396 40.272z" fill="url(#j)"/><path d="M135 55.999c0 19.329-15.671 35-35 35s-35-15.671-35-35 15.671-35 35-35 35 15.671 35 35z" fill="url(#k)"/><path d="M57.992 72.441c14.723-3.028 33.357 2.799 33.336-.649 0-.869-.892-1.128-1.755-1.194-14.881-1.265-21.274-2.175-31.581 1.843zm84.016 0c-4.028-.829-6.352-1.175-12.865-.904-7.413.219-20.486 2.799-20.471.254 0-.869.892-1.128 1.755-1.194 14.953-1.269 21.281-2.171 31.581 1.844z" fill="#ddbc9b"/><path d="M108.922 115.926c.172-.464.276-.95.358-1.437.03-.18-.207-.842-.228-.632-.092.854-.554 2.051-1.445 2.313-1.022.299-1.61-.05-1.703-1.063-.094-1.02.269-2.375-.099-3.323-.238-.613-.773-1.111-1.321-1.456.413 1.849.743 4.265-1.02 5.589.151.18.289.266.422.302a1.643 1.643 0 00-.422.118c-.697.317-3.238.92-3.978.596-.175-.077-.561-.139-1.047-.186-.326-.286-.924-1.031-1.203-1.204-1.098-.682-1.671-1.876-1.739-3.148-.147-2.679 1.239-5.664 4.39-6.829-3.231-.91-4.574 4.413-6.69 5.6-1.267.711-2.476 1.342-2.453 2.929.007.525.07 1.286.307 1.925-.38-.536-.631-1.021-.667-.594-.309 3.608 4.084 2.615 5.457 2.864 1.134.205 3.081.493 4.027.51 1.027.018 2.582-.342 3.596-.51.982-.165 2.696.033 3.957-.535.744-.336 1.812-.556 1.812-2.005l-.363.296c.017-.041.037-.079.052-.12z" fill="#e1ac8f"/><path d="M90.631 113.653c.136-.436.335-.872.66-1.201-.57.992-.649 2.412-.137 3.444.629 1.269 1.752 1 2.828.511s1.976-.851 3.094-.478c.87.29 1.569.722 2.526.72 1.023-.002 1.786-.428 2.736-.724 1.155-.345 2.129-.147 3.214.342 1.021.461 2.191 1.044 2.981-.106.698-1.04.623-2.648.015-3.709 1.364 1.398 1.034 5.385-1.576 4.882-.358-.073-.991-.512-1.311-.425-.577.157-1.305.006-1.889-.05-1.061-.103-1.982-.099-2.991.158-.387.09-.784.143-1.182.139-.474-.005-.954-.241-1.404-.214-1.265.077-2.516-.194-3.785-.112-1.081.069-1.945 1.023-3.018.159-.947-.796-1.092-2.209-.761-3.336.069-.222-.131.446 0 0zm10.448-7.856c.503.105.96.334 1.384.62-1.257-2.003-4.454-1.277-5.726.313 1.301-.694 2.853-1.265 4.342-.933.241.051-.481-.108 0 0z" fill="#c27b55"/><path d="M91.934 113.093c-1.776.928 1.459 5.222.898 1.789-.234-1.432.571-2.413-.898-1.789-.596.255.329-.172 0 0z" fill="#ffe4d6"/><path d="M57.629 133.691c-6.612-3.867-29.401-70.178-20.907-93.456 8.577-23.509 59.988-6.272 63.479-5.339 5.216 1.394 57.592-6.205 59.595-1.426 15.27 36.439-.262 64.927-15.002 99.421 10.664 14.58-5.301 16.382-4.299 15.942 1.534-.672 3.152-2.714 2.253-4.937-1.435-3.541-9.337-2.81-.948-16.064 5.208-8.226 6.732-19.776 6.704-22.499-1.836 2.651-4.881 6.507-7.36 8.521 2.591-5.767 3.497-14.369 3.957-19.014.236-2.495.911-.171-5.716-9.971-4.734-7.01-10.655-17.373-14.39-27.647-2.289 7.581-.315 17.827 1.54 25.841-18.055-11.912-26.62-35.292-28.39-38.325.165 8.301 4.133 20.484 7.891 29.271-9.71-8.269-18.747-16.72-22.333-29.279-4.13 15.52-1.364 35.925 6.667 55.27-19.49-19.372-15.099-43.574-14.334-49.603-3.372 4.796-18.619 26.506-14.329 53.511-.994-1.937-2.046-5.675-2.942-7.781-4.324-2.457-6.563-4.633-9.199-7.761-.53 17.986 2.282 21.945 4.545 31.428 2.186 9.158 10.366 12.117 10.875 12.883 1.083 1.632 1.007 3.749-.197 5.525-1.391 2.051-4.354 2.473-6.022 4.591-2.175 2.761-.206 4.587 1.102 6.041 1.686 1.875-10 0-2.24-15.143z" fill="#ddbc9b" opacity=".1"/><path d="M61.75 161.102c-2.981-2.862-6.501-7.189-6.797-11.334-3.167-1.262-4.874-3.618-4.569-6.304.455-4.001 3.883-5.615 5.786-10.632-6.844-4.002-11.052-10.324-13.432-17.465-19.063-18.333-17-55.181-8.208-79.279C43.406 11.752 69.174-6.6 94.468-6.6c4.017 0 7.888.49 11.502 1.456 5.399 1.443 1.841.187 9.986.187 14.863 0 29.215 6.956 37.447 18.154 3.812 5.183 6.447 10.941 8.521 15.889 7.763 18.525 9.767 32.241 7.654 52.414-2.904 27.719-11.465 32.103-12.689 34.706-2.408 5.098-5.998 10.588-10.273 14.284-.761.66-.814.695-.221 1.515 3.078 4.173 4.189 6.233 4.585 8.313 1.146 6.041-5.797 8.527-6.807 9.094l-.314.019c.824 8.229-.423 10.485-7.871 11.144 9.562-9.181-2.143-9.896 5.657-13.314 1.588-.694 3.564-1.559 2.633-3.86-1.484-3.663-9.665-2.908-.981-16.631 5.392-8.514 6.969-20.472 6.939-23.289-1.901 2.744-5.052 6.735-7.618 8.821 2.681-5.969 3.618-12.804 4.095-17.613.246-2.583.943-.177-5.915-10.322-4.902-7.256-11.029-16.949-14.896-27.585l-.979.136c-.603 7.955-.991 15.73.76 23.296C106.994 67.88 99.94 45.235 98.108 42.095c.17 8.593 2.145 19.269 6.034 28.366-10.051-8.559-16.24-14.763-19.953-27.764-4.275 16.066-3.942 33.111 4.371 53.136C68.388 75.779 75.511 54.06 76.302 47.82c-3.364 4.785-7.067 10.404-9.17 14.275-4.99 9.181-8.57 27.128-6.811 38.203a97.153 97.153 0 01-2.975-6.352c-4.477-2.544-6.793-4.797-9.523-8.034-.548 18.62 2.361 22.718 4.705 32.535 2.262 9.478 10.73 12.542 11.257 13.335 1.121 1.689 1.043 3.881-.204 5.72-1.44 2.123-4.506 2.562-6.233 4.752-2.252 2.858 1.259 4.932 2.613 6.438 1.745 1.94 1.19 3.583.656 5.17-.856 2.533-.577 3.45 1.133 7.24z" fill="#ddbc9b"/><path d="M161.924 29.085c-.062-.147-6.606-10.937-6.669-11.085 9.52 18.403 12.946 48.244 8.745 67 0-12 1.119-27.515-4.893-39.076 2.421 14.992 3.554 29.455-2.236 41.624.939-15.687.108-34.531-10.277-48.315 1.946 8.449 2.892 15.427 1.912 27.012-1.62-8.098-5.73-13.827-12.693-20.603C139.813 55.642 138 60 139 71c-4-13-10.329-25.513-5.104-40.418C125.896 36.582 122 44 122 54c-6-10-7.131-18.808-5-33-8.692 11.971-5.677 25.533-1.965 38.886C107.418 48.284 102.262 36.513 101 22c-1.688 7.597-5.508 13.772-7.862 20.925C91.393 34.602 91 25.831 91 18c-.822 7.396-5.691 13.442-9.067 20.356A51.774 51.774 0 0185 26c-12.479 9.805-17.909 25.266-23.878 39.821.901-12.124 7.522-24.509 13.645-35.085C61 37.958 52 55 49 71c-4-16-3.059-33.616 3.07-49C38.07 36 40 58 36 76c-4.214-20.229 2.938-39.748 9.482-58.556-20.211 23.94-25.154 76.372-2.745 97.923 2.38 7.141 6.588 13.463 13.432 17.465-1.903 5.017-5.331 6.631-5.786 10.632-.305 2.686 1.402 5.042 4.569 6.304.296 4.145 3.816 8.472 6.797 11.334-1.709-3.79-1.989-4.707-1.133-7.24.535-1.587 1.089-3.229-.656-5.17-1.436-1.597-6.407-4.529-.608-8.125.647-2.882 4.153-6.311.648-7.566-10.881-5.015-16.631-40.015-12.229-44.641.011-.79.026-1.599.051-2.447 2.73 3.237 5.046 5.49 9.523 8.034a97.397 97.397 0 002.975 6.352c-1.523-9.588-1.806-16.874-1.162-22.47 1.154-10.04 9.484-22.401 17.144-30.008-1.853 14.888 3.415 33.161 10.997 44.832-6.189-16.326-7.171-34.835-2.542-52.236.343 5.191 9.116 17.557 18.385 27.045-1.077-2.52-.993-2.165-1.779-4.849-2.051-7.006-4.08-15.606-3.255-22.517 4.636 10.154 12.939 23.72 27.574 40.116-2.043-8.826-1.298-19.285-.087-28.317.915 5.381 21.176 41.105 22.296 39.515-.477 4.809-2.594 14.921-5.274 20.89 5.702-4.636 6.839-8.812 9.164-12.299.092 4.507.827 7.33.305 11.733-1.546 13.021-9.388 19.206-9.808 22.38C141.971 136.438 147 144 145 145c-1.945 1.945-4.358 3.184-6.215 4.745-.045 2 4.079 4.224-2.798 10.827 7.448-.658 8.695-2.915 7.871-11.144l.314-.019c1.01-.566 7.952-3.053 6.807-9.094-.396-2.079-1.507-4.14-4.585-8.313-.594-.819-.54-.854.221-1.515 4.275-3.696 7.865-9.187 10.273-14.284 1.225-2.604 9.785-6.987 12.689-34.706 2.113-20.17.11-33.886-7.653-52.412z" fill="#cea57c"/><path d="M116.331 15.911c27.883 5.279 38.779 28.461 38.74 56.792.282 3.033.108-47.454-38.74-56.792zM55.224 39.538c11.383-17.409 19.6-25.868 42.357-33.47-19.105 3.911-35.48 14.97-42.357 33.47zm60.231 21.895c1.223 1.665 1.982 2.651 1.837 2.452-8.13-12.431-12.066-37.167-6.56-50.214-7.004 13.72-3.298 34.038 4.723 47.762z" fill="#be8f5f"/><path d="M55.277 28.081C58.86 11.696 75.536 7.805 82.56 5.426c1-.311-22.404 6.052-27.283 22.655zM85.206-.777C79.816.898 65.448 3.824 60.107 14.188 65.867 4.612 87.224-1.345 85.206-.777zM48.44 66.409c2.135-12.675 6.822-27.444 17.719-34.26-16.886 8.726-17.96 35.26-17.719 34.26zm37.463-44.456c-1.513 1.412-8.565 3.983-12.548 15.405 4.6-9.922 13.548-16.159 12.548-15.405zm11.353 3.735c2.316-4.29 3.218-13.392 3.048-12.391-3.959 15.553-5.708 13.756-7.069 20.74 1.088-3.755 2.531-5.472 4.021-8.349zm10.357 13.632c-.023-.065-4.192-18.694-4.409-22.083-.372 9.836 4.666 23.083 4.409 22.083zm-7.415-29.695C82.971 14.02 78.703 19.02 71.132 27.032c9.904-8.704 18.596-14.071 29.066-17.407zm42.775.692c1.316.855 2.118 1.371 1.963 1.264C131.648 1.616 124.671-.495 107.07 3c14.569-1.913 23.371-.561 35.903 7.317zm5.208 18.84c-3.91-8.005-15.645-17.562-37.848-21.723 14.172 3.787 28.965 10.191 37.848 21.723zm-26.873 12.291a426.675 426.675 0 00-.208 4.025c2.366-15.428 3.443-14.75 6.214-17.704-4.751 3.386-5.727 7.914-6.006 13.679zm22.498 8.703c.316 2.253.466 4.354.465 4.164-.37-3.783 1.774-12.464-6.8-18.022 3.998 2.814 5.472 7.305 6.335 13.858zm4.447 51.129c.352-1.571 8.625-12.909 2.194-33.467 4.873 20.322-2.615 34.467-2.194 33.467zM33.111 86.875c.239 8.471 3.932 14.917 3.452 13.826-3.363-8.695-2.721-16.015-3.531-24.3.082 4.36-.032 8.352.079 10.474zm14.235 31.557c1.779 4.057 5.413 8.021 4.629 7.032-2.057-4.475-8.883-9.73-8.056-34.409-.023-1.896-.091-3.388-.115-4.061-.348 9.881-2.721 16.964 3.542 31.438zm104.472-.799c2.697-4.391 2.674-7.602 3.082-9.792.174-1 .752-9.81 1.549-11.164-2.245 4.041-1.724 17.068-4.631 20.956zm-4.846 27.395c.033-.082.514-.981.839-2.011 1.17-3.478-.008-6.069-1.493-6.983 3.435 3.245.119 10.105.654 8.994zm-92.295 1.392c.651 1.356 1.38 2.517 1.323 2.407-.06-.105-.626-1.371-1.083-2.734-2.345-6.632.589-8.037 1.549-9.037-3.596 2.343-3.684 5.551-1.789 9.364zM50.68 44.15c1.049-3.877 1.082-13.003 12.174-22.999C49.391 31.723 50.591 45.15 50.68 44.15zm-4.841 27.522c2.536 7.313 5.401 12.11 5.041 11.381-4.983-11.22-6.331-20.062-7.061-32.261-.088 6.848-.05 14.276 2.02 20.88z" fill="#ecd5bd"/><path d="M162.39 28.89c-2.34-5.58-4.981-11.101-8.579-15.993-9.956-13.54-27.921-19.924-43.237-18.034-2.844.351-.772.494-4.474-.495-25.911-6.924-60.966 11.171-72.045 41.547-8.02 21.979-11.963 60.397 8.243 79.732 2.147 6.442 7.023 13.698 13.569 17.234-1.386 3.654-5.504 6.291-5.985 10.522-.367 3.22 1.829 5.617 4.884 6.832 0 0-.207 5.388 8.204 12.659-.676-2.535-2.872-5.17-2.181-7.887.454-1.786 1.905-4.034-.453-6.654-1.434-1.598-4.527-3.329-2.592-5.787 1.648-2.09 4.725-2.523 6.255-4.782 1.291-1.9 1.447-4.288.206-6.281-1.002-1.609-4.499-2.601-7.917-6.589-3.229-5.582-4.885-13.804-4.827-13.553-1.069-4.619-3.577-10.359-3.171-24.114 2.413 2.865 5.402 5.2 8.659 7.052 1.488 3.492 3.236 6.972 4.759 9.608-3.563-10.35.415-31.537 5.869-41.572 2.38-4.382 5.115-8.56 7.982-12.638-4.456 17.954-.244 34.771 14.438 48.198-8.866-20.063-9.707-38.563-5.789-53.299 4.031 14.112 15.203 22.396 21.296 27.69-4.063-8.899-6.776-18.665-6.971-28.479 5.402 14.943 15.374 29.721 27.947 37.51-2.1-7.947-1.667-16.252-1.053-24.368 3.575 9.837 9.111 19.053 14.951 27.695 6.811 10.073 6.06 7.634 5.83 9.988-.645 6.535-1.892 13.59-4.99 19.363a35.362 35.362 0 008.537-8.677c-.508 3.692-2.669 13.719-4.604 17.366-3.176 5.99-9.864 12.83-4.158 18.1.903.834 2.336 1.615 2.815 2.8 1.538 3.796-6.441 2.563-5.353 7.087.514 2.117 3.698 3.725-3.864 10.504 9.149-.515 10.656-2.949 9.769-11.801 5.477-1.64 7.765-5.732 7.115-9.155-.589-3.118-2.894-5.619-4.953-8.411-.603-.819-.697-.259 1.308-2.167 6.722-6.366 9.543-13.409 9.686-13.564 5.021-5.484 10.325-13.163 12.564-34.528 2.223-21.208-.365-35.183-7.69-52.659zm-3.816 83.878c1.661-5.271 2.03-10.921 2.794-16.366.896-6.387 1.843-10.166.44-17.234.565 5.189-.134 10.053-1.259 15.117-3.18 14.343-4.411 29.346-18.271 39.829a37.835 37.835 0 003.567-2.707c2 3.382 5.05 7.096 4.246 11.309-1.061 5.587-7.55 6.776-8.561 7.25.642-.309 1.411-.166 2.081-.385-.058 6.452-.738 9.236-6.829 10.548 7.247-6.441 2.124-8.645 3.333-10.931.601-.869 2.277-.854 3.177-1.268 2.404-1.096 3.169-4.17 1.593-6.247-.65-.857-1.505-1.529-2.274-2.273-5.171-4.993 3.805-12.551 5.271-19.341 4.563-21.111 1.171-13.085 4.276-18.594 11.841-20.99 13.175-45.767.97-72.153-5.279-11.41-10.628-14.715-20.317-20.93 4.786 3.485 9.736 6.784 13.518 11.421 7.229 8.865 11.533 28.412 12.177 33.916 2.722 23.318-4.577 45.709-13.428 55.394 6.54-16.273 5.033-42.682-8.518-62.19 8.791 14.386 11.366 31.02 9.932 44.338-.675-1.027-21.199-33.052-20.847-36.851.714-7.752 2.072-15.83 6.944-21.854-5.18 5.642-6.914 13.307-7.919 20.692-1.357 9.937-2.328 16.275.059 25.525-8.288-6.677-20.146-21.677-26.207-37.479.051-4.832.538-9.673 1.203-14.477-3.002 15.009-3.305 27.538 2.606 40.984-26.581-28.434-15.647-19.905-11.77-48.57-3.842 19.629-19.459 40.447-4.022 73.432-19.058-24.849-8.68-49.005-3.536-64.129-9.467 22.398-4.172 15.077-9.085 21.599-2.896 3.842-5.744 7.767-8.241 11.911-5.444 9.521-7.562 24.729-5.84 35.559C47.935 69.202 54.137 54.737 73.941 31c-26.047 27.183-25.675 42.21-17.62 61.786-21.693-14.969-19.012-57.08-.556-74.949-13.788 11.945-18.728 34.762-16.603 48.841 1.638 10.852 8.192 19.83 8.192 19.83-1.28 14.277 1.008 19.091 2.357 25.23.493 2.243 1.729 6.635 2.379 8.874 1.766 6.076 8.313 10.572 9.051 11.04 8.5 5.389-8.639 7.313-4.613 14.558 1.521 2.735 4.081 2.396 3.302 6.821-.301 1.711-.717 3.248-.094 4.936-1.451-1.892-4.611-5.343-4.459-8.239-8.529-7.013-.6-10.765.983-16.634 1.566.837 3.204 1.54 4.87 2.153-9.07-4.363-14.533-8.839-18.78-24.976-2.253-8.563-2.969-26.577-2.76-35.943-.838 10.653-1.098 30.079 2.091 39.621-16.431-17.284-13.2-48.36-6.951-71.432C44.655 5.873 82.039-11.93 107.514-4.642 101.25-3.344 97.435-1.283 92.32 2.602 108.736-8.911 128.94-5.2 142.166 4.05c27.444 19.184 33.252 86.083 16.408 108.718z" fill="#af7b46"/><path d="M91.69 89.23c-3.71 7.46-14.12 8.15-17.78 8.15H61.79c-5.75 0-10.86-7.99-10.86-14.29v-6.16c0-.23.11-.46.29-.7l40.47 13zm18.68-12.58c-2.07 1.43-3.39 3.35-3.39 5.92v.5c0 2.44.5 4.47 1.34 6.15 3.71 7.46 14.12 8.15 17.78 8.15h12.12c4.09 0 7.85-4.05 9.68-8.66l-37.53-12.06z" fill="#fff" opacity=".2"/><path d="M91.69 89.23L51.21 76.22c.99-1.32 4.4-2.7 6.15-2.91 2.18-.26 6.63-.69 11.94-.69 8.86 0 23.72 1.29 23.72 9.96v.5c0 2.44-.5 4.47-1.33 6.15zm57.38-6.15v-6.16c0-.23-.11-.46-.29-.7-.99-1.32-4.4-2.7-6.15-2.91-2.18-.26-6.63-.69-11.94-.69-6.23 0-15.41.64-20.33 4.03l37.53 12.06c.75-1.86 1.18-3.81 1.18-5.63z" fill="#fff" opacity=".4"/><path d="M149.73 78.68v-1.76c0-2.1-4.9-3.99-7.01-4.25-9.42-1.12-31.52-2.02-35.7 6.76-2.78-.92-5.88-1.28-7.02-1.29-1.14.01-4.24.37-7.02 1.29-4.17-8.77-26.27-7.88-35.7-6.76-2.11.25-7.01 2.14-7.01 4.25v1.76H45.5v2.36h4.77v2.04c0 6.3 5.15 14.94 11.51 14.94H73.9c8.33 0 19.76-3.13 19.76-14.94v-.5c0-.76-.1-1.46-.29-2.12 3.46-1.07 5.55-1.29 6.62-1.31 1.07.01 3.16.24 6.62 1.31-.19.66-.29 1.36-.29 2.12v.5c0 11.81 11.44 14.94 19.76 14.94h12.12c6.36 0 11.51-8.64 11.51-14.94v-2.04h4.77v-2.36h-4.75zm-56.87 4.4c0 13.11-14.5 14.13-18.95 14.13H61.79c-5.66 0-10.7-7.9-10.7-14.13v-6.16c0-1.31 4.09-3.18 6.29-3.44 2.17-.26 6.62-.69 11.92-.69 8.8 0 23.55 1.27 23.55 9.79v.5zm56.05 0c0 6.23-5.04 14.13-10.7 14.13h-12.12c-4.45 0-18.95-1.02-18.95-14.13v-.5c0-8.52 14.76-9.79 23.55-9.79 5.31 0 9.75.43 11.92.69 2.2.26 6.3 2.13 6.3 3.44v6.16z" fill="#153a4d"/></svg>