<svg xmlns="http://www.w3.org/2000/svg" width="500" height="500" viewBox="0 0 200 200" overflow="hidden"><defs><radialGradient id="i" cx="100" cy="114" r="41" gradientUnits="userSpaceOnUse" class="svga-on-canvas-facehighlight-gradient-single-0"><stop stop-opacity=".5" stop-color="#f8d3b8" offset="0"/><stop stop-opacity="0" stop-color="#e9b995" offset=".9"/></radialGradient><radialGradient id="j" cx="100" cy="54" r="37" gradientUnits="userSpaceOnUse" class="svga-on-canvas-facehighlight-gradient-single-1"><stop stop-opacity=".5" stop-color="#f8d3b8" offset="0"/><stop stop-opacity="0" stop-color="#e9b995" offset=".9"/></radialGradient><radialGradient id="c" cx="126.287" cy="86.14" r="10.479" gradientTransform="matrix(-1 0 0 1 200 0)" gradientUnits="userSpaceOnUse" class="svga-on-canvas-eyesback-gradient-left-0"><stop stop-color="#fff" offset="0"/><stop stop-color="#fdfefe" offset=".544"/><stop stop-color="#f6f8f9" offset=".74"/><stop stop-color="#eaeff2" offset=".879"/><stop stop-color="#d9e3e8" offset=".992"/><stop stop-color="#d8e2e7" offset="1"/></radialGradient><radialGradient id="f" cx="125.888" cy="86.14" r="10.479" gradientUnits="userSpaceOnUse" class="svga-on-canvas-eyesback-gradient-right-0"><stop stop-color="#fff" offset="0"/><stop stop-color="#fdfefe" offset=".544"/><stop stop-color="#f6f8f9" offset=".74"/><stop stop-color="#eaeff2" offset=".879"/><stop stop-color="#d9e3e8" offset=".992"/><stop stop-color="#d8e2e7" offset="1"/></radialGradient><radialGradient id="d" cx="123.715" cy="85.489" fx="135.434" fy="85.522" r="16.667" gradientTransform="matrix(.9998 .0208 .0166 -.7998 -48.826 151.29)" gradientUnits="userSpaceOnUse" class="svga-on-canvas-eyesfront-gradient-left-3"><stop stop-color="#daa075" offset="0"/><stop stop-opacity=".3" stop-color="#daa075" offset=".7"/><stop stop-opacity="0" stop-color="#e9b995" offset="1"/></radialGradient><radialGradient id="e" cx="122.897" cy="100.745" r="25.967" gradientTransform="matrix(-.9135 -.4067 -.2806 .6303 217.649 87.227)" gradientUnits="userSpaceOnUse" class="svga-on-canvas-eyesfront-gradient-left-4"><stop stop-opacity="0" offset=".95"/><stop stop-opacity=".2" offset="1"/></radialGradient><radialGradient id="g" cx="123.315" cy="85.489" fx="135.034" fy="85.522" r="16.667" gradientTransform="matrix(-.9998 .0208 -.0166 -.7998 248.027 151.299)" gradientUnits="userSpaceOnUse" class="svga-on-canvas-eyesfront-gradient-right-3"><stop stop-color="#daa075" offset="0"/><stop stop-opacity=".3" stop-color="#daa075" offset=".7"/><stop stop-opacity="0" stop-color="#e9b995" offset="1"/></radialGradient><radialGradient id="h" cx="122.497" cy="100.745" r="25.967" gradientTransform="matrix(.9135 -.4067 .2806 .6303 -17.683 87.065)" gradientUnits="userSpaceOnUse" class="svga-on-canvas-eyesfront-gradient-right-4"><stop stop-opacity="0" offset=".95"/><stop stop-opacity=".2" offset="1"/></radialGradient><linearGradient id="b" x1="100" y1="142" x2="100" y2="139" gradientUnits="userSpaceOnUse" class="svga-on-canvas-mouth-gradient-single-0"><stop stop-color="#e1ac85" offset=".1"/><stop stop-color="#daa075" offset="1"/></linearGradient><linearGradient id="a" x1="100" y1="173" x2="100" y2="134" gradientUnits="userSpaceOnUse" class="svga-on-canvas-chinshadow-gradient-single-0"><stop stop-opacity=".8" stop-color="#daa075" offset="0"/><stop stop-color="#bb7440" offset=".7"/></linearGradient></defs><path d="M225 225H-25V-25h250v250z" fill="#594f4f"/><path d="M225 66.045V46.523c-8.393-7.17-16.444-14.676-24.006-22.532C206.423 16.09 215.705 4.264 225 .533v-16.039c-3.896 1.01-7.948 3.157-10.891 4.849-9.592 5.514-16.968 14.41-23.396 23.297C180.981 1.161 172.431-11.375 166.43-25h-16.256c7.101 18.589 18.696 35.418 31.924 50.498-3.762 6.007-7.353 12.13-11.097 18.132-6.771 10.854-13.008 21.979-18.061 33.713-1.74-.122-3.482-.236-5.227-.348-.102-11.296-1.301-22.637-2.591-33.427-2.758-23.073-7.297-45.836-11.994-68.568h-15.287c3.512 16.925 6.991 33.854 9.757 50.925 2.627 16.216 5.104 33.229 5.117 49.989-17.066-1.536-33.684-4.704-47.991-15.619-22.846-17.429-21.9-26.78-25.009-40.538C68.462 4.662 80.021-9.181 83.404-25H67.848C65.56-17.579 61.103-10.434 57.28-4.268c-1.766 2.849-3.54 5.708-5.319 8.565C41.416-4.602 16.985-1.963 3.134-5.856c-8.089-2.274-17.358-7.185-25.183-11.213A185.55 185.55 0 01-25-18.619v16.811c7.296 3.502 14.678 6.469 20.881 9.151 12.571 5.436 27.6 2.613 42.814 7.009 2.774.801 3.976 1.791 4.725 3.446-5.892 9.124-12.53 15.882-24.782 18.239C6.717 38.331-9.568 36.45-25 35.374V50.51c14.17.911 30.442 2.151 42.378.754 12.875-1.506 23.256-6.821 30.822-14.903 3.926 13.052 9.926 23.987 32.905 39.741 15.079 10.337 32.932 13.381 50.891 14.876-2.058 20.178-10.428 37.32-32.693 54.405-10.407 7.985-21.317 14.728-34.237 24.035a285.45 285.45 0 00-6.204-1.832c-14.62-4.125-46.417-6.59-53.1-6.965 8.508-6.75 17.07-13.123 22.152-23.144 11.073-21.834.773-48.529-17.324-59.654-8.379-5.15-22.056-8.642-35.59-13v15.465c6.097 2.013 12.208 3.99 18.242 6.175 3.371 1.221 7.316 2.72 10.326 4.67-1.389-.644 14.647 9.087 13.954 28.72-.661 18.694-21.119 26.841-34.167 41.017a88.977 88.977 0 00-8.354 1.198V225h8.315c-2.877-17.495-2.37-34.53 8.331-50.064 8.69-.111 43.984 2.377 59.317 6.059C37.81 193.899 34.342 209.025 34.122 225H48.77c.262-8.053 1.59-15.874 5.038-23.062 3.074-6.407 8.375-11.441 14.043-15.887 6.325 2.192 12.58 4.603 18.827 6.916 21.501 7.963 39.663-16.236 68.072-27.625.472-.189.954-.367 1.429-.554 10.135 21.642 24.926 41.005 40.126 60.211H215.3c-16.396-20.788-33.895-42.817-44.951-65.021 25.817-7.328 33.013-2.973 40.158 3.964 5.458 5.298 10.602 12.362 14.493 20.076v-26.446a93.01 93.01 0 00-3.028-3.367c-7.024-7.418-15.717-12.491-26.009-13.126-10.466-.645-21.483 2.115-31.569 5.142-7.333-20.176-7.046-36.563-1.767-53.077 15.35 1.577 40.417 6.625 48.157 20.097 5.229 9.103 8.712 18.285 14.216 28.972v-34.389c-1.05-1.908-2.147-3.734-3.344-5.472-10.035-14.583-35.667-21.38-53.283-23.575 5.96-12.576 12.812-22.861 24.354-41.835C202.896 47.331 213.716 56.986 225 66.045zM147.094 92l.459.028c-.258.887-.503 1.777-.737 2.671.108-.897.19-1.798.278-2.699zm-37.575 81.981c-4.553 2.729-9.252 6.184-14.766 5.801-3.813-.264-8.413-2.824-12.214-4.384 23.267-16.107 52.827-33.469 61.801-67.581-1.749 15.194.747 28.782 6.11 43.354-14.534 6.134-26.056 13.894-40.931 22.81z" fill="#4a3a3a"/><path d="M100.5 100.5h-1v-1h1v1z" fill="#2a232b"/><path d="M195.417 199.778c-2.196-4.746-8.195-11.779-14.86-13.722-8.239-2.403-26.837-5.308-33.733-6.923-5.528-1.296-16.662-11.294-20.564-14.65-.7-.6-1.273-1.839-1.287-2.76-.139-10.864 4.195-39.724 4.195-39.724H70.833s4.334 28.859 4.193 39.724c-.011.921-.587 2.16-1.285 2.76-3.902 3.356-15.036 13.354-20.564 14.65-6.897 1.615-25.495 4.619-33.733 7.022-6.667 1.942-12.664 8.876-14.86 13.622-3.708 8.008-4.584 22.5-4.584 35h200c0-12.499-.877-26.991-4.583-34.999z" fill="#e9b995"/><path d="M159.156 184.058c24.342 3.542 34.586 8.708 37.794 50.721H200c0-12.5-.877-26.992-4.583-35-2.196-4.746-8.195-11.779-14.86-13.722-8.239-2.403-26.837-5.308-33.733-6.923-5.528-1.296-18.242-12.069-21.643-16.35 3.36 4.704 12.791 15.605 21.054 18.46 3.953 1.366 7.245 1.988 12.921 2.814zm-105.39-2.814c8.263-2.854 17.693-13.756 21.054-18.46-3.4 4.28-16.114 15.054-21.643 16.35-6.896 1.615-25.494 4.619-33.733 7.022-6.665 1.942-12.664 8.876-14.86 13.622-3.706 8.008-4.583 22.5-4.583 35h3.05c3.188-41.744 13.475-47.183 37.794-50.721 5.675-.825 8.968-1.447 12.921-2.813z" fill="#f8d3b8"/><path d="M95.646 197.62s-5.074-1.609-7.083-2.379c-10.449-4.009-44.395-6.607-44.395-6.607s35.754 1.419 43.644 2.779c-.458-4.767-3.017-20.004-3.017-20.004s5.149 16.815 6.409 21.057c.674 2.268 4.442 5.154 4.442 5.154zm10.799-1.342c-.089.073-.191.168-.302.268.113-.085.215-.174.302-.268zm-10.799 1.342s2.893 2.992 4.347 3.03c1.91.051 4.828-2.899 6.151-4.104-1.265.957-4.159 1.391-5.31 1.436-1.33.051-5.188-.362-5.188-.362zm21.018-7.519c-1.545.248-4.386.789-4.386.789l2.287-14.89c-.646 3.071-4.474 16.211-8.12 20.278 1.91-1.616 6.158-2.391 8.324-2.704 10.236-1.484 10.232-1.483 41.062-4.94 0 0-29.071-.155-39.167 1.467z" fill="#daa075"/><path d="M195.417 199.778c-2.196-4.746-8.195-11.779-14.86-13.722-8.239-2.403-26.837-5.308-33.733-6.923-5.528-1.296-16.662-11.294-20.564-14.65-.7-.6-1.273-1.839-1.287-2.76-.139-10.864 4.195-39.724 4.195-39.724H70.833s4.334 28.859 4.193 39.724c-.011.921-.587 2.16-1.285 2.76-3.902 3.356-15.036 13.354-20.564 14.65-6.897 1.615-25.495 4.619-33.733 7.022-6.667 1.942-12.664 8.876-14.86 13.622-3.708 8.008-4.584 22.5-4.584 35h200c0-12.499-.877-26.991-4.583-34.999z" fill="none" stroke="#bb7440" stroke-width="1.5"/><path d="M104.195 172.932c4.251-2.437 12.243-7.528 20.043-13.21.164-6.313 1.287-16.273 2.33-24.397-15.295-1.845-37.566-1.875-53.149-.101 1.065 8.292 2.218 18.521 2.347 24.837 7.892 5.542 15.885 10.48 20.046 12.87 1.757 1.008 6.626 1.008 8.383.001z" fill="url(#a)"/><path d="M-5.95 234.616c-.097-1.305.096-7.32.182-9.162 1.676-34.52 9.815-34.842 45.602-46.602 17.162-5.637 21.952-7.468 28.06-21.871 1.732-4.086 3.229-7.618 6.451-8.872 16.41 10.047 30.559 9.724 50.891 1.363 3.773.586 4.934 5.929 5.811 9.79 5.64 23.845 40.362 18.461 55.969 28.298 16.196 8.864 16.935 38.516 16.775 47.393a.634.634 0 01.007.065c-21.07.996-183.485 1.474-209.748-.402z" fill="#4b2824"/><path d="M182.492 222.599c.909-12.229 1.182-21.815 4.462-33.152-4.75 17.574 1.584 31.396-7.798 41.009 1.177-3.142 3.046-3.955 3.336-7.857zM18.51 206.248c-1.726-4.69-3.941-10.92-4.77-18.307-.301.161-.422-.745-.714-.586 1.192 13.22 5.083 20.817 6.268 40.019-.187-6.88.863-16.648-.784-21.126zm104.601-55.666c-.624.172-1.25.928-1.879 1.073 8.78 8.904 3.019 12.265 15.854 27.903.357-.199 1.519-.911 2.917-1.814-8.456-5.313-10.357-18.51-16.892-27.162zm4.873 28.267c.48 1.599 1.182 2.956 1.996 4.292-.49.207-.975.433-1.471.623-2.536-3.662-4.971-7.31-6.589-14.88-1.671-7.814-.948-6.651-6.375-15.19.343-.058 1.023-.493 1.554-.587 5.135 7.898 7.246 16.648 10.885 25.742zm8.286 1.197c-.518.298-1.04.58-1.564.862-7.207-8.34-10.05-18.66-14.846-28.339.329-.071.974-.979 1.275-1.044 4.255 5.021 4.237 7.511 5.529 11.985 1.684 5.603 6.261 12.825 9.606 16.536zm-24.157-24.995c3.854 11.032 6.377 19.741 7.078 31.438-.504.103-1.006.203-1.511.289-.698-6.112-1.601-12.464-1.867-13.927-1.064-5.854-2.984-13.68-4.724-17.654.344-.043.682-.097 1.024-.146zm15.463 29.069a48.94 48.94 0 01-1.799.618c-6.32-8.721-6.205-20.123-11.174-31.226.194-.03.499-.051.693-.08 5.517 10.376 3.757 7.383 6.258 17.906 1.309 5.501 4.017 10.447 6.022 12.782zm-10.851 2.812c-.396.063-.801.106-1.202.158-1.437-11.685-2.015-20.899-5.835-31.754.268-.024.536-.04.802-.066 3.458 9.43 4.864 22.804 6.235 31.662zm-26.219-31.475C87 166.149 86.255 174.5 85.584 185.779c-.396-.076-.796-.149-1.187-.229.301-9.598 1.511-21.52 5.259-30.177.284.031.567.053.85.084zm-16.841 26.841c-.45-.18-.903-.353-1.352-.55 5.427-7.417 7.915-19.667 8.576-29.212.356.099.712.182 1.067.271.256 11.258-3.435 19.884-8.291 29.491zm15.445-26.985c-4.297 8.516-5.687 20.342-5.506 30.059-.343-.077-.664-.163-.999-.241-.362-11.391.919-20.313 5.481-30.088.344.043.676.233 1.024.27zm-25.345 22.356c-.565-.305-1.131-.608-1.691-.924 3.012-2.229 6.067-5.612 8.114-9.492 1.842-3.49 6.022-13.854 6.88-17.206.288.127.583.226.875.336-2.214 10.752-6.94 20.55-14.178 27.286zm7.882 3.806c-.6-.258-1.188-.543-1.782-.813 5.091-9.12 7.394-19.314 8.429-30.16.66.242 1.321 1.667 1.983 1.856-1.523 10.415-3.13 20.37-8.63 29.117zm5.066-31.572c-.697 2.172-1.653 4.229-2.629 6.328-2.326 5.216-4.664 13.816-12.697 20.111a98.232 98.232 0 01-1.736-1.018c7.396-6.788 11.247-16.835 15.192-26.102.602.255 1.227.397 1.87.681z" fill="#3c1a17"/><path d="M57.333 175.454l-2.069-1.538c-22.055 9.523-41.926 2.852-56.539 29.547-3.991 7.288-4.545 18.273-4.545 31.377 7.189-56.45 23.935-38.212 63.153-59.386zm139.377 31.637c5.439 11.127 4.946 21.213 7.122 27.749 0-13.104-2.448-23.057-5.272-30.988-8.032-22.559-35.624-20.007-53.664-27.794l-2.069 1.536c21.896 13.308 41.187 3.521 53.883 29.497z" fill="#5a3834"/><path d="M187.067 187.455c-13.433-10.616-50.315-4.529-55.917-28.223-.701-3.026-1.827-9.248-5.936-9.876-.202.047-.816-.155-.815-.155-16.182 7.008-33.106 9.09-50.09-1.202-7.632 2.969-5.548 18.164-19.974 25.281-6.29 3.161-14.488 3.445-26.402 7.406-29.668 9.339-33.597 21.576-33.808 44.76-.078 1.682-.293 8.174-.172 9.284 29.106 2.102 194.721 1.151 209.945.402a.484.484 0 000-.178c.307-17.183-1.719-38.371-16.831-47.499zm-61.445-37.409c7.731 2.875-.892 16.031 17.001 25.962-2.362 1.614-4.969 3.234-5.537 3.551-12.835-15.639-6.916-17.92-15.212-27.548 1.538-.772 2.311-1.466 3.748-1.965zm-4.166 2.069c4.254 5.024 3.916 6.921 5.208 11.396 1.684 5.603 6.261 12.824 9.605 16.535a55.745 55.745 0 01-7.76 3.718c-2.536-3.662-4.731-7.344-6.481-14.88-1.543-6.639-1.004-7.17-6.162-15.076 1.073-.168 3.899-1.304 5.59-1.693zm-6.052 1.791c5.516 10.378 3.649 6.909 6.15 17.433 1.309 5.5 4.017 10.446 6.021 12.781a55.784 55.784 0 01-9.896 2.657c-.698-6.112-1.518-12.459-1.76-13.927-1.073-6.498-3.092-13.68-4.831-17.654 1.376-.156 2.954-1.064 4.316-1.29zm-4.915 1.364c3.459 9.431 4.864 22.805 6.235 31.662-3.158.499-6.508.68-9.638.68-.001-.03-2.036-18.832-2.834-31.169 2.178-.36 4.466-.632 6.237-1.173zm-6.772 1.198c.053 13.91 1.025 17.525 2.586 31.154-3.744.013-7.48-.178-11.226-.536 2.538-23.363 3.81-30.534 3.81-30.534 1.979 0 3.772-.047 4.83-.084zm-5.495.084c-2.98 18.285-3.49 22.712-3.842 30.464-3.423-.319-6.789-.796-9.981-1.466.301-9.598 1.511-21.52 5.259-30.177 2.843.324 5.709 1.167 8.564 1.179zm-9.112-1.239c-4.297 8.516-5.687 20.342-5.506 30.059a61.568 61.568 0 01-11.291-3.623c5.427-7.417 7.915-19.667 8.576-29.212 2.707.734 5.57 2.126 8.221 2.776zm-8.833-2.955c-1.523 10.415-3.13 20.369-8.629 29.116a98.181 98.181 0 01-9.574-4.729c3.012-2.229 6.067-5.612 8.114-9.492 1.842-3.49 5.915-13.619 6.772-16.967 1.052.453 2.244 1.763 3.317 2.072zm-6.183-3.527c.827.561 1.599.903 2.511 1.312-.697 2.168-1.545 3.99-2.521 6.089-2.326 5.216-4.664 13.816-12.697 20.111a89.081 89.081 0 01-4.422-2.682c12.428-7.433 10.328-21.405 17.129-24.83zm-79.669 85.601c.146-4.763 1.287-20.803 3.861-28.177 3.32-9.512 8.278-13.597 14.589-17.326-.432 11.225 4.791 15.313 5.13 28.729.096 4.063.601 8.052 1.213 12.056-.28-4.207-.397-8.378-.376-12.595.062-12.207-4.884-17.006-4.884-28.632 13.355-7.608 35.654-10.696 41.794-14.135 14.15 10.354 27.314 15.818 50.819 15.665 17.036 0 26.96-4.89 37.458-13.234 14.42 6.477 31.095 4.024 42.352 12.997-1.776 5.867-2.995 8.928-3.326 12.126-.768 7.53.372 12.885-.602 19.802-.569 4.015-3.35 6.969-4.101 10.913 2.186-7.389 6.127-4.682 5.646-22.101-.276-9.824.51-10.079 2.982-20.337 12.328 8.578 15.5 28.732 16.197 44.771-35.671-.259-194.686-.192-208.752-.522z" fill="#1d0805"/><path d="M47.001 83.231c-1.376-2.453-5.638-8.48-9.98-7.003-2.749.935-3.293 3.993-3.735 6.693-.588 3.591.471 10.694 1.389 13.26.881 2.467 3.533 7.23 5.264 9.045 2.13 2.225 4.775 9.324 5.194 10.061.66 1.162 1.536 2.911 4.122 2.692 2.853-.244 4.584-1.85 5.856-2.121 3.142-.666-4.529-26.242-8.11-32.627z" fill="#e9b995" stroke="#bb7440" stroke-width="1.5"/><path d="M44.197 98.104c-.132-.581.007-1.56.142-2.504.124-.861.24-1.675.169-2.251-.267-2.154-1.773-6.249-2.757-8.467-1.132-2.554-2.963-5.77-5.262-6.599-.95-.343-1.575.067-1.938.484-.266.305-.325.665-.238.707.086.042.285-.254.572-.535a1.3 1.3 0 011.051-.385c-.19 1.073-1.167 6.883-.744 10.845.333 3.115 1.593 5.442 1.79 5.791.029.367.077.726.148 1.075.929 4.547 4.971 9.717 6.378 11.409.259.313.531.497.598.423.066-.076-.094-.387-.353-.7-1.388-1.679-5.391-6.831-6.289-11.218-.952-4.656 2.318-11.556 3.048-13.017.371.685.687 1.344.93 1.893.19.431.402.936.619 1.479-.429.762-3.434 6.32-2.338 10.767.406 1.641 2.235 3.755 3.447 4.333.667.32.919.797 1.209 1.349.336.64.718 1.365 1.828 1.892.225.108.429.151.61.151.313 0 .551-.135.725-.293.018.28.017.64.009.97-.012.431.042.783.137.791.094.008.196-.332.207-.76.016-.526.013-1.177-.072-1.488-.248-.917-1.008-1.953-1.813-3.048-.789-1.082-1.607-2.195-1.813-3.094zm-7.247-4.031c-2.177-7.139.656-13.3 1.144-14.28.85.822 1.6 1.919 2.21 2.995-.444.858-3.263 6.483-3.354 11.285zm9.391 10.442c-1.004-.475-1.339-1.115-1.666-1.733-.293-.559-.598-1.136-1.369-1.505a3.595 3.595 0 01-.542-.343c-2.486-6.263.272-9.001.963-9.562.211.766.369 1.468.439 2.031.063.517-.052 1.339-.167 2.134-.142.985-.286 2.004-.137 2.664.226.982 1.069 2.131 1.884 3.242.723.986 1.466 2.003 1.721 2.832-.108.164-.45.561-1.126.24z" fill="#bb7440"/><path d="M152.736 83.231c1.377-2.453 5.639-8.48 9.98-7.003 2.75.935 3.293 3.993 3.736 6.693.588 3.591-.471 10.694-1.389 13.26-.881 2.467-3.533 7.23-5.266 9.045-2.129 2.225-4.775 9.324-5.193 10.061-.658 1.162-1.535 2.911-4.121 2.692-2.854-.244-4.584-1.85-5.857-2.121-3.142-.666 4.53-26.242 8.11-32.627z" fill="#e9b995" stroke="#bb7440" stroke-width="1.5"/><path d="M153.727 101.196c-.805 1.096-1.564 2.131-1.813 3.048-.086.311-.088.962-.072 1.488.012.428.113.768.207.76s.148-.36.137-.791c-.008-.331-.008-.69.01-.97.174.158.412.293.725.293.182 0 .385-.043.609-.151 1.109-.526 1.492-1.252 1.828-1.892.289-.552.543-1.028 1.209-1.349 1.213-.578 3.041-2.692 3.447-4.333 1.096-4.447-1.908-10.005-2.338-10.767.217-.544.43-1.049.619-1.479a27.35 27.35 0 01.93-1.893c.73 1.46 4 8.361 3.049 13.017-.896 4.387-4.9 9.539-6.289 11.218-.258.313-.418.624-.352.7.066.074.338-.109.598-.423 1.406-1.692 5.449-6.862 6.379-11.409.07-.35.117-.708.146-1.075.197-.349 1.459-2.676 1.791-5.791.422-3.961-.555-9.772-.744-10.845.473-.042.814.156 1.051.385.287.281.486.577.572.535.086-.042.027-.402-.238-.707-.363-.417-.988-.827-1.938-.484-2.299.83-4.131 4.045-5.262 6.599-.984 2.218-2.49 6.313-2.758 8.467-.072.576.045 1.39.17 2.251.135.945.273 1.924.141 2.504-.205.901-1.023 2.014-1.814 3.094zm5.707-18.409c.611-1.075 1.361-2.173 2.211-2.995.488.98 3.32 7.141 1.145 14.28-.093-4.801-2.911-10.426-3.356-11.285zm-7.164 21.488c.254-.829.998-1.846 1.721-2.832.816-1.111 1.658-2.26 1.885-3.242.148-.66.004-1.679-.137-2.664-.115-.795-.23-1.617-.166-2.134.068-.563.227-1.266.438-2.031.691.561 3.449 3.299.965 9.562-.191.14-.375.263-.543.343-.771.369-1.074.946-1.369 1.505-.326.618-.662 1.258-1.666 1.733-.677.321-1.019-.076-1.128-.24z" fill="#bb7440"/><path d="M143.337 131.62c-6.672 9.643-30.551 25.524-39.142 30.485-1.757 1.015-6.626 1.015-8.383-.001-8.584-4.966-33.469-20.844-40.144-30.484-8.127-11.736-14.519-54.063-14.53-54.116a61.26 61.26 0 01-2.004-15.495C39.082 28.29 66.289.92 99.907.867c33.621-.053 60.913 27.231 60.963 60.95a61.31 61.31 0 01-1.952 15.501c-.017.054-7.43 42.524-15.581 54.302z" fill="#e9b995"/><path d="M133.322 10.831c13.736 11.102 22.65 28.894 22.679 48.972a66.4 66.4 0 01-1.796 15.501c-.016.053-6.836 42.523-14.335 54.302-6.138 9.643-28.106 25.523-36.011 30.483-1.616 1.017-6.096 1.017-7.712-.001-7.897-4.965-30.792-20.842-36.932-30.482-7.478-11.737-13.357-54.063-13.368-54.117a66.268 66.268 0 01-1.843-15.495c-.029-20.154 8.906-38.034 22.7-49.174-16.625 10.921-27.603 29.767-27.57 51.19a61.267 61.267 0 002.004 15.495c.012.053 6.403 42.379 14.53 54.116 6.675 9.641 31.56 25.519 40.144 30.484 1.756 1.016 6.626 1.016 8.383.001 8.591-4.961 32.47-20.843 39.142-30.485 8.151-11.778 15.564-54.249 15.581-54.302a61.315 61.315 0 001.952-15.501c-.032-21.346-10.988-40.102-27.548-50.987z" fill="#e1ac85"/><path d="M143.337 131.62c-6.672 9.643-30.551 25.524-39.142 30.485-1.757 1.015-6.626 1.015-8.383-.001-8.584-4.966-33.469-20.844-40.144-30.484-8.127-11.736-14.519-54.063-14.53-54.116a61.26 61.26 0 01-2.004-15.495C39.082 28.29 66.289.92 99.907.867c33.621-.053 60.913 27.231 60.963 60.95a61.31 61.31 0 01-1.952 15.501c-.017.054-7.43 42.524-15.581 54.302z" fill="none" stroke="#bb7440" stroke-width="1.5"/><path d="M100.389 141.808c-3.458 0-4.907-2.678-4.907-2.678l9.74-.188c0-.001-1.789 2.866-4.833 2.866z" fill="url(#b)"/><path d="M98.82 139.206c-1.781 0-3.136-.171-3.231-.184-.146-.02-.248-.146-.228-.282.02-.138.157-.227.301-.214.04.006 6.084.5 9.357-.195.156-.03.289.057.321.189a.253.253 0 01-.202.299c-1.409.299-5.042.387-6.318.387zm-14.429-5.382c-.365-.663 4.097.111 6.79-.551 2.98-.732 6.101.208 9.133.479 2.382.213 4.838-.975 7.191-.436 3.261.747 8.236-.196 7.843.594-.273.548-4.893 1.05-7.524.604-2.301-.39-4.683.556-7.006.73-2.885.217-5.767-1.385-8.614-.933-3.282.521-7.503.077-7.813-.487z" fill="#bb7440"/><path d="M84.453 90.766a3.182 3.182 0 002.774-1.704 3.196 3.196 0 00-.156-3.256c-.858-1.297-2.065-2.568-3.836-4.115-8.771-.813-15.044-1.003-23.409-.268.851 4.473 3.058 6.582 8.789 9.568 6.187.487 10.674.436 15.838-.225z" fill="url(#c)"/><path d="M81.735 87.146c-1.087 5.321-5.202 8.456-9.201 6.994-3.996-1.46-6.356-6.964-5.269-12.286 1.086-5.324 5.211-8.458 9.207-6.996 3.993 1.46 6.351 6.964 5.263 12.288z" fill="#4e60a3" stroke="#152975" stroke-width=".5"/><path d="M80.568 87.271c-1.06 4.085-4.26 6.469-7.374 5.332-2.875-1.053-4.689-4.732-4.454-8.62a20.332 20.332 0 013.444-.066c-.012.056-.033.104-.045.161-.381 1.875.509 3.841 1.991 4.384 1.487.542 3.001-.545 3.385-2.419.047-.245.073-.49.081-.732a13.594 13.594 0 012.972 1.96z" fill="#6777b2"/><path d="M75.515 81.518c-1.501-.574-3.035.569-3.422 2.564-.389 1.986.515 4.063 2.017 4.638 1.505.575 3.039-.569 3.426-2.555.391-1.996-.516-4.074-2.021-4.647zm.329 7.053c-.625.258-1.271-.085-1.443-.771-.166-.685.205-1.444.833-1.698.629-.259 1.273.086 1.447.767.169.681-.203 1.443-.837 1.702z" opacity=".9"/><path d="M70.514 89.765c-.463.37-1.152.04-1.548-.744-.396-.777-.335-1.708.129-2.079.458-.364 1.156-.034 1.549.744.388.778.333 1.71-.13 2.079z" fill="#fff" opacity=".6"/><path d="M80.388 84.068c-1.058.843-2.647.083-3.547-1.701-.9-1.786-.764-3.92.293-4.762 1.056-.849 2.646-.087 3.542 1.699.898 1.785.769 3.917-.288 4.764z" fill="#fff" opacity=".9"/><path d="M54.8 84.999c0 13.807 8.507 25 19 25s19-11.193 19-25-8.507-25-19-25-19 11.193-19 25zm5.026-3.576c8.365-.735 14.638-.545 23.409.268 1.771 1.546 2.978 2.818 3.836 4.115.644.974.703 2.225.156 3.256a3.18 3.18 0 01-2.774 1.704c-5.164.661-9.651.711-15.838.225-5.731-2.987-7.938-5.095-8.789-9.568z" fill="#e9b995"/><path d="M58.697 86.046c-.075 6.904 8.647 12.467 18.038 12.434 9.389-.04 16.987-5.663 16.962-12.568-.023-6.903-7.647-12.467-17.04-12.431-9.392.038-17.858 3.121-17.96 12.565zm1.129-4.623c8.365-.735 14.638-.545 23.409.268 1.771 1.546 2.978 2.818 3.836 4.115.644.974.703 2.225.156 3.256a3.18 3.18 0 01-2.774 1.704c-5.164.661-9.651.711-15.838.225-5.731-2.987-7.938-5.095-8.789-9.568z" fill="url(#d)"/><path d="M84.453 90.766a3.182 3.182 0 002.774-1.704 3.196 3.196 0 00-.156-3.256c-.858-1.297-2.065-2.568-3.836-4.115-8.771-.813-15.044-1.003-23.409-.268.851 4.473 3.058 6.582 8.789 9.568 6.187.487 10.674.436 15.838-.225z" fill="url(#e)"/><path d="M85.832 79c-.27-.249-3.77-.621-6.501-1.104-2.73-.483-20.217-.348-20.217-.348s17.112-.811 20.164-.203c3.057.607 6.554 1.655 6.554 1.655z" fill="#bb7440"/><path d="M88.835 89.633c-2.075-3.454-2.899-5.102-6.004-7.55-6.037-1.096-13.04-.92-22.203-.565.707 3.869 2.669 6.058 8.608 9.126 6.664.519 12.018.495 18.261 0-6.553.977-11.234 1.358-19.3.982-5.771-2.108-9.077-5.883-11.467-10.455l-1.829-.88c12.077-1.006 21.95-.979 30.924-.044l4.076 3.871-3.784-1.56c1.424 2.867 2.233 4.831 2.718 7.075z" fill="#2a150e"/><path d="M115.147 90.766a3.182 3.182 0 01-2.774-1.704 3.196 3.196 0 01.156-3.256c.858-1.297 2.065-2.568 3.836-4.115 8.771-.813 15.044-1.003 23.409-.268-.851 4.473-3.058 6.582-8.789 9.568-6.186.487-10.673.436-15.838-.225z" fill="url(#f)"/><path d="M132.734 87.146c-1.088 5.321-5.203 8.456-9.202 6.992-3.994-1.458-6.356-6.963-5.267-12.284 1.087-5.324 5.21-8.458 9.204-6.994 3.997 1.458 6.355 6.963 5.265 12.286z" fill="#4e60a3" stroke="#152975" stroke-width=".5"/><path d="M131.569 87.271c-1.062 4.085-4.261 6.468-7.375 5.33-2.875-1.052-4.69-4.73-4.454-8.618a20.448 20.448 0 013.445-.066c-.011.055-.035.103-.046.161-.381 1.875.508 3.84 1.99 4.383 1.489.542 3.001-.547 3.385-2.42.049-.244.073-.49.083-.732a13.873 13.873 0 012.972 1.962z" fill="#6777b2"/><path d="M126.517 81.518c-1.504-.573-3.036.569-3.425 2.564-.387 1.987.515 4.063 2.02 4.637 1.504.575 3.035-.57 3.426-2.555.389-1.995-.518-4.073-2.021-4.646zm.326 7.053c-.623.258-1.271-.085-1.44-.771-.168-.684.204-1.445.833-1.697.629-.26 1.272.085 1.445.766.17.68-.203 1.442-.838 1.702z" opacity=".9"/><path d="M121.514 89.765c-.461.368-1.15.039-1.547-.745-.396-.776-.335-1.706.128-2.079.459-.364 1.155-.033 1.547.746.391.777.337 1.708-.128 2.078z" fill="#fff" opacity=".6"/><path d="M131.388 84.068c-1.06.844-2.646.083-3.548-1.701-.897-1.786-.766-3.919.293-4.761 1.056-.85 2.646-.088 3.54 1.698.901 1.787.772 3.918-.285 4.764z" fill="#fff" opacity=".9"/><path d="M125.801 59.999c-10.493 0-19 11.193-19 25s8.507 25 19 25 19-11.193 19-25-8.507-25-19-25zm5.184 30.992c-6.187.487-10.674.436-15.838-.225a3.182 3.182 0 01-2.774-1.704 3.196 3.196 0 01.156-3.256c.858-1.297 2.065-2.568 3.836-4.115 8.771-.813 15.044-1.003 23.409-.268-.85 4.473-3.057 6.581-8.789 9.568z" fill="#e9b995"/><path d="M122.943 73.48c-9.393-.036-17.017 5.528-17.04 12.431-.025 6.906 7.573 12.529 16.962 12.568 9.391.034 18.113-5.529 18.038-12.434-.101-9.443-8.567-12.526-17.96-12.565zm8.042 17.511c-6.187.487-10.674.436-15.838-.225a3.182 3.182 0 01-2.774-1.704 3.196 3.196 0 01.156-3.256c.858-1.297 2.065-2.568 3.836-4.115 8.771-.813 15.044-1.003 23.409-.268-.85 4.473-3.057 6.581-8.789 9.568z" fill="url(#g)"/><path d="M115.147 90.766a3.182 3.182 0 01-2.774-1.704 3.196 3.196 0 01.156-3.256c.858-1.297 2.065-2.568 3.836-4.115 8.771-.813 15.044-1.003 23.409-.268-.851 4.473-3.058 6.582-8.789 9.568-6.186.487-10.673.436-15.838-.225z" fill="url(#h)"/><path d="M114.168 79c.27-.249 3.77-.621 6.501-1.104 2.73-.483 20.217-.348 20.217-.348s-17.112-.811-20.164-.203c-3.057.607-6.554 1.655-6.554 1.655z" fill="#bb7440"/><path d="M110.766 89.633c2.075-3.454 2.899-5.102 6.004-7.55 6.037-1.096 13.04-.92 22.203-.565-.707 3.869-2.669 6.058-8.608 9.126-6.664.519-12.018.495-18.261 0 6.553.977 11.234 1.358 19.3.982 5.771-2.108 9.077-5.883 11.467-10.455l1.829-.88c-12.077-1.006-21.95-.979-30.924-.044l-4.076 3.871 3.784-1.56c-1.424 2.867-2.233 4.831-2.718 7.075z" fill="#2a150e"/><path d="M141 113.974c.035 22.622-18.292 40.994-40.938 41.025-22.642.037-41.028-18.273-41.063-40.9-.035-22.62 18.292-41.064 40.937-41.1 22.643-.035 41.031 18.35 41.064 40.975z" fill="url(#i)"/><path d="M137.5 53.999c0 20.711-16.789 37.5-37.499 37.5-20.711 0-37.501-16.789-37.501-37.5s16.79-37.5 37.501-37.5c20.71 0 37.499 16.789 37.499 37.5z" fill="url(#j)"/><path d="M54.872 71.479c0 .55 13.681-.174 15.036-.312 23.276-2.375 24.726-7.885 21.625-7.963-2.49-.063-3.619 2.32-21.219 5.462-.419.076-15.442 3.24-15.442 2.813zm90.258 0c0 .55-13.681-.174-15.036-.312-23.276-2.375-24.726-7.885-21.625-7.963 2.49-.063 3.619 2.32 21.219 5.462.419.076 15.442 3.24 15.442 2.813z" fill="#2a232b"/><path d="M91.115 115.499c-.878 2.064 5.934 4.292 8.519 4.429 2.8.147 10.646-2.9 9.316-4.992-1.399-2.195-6.643-.286-8.906-.286-2.252-.001-7.753-1.905-8.929.849z" fill="#daa075"/><path d="M101.857 117.058c-.23-.759 1.876-1.584 2.657-1.694 1.101-.16 3.36.802 3.158 1.592-.184.698-2.148-.533-2.86-.429-.734.107-2.737 1.242-2.955.531zm-6.883-.247c.968 0 2.404.623 2.668.074.315-.655-2.139-1.461-2.86-1.372-.596.07-2.733 1.315-2.439 1.839.274.481 1.355-.541 2.631-.541z" fill="#bb7440"/><path d="M100.089 111.999c.607 0 1.742-.74 1.792-2.23.201-6.008-.956-23.833-1.792-23.77-.78.059-2.267 17.637-1.948 23.77.079 1.502 1.263 2.23 1.948 2.23z" fill="#ffe8d6" opacity=".2"/><path d="M152.176 96.021c-4.33-11.451-2.396-20.042-3.227-37.21-1.283-26.428-7.483-23.179-21.749-24.214C105.156 33 97.497 22.794 81.063 22.794c-8.887 0-19.24 4.048-27.173 11.001-6.378 43.485 2.638 39.87-6.744 61.845-5.953-6.247-6.721-15.865-11.134-28.495-3.519-10.451-2.658-11.011-6.527-16.049 2.484.449 2.734.429 3.842.429-1.97-4.306-4.479-11.951-5.429-15.273 2.329-1.116 4.839-3.909 6.47-5.919-.931-2.128-1.646-4.554-2.079-6.625.077-.026.438-.16.438-.16l.004-.017c5.681-2.417 6.84-15.944 10.785-19.389 1.941-1.814 3.806-2.531 5.534-3.446.204-1.895.295-2.277.575-3.63 9.402-2.521 12.254-1.199 25.53-4.893 4.564-1.27 7.709-2.153 17.317-1.75 3.525 1.779 16.06 10.479 25.484 1.602C125.21-3.448 131.53-2.87 140.58 2.277c15.179 8.89 17.244 15.147 16.352 29.56 10.493 13.965 8.167 30.567 3.577 47.23-2.87 10.316-5.623 13.694-8.333 16.954z" fill="#2a232b"/><path d="M152 82c-1-8 3-15 4-22-1 2-3 3-3 5 0-7 3-13 2-20-1 2-2 3-4 4 3-7 0-15-5-21 1 3 2 5 2 8-6-9-20-10-30-15 2 3 6 5 9 7-14-5-27-11-40-17 2.206 2.206 3.875 6.024 6.589 7.499 1.143.163.978.531 0 0C81.581 16.79 68.958 15.479 58 10c0 4 3 7 6 9-3 0-6-3-8-2-3 2 3 4 2 6-3 2-6-1-9-1 2 3 0 8 2 11-2-1-4-3-4-2-1 4-3 5-3 8 0 5 3 10 3 15 0-1.608-1.938-1.279-2.697-2.127 5.009 13.975 4.782 28.692 2.606 43.497.082.089.154.184.237.271 9.382-21.975.366-18.36 6.744-61.845 7.933-6.953 18.286-11.001 27.173-11.001 16.435 0 24.094 10.207 46.138 11.802 14.266 1.036 20.466-2.214 21.749 24.214.83 17.168-1.104 25.759 3.227 37.21l.014-.016C152.841 88.595 155 81.796 155 75c-1 2-2 4-3 7z" fill="#0c080c"/><path d="M159.263 71.488c-.309.657-2.263.855-2.263 1.512 0-3 3.516-5.243 2.924-10.264 0 .396-3.158 2.95-3.475 3.346-.206 1 4.288-10.681 4.288-14.542C159.263 53.999 158 54 158 56c0-4-.006-9.854-.006-13.854 0 2-1.994 4.949-1.994 6.949.933-7.464-3.404-16.095-4.28-23.501-.511 1.795-1.479 3.889-.72 5.406-3-4-2-11-7-14-1 2-1 4-2 6-3-4-7-7-9-11v5c-5-4-12-6-15-12v7c-4-1-10.495-4.596-12.495-7.596C105.505 7.404 109 12 109 15c-8-4-14-10-22-14 0 2 2 4 1 6-4-2-11.771-2-13.771-6 0 3 3.11 6 3.11 9-9-1-11.009-3.822-19.242-7.596C57.097 4.404 56 7 55 9c-2-2-3-4-6-4 0 3 3 7 1 10-1 1-5-3-5-2-2 4 0 10-2 14 0 1-3-2-5-1 3.872 5.807 1.202 12.548 3.745 18.416.098.182.185.374.255.584-.096-.193-.17-.389-.255-.584C40.452 41.988 36.93 41.79 36 39c0 7.303 4.157 13.774 5.645 20.932.505.301.759.856.355 2.068a26.41 26.41 0 00-.355-2.068c-.748-.446-2.049-.336-2.645-.932 4.728 9.455 6.191 25.673 7.909 36.369 3.545-15.374 1.709-31.456-2.606-43.497-.185-.206-.303-.48-.303-.872.109.29.198.582.303.873.76.848 2.697.519 2.697 2.127 0-5-3-10-3-15 0-3 2-4 3-8 0-1 2 1 4 2-2-3 0-8-2-11 3 0 6 3 9 1 1-2-5-4-2-6 2-1 5 2 8 2-3-2-6-5-6-9 10.958 5.479 23.581 6.79 35.589 8.499C90.875 17.024 89.206 13.206 87 11c13 6 26 12 40 17-3-2-7-4-9-7 10 5 24 6 30 15 0-3-1-5-2-8 5 6 8 14 5 21 2-1 3-2 4-4 1 7-2 13-2 20 0-2 2-3 3-5-1 7-5 14-4 22 1-3 2-5 3-7 0 6.796-2.159 13.595-2.811 21.004.814-.979 1.633-1.975 2.457-3.163-.101-7.412 2.833-13.503 4.617-21.353z" fill="#1b141c"/><path d="M93.119 18.235c-1.128.089-2.468.279-4.94-.096-6.698-.927-28.617-1.793-29.81-8.654 1.055 3.353 7.405 4.299 12.204 5.198 0 0 3.382.651 8.723 1.251 9.995 1.167 7.883 1.954 13.823 2.301zm22.778 5.511C92 13.389 93.7 14.531 88.119 10.985c7.333 6.156 9.839 6.172 22.619 12.018 5.921 2.667 7.078 2.561 15.131 4.482-5.645-2.244-6.31-2.198-9.972-3.739zm2.722-3.011c9.914 8.153 22.008 6.125 29.75 15-6.205-9.817-19.851-8.827-29.75-15zm-58.714-3.404c-2.668-.805-3.997-.43-5.286.404 4.225-1.989 8.651 2.923 13.75 1.5-2.363.288-8.464-1.705-8.464-1.904zm-2.854 6.601c-2.328-.734-5.203-1.979-7.151-1.927-1.03.024-1.281.48-1.281.48.975-1.139 5.609 1.099 8.396 1.626.766.16 1.354.123 1.354.123s-.586-.058-1.318-.302zM45.652 35.678c.687-1.892 1.461-3.751 1.256-5.482-.104-.627-.309-.955-.289-.96.464 1.973-.313 3.175-1.68 6.136-3.015 6.453.924 11.484 2.43 18.364-.509-7.87-4.203-11.347-1.717-18.058zm108.717 10.307c.32 2.168.225 3.63-.154 7.075 0 0-.695 5.779-2.096 11.425 2.079-4.847 3.821-13.096 2.25-18.5zm1.5 15.5c-3.387 9.387-3.936 12.846-4.5 20.25 3.73-17.238 1.915-8.581 4.5-20.25z" fill="#2a232b"/><path d="M114.869-1.765c-6.126.965-12.52 1.734-24-5.25 11.08 5.016 16.465 5.498 24 5.25zM128.401.19c-6.076-2.194-6.475-4.768-11.032-6.205 4.159 1.884 4.127 4.303 9.559 6.761 2.642 1.249 11.822 3.782 17.441 7.439-4.964-4.391-8.303-5.126-15.968-7.995zM60.619-2.015c11.593.241 13.441-2.719 26.75-4.25-11.966-.149-13.233 2.704-26.75 4.25zm30.25.25c4.669.559 11.405 4.746 13.5 9.5-1.529-5.33-8.168-9.47-13.5-9.5zm26 1.5c4.652 2.475 6.308 7.699 12 8.75-5.585-1.848-6.691-6.682-12-8.75zm-8 1c1.193 2.033 2.93 4.107 7.5 7-5.333-4.382-6.248-5.304-7.5-7zm23.25 4.75c5.115.627 10.451 5.663 11 11.25.256-5.506-4.691-11.154-11-11.25zm17.339 8.522c-2.307-2.946-4.339-3.642-5.339-4.022 1.428.741 2.997 1.725 4.866 4.386 0 0 3.437 4.57 4.884 9.614-.998-6.078-4.411-9.978-4.411-9.978zM54.369-.265c.185-.391 5.324 1.866 5.73 2.03 1.229.479 7.383 2.967 9.52 3.22-1.001-.268-15.196-6.399-15.25-5.25zm-8.5 6.25c.682.896 1.458 2.263 2.01 3.245 0 0 .296.523.571 1.059.27.537.51 1.086.51 1.086.674 1.537.995 2.486 1.04 3.625.252-2.981-2.298-7.128-4.131-9.015zm-3 3c-2.517 6.149-2.489 9.708 0 16-1.563-6.304-1.883-9.288 0-16z" fill="#3a353a"/><path d="M157.239 31.745c.228-3.5.323-5.684.02-9.14-1.138-10.129-7.217-15.136-16.529-20.59-9.158-5.208-15.513-5.751-22.811-10.37-9.334 9.042-21.935.184-25.37-1.52-16.776-.716-14.191 2.518-32.75 4.78-6.844.773-9.67 1.72-9.67 1.72-.26.07-.52.13-.76.2-.2 1-.381 1.616-.6 3.68-1.516.801-3.484 1.572-5.45 3.41-4.048 3.536-5.212 17.195-10.83 19.39v.01c-.118.043-.428.163-.55.18.419 2.096 1.188 4.75 2.08 6.79-1.594 1.959-4.17 4.807-6.48 5.8.546 1.98 3.313 10.751 5.32 15.14-1.1 0-2.003-.194-4.09-.56 4.388 5.578 3.281 5.653 6.96 16.58 4.481 12.826 5.208 22.595 11.49 28.9 5.633-10.646 5.146-15.583 5.19-19.41.123-5.265-2.433-18.462 1.935-42.798 9.262-8.105 22.378-12.754 34.815-9.932 13.001 2.94 19.525 9.551 38.02 10.89 14.399 1.046 20.201-2.213 21.471 23.93.841 17.373-1.163 26.023 3.43 37.78 2.669-3.22 5.645-6.408 8.72-17.46 4.499-16.338 7.016-33.206-3.561-47.4zm3.781 38.981c-3.468 16.597-5.491 19.609-9.061 24.96-2.882-8.88-2.093-17.47-1.8-26.59 1.486-39.246-8.424-34.825-22.86-35.92-17.688-1.192-24.622-7.896-37.76-10.54-11.972-2.45-25.25.755-36.35 11.16-6.045 27.128.578 41.608-4.78 55.37-1.162 2.943-.429 3.694-1.28 5.84-4.636-6.978-5.874-16.832-7.41-21.79-4.784-12.176-4.632-16.171-9.84-21.97 1.271.277 2.91.457 4.21.24-.01-.01-.01-.01-.01-.02-.332-1.001-4.524-12.47-5.75-15.33 2.387-1.152 4.729-3.746 6.35-5.83-1.292-4.088.314 1.902-2.1-6.66 7.366-2.215 6.6-16.125 14.11-21.21.997-.665 1.88-1.213 2.86-1.83.221-1.879.071-.771.52-3.63 8.803-1.813 12.4-.024 25.18-4.05 9.681-2.356 16.636-2.269 17.64-2.16 6.167 3.862 9.656 6.038 16.91 5.53 3.323-.272 5.966-1.878 8.28-4.24 4.01 3.008 8.485 4.831 13.99 7.35 22.244 10.181 24.229 18.459 24.229 32.18 1.398 1.975 2.938 5.099 3.7 7.19 4.595 11.341 3.098 22.261 1.022 31.95z"/></svg>