<svg xmlns="http://www.w3.org/2000/svg" width="500" height="500" viewBox="0 0 200 200" overflow="hidden"><defs><radialGradient id="k" cx="100" cy="114" r="41" gradientUnits="userSpaceOnUse" class="svga-on-canvas-facehighlight-gradient-single-0"><stop stop-opacity=".5" stop-color="#c27e4b" offset="0"/><stop stop-opacity="0" stop-color="#b36a33" offset=".9"/></radialGradient><radialGradient id="l" cx="100" cy="54" r="37" gradientUnits="userSpaceOnUse" class="svga-on-canvas-facehighlight-gradient-single-1"><stop stop-opacity=".5" stop-color="#c27e4b" offset="0"/><stop stop-opacity="0" stop-color="#b36a33" offset=".9"/></radialGradient><radialGradient id="e" cx="121.986" cy="82.496" fx="133.239" fy="82.527" r="16.003" gradientTransform="matrix(.9998 .0208 .0166 -.7998 -45.32 145.94)" gradientUnits="userSpaceOnUse" class="svga-on-canvas-eyesfront-gradient-left-3"><stop stop-color="#a4581e" offset="0"/><stop stop-opacity=".3" stop-color="#a4581e" offset=".7"/><stop stop-opacity="0" stop-color="#b36a33" offset="1"/></radialGradient><radialGradient id="f" cx="68.931" cy="105.995" r="29.524" gradientTransform="translate(-1.68 1.313) scale(1.0336)" gradientUnits="userSpaceOnUse" class="svga-on-canvas-eyesfront-gradient-left-4"><stop stop-opacity="0" offset=".95"/><stop stop-opacity=".2" offset="1"/></radialGradient><radialGradient id="i" cx="121.587" cy="82.496" fx="132.839" fy="82.527" r="16.003" gradientTransform="matrix(-.9998 .0208 -.0166 -.7998 244.52 145.948)" gradientUnits="userSpaceOnUse" class="svga-on-canvas-eyesfront-gradient-right-3"><stop stop-color="#a4581e" offset="0"/><stop stop-opacity=".3" stop-color="#a4581e" offset=".7"/><stop stop-opacity="0" stop-color="#b36a33" offset="1"/></radialGradient><radialGradient id="j" cx="69.316" cy="105.995" r="29.524" gradientTransform="matrix(-1.0336 0 0 1.0336 201.68 1.313)" gradientUnits="userSpaceOnUse" class="svga-on-canvas-eyesfront-gradient-right-4"><stop stop-opacity="0" offset=".95"/><stop stop-opacity=".2" offset="1"/></radialGradient><radialGradient id="c" cx="125.379" cy="82.93" r="12.84" gradientTransform="matrix(-1.0592 .0004 -.0004 .9318 206.511 5.177)" gradientUnits="userSpaceOnUse" class="svga-on-canvas-eyesback-gradient-left-0"><stop stop-color="#fff" offset="0"/><stop stop-color="#fdfefe" offset=".544"/><stop stop-color="#f6f8f9" offset=".74"/><stop stop-color="#eaeff2" offset=".879"/><stop stop-color="#d9e3e8" offset=".992"/><stop stop-color="#d8e2e7" offset="1"/></radialGradient><radialGradient id="g" cx="125.001" cy="82.93" r="12.841" gradientTransform="matrix(1.0592 .0004 .0004 .9318 -6.511 5.177)" gradientUnits="userSpaceOnUse" class="svga-on-canvas-eyesback-gradient-right-0"><stop stop-color="#fff" offset="0"/><stop stop-color="#fdfefe" offset=".544"/><stop stop-color="#f6f8f9" offset=".74"/><stop stop-color="#eaeff2" offset=".879"/><stop stop-color="#d9e3e8" offset=".992"/><stop stop-color="#d8e2e7" offset="1"/></radialGradient><linearGradient id="d" x1="127.637" y1="79.822" x2="125.91" y2="81.88" gradientTransform="translate(-50)" gradientUnits="userSpaceOnUse" class="svga-on-canvas-eyesiris-gradient-left-1"><stop stop-color="#fff" offset="0"/><stop stop-opacity="0" stop-color="#fff" offset="1"/></linearGradient><linearGradient id="h" x1="129.637" y1="79.823" x2="127.91" y2="81.881" gradientUnits="userSpaceOnUse" class="svga-on-canvas-eyesiris-gradient-right-1"><stop stop-color="#fff" offset="0"/><stop stop-opacity="0" stop-color="#fff" offset="1"/></linearGradient><linearGradient id="m" x1="130" y1="69" x2="130" y2="109" gradientUnits="userSpaceOnUse" class="svga-on-canvas-glasses-gradient-single-0"><stop offset="0"/><stop stop-opacity=".8" offset="1"/></linearGradient><linearGradient id="n" x1="130" y1="69" x2="130" y2="109" gradientTransform="matrix(-1 0 0 1 200 0)" gradientUnits="userSpaceOnUse" class="svga-on-canvas-glasses-gradient-single-1"><stop offset="0"/><stop stop-opacity=".8" offset="1"/></linearGradient><linearGradient id="b" x1="100" y1="144" x2="100" y2="141" gradientUnits="userSpaceOnUse" class="svga-on-canvas-mouth-gradient-single-0"><stop stop-color="#ab6128" offset=".1"/><stop stop-color="#a4581e" offset="1"/></linearGradient><linearGradient id="a" x1="100" y1="172" x2="100" y2="130" gradientUnits="userSpaceOnUse" class="svga-on-canvas-chinshadow-gradient-single-0"><stop stop-opacity=".8" stop-color="#a4581e" offset="0"/><stop stop-color="#853900" offset=".7"/></linearGradient></defs><path d="M225 225H-25V-25h250v250z" fill="#88a65e"/><path d="M10 33.299L0 16.649 10-.001l10 16.65-10 16.65zm30-16.65L30-.001l-10 16.65 10 16.65 10-16.65zm20 0L50-.001l-10 16.65 10 16.65 10-16.65zm20 0L70-.001l-10 16.65 10 16.65 10-16.65zm20 0L90-.001l-10 16.65 10 16.65 10-16.65zm20 0L110-.001l-10 16.65 10 16.65 10-16.65zm20 0L130-.001l-10 16.65 10 16.65 10-16.65zm20 0L150-.001l-10 16.65 10 16.65 10-16.65zm20 0L170-.001l-10 16.65 10 16.65 10-16.65zm20 0L190-.001l-10 16.65 10 16.65 10-16.65zM20 49.982l-10-16.65-10 16.65 10 16.65 10-16.65zm20 0l-10-16.65-10 16.65 10 16.65 10-16.65zm20 0l-10-16.65-10 16.65 10 16.65 10-16.65zm20 0l-10-16.65-10 16.65 10 16.65 10-16.65zm20 0l-10-16.65-10 16.65 10 16.65 10-16.65zm20 0l-10-16.65-10 16.65 10 16.65 10-16.65zm20 0l-10-16.65-10 16.65 10 16.65 10-16.65zm20 0l-10-16.65-10 16.65 10 16.65 10-16.65zm20 0l-10-16.65-10 16.65 10 16.65 10-16.65zm20 0l-10-16.65-10 16.65 10 16.65 10-16.65zM20 83.316l-10-16.65-10 16.65 10 16.65 10-16.65zm20 0l-10-16.65-10 16.65 10 16.65 10-16.65zm20 0l-10-16.65-10 16.65 10 16.65 10-16.65zm20 0l-10-16.65-10 16.65 10 16.65 10-16.65zm20 0l-10-16.65-10 16.65 10 16.65 10-16.65zm20 0l-10-16.65-10 16.65 10 16.65 10-16.65zm20 0l-10-16.65-10 16.65 10 16.65 10-16.65zm20 0l-10-16.65-10 16.65 10 16.65 10-16.65zm20 0l-10-16.65-10 16.65 10 16.65 10-16.65zm20 0l-10-16.65-10 16.65 10 16.65 10-16.65zM20 116.649L10 100 0 116.65l10 16.649 10-16.65zm20 0L30 100l-10 16.65 10 16.649 10-16.65zm20 0L50 100l-10 16.65 10 16.649 10-16.65zm20 0L70 100l-10 16.65 10 16.649 10-16.65zm20 0L90 100l-10 16.65 10 16.649 10-16.65zm20 0L110 100l-10 16.65 10 16.649 10-16.65zm20 0L130 100l-10 16.65 10 16.649 10-16.65zm20 0L150 100l-10 16.65 10 16.649 10-16.65zm20 0L170 100l-10 16.65 10 16.649 10-16.65zm20 0L190 100l-10 16.65 10 16.649 10-16.65zM20 149.982l-10-16.649-10 16.649 10 16.649 10-16.649zm20 0l-10-16.649-10 16.649 10 16.649 10-16.649zm20 0l-10-16.649-10 16.649 10 16.649 10-16.649zm20 0l-10-16.649-10 16.649 10 16.649 10-16.649zm20 0l-10-16.649-10 16.649 10 16.649 10-16.649zm20 0l-10-16.649-10 16.649 10 16.649 10-16.649zm20 0l-10-16.649-10 16.649 10 16.649 10-16.649zm20 0l-10-16.649-10 16.649 10 16.649 10-16.649zm20 0l-10-16.649-10 16.649 10 16.649 10-16.649zm20 0l-10-16.649-10 16.649 10 16.649 10-16.649zM20 183.315l-10-16.649-10 16.649 10 16.649 10-16.649zm20 0l-10-16.649-10 16.649 10 16.649 10-16.649zm20 0l-10-16.649-10 16.649 10 16.649 10-16.649zm20 0l-10-16.649-10 16.649 10 16.649 10-16.649zm20 0l-10-16.649-10 16.649 10 16.649 10-16.649zm20 0l-10-16.649-10 16.649 10 16.649 10-16.649zm20 0l-10-16.649-10 16.649 10 16.649 10-16.649zm20 0l-10-16.649-10 16.649 10 16.649 10-16.649zm20 0l-10-16.649-10 16.649 10 16.649 10-16.649zm20 0l-10-16.649-10 16.649 10 16.649 10-16.649z" fill="#759746"/><path d="M38.058 105.866c-4.527-10.708-3.86-15.133-2.654-23.504-2.078 2.251-3.322 5.27-6.713 8.063.263-2.006 4.269-13.639 4.587-14.493-3.844 3.504-5.969 4.251-7.809 4.972 1.242-1.853 2.066-4.007 3.9-7.933h11.529c.231 4.281 1.066 9.569 2.312 14.214-.659.437-2.391 3.18-5.152 18.681zM158.91 74.599c-.047 3.839-1.342 11.034-2.908 15.869.805.541 1.743 1.173 1.539 1.009 5.951 4.778 6.908 5.603 7.514 13.386 4.324-9.33.656-21.307.439-30.263h-6.584zm6.592 0h4.441c-.582 1.969-1.936 4.788-3.422 6.633-.558-2.165-.865-5.246-1.019-6.633z" fill="#413230"/><path d="M34.21 74.635c-3.399 8.93-3.599 11.16-5.399 15.54 2.85-2.348 4.987-6.981 6.9-8.22-.33 3.02-1.9 9.12-.15 15.8.66 2.53 1.5 4.98 2.511 7.37.26-3.56.79-13.93 4.079-17.08-2.26 5.95-3.55 13.73-3.55 19.8-6.41-11.17-4.939-17.3-3.43-25.09-2.34 2.67-3 6.01-7.49 8.73 1.53-3.23 2.021-7.07 5.19-14.94-2.63 2.63-4.4 3.68-7.91 4.72 1.318-2.181 2.478-4.946 3.497-7.194h1.082c-.999 2.154-2.031 4.326-3.289 6.204 2.63-1.03 5.149-2.95 7.959-5.64zm121.792 15.833c.216.149 1.676 1.152 2.332 1.728 2.736 2.402 6.264 4.594 6.018 15.28 4.543-7.848 3.954-19.464 2.539-25.79 2.017-2.169 3.379-4.842 4.074-7.094l-1.203-.011c-.582 1.969-1.655 4.34-3.141 6.185-.56-2.165-.865-4.579-1.019-5.966l-.108-.2c.217 8.956 3.115 19.588-.243 29.516-.606-7.783-2.41-9.201-9.249-13.648z" fill="#221512"/><path d="M195.417 199.778c-2.196-4.746-8.195-11.779-14.86-13.722-8.239-2.403-26.837-5.308-33.733-6.923-5.528-1.296-16.662-11.294-20.564-14.65-.7-.6-1.273-1.839-1.287-2.76-.139-10.864 4.195-39.724 4.195-39.724H70.833s4.334 28.859 4.193 39.724c-.011.921-.587 2.16-1.285 2.76-3.902 3.356-15.036 13.354-20.564 14.65-6.897 1.615-25.495 4.619-33.733 7.022-6.667 1.942-12.664 8.876-14.86 13.622-3.708 8.008-4.584 22.5-4.584 35h200c0-12.499-.877-26.991-4.583-34.999z" fill="#b36a33"/><path d="M159.156 184.058c24.342 3.542 34.586 8.708 37.794 50.721H200c0-12.5-.877-26.992-4.583-35-2.196-4.746-8.195-11.779-14.86-13.722-8.239-2.403-26.837-5.308-33.733-6.923-5.528-1.296-18.242-12.069-21.643-16.35 3.36 4.704 12.791 15.605 21.054 18.46 3.953 1.366 7.245 1.988 12.921 2.814zm-105.39-2.814c8.263-2.854 17.693-13.756 21.054-18.46-3.4 4.28-16.114 15.054-21.643 16.35-6.896 1.615-25.494 4.619-33.733 7.022-6.665 1.942-12.664 8.876-14.86 13.622-3.706 8.008-4.583 22.5-4.583 35h3.05c3.188-41.744 13.475-47.183 37.794-50.721 5.675-.825 8.968-1.447 12.921-2.813z" fill="#c27e4b"/><path d="M95.646 197.62s-5.074-1.609-7.083-2.379c-10.449-4.009-44.395-6.607-44.395-6.607s35.754 1.419 43.644 2.779c-.458-4.767-3.017-20.004-3.017-20.004s5.149 16.815 6.409 21.057c.674 2.268 4.442 5.154 4.442 5.154zm10.799-1.342c-.089.073-.191.168-.302.268.113-.085.215-.174.302-.268zm-10.799 1.342s2.893 2.992 4.347 3.03c1.91.051 4.828-2.899 6.151-4.104-1.265.957-4.159 1.391-5.31 1.436-1.33.051-5.188-.362-5.188-.362zm21.018-7.519c-1.545.248-4.386.789-4.386.789l2.287-14.89c-.646 3.071-4.474 16.211-8.12 20.278 1.91-1.616 6.158-2.391 8.324-2.704 10.236-1.484 10.232-1.483 41.062-4.94 0 0-29.071-.155-39.167 1.467z" fill="#a4581e"/><path d="M195.417 199.778c-2.196-4.746-8.195-11.779-14.86-13.722-8.239-2.403-26.837-5.308-33.733-6.923-5.528-1.296-16.662-11.294-20.564-14.65-.7-.6-1.273-1.839-1.287-2.76-.139-10.864 4.195-39.724 4.195-39.724H70.833s4.334 28.859 4.193 39.724c-.011.921-.587 2.16-1.285 2.76-3.902 3.356-15.036 13.354-20.564 14.65-6.897 1.615-25.495 4.619-33.733 7.022-6.667 1.942-12.664 8.876-14.86 13.622-3.708 8.008-4.584 22.5-4.584 35h200c0-12.499-.877-26.991-4.583-34.999z" fill="none" stroke="#853900" stroke-width="1.5"/><path d="M75.464 163.188c5.276 4.256 10.716 8.678 24.538 8.678 13.815 0 19.256-4.418 24.531-8.672-.188-.49-.305-.997-.312-1.461-.088-6.889 1.573-20.711 2.835-30.131-15.695-2.201-38.418-2.201-54.113 0 1.261 9.421 2.922 23.242 2.833 30.13-.005.456-.122.963-.312 1.456z" fill="url(#a)"/><path d="M111.806 235.888c-19.135 0-41.455-.074-68.233-.229l-23.679-.128c-14.298-.078-15.141-.094-16.887-.094l-4.899.007c-4.571-41.875 14.41-52.87 43.762-56.708 7.789-1.097 15.449-3.097 21.459-6.972 16.327 22.243 64.811 17.562 73.103-.629 1.39.53 2.539 1.215 3.977 1.734 4.666 3.433 11.072 5.836 17.628 6.199 26.008 1.441 44.419 12.996 44.057 54.64.003.165.004 1.175-.013 1.49-12.513 0-17.206.121-27.034.262-13.331.19-29.923.427-63.229.427l-.012.001z" fill="#653220"/><path d="M201.055 234.64c-.41-7.385-4.064-28.058-10.36-37.541-12.482-18.805-42.26-12.206-49.132-19.693-4.986 10.159-24.975 16.595-31.594 17.54 19.181-6.36 27.237-10.959 30.42-21.87 6.405 8.33 41.074 1.971 54.717 24.331 3.995 6.547 7.794 27.386 5.949 37.233zM55.811 177.628c1.357-.315 2.034-1.249 3.381-1.614l-1.426-1.891c-9.049 7.052-42.909 2.645-54.519 24.036-3.659 6.741-6.127 22.788-4.192 36.439.537-8.384.799-26.314 7.095-35.798 11.324-17.06 31.974-12.553 47.619-19.775 6.983 8.6 17.888 12.828 28.984 14.577-13.921-3.631-21.903-9.762-26.942-15.974z" fill="#744230"/><path d="M135.31 173.244c-5.532 11.514-47.35 24.923-70.93.879-1.466.622-5.852 2.112-5.852 2.112 17.176 23.386 67.511 23.534 80.909-.114-.059-.023-2.765-2.185-4.127-2.877z" fill="#562413"/><path d="M136.38 171.002c-9.413 18.822-58.397 21.485-73.012.632-5.337 1.578-10.469 4.941-15.636 5.782-30.92 4.605-53.778 6.919-49.732 58.136 9.94 0-6.611-.065 45.571.215 123.59.71 119.562-.461 158.606-.461.029-.14.015-1.452.021-1.596 2.096-56.436-30.852-53.104-53.12-56.995-3.144-.718-6.066-2.773-8.635-3.945-1.419-.649-2.625-1.232-4.063-1.768zm-73.366 1.263c12.974 23.392 64.219 18.699 74.113.101 1.2.504 1.507.704 2.898 1.197-10.248 21.489-60.942 28.337-81.677 1.163.146-.041 3.204-1.913 4.666-2.461zM-.845 234.778c-2.421-26.431 1.797-48.043 32.78-53.345 10.276-1.896 16.557-1.962 25.384-5.794 16.763 27.405 72.098 23.158 83.598-1.305 1.652 1.409 4.228 3.03 7.405 3.785 18.098 4.299 54.838-.894 52.898 56.658-54.057-.702-98.865-2.344-202.065.001z" fill="#370f01"/><path d="M45.443 82.722c-1.469-2.433-6.648-7.545-10.31-6.61-2.979.762-6.032 3.243-6.032 7.473-.001 6.553 1.496 9.338 2.501 12.311.856 2.53 3.915 7.167 5.761 8.964 2.273 2.208 5.957 9.35 6.404 10.079.705 1.154 1.877 2.988 4.043 3.057 3.29.104 7.085-2.105 7.323-3.488 1.287-7.499-5.87-25.456-9.69-31.786z" fill="#b36a33" stroke="#853900" stroke-width="1.5"/><path d="M43.596 99.086c-.142-.558.007-1.495.152-2.4.131-.826.255-1.605.18-2.157-.285-2.064-1.892-5.988-2.942-8.115-1.208-2.446-4.117-5.528-6.568-6.322-1.013-.329-1.681.064-2.067.463-.284.293-.347.637-.254.678.093.041.304-.244.61-.513.25-.22.617-.408 1.122-.369-.203 1.028-3.138 4.222-1.381 10.392.822 2.888 1.992 5.214 2.202 5.549.032.352.083.696.159 1.031.991 4.357 7.286 11.54 8.785 13.162.277.3.567.477.639.406.072-.072-.1-.368-.376-.671-1.48-1.611-7.734-8.777-8.69-12.981-1.754-7.702 1.916-7.832 4.499-12.473.397.657.733 1.288.993 1.814.203.413.429.896.661 1.417-.458.729-5.059 6.055-3.889 10.317.433 1.572 3.779 3.598 5.073 4.153.712.306.979.763 1.289 1.291.359.613.767 2.796 1.95 3.298.241.103.458.146.651.146a1.2 1.2 0 00.774-.28c.019.267.018.612.008.93-.011.411.046.748.147.756s.208-.317.221-.727c.016-.504.014-1.128-.077-1.426-.265-.88-1.076-1.871-1.934-2.921-.845-1.031-1.718-3.587-1.937-4.448zm-8.98-3.863c-2.322-6.84.993-12.744 1.514-13.684.908.787 2.662 1.841 3.314 2.87-3.114 5.395-4.633 1.642-4.828 10.814zm11.268 11.494c-1.072-.455-1.431-2.555-1.778-3.147-.314-.536-.639-1.089-1.461-1.443a3.848 3.848 0 01-.578-.328c-3.861-5.758.291-8.626 1.027-9.163.226.734.396 1.407.47 1.946.068.496-.058 1.284-.179 2.045-.15.944-.306 1.92-.145 2.553.24.941 1.14 3.529 2.01 4.594.772.945 1.564 1.919 1.835 2.713-.115.158-.481.535-1.201.23z" fill="#853900"/><path d="M154.295 82.722c1.469-2.433 6.648-7.545 10.311-6.61 2.979.762 6.031 3.243 6.031 7.473.002 6.553-1.496 9.338-2.5 12.311-.857 2.53-3.916 7.167-5.762 8.964-2.273 2.208-5.957 9.35-6.404 10.079-.705 1.154-1.877 2.988-4.043 3.057-3.291.104-7.086-2.105-7.324-3.488-1.286-7.499 5.871-25.456 9.691-31.786z" fill="#b36a33" stroke="#853900" stroke-width="1.5"/><path d="M154.205 103.536c-.857 1.05-1.668 2.041-1.934 2.921-.09.298-.092.922-.076 1.426.014.409.119.734.221.727s.158-.345.146-.756c-.01-.317-.01-.663.01-.93.186.152.439.28.773.28.193 0 .41-.043.65-.146 1.184-.502 1.592-2.686 1.951-3.298.311-.528.576-.985 1.289-1.291 1.293-.555 4.639-2.581 5.072-4.153 1.17-4.262-3.432-9.588-3.889-10.317.232-.522.457-1.004.66-1.417.26-.526.596-1.157.994-1.814 2.582 4.641 6.252 4.771 4.498 12.473-.957 4.204-7.209 11.37-8.689 12.981-.275.303-.447.599-.377.671.072.07.361-.106.639-.406 1.5-1.622 7.795-8.805 8.785-13.162.076-.334.129-.679.16-1.031.209-.334 1.379-2.661 2.201-5.549 1.758-6.17-1.178-9.364-1.381-10.392.504-.039.871.149 1.123.369.305.269.518.553.609.513.094-.041.029-.385-.254-.678-.387-.399-1.055-.792-2.068-.463-2.451.794-5.359 3.876-6.568 6.322-1.049 2.126-2.656 6.05-2.941 8.115-.074.552.049 1.331.18 2.157.145.906.293 1.843.152 2.4-.217.859-1.09 3.415-1.936 4.448zm6.09-19.127c.652-1.029 2.406-2.083 3.313-2.87.521.939 3.836 6.843 1.516 13.684-.196-9.172-1.716-5.419-4.829-10.814zm-7.643 22.077c.271-.794 1.064-1.768 1.836-2.713.869-1.065 1.77-3.653 2.01-4.594.16-.632.006-1.608-.145-2.553-.121-.761-.248-1.55-.18-2.045.074-.539.244-1.212.471-1.946.734.537 4.887 3.405 1.025 9.163a3.752 3.752 0 01-.578.328c-.822.354-1.146.908-1.461 1.443-.346.592-.705 2.692-1.777 3.147-.718.306-1.085-.071-1.201-.23z" fill="#853900"/><path d="M100.002.867C66.384.92 39.082 28.536 39.134 62.56a62.416 62.416 0 002.002 15.634h.001c.012.054 11.542 38.591 14.02 51.25 1.382 7.06 9.063 15.656 16.531 20.849 6.967 4.845 11.263 11.574 28.313 11.574s21.346-6.729 28.313-11.574c7.468-5.192 15.149-13.789 16.531-20.849 2.479-12.658 14.009-51.196 14.02-51.25h.002a62.422 62.422 0 002.002-15.634C160.923 28.536 133.62.92 100.002.867z" fill="#b36a33"/><path d="M146.772 23.096c7.478 10.35 11.917 23.245 11.898 37.227a64.695 64.695 0 01-1.93 15.634h-.002c-.011.054-11.124 38.591-13.512 51.25-1.335 7.06-8.737 15.656-15.935 20.849-6.718 4.845-10.854 11.575-27.291 11.575-16.434 0-20.575-6.73-27.291-11.575-7.197-5.192-14.602-13.789-15.931-20.849-2.391-12.658-13.504-51.195-13.515-51.25a64.652 64.652 0 01-1.931-15.634c-.021-13.978 4.416-26.868 11.889-37.217-8.812 10.697-14.112 24.45-14.089 39.453a62.416 62.416 0 002.002 15.634h.001c.012.054 11.542 38.591 14.02 51.25 1.382 7.06 9.063 15.656 16.531 20.849 6.967 4.845 11.263 11.574 28.313 11.574s21.346-6.729 28.313-11.574c7.468-5.192 15.149-13.789 16.531-20.849 2.479-12.658 14.009-51.196 14.02-51.25h.002a62.422 62.422 0 002.002-15.634c.027-15.007-5.278-28.764-14.095-39.463z" fill="#ab6128"/><path d="M100.002.867C66.384.92 39.082 28.536 39.134 62.56a62.416 62.416 0 002.002 15.634h.001c.012.054 11.542 38.591 14.02 51.25 1.382 7.06 9.063 15.656 16.531 20.849 6.967 4.845 11.263 11.574 28.313 11.574s21.346-6.729 28.313-11.574c7.468-5.192 15.149-13.789 16.531-20.849 2.479-12.658 14.009-51.196 14.02-51.25h.002a62.422 62.422 0 002.002-15.634C160.923 28.536 133.62.92 100.002.867z" fill="none" stroke="#853900" stroke-width="1.5"/><path d="M99.983 143.169c-3.24 0-4.753-3.102-4.753-3.102l9.279-.067s-1.677 3.169-4.526 3.169z" fill="url(#b)"/><path d="M99.869 130.999c-8.472 0-12.247 2.608-15.517 6h31.035c-2.715-3.472-6.678-6-15.518-6z" fill="#fff"/><path d="M99.869 130.999c-8.472 0-12.247 2.608-15.517 6h31.035c-2.715-3.472-6.678-6-15.518-6z" fill="none" stroke="#853900" stroke-width=".75"/><path d="M83.071 89.125c-3.293-.784-4.969 1.059-9.809 1.166-8.057.177-9.938-.618-11.199-2.638a15.28 15.28 0 01-1.264-2.601l-.1-4.149c1.328-3.949 19.541-4.352 25.9 1.784.287.666.433 1.287.465 1.867-.19.958-.512 1.878-.947 2.749-.706.81-1.762 1.426-3.046 1.822z" fill="url(#c)"/><path d="M80.038 85.838a5.983 5.983 0 01-7.361 4.196 6.011 6.011 0 01-4.214-7.371 5.986 5.986 0 017.365-4.198 6.01 6.01 0 014.21 7.373z" fill="#7085b3" stroke="#2b4785" stroke-width=".5"/><path d="M78.717 82.673c-.569.873-2.036.925-3.276.117-1.24-.808-1.784-2.17-1.215-3.043.568-.872 2.036-.924 3.276-.117 1.238.809 1.782 2.172 1.215 3.043z" fill="url(#d)" opacity=".7" transform="translate(.25 .25)"/><path d="M53.294 83c.809 10.899 11.637 23.583 20.506 22.236 10.498.106 20.864-7.868 20.864-22.305s-5.087-26.528-21.127-26.528c-11.5-.001-20.243 12.16-20.243 26.597zm8.458-.477c-.506-2.285 5.191-3.973 12.711-3.051 7.518.923 12.738 5.524 12.052 7.844-.38 1.286-10.639 3.245-14.253 2.847-3.664-.405-9.288-2.123-10.51-7.64z" fill="#b36a33"/><path d="M72.262 90.163c3.614.398 13.873-1.561 14.253-2.847.687-2.32-4.534-6.921-12.052-7.844-6.46-.792-11.563.344-12.556 2.128.898-6.4 7.7-11.397 15.987-11.434 8.911-.037 16.148 5.676 16.172 12.765.021 7.088-7.185 12.862-16.095 12.902-8.913.037-16.149-5.676-16.173-12.764 0-.105.016-.208.019-.313 1.33 5.327 6.834 7.008 10.445 7.407z" fill="url(#e)"/><path d="M61.752 82.523c-.506-2.285 5.191-3.973 12.711-3.051 7.518.923 12.738 5.524 12.052 7.844-.38 1.286-10.639 3.245-14.253 2.847-3.664-.405-9.288-2.123-10.51-7.64z" fill="url(#f)"/><path d="M62.148 77.417c4.208-1.978 9.35-2.16 13.838-1.005 2.404.561 4.965 1.285 7.063 2.638 1.945 1.135 3.525 2.5 5.002 4.19-1.342-1.701-2.773-3.118-4.623-4.27-2.276-1.416-4.769-2.294-7.364-2.916-4.586-1.126-9.722-.87-13.916 1.363z" fill="#853900"/><path d="M62.769 78.02c.88-.352 4.065-1 5.456-1.066 1.687-.082 5.073.125 6.735.424 3.374.608 9.251 2.483 11.678 7.184.746 1.445.074 2.456-.123 2.675.3-2.426-4.838-6.746-12.052-7.604-7.52-.894-13.217.743-12.711 2.958 1.222 5.348 6.846 7.013 10.51 7.405 4.099.439 11.684-1.539 12.686-1.753-1.999 1.009-7.524 2.095-9.767 2.303-.744.07-2.24.104-2.986.085-5.949-.158-10.169-3.175-11.729-7.26-1.002-2.626.094-4.469 2.303-5.351z"/><path d="M116.529 89.125c3.293-.784 4.969 1.059 9.809 1.166 8.057.177 9.938-.618 11.199-2.638a15.28 15.28 0 001.264-2.601l.1-4.149c-1.328-3.949-19.541-4.352-25.9 1.784-.287.666-.433 1.287-.465 1.867.19.958.512 1.878.947 2.749.706.81 1.762 1.426 3.046 1.822z" fill="url(#g)"/><path d="M131.538 85.838a5.983 5.983 0 01-7.362 4.196c-3.196-.876-5.084-4.178-4.214-7.371a5.986 5.986 0 017.365-4.198 6.012 6.012 0 014.211 7.373z" fill="#7085b3" stroke="#2b4785" stroke-width=".5"/><path d="M130.717 82.673c-.569.873-2.036.925-3.276.117-1.239-.808-1.784-2.17-1.215-3.043.568-.872 2.035-.924 3.275-.117 1.239.809 1.783 2.172 1.216 3.043z" fill="url(#h)" opacity=".7" transform="translate(-.25 .25)"/><path d="M126.063 56.402c-16.04 0-21.127 12.091-21.127 26.528s10.366 22.412 20.864 22.305c8.869 1.347 19.697-11.337 20.506-22.236.001-14.436-8.743-26.597-20.243-26.597zm1.276 33.761c-3.614.398-13.873-1.561-14.253-2.847-.687-2.32 4.534-6.921 12.052-7.844 7.52-.922 13.217.767 12.711 3.051-1.222 5.517-6.846 7.235-10.51 7.64z" fill="#b36a33"/><path d="M127.339 90.163c-3.614.398-13.873-1.561-14.253-2.847-.687-2.32 4.534-6.921 12.052-7.844 6.46-.792 11.563.345 12.556 2.128-.898-6.4-7.7-11.397-15.987-11.434-8.911-.037-16.148 5.676-16.172 12.765-.021 7.088 7.185 12.862 16.095 12.902 8.913.037 16.149-5.676 16.173-12.764 0-.105-.016-.208-.019-.313-1.331 5.327-6.835 7.008-10.445 7.407z" fill="url(#i)"/><path d="M137.849 82.523c.506-2.285-5.191-3.973-12.711-3.051-7.518.923-12.738 5.524-12.052 7.844.38 1.286 10.639 3.245 14.253 2.847 3.664-.405 9.288-2.123 10.51-7.64z" fill="url(#j)"/><path d="M137.452 77.417c-4.208-1.978-9.35-2.16-13.838-1.005-2.404.561-4.965 1.285-7.063 2.638-1.945 1.135-3.525 2.5-5.002 4.19 1.342-1.701 2.773-3.118 4.623-4.27 2.276-1.416 4.769-2.294 7.364-2.916 4.587-1.126 9.723-.87 13.916 1.363z" fill="#853900"/><path d="M136.832 78.02c-.88-.352-4.065-1-5.456-1.066-1.687-.082-5.073.125-6.735.424-3.374.608-9.251 2.483-11.678 7.184-.746 1.445-.074 2.456.123 2.675-.3-2.426 4.838-6.746 12.052-7.604 7.52-.894 13.217.743 12.711 2.958-1.222 5.348-6.846 7.013-10.51 7.405-4.099.439-11.684-1.539-12.686-1.753 1.999 1.009 7.524 2.095 9.767 2.303.744.07 2.24.104 2.986.085 5.949-.158 10.169-3.175 11.729-7.26 1.002-2.626-.094-4.469-2.303-5.351z"/><path d="M141 113.974c.035 22.622-18.292 40.994-40.938 41.025-22.642.037-41.028-18.273-41.063-40.9-.035-22.62 18.292-41.064 40.937-41.1 22.643-.035 41.031 18.35 41.064 40.975z" fill="url(#k)"/><path d="M137.5 53.999c0 20.711-16.789 37.5-37.499 37.5-20.711 0-37.501-16.789-37.501-37.5s16.79-37.5 37.501-37.5c20.71 0 37.499 16.789 37.499 37.5z" fill="url(#l)"/><path d="M74.799 71.28c-4.425-.475-21.252 3.714-21.252 3.714s16.789-6.74 23.757-5.667c5.188.798 14.397 5.077 12.706 7.339-1.361 1.821-5.602-4.354-15.211-5.386zm34.932 5.118c-1.713-2.292 7.592-6.31 13.546-6.804 7.117-.59 22.914 4.085 22.914 4.085s-15.9-2.628-20.377-2.106c-9.816 1.145-14.704 6.67-16.083 4.825z" fill="#504543"/><path d="M92.142 118.55c3.337-3.304 12.982-2.522 15.725-.181-5.824 2.776-9.358 1.985-15.725.181z" fill="#ab6128"/><path d="M100.067 120.999c-1.354 0-2.731-.479-3.924-.945a6.763 6.763 0 00-1.495-.417c-.667-.099-1.898.078-2.391-.322-.524-.428-.097-1.101.619-1.126.883.011 1.778.062 2.635.241 1.5.317 2.783 1.135 4.373 1.236 1.205.076 2.544-.524 3.622-.883.847-.282 3.679-1.335 4.362-.414.423.568-.255.973-.905 1.002-.805.035-1.598.251-2.342.483-1.438.45-2.971 1.145-4.554 1.145z" fill="#853900"/><path d="M99.985 116.39c.637 0 2.125-.742 1.881-2.181-1.445-8.496-1.881-23.21-1.881-23.21s-1.105 17.234-2.049 23.21c-.229 1.455 1.329 2.181 2.049 2.181z" fill="#d29466" opacity=".2"/><path d="M57.802 28.734c9.237-8.79 44.55-.761 55.197.239 10.142.782 23.526-30.339 43.604 49.479-.045 3.839-1.289 10.633-2.796 15.468-.145-.101-.286-.208-.431-.306 0 0 .518 3.257-6.059 14.39.349-8.073-1.212-13.893-2.492-21.414-15.709-19.987-30.389-24.674-41.56-28.155 7.5 8.755 14.919 16.79 18.165 25.564-13.646-9.576-32.408-28.884-32.408-28.884S90.426 59.819 116.709 84c-10.943-2.68-31.346-13.68-45.637-34.952-2.746 4.5 12.4 30.794 12.827 31.801-7.663-6.086-18.079-14.636-20.755-24.62 0 0-1.571 4.043-2.662 8.635-2.878 12.162-2.904 27.281-3.429 31.125-1.665-8.721-1.925-18.482-1.922-18.355-3.905 17.893-.419 30.394-.352 34.724-5.198-10.435-10.604-22.897-12.177-34.534.002 0 11.619-50.69 15.2-49.09z" fill="#504543" opacity=".1"/><path d="M29.382 67.866c.08-5.39 1.12-13.92 2.921-18.78-3.28 3.39-7.41 7.39-10.78 9.5 4.46-3.86 5.841-7.16 15.921-28.3 6.189-12.98 10.287-26.75 22.378-28.37 4.079-.56 8.05.99 11.779 2.59 9.61-8.79 21.59-12.331 32.671-11.331 33.879 2.51 42.916 24.391 61.036 28.771-2.84.83-7.616-.468-10.336-1.748 3.75 5.06 2.422 4.531 10.692 12.801 3.369 3.34 6.482 7.444 10.543 9.854-5.449-.681-8.313-4.834-16.282-9.104 1.149 1.84 5.249 8.094 11.929 14.494 2.87 2.74 7.6 6.584 10.898 8.914-2.409-.96-9.488-3.726-15.607-9.152 3.169 4.531 12.262 12.94 8.145 29.881-.832-7.406.002-16.415-7.049-20.895.784 3.301 3.814 10.222 1.604 17.708H158.91c-.047 3.839-1.342 10.934-2.908 15.769-.151-.101-.297-.208-.449-.306 0 0-.503 3.257-7.344 14.39.363-8.073-.222-13.893-1.553-21.414-16.346-19.987-31.619-24.674-43.241-28.155 7.804 8.755 13.813 18.837 17.192 27.612-11.046-11.66-33.834-29.767-33.834-29.767s.364 4.866 27.712 29.046c-9.449-5.795-29.698-15.006-44.566-36.278-2.858 4.5 10.819 30.794 11.264 31.801-7.974-6.086-14.646-16.636-17.435-26.62 0 0-3.716 6.043-4.847 10.635-2.995 12.162-1.984 22.281-2.528 26.125-1.732-8.721-3.042-13.482-3.039-13.355-4.066 17.893.604 32.394.672 36.724-5.406-10.435-12.072-24.998-13.709-36.635H28.7c.669-4.327.173-4.339.682-6.405z" fill="#504543"/><path d="M22.764 37.286c3.811-.17 5.876.099 10.356-.261.67-1.53 2.738-5.55 3.438-7.07-3.499 3.1-10.764 7.021-13.794 7.331z" fill="#31221f"/><path d="M120 6c16.027-2.29 30.9 14.922 44.42 16.002-2.873.59-7.386-1.022-9.989-2.247 3.75 5.06 2.74 5.09 11.011 13.36 3.369 3.34 5.77 6.92 9.83 9.33-4.352-.722-7.869-4.955-15.656-9.179C150.467 19.744 136.495 7.833 120 6zM63.748 50.777s-3.716 6.043-4.847 10.635c-2.995 12.162-1.984 22.281-2.528 26.125-1.732-8.721-3.042-13.482-3.039-13.355-.098.428-.185.851-.272 1.275-3.569 17.303.878 31.222.944 35.449-5.406-10.435-12.072-24.898-13.709-36.534H28.7c.669-4.328.173-4.44.682-6.505.08-5.39 1.12-13.92 2.921-18.78-3.28 3.39-7.41 7.39-10.78 9.5 4.384-3.794 5.799-7.06 15.417-27.242C39.903 26.734 43.257 22.367 47 18c-7 9-11 20-12 31 2-6 8.079-10.064 12.204-14.833C42.858 40.958 39.721 47.555 38 57c1.263-2.166 3.05-3.376 4.352-5-2.063 6.007-1.46 9.452-.544 14.033C42.71 58.906 44.209 47.331 48 41c0 11-3.411 21.569 1.005 33.277-.041-8.667 3.242-16.555 5.526-22.481-.454 2.152-.105 7.455.016 9.648 1.278-6.668 2.146-13.21 6.033-18.583-1.734-9.968-4.468-20.679-.784-23.305-5.987 10.398 12.487 19.472 11.935 19.03 10.333 5.74 16.882 6.44 22.24 7.796-3.495-2.813-5.311-6.313-8.84-9.096 10 3.45 23.963 14.121 31.086 18.481 1.902 2.784 2.074 3.492 2.641 4.833-4.081-1.928-9.18-3.742-15.442-5.618 14.409 16.165 11.53 12.905 17.192 27.612-9.815-10.361-9.8-10.658-32.423-28.645 2.733 3.566 9.971 13.486 26.301 27.924-3.69-2.263-31.135-17.061-44.566-36.278-.641 5.223.076 8.654 11.264 31.801-2.048-.627-10.016-7.755-17.436-26.619zm55.109 9.824c8.503 4.017 17.955 10.501 27.799 22.537 1.331 7.521 1.916 13.341 1.553 21.414a147.564 147.564 0 003.684-6.309c3.342-6.095 3.66-8.081 3.66-8.081.152.098.298.205.449.306 1.566-4.835 2.861-11.629 2.908-15.468h10.733c2.212-7.485-1.049-15.243-1.833-18.544 7.051 4.48 7.24 12.74 7.57 20.16 3.37-16.67-5.95-24.64-8.9-29.41 6.17 4.79 13.061 8.53 15.471 9.49-3.301-2.33-7.41-5.47-10.28-8.21-3.639-3.486-6.618-7.18-8.769-10.124C158.216 35.96 154.726 32.363 150 30c7.927 5.284 10.424 13.671 12.956 21.745-1.214-1.753-3.177-2.936-4.23-4.512 1.251 3.286 3.089 6.694 2.274 10.767-5-7-7-17-15-23 8.079 8.079 8.639 29.358 8.605 33.148C146.453 29.071 111.941-7.698 77 6c35-11 65 26 69 58-7-8-9-18-19-23 5 5 8 13 11 19-11-13-20-26-35-35 7 8 16 15 21 25 3 3 4 7 6 10-7-7-15.796-14.161-24.869-16.816 10.188 8.774 13.01 15.72 13.726 17.417z" fill="#413230"/><path d="M117.766 5.829c8.292-.029 31.523 6.494 43.094 29.199-12.396-17.209-25.146-25.136-43.094-29.199zm20.079 32.879C124.893 11.58 100.687 3.229 87.714 4.067c9.373-.602 35.792 9 50.131 34.641zM73.181 14.559c-.609-5.273-7.755-10.689-15.566-7.654-.671.261-1.261.737-1.929.979 8.528-3.081 16.322 1.499 17.495 6.675zm-2.401 3.407c-2.271-3.246-5.344-6.239-9.309-7.198C49.418 7.854 40.4 25.7 38.314 33.687c.263-1.003 10.596-25.068 23.497-22.066 3.721.849 6.603 3.492 8.969 6.345zm-1.206 2.305c-1.129 13.933 30.875 23.767 37.895 29.705-12.494-10.569-37.703-17.094-37.895-29.705zm55.219 30.878c-2.651-4.433-13.662-22.247-31.359-32.846-10.977-6.574-15.238-2.604-17.326-1.636 14.208-6.574 40.238 22.773 48.685 34.482z" fill="#31221f"/><path d="M154.605 30.218s-12.998-14.019-32.379-20.881c14.486 3.62 23.094 10.746 32.379 20.881zM122.58 10.545c8.373 2.862 22.848 18.934 24.674 22.069-4.724-8.111-15.824-19.726-24.674-22.069zM96.203 7.936c16.427 3.769 31.383 22.259 31.383 22.259-6.973-10.792-18.443-21.191-31.383-22.259zm-14.176 9.62c7.952 2.046 25.885 16.866 26.805 18.162-2.588-3.643-18.111-16.938-26.805-18.162zm-5.713 1.556c8.738 1.131 15.985 8.446 17.066 9.925-4.542-6.213-9.201-9.734-17.066-9.925zm-.872 2.767c8.537 8.845 21.252 11.429 25.864 17.449-6.371-8.316-18.071-10.236-25.864-17.449zM85.865 42.83c-11.211-6.084-18.966-11.368-20.703-12.851-1.836-1.565-6.52-5.33-3.095-9.151-2.542 1.67-2.01 5.382 1.396 8.925 3.704 3.854 21.4 13.077 22.402 13.077-.97-.527-.001 0 0 0zm7.896 3.54c-8.66-2.08-17.527-5.034-24.96-10.046-5.172-3.487-12.865-11.624-8.86-16.402 1.146-1.371 3.559-2.013 5.297-1.993-1.732-.021-3.829.4-5.168 1.556-3.872 3.344.268 11.895 6.736 16.54 7.827 5.621 17.656 8.348 26.955 10.345zm.435-34.38c1.66.332 3.306.552 4.901 1.161 13.539 5.162 26.441 21.077 26.441 21.077-6.974-10.417-18.718-21.047-31.342-22.238zm1.242 4.431c15.557 5.988 32.561 25.947 33.561 26.663-7.567-11.473-20.335-23.344-33.561-26.663zm-39.324 2.43C45.792 16.807 40.93 34.254 40.335 35.255c3.503-7.179 8.855-17.067 15.779-16.404zm.106 11.899c-8.761 8.218-6.864 18.622-6.717 23.478-.165-8.822 2.103-17.991 6.717-23.478z" fill="#5f5a59"/><path d="M31.491 50.465c-3.98 10.99-2.87 22.38-2.931 23.38-.079.171-.238.529-.317.703 1.05-.224.815-.006 1.079-.006 2.013-4.338 4.543-10.008 11.318-19.136-4.29 5.17-8.16 10.6-11.21 16.62 1.811-11.55 9.17-21.13 10.021-22.35-4.04 5.13-7.82 10.61-9.87 17.39.08-5.39 1.319-13.72 3.12-18.58-3.28 3.39-7.41 7.69-10.78 9.8 4.46-3.86 6.04-6.86 16.12-28 6.189-12.98 9.689-26.55 21.78-28.17 4.079-.56 8.05.79 11.779 2.39 9.61-8.79 21.59-11.83 32.671-10.83 33.879 2.51 42.409 23.86 60.529 28.24-2.84.83-7.65-.88-10.37-2.16 3.75 5.06 2.74 5.09 11.011 13.36 3.369 3.34 5.77 6.92 9.83 9.33-4.4-.73-7.94-5.05-15.91-9.32 1.149 1.84 5.629 8.96 12.31 15.36 2.87 2.74 6.979 5.88 10.28 8.21-2.41-.96-9.301-4.7-15.471-9.49 2.95 4.77 12.271 12.74 8.9 29.41-.33-7.42-.52-15.68-7.57-20.16.784 3.301 4.045 11.059 1.833 18.544h1.192c2.142-6.938-.861-13.751-2.085-17.224 6.409 5.8 6.31 18.31 5.67 24.379 2.521-6.85 3.479-13.449 1.46-20.489-1.13-3.96-3.5-7.46-5.96-10.71-.17-.23-.351-.46-.521-.69 4.69 3.76 10.521 7.08 16.11 8.14 0 0-17.069-12.22-24.31-23.26 1.8 1.29 4.25 3.34 6.64 4.95 3.45 2.35 6.17 3.54 10.14 3.04-4.72-2.17-7.83-6.79-11.149-10.25-7.37-7.74-4.36-3.42-10.56-11.66 5 2.04 7.649 1.84 10.67.75-1.701-.4-3.48-.87-5.08-1.49-13.41-5.19-28.451-28.98-60.24-29.1-10.9-.05-22.641 4.17-30.32 12.49-1.33-.61-2.68-1.13-4.04-1.57-17.26-5.55-23.17 10.32-30.74 26.41-2.88 2.39-8.47 7.94-16.029 8.68 3.67.26 7.54.58 12.06.2-6.62 15.06-6.979 16.7-15.57 23.75 7.35-2.551 9.68-5.471 14.51-10.881zm4.47-19.71c-.7 1.52-2.37 4.34-3.04 5.87-4.48.36-5.55.39-9.36.56 3.03-.31 8.9-3.33 12.4-6.43zm3.977 39.784c0 1.85 2.122 11.566 4.412 17.556-1.18-6.81-1.41-13.92-1.229-20.82a79.98 79.98 0 013.34-20.95c-4.72 19.62-2.17 45.13 7.229 63.271-1.909-9.51-3.02-19.14-1.81-28.82.28-2.24.66-4.46 1.16-6.66 0 0-.92-8.37 1.49-22.32-1.641 11.57-.5 22.83 1.76 34.21-.22-8.28.2-16.63 2.32-24.67 1.159-4.4 2.439-5.78 4.5-10.88-1.131-4.1-1.711-8.32-2.11-12.54 1.93 12.83 5.399 20.15 12.35 30.55 2.061 3.07 4.2 5.89 7.16 8.15-2.08-3.64-8.96-19.1-9.37-20.14-1.37-3.47-2.2-7.06-1.569-10.78-2.04-3.2-3.83-6.56-5.46-9.99 5.229 9.7 12.039 18.21 20.34 25.49 4.29 3.77 8.859 7.25 13.56 10.48 4.841 3.33 10.04 5.93 15.03 8.99-6.52-5.46-12.99-11.4-17.41-16.21-2.68-2.92-5.81-5.87-7.97-9.21-2.15-3.33-3.08-7.14-4.78-10.7 1.69 2.91 2.9 6.02 4.15 8.13.31.52 11.819 9.16 16.89 13.98 6.44 6.11 9.75 8.16 15.851 14.6-2.791-6.18-3.521-9.17-11.131-19.26-5.02-6.66-7.09-7.03-13.779-17.45 1.729 2.37 3.479 4.67 5.47 6.83 1.04 1.13 2.1 2.22 3.17 3.32 6.21 1.86 11.96 2.92 21.659 8.94 16.671 10.35 20.201 18.04 26.971 24.64-1.2-4.17-4.88-11.15-8.18-16.9-3.01-5.25-6.32-10.68-9.99-15.14 4.641 4.16 8.07 9.47 11.13 14.84 3.22 5.68 6.81 11.79 7.899 18.31-2.109-1.62-4.01-3.43-5.869-5.34 1.119 6.33 1.73 12.93 1.439 19.36 9.016-14.682 12.535-35.524 9.849-48.787 6.943 27.12-5.726 44.18-11.658 54.876.46-6.54-.2-21.98-.71-26.4-2.21-2.759-17.912-19.588-41.29-27.14 4.12 4.12 7.729 8.4 10.58 13.51 2.61 4.7 5.1 9.62 6.6 15.03-5.3-5.3-11.079-10.12-16.739-15.01-5.82-5.03-11.44-10.28-17.24-15.33 1.569 2.35 3.42 4.57 14.779 15.65 5.99 5.85 15.33 14.29 15.53 14.51-1-.38-17.76-9.09-25.62-15.05-8.22-6.23-17.02-14.11-22.58-22.81-.489 6.01 3.061 12.45 4.9 16.33 2 4.21 4.979 11.6 8.229 16.96-5.04-2.96-8.85-7.15-11.92-12.14-3.189-5.18-6.06-10.19-7.84-16.03-1.5 2.98-3.14 5.96-3.84 9.25-.74 3.46-1.229 6.95-1.57 10.47-.67 7.07-1.43 14.33-1.02 21.44-1.74-5.47-3.07-10.94-3.64-16.67-1.7 9.52-.091 23.48 1.779 37.28-5.149-7.021-9.5-17.16-11.99-26.3-1.639-6.04-3.492-12.546-3.212-16.506z" fill="#221512"/><path d="M133.86 107.53c-3.25 0-6.62-.36-9.49-1-4.69-1.06-10.54-5.25-14.31-11.5-4.14-6.86-5.05-11.74-3.74-16.6 1.68-6.27 12.41-8.5 21.88-8.5 9.74 0 21.02 2.32 23.75 6.75 4.6 7.46 1.42 20.89-1.26 25-3.45 5.28-12.92 5.85-16.83 5.85z" fill="url(#m)"/><path d="M66.14 107.53c3.25 0 6.62-.36 9.49-1 4.69-1.06 10.54-5.25 14.31-11.5 4.14-6.86 5.05-11.74 3.74-16.6-1.68-6.27-12.41-8.5-21.88-8.5-9.74 0-21.02 2.32-23.75 6.75-4.6 7.46-1.42 20.89 1.26 25 3.45 5.28 12.92 5.85 16.83 5.85z" fill="url(#n)"/><path d="M130.27 67.73c-12.71 0-20.02 2.96-30.27 2.96s-17.55-2.96-30.27-2.96c-15.11.33-25.35 3.2-27.73 5.02v7.02c2.63 1.38.92 5.3 3.36 16.52 2.21 10.16 9.44 11.53 14.62 12.41 7.33 1.23 15.92.53 21.87-2.99 7.65-4.52 12.17-12.77 13.93-20.23.98-4.16 3.75-3.89 4.23-3.89.48 0 3.25-.27 4.23 3.89 1.75 7.46 6.27 15.71 13.93 20.23 5.95 3.51 14.53 4.22 21.87 2.99 5.17-.87 12.41-2.24 14.62-12.41 2.44-11.22.73-15.14 3.36-16.52v-7.02c-2.4-1.82-12.64-4.68-27.75-5.02zm-54.75 38.31c-8.43 1.9-21.83 1.43-25.79-4.64-2.59-3.97-5.7-17.25-1.25-24.47 4.73-7.67 41.58-10.06 44.72 1.62 2.47 9.19-6.85 25.04-17.68 27.49zm74.75-4.64c-3.96 6.07-17.35 6.54-25.79 4.64-10.83-2.44-20.15-18.3-17.68-27.49 3.14-11.68 40-9.29 44.72-1.62 4.45 7.21 1.34 20.5-1.25 24.47z" fill="#210d34"/><path d="M155.98 73.62c.65.82.55 1.71.45 3.55.06-2.11-.44-2.98-1.03-3.49-.84-.98-5.4-2.84-7.9-3.45 3.28.59 7.37 2.05 8.48 3.39zm-2.45 19.28c-1.13 5.08-1.54 7.88-4.33 10.42-2.66 2.43-7.12 3.38-10.58 3.66 5.4-.21 8.77-1.65 10.87-3.53 2.56-2.27 3.29-5.23 4.04-10.55zM44.02 73.62c-.65.82-.55 1.71-.45 3.55-.06-2.11.44-2.98 1.03-3.49.84-.98 5.4-2.84 7.9-3.45-3.28.59-7.37 2.05-8.48 3.39zm6.48 29.84c2.1 1.87 5.48 3.32 10.87 3.53-3.47-.28-7.92-1.23-10.58-3.66-2.79-2.54-3.19-5.34-4.33-10.42.76 5.31 1.49 8.27 4.04 10.55z" fill="#2e1843"/><path d="M124.31 68.48c-7.88.59-19.23 2.91-24.31 2.91-5.08 0-16.43-2.32-24.31-2.91-8.84-.66-17.82.41-22.68 1.58.34.04.64.06 1.02.11 7.18-1.43 12.83-1.59 19.45-1.37 7.02.23 21.24 2.97 26.51 2.87 5.27.1 19.5-2.64 26.51-2.87 6.62-.22 12.28-.06 19.45 1.37.38-.05.68-.07 1.02-.11-4.84-1.16-13.82-2.23-22.66-1.58z" fill="#3c2553"/></svg>