<svg xmlns="http://www.w3.org/2000/svg" width="500" height="500" viewBox="0 0 200 200" overflow="hidden"><defs><radialGradient id="i" cx="100" cy="114" r="41" gradientUnits="userSpaceOnUse" class="svga-on-canvas-facehighlight-gradient-single-0"><stop stop-opacity=".5" stop-color="#f8d3b8" offset="0"/><stop stop-opacity="0" stop-color="#e9b995" offset=".9"/></radialGradient><radialGradient id="j" cx="100" cy="54" r="37" gradientUnits="userSpaceOnUse" class="svga-on-canvas-facehighlight-gradient-single-1"><stop stop-opacity=".5" stop-color="#f8d3b8" offset="0"/><stop stop-opacity="0" stop-color="#e9b995" offset=".9"/></radialGradient><radialGradient id="c" cx="126.682" cy="84.862" r="13.37" gradientTransform="matrix(-1.0172 0 0 1.0172 202.565 -1.47)" gradientUnits="userSpaceOnUse" class="svga-on-canvas-eyesback-gradient-left-0"><stop stop-color="#fff" offset="0"/><stop stop-color="#fdfefe" offset=".544"/><stop stop-color="#f6f8f9" offset=".74"/><stop stop-color="#eaeff2" offset=".879"/><stop stop-color="#d9e3e8" offset=".992"/><stop stop-color="#d8e2e7" offset="1"/></radialGradient><radialGradient id="f" cx="126.289" cy="84.862" r="13.371" gradientTransform="translate(-2.565 -1.47) scale(1.0172)" gradientUnits="userSpaceOnUse" class="svga-on-canvas-eyesback-gradient-right-0"><stop stop-color="#fff" offset="0"/><stop stop-color="#fdfefe" offset=".544"/><stop stop-color="#f6f8f9" offset=".74"/><stop stop-color="#eaeff2" offset=".879"/><stop stop-color="#d9e3e8" offset=".992"/><stop stop-color="#d8e2e7" offset="1"/></radialGradient><radialGradient id="d" cx="122.115" cy="84.345" fx="133.972" fy="84.379" r="16.863" gradientTransform="matrix(.9998 .0208 .0166 -.7998 -45.608 149.266)" gradientUnits="userSpaceOnUse" class="svga-on-canvas-eyesfront-gradient-left-3"><stop stop-color="#daa075" offset="0"/><stop stop-opacity=".3" stop-color="#daa075" offset=".7"/><stop stop-opacity="0" stop-color="#e9b995" offset="1"/></radialGradient><radialGradient id="e" cx="72.882" cy="102.392" r="22.097" gradientTransform="matrix(1.0455 -.0545 .0548 1.0391 -8.953 .43)" gradientUnits="userSpaceOnUse" class="svga-on-canvas-eyesfront-gradient-left-4"><stop stop-opacity="0" offset=".95"/><stop stop-opacity=".2" offset="1"/></radialGradient><radialGradient id="g" cx="121.716" cy="84.345" fx="133.573" fy="84.379" r="16.863" gradientTransform="matrix(-.9998 .0208 -.0166 -.7998 244.81 149.274)" gradientUnits="userSpaceOnUse" class="svga-on-canvas-eyesfront-gradient-right-3"><stop stop-color="#daa075" offset="0"/><stop stop-opacity=".3" stop-color="#daa075" offset=".7"/><stop stop-opacity="0" stop-color="#e9b995" offset="1"/></radialGradient><radialGradient id="h" cx="73.264" cy="102.408" r="22.097" gradientTransform="matrix(-1.0455 -.0545 -.0548 1.0391 208.953 .434)" gradientUnits="userSpaceOnUse" class="svga-on-canvas-eyesfront-gradient-right-4"><stop stop-opacity="0" offset=".95"/><stop stop-opacity=".2" offset="1"/></radialGradient><linearGradient id="b" x1="100" y1="142" x2="100" y2="139" gradientUnits="userSpaceOnUse" class="svga-on-canvas-mouth-gradient-single-0"><stop stop-color="#e1ac85" offset=".1"/><stop stop-color="#daa075" offset="1"/></linearGradient><linearGradient id="a" x1="100" y1="173" x2="100" y2="134" gradientUnits="userSpaceOnUse" class="svga-on-canvas-chinshadow-gradient-single-0"><stop stop-opacity=".8" stop-color="#daa075" offset="0"/><stop stop-color="#bb7440" offset=".7"/></linearGradient></defs><path d="M225 225H-25V-25h250v250z" fill="#00a8c6"/><path d="M24.147 14.53c-2.146 1.82-9.173 6.469-9.173 6.469S8.02 16.344 5.893 14.53c-2.69-2.292-2.351-6.441 0-8.82 2.35-2.384 6.435-2.403 9.081.844 2.825-3.278 6.734-3.228 9.083-.844 2.353 2.379 2.785 6.536.09 8.82zm55.91-8.82c-2.349-2.384-6.258-2.434-9.083.844-2.646-3.248-6.731-3.228-9.081-.844-2.351 2.379-2.69 6.528 0 8.82 2.127 1.813 9.081 6.469 9.081 6.469s7.027-4.648 9.173-6.469c2.695-2.284 2.263-6.441-.09-8.82zm57 0c-2.349-2.384-6.258-2.434-9.083.844-2.646-3.248-6.731-3.228-9.081-.844-2.351 2.379-2.69 6.528 0 8.82 2.128 1.813 9.081 6.469 9.081 6.469s7.027-4.648 9.174-6.469c2.695-2.284 2.261-6.441-.091-8.82zm57 0c-2.349-2.384-6.258-2.434-9.083.844-2.646-3.248-6.731-3.228-9.081-.844-2.351 2.379-2.69 6.528 0 8.82 2.128 1.813 9.081 6.469 9.081 6.469s7.027-4.648 9.174-6.469c2.695-2.284 2.261-6.441-.091-8.82zm-142 22.5c-2.349-2.384-6.258-2.434-9.083.844-2.646-3.248-6.731-3.228-9.081-.844-2.351 2.379-2.69 6.528 0 8.82 2.127 1.813 9.081 6.469 9.081 6.469s7.027-4.648 9.173-6.469c2.695-2.284 2.263-6.441-.09-8.82zm56.502 0c-2.349-2.384-6.258-2.434-9.085.844-2.646-3.248-6.731-3.228-9.081-.844-2.351 2.379-2.69 6.528 0 8.82 2.127 1.813 9.081 6.469 9.081 6.469s7.03-4.648 9.175-6.469c2.695-2.284 2.263-6.441-.09-8.82zm56.996 0c-2.349-2.384-6.258-2.434-9.083.844-2.646-3.248-6.731-3.228-9.081-.844-2.351 2.379-2.69 6.528 0 8.82 2.128 1.813 9.081 6.469 9.081 6.469s7.027-4.648 9.174-6.469c2.695-2.284 2.261-6.441-.091-8.82zM24.147 60.03c-2.146 1.82-9.173 6.469-9.173 6.469S8.02 61.844 5.893 60.03c-2.69-2.292-2.351-6.441 0-8.82 2.35-2.384 6.435-2.403 9.081.844 2.825-3.278 6.734-3.228 9.083-.844 2.353 2.379 2.785 6.536.09 8.82zm55.91-8.82c-2.349-2.384-6.258-2.434-9.083.844-2.646-3.248-6.731-3.228-9.081-.844-2.351 2.379-2.69 6.528 0 8.82 2.127 1.813 9.081 6.469 9.081 6.469s7.027-4.648 9.173-6.469c2.695-2.284 2.263-6.441-.09-8.82zm57 0c-2.349-2.384-6.258-2.434-9.083.844-2.646-3.248-6.731-3.228-9.081-.844-2.351 2.379-2.69 6.528 0 8.82 2.128 1.813 9.081 6.469 9.081 6.469s7.027-4.648 9.174-6.469c2.695-2.284 2.261-6.441-.091-8.82zm57 0c-2.349-2.384-6.258-2.434-9.083.844-2.646-3.248-6.731-3.228-9.081-.844-2.351 2.379-2.69 6.528 0 8.82 2.128 1.813 9.081 6.469 9.081 6.469s7.027-4.648 9.174-6.469c2.695-2.284 2.261-6.441-.091-8.82zm-142 21c-2.349-2.384-6.258-2.434-9.083.844-2.646-3.248-6.731-3.228-9.081-.844-2.351 2.379-2.69 6.528 0 8.82 2.127 1.813 9.081 6.469 9.081 6.469s7.027-4.648 9.173-6.469c2.695-2.284 2.263-6.441-.09-8.82zm56.502 0c-2.349-2.384-6.258-2.434-9.085.844-2.646-3.248-6.731-3.228-9.081-.844-2.351 2.379-2.69 6.528 0 8.82 2.127 1.813 9.081 6.469 9.081 6.469s7.03-4.648 9.175-6.469c2.695-2.284 2.263-6.441-.09-8.82zm56.996 0c-2.349-2.384-6.258-2.434-9.083.844-2.646-3.248-6.731-3.228-9.081-.844-2.351 2.379-2.69 6.528 0 8.82 2.128 1.813 9.081 6.469 9.081 6.469s7.027-4.648 9.174-6.469c2.695-2.284 2.261-6.441-.091-8.82zM24.147 103.03c-2.146 1.82-9.173 6.469-9.173 6.469s-6.954-4.655-9.081-6.469c-2.69-2.292-2.351-6.441 0-8.82 2.35-2.384 6.435-2.403 9.081.844 2.825-3.278 6.734-3.228 9.083-.844 2.353 2.379 2.785 6.536.09 8.82zm55.91-8.82c-2.349-2.384-6.258-2.434-9.083.844-2.646-3.248-6.731-3.228-9.081-.844-2.351 2.379-2.69 6.528 0 8.82 2.127 1.813 9.081 6.469 9.081 6.469s7.027-4.648 9.173-6.469c2.695-2.284 2.263-6.441-.09-8.82zm57 0c-2.349-2.384-6.258-2.434-9.083.844-2.646-3.248-6.731-3.228-9.081-.844-2.351 2.379-2.69 6.528 0 8.82 2.128 1.813 9.081 6.469 9.081 6.469s7.027-4.648 9.174-6.469c2.695-2.284 2.261-6.441-.091-8.82zm57 0c-2.349-2.384-6.258-2.434-9.083.844-2.646-3.248-6.731-3.228-9.081-.844-2.351 2.379-2.69 6.528 0 8.82 2.128 1.813 9.081 6.469 9.081 6.469s7.027-4.648 9.174-6.469c2.695-2.284 2.261-6.441-.091-8.82zm-142 20.751c-2.349-2.384-6.258-2.434-9.083.844-2.646-3.247-6.731-3.228-9.081-.844-2.351 2.379-2.69 6.528 0 8.819 2.127 1.813 9.081 6.469 9.081 6.469s7.027-4.648 9.173-6.469c2.695-2.284 2.263-6.44-.09-8.819zm56.502 0c-2.349-2.384-6.258-2.434-9.085.844-2.646-3.247-6.731-3.228-9.081-.844-2.351 2.379-2.69 6.528 0 8.819 2.127 1.813 9.081 6.469 9.081 6.469s7.03-4.648 9.175-6.469c2.695-2.284 2.263-6.44-.09-8.819zm56.996 0c-2.349-2.384-6.258-2.434-9.083.844-2.646-3.247-6.731-3.228-9.081-.844-2.351 2.379-2.69 6.528 0 8.819 2.128 1.813 9.081 6.469 9.081 6.469s7.027-4.648 9.174-6.469c2.695-2.284 2.261-6.44-.091-8.819zM24.147 146.28c-2.146 1.82-9.173 6.469-9.173 6.469s-6.954-4.655-9.081-6.469c-2.69-2.291-2.351-6.44 0-8.819 2.35-2.384 6.435-2.403 9.081.844 2.825-3.277 6.734-3.228 9.083-.844 2.353 2.379 2.785 6.535.09 8.819zm55.91-8.819c-2.349-2.384-6.258-2.434-9.083.844-2.646-3.247-6.731-3.228-9.081-.844-2.351 2.379-2.69 6.528 0 8.819 2.127 1.813 9.081 6.469 9.081 6.469s7.027-4.648 9.173-6.469c2.695-2.284 2.263-6.44-.09-8.819zm57 0c-2.349-2.384-6.258-2.434-9.083.844-2.646-3.247-6.731-3.228-9.081-.844-2.351 2.379-2.69 6.528 0 8.819 2.128 1.813 9.081 6.469 9.081 6.469s7.027-4.648 9.174-6.469c2.695-2.284 2.261-6.44-.091-8.819zm57 0c-2.349-2.384-6.258-2.434-9.083.844-2.646-3.247-6.731-3.228-9.081-.844-2.351 2.379-2.69 6.528 0 8.819 2.128 1.813 9.081 6.469 9.081 6.469s7.027-4.648 9.174-6.469c2.695-2.284 2.261-6.44-.091-8.819zm-142 23c-2.349-2.384-6.258-2.434-9.083.844-2.646-3.247-6.731-3.228-9.081-.844-2.351 2.379-2.69 6.528 0 8.819 2.127 1.813 9.081 6.469 9.081 6.469s7.027-4.648 9.173-6.469c2.695-2.284 2.263-6.44-.09-8.819zm56.502 0c-2.349-2.384-6.258-2.434-9.085.844-2.646-3.247-6.731-3.228-9.081-.844-2.351 2.379-2.69 6.528 0 8.819 2.127 1.813 9.081 6.469 9.081 6.469s7.03-4.648 9.175-6.469c2.695-2.284 2.263-6.44-.09-8.819zm56.996 0c-2.349-2.384-6.258-2.434-9.083.844-2.646-3.247-6.731-3.228-9.081-.844-2.351 2.379-2.69 6.528 0 8.819 2.128 1.813 9.081 6.469 9.081 6.469s7.027-4.648 9.174-6.469c2.695-2.284 2.261-6.44-.091-8.819zM24.147 190.28c-2.146 1.82-9.173 6.469-9.173 6.469s-6.954-4.655-9.081-6.469c-2.69-2.291-2.351-6.44 0-8.819 2.35-2.384 6.435-2.403 9.081.844 2.825-3.277 6.734-3.228 9.083-.844 2.353 2.379 2.785 6.535.09 8.819zm55.91-8.819c-2.349-2.384-6.258-2.434-9.083.844-2.646-3.247-6.731-3.228-9.081-.844-2.351 2.379-2.69 6.528 0 8.819 2.127 1.813 9.081 6.469 9.081 6.469s7.027-4.648 9.173-6.469c2.695-2.284 2.263-6.44-.09-8.819zm57 0c-2.349-2.384-6.258-2.434-9.083.844-2.646-3.247-6.731-3.228-9.081-.844-2.351 2.379-2.69 6.528 0 8.819 2.128 1.813 9.081 6.469 9.081 6.469s7.027-4.648 9.174-6.469c2.695-2.284 2.261-6.44-.091-8.819zm57 0c-2.349-2.384-6.258-2.434-9.083.844-2.646-3.247-6.731-3.228-9.081-.844-2.351 2.379-2.69 6.528 0 8.819 2.128 1.813 9.081 6.469 9.081 6.469s7.027-4.648 9.174-6.469c2.695-2.284 2.261-6.44-.091-8.819z" fill="#009bb7"/><path d="M100.5 100.5h-1v-1h1v1z" fill="#3b3128"/><path d="M195.417 199.778c-2.196-4.746-8.195-11.779-14.86-13.722-8.239-2.403-26.837-5.308-33.733-6.923-5.528-1.296-16.662-11.294-20.564-14.65-.7-.6-1.273-1.839-1.287-2.76-.139-10.864 4.195-39.724 4.195-39.724H70.833s4.334 28.859 4.193 39.724c-.011.921-.587 2.16-1.285 2.76-3.902 3.356-15.036 13.354-20.564 14.65-6.897 1.615-25.495 4.619-33.733 7.022-6.667 1.942-12.664 8.876-14.86 13.622-3.708 8.008-4.584 22.5-4.584 35h200c0-12.499-.877-26.991-4.583-34.999z" fill="#e9b995"/><path d="M159.156 184.058c24.342 3.542 34.586 8.708 37.794 50.721H200c0-12.5-.877-26.992-4.583-35-2.196-4.746-8.195-11.779-14.86-13.722-8.239-2.403-26.837-5.308-33.733-6.923-5.528-1.296-18.242-12.069-21.643-16.35 3.36 4.704 12.791 15.605 21.054 18.46 3.953 1.366 7.245 1.988 12.921 2.814zm-105.39-2.814c8.263-2.854 17.693-13.756 21.054-18.46-3.4 4.28-16.114 15.054-21.643 16.35-6.896 1.615-25.494 4.619-33.733 7.022-6.665 1.942-12.664 8.876-14.86 13.622-3.706 8.008-4.583 22.5-4.583 35h3.05c3.188-41.744 13.475-47.183 37.794-50.721 5.675-.825 8.968-1.447 12.921-2.813z" fill="#f8d3b8"/><path d="M95.646 197.62s-5.074-1.609-7.083-2.379c-10.449-4.009-44.395-6.607-44.395-6.607s35.754 1.419 43.644 2.779c-.458-4.767-3.017-20.004-3.017-20.004s5.149 16.815 6.409 21.057c.674 2.268 4.442 5.154 4.442 5.154zm10.799-1.342c-.089.073-.191.168-.302.268.113-.085.215-.174.302-.268zm-10.799 1.342s2.893 2.992 4.347 3.03c1.91.051 4.828-2.899 6.151-4.104-1.265.957-4.159 1.391-5.31 1.436-1.33.051-5.188-.362-5.188-.362zm21.018-7.519c-1.545.248-4.386.789-4.386.789l2.287-14.89c-.646 3.071-4.474 16.211-8.12 20.278 1.91-1.616 6.158-2.391 8.324-2.704 10.236-1.484 10.232-1.483 41.062-4.94 0 0-29.071-.155-39.167 1.467z" fill="#daa075"/><path d="M195.417 199.778c-2.196-4.746-8.195-11.779-14.86-13.722-8.239-2.403-26.837-5.308-33.733-6.923-5.528-1.296-16.662-11.294-20.564-14.65-.7-.6-1.273-1.839-1.287-2.76-.139-10.864 4.195-39.724 4.195-39.724H70.833s4.334 28.859 4.193 39.724c-.011.921-.587 2.16-1.285 2.76-3.902 3.356-15.036 13.354-20.564 14.65-6.897 1.615-25.495 4.619-33.733 7.022-6.667 1.942-12.664 8.876-14.86 13.622-3.708 8.008-4.584 22.5-4.584 35h200c0-12.499-.877-26.991-4.583-34.999z" fill="none" stroke="#bb7440" stroke-width="1.5"/><path d="M104.195 172.932c4.251-2.437 12.243-7.528 20.043-13.21.164-6.313 1.287-16.273 2.33-24.397-15.295-1.845-37.566-1.875-53.149-.101 1.065 8.292 2.218 18.521 2.347 24.837 7.892 5.542 15.885 10.48 20.046 12.87 1.757 1.008 6.626 1.008 8.383.001z" fill="url(#a)"/><path d="M111.806 235.888c-19.135 0-41.455-.074-68.233-.229l-23.679-.128c-14.298-.078-15.141-.094-16.887-.094l-4.899.007c-4.571-41.875 14.41-52.87 43.762-56.708 7.789-1.097 15.449-3.097 21.459-6.972 16.327 22.243 64.811 17.562 73.103-.629 1.39.53 2.539 1.215 3.977 1.734 4.666 3.433 11.072 5.836 17.628 6.199 26.008 1.441 44.419 12.996 44.057 54.64.003.165.004 1.175-.013 1.49-12.513 0-17.206.121-27.034.262-13.331.19-29.923.427-63.229.427l-.012.001z" fill="#cbe9ee"/><path d="M201.055 234.64c-.41-7.385-4.064-28.058-10.36-37.541-12.482-18.805-42.26-12.206-49.132-19.693-4.986 10.159-24.975 16.595-31.594 17.54 19.181-6.36 27.237-10.959 30.42-21.87 6.405 8.33 41.074 1.971 54.717 24.331 3.995 6.547 7.794 27.386 5.949 37.233zM55.811 177.628c1.357-.315 2.034-1.249 3.381-1.614l-1.426-1.891c-9.049 7.052-42.909 2.645-54.519 24.036-3.659 6.741-6.127 22.788-4.192 36.439.537-8.384.799-26.314 7.095-35.798 11.324-17.06 31.974-12.553 47.619-19.775 6.983 8.6 17.888 12.828 28.984 14.577-13.921-3.631-21.903-9.762-26.942-15.974z" fill="#f1fcfd"/><path d="M135.31 173.244c-5.532 11.514-47.35 24.923-70.93.879-1.466.622-5.852 2.112-5.852 2.112 17.176 23.386 67.511 23.534 80.909-.114-.059-.023-2.765-2.185-4.127-2.877z" fill="#a8d7df"/><path d="M136.38 171.002c-9.413 18.822-58.397 21.485-73.012.632-5.337 1.578-10.469 4.941-15.636 5.782-30.92 4.605-53.778 6.919-49.732 58.136 9.94 0-6.611-.065 45.571.215 123.59.71 119.562-.461 158.606-.461.029-.14.015-1.452.021-1.596 2.096-56.436-30.852-53.104-53.12-56.995-3.144-.718-6.066-2.773-8.635-3.945-1.419-.649-2.625-1.232-4.063-1.768zm-73.366 1.263c12.974 23.392 64.219 18.699 74.113.101 1.2.504 1.507.704 2.898 1.197-10.248 21.489-60.942 28.337-81.677 1.163.146-.041 3.204-1.913 4.666-2.461zM-.845 234.778c-2.421-26.431 1.797-48.043 32.78-53.345 10.276-1.896 16.557-1.962 25.384-5.794 16.763 27.405 72.098 23.158 83.598-1.305 1.652 1.409 4.228 3.03 7.405 3.785 18.098 4.299 54.838-.894 52.898 56.658-54.057-.702-98.865-2.344-202.065.001z" fill="#6ab4c0"/><path d="M46.778 83.613c-2.623-1.48-8.575-8.52-11.138-7.517-1.655.646-2.377 5.504-2.638 7.47-.333 2.525-.929 7.711-.328 10.185.725 2.985 3.631 8.507 5.37 11.027 1.468 2.122 5.211 5.797 6.407 8.088.759 1.454 1.493 5.373 4.083 5.12 1.674-.164 5.537-3.072 5.744-4.452 1.128-7.477-2.335-27.006-7.5-29.921z" fill="#e9b995" stroke="#bb7440" stroke-width="1.5"/><path d="M43.313 99.76c-.125-.556.006-1.491.133-2.395.115-.824.224-1.601.158-2.151-.251-2.06-1.66-5.975-2.578-8.097-1.059-2.44-2.771-5.515-4.919-6.307-.888-.33-1.473.063-1.813.461-.248.292-.305.636-.223.676.082.041.266-.244.535-.512.219-.219.542-.407.983-.368-.178 1.026-1.091 6.582-.696 10.369.311 2.978 1.489 5.202 1.673 5.536.028.352.073.695.139 1.028.869 4.347 4.648 9.29 5.963 10.908.243.298.496.476.56.404.062-.074-.087-.368-.33-.668-1.298-1.609-5.042-6.533-5.879-10.728-.89-4.45 2.167-11.048 2.849-12.443.348.655.643 1.285.87 1.809.179.412.378.894.581 1.414-.402.729-3.211 6.042-2.187 10.295.38 1.568 2.088 3.589 3.223 4.143.624.306.859.761 1.13 1.288.314.613.673 1.307 1.708 1.81.211.101.402.144.571.144a.968.968 0 00.679-.281c.017.268.016.611.007.928-.01.411.041.747.129.756.088.008.182-.318.192-.726.016-.503.013-1.125-.067-1.422-.232-.877-.942-1.867-1.694-2.915-.74-1.031-1.506-2.098-1.697-2.956zm-6.775-3.855c-2.035-6.825 0-13.093.458-14.029.795.785 2.108 2.213 2.679 3.239-.417.823-3.052 6.2-3.137 10.79zm8.78 9.986c-.938-.456-1.253-1.067-1.557-1.657-.275-.535-.56-1.087-1.281-1.44a3.11 3.11 0 01-.505-.328c-2.324-5.988.254-8.606.899-9.142.199.731.346 1.403.411 1.941.061.495-.05 1.28-.156 2.041-.132.942-.268 1.916-.127 2.546.211.94.999 2.038 1.76 3.1.677.943 1.373 1.915 1.609 2.708-.1.158-.422.535-1.053.231z" fill="#bb7440"/><path d="M152.961 83.613c2.623-1.48 8.574-8.52 11.137-7.517 1.656.646 2.379 5.504 2.639 7.47.334 2.525.928 7.711.328 10.185-.725 2.985-3.631 8.507-5.371 11.027-1.467 2.122-5.211 5.797-6.406 8.088-.76 1.454-1.492 5.373-4.084 5.12-1.674-.164-5.535-3.072-5.744-4.452-1.128-7.477 2.335-27.006 7.501-29.921z" fill="#e9b995" stroke="#bb7440" stroke-width="1.5"/><path d="M154.729 102.716c-.752 1.047-1.463 2.038-1.695 2.915-.078.297-.082.919-.066 1.422.012.407.105.733.193.726.088-.009.139-.345.129-.756a10.9 10.9 0 01.006-.928.97.97 0 00.68.281c.168 0 .359-.043.57-.144 1.035-.503 1.395-1.196 1.709-1.81.271-.527.506-.982 1.131-1.288 1.133-.554 2.842-2.575 3.223-4.143 1.023-4.253-1.785-9.566-2.188-10.295.203-.52.402-1.002.582-1.414.225-.524.521-1.154.869-1.809.682 1.395 3.738 7.993 2.848 12.443-.838 4.195-4.582 9.118-5.879 10.728-.242.3-.393.594-.33.668.064.071.318-.106.561-.404 1.314-1.618 5.094-6.561 5.963-10.908.066-.333.111-.677.139-1.028.184-.334 1.363-2.558 1.674-5.536.395-3.788-.518-9.343-.695-10.369.441-.039.764.149.982.368.268.268.453.552.535.512.08-.041.023-.384-.223-.676-.342-.397-.926-.791-1.813-.461-2.148.792-3.861 3.867-4.92 6.307-.92 2.123-2.326 6.037-2.578 8.097-.066.55.043 1.328.158 2.151.127.904.256 1.839.133 2.395-.193.858-.958 1.925-1.698 2.956zm5.335-17.601c.57-1.026 1.883-2.455 2.678-3.239.457.936 2.494 7.204.459 14.029-.086-4.59-2.721-9.967-3.137-10.79zm-6.697 20.545c.236-.793.932-1.765 1.609-2.708.762-1.063 1.549-2.16 1.76-3.1.141-.631.006-1.604-.127-2.546-.105-.76-.217-1.546-.156-2.041.066-.539.213-1.21.412-1.941.645.536 3.223 3.154.898 9.142a3.34 3.34 0 01-.504.328c-.723.353-1.008.905-1.281 1.44-.305.59-.619 1.201-1.559 1.657-.63.304-.952-.073-1.052-.231z" fill="#bb7440"/><path d="M143.337 131.62c-6.672 9.643-30.551 25.524-39.142 30.485-1.757 1.015-6.626 1.015-8.383-.001-8.584-4.966-33.469-20.844-40.144-30.484-8.127-11.736-14.519-54.063-14.53-54.116a61.26 61.26 0 01-2.004-15.495C39.082 28.29 66.289.92 99.907.867c33.621-.053 60.913 27.231 60.963 60.95a61.31 61.31 0 01-1.952 15.501c-.017.054-7.43 42.524-15.581 54.302z" fill="#e9b995"/><path d="M133.322 10.831c13.736 11.102 22.65 28.894 22.679 48.972a66.4 66.4 0 01-1.796 15.501c-.016.053-6.836 42.523-14.335 54.302-6.138 9.643-28.106 25.523-36.011 30.483-1.616 1.017-6.096 1.017-7.712-.001-7.897-4.965-30.792-20.842-36.932-30.482-7.478-11.737-13.357-54.063-13.368-54.117a66.268 66.268 0 01-1.843-15.495c-.029-20.154 8.906-38.034 22.7-49.174-16.625 10.921-27.603 29.767-27.57 51.19a61.267 61.267 0 002.004 15.495c.012.053 6.403 42.379 14.53 54.116 6.675 9.641 31.56 25.519 40.144 30.484 1.756 1.016 6.626 1.016 8.383.001 8.591-4.961 32.47-20.843 39.142-30.485 8.151-11.778 15.564-54.249 15.581-54.302a61.315 61.315 0 001.952-15.501c-.032-21.346-10.988-40.102-27.548-50.987z" fill="#e1ac85"/><path d="M143.337 131.62c-6.672 9.643-30.551 25.524-39.142 30.485-1.757 1.015-6.626 1.015-8.383-.001-8.584-4.966-33.469-20.844-40.144-30.484-8.127-11.736-14.519-54.063-14.53-54.116a61.26 61.26 0 01-2.004-15.495C39.082 28.29 66.289.92 99.907.867c33.621-.053 60.913 27.231 60.963 60.95a61.31 61.31 0 01-1.952 15.501c-.017.054-7.43 42.524-15.581 54.302z" fill="none" stroke="#bb7440" stroke-width="1.5"/><path d="M100.2 142.947c-2.832.144-3.644-2.753-3.644-2.753s3.931.565 6.991-.353c.001.001-.855 2.981-3.347 3.106z" fill="url(#b)"/><path d="M100.488 140.76c-1.984.1-3.765-.077-3.877-.089a.249.249 0 01-.224-.272.258.258 0 01.274-.224c.041.003 4.096.405 6.738-.337.131-.032.271.041.309.174s-.04.27-.173.308c-.934.262-2.018.388-3.047.44z" fill="#bb7440"/><path d="M82.5 130.299s12.532 1.486 16.718 1.499c4.553.012 19.282-1.499 19.282-1.499-4.258 3.534-8.943 6.932-19.555 6.999-9.492.061-11.924-3.386-16.445-6.999z" fill="#fff"/><path d="M82.5 130.299s12.532 1.486 16.718 1.499c4.553.012 19.282-1.499 19.282-1.499-4.258 3.534-8.943 6.932-19.555 6.999-9.492.061-11.924-3.386-16.445-6.999z" fill="none" stroke="#bb7440" stroke-width=".75"/><path d="M86.729 84.747a6.46 6.46 0 01.257 1.758c0 1.481-.523 2.881-1.44 4.135-4.077.038-16.966.706-18.935-.303-2.813-1.441-5.323-7.369-5.506-8.827 9.995-5.749 17.37-4.631 25.624 3.237z" fill="url(#c)"/><path d="M80.538 86.088a5.983 5.983 0 01-7.361 4.196 6.011 6.011 0 01-4.214-7.371 5.986 5.986 0 017.365-4.198 6.01 6.01 0 014.21 7.373z" fill="#724f7c" stroke="#431a4e" stroke-width=".5"/><path d="M79.605 86.162c-.849 2.452-3.407 3.881-5.899 3.199-2.3-.631-3.752-2.838-3.563-5.171a21.893 21.893 0 012.756-.04c-.01.033-.027.062-.036.096-.306 1.125.407 2.305 1.592 2.63 1.189.326 2.401-.326 2.707-1.451.039-.147.06-.294.065-.439.813.296 1.611.679 2.378 1.176z" fill="#83678b"/><path d="M75.563 82.71c-1.203-.344-2.429.342-2.739 1.54-.311 1.191.412 2.438 1.614 2.783 1.204.345 2.43-.342 2.741-1.534.313-1.198-.413-2.444-1.616-2.789zm.262 4.232c-.5.156-1.017-.051-1.154-.462-.133-.411.163-.867.667-1.019.503-.156 1.019.051 1.157.459.136.411-.163.867-.67 1.022z" opacity=".9"/><path d="M71.561 87.659c-.37.222-.922.023-1.238-.447-.316-.466-.269-1.024.102-1.247.368-.219.925-.021 1.239.446.312.467.267 1.027-.103 1.248z" fill="#fff" opacity=".6"/><path d="M79.46 84.24c-.846.507-2.117.051-2.837-1.02-.72-1.072-.612-2.352.234-2.857.844-.509 2.118-.053 2.834 1.019.719 1.072.615 2.35-.231 2.858z" fill="#fff" opacity=".8"/><path d="M55.8 79.995c0 13.808 8.06 31.404 18 31.404s18-11.191 18-24.999c0-13.809-8.06-25.001-18-25.001s-18 4.788-18 18.596zm5.304 1.515c9.995-5.749 17.37-4.63 25.624 3.237a6.46 6.46 0 01.257 1.758c0 1.481-.523 2.881-1.44 4.135-4.077.038-16.966.706-18.935-.303-2.812-1.441-5.323-7.369-5.506-8.827z" fill="#e9b995"/><path d="M61.209 81.995c.522 1.979 2.833 7.026 5.401 8.342 1.969 1.009 14.857.341 18.935.303.917-1.253 1.44-2.653 1.44-4.135a6.46 6.46 0 00-.257-1.758c-8.166-7.784-15.476-8.95-25.31-3.407 1.968-5.724 8.522-9.952 16.34-9.987 9.393-.04 17.018 5.981 17.041 13.451.023 7.469-7.572 13.554-16.961 13.596-9.393.04-17.016-5.981-17.039-13.45a10.952 10.952 0 01.41-2.955z" fill="url(#d)"/><path d="M66.61 90.337c-2.813-1.441-5.323-7.369-5.506-8.827 9.995-5.749 17.37-4.63 25.624 3.237a6.46 6.46 0 01.257 1.758c0 1.481-.523 2.881-1.44 4.135-4.077.038-16.966.706-18.935-.303z" fill="url(#e)"/><path d="M61.138 78.389c3.414-1.34 17.798-6.314 25.648 4.274-8.986-10.101-21.204-5.445-25.648-4.274z" fill="#bb7440"/><path d="M58.8 80.972c1.217 2.342 6.361 10.159 7.561 10.218 10.059.608 16.311-.248 20.313-.813-1.499-.19-17.826.781-20.063-.313-2.813-1.375-5.323-7.031-5.506-8.423 10.251-5.626 17.743-4.379 26.256 3.659-8.301-12.599-25.508-6.859-28.561-4.328z" fill="#302040"/><path d="M112.872 84.747a6.46 6.46 0 00-.257 1.758c0 1.481.523 2.881 1.44 4.135 4.077.038 16.966.706 18.935-.303 2.813-1.441 5.323-7.369 5.506-8.827-9.995-5.749-17.37-4.631-25.624 3.237z" fill="url(#f)"/><path d="M131.038 86.088a5.983 5.983 0 01-7.362 4.196c-3.196-.876-5.084-4.178-4.214-7.371a5.986 5.986 0 017.365-4.198 6.012 6.012 0 014.211 7.373z" fill="#724f7c" stroke="#431a4e" stroke-width=".5"/><path d="M130.105 86.162c-.849 2.452-3.408 3.881-5.899 3.199-2.3-.631-3.753-2.838-3.563-5.171a21.897 21.897 0 012.756-.04c-.01.033-.027.062-.036.096-.306 1.125.407 2.305 1.593 2.63 1.189.326 2.401-.326 2.707-1.451.038-.147.06-.294.065-.439.812.296 1.611.679 2.377 1.176z" fill="#83678b"/><path d="M126.063 82.71c-1.202-.344-2.429.342-2.738 1.54-.312 1.191.412 2.438 1.613 2.783 1.204.345 2.431-.342 2.742-1.534.311-1.198-.414-2.444-1.617-2.789zm.262 4.232c-.5.156-1.018-.051-1.154-.462-.133-.411.163-.867.667-1.019.503-.156 1.019.051 1.157.459.136.411-.163.867-.67 1.022z" opacity=".9"/><path d="M122.062 87.659c-.37.222-.923.023-1.238-.447-.316-.466-.27-1.024.102-1.247.367-.219.926-.021 1.239.446.312.467.266 1.027-.103 1.248z" fill="#fff" opacity=".6"/><path d="M129.96 84.24c-.846.507-2.116.051-2.837-1.02-.72-1.072-.612-2.352.234-2.857.845-.509 2.117-.053 2.834 1.019.719 1.072.616 2.35-.231 2.858z" fill="#fff" opacity=".8"/><path d="M125.801 61.399c-9.94 0-18 11.193-18 25.001 0 13.808 8.06 24.999 18 24.999s18-16.226 18-30.033c0-13.808-8.06-19.967-18-19.967zm7.189 28.938c-1.969 1.009-14.857.341-18.935.303-.917-1.253-1.44-2.653-1.44-4.135 0-.601.096-1.187.257-1.758 8.254-7.868 15.629-8.986 25.624-3.237-.183 1.458-2.693 7.386-5.506 8.827z" fill="#e9b995"/><path d="M138.392 81.995c-.522 1.979-2.833 7.026-5.401 8.342-1.969 1.009-14.857.341-18.935.303-.917-1.253-1.44-2.653-1.44-4.135 0-.601.096-1.187.257-1.758 8.166-7.784 15.476-8.95 25.31-3.407-1.968-5.724-8.522-9.952-16.34-9.987-9.393-.04-17.018 5.981-17.041 13.451-.023 7.469 7.572 13.554 16.961 13.596 9.393.04 17.016-5.981 17.039-13.45a10.992 10.992 0 00-.41-2.955z" fill="url(#g)"/><path d="M132.99 90.337c2.813-1.441 5.323-7.369 5.506-8.827-9.995-5.749-17.37-4.63-25.624 3.237a6.46 6.46 0 00-.257 1.758c0 1.481.523 2.881 1.44 4.135 4.078.038 16.966.706 18.935-.303z" fill="url(#h)"/><path d="M112.814 82.664c7.85-10.588 22.234-5.615 25.648-4.274-4.443-1.172-16.661-5.828-25.648 4.274z" fill="#bb7440"/><path d="M140.801 80.972c-1.217 2.342-6.361 10.159-7.561 10.218-10.059.608-16.311-.248-20.313-.813 1.499-.19 17.826.781 20.063-.313 2.813-1.375 5.323-7.031 5.506-8.423-10.251-5.626-17.743-4.379-26.256 3.659 8.301-12.599 25.508-6.859 28.561-4.328z" fill="#302040"/><path d="M141 113.974c.035 22.622-18.292 40.994-40.938 41.025-22.642.037-41.028-18.273-41.063-40.9-.035-22.62 18.292-41.064 40.937-41.1 22.643-.035 41.031 18.35 41.064 40.975z" fill="url(#i)"/><path d="M137.5 53.999c0 20.711-16.789 37.5-37.499 37.5-20.711 0-37.501-16.789-37.501-37.5s16.79-37.5 37.501-37.5c20.71 0 37.499 16.789 37.499 37.5z" fill="url(#j)"/><path d="M59.396 71.48c16.138-1.701 18.92 1.72 27.556 5.214.474.186 1.583.391 1.88-.098.787-1.312-2.444-3.681-3.84-4.295-9.14-4.248-21.03-4.042-25.596-.821zm81.208 0c-16.139-1.701-18.921 1.72-27.556 5.214-.474.186-1.583.391-1.88-.098-.787-1.312 2.443-3.681 3.84-4.295 9.14-4.248 21.03-4.042 25.596-.821z" fill="#3b3128"/><path d="M96.831 88.524s-1.399 11.117-2.026 13.281c-1.379 4.752-6.168 11.417-5.239 14.429 1.859 6.022 7.537 4.493 10.524 4.471 2.763-.022 8.072 1.552 9.162-2.37.352-1.266-.441-4.466-.441-4.466s-2.644 3.112-8.875 2.767c-1.778-.099-4.671-2.096-4.704-4.912-.043-3.817 1.802-7.035 2.205-10.824.304-2.878-.606-12.376-.606-12.376z" fill="#daa075"/><path d="M105.194 118.969c1.075 0 1.366.326 1.366.729 0 .404-.335 1.026-1.366.73-1.134-.323-3.113-.175-3.113-.175s2.036-1.284 3.113-1.284zm-10.272 0c-1.077.001-1.366.328-1.366.733-.001.403.323.983 1.366.729 1.15-.282 3.112-.175 3.112-.175s-2.035-1.283-3.112-1.287zm13.888-5.1s1.489 1.933 1.18 3.975c-.301 1.983-3.31 2.861-3.31 2.861s2.089-1.516 2.342-3.356c.118-.863-.212-3.48-.212-3.48zm-18.383-1.986s-1.086 2.704-.772 4.352c.571 2.976 3.704 4.164 3.704 4.164s-1.955-2.039-2.65-3.842c-.761-1.97-.282-4.674-.282-4.674z" fill="#bb7440"/><path d="M105.141 115.311c1.043-.889 1.148-1.396.932-1.729-.215-.334-.841-.545-1.714.528-.963 1.18-3.056 2.054-3.056 2.054s2.795.034 3.838-.853z" fill="#f8d3b8"/><path d="M158.43 41.325C140-4.765 100 .405 100 .405s-40-5.169-58.43 40.92c-9.245 23.12 2.158 50.324 2.158 50.324h5.826c-5.094-21.752.796-17.662 1.176-21.722.118-1.255-.3-3.367-.421-4.622-.592-6.112 1.982-18.029 5.245-23.173 1.603-2.526 5.369-6.659 8.174-7.699 9.97-3.694 20.044.715 22.854 1.421 4.461 1.12 22.373 1.12 26.836 0 3.343-.839 13.182-4.905 22.854-1.321 2.806 1.04 6.871 4.972 8.474 7.499 3.263 5.144 5.537 16.16 4.945 22.272-.121 1.255-.539 4.367-.422 5.623.107 1.147 2.617 3.689 2.898 4.807 1.16 4.612-1.722 16.915-1.722 16.915h5.825c.001 0 11.406-27.204 2.16-50.324z" fill="#3b3128"/><path d="M154.938 31.163C136.178-3.114 101.979-.631 100-.455c-1.979-.176-36.177-2.659-54.938 31.618-14.492 26.478-3.492 56.974-2.155 60.449.076.197 1.576.038 1.576.038-.006-.015-.104-.392-.166-.55-1.209-3.12-12.189-33.18 2.061-59.216C65.111-2.342 99.595 1.007 99.94 1.046l.06-.542.06.542c.345-.039 34.829-3.388 53.563 30.837 14.563 26.61 2.773 57.423 1.996 59.383-.021.055-.107.375-.111.383 0 0 1.506.169 1.575-.011 1.291-3.344 12.384-33.929-2.145-60.475z" fill="#0d0905"/></svg>