<svg xmlns="http://www.w3.org/2000/svg" width="500" height="500" viewBox="0 0 200 200" overflow="hidden"><defs><radialGradient id="k" cx="100" cy="114" r="41" gradientUnits="userSpaceOnUse" class="svga-on-canvas-facehighlight-gradient-single-0"><stop stop-opacity=".5" stop-color="#ffe4d6" offset="0"/><stop stop-opacity="0" stop-color="#f0c7b1" offset=".9"/></radialGradient><radialGradient id="l" cx="100" cy="54" r="37" gradientUnits="userSpaceOnUse" class="svga-on-canvas-facehighlight-gradient-single-1"><stop stop-opacity=".5" stop-color="#ffe4d6" offset="0"/><stop stop-opacity="0" stop-color="#f0c7b1" offset=".9"/></radialGradient><radialGradient id="c" cx="127.199" cy="84.835" r="14" gradientTransform="matrix(-1 0 0 1 200 0)" gradientUnits="userSpaceOnUse" class="svga-on-canvas-eyesback-gradient-left-0"><stop stop-color="#fff" offset="0"/><stop stop-color="#fdfefe" offset=".544"/><stop stop-color="#f6f8f9" offset=".74"/><stop stop-color="#eaeff2" offset=".879"/><stop stop-color="#d9e3e8" offset=".992"/><stop stop-color="#d8e2e7" offset="1"/></radialGradient><radialGradient id="g" cx="126.801" cy="84.835" r="14" gradientUnits="userSpaceOnUse" class="svga-on-canvas-eyesback-gradient-right-0"><stop stop-color="#fff" offset="0"/><stop stop-color="#fdfefe" offset=".544"/><stop stop-color="#f6f8f9" offset=".74"/><stop stop-color="#eaeff2" offset=".879"/><stop stop-color="#d9e3e8" offset=".992"/><stop stop-color="#d8e2e7" offset="1"/></radialGradient><radialGradient id="e" cx="125.36" cy="83.943" fx="138.934" fy="82.45" r="18.705" gradientTransform="matrix(.9998 .0208 .0131 -.6281 -51.791 134.061)" gradientUnits="userSpaceOnUse" class="svga-on-canvas-eyesfront-gradient-left-3"><stop stop-color="#e1ac8f" offset="0"/><stop stop-opacity=".3" stop-color="#e1ac8f" offset=".7"/><stop stop-opacity="0" stop-color="#f0c7b1" offset="1"/></radialGradient><radialGradient id="f" cx="67.679" cy="106.859" r="29.505" gradientTransform="rotate(-2.982 100.075 115.197) scale(1.0336)" gradientUnits="userSpaceOnUse" class="svga-on-canvas-eyesfront-gradient-left-4"><stop stop-opacity="0" offset=".95"/><stop stop-opacity=".2" offset="1"/></radialGradient><radialGradient id="i" cx="124.961" cy="83.943" fx="138.535" fy="82.45" r="18.705" gradientTransform="matrix(-.9998 .0208 -.0131 -.6281 250.992 134.07)" gradientUnits="userSpaceOnUse" class="svga-on-canvas-eyesfront-gradient-right-3"><stop stop-color="#e1ac8f" offset="0"/><stop stop-opacity=".3" stop-color="#e1ac8f" offset=".7"/><stop stop-opacity="0" stop-color="#f0c7b1" offset="1"/></radialGradient><radialGradient id="j" cx="68.065" cy="106.876" r="29.506" gradientTransform="scale(-1.0336 1.0336) rotate(-3 .122 3805.804)" gradientUnits="userSpaceOnUse" class="svga-on-canvas-eyesfront-gradient-right-4"><stop stop-opacity="0" offset=".95"/><stop stop-opacity=".2" offset="1"/></radialGradient><linearGradient id="d" x1="127.637" y1="79.822" x2="125.91" y2="81.88" gradientTransform="translate(-50)" gradientUnits="userSpaceOnUse" class="svga-on-canvas-eyesiris-gradient-left-1"><stop stop-color="#fff" offset="0"/><stop stop-opacity="0" stop-color="#fff" offset="1"/></linearGradient><linearGradient id="h" x1="129.637" y1="79.823" x2="127.91" y2="81.881" gradientUnits="userSpaceOnUse" class="svga-on-canvas-eyesiris-gradient-right-1"><stop stop-color="#fff" offset="0"/><stop stop-opacity="0" stop-color="#fff" offset="1"/></linearGradient><linearGradient id="b" x1="100" y1="141" x2="100" y2="137" gradientUnits="userSpaceOnUse" class="svga-on-canvas-mouth-gradient-single-0"><stop stop-color="#e8b9a0" offset=".1"/><stop stop-color="#e1ac8f" offset="1"/></linearGradient><linearGradient id="a" x1="100" y1="171" x2="100" y2="131" gradientUnits="userSpaceOnUse" class="svga-on-canvas-chinshadow-gradient-single-0"><stop stop-opacity=".8" stop-color="#e1ac8f" offset="0"/><stop stop-color="#c27b55" offset=".7"/></linearGradient></defs><path d="M225 225H-25V-25h250v250z" fill="#ecf0f1"/><path d="M16 9.999a6 6 0 01-12 0 6 6 0 0112 0zm12-6a6 6 0 000 12 6 6 0 000-12zm18 0a6 6 0 000 12 6 6 0 000-12zm18 0a6 6 0 000 12 6 6 0 000-12zm18 0a6 6 0 000 12 6 6 0 000-12zm18 0a6 6 0 000 12 6 6 0 000-12zm18 0a6 6 0 000 12 6 6 0 000-12zm18 0a6 6 0 000 12 6 6 0 000-12zm18 0a6 6 0 000 12 6 6 0 000-12zm18 0a6 6 0 000 12 6 6 0 000-12zm18 0a6 6 0 000 12 6 6 0 000-12zm-174 24a6 6 0 01-12 0 6 6 0 0112 0zm12-6a6 6 0 000 12 6 6 0 000-12zm18 0a6 6 0 000 12 6 6 0 000-12zm18 0a6 6 0 000 12 6 6 0 000-12zm18 0a6 6 0 000 12 6 6 0 000-12zm18 0a6 6 0 000 12 6 6 0 000-12zm18 0a6 6 0 000 12 6 6 0 000-12zm18 0a6 6 0 000 12 6 6 0 000-12zm18 0a6 6 0 000 12 6 6 0 000-12zm18 0a6 6 0 000 12 6 6 0 000-12zm18 0a6 6 0 000 12 6 6 0 000-12zm-174 24a6 6 0 01-12 0 6 6 0 0112 0zm12-6a6 6 0 000 12 6 6 0 000-12zm18 0a6 6 0 000 12 6 6 0 000-12zm18 0a6 6 0 000 12 6 6 0 000-12zm18 0a6 6 0 000 12 6 6 0 000-12zm18 0a6 6 0 000 12 6 6 0 000-12zm18 0a6 6 0 000 12 6 6 0 000-12zm18 0a6 6 0 000 12 6 6 0 000-12zm18 0a6 6 0 000 12 6 6 0 000-12zm18 0a6 6 0 000 12 6 6 0 000-12zm18 0a6 6 0 000 12 6 6 0 000-12zm-174 24a6 6 0 01-12 0 6 6 0 0112 0zm12-6a6 6 0 000 12 6 6 0 000-12zm18 0a6 6 0 000 12 6 6 0 000-12zm18 0a6 6 0 000 12 6 6 0 000-12zm18 0a6 6 0 000 12 6 6 0 000-12zm18 0a6 6 0 000 12 6 6 0 000-12zm18 0a6 6 0 000 12 6 6 0 000-12zm18 0a6 6 0 000 12 6 6 0 000-12zm18 0a6 6 0 000 12 6 6 0 000-12zm18 0a6 6 0 000 12 6 6 0 000-12zm18 0a6 6 0 000 12 6 6 0 000-12zm-174 24a6 6 0 01-12 0 6 6 0 0112 0zm12-6a6 6 0 000 12 6 6 0 000-12zm18 0a6 6 0 000 12 6 6 0 000-12zm18 0a6 6 0 000 12 6 6 0 000-12zm18 0a6 6 0 000 12 6 6 0 000-12zm18 0a6 6 0 000 12 6 6 0 000-12zm18 0a6 6 0 000 12 6 6 0 000-12zm18 0a6 6 0 000 12 6 6 0 000-12zm18 0a6 6 0 000 12 6 6 0 000-12zm18 0a6 6 0 000 12 6 6 0 000-12zm18 0a6 6 0 000 12 6 6 0 000-12zm-174 24a6 6 0 01-12 0 6 6 0 0112 0zm12-6a6 6 0 000 12 6 6 0 000-12zm18 0a6 6 0 000 12 6 6 0 000-12zm18 0a6 6 0 000 12 6 6 0 000-12zm18 0a6 6 0 000 12 6 6 0 000-12zm18 0a6 6 0 000 12 6 6 0 000-12zm18 0a6 6 0 000 12 6 6 0 000-12zm18 0a6 6 0 000 12 6 6 0 000-12zm18 0a6 6 0 000 12 6 6 0 000-12zm18 0a6 6 0 000 12 6 6 0 000-12zm18 0a6 6 0 000 12 6 6 0 000-12zm-174 78a6 6 0 01-12 0 6 6 0 0112 0zm12-6a6 6 0 000 12 6 6 0 000-12zm18 0a6 6 0 000 12 6 6 0 000-12zm18 0a6 6 0 000 12 6 6 0 000-12zm18 0a6 6 0 000 12 6 6 0 000-12zm18 0a6 6 0 000 12 6 6 0 000-12zm18 0a6 6 0 000 12 6 6 0 000-12zm18 0a6 6 0 000 12 6 6 0 000-12zm18 0a6 6 0 000 12 6 6 0 000-12zm18 0a6 6 0 000 12 6 6 0 000-12zm18 0a6 6 0 000 12 6 6 0 000-12zm-174 24a6 6 0 01-12 0 6 6 0 0112 0zm12-6a6 6 0 000 12 6 6 0 000-12zm18 0a6 6 0 000 12 6 6 0 000-12zm18 0a6 6 0 000 12 6 6 0 000-12zm18 0a6 6 0 000 12 6 6 0 000-12zm18 0a6 6 0 000 12 6 6 0 000-12zm18 0a6 6 0 000 12 6 6 0 000-12zm18 0a6 6 0 000 12 6 6 0 000-12zm18 0a6 6 0 000 12 6 6 0 000-12zm18 0a6 6 0 000 12 6 6 0 000-12zm18 0a6 6 0 000 12 6 6 0 000-12zm-174-66a6 6 0 01-12 0 6 6 0 0112 0zm12-6a6 6 0 000 12 6 6 0 000-12zm18 0a6 6 0 000 12 6 6 0 000-12zm18 0a6 6 0 000 12 6 6 0 000-12zm18 0a6 6 0 000 12 6 6 0 000-12zm18 0a6 6 0 000 12 6 6 0 000-12zm18 0a6 6 0 000 12 6 6 0 000-12zm18 0a6 6 0 000 12 6 6 0 000-12zm18 0a6 6 0 000 12 6 6 0 000-12zm18 0a6 6 0 000 12 6 6 0 000-12zm18 0a6 6 0 000 12 6 6 0 000-12zm-174 24a6 6 0 01-12 0 6 6 0 0112 0zm12-6a6 6 0 000 12 6 6 0 000-12zm18 0a6 6 0 000 12 6 6 0 000-12zm18 0a6 6 0 000 12 6 6 0 000-12zm18 0a6 6 0 000 12 6 6 0 000-12zm18 0a6 6 0 000 12 6 6 0 000-12zm18 0a6 6 0 000 12 6 6 0 000-12zm18 0a6 6 0 000 12 6 6 0 000-12zm18 0a6 6 0 000 12 6 6 0 000-12zm18 0a6 6 0 000 12 6 6 0 000-12zm18 0a6 6 0 000 12 6 6 0 000-12zm-174 24a6 6 0 01-12 0 6 6 0 0112 0zm12-6a6 6 0 000 12 6 6 0 000-12zm18 0a6 6 0 000 12 6 6 0 000-12zm18 0a6 6 0 000 12 6 6 0 000-12zm18 0a6 6 0 000 12 6 6 0 000-12zm18 0a6 6 0 000 12 6 6 0 000-12zm18 0a6 6 0 000 12 6 6 0 000-12zm18 0a6 6 0 000 12 6 6 0 000-12zm18 0a6 6 0 000 12 6 6 0 000-12zm18 0a6 6 0 000 12 6 6 0 000-12zm18 0a6 6 0 000 12 6 6 0 000-12z" fill="#c6dce2"/><path d="M100.5 100.5h-1v-1h1v1z" fill="#4e4341"/><path d="M195.417 199.778c-2.196-4.746-8.195-11.779-14.86-13.722-8.239-2.403-26.837-5.308-33.733-6.923-5.528-1.296-16.662-11.294-20.564-14.65-.7-.6-1.273-1.839-1.287-2.76-.139-10.864 4.195-39.724 4.195-39.724H70.833s4.334 28.859 4.193 39.724c-.011.921-.587 2.16-1.285 2.76-3.902 3.356-15.036 13.354-20.564 14.65-6.897 1.615-25.495 4.619-33.733 7.022-6.667 1.942-12.664 8.876-14.86 13.622-3.708 8.008-4.584 22.5-4.584 35h200c0-12.499-.877-26.991-4.583-34.999z" fill="#f0c7b1"/><path d="M159.156 184.058c24.342 3.542 34.586 8.708 37.794 50.721H200c0-12.5-.877-26.992-4.583-35-2.196-4.746-8.195-11.779-14.86-13.722-8.239-2.403-26.837-5.308-33.733-6.923-5.528-1.296-18.242-12.069-21.643-16.35 3.36 4.704 12.791 15.605 21.054 18.46 3.953 1.366 7.245 1.988 12.921 2.814zm-105.39-2.814c8.263-2.854 17.693-13.756 21.054-18.46-3.4 4.28-16.114 15.054-21.643 16.35-6.896 1.615-25.494 4.619-33.733 7.022-6.665 1.942-12.664 8.876-14.86 13.622-3.706 8.008-4.583 22.5-4.583 35h3.05c3.188-41.744 13.475-47.183 37.794-50.721 5.675-.825 8.968-1.447 12.921-2.813z" fill="#ffe4d6"/><path d="M95.646 197.62s-5.074-1.609-7.083-2.379c-10.449-4.009-44.395-6.607-44.395-6.607s35.754 1.419 43.644 2.779c-.458-4.767-3.017-20.004-3.017-20.004s5.149 16.815 6.409 21.057c.674 2.268 4.442 5.154 4.442 5.154zm10.799-1.342c-.089.073-.191.168-.302.268.113-.085.215-.174.302-.268zm-10.799 1.342s2.893 2.992 4.347 3.03c1.91.051 4.828-2.899 6.151-4.104-1.265.957-4.159 1.391-5.31 1.436-1.33.051-5.188-.362-5.188-.362zm21.018-7.519c-1.545.248-4.386.789-4.386.789l2.287-14.89c-.646 3.071-4.474 16.211-8.12 20.278 1.91-1.616 6.158-2.391 8.324-2.704 10.236-1.484 10.232-1.483 41.062-4.94 0 0-29.071-.155-39.167 1.467z" fill="#e1ac8f"/><path d="M195.417 199.778c-2.196-4.746-8.195-11.779-14.86-13.722-8.239-2.403-26.837-5.308-33.733-6.923-5.528-1.296-16.662-11.294-20.564-14.65-.7-.6-1.273-1.839-1.287-2.76-.139-10.864 4.195-39.724 4.195-39.724H70.833s4.334 28.859 4.193 39.724c-.011.921-.587 2.16-1.285 2.76-3.902 3.356-15.036 13.354-20.564 14.65-6.897 1.615-25.495 4.619-33.733 7.022-6.667 1.942-12.664 8.876-14.86 13.622-3.708 8.008-4.584 22.5-4.584 35h200c0-12.499-.877-26.991-4.583-34.999z" fill="none" stroke="#c27b55" stroke-width="1.5"/><path d="M100.021 171.866c8.183 0 16.871-4.943 24.199-10.675-.001-6.702 1.451-19.105 2.652-28.205-15.382-2.247-38.406-2.279-53.766-.152 1.184 8.96 2.625 21.206 2.671 28.02 7.342 5.913 16.045 11.012 24.244 11.012z" fill="url(#a)"/><path d="M-4.807 234.6c1.472-10.806-.208-11.777 4.116-33.015 1.228-7.384 2.66-13.32 8.141-10.607 4.045-6.008 15.513-6.566 57.339-20.658v-.258c.278-1.001 2.706-4.267 3.099-9.897.383-5.449 2.718-9.56 5.614-11.604-6.746 23.685 23.144 14.953 24.208 31.108.084 1.273-.974 10.149-.813 10.969 3.355-.679 6.721-.684 10.359-.645-3.928-15.24-.545-16.872 7.344-19.838 9.564-3.591 12.873-7.169 12.01-20.697 4.57 4.109 1.516 9.7 7.174 17.534 36.249 13.159 50.02 16.863 56.963 21.507 5.981-4.517 9.697 2.65 17.292 46.103-71.821.61-153.77.518-212.846-.002z" fill="#4b2824"/><path d="M92.119 197.235c.304-.029 3.375-5.505 3.375-5.505 5.764-2.145 18.375 2.005 34.019-10.176-11.519 18.056-32.37 5.183-37.394 15.681zm-22.004-17.857c8.754 10.018 23.629 13.732 26.773 10.686-.003.071-17.269-.668-26.773-10.686z" fill="#3c1a17"/><path d="M73.607 149.423s.705 6.944.82 11.739c-2.101-4.68-2.53-5.93-.82-11.739z" fill="#2c100c"/><path d="M4.781 194.15C0 207.902-.398 222.744-3.298 234.612c-.693-.006-.823.293-1.509.287 1.472-10.806-.208-12.355 4.116-33.593 1.228-7.384 2.66-13.32 8.141-10.607 4.045-6.008 15.513-6.566 57.339-20.658v-.258c.278-1.001 2.706-4.267 3.099-9.897.345-4.904 2.622-9.431 5.25-11.325-5.936 6.453-1.918 18.345-8.092 22.976-11.943 7.43-46.458 16.309-60.265 22.613zm185.966-5.651c-6.943-4.644-20.714-8.348-56.963-21.507-5.658-7.834-2.604-13.425-7.174-17.534.063 1.001-.018.613 0 1.51 2.161-.43 2.695 15.819 7.443 18.193 19 9 45.261 17.317 59.521 22.632 6.636 10.021 8.157 26.964 13.401 42.817l1.063-.009c-7.594-43.452-11.309-50.619-17.291-46.102zm-64.755-26.034c-7.33 12.798-21.646 4.662-20.242 19.81 2.738-14.64 15.421-6.354 20.242-19.81zm-28.62 21.83c2.628-16.491-15.517-13.785-23.633-23.296 5.073 10.41 21.814 7.228 23.633 23.296z" fill="#5a3834"/><path d="M196.139 187.915c-1.581-1.609-3.779-1.259-5.409-.029-7.133-4.756-26.235-9.496-56.63-21.609 0 0-2.289-2.963-3.469-8.017-.783-3.353-.308-7.087-4.192-9.838-.749 9.286-.411 16.736-9.51 20.304-8.959 3.582-14.71 3.744-10.319 20.76-2.301-.026-6.457-.018-9.318.563-.058-.295 1.027-8.769.918-10.412-1.014-15.376-28.515-9.625-24.93-27.551.33-1.649.454-2.542.187-3.81-3.67 1.92-5.337 6.074-5.847 9.51-.556 3.889.319 4.852-3.32 12.13 0 .011-.01.021-.01.03-.17.05-.35.11-.53.17-41.434 13.791-52.827 14.785-56.48 20.22-5.931-2.941-7.458 5.121-8.46 11.15-4.398 21.597-2.602 22.344-4.2 33.61 1 0 109.661.96 212.96.01.36 0 .71-.01 1.06-.01-.321-1.346-6.418-41.243-12.501-47.181zm-78.619-17.76c9.877-4.015 9.506-9.654 9.367-19.766 3.437 1.52.914 8.914 6.792 16.516 0 4.854-1.267 9.955-4.229 13.46-5.51 6.101-14.719 9.317-22.23 9.13-2.535-16.158.694-15.404 10.3-19.34zm-49.171-11.15c.062-2.714 2.16-8.263 4.9-10.1-8.723 23.076 22.427 15.489 23.73 31.92.027.457-.38 8.333-.39 8.84-16.104-1.896-23.674-5.555-31.64-19.189l.06-.12c.01.01.01 0 .01 0 2.528-5.057 2.998-6.205 3.33-11.351zm-72.94 75.45c1.436-5.179 1.375-14.908 4.04-28.63 1.58-7.847 1.629-17.345 7.48-15.03.02 0 .03.011.04.011 3.516 8.49 11.016 31.499 11.33 32.5.155.456 2.074 8.248 2.56 9.89-2.124-16.99-11.493-39.731-12.99-42.14 4.051-4.15 3.094-2.325 35.92-12.7 7.099-2.245 19.409-7.106 20.27-7.601 9.185 19.855 28.548 19.105 32.33 19.521-11.02 3.397-4.729 31.249-3.77 40.96-.163-7.896-3.465-29.31 1.25-36.84 0 0 .648-1.301 3.14-2.38 6.946-2.627 15.325 2.951 29.95-7.34 4.758-4.518 7.13-7.39 7.13-17.53 24.029 11.337 46.962 16.747 56.11 21.7-.013.081-.05.414-.05.42-1.544 13.248 1.243-1.169-4.4 28.689-1.47 8.541-.406 5.667-1.13 13.28 1.481-7.851-.067-3.756 2.12-13.12 4.586-19.338 3.858-22.946 4.16-29.39 3.326-2.396 5.107.213 6.399 3.96 4.836 14.695 7.982 34.133 10.09 41.76-65.83-.602-146.146-.571-211.979.01zm112.438-31.774c-3.239 1.259-7.306.944-10.905.433 6.225-.876 10.266-.469 10.905-.433z" fill="#1d0805"/><path d="M47.001 83.231c-1.376-2.453-5.638-8.48-9.98-7.003-2.749.935-3.293 3.993-3.735 6.693-.588 3.591.471 10.694 1.389 13.26.881 2.467 3.533 7.23 5.264 9.045 2.13 2.225 4.775 9.324 5.194 10.061.66 1.162 1.536 2.911 4.122 2.692 2.853-.244 4.584-1.85 5.856-2.121 3.142-.666-4.529-26.242-8.11-32.627z" fill="#f0c7b1" stroke="#c27b55" stroke-width="1.5"/><path d="M44.197 98.104c-.132-.581.007-1.56.142-2.504.124-.861.24-1.675.169-2.251-.267-2.154-1.773-6.249-2.757-8.467-1.132-2.554-2.963-5.77-5.262-6.599-.95-.343-1.575.067-1.938.484-.266.305-.325.665-.238.707.086.042.285-.254.572-.535a1.3 1.3 0 011.051-.385c-.19 1.073-1.167 6.883-.744 10.845.333 3.115 1.593 5.442 1.79 5.791.029.367.077.726.148 1.075.929 4.547 4.971 9.717 6.378 11.409.259.313.531.497.598.423.066-.076-.094-.387-.353-.7-1.388-1.679-5.391-6.831-6.289-11.218-.952-4.656 2.318-11.556 3.048-13.017.371.685.687 1.344.93 1.893.19.431.402.936.619 1.479-.429.762-3.434 6.32-2.338 10.767.406 1.641 2.235 3.755 3.447 4.333.667.32.919.797 1.209 1.349.336.64.718 1.365 1.828 1.892.225.108.429.151.61.151.313 0 .551-.135.725-.293.018.28.017.64.009.97-.012.431.042.783.137.791.094.008.196-.332.207-.76.016-.526.013-1.177-.072-1.488-.248-.917-1.008-1.953-1.813-3.048-.789-1.082-1.607-2.195-1.813-3.094zm-7.247-4.031c-2.177-7.139.656-13.3 1.144-14.28.85.822 1.6 1.919 2.21 2.995-.444.858-3.263 6.483-3.354 11.285zm9.391 10.442c-1.004-.475-1.339-1.115-1.666-1.733-.293-.559-.598-1.136-1.369-1.505a3.595 3.595 0 01-.542-.343c-2.486-6.263.272-9.001.963-9.562.211.766.369 1.468.439 2.031.063.517-.052 1.339-.167 2.134-.142.985-.286 2.004-.137 2.664.226.982 1.069 2.131 1.884 3.242.723.986 1.466 2.003 1.721 2.832-.108.164-.45.561-1.126.24z" fill="#c27b55"/><path d="M152.736 83.231c1.377-2.453 5.639-8.48 9.98-7.003 2.75.935 3.293 3.993 3.736 6.693.588 3.591-.471 10.694-1.389 13.26-.881 2.467-3.533 7.23-5.266 9.045-2.129 2.225-4.775 9.324-5.193 10.061-.658 1.162-1.535 2.911-4.121 2.692-2.854-.244-4.584-1.85-5.857-2.121-3.142-.666 4.53-26.242 8.11-32.627z" fill="#f0c7b1" stroke="#c27b55" stroke-width="1.5"/><path d="M153.727 101.196c-.805 1.096-1.564 2.131-1.813 3.048-.086.311-.088.962-.072 1.488.012.428.113.768.207.76s.148-.36.137-.791c-.008-.331-.008-.69.01-.97.174.158.412.293.725.293.182 0 .385-.043.609-.151 1.109-.526 1.492-1.252 1.828-1.892.289-.552.543-1.028 1.209-1.349 1.213-.578 3.041-2.692 3.447-4.333 1.096-4.447-1.908-10.005-2.338-10.767.217-.544.43-1.049.619-1.479a27.35 27.35 0 01.93-1.893c.73 1.46 4 8.361 3.049 13.017-.896 4.387-4.9 9.539-6.289 11.218-.258.313-.418.624-.352.7.066.074.338-.109.598-.423 1.406-1.692 5.449-6.862 6.379-11.409.07-.35.117-.708.146-1.075.197-.349 1.459-2.676 1.791-5.791.422-3.961-.555-9.772-.744-10.845.473-.042.814.156 1.051.385.287.281.486.577.572.535.086-.042.027-.402-.238-.707-.363-.417-.988-.827-1.938-.484-2.299.83-4.131 4.045-5.262 6.599-.984 2.218-2.49 6.313-2.758 8.467-.072.576.045 1.39.17 2.251.135.945.273 1.924.141 2.504-.205.901-1.023 2.014-1.814 3.094zm5.707-18.409c.611-1.075 1.361-2.173 2.211-2.995.488.98 3.32 7.141 1.145 14.28-.093-4.801-2.911-10.426-3.356-11.285zm-7.164 21.488c.254-.829.998-1.846 1.721-2.832.816-1.111 1.658-2.26 1.885-3.242.148-.66.004-1.679-.137-2.664-.115-.795-.23-1.617-.166-2.134.068-.563.227-1.266.438-2.031.691.561 3.449 3.299.965 9.562-.191.14-.375.263-.543.343-.771.369-1.074.946-1.369 1.505-.326.618-.662 1.258-1.666 1.733-.677.321-1.019-.076-1.128-.24z" fill="#c27b55"/><path d="M158.785 78.006h-.005c-.01.046-12.197 40.27-15.879 52.418a17.166 17.166 0 01-3.556 6.386c-6.375 7.194-23.768 25.057-39.324 25.057-15.849 0-33.591-19.045-39.708-26.214a16.297 16.297 0 01-3.172-5.765c-3.607-11.551-16.126-51.648-16.137-51.694h-.001a62.422 62.422 0 01-2.002-15.634C38.949 28.536 66.155.92 99.773.867c33.621-.053 60.913 27.476 60.964 61.499a62.387 62.387 0 01-1.952 15.64z" fill="#f0c7b1"/><path d="M132.168 10.26c14.31 11.135 23.671 29.457 23.699 50.208a67.459 67.459 0 01-1.796 15.641h-.004c-.009.046-11.223 40.27-14.608 52.417-.658 2.358-1.776 4.551-3.271 6.385-5.865 7.195-21.866 25.059-36.178 25.059-14.582 0-30.904-19.047-36.531-26.215-1.327-1.689-2.306-3.633-2.918-5.764-3.318-11.552-14.836-51.649-14.846-51.695h-.001a67.6 67.6 0 01-1.842-15.634c-.029-20.827 9.348-39.239 23.713-50.412-17.193 10.909-28.618 30.258-28.584 52.31a62.416 62.416 0 002.002 15.634h.001c.01.046 12.53 40.143 16.137 51.694a16.321 16.321 0 003.172 5.765c6.116 7.169 23.858 26.214 39.708 26.214 15.557 0 32.949-17.862 39.324-25.057a17.158 17.158 0 003.556-6.386c3.682-12.148 15.869-52.372 15.879-52.418h.005a62.395 62.395 0 001.952-15.641c-.033-21.976-11.44-41.23-28.569-52.105z" fill="#e8b9a0"/><path d="M158.785 78.006h-.005c-.01.046-12.197 40.27-15.879 52.418a17.166 17.166 0 01-3.556 6.386c-6.375 7.194-23.768 25.057-39.324 25.057-15.849 0-33.591-19.045-39.708-26.214a16.297 16.297 0 01-3.172-5.765c-3.607-11.551-16.126-51.648-16.137-51.694h-.001a62.422 62.422 0 01-2.002-15.634C38.949 28.536 66.155.92 99.773.867c33.621-.053 60.913 27.476 60.964 61.499a62.387 62.387 0 01-1.952 15.64z" fill="none" stroke="#c27b55" stroke-width="1.5"/><path d="M99.983 141.177c-3.24 0-4.753-3.8-4.753-3.8s4.826.199 9.279.933c0 0-1.677 2.867-4.526 2.867z" fill="url(#b)"/><path d="M87.792 135.571c-.373-.33 1.528-3.373 3.926-4.045 3.031-.882 5.759.026 7.991.413 2.034.354 5.041.049 7.028.579 2.249.6 8.464 3.283 7.981 3.8-.238.255-4.963-1.676-8.076-2.278-1.98-.384-4.881-.086-6.874-.413-2.062-.337-4.47-1.21-7.268-.805-2.538.367-4.283 3.125-4.708 2.749z" fill="#c27b55"/><path d="M78.863 89.23c-4.31.755-7.656.71-10.688-.204-3.127-.943-7.188-4.825-8.596-8.495 3.715-.277 11.349-.597 14.89-.154 4.688.586 9.474 2.406 12.305 5.236-.016.294-.053.583-.087.872-2.286 1.547-5.521 2.341-7.824 2.745z" fill="url(#c)"/><path d="M80.038 85.838a5.983 5.983 0 01-7.361 4.196 6.011 6.011 0 01-4.214-7.371 5.986 5.986 0 017.365-4.198 6.01 6.01 0 014.21 7.373z" fill="#9fae70" stroke="#6c802c" stroke-width=".5"/><path d="M78.717 82.673c-.569.873-2.036.925-3.276.117-1.24-.808-1.784-2.17-1.215-3.043.568-.872 2.036-.924 3.276-.117 1.238.809 1.782 2.172 1.215 3.043z" fill="url(#d)" opacity=".7" transform="translate(.25 .25)"/><path d="M55.8 85.001c0 13.808 8.06 24.999 18 24.999s18-11.191 18-24.999C91.8 71.192 83.74 60 73.8 60s-18 11.192-18 25.001zm3.78-4.47c3.715-.277 11.349-.597 14.89-.154 4.952.619 10.04 2.6 12.788 5.71-2.289 1.82-5.897 2.705-8.395 3.143-4.31.755-7.656.71-10.688-.204-3.126-.943-7.187-4.825-8.595-8.495z" fill="#f0c7b1"/><path d="M55.942 83.916c.027 8.284 8.484 14.962 18.902 14.919 10.414-.047 18.836-6.796 18.813-15.08-.027-8.285-8.486-14.963-18.902-14.92-10.416.047-18.836 6.796-18.813 15.081zm3.638-3.385c3.715-.277 11.349-.597 14.89-.154 4.952.619 10.04 2.6 12.788 5.71-2.289 1.82-5.897 2.705-8.395 3.143-4.31.755-7.656.71-10.688-.204-3.126-.943-7.187-4.825-8.595-8.495z" fill="url(#e)"/><path d="M59.58 80.531c3.715-.277 11.349-.597 14.89-.154 4.952.619 10.04 2.6 12.788 5.71-2.289 1.82-5.897 2.705-8.395 3.143-4.31.755-7.656.71-10.688-.204-3.126-.943-7.187-4.825-8.595-8.495z" fill="url(#f)"/><path d="M67.563 77.096c10.603-.48 13.849 1.478 18.339 4.3-7.46-4.373-16.872-4.354-18.339-4.3zm-7.966 7.057c2.854 5.494 4.797 4.894 7.531 6.058.025.009-1.51-.579-2.664-1.196-2.99-1.719-3.356-2.451-4.867-4.862z" fill="#c27b55"/><path d="M58.468 79.966c2.857 5.992 4.761 9.926 14.332 10.071 7.283.109 11.794-.564 15.584-3.374-3.395-5.194-7.754-6.771-13.57-7.358-5.899-.596-16.346.661-16.346.661zm2.037.861c3.467-.258 10.59-.557 13.895-.144 4.621.577 9.369 2.426 11.934 5.328-2.137 1.699-5.504 2.524-7.834 2.933-4.021.705-7.145.663-9.973-.19-2.919-.879-6.708-4.502-8.022-7.927z" fill="#582311"/><path d="M120.737 89.23c4.31.755 7.656.71 10.688-.204 3.127-.943 7.188-4.825 8.596-8.495-3.715-.277-11.349-.597-14.89-.154-4.688.586-9.474 2.406-12.305 5.236.016.294.053.583.087.872 2.286 1.547 5.522 2.341 7.824 2.745z" fill="url(#g)"/><path d="M131.538 85.838a5.983 5.983 0 01-7.362 4.196c-3.196-.876-5.084-4.178-4.214-7.371a5.986 5.986 0 017.365-4.198 6.012 6.012 0 014.211 7.373z" fill="#9fae70" stroke="#6c802c" stroke-width=".5"/><path d="M130.717 82.673c-.569.873-2.036.925-3.276.117-1.239-.808-1.784-2.17-1.215-3.043.568-.872 2.035-.924 3.275-.117 1.239.809 1.783 2.172 1.216 3.043z" fill="url(#h)" opacity=".7" transform="translate(-.25 .25)"/><path d="M125.801 60c-9.94 0-18 11.193-18 25.001 0 13.808 8.06 24.999 18 24.999s18-11.191 18-24.999c0-13.809-8.06-25.001-18-25.001zm5.624 29.026c-3.031.914-6.378.959-10.688.204-2.497-.438-6.105-1.323-8.395-3.143 2.748-3.11 7.836-5.091 12.788-5.71 3.541-.443 11.175-.123 14.89.154-1.408 3.67-5.468 7.552-8.595 8.495z" fill="#f0c7b1"/><path d="M124.846 68.835c-10.416-.043-18.875 6.635-18.902 14.92-.023 8.284 8.398 15.033 18.813 15.08 10.418.043 18.875-6.635 18.902-14.919.023-8.285-8.397-15.034-18.813-15.081zm6.579 20.191c-3.031.914-6.378.959-10.688.204-2.497-.438-6.105-1.323-8.395-3.143 2.748-3.11 7.836-5.091 12.788-5.71 3.541-.443 11.175-.123 14.89.154-1.408 3.67-5.468 7.552-8.595 8.495z" fill="url(#i)"/><path d="M140.021 80.531c-3.715-.277-11.349-.597-14.89-.154-4.952.619-10.04 2.6-12.788 5.71 2.289 1.82 5.897 2.705 8.395 3.143 4.31.755 7.656.71 10.688-.204 3.126-.943 7.186-4.825 8.595-8.495z" fill="url(#j)"/><path d="M113.697 81.396c4.491-2.822 7.736-4.781 18.34-4.3-1.467-.054-10.879-.073-18.34 4.3zm21.44 7.62c-1.154.617-2.689 1.205-2.664 1.196 2.734-1.164 4.678-.564 7.531-6.058-1.512 2.41-1.877 3.142-4.867 4.862z" fill="#c27b55"/><path d="M124.787 79.305c-5.816.587-10.176 2.165-13.57 7.358 3.79 2.809 8.301 3.483 15.584 3.374 9.57-.145 11.474-4.079 14.331-10.071 0 0-10.446-1.257-16.345-.661zm6.287 9.449c-2.828.853-5.951.895-9.973.19-2.33-.409-5.697-1.234-7.834-2.933 2.564-2.902 7.313-4.751 11.934-5.328 3.305-.413 10.428-.114 13.895.144-1.315 3.425-5.104 7.048-8.022 7.927z" fill="#582311"/><path d="M141 113.974c.035 22.622-18.292 40.994-40.938 41.025-22.642.037-41.028-18.273-41.063-40.9-.035-22.62 18.292-41.064 40.937-41.1 22.643-.035 41.031 18.35 41.064 40.975z" fill="url(#k)"/><path d="M137.5 53.999c0 20.711-16.789 37.5-37.499 37.5-20.711 0-37.501-16.789-37.501-37.5s16.79-37.5 37.501-37.5c20.71 0 37.499 16.789 37.499 37.5z" fill="url(#l)"/><path d="M54.964 78c3.142-11.595 35.115-1.16 36.543-11.207.047-1.179-.552-1.884-2.627-.392C83.26 71.17 56.139 65.69 54.964 78zm90.072 0c-3.181-11.738-35.1-1.047-36.543-11.207-.047-1.179.553-1.884 2.627-.392 5.617 4.767 32.741-.702 33.916 11.599z" fill="#4e4341"/><path d="M101.1 120.646c-.471.511-.856.45-1.301-.08l-4.95-5.988H107l-5.9 6.068z" fill="#e1ac8f"/><path d="M93.461 115.507l6.435 5.235c.537.437.744.271.464-.367l-2.295-5.2a1.686 1.686 0 01-.078-.943l1.676-26.41-6.383 25.917a1.26 1.26 0 00.181 1.768z" fill="#c27b55"/><path d="M121.84 132.49c-14.48-1.75-10.87-2.33-17.37-2.59a2.223 2.223 0 01-2.1-1.71c-.19-.83-.61-3.02-.31-5.48 2.65.32 14.42 2.84 17.17 4.68 2.25 1.54 2.31 3.36 2.61 5.1zm-41.07-5.1c2.82-1.89 15.09-4.46 17.04-4.66v-.01c.05-.01.09-.01.12-.01.3 2.46-.11 4.65-.31 5.48-.56 2.38-3.11 1.45-5.68 2.01-12.16 2.53-9.03 1.72-13.79 2.29.31-1.74.37-3.56 2.62-5.1z" fill="#4e4341"/><path d="M98.02 122.6c.27 2.09.04 4.17-.3 5.61a2.31 2.31 0 01-2.15 1.78c-1.26.05-2.71.11-3.6.3-12.24 2.55-8.97 1.7-13.93 2.31.01-.03.01-.07.02-.1.48-.46.94-.7.94-.7 6.58-4.7 17.57-.57 18.87-9.19.06 0 .12-.01.15-.01zm3.96 0c-.27 2.09-.04 4.17.3 5.61a2.31 2.31 0 002.15 1.78c1.26.05 2.71.11 3.6.3 12.24 2.55 8.97 1.7 13.93 2.31-.01-.03-.01-.07-.02-.1-.48-.46-.94-.7-.94-.7-6.58-4.7-17.57-.57-18.87-9.19-.06 0-.12-.01-.15-.01zm-18.11 5c-1.04.04-1.31.18-1.96.62-.05.05-1.01.92-.94.92-.31.35-.93 1.24-1.23 1.64 1.63-1.36 2-2.67 4.13-3.18zm3.62.31c4.34-1.52 6.03-3.11 9.13-4.25-2.82 1.74-5.2 3.73-9.13 4.25zm-3.25.63c2.22-1.49 4.02-2.27 5.75-3-1 .63-2.9 1.89-5.75 3zm8-1.13c1-.82 2.19-.93 3.25-1.75-1.09 1.12-1.95 1.06-3.25 1.75zm23.89.19c1.04.04 1.31.18 1.96.62.05.05 1.01.92.94.92.31.35.93 1.24 1.23 1.64-1.63-1.36-2-2.67-4.13-3.18zm-12.75-3.94c3.09 1.14 4.78 2.73 9.13 4.25-3.93-.52-6.31-2.51-9.13-4.25zm6.63 1.88c1.73.73 3.53 1.51 5.75 3-2.85-1.11-4.75-2.37-5.75-3zm-5.5.12c1.06.82 2.25.93 3.25 1.75-1.3-.69-2.16-.63-3.25-1.75z" fill="#3f312e"/><path d="M119.29 127.31c-2.94-1.97-15.41-4.51-17-4.66v-.01a4.02 4.02 0 00-.31-.03c-.27 2.09-.04 4.17.3 5.61a2.31 2.31 0 002.15 1.78c1.26.05 2.71.11 3.6.3 12.24 2.55 8.97 1.7 13.93 2.31-.33-1.8-.32-3.7-2.67-5.3zm-11.12 2.34c-.91-.16-2.12-.13-3.4-.08-.75.03-1.42-.47-1.61-1.19-.25-.92-.54-2.22-.83-5.42 2.1.42 5.78 1.78 8.1 2.39 8.29 2.01 9.41 2.32 10.99 6.83-.04-.02-13.21-2.53-13.25-2.53zm-30.13 2.95c4.96-.6 1.69.24 13.93-2.31.89-.19 2.34-.25 3.6-.3 1.04-.04 1.92-.77 2.15-1.78.33-1.44.57-3.52.3-5.61-.06 0-.23.03-.31.03v.01c-1.59.16-14.06 2.7-17 4.66-2.35 1.61-2.34 3.51-2.67 5.3zm.54-.42c1.58-4.51 2.7-4.82 10.99-6.83 2.32-.61 6-1.97 8.1-2.39-.29 3.2-.58 4.5-.83 5.42-.2.72-.86 1.21-1.61 1.19-1.28-.04-2.49-.07-3.4.08-.04 0-13.21 2.51-13.25 2.53z" fill="#201311"/><path d="M80.709 34.557c4.12-3.041 9.715-3.693 16.558-2.323 5.292-3.294 15.869-3.224 21.709.397l3.457-11.98-52.341 4.046 10.617 9.86z" fill="#2f211e"/><path d="M37.21 85.336C30.116 58.218 25.398 27.461 56.669 4.26c8.853-6.426 19.862-7.773 27.538-7.773 7.993 0 14.477 1.499 16.341 2.514l.208.113.226-.074c3.118-.994 6.957-1.523 11.105-1.523 12.853 0 30.869 5.057 42.893 19.25 9.14 10.794 17.774 30.855 7.105 65.169h-.021s-.148.557-.178.658c-3.457-1.473-6.839-2.475-10.114-3.446-9.063-2.684-16.885-5.001-21.658-16.18-.145-.351-.324-1.477-.555-2.901-1.291-7.984-4.308-26.68-17.779-32.709-1.935-.786-3.569-1.147-5.168-1.147-3.145 0-6.156 1.448-9.458 4.553-2.634-1.141-4.917-1.696-6.969-1.696-6.327 0-11.363 5.228-17.386 18.047-1.894 3.907-3.031 7.417-4.033 10.513-2.585 7.979-4.453 13.746-16.391 20.029-2.946 1.61-6.195 3.212-9.339 4.763a335.218 335.218 0 00-5.826 2.916z" fill="#4e4341"/><path d="M105.614 18.714c28.229-5.106 32.704 52.078 48.686 56.757-5.396-12.071-9.353-23.835-10.437-39.693 5.436 18.565 9.51 26.904 15.007 32.183 1.502-24.864-.523-39.573-10.287-57.487-11.435-9.425-25.767-12.957-36.496-12.957-4.148 0-7.987.529-11.105 1.523l-.226.074-.208-.114C98.684-2.016 92.2-3.514 84.207-3.514c-6.564 0-15.56.996-23.566 5.299-16.149 21.305-22.681 46.93-18.205 72.56 4.621-11.663 6.659-23.953 13.344-38.567-4.635 14.005-4.171 23.974-8.25 35.83 18.181-11.603 12.193-26.447 24.42-41.95 5.769-7.744 24.145-8.777 25.393.941.185-.172.368-.331.552-.493.961-4.849 2.269-10.405 7.719-11.392z" fill="#3f312e"/><path d="M57.586 48.567c2.488-7.87 2.448-9.899 3.634-14.406 6.92-26.707 30.524-20.736 34.72-14.67.239.326.37.502.37.502l-.432-.462c-3.573-4.105-21.731-9.218-30.48 8.441-3.575 7.438-3.433 11.222-7.812 20.595zm9.749-37.835c1.352-1.039 2.308-1.662 2.308-1.662 9.619-6.638 18.8-7.501 28.365-4.885-1.694-.654-4.498-1.815-8.446-2.275C54.374-.636 48.087 38.732 45.361 47.047c5.496-11.465 7.88-25.243 21.974-36.315zm61.081 10.982c-8.457-10.152-18.242-13.946-30.749-8.106 28.427-9.983 38.845 27.518 44.156 36.784-3.438-8.458-3.668-17.072-13.407-28.678zm-33.125-9.321c11.223-9.433 43.926-13.407 59.469 34.102l.991 2.984C145.496-6.657 105.58 1.864 95.291 12.393z" fill="#2f211e"/><path d="M148.279 73.767c-8.26-3.9-13.81-8.055-16.069-17.367-2.688-11.38-8.134-37.877-29.107-32.761 19.153-6.747 27.954 14.231 31.313 32.346 1.65 8.279 5.768 12.699 13.863 17.782zM72.228 42.1c.617-1.427 1.069-2.362 1.069-2.362 5.09-10.386 9.833-15.72 20.634-12.144-10.938-4.992-17.75 1.245-22.704 11.35-11.184 23.131-1.875 18.542-22.472 36.376C68.963 61.573 63.204 62.519 72.228 42.1zm87.939-7.515c2.018 13.188 2.591 19.962-.066 40.124 4.807-18.866 3.597-27.699.066-40.124zM38.838 48.115c.58-8.917 2.583-20.242 8.558-27.817-14.095 14.207-11.714 45.655-7.811 57.147-1.149-6.031-1.246-22.778-.747-29.33z" fill="#5d5857"/><path d="M100.813-1.388c-4.242-2.307-28.469-6.317-44.469 5.297-30.673 22.757-27.235 52.654-19.474 82.13 4.602-2.415 10.669-5.203 15.765-7.989 16.905-8.898 13.998-17.051 20.636-30.759 8.125-17.298 14.163-19.455 23.996-15.057 5.525-5.315 9.678-6.338 14.285-4.468 15.916 7.123 17.097 32.984 18.091 35.366 6.675 15.644 19.279 14.258 32.586 20.117.081-.283.162-.565.235-.856h.009c23.049-73.483-38.522-91.186-61.66-83.781zm63.678 61.025c-.694 9.357-2.821 21.306-2.965 22.217-11.304-6.112-22.484-4.722-29.412-20.063-.037-.099-.007.036-.037-.182-4.062-30.844-22.014-44.849-34.902-30.933-8.594-4.358-14.148-2.036-19.747 4.896C63.429 52.96 70.694 64.903 51.31 76.41c-4.381 2.677-10.079 5.823-13.695 8.081-4.668-23.015-11.621-58.396 24.802-81.297C82.234-6.986 97.779-.972 99.483-.972c4.143 1.02 5.63 1.567 9.75 3.413-3.416-1.949-5.337-2.747-6.782-3.256 28.811-3.927 66.642 14.401 62.04 60.452z" fill="#201311"/></svg>