<svg xmlns="http://www.w3.org/2000/svg" width="500" height="500" viewBox="0 0 200 200" overflow="hidden"><defs><radialGradient id="k" cx="100" cy="114" r="41" gradientUnits="userSpaceOnUse" class="svga-on-canvas-facehighlight-gradient-single-0"><stop stop-opacity=".5" stop-color="#ffc9b5" offset="0"/><stop stop-opacity="0" stop-color="#f5af95" offset=".9"/></radialGradient><radialGradient id="l" cx="100" cy="54" r="37" gradientUnits="userSpaceOnUse" class="svga-on-canvas-facehighlight-gradient-single-1"><stop stop-opacity=".5" stop-color="#ffc9b5" offset="0"/><stop stop-opacity="0" stop-color="#f5af95" offset=".9"/></radialGradient><radialGradient id="c" cx="125.903" cy="85.096" r="13.25" gradientTransform="matrix(-1.0996 .0423 .0635 .9207 206.549 .593)" gradientUnits="userSpaceOnUse" class="svga-on-canvas-eyesback-gradient-left-0"><stop stop-color="#fff" offset="0"/><stop stop-color="#fdfefe" offset=".544"/><stop stop-color="#f6f8f9" offset=".74"/><stop stop-color="#eaeff2" offset=".879"/><stop stop-color="#d9e3e8" offset=".992"/><stop stop-color="#d8e2e7" offset="1"/></radialGradient><radialGradient id="g" cx="125.541" cy="85.113" r="13.249" gradientTransform="matrix(1.0996 .0423 -.0635 .9207 -6.549 .593)" gradientUnits="userSpaceOnUse" class="svga-on-canvas-eyesback-gradient-right-0"><stop stop-color="#fff" offset="0"/><stop stop-color="#fdfefe" offset=".544"/><stop stop-color="#f6f8f9" offset=".74"/><stop stop-color="#eaeff2" offset=".879"/><stop stop-color="#d9e3e8" offset=".992"/><stop stop-color="#d8e2e7" offset="1"/></radialGradient><radialGradient id="e" cx="123.371" cy="81.442" fx="136.805" fy="80.36" r="17.038" gradientTransform="matrix(.9884 .1367 .1336 -.7354 -56.068 125.3)" gradientUnits="userSpaceOnUse" class="svga-on-canvas-eyesfront-gradient-left-3"><stop stop-color="#e69375" offset="0"/><stop stop-opacity=".3" stop-color="#e69375" offset=".7"/><stop stop-opacity="0" stop-color="#f5af95" offset="1"/></radialGradient><radialGradient id="f" cx="78.965" cy="81.143" r="26.237" gradientTransform="matrix(.7183 -.06 .0803 .6143 8.791 49.26)" gradientUnits="userSpaceOnUse" class="svga-on-canvas-eyesfront-gradient-left-4"><stop stop-opacity="0" offset=".95"/><stop stop-opacity=".2" offset="1"/></radialGradient><radialGradient id="i" cx="122.972" cy="81.425" fx="136.406" fy="80.344" r="17.037" gradientTransform="matrix(-.9884 .1367 -.1336 -.7354 255.271 125.342)" gradientUnits="userSpaceOnUse" class="svga-on-canvas-eyesfront-gradient-right-3"><stop stop-color="#e69375" offset="0"/><stop stop-opacity=".3" stop-color="#e69375" offset=".7"/><stop stop-opacity="0" stop-color="#f5af95" offset="1"/></radialGradient><radialGradient id="j" cx="79.515" cy="81.186" r="26.237" gradientTransform="matrix(-.7183 -.06 -.0803 .6143 191.208 49.267)" gradientUnits="userSpaceOnUse" class="svga-on-canvas-eyesfront-gradient-right-4"><stop stop-opacity="0" offset=".95"/><stop stop-opacity=".2" offset="1"/></radialGradient><linearGradient id="d" x1="132" y1="78" x2="126" y2="84" gradientTransform="translate(-50)" gradientUnits="userSpaceOnUse" class="svga-on-canvas-eyesiris-gradient-left-6"><stop stop-color="#fff" offset="0"/><stop stop-opacity="0" stop-color="#fff" offset="1"/></linearGradient><linearGradient id="h" x1="132" y1="78" x2="126" y2="84" gradientUnits="userSpaceOnUse" class="svga-on-canvas-eyesiris-gradient-right-6"><stop stop-color="#fff" offset="0"/><stop stop-opacity="0" stop-color="#fff" offset="1"/></linearGradient><linearGradient id="b" x1="100" y1="141" x2="100" y2="137" gradientUnits="userSpaceOnUse" class="svga-on-canvas-mouth-gradient-single-0"><stop stop-color="#eda184" offset=".1"/><stop stop-color="#e69375" offset="1"/></linearGradient><linearGradient id="a" x1="100" y1="171" x2="100" y2="130" gradientUnits="userSpaceOnUse" class="svga-on-canvas-chinshadow-gradient-single-0"><stop stop-opacity=".8" stop-color="#e69375" offset="0"/><stop stop-color="#c7633d" offset=".7"/></linearGradient></defs><path d="M225 225H-25V-25h250v250z" fill="#5e8c6a"/><path d="M103-37.266L99.131 71.999 96.536-37.598l6.464.332zm-29.797 1.001L91.025 71.904 79.65-36.835l-6.447.57zm-6.334 19.667l24.577 89.921-22.577-91.254-2 1.333zM26.203-29.931L87.817 74.773 32.243-32.257l-6.04 2.326zm-2.658 13.477l60.278 91.568-58.287-95.379-1.991 3.811zm-35.41-12.303l57.2 61.532L-6.7-32.658l-5.165 3.901zM-15.464-.265l94.073 82.174-89.74-88.174-4.333 6zm-14.667 2.334l85.667 64.667L-29.574-.77l-.557 2.839zm4.941 40.725l99.642 45.712-96.509-51.375-3.133 5.663zm-18.941.608L56.536 85.069-44.797 39.735l.666 3.667zm-10.644 32.116L53.607 91.994l-109.599-19.45 1.217 2.974zm10.673 22.048l109.62 1.232-109.063-7.68-.557 6.448zm-14.029-45.497l89 27.333-89.667-31 .667 3.667zM79.65 236.833l11.375-108.739-17.822 108.169 6.447.57zm-10.781-18.904l22.577-91.254-24.577 89.921 2 1.333zm-38.043 22.364l47.61-91.392-53.65 89.065 6.04 2.327zm-5.29-20.03l58.287-95.379-60.278 91.568 1.991 3.811zm-36.748 19.3l67.27-86.188-72.435 82.287 5.165 3.901zm.081-33.3l89.74-88.174-94.073 82.174 4.333 6zm-18.443-5.494l85.11-67.506-85.667 64.666.557 2.84zm7.516-37.902l96.509-51.376-99.642 45.713 3.133 5.663zm-22.739-2.604l101.333-45.334-100.667 41.667-.666 3.667zm-11.195-32.809l109.599-19.449-108.382 16.475-1.217 2.974zm-2.805 24.143l89.667-31.001-89 27.333-.667 3.668zM120.438-43.631L106.913 64.863l14.599-89.479-1.074-19.015zm21.375 11.761L113.32 73.685l34.767-103.968-6.274-1.587zm7.643 20.376L112.68 75.019 151.219-9.86l-1.763-1.634zm38.436-8.33l-71.859 96.851 77.454-93.596-5.595-3.255zm4.718 12.905l-72.688 84.917L193.971-2.84l-1.361-4.079zm33.869-12.54l-61.838 61.764 66.318-57.093-4.48-4.671zm.111 32.182L123.991 85.534l105.924-66.199-3.325-6.612zm17.336 8.352l-94.745 53.14 94.846-50.248-.101-2.892zm-13.437 36.228L127.048 92.708l105.635-29.315-2.194-6.09zm22.038 6.181L145.283 92.157l106.004-25.158 1.24-3.515zm3.278 32.892l-109.623-.937 112.19 2.214-2.567-1.277zm-16.515 13.403l-108.899-9.73 108.426 16.185.473-6.455zm2.008 16.304l-67.52-9.087 66.28 12.603 1.24-3.516zM104.827 238.789l-.426-109.627-6.031 109.166 6.457.461zm9.375-18.413l-9.991-92.682 7.806 93.681 2.185-.999zm48.408 17.236l-54.587-110.773 48.254 112.112 6.333-1.339zm5.361-12.955l-55.949-97.521L165.4 228.103l2.571-3.446zm30.113-7.337l-79.836-96.065 74.605 101.301 5.231-5.236zm14.852.024L138.621 139.9l73.314 80.159 1.001-2.715zm1.585-40.993l-91.122-60.95 87.131 66.045 3.991-5.095zm18.798 2.406l-92.776-57.118 92.852 60.845-.076-3.727zm15.607-30.019l-104.393-33.471 105.123 36.601-.73-3.13zm-.408 23.684l-83.533-41.113 83.608 44.841-.075-3.728z" fill="#477d55"/><path d="M100.5 100.5h-1v-1h1v1z" fill="#caa478"/><path d="M195.417 199.778c-2.196-4.746-8.195-11.779-14.86-13.722-8.239-2.403-26.837-5.308-33.733-6.923-5.528-1.296-16.662-11.294-20.564-14.65-.7-.6-1.273-1.839-1.287-2.76-.139-10.864 4.195-39.724 4.195-39.724H70.833s4.334 28.859 4.193 39.724c-.011.921-.587 2.16-1.285 2.76-3.902 3.356-15.036 13.354-20.564 14.65-6.897 1.615-25.495 4.619-33.733 7.022-6.667 1.942-12.664 8.876-14.86 13.622-3.708 8.008-4.584 22.5-4.584 35h200c0-12.499-.877-26.991-4.583-34.999z" fill="#f5af95"/><path d="M159.156 184.058c24.342 3.542 34.586 8.708 37.794 50.721H200c0-12.5-.877-26.992-4.583-35-2.196-4.746-8.195-11.779-14.86-13.722-8.239-2.403-26.837-5.308-33.733-6.923-5.528-1.296-18.242-12.069-21.643-16.35 3.36 4.704 12.791 15.605 21.054 18.46 3.953 1.366 7.245 1.988 12.921 2.814zm-105.39-2.814c8.263-2.854 17.693-13.756 21.054-18.46-3.4 4.28-16.114 15.054-21.643 16.35-6.896 1.615-25.494 4.619-33.733 7.022-6.665 1.942-12.664 8.876-14.86 13.622-3.706 8.008-4.583 22.5-4.583 35h3.05c3.188-41.744 13.475-47.183 37.794-50.721 5.675-.825 8.968-1.447 12.921-2.813z" fill="#ffc9b5"/><path d="M95.646 197.62s-5.074-1.609-7.083-2.379c-10.449-4.009-44.395-6.607-44.395-6.607s35.754 1.419 43.644 2.779c-.458-4.767-3.017-20.004-3.017-20.004s5.149 16.815 6.409 21.057c.674 2.268 4.442 5.154 4.442 5.154zm10.799-1.342c-.089.073-.191.168-.302.268.113-.085.215-.174.302-.268zm-10.799 1.342s2.893 2.992 4.347 3.03c1.91.051 4.828-2.899 6.151-4.104-1.265.957-4.159 1.391-5.31 1.436-1.33.051-5.188-.362-5.188-.362zm21.018-7.519c-1.545.248-4.386.789-4.386.789l2.287-14.89c-.646 3.071-4.474 16.211-8.12 20.278 1.91-1.616 6.158-2.391 8.324-2.704 10.236-1.484 10.232-1.483 41.062-4.94 0 0-29.071-.155-39.167 1.467z" fill="#e69375"/><path d="M195.417 199.778c-2.196-4.746-8.195-11.779-14.86-13.722-8.239-2.403-26.837-5.308-33.733-6.923-5.528-1.296-16.662-11.294-20.564-14.65-.7-.6-1.273-1.839-1.287-2.76-.139-10.864 4.195-39.724 4.195-39.724H70.833s4.334 28.859 4.193 39.724c-.011.921-.587 2.16-1.285 2.76-3.902 3.356-15.036 13.354-20.564 14.65-6.897 1.615-25.495 4.619-33.733 7.022-6.667 1.942-12.664 8.876-14.86 13.622-3.708 8.008-4.584 22.5-4.584 35h200c0-12.499-.877-26.991-4.583-34.999z" fill="none" stroke="#c7633d" stroke-width="1.5"/><path d="M75.602 162.779c7.126 5.302 15.497 9.087 24.401 9.087 8.902 0 17.269-3.781 24.394-9.08a4.06 4.06 0 01-.175-1.053c-.088-6.862 1.561-20.607 2.82-30.025-15.654-1.97-38.431-1.97-54.084 0 1.26 9.419 2.908 23.163 2.819 30.024-.004.331-.07.688-.175 1.047z" fill="url(#a)"/><path d="M42.77 235.757l1.323-60.852s10.194-2.487 16.635-6.313c17.496 21.953 69.451 17.333 78.336-.62 1.489.525 2.721 1.197 4.262 1.713 5 3.386 9.213 4.494 9.213 4.494l.935 61.685c-14.286.188-110.704-.107-110.704-.107z" fill="#f5f4f5"/><path d="M154.014 177.705c-4.236-.719-7.611-1.697-9.452-3.544-5.343 10.025-26.763 16.378-33.855 17.309 20.554-6.276 29.188-10.813 32.598-21.583 1.99 2.383 6.522 3.549 12.313 4.538l-1.604 3.28zM52.67 174.381c1.454-.312 2.18-1.234 3.623-1.593l-1.528-1.867c-3.114 2.234-8.971 3.305-15.9 4.424l.188 3.738c3.956-.79 7.817-1.788 11.429-3.323 7.483 8.485 19.168 12.659 31.06 14.387-14.918-3.585-23.472-9.636-28.872-15.766z" fill="#fff"/><path d="M137.861 170.055c-5.929 11.361-50.74 24.595-76.009.866-1.571.615-6.271 2.085-6.271 2.085 18.406 23.08 72.345 23.227 86.702-.112-.062-.024-2.962-2.157-4.422-2.839z" fill="#dfdde2"/><path d="M139.008 167.841c-10.087 18.575-62.578 21.204-78.239.625-5.72 1.556-11.219 4.876-16.756 5.707l-1.243 61.584 110.703.107-.855-62.386c-3.369-.707-6.501-2.737-9.254-3.894-1.522-.639-2.814-1.214-4.356-1.743zm-78.618 1.246c13.903 23.086 68.817 18.455 79.419.099 1.286.499 1.615.696 3.106 1.183-10.982 21.208-65.306 27.967-87.525 1.147.156-.04 3.433-1.887 5-2.429zm-6.103 3.331c17.963 27.046 77.26 22.856 89.583-1.287a20.069 20.069 0 007.936 3.735l1.66 59.08-110.377.016 1.904-58.299c2.784-1.399 7.254-2.431 9.294-3.245z" fill="#b8b6c9"/><path d="M-4.529 235.566c-2.574-13.852-2.292-47.592 9.013-47.521 13.136-5.311 29.269-11.404 42.802-15.311 6.908-7.246 13.436-14.137 26.188-21.314.389 2.599 1.874 8.541.011 11.773-1.355 2.352-5.783 5.576-9.554 8.368-2.029 2.72-3.927 5.374-6.599 9.089 5.168 22.301 9.601 33.78 10.097 53.123 0 0-1.452.689 64.471.397 2.215-22.339 4.993-33.561 10.379-54.098 0 0-4.308-5.014-7.207-8.87-2.054-1.997-8.36-7.532-8.84-8.651-1.175-2.741-.548-6.188.11-11.367 10.793 4.873 17 12.021 26.082 21.303 7.729 2.119 30.86 9.967 42.445 15.216 3.965-.11 6.203 1.999 7.872 5.466 5.405 11.195 4.126 27.297 2.18 42.789-19.091.031-155.034 2.212-209.45-.392z" fill="#3f82a4"/><path d="M73.875 154.081c.16 1.07.304 2.085.411 3.041-.218.266-17.212 23.353-17.336 23.525 4.176-9.499 10.15-19.342 16.925-26.566zm52.178 0c-.159 1.07-.184 2.085-.291 3.041.218.266 16.931 22.469 17.054 22.642-4.425-8.85-9.988-18.459-16.763-25.683zm38.955 31.073c-4.28 6.231-5.194 8.382-9.879 14.557 1.071 0 2.799.166 3.87.166 3.664-6.285 3.671-9.484 6.009-14.723zm4.386 45.225c3.793-8.9 6.934-16.711 10.739-25.624l-1.247-2.014c-3.169 9.155-6.532 18.458-9.492 27.638zM41.048 199.877c1.071 0 2.799-.166 3.871-.166-4.685-6.175-5.599-6.561-9.878-12.792 2.336 5.239 2.343 6.673 6.007 12.958zm-19.887 2.864l-1.247 2.014c3.806 8.913 4.765 16.724 8.559 25.624-2.961-9.18-4.143-18.483-7.312-27.638z" fill="#2a7195"/><path d="M65.638 169.283c1.181-1.646 5.237-7.272 8.601-12.561.988 5.457-.826 8.694-8.601 12.561zm60.102-12.923c2.553 4.396 5.562 8.772 8.664 12.803-8.404-3.827-8.969-7.74-8.664-12.803z" fill="#196185"/><path d="M126.318 151.359c.008-.061.017-.118.023-.174 18.093 9.999 28.576 25.02 40.747 36.217-.448.721-1.228 1.193-1.687 1.905-12.745-9.698-18.802-24.361-39.083-37.948zm-54.582.663c-15.034 8.213-36.242 33.357-38.318 35.269.448.724.691.577 1.15 1.288 12.746-9.697 16.225-19.296 37.168-36.557zm123.133 35.682c-1-.799-24.646-10.039-42.59-14.969 33.698 16.299 45.587 18.545 51.471 24.321-.383-.999-1.164-9.567-8.881-9.352zM47.458 172.555c-13.524 3.914-30.839 10.098-42.975 15.491-5.364.106-9.208 7.93-10.031 16.084 7.462-16.813 3.775-5.51 53.006-31.575z" fill="#5794b3"/><path d="M206.6 210.062c-.34-8.635-3.055-23.103-11.691-22.46-.714-.61-20.822-9.767-42.285-15.611-7.353-7.455-16.515-17.598-26.371-20.957-.711 6.428-1.477 10.622.216 12.714 2.241 2.439 4.93 4.879 7.568 6.522 4.616 6.136 8.139 9.778 8.139 9.778-5.43 20.703-8.815 31.314-10.973 53.688H68.798c-2.157-22.373-5.543-32.984-10.973-53.688 0 0 3.522-3.643 8.139-9.778 2.639-1.644 5.327-4.083 7.568-6.522 1.692-2.092.927-6.286.216-12.714-9.856 3.359-19.019 13.502-26.371 20.957-21.463 5.845-41.571 15.001-42.285 15.611-8.637-.643-11.352 13.825-11.691 22.46C-7.01 220.549-5.164 235-5.014 236h210.029c.15-1.001 1.996-15.451 1.585-25.938zM72.984 163.194c-2.258 2.233-3.658 3.181-6.473 5.282 4.829-6.271 4.341-5.433 7.708-11.229.151 2.492-.786 5.504-1.235 5.947zm-76.156 70.834c-1.082-12.844-2.916-24.41.43-36.992 1.281-4.827 2.484-8.095 7.455-8.509 1.067 5.538 8.132 28.724 14.298 44.533-6.226-24.192-5.311-18.81-8.219-28.452-.964-3.235-1.854-6.486-2.979-9.672-.783-2.214-1.65-4.387-2.262-6.653l40.433-14.865c-.279.283-12.895 13.434-13.199 13.804 1.847 3.021 7.816 7.222 10.845 11.758-12.436 1.174-18.508 3.173-23 3.84.331.919 9.061 25.353 9.976 27.656-1.479-7.917-4.816-20.297-8.637-27.211 1.41-.179 18.077-2.492 23.393-3.477-1.476-2.854-8.043-8.437-11.559-12.619 20.646-18.162 25.422-27.402 39.593-35.454.15 1.509.443 3.011.55 4.519-15.795 23.533-17.649 23.567-17.649 23.567 4.585 17.81 10.532 35.824 10.532 54.073l-70.001.154zm130.188-70.834c-.448-.443-1.386-3.455-1.235-5.947 3.367 5.797 2.879 4.958 7.708 11.229-2.815-2.101-4.216-3.048-6.473-5.282zm76.156 70.834l-70-.154c0-18.249 5.947-36.264 10.532-54.073 0 0-1.854-.034-17.649-23.567.106-1.508.399-3.01.55-4.519 14.171 8.052 18.946 17.292 39.593 35.454-3.516 4.183-10.083 9.766-11.559 12.619 5.315.984 21.982 3.298 23.393 3.477-3.82 6.914-7.157 19.294-8.637 27.211.915-2.304 9.645-26.737 9.976-27.656-4.492-.667-10.564-2.666-23-3.84 3.028-4.536 8.998-8.736 10.845-11.758-.305-.37-12.92-13.521-13.199-13.804l40.433 14.865c-.611 2.267-1.479 4.439-2.262 6.653-1.125 3.186-2.015 6.437-2.979 9.672-2.908 9.643-1.993 4.26-8.219 28.452 6.166-15.81 13.23-38.995 14.298-44.533 4.971.414 6.174 3.682 7.455 8.509 3.345 12.582 1.511 24.149.429 36.992z" fill="#0a5276"/><path d="M46.778 83.613c-2.623-1.48-8.575-8.52-11.138-7.517-1.655.646-2.377 5.504-2.638 7.47-.333 2.525-.929 7.711-.328 10.185.725 2.985 3.631 8.507 5.37 11.027 1.468 2.122 5.211 5.797 6.407 8.088.759 1.454 1.493 5.373 4.083 5.12 1.674-.164 5.537-3.072 5.744-4.452 1.128-7.477-2.335-27.006-7.5-29.921z" fill="#f5af95" stroke="#c7633d" stroke-width="1.5"/><path d="M43.313 99.76c-.125-.556.006-1.491.133-2.395.115-.824.224-1.601.158-2.151-.251-2.06-1.66-5.975-2.578-8.097-1.059-2.44-2.771-5.515-4.919-6.307-.888-.33-1.473.063-1.813.461-.248.292-.305.636-.223.676.082.041.266-.244.535-.512.219-.219.542-.407.983-.368-.178 1.026-1.091 6.582-.696 10.369.311 2.978 1.489 5.202 1.673 5.536.028.352.073.695.139 1.028.869 4.347 4.648 9.29 5.963 10.908.243.298.496.476.56.404.062-.074-.087-.368-.33-.668-1.298-1.609-5.042-6.533-5.879-10.728-.89-4.45 2.167-11.048 2.849-12.443.348.655.643 1.285.87 1.809.179.412.378.894.581 1.414-.402.729-3.211 6.042-2.187 10.295.38 1.568 2.088 3.589 3.223 4.143.624.306.859.761 1.13 1.288.314.613.673 1.307 1.708 1.81.211.101.402.144.571.144a.968.968 0 00.679-.281c.017.268.016.611.007.928-.01.411.041.747.129.756.088.008.182-.318.192-.726.016-.503.013-1.125-.067-1.422-.232-.877-.942-1.867-1.694-2.915-.74-1.031-1.506-2.098-1.697-2.956zm-6.775-3.855c-2.035-6.825 0-13.093.458-14.029.795.785 2.108 2.213 2.679 3.239-.417.823-3.052 6.2-3.137 10.79zm8.78 9.986c-.938-.456-1.253-1.067-1.557-1.657-.275-.535-.56-1.087-1.281-1.44a3.11 3.11 0 01-.505-.328c-2.324-5.988.254-8.606.899-9.142.199.731.346 1.403.411 1.941.061.495-.05 1.28-.156 2.041-.132.942-.268 1.916-.127 2.546.211.94.999 2.038 1.76 3.1.677.943 1.373 1.915 1.609 2.708-.1.158-.422.535-1.053.231z" fill="#c7633d"/><path d="M152.961 83.613c2.623-1.48 8.574-8.52 11.137-7.517 1.656.646 2.379 5.504 2.639 7.47.334 2.525.928 7.711.328 10.185-.725 2.985-3.631 8.507-5.371 11.027-1.467 2.122-5.211 5.797-6.406 8.088-.76 1.454-1.492 5.373-4.084 5.12-1.674-.164-5.535-3.072-5.744-4.452-1.128-7.477 2.335-27.006 7.501-29.921z" fill="#f5af95" stroke="#c7633d" stroke-width="1.5"/><path d="M154.729 102.716c-.752 1.047-1.463 2.038-1.695 2.915-.078.297-.082.919-.066 1.422.012.407.105.733.193.726.088-.009.139-.345.129-.756a10.9 10.9 0 01.006-.928.97.97 0 00.68.281c.168 0 .359-.043.57-.144 1.035-.503 1.395-1.196 1.709-1.81.271-.527.506-.982 1.131-1.288 1.133-.554 2.842-2.575 3.223-4.143 1.023-4.253-1.785-9.566-2.188-10.295.203-.52.402-1.002.582-1.414.225-.524.521-1.154.869-1.809.682 1.395 3.738 7.993 2.848 12.443-.838 4.195-4.582 9.118-5.879 10.728-.242.3-.393.594-.33.668.064.071.318-.106.561-.404 1.314-1.618 5.094-6.561 5.963-10.908.066-.333.111-.677.139-1.028.184-.334 1.363-2.558 1.674-5.536.395-3.788-.518-9.343-.695-10.369.441-.039.764.149.982.368.268.268.453.552.535.512.08-.041.023-.384-.223-.676-.342-.397-.926-.791-1.813-.461-2.148.792-3.861 3.867-4.92 6.307-.92 2.123-2.326 6.037-2.578 8.097-.066.55.043 1.328.158 2.151.127.904.256 1.839.133 2.395-.193.858-.958 1.925-1.698 2.956zm5.335-17.601c.57-1.026 1.883-2.455 2.678-3.239.457.936 2.494 7.204.459 14.029-.086-4.59-2.721-9.967-3.137-10.79zm-6.697 20.545c.236-.793.932-1.765 1.609-2.708.762-1.063 1.549-2.16 1.76-3.1.141-.631.006-1.604-.127-2.546-.105-.76-.217-1.546-.156-2.041.066-.539.213-1.21.412-1.941.645.536 3.223 3.154.898 9.142a3.34 3.34 0 01-.504.328c-.723.353-1.008.905-1.281 1.44-.305.59-.619 1.201-1.559 1.657-.63.304-.952-.073-1.052-.231z" fill="#c7633d"/><path d="M100.002.867C66.381.813 39.186 28.343 39.134 62.366a62.395 62.395 0 001.953 15.641h.004c.011.054 8.713 39.241 14.519 51.175 6.073 12.487 23.814 32.685 44.392 32.685 20.582 0 38.32-20.197 44.392-32.685 5.805-11.935 14.507-51.122 14.519-51.175h.005a62.401 62.401 0 001.952-15.641C160.819 28.343 133.623.813 100.002.867z" fill="#f5af95"/><path d="M120.754 4.512c21.441 9.489 36.411 31.135 36.45 56.363a62.395 62.395 0 01-1.953 15.641h-.005c-.011.054-8.713 39.24-14.519 51.177-5.709 11.738-21.608 32.469-40.725 32.469s-35.016-20.73-40.725-32.469C53.471 115.756 44.77 76.57 44.758 76.516h-.004a62.355 62.355 0 01-1.953-15.641c.038-25.229 15.008-46.874 36.45-56.363-23.386 8.55-40.076 31.208-40.117 57.854a62.395 62.395 0 001.953 15.641h.004c.011.054 8.713 39.241 14.519 51.175 6.073 12.487 23.814 32.685 44.392 32.685 20.579 0 38.319-20.197 44.392-32.685 5.805-11.935 14.507-51.122 14.519-51.175h.005a62.401 62.401 0 001.952-15.641c-.04-26.646-16.73-49.304-40.116-57.854z" fill="#eda184"/><path d="M100.002.867C66.381.813 39.186 28.343 39.134 62.366a62.395 62.395 0 001.953 15.641h.004c.011.054 8.713 39.241 14.519 51.175 6.073 12.487 23.814 32.685 44.392 32.685 20.582 0 38.32-20.197 44.392-32.685 5.805-11.935 14.507-51.122 14.519-51.175h.005a62.401 62.401 0 001.952-15.641C160.819 28.343 133.623.813 100.002.867z" fill="none" stroke="#c7633d" stroke-width="1.5"/><path d="M100.671 140.999c-5.683-.008-7.963-3.983-7.963-3.983 6.845 2.441 15.408.264 15.408.264s-1.739 3.728-7.445 3.719z" fill="url(#b)"/><path d="M81.783 130.557c3.57-.112 10.625-.609 13.211-.457 1.337.079 3.53.999 4.971 1.313 1.003.22 4.814-.817 5.842-.822 2.687-.017 8.513 1.274 11.642 1.782.173.027 0 0 0 0s-7.699 6.575-17.56 6.143c-11.161-.491-18.106-7.959-18.106-7.959s-.177.005 0 0z" fill="#da7c87"/><path d="M117.743 132.177c-.085-.126-.641-.245-.846-.221-.373.044-.643.389-1.425.458-.904.084-5.695.815-7.002.782-2.629-.064-5.647.561-8.157.451-2.513-.11-6.464-1.159-9.077-1.344-1.297-.092-6.623-1.333-7.505-1.507-.759-.15-.82-.506-1.125-.607-.215-.074-.832-.023-.999.09-.145.1-.1.557.001.683.248.305 1.167.435 1.838.568.931.184 6.336 1.438 7.67 1.532 2.586.186 6.589 1.303 9.123 1.414 2.532.112 5.608-.587 8.21-.521 1.338.034 6.197-.699 7.156-.784.694-.064 1.556-.179 1.876-.402.153-.105.345-.46.262-.592z" fill="#ac2e3d"/><path d="M99.999 137.244c-4.411-.192-11.369-1.912-14.032-4.152 1.629.195 5.155.481 6.772.693 1.997.265 4.761 1.003 6.795 1.192 2.196.202 5.2-.237 7.342-.422 1.79-.153 4.563-.661 6.35-.72-3.005 1.793-8.969 3.595-13.227 3.409zm7.158-4.638c1.602-.081 4.101-.628 5.694-.675-1.796-.491-4.499-.493-6.406-.697-1.646-.174-4.155.69-5.787.804-1.838.132-4.022-1.204-5.733-1.333-1.857-.138-5.733.283-7.555.604 1.556.17 4.94.433 6.472.682 1.878.306 4.573.966 6.522 1.052 1.998.088 4.819-.335 6.793-.437z" fill="#e28c96"/><path d="M100.006 136.455c-2.626-.118-6.989-1.062-8.873-2.365a82.66 82.66 0 012.348.189c.146.015.293.031.438.05.757.101 1.489.304 2.271.515.759.207 2.481.47 3.329.557.167.019.333.027.501.034 1.043.048 2.983-.061 3.943-.21.609-.095 1.182-.192 1.77-.247.32-.032.669-.047 1.061-.049a25.9 25.9 0 011.036.017c-1.767.895-5.117 1.628-7.824 1.509z" fill="#e99ca5"/><path d="M79.382 131.481s-.708-1.188-.609-1.633c.139-.619 1.923-1.85 1.923-1.85s-1.08 1.415-1.247 1.863c-.161.433-.067 1.62-.067 1.62z" fill="#c7633d"/><path d="M76.732 78.383c4.587.679 7.931 3.488 10.773 7.94.004.005.013.004.018.008.007.027.021.053.026.08.255 1.007-.816 1.819-2.155 2.438-4.771.609-9.359 1.489-14.194.87-9.681-1.241-9.855-5.509-10.326-6.629-.252-1.101-.325-1.417-.311-2.473 2.332-1.366 4.043-1.647 5.854-2.005 2.124-.418 6.851-.744 10.315-.229z" fill="url(#c)"/><path d="M80.038 85.588a5.98 5.98 0 01-7.358 4.196c-3.195-.876-5.083-4.178-4.212-7.371a5.983 5.983 0 017.362-4.198 6.011 6.011 0 014.208 7.373z" fill="#724f7c" stroke="#431a4e" stroke-width=".5"/><path d="M73.515 80.413l-.156-.279c-.548.218-1.076.445-1.575.687l.37.894-.047.517-1.426-.839c-.466.259-.898.529-1.318.804l.004.009-.489.55.781.799-1.052.574.398.657 1.857.185-1.741 1.181 1.863-.103-.982 1.693 2.297-1.39-.618 2.364 1.329-2.184.256 2.343.384-2.072.353-.043.5 2.35.152-.705c.201-.052.718.704.915.651l-.584-2.556 1.282 2.556-.52-2.651 1.578 2.05c.057-.018.196-.85.252-.867l-.982-1.469 1.785.539-1.071-1.16-.86-.712 3.586.803-1.997-1.217 1.411-.577-3.055-.309 3.021-1.602-2.734.698-.736-.399-.181-.354.052-.846.061-1.389-1.248 2.198-.11-1.609-.157-.421c-.25.087-.495.172-.736.265l-.112.386z" fill="#83678b"/><path d="M80.106 82.755c-5.242.239-7.907 1.36-11.707 2.631-.732-3.229 1.298-6.438 4.53-7.164s6.446 1.303 7.177 4.533z" fill="#623a6d" opacity=".9"/><path d="M75.119 81.998c-1.319-.378-2.666.375-3.005 1.69-.342 1.308.452 2.678 1.771 3.056 1.32.379 2.667-.375 3.009-1.684.343-1.315-.454-2.684-1.775-3.062z" opacity=".8"/><path d="M75.119 81.998c-1.319-.378-2.666.375-3.005 1.69-.342 1.308.452 2.678 1.771 3.056 1.32.379 2.667-.375 3.009-1.684.343-1.315-.454-2.684-1.775-3.062z" fill="none" stroke="#431a4e" stroke-width=".75"/><path d="M69.881 87.56c.613.973 1.426 1.706 2.578 1.95 1.326.281 1.477-1.483.528-1.685-.72-.152-1.176-.505-1.552-1.102-.688-1.093-2.106-.039-1.554.837z" fill="#fff" opacity=".4"/><path d="M75.033 81.493c.929.187 1.469.768 1.938 1.64.862 1.604 3.299.178 2.437-1.425-.757-1.408-2.019-2.613-3.625-2.938-2.057-.415-2.345 2.401-.75 2.723z" fill="url(#d)" transform="translate(.25)"/><path d="M55.112 83.583c3.224 11.315 7.475 23.313 17.685 23.669s22.135-7.239 22.29-22.238c.173-16.767-10.474-23.381-20.684-23.737s-24.096 5.437-19.291 22.306zm5.763-.493c-.252-1.101-.325-1.417-.311-2.473 2.027-1.21 4.04-1.547 5.851-1.905 2.123-.418 6.853-.845 10.317-.329 4.587.679 7.931 3.488 10.773 7.94.004.005.013.004.018.008.007.027.021.053.026.08.255 1.007-.816 1.819-2.155 2.438-4.771.609-9.359 1.489-14.194.87-9.681-1.241-9.855-5.509-10.325-6.629z" fill="#f5af95"/><path d="M74.225 95.171c9.256 1.401 17.847-3.01 19.186-9.859 1.34-6.849-5.072-13.537-14.329-14.94-9.258-1.399-17.845 3.012-19.185 9.862-1.34 6.848 5.07 13.532 14.328 14.937zM60.563 80.617c2.125-1.141 4.04-1.547 5.851-1.905 2.123-.418 6.853-.845 10.317-.329 4.587.679 7.931 3.488 10.773 7.94.004.005.013.004.018.008.007.027.021.053.026.08.255 1.007-.816 1.819-2.155 2.438-4.771.609-9.359 1.489-14.194.87-9.681-1.241-9.855-5.509-10.326-6.629-.251-1.101-.323-1.418-.31-2.473z" fill="url(#e)"/><path d="M60.875 83.09c-.252-1.101-.325-1.417-.311-2.473 2.092-1.175 4.04-1.547 5.851-1.905 2.123-.418 6.853-.845 10.317-.329 4.587.679 7.931 3.488 10.773 7.94.004.005.013.004.018.008.007.027.021.053.026.08.255 1.007-.816 1.819-2.155 2.438-4.771.609-9.359 1.489-14.194.87-9.681-1.241-9.855-5.509-10.325-6.629z" fill="url(#f)"/><path d="M76.327 75.748c3.294.539 6.505 2.054 9.48 3.945.637.404 1.366.865 2.521 1.451-.828-.188-1.594-.617-2.309-1.011a15.401 15.401 0 011.982 2.334c-2.521-3.159-7.297-5.538-11.36-6.349-3.902-.779-10.989-.264-16.251 2.042 4.818-2.711 11.847-3.08 15.937-2.412z" fill="#c7633d"/><path d="M87.508 86.277c-2.847-4.34-6.193-7.082-10.781-7.747-4.833-.705-11.271-.221-15.034 1.843-.308.169-1.607 1.249-1.401.117.874-1.167 4.322-2.523 5.993-2.928 18.745-4.543 22.297 10.292 21.223 8.715zm-26.862-3.436c-.716 2.063.861 6.654 10.145 7.503 6.595.602 15.767-1.75 14.634-1.613-4.779.589-9.375 1.449-14.219.839-10.982-1.38-9.738-6.547-10.56-6.729z" fill="#2c1630"/><path d="M122.867 78.383c-4.586.679-7.931 3.488-10.773 7.94-.004.005-.012.004-.018.008-.006.027-.02.053-.025.08-.256 1.007.815 1.819 2.154 2.438 4.771.609 9.359 1.489 14.194.87 9.681-1.241 9.855-5.509 10.325-6.629.253-1.101.325-1.417.312-2.473-2.331-1.366-4.043-1.647-5.854-2.005-2.123-.418-6.85-.744-10.315-.229z" fill="url(#g)"/><path d="M131.538 85.587a5.979 5.979 0 01-7.358 4.196 6.012 6.012 0 01-4.212-7.371 5.982 5.982 0 017.361-4.198 6.012 6.012 0 014.209 7.373z" fill="#724f7c" stroke="#431a4e" stroke-width=".5"/><path d="M125.016 80.413l-.155-.278c-.548.217-1.076.445-1.576.686l.37.894-.047.517-1.426-.839c-.467.259-.898.529-1.317.804l.004.009-.49.551.782.799-1.052.573.397.657 1.857.185-1.741 1.181 1.863-.103-.982 1.692 2.296-1.39-.616 2.364 1.328-2.184.257 2.343.384-2.073.353-.043.501 2.35.151-.704c.201-.052.719.703.915.651l-.585-2.556 1.283 2.556-.521-2.651 1.577 2.05c.057-.018.197-.85.253-.867l-.982-1.469 1.786.538-1.071-1.16-.859-.712 3.586.802-1.997-1.216 1.411-.577-3.054-.308 3.021-1.603-2.734.698-.736-.399-.18-.354.052-.847.061-1.388-1.247 2.198-.11-1.609-.156-.422c-.25.087-.495.173-.735.265l-.119.389z" fill="#83678b"/><path d="M131.605 82.755c-5.24.239-7.906 1.36-11.706 2.631a5.988 5.988 0 014.53-7.164 6.007 6.007 0 017.176 4.533z" fill="#623a6d" opacity=".9"/><path d="M126.62 81.998c-1.319-.378-2.666.376-3.005 1.69-.343 1.308.451 2.678 1.77 3.056 1.322.379 2.668-.375 3.009-1.684.343-1.315-.455-2.684-1.774-3.062z" opacity=".8"/><path d="M126.62 81.998c-1.319-.378-2.666.376-3.005 1.69-.343 1.308.451 2.678 1.77 3.056 1.322.379 2.668-.375 3.009-1.684.343-1.315-.455-2.684-1.774-3.062z" fill="none" stroke="#431a4e" stroke-width=".75"/><path d="M121.382 87.56c.612.973 1.426 1.706 2.577 1.95 1.326.281 1.478-1.482.528-1.685-.72-.152-1.177-.504-1.552-1.102-.687-1.093-2.106-.039-1.553.837z" fill="#fff" opacity=".4"/><path d="M127.034 81.493c.929.187 1.469.767 1.938 1.639.862 1.604 3.3.178 2.437-1.425-.757-1.408-2.018-2.613-3.625-2.938-2.057-.414-2.346 2.402-.75 2.724z" fill="url(#h)" transform="translate(-.25)"/><path d="M125.197 61.277c-10.211.356-20.857 6.97-20.685 23.737.154 15 12.079 22.595 22.29 22.238 10.21-.356 16.187-17.323 17.685-23.669 4.03-17.071-9.08-22.662-19.29-22.306zm3.202 28.442c-4.835.619-9.423-.261-14.194-.87-1.339-.618-2.41-1.43-2.154-2.438.006-.027.02-.053.025-.08.006-.004.014-.003.018-.008 2.843-4.452 6.188-7.261 10.773-7.94 3.465-.516 8.195-.089 10.318.329 1.811.357 3.824.694 5.851 1.905.014 1.055-.059 1.372-.312 2.473-.469 1.12-.644 5.388-10.325 6.629z" fill="#f5af95"/><path d="M139.703 80.234c-1.34-6.85-9.928-11.261-19.186-9.862-9.257 1.403-15.669 8.091-14.328 14.94 1.339 6.849 9.93 11.26 19.186 9.859 9.258-1.405 15.668-8.089 14.328-14.937zm-.978 2.856c-.47 1.121-.645 5.388-10.325 6.629-4.835.619-9.423-.261-14.194-.87-1.339-.618-2.41-1.43-2.154-2.438.006-.027.02-.053.025-.08.006-.004.014-.003.018-.008 2.843-4.452 6.188-7.261 10.773-7.94 3.465-.516 8.195-.089 10.318.329 1.811.357 3.727.764 5.851 1.905.013 1.055-.059 1.372-.312 2.473z" fill="url(#i)"/><path d="M138.725 83.09c.253-1.101.325-1.417.312-2.473-2.092-1.175-4.04-1.547-5.851-1.905-2.123-.418-6.854-.845-10.318-.329-4.586.679-7.931 3.488-10.773 7.94-.004.005-.012.004-.018.008-.006.027-.02.053-.025.08-.256 1.007.815 1.819 2.154 2.438 4.771.609 9.359 1.489 14.194.87 9.68-1.241 9.855-5.509 10.325-6.629z" fill="url(#j)"/><path d="M123.273 75.748c-3.295.539-6.506 2.054-9.48 3.945-.637.404-1.367.865-2.521 1.451.828-.188 1.594-.617 2.309-1.011a15.401 15.401 0 00-1.982 2.334c2.521-3.159 7.297-5.538 11.359-6.349 3.902-.779 10.989-.264 16.252 2.042-4.819-2.711-11.848-3.08-15.937-2.412z" fill="#c7633d"/><path d="M133.314 77.563c1.672.405 5.119 1.761 5.994 2.928.205 1.132-1.094.052-1.402-.117-3.764-2.064-10.201-2.548-15.033-1.843-4.588.665-7.936 3.407-10.781 7.747-1.074 1.576 2.478-13.259 21.222-8.715zm-4.919 12.007c-4.844.61-9.439-.25-14.219-.839-1.134-.137 8.038 2.215 14.633 1.613 9.284-.849 10.861-5.44 10.145-7.503-.823.182.422 5.349-10.559 6.729z" fill="#2c1630"/><path d="M141 113.974c.035 22.622-18.292 40.994-40.938 41.025-22.642.037-41.028-18.273-41.063-40.9-.035-22.62 18.292-41.064 40.937-41.1 22.643-.035 41.031 18.35 41.064 40.975z" fill="url(#k)"/><path d="M137.5 53.999c0 20.711-16.789 37.5-37.499 37.5-20.711 0-37.501-16.789-37.501-37.5s16.79-37.5 37.501-37.5c20.71 0 37.499 16.789 37.499 37.5z" fill="url(#l)"/><path d="M74.799 71.28c-4.425-.475-21.252 3.714-21.252 3.714s16.789-6.74 23.757-5.667c5.188.798 14.397 5.077 12.706 7.339-1.361 1.821-5.602-4.354-15.211-5.386zm34.932 5.118c-1.713-2.292 7.592-6.31 13.546-6.804 7.117-.59 22.914 4.085 22.914 4.085s-15.9-2.628-20.377-2.106c-9.816 1.145-14.704 6.67-16.083 4.825z" fill="#caa478"/><path d="M105.07 117.886c1.053 0 1.338.28 1.338.625 0 .347-.328.879-1.338.624-1.109-.276-3.046-.148-3.046-.148s1.994-1.101 3.046-1.101zm-10.053 0c-1.054.001-1.337.282-1.337.628-.001.345.317.842 1.337.624 1.125-.241 3.046-.149 3.046-.149s-1.992-1.099-3.046-1.103zm13.592-3.738s1.458 1.654 1.154 3.403c-.294 1.699-3.238 2.447-3.238 2.447s2.044-1.297 2.292-2.873c.116-.735-.208-2.977-.208-2.977zm-17.992-1.702s-1.063 2.316-.755 3.727c.558 2.547 3.625 3.565 3.625 3.565s-1.914-1.747-2.594-3.291c-.744-1.684-.276-4.001-.276-4.001z" fill="#c7633d"/><path d="M105.019 115.38c1.021-.761 1.124-1.195.912-1.479-.21-.284-.823-.464-1.678.453-.942 1.012-2.991 1.758-2.991 1.758s2.735.031 3.757-.732z" fill="#ffc9b5"/><path d="M150.81 99.442c-.208 0-.427-.01-.651-.029-1.972-6.396.331-15.486 4.25-20.951-2.674-7.41 2.494-3.557 1.635-12.393-.155-1.27.052-2.412.479-3.584-1.269-3.313-1.619-7.189-1.198-9.319-3.629-9.571-4.898-3.055-6.83-14.894-2.96-1.071-8.371-5.169-10.667-6.959-5.957-4.648-14.879 9.828-22.333 4.959-4.442 4.032-12.805 3.311-15.521 2.409-3.829 1.928-11.513.935-15.506-2.411-6.414 4.608-9.373-6.881-20.2-6.579-6.807 4.91-4.954 5.704-12.766 8.582-.698 4.549-.054 5.279-3.703 9.208-2.154 2.286-2.162 3.08-3.032 5.394h-.156l.053.271-.038.099.071.074c.474 2.586-.39 6.584-1.227 9.184 1.617 4.484-1.381 5.75 1.942 10.274 1.073 1.461 1.47 2.024.169 5.686 4.717 6.58 6.05 16.876 4.265 20.953-7.124.687-6.721-9.202-7.304-12.656-1.365-9.695-11.698-2.623-9.94-11.778-2.641-2.091-1.968-4.754-1.073-8.9-2.452-5.161-7.248-23.656.681-28.05-.558-6.983 2.841-13.939 8.591-16.91.856-6.626 9.141-16.875 15.649-15.523 1.494-7.913 15.707-17.864 21.96-13.427 4.878-4.65 15.003-6.226 21.571-4.299 7.221-1.883 16.184-.474 21.605 4.291 6.435-4.408 20.349 5.649 21.952 13.405 7.113-.673 14.411 8.336 15.669 15.567 5.934 3.057 9.076 10.023 8.574 16.897 7.476 4.135 3.791 20.938.694 28.041.689 3.6 1.757 6.655-1.079 8.909 1.897 9.601-8.953.934-10.171 13.722-.387 4.016-1.027 10.737-6.415 10.737z" fill="#caa478"/><path d="M160.293 77.838c-.832.07-1.664-1.301-2.496-1.301 0-5.101 3.042-8.163 6.084-11.223-1.014 0-2.027-2.041-3.042-1.021-3.042-5.102 2.028-10.203 4.057-14.285-6.085 1.021-11.154-6.121-7.099-11.223.704 0 1.408-.982 2.112-1.242-3.592-.822-6.327-1.118-8.196-4.88-1.014-3.061 0-6.122 2.028-9.182-6.084 4.082-14.196 2.041-18.251-4.081v-4.082c-2.029 5.102-7.099 9.182-13.183 7.142-1.646 0-4.63-1.345-5.694-4.037.181 2.555-.609 5.058-1.404 5.058-6.084 3.06-14.195-1.021-15.209-8.163 0 4.082-2.028 9.182-4.056 10.203-5.07 3.061-11.154-3.062-9.126-10.203-2.028 7.142-8.112 10.203-14.196 8.163-3.042-1.021-7.098-3.061-7.098-8.163C62.482 22.46 54.37 29.602 49.3 20.42c3.042 8.162-2.577 17.345-8.244 17.345 4.015 5.491 1.147 17.345-5.951 17.345 8.111 2.041 4.056 11.223 5.069 17.345-.905 0-1.811 1.623-2.717 1.243 8.477 5.359 10.408 15.83 12.063 25.733.107-.005.211-.006.323-.016 1.785-4.077.452-14.374-4.265-20.953 1.301-3.662.904-4.225-.169-5.686-3.323-4.524-.325-5.79-1.942-10.274.837-2.599 1.701-6.598 1.227-9.184l-.071-.074.038-.099-.053-.271h.156c.87-2.314.878-3.108 3.032-5.394 3.649-3.93 3.005-4.66 3.703-9.208 7.813-2.878 5.959-3.672 12.766-8.582 10.827-.302 13.786 11.187 20.2 6.579 3.993 3.346 11.677 4.338 15.506 2.411 2.717.902 11.079 1.623 15.521-2.409 7.454 4.869 16.376-9.607 22.333-4.959 2.296 1.79 7.707 5.888 10.667 6.959 1.932 11.839 3.201 5.323 6.83 14.894-.421 2.13-.07 6.007 1.198 9.319-.427 1.172-.634 2.314-.479 3.584.859 8.836-4.309 4.983-1.635 12.393-3.695 5.154-5.95 13.526-4.543 19.829-1.003-8.092 2.886-16.751 10.43-20.452z" fill="#bb8f5c"/><path d="M132.061 10.84c1.719-1.024 8.918-.546 10.395-5.612.377 5.998-6.144 6.367-10.395 5.612zm16.351-.765c2.97.951 4.813 6.225 5.07 7.524.781-3.446-1.442-7.924-5.07-7.524zm1.141 6.632c1.437 1.297.971 5.101.507 6.122 1.629-1.533 1.849-5.221-.507-6.122zm-2.155 1.275c.111 2.74-.195 4.648-1.648 6.632 2.648-1.317 2.691-3.866 1.648-6.632zm7.985 5.357c.788-.513 5.585-.415 6.084.766.022-2.275-4.852-2.265-6.084-.766zm-1.901 4.719c4.019-.083 3.455-1.2 7.604-.893-2.88-1.926-5.357-.036-7.604.893zm5.324 1.658c-.858 1.02-2.829 1.62-2.915 4.208 1.22-2.299 1.931-2.205 2.915-4.208zm4.055 6.377c3.256 1.638 4.257 3.755 5.07 7.27.902-4.007-.867-7.074-5.07-7.27zm1.268 4.591c1.822 1.815 1.932 5.626.887 8.035 2.408-1.985 2.487-6.622-.887-8.035zm-1.522 2.934c-.374 1.859-1.179 2.688-2.154 4.846 1.561-1.19 2.472-2.779 2.154-4.846zm1.014 11.988c1.053 3.215 1.918 4.353.635 6.505 2.598-1.624 1.339-4.169-.635-6.505zm-1.52 1.149c-.05 1.904-.276 3.379-1.394 5.739 1.564-1.123 2.319-3.083 1.394-5.739zm-34.349-43.492c.51 2.492 4.538 3.179 4.538 3.179 1.04.244 2.542.184 3.447-.5-1.09.185-6.957-1.313-7.985-2.679zM122.809 8.8c1.536-2.926 4.926-4.827 8.111-5.357-4.21-1.147-7.659 1.438-8.111 5.357zM120.4-3.827c1.942 1.783 1.96 4.773 2.027 8.672 1.548-2.851 1.475-7.29-2.027-8.672zm1.014-1.658c1.539.299 3.979 4.701 4.184 5.74.572-2.58-1.994-6.171-4.184-5.74zm-2.535 3.699c.318 3.139.03 5.48-1.646 8.162 3.036-1.817 3.288-5.014 1.646-8.162zm-3.168 9.438c-5.082.921-7.161 7.895-5.45 12.499.221-2.023 1.907-9.963 5.45-12.499zm-5.07-3.827c-9.45 3.409-8.715 14.028-5.07 16.453-.876-1.39-2.49-10.023 5.07-16.453zm-11.027.256c-5.041 7.576.793 12.744 2.918 16.666-1.404-5.025-4.732-10.483-2.918-16.666zm7.859-6.887c-1.478.201-5.937-.941-6.338 2.55 1.609-2.43 4.224-1.042 6.338-2.55zm3.295-1.658c-4.262-4.366-5.752-2.456-6.465-1.914 2.593-.792 3.709.511 6.465 1.914zm-2.155-5.357c3.063.032 5.401 2.261 6.211 5.229.781-3.495-2.508-6.886-6.211-5.229zM78.193-.639c3.703-3.293 7.981-6.629 12.421-5.102C86.39-9.9 80.756-5.989 78.193-.639zm4.944.511c-7.265 6.348-1.188 12.163 1.141 11.861-1.015-.484-5.109-4.287-1.141-11.861zm2.154 4.463c1.063.854 1.756 1.699 2.028 4.846.847-2.108.352-4.121-2.028-4.846zm7.605-4.974c.103.381 1.558 5.335 1.167 5.335-.128 1.343-.398 1.915-1.04 3.083 4.58-2.499.498-7.389-.127-8.418zm-.633-3.06c4.813-.473 4.962 5.761 4.689 7.524 2.821-4.222-.025-10.34-4.689-7.524zm-12.042 17.6c2.226.595.982 3.246 1.268 7.015 1.245-2.898 1.808-7.308-1.268-7.015zm-5.055-4.289c-2.058-8.338-8.633-6.934-8.633-6.934 1.32-.367 6.271 3.712 7.03 9.422.219 1.134.444 3.079.701 4.607.32-1.02 1.575-4.717.902-7.095zm-6.859-1.45c2.32 1.8.981 7.046 0 9.821 2.995-2.976 3.86-8.676 0-9.821zm-3.802 1.275c1.449 1.902-1.703 5.647-3.676 8.163 3.2-1.317 6.775-6.011 3.676-8.163zM69.194-6.25c-2.841-.465-5.571 3.311-4.816 6.122.353-1.704 2.798-5.544 4.816-6.122zM67.8-2.551c-2.279.454-2.191 3.93-1.141 5.356-.121-1.02-.155-4.887 1.141-5.356zM53.351 11.478c-4.011-1.786-7.875-.083-8.492 3.955 2.068-2.796 5.058-3.89 8.492-3.955zm-2.282 3.571c-2.755-1.719-6.26 1.727-5.577 4.847.427-2.191 3.308-5.098 5.577-4.847zm-1.647 3.316c-3.4.307-3.967 5.263-1.901 6.887-.783-1.71-.105-5.939 1.901-6.887zm-8.492 5.357c2.196 1.012 4.552 2.976 4.277 2.976.792 1.14.959 1.559 1.299 2.891.88-3.844-1.688-5.359-5.576-5.867zm1.774 4.464c1.926 1.488 3.417 4.226 2.155 7.015 2.623-2.125 1.504-5.827-2.155-7.015zm-2.219 1.182c-.172-.171-.323-.155-.317-.162.555.076.272 3.473-1.024 4.476-.413.455-1.79 1.805-2.271 2.284 5.485-1.876 4.627-5.608 3.612-6.598zm-2.217 9.403c1.558 1.928 1.78 4.979 1.446 5.314-.309 2.233-.127 1.246-.558 3.614 2.164-2.491 3.012-6.552-.888-8.928zm-1.901 3.699c1.185.987.939 5.241-.761 6.122 2.891-.204 3.12-5.356.761-6.122zm-3.676.51c1.353 1.627.405 2.484-3.802 7.27 4.43-2.044 6.855-5.79 3.802-7.27zm0 12.117c2.448 1.836.636 6.208-.381 7.269 3.221-1.52 3.813-6.438.381-7.269zm4.056 4.081c1.534.44-.776 4.06-1.648 5.101 2.712-1.394 4.098-5.184 1.648-5.101zm42.681-41.922c.258 2.781-2.367 5.437-2.882 5.956 3.608-1.094 3.57-4.449 2.882-5.956zm41.465.878s-1.006-1.314-1.76-2.405c.485 2.857 2.174 5.255 5.07 5.782-.398-.297-3.31-2.971-3.31-3.377zm.944-3.085c.377 2.068 1.907 3.618 4.057 3.742-1.311-.753-2.62-1.813-4.057-3.742zm44.616 53.737c-.839 1.81-2.587 2.872-3.719 4.761 3.35-1.999 3.549-3.136 3.719-4.761zm-1.015 5.101c-1.014.524-2.677 1.033-4.395 3.062 2.52-.931 3.382-2.135 4.395-3.062zM32.944 68.105c.782 1.301 1.849 2.354 3.042 3.062a8.838 8.838 0 00-3.042-3.062zm.339 3.741c1.256 4.162 3.379 3.742 3.379 3.742-1.133-.635-2.996-2.982-3.379-3.742z" fill="#d9ba97"/><path d="M168.08 37.856c.439-6.042-2.227-13.634-8.619-16.927-1.242-7.001-8.668-16.365-15.699-15.692-1.551-7.575-15.768-17.858-22.165-13.458-4.675-4.112-13.479-6.324-21.624-4.224-6.935-2.012-17.092-.073-21.603 4.224-6.164-4.382-20.718 5.766-22.167 13.458-6.271-1.292-14.833 9.064-15.688 15.683-5.429 2.796-9.194 9.783-8.627 16.937-8.059 4.451-2.987 23.388-.684 28.263-.237 1.117-.891 3.905-.762 5.112.011.459.029.765.039.765.294 1.02.365 1.988 1.783 3.111-1.767 9.213 8.648 2.297 9.976 11.704.668 3.964.144 8.049 2.901 11.152 1.391 1.519 3.904 1.903 4.894 1.734 1.933-4.083.56-14.696-4.132-21.285 1.653-4.674.4-4.524-1.217-7.224-1.506-2.513.361-5.153-.911-8.692 1.407-4.349 1.496-7.771 1.189-9.316.01 0 .01 0 0-.01.94-2.462.88-3.187 3.04-5.479 3.719-4.005 3.097-4.882 3.755-9.192 7.218-1.782 5.407-3.808 12.522-7.778 5.82-3.248 13.681 10.589 20.163 5.931 1.431 1.197 2.509 1.708 4.121 2.347.724.221.59.26 1.822.469.268.031 6.23.379 6.23.102.588-.06 2.819-.285 3.368-.561.933.311 2.433.465 3.369.561 0 .01 1.622.112 3.229.112 3.639.142 6.949-1.239 8.932-3.03 7.635 4.975 16.719-9.591 23.073-4.03 5.963 5.219 7.936 5.26 9.635 5.877.054.33.259 2.477.386 3.296 1.094 5.448 3.712 4.289 6.398 11.396-.203 1.022-.461 4.964 1.189 9.296-.367 1.02-.627 2.225-.458 3.611.842 8.636-4.333 4.96-1.673 12.314-3.565 4.975-6.371 14.319-4.149 21.243.01.011.01.031.018.042 7.612.869 7.239-9.595 7.795-12.887 1.317-9.33 11.76-2.561 9.985-11.704 1.439-1.147 1.508-2.091 1.772-3.111.011 0 .032-.306.042-.755.135-1.285-.561-4.111-.755-5.132 1.117-2.565 8.197-23.346-.693-28.253zm.582 26.784a12.613 12.613 0 01-.483 1.745c.075.439 1.065 5.52.634 5.52-.313 1.021-.106 1.572-1.517 2.918 1.396 8.56-9.47 1.01-11.043 11.715-.932 5.7.069 11.547-5.895 12.517-1.192-5.739 1.433-15.507 4.29-20.477-2.27-6.842 2.923-3.58 2.049-12.57-.159-1.346-.021-2.284.269-3.306-.739-2.165-1.521-6.084-1.238-8.764-2.384-8.027-.61-3.267-4.884-9.112-.018-.031-.449-.785-.465-.816l-.01-.011c-1.057-2.263-.765-3.4-1.357-5.897-.002 0-5.551-2.566-10.486-6.758-6.139-5.211-15.494 8.794-23.229 4.809-3.995 3.086-11.915 2.875-15.313 2-1.901.436-7.221.795-10.4.143-.081-.017-1.438-.418-1.506-.439-1.102-.336-2.462-1.079-3.427-1.704-6.963 4.059-14.429-11.927-21.948-5.806-4.398 3.581-6.598 6.223-11.739 7.755-.396 1.02-.226 3.548-1.367 5.897v.011s-.219.767-2.307 2.969c-2.607 2.836-2.287 4.612-3.051 6.968.282 2.692-.469 6.161-1.229 8.765 1.031 3.708-1.207 6.535 1.436 9.886 2.151 2.793 1.439 3.041.883 5.989 2.547 4.477 5.584 14.194 4.279 20.478-10.286-1.63-.016-17.209-12.887-19.346-1.931-.3-3.292-.333-3.823-1.836-.31-.895-.318-2.528-.229-3.062-1.387-1.429-1.216-1.897-1.504-2.918-.504 0 .623-5.02.623-5.509-.374-1.021-7.082-23.671.742-28.518 0-7.009 3.865-13.862 8.411-16.672.049-.204.107-.408.168-.623 0-.01.009-.02.009-.03 1.941-6.005 9.653-15.581 15.699-14.774 1.413-6.243 15.997-17.535 21.86-13.54 6.708-4.132 14.734-5.069 21.296-3.713 8.431-1.547 16.608.454 21.314 3.713 5.643-3.844 19.766 6.539 21.861 13.54 6.383-.851 14.061 9.505 15.708 14.794v.01c.06.215.121.419.179.623 5.865 4.039 7.521 9 8.379 16.295 0 .117.021.191.021.367 6.645 4.464 3.069 17.141 1.227 26.774z" fill="#9c692e"/></svg>