<svg xmlns="http://www.w3.org/2000/svg" width="500" height="500" viewBox="0 0 200 200" overflow="hidden"><defs><radialGradient id="i" cx="100" cy="114" r="41" gradientUnits="userSpaceOnUse" class="svga-on-canvas-facehighlight-gradient-single-0"><stop stop-opacity=".5" stop-color="#ffe4d6" offset="0"/><stop stop-opacity="0" stop-color="#f0c7b1" offset=".9"/></radialGradient><radialGradient id="j" cx="100" cy="54" r="37" gradientUnits="userSpaceOnUse" class="svga-on-canvas-facehighlight-gradient-single-1"><stop stop-opacity=".5" stop-color="#ffe4d6" offset="0"/><stop stop-opacity="0" stop-color="#f0c7b1" offset=".9"/></radialGradient><radialGradient id="c" cx="126.682" cy="84.862" r="13.37" gradientTransform="matrix(-1.0172 0 0 1.0172 202.565 -1.47)" gradientUnits="userSpaceOnUse" class="svga-on-canvas-eyesback-gradient-left-0"><stop stop-color="#fff" offset="0"/><stop stop-color="#fdfefe" offset=".544"/><stop stop-color="#f6f8f9" offset=".74"/><stop stop-color="#eaeff2" offset=".879"/><stop stop-color="#d9e3e8" offset=".992"/><stop stop-color="#d8e2e7" offset="1"/></radialGradient><radialGradient id="f" cx="126.289" cy="84.862" r="13.371" gradientTransform="translate(-2.565 -1.47) scale(1.0172)" gradientUnits="userSpaceOnUse" class="svga-on-canvas-eyesback-gradient-right-0"><stop stop-color="#fff" offset="0"/><stop stop-color="#fdfefe" offset=".544"/><stop stop-color="#f6f8f9" offset=".74"/><stop stop-color="#eaeff2" offset=".879"/><stop stop-color="#d9e3e8" offset=".992"/><stop stop-color="#d8e2e7" offset="1"/></radialGradient><radialGradient id="d" cx="122.115" cy="84.345" fx="133.972" fy="84.379" r="16.863" gradientTransform="matrix(.9998 .0208 .0166 -.7998 -45.608 149.266)" gradientUnits="userSpaceOnUse" class="svga-on-canvas-eyesfront-gradient-left-3"><stop stop-color="#e1ac8f" offset="0"/><stop stop-opacity=".3" stop-color="#e1ac8f" offset=".7"/><stop stop-opacity="0" stop-color="#f0c7b1" offset="1"/></radialGradient><radialGradient id="e" cx="72.882" cy="102.392" r="22.097" gradientTransform="matrix(1.0455 -.0545 .0548 1.0391 -8.953 .43)" gradientUnits="userSpaceOnUse" class="svga-on-canvas-eyesfront-gradient-left-4"><stop stop-opacity="0" offset=".95"/><stop stop-opacity=".2" offset="1"/></radialGradient><radialGradient id="g" cx="121.716" cy="84.345" fx="133.573" fy="84.379" r="16.863" gradientTransform="matrix(-.9998 .0208 -.0166 -.7998 244.81 149.274)" gradientUnits="userSpaceOnUse" class="svga-on-canvas-eyesfront-gradient-right-3"><stop stop-color="#e1ac8f" offset="0"/><stop stop-opacity=".3" stop-color="#e1ac8f" offset=".7"/><stop stop-opacity="0" stop-color="#f0c7b1" offset="1"/></radialGradient><radialGradient id="h" cx="73.264" cy="102.408" r="22.097" gradientTransform="matrix(-1.0455 -.0545 -.0548 1.0391 208.953 .434)" gradientUnits="userSpaceOnUse" class="svga-on-canvas-eyesfront-gradient-right-4"><stop stop-opacity="0" offset=".95"/><stop stop-opacity=".2" offset="1"/></radialGradient><linearGradient id="k" x1="130" y1="77" x2="130" y2="98" gradientUnits="userSpaceOnUse" class="svga-on-canvas-glasses-gradient-single-0"><stop stop-color="#26120b" offset="0"/><stop stop-opacity=".5" stop-color="#26120b" offset="1"/></linearGradient><linearGradient id="l" x1="130" y1="77" x2="130" y2="98" gradientTransform="matrix(-1 0 0 1 200 0)" gradientUnits="userSpaceOnUse" class="svga-on-canvas-glasses-gradient-single-1"><stop stop-color="#26120b" offset="0"/><stop stop-opacity=".5" stop-color="#26120b" offset="1"/></linearGradient><linearGradient id="b" x1="100" y1="142" x2="100" y2="139" gradientUnits="userSpaceOnUse" class="svga-on-canvas-mouth-gradient-single-0"><stop stop-color="#e8b9a0" offset=".1"/><stop stop-color="#e1ac8f" offset="1"/></linearGradient><linearGradient id="a" x1="100" y1="171" x2="100" y2="131" gradientUnits="userSpaceOnUse" class="svga-on-canvas-chinshadow-gradient-single-0"><stop stop-opacity=".8" stop-color="#e1ac8f" offset="0"/><stop stop-color="#c27b55" offset=".7"/></linearGradient></defs><path d="M225 225H-25V-25h250v250z" fill="#45ada8"/><path d="M0-5v210m10 0V-5m10 210V-5m10 210V-5m10 210V-5m10 210V-5m10 210V-5m10 210V-5m10 210V-5m10 210V-5m10 210V-5m10 210V-5m10 210V-5m10 210V-5m10 210V-5m10 210V-5m10 210V-5m10 210V-5m10 210V-5m10 210V-5m10 210V-5" fill="none" stroke="#2f9e98" stroke-width="5"/><path d="M146.969 104.885c-46.51-1.001-92.949.02-93.95.02-2.675 4.014-4.176 11.498-3.28 15.61.934 4.212 4.441 8.009 5.66 16.46.07.83-.04 1.71.3 2.76.35 1.001 2.022 3.206 3.34 3.44l.5-.061c.523.935 1.48 1.218 2.11.91 1.516 2.89 3.099-.453 5.14 1.32 3.383 2.757 3.832.049 6.58-.931 2.146-.04 5.034 3.43 7.71.761 5.499-5.354 8.082 4.5 12.97 1.869 1-.506 3.922-2.7 5.96-1.42 3.889-2.455 5.717 5.161 11.56-.05 5.623-5.015 6.653 1.352 10.72.51 1.852-.43 2.478-1.777 4.35-1.67 2.654 1.003 3.25 3.637 6.57.931 2.014-1.75 3.577 1.521 5.141-1.32.62.311 1.589.028 2.109-.91l.51.061c1.243-.235 2.975-2.42 3.341-3.44.488-1.559-.315-5.524 3.609-13.46 3.995-8.164 3.346-15.441-.95-21.39z" fill="#ab9775"/><path d="M146.969 104.885c-46.51-1.001-92.949.02-93.95.02-2.675 4.014-4.176 11.498-3.28 15.61.934 4.212 4.441 8.009 5.66 16.46.07.83-.04 1.71.3 2.76.35 1.001 2.022 3.206 3.34 3.44l.5-.061c.523.935 1.48 1.218 2.11.91 1.516 2.89 3.099-.453 5.14 1.32 3.383 2.757 3.832.049 6.58-.931 2.146-.04 5.034 3.43 7.71.761 5.499-5.354 8.082 4.5 12.97 1.869 1-.506 3.922-2.7 5.96-1.42 3.889-2.455 5.717 5.161 11.56-.05 5.623-5.015 6.653 1.352 10.72.51 1.852-.43 2.478-1.777 4.35-1.67 2.654 1.003 3.25 3.637 6.57.931 2.014-1.75 3.577 1.521 5.141-1.32.62.311 1.589.028 2.109-.91l.51.061c1.243-.235 2.975-2.42 3.341-3.44.488-1.559-.315-5.524 3.609-13.46 3.995-8.164 3.346-15.441-.95-21.39zm.07 20.89c-5.513 10.228-2.238 14.543-6.01 16.14a.38.38 0 00-.141.03c-.312-.07-.85-.322-1.14-.46-.006.015-.19.59-.36 1.04-.058.078-.041.102-.199.26a.58.58 0 00-.13.08c-.37.084-.932-.389-1.28-.63-.951 2.268-1.016 1.841-1.86 1.57-2.987-.938-3.279.839-4.62 1.39-1.356.511-2.175-1.354-4.46-2.03-2.538-.171-3.387 1.449-4.89 1.75-2.598.548-5.365-5.445-11.05.08-5.063 4.924-6.429-2.163-10.91.24-4.396-2.515-5.807 4.695-10.95-.3-5.512-5.221-8.704-.136-9.84.01-1.911.413-2.582-1.3-5.19-1.8-2.841 0-3.702 2.653-5.31 2.05-1.344-.553-1.628-2.329-4.62-1.39-1 .32-1.005.471-1.86-1.57-.344.238-.908.715-1.28.63-.04-.03-.08-.06-.13-.08-.379-.509-.325-.681-.56-1.3.191-.098-.692.358-1.14.46a.308.308 0 00-.13-.03c-.2-.08-.47-.35-.73-.67-1.661-2.134-1.418-1.179-1.63-4.35-1.82-12.19-11.412-17.353-3.55-31.81 30.144.618 62.703.696 93.88.02 4.538 8.689 3.378 14.442.09 20.67z" fill="#9c845b"/><path d="M195.417 199.778c-2.196-4.746-8.195-11.779-14.86-13.722-8.239-2.403-26.837-5.308-33.733-6.923-5.528-1.296-16.662-11.294-20.564-14.65-.7-.6-1.273-1.839-1.287-2.76-.139-10.864 4.195-39.724 4.195-39.724H70.833s4.334 28.859 4.193 39.724c-.011.921-.587 2.16-1.285 2.76-3.902 3.356-15.036 13.354-20.564 14.65-6.897 1.615-25.495 4.619-33.733 7.022-6.667 1.942-12.664 8.876-14.86 13.622-3.708 8.008-4.584 22.5-4.584 35h200c0-12.499-.877-26.991-4.583-34.999z" fill="#f0c7b1"/><path d="M159.156 184.058c24.342 3.542 34.586 8.708 37.794 50.721H200c0-12.5-.877-26.992-4.583-35-2.196-4.746-8.195-11.779-14.86-13.722-8.239-2.403-26.837-5.308-33.733-6.923-5.528-1.296-18.242-12.069-21.643-16.35 3.36 4.704 12.791 15.605 21.054 18.46 3.953 1.366 7.245 1.988 12.921 2.814zm-105.39-2.814c8.263-2.854 17.693-13.756 21.054-18.46-3.4 4.28-16.114 15.054-21.643 16.35-6.896 1.615-25.494 4.619-33.733 7.022-6.665 1.942-12.664 8.876-14.86 13.622-3.706 8.008-4.583 22.5-4.583 35h3.05c3.188-41.744 13.475-47.183 37.794-50.721 5.675-.825 8.968-1.447 12.921-2.813z" fill="#ffe4d6"/><path d="M95.646 197.62s-5.074-1.609-7.083-2.379c-10.449-4.009-44.395-6.607-44.395-6.607s35.754 1.419 43.644 2.779c-.458-4.767-3.017-20.004-3.017-20.004s5.149 16.815 6.409 21.057c.674 2.268 4.442 5.154 4.442 5.154zm10.799-1.342c-.089.073-.191.168-.302.268.113-.085.215-.174.302-.268zm-10.799 1.342s2.893 2.992 4.347 3.03c1.91.051 4.828-2.899 6.151-4.104-1.265.957-4.159 1.391-5.31 1.436-1.33.051-5.188-.362-5.188-.362zm21.018-7.519c-1.545.248-4.386.789-4.386.789l2.287-14.89c-.646 3.071-4.474 16.211-8.12 20.278 1.91-1.616 6.158-2.391 8.324-2.704 10.236-1.484 10.232-1.483 41.062-4.94 0 0-29.071-.155-39.167 1.467z" fill="#e1ac8f"/><path d="M195.417 199.778c-2.196-4.746-8.195-11.779-14.86-13.722-8.239-2.403-26.837-5.308-33.733-6.923-5.528-1.296-16.662-11.294-20.564-14.65-.7-.6-1.273-1.839-1.287-2.76-.139-10.864 4.195-39.724 4.195-39.724H70.833s4.334 28.859 4.193 39.724c-.011.921-.587 2.16-1.285 2.76-3.902 3.356-15.036 13.354-20.564 14.65-6.897 1.615-25.495 4.619-33.733 7.022-6.667 1.942-12.664 8.876-14.86 13.622-3.708 8.008-4.584 22.5-4.584 35h200c0-12.499-.877-26.991-4.583-34.999z" fill="none" stroke="#c27b55" stroke-width="1.5"/><path d="M100.021 171.866c8.183 0 16.871-4.943 24.199-10.675-.001-6.702 1.451-19.105 2.652-28.205-15.382-2.247-38.406-2.279-53.766-.152 1.184 8.96 2.625 21.206 2.671 28.02 7.342 5.913 16.045 11.012 24.244 11.012z" fill="url(#a)"/><path d="M151.119 179.24c-1.169 17.511.778 37.348.778 37.348-8.557-3.703-24.938-17.078-29.373-18.164-4.474 2.39-7.042 2.32-8.15 2.601-6.551 1.097-16.591 2.793-24.333-1.148-2.057.038-4.301.78-6.503 2.433-14.313 10.724-24.088 11.687-31.542 16.842 1.802-30.226-1.067-29.88-1.743-40.21-1.313-.494-1.503-.686-2.198-1.931-11.285 3.505-33.28 6.635-44.27 17.565-9.797 9.743-12.963 25.098-11.355 39.018 60.296-.651 154.574-1.435 215.17-.838.884-44.653-22.913-44.831-56.481-53.516z" fill="#335529"/><path d="M122.058 200.77c-2.26-.563-4.039-.075-5.735-.076 1.416-.26 3.443-.796 6.202-2.27 3.903.958 20.003 13.108 28.935 18.133-10.112-2.599-20.667-13.109-29.402-15.787zm-28.4.535a21.375 21.375 0 01-3.617-1.429c-2.057.038-4.301.78-6.503 2.433-11.353 8.505-23.97 13.47-30.718 16.655 33.546-9.229 27.949-17.509 40.838-17.659z" fill="#24461b"/><path d="M49.185 177.937c-35.389 10.12-53.816 14.299-56.599 55.654a8.22 8.22 0 01-.158.002c-.609-5.283-.528-10.772.34-16.083 1.416-8.686 4.938-16.889 11.016-22.935 10.99-10.931 32.985-14.061 44.27-17.565.038.07 1.095.861 1.131.927zm101.934 1.303c-.009.138-.216.975-.224 1.111 27.9 8.159 54.292 10.078 56.23 52.399l.473.004c.886-44.651-24.776-48.002-56.479-53.514z" fill="#44643a"/><path d="M208.188 233.074s-30.844.408-51.32.528c-13.87.089-27.734.164-41.604.223-89.418.32-93.853-.081-123.482-.081 0 0-.512-2.865-.628-5.683-1.741-42.366 33.358-44.661 56.99-51.536a.674.674 0 01.769.306c.404.69 1.153 1.216 1.216 1.248.01.362.032.714.055 1.078-.876-.331-1.002-.491-1.999-1.523-.093-.1-.197-.18-.322-.136-2.094.759-4.597 1.094-6.8 1.789 4.908 7.375 4.512 8.756 11.027 16.468.009.097.075 1.446.087 2.015-6.347-6.477-7.729-10.213-12.204-18.152-18.695 5.934-36.75 6.94-45.03 29.829-2.725 7.542-3.244 16.485-2.368 24.214 65.178-.707 149.228-1.39 214.963-.839-.768-42.858-23.644-46.791-47.574-51.378-1.633 4.021-5.957 9.634-8.979 12.803-.022-.649-.043-1.313-.055-1.962 1.651-2.145 6.289-8.719 7.391-11.192-2.355-.663-4.701-.836-7.045-1.528v-.905c52.454 6.272 56.912 20.577 56.912 54.414zm-85.567-34.377a2.826 2.826 0 00-.728-.197c-2.59.632-3.484 1.342-7.833 2.2-3.443.681-12.983 2.123-20.4.233.039.108 0 0 0 0-1.128-.623-2.23-.805-3.57-.773 8.507 4.831 26.138 1.374 32.531-1.463zm12.227 7.81a23.46 23.46 0 01-.869-.641c-19.135 9.753-37.45 9.533-56.787 5.223a80.937 80.937 0 01-3.635-1.047 16.8 16.8 0 01-1.157.571c19.817 8.054 44.246 7.033 62.448-4.106z" fill="#0e2707"/><path d="M52.045 219.328c1.863-31.071-2.873-33.865-1.708-46.65 3.715-2.175 7.4-2.84 9.259-5.004 8.871-10.374 7.834-14.805 13.599-17.518 1.146 4.797 1.841 16.058 1.848 16.205 4.352 12.899 7.315 18.411 10.881 23.596 2.071 3.004 6.493 7.614 7.551 10.751-2.126-1.067-5.81-1.07-9.892 1.774-6.618 4.571-4.228 5.659-18.017 10.661-4.891 1.76-9.112 4.151-13.521 6.185zm98.773-27.184c-.004-.317.354-16.318.396-17.648-7.095-2.599-14.646-22.281-24.338-23.615-2.861 17.897.537 11.463-7.986 33.135-2.105 5.354-2.9 7.377-3.289 16.253.218-.057.595-.158.614-.158 2.938-.774 3.918-1.239 5.703-1.721.912.188 2.43.969 2.712 1.193l-.008-.012c8.231 4.395 15.909 12.32 27.32 17.195.231-4.301-1.124-14.971-1.124-24.622z" fill="#fff"/><path d="M117.407 199.781c-.363.104-.75.211-1.192.328-.02 0-.396.102-.614.158.389-8.876 1.184-10.899 3.289-16.253 8.523-21.672 5.125-15.237 7.986-33.135 1.941.266 3.798 1.415 5.582 3.085-1.227 9.5-3.84 17-7.646 25.567 4.461-2.522 9.298-5.611 13.672-8.026-9.093 8.185-18.18 16.372-21.077 28.276zm-23.932.927c-1.059-3.137-5.48-7.747-7.551-10.751-3.566-5.185-6.529-10.696-10.881-23.596-.007-.147-.702-11.408-1.848-16.205-3.646 1.714-3.34 2.955-5.771 7.11 1.958 10.127 5.915 16.565 11.527 24.985-4.784-3.154-11.462-8.545-18.071-11.847 11.134 8.348 19.139 19.045 26.653 30.108 2.439-.742 4.533-.509 5.942.196z" fill="#dedbd4"/><path d="M86.015 189.896c-5.437-7.907-7.91-15.09-10.862-23.54 0 0-.482-11.635-1.662-16.356-5.941 2.726-5.056 6.065-13.979 16.499-2.523 2.937-5.948 4.17-9.286 6.17-.856 9.399 1.783 16.584 1.95 25.104.238 6.276.213 14.08-.253 21.732 4.45-2.042 8.725-4.477 13.68-6.258 13.805-5.006 11.434-6.111 18.043-10.674 4.265-2.973 8.018-2.779 10.014-1.64-.903-3.173-5.514-7.946-7.645-11.037zm-15.202 20.069c-8.755 3.447-6.354 1.844-18.373 8.736 3.358-23.819-1.74-34.836-1.74-45.571 3.458-1.789 6.78-2.763 9.33-5.682 9.546-10.978 7.557-13.666 12.843-16.896.331 3.15.595 6.323.761 9.506.563 11.263-.939 3.57 3.492 15.177 6.549 17.153 12.799 18.935 15.762 24.862-8.409-3.664-14.395 7.308-22.075 9.868zm80.117-17.823c-.006-.438.389-17.628.397-17.721-7.108-2.46-15.008-22.473-24.872-23.66-.834 5.126-1.819 16.224-1.819 16.224-6.725 22.526-8.516 18.624-9.153 33.432.003 0 .713-.197.76-.2 2.804-.74 3.87-1.207 5.651-1.716.281.055.739.195 1.013.316.038.02 1.7.839 1.664.851 8.283 4.426 15.938 12.374 27.474 17.26.269-4.21-1.115-15.029-1.115-24.786zm-6.842 19.256c-7.721-4.629-13.066-10.239-21.258-13.583-2.219-.936-5.073.968-7.025 2.402 1.077-9.418.707-7.281 2.708-12.69 9.219-25.037 6.64-10.866 8.801-36.229 8.454 2.822 16.191 20.952 23.12 23.187-2.226 26.343.761 35.685 1.113 41.66-2.575-1.386-4.957-3.249-7.459-4.747z" fill="#afa9a0"/><path d="M47.218 81.505c-.967-2.487-8.082-6.002-11.21-5.447-3.538.627-4.838 4.356-4.369 7.119 1.103 6.487 3.996 9.219 5.296 14.286 1.096 4.273 3.433 6.732 4.588 8.548 1.42 2.228 2.73 7.341 3.023 8.087.463 1.18 2.103 4.043 5.002 3.896 3.333-.172 7.545-6.688 7.614-8.135.382-7.85-7.429-21.88-9.944-28.354z" fill="#f0c7b1" stroke="#c27b55" stroke-width="1.5"/><path d="M47.953 107.96s.429-1.071-.094-2.022c-.672-1.223-2.423-3.468-2.821-4.811-.325-1.098-.16-3.445-.213-4.593-.094-2.03-1.492-3.42-1.927-4.585-2.914-7.793-6.792-12.623-9-13.626-1.633 3.989-.339 6.907 1.94 13.045-1.375-8.342-.054-10.95-.054-10.95s4.018 3.465 6.001 11.172c.359 1.391-1.111 4.294-.83 5.705.352 1.772 4.184 5.201 5.257 6.635.837 1.117 1.741 4.03 1.741 4.03z" fill="#c27b55"/><path d="M152.52 81.505c.967-2.487 8.082-6.002 11.211-5.447 3.539.627 4.838 4.356 4.369 7.119-1.104 6.487-3.996 9.219-5.297 14.286-1.096 4.273-3.434 6.732-4.588 8.548-1.42 2.228-2.73 7.341-3.023 8.087-.463 1.18-2.104 4.043-5.002 3.896-3.332-.172-7.545-6.688-7.613-8.135-.384-7.85 7.429-21.88 9.943-28.354z" fill="#f0c7b1" stroke="#c27b55" stroke-width="1.5"/><path d="M151.785 107.96s-.43-1.071.094-2.022c.672-1.223 2.424-3.468 2.82-4.811.324-1.098.16-3.445.215-4.593.094-2.03 1.49-3.42 1.926-4.585 2.914-7.793 6.793-12.623 9-13.626 1.633 3.989.338 6.907-1.939 13.045 1.375-8.342.053-10.95.053-10.95s-4.018 3.465-6.002 11.172c-.357 1.391 1.111 4.294.83 5.705-.352 1.772-4.184 5.201-5.256 6.635-.837 1.117-1.741 4.03-1.741 4.03z" fill="#c27b55"/><path d="M158.785 78.006h-.005c-.01.046-12.197 40.27-15.879 52.418a17.166 17.166 0 01-3.556 6.386c-6.375 7.194-23.768 25.057-39.324 25.057-15.849 0-33.591-19.045-39.708-26.214a16.297 16.297 0 01-3.172-5.765c-3.607-11.551-16.126-51.648-16.137-51.694h-.001a62.422 62.422 0 01-2.002-15.634C38.949 28.536 66.155.92 99.773.867c33.621-.053 60.913 27.476 60.964 61.499a62.387 62.387 0 01-1.952 15.64z" fill="#f0c7b1"/><path d="M132.168 10.26c14.31 11.135 23.671 29.457 23.699 50.208a67.459 67.459 0 01-1.796 15.641h-.004c-.009.046-11.223 40.27-14.608 52.417-.658 2.358-1.776 4.551-3.271 6.385-5.865 7.195-21.866 25.059-36.178 25.059-14.582 0-30.904-19.047-36.531-26.215-1.327-1.689-2.306-3.633-2.918-5.764-3.318-11.552-14.836-51.649-14.846-51.695h-.001a67.6 67.6 0 01-1.842-15.634c-.029-20.827 9.348-39.239 23.713-50.412-17.193 10.909-28.618 30.258-28.584 52.31a62.416 62.416 0 002.002 15.634h.001c.01.046 12.53 40.143 16.137 51.694a16.321 16.321 0 003.172 5.765c6.116 7.169 23.858 26.214 39.708 26.214 15.557 0 32.949-17.862 39.324-25.057a17.158 17.158 0 003.556-6.386c3.682-12.148 15.869-52.372 15.879-52.418h.005a62.395 62.395 0 001.952-15.641c-.033-21.976-11.44-41.23-28.569-52.105z" fill="#e8b9a0"/><path d="M158.785 78.006h-.005c-.01.046-12.197 40.27-15.879 52.418a17.166 17.166 0 01-3.556 6.386c-6.375 7.194-23.768 25.057-39.324 25.057-15.849 0-33.591-19.045-39.708-26.214a16.297 16.297 0 01-3.172-5.765c-3.607-11.551-16.126-51.648-16.137-51.694h-.001a62.422 62.422 0 01-2.002-15.634C38.949 28.536 66.155.92 99.773.867c33.621-.053 60.913 27.476 60.964 61.499a62.387 62.387 0 01-1.952 15.64z" fill="none" stroke="#c27b55" stroke-width="1.5"/><path d="M100.389 141.808c-3.458 0-4.907-2.678-4.907-2.678l9.74-.188c0-.001-1.789 2.866-4.833 2.866z" fill="url(#b)"/><path d="M98.82 139.206c-1.781 0-3.136-.171-3.231-.184-.146-.02-.248-.146-.228-.282.02-.138.157-.227.301-.214.04.006 6.084.5 9.357-.195.156-.03.289.057.321.189a.253.253 0 01-.202.299c-1.409.299-5.042.387-6.318.387zm-14.429-5.382c-.365-.663 4.097.111 6.79-.551 2.98-.732 6.101.208 9.133.479 2.382.213 4.838-.975 7.191-.436 3.261.747 8.236-.196 7.843.594-.273.548-4.893 1.05-7.524.604-2.301-.39-4.683.556-7.006.73-2.885.217-5.767-1.385-8.614-.933-3.282.521-7.503.077-7.813-.487z" fill="#c27b55"/><path d="M86.729 84.747a6.46 6.46 0 01.257 1.758c0 1.481-.523 2.881-1.44 4.135-4.077.038-16.966.706-18.935-.303-2.813-1.441-5.323-7.369-5.506-8.827 9.995-5.749 17.37-4.631 25.624 3.237z" fill="url(#c)"/><path d="M81.985 87.146c-1.087 5.321-5.202 8.456-9.201 6.994-3.996-1.46-6.356-6.964-5.269-12.286 1.086-5.324 5.211-8.458 9.207-6.996 3.993 1.46 6.351 6.964 5.263 12.288z" fill="#00f0f1" stroke="#00c2c3" stroke-width=".5"/><path d="M80.818 87.271c-1.06 4.085-4.26 6.469-7.374 5.332-2.875-1.053-4.689-4.732-4.454-8.62a20.332 20.332 0 013.444-.066c-.012.056-.033.104-.045.161-.381 1.875.509 3.841 1.991 4.384 1.487.542 3.001-.545 3.385-2.419.047-.245.073-.49.081-.732a13.594 13.594 0 012.972 1.96z" fill="#19feff"/><path d="M75.765 81.518c-1.501-.574-3.035.569-3.422 2.564-.389 1.986.515 4.063 2.017 4.638 1.505.575 3.039-.569 3.426-2.555.391-1.996-.516-4.074-2.021-4.647zm.329 7.053c-.625.258-1.271-.085-1.443-.771-.166-.685.205-1.444.833-1.698.629-.259 1.273.086 1.447.767.169.681-.203 1.443-.837 1.702z" opacity=".9"/><path d="M70.764 89.765c-.463.37-1.152.04-1.548-.744-.396-.777-.335-1.708.129-2.079.458-.364 1.156-.034 1.549.744.388.778.333 1.71-.13 2.079z" fill="#fff" opacity=".6"/><path d="M80.638 84.068c-1.058.843-2.647.083-3.547-1.701-.9-1.786-.764-3.92.293-4.762 1.056-.849 2.646-.087 3.542 1.699.898 1.785.769 3.917-.288 4.764z" fill="#fff" opacity=".9"/><path d="M55.8 79.995c0 13.808 8.06 31.404 18 31.404s18-11.191 18-24.999c0-13.809-8.06-25.001-18-25.001s-18 4.788-18 18.596zm5.304 1.515c9.995-5.749 17.37-4.63 25.624 3.237a6.46 6.46 0 01.257 1.758c0 1.481-.523 2.881-1.44 4.135-4.077.038-16.966.706-18.935-.303-2.812-1.441-5.323-7.369-5.506-8.827z" fill="#f0c7b1"/><path d="M61.209 81.995c.522 1.979 2.833 7.026 5.401 8.342 1.969 1.009 14.857.341 18.935.303.917-1.253 1.44-2.653 1.44-4.135a6.46 6.46 0 00-.257-1.758c-8.166-7.784-15.476-8.95-25.31-3.407 1.968-5.724 8.522-9.952 16.34-9.987 9.393-.04 17.018 5.981 17.041 13.451.023 7.469-7.572 13.554-16.961 13.596-9.393.04-17.016-5.981-17.039-13.45a10.952 10.952 0 01.41-2.955z" fill="url(#d)"/><path d="M66.61 90.337c-2.813-1.441-5.323-7.369-5.506-8.827 9.995-5.749 17.37-4.63 25.624 3.237a6.46 6.46 0 01.257 1.758c0 1.481-.523 2.881-1.44 4.135-4.077.038-16.966.706-18.935-.303z" fill="url(#e)"/><path d="M61.138 78.389c3.414-1.34 17.798-6.314 25.648 4.274-8.986-10.101-21.204-5.445-25.648-4.274z" fill="#c27b55"/><path d="M58.8 80.972c1.217 2.342 6.361 10.159 7.561 10.218 10.059.608 16.311-.248 20.313-.813-1.499-.19-17.826.781-20.063-.313-2.813-1.375-5.323-7.031-5.506-8.423 10.251-5.626 17.743-4.379 26.256 3.659-8.301-12.599-25.508-6.859-28.561-4.328z" fill="#2c1630"/><path d="M112.872 84.747a6.46 6.46 0 00-.257 1.758c0 1.481.523 2.881 1.44 4.135 4.077.038 16.966.706 18.935-.303 2.813-1.441 5.323-7.369 5.506-8.827-9.995-5.749-17.37-4.631-25.624 3.237z" fill="url(#f)"/><path d="M132.484 87.146c-1.088 5.321-5.203 8.456-9.202 6.992-3.994-1.458-6.356-6.963-5.267-12.284 1.087-5.324 5.21-8.458 9.204-6.994 3.997 1.458 6.355 6.963 5.265 12.286z" fill="#00f0f1" stroke="#00c2c3" stroke-width=".5"/><path d="M131.319 87.271c-1.062 4.085-4.261 6.468-7.375 5.33-2.875-1.052-4.69-4.73-4.454-8.618a20.448 20.448 0 013.445-.066c-.011.055-.035.103-.046.161-.381 1.875.508 3.84 1.99 4.383 1.489.542 3.001-.547 3.385-2.42.049-.244.073-.49.083-.732a13.873 13.873 0 012.972 1.962z" fill="#19feff"/><path d="M126.267 81.518c-1.504-.573-3.036.569-3.425 2.564-.387 1.987.515 4.063 2.02 4.637 1.504.575 3.035-.57 3.426-2.555.389-1.995-.518-4.073-2.021-4.646zm.326 7.053c-.623.258-1.271-.085-1.44-.771-.168-.684.204-1.445.833-1.697.629-.26 1.272.085 1.445.766.17.68-.203 1.442-.838 1.702z" opacity=".9"/><path d="M121.264 89.765c-.461.368-1.15.039-1.547-.745-.396-.776-.335-1.706.128-2.079.459-.364 1.155-.033 1.547.746.391.777.337 1.708-.128 2.078z" fill="#fff" opacity=".6"/><path d="M131.138 84.068c-1.06.844-2.646.083-3.548-1.701-.897-1.786-.766-3.919.293-4.761 1.056-.85 2.646-.088 3.54 1.698.901 1.787.772 3.918-.285 4.764z" fill="#fff" opacity=".9"/><path d="M125.801 61.399c-9.94 0-18 11.193-18 25.001 0 13.808 8.06 24.999 18 24.999s18-16.226 18-30.033c0-13.808-8.06-19.967-18-19.967zm7.189 28.938c-1.969 1.009-14.857.341-18.935.303-.917-1.253-1.44-2.653-1.44-4.135 0-.601.096-1.187.257-1.758 8.254-7.868 15.629-8.986 25.624-3.237-.183 1.458-2.693 7.386-5.506 8.827z" fill="#f0c7b1"/><path d="M138.392 81.995c-.522 1.979-2.833 7.026-5.401 8.342-1.969 1.009-14.857.341-18.935.303-.917-1.253-1.44-2.653-1.44-4.135 0-.601.096-1.187.257-1.758 8.166-7.784 15.476-8.95 25.31-3.407-1.968-5.724-8.522-9.952-16.34-9.987-9.393-.04-17.018 5.981-17.041 13.451-.023 7.469 7.572 13.554 16.961 13.596 9.393.04 17.016-5.981 17.039-13.45a10.992 10.992 0 00-.41-2.955z" fill="url(#g)"/><path d="M132.99 90.337c2.813-1.441 5.323-7.369 5.506-8.827-9.995-5.749-17.37-4.63-25.624 3.237a6.46 6.46 0 00-.257 1.758c0 1.481.523 2.881 1.44 4.135 4.078.038 16.966.706 18.935-.303z" fill="url(#h)"/><path d="M112.814 82.664c7.85-10.588 22.234-5.615 25.648-4.274-4.443-1.172-16.661-5.828-25.648 4.274z" fill="#c27b55"/><path d="M140.801 80.972c-1.217 2.342-6.361 10.159-7.561 10.218-10.059.608-16.311-.248-20.313-.813 1.499-.19 17.826.781 20.063-.313 2.813-1.375 5.323-7.031 5.506-8.423-10.251-5.626-17.743-4.379-26.256 3.659 8.301-12.599 25.508-6.859 28.561-4.328z" fill="#2c1630"/><path d="M141 113.974c.035 22.622-18.292 40.994-40.938 41.025-22.642.037-41.028-18.273-41.063-40.9-.035-22.62 18.292-41.064 40.937-41.1 22.643-.035 41.031 18.35 41.064 40.975z" fill="url(#i)"/><path d="M137.5 53.999c0 20.711-16.789 37.5-37.499 37.5-20.711 0-37.501-16.789-37.501-37.5s16.79-37.5 37.501-37.5c20.71 0 37.499 16.789 37.499 37.5z" fill="url(#j)"/><path d="M54.872 71.479c0 .55 13.681-.174 15.036-.312 23.276-2.375 24.726-7.885 21.625-7.963-2.49-.063-3.619 2.32-21.219 5.462-.419.076-15.442 3.24-15.442 2.813zm90.258 0c0 .55-13.681-.174-15.036-.312-23.276-2.375-24.726-7.885-21.625-7.963 2.49-.063 3.619 2.32 21.219 5.462.419.076 15.442 3.24 15.442 2.813z" fill="#cac1b2"/><path d="M105.07 117.886c1.053 0 1.338.28 1.338.625 0 .347-.328.879-1.338.624-1.109-.276-3.046-.148-3.046-.148s1.994-1.101 3.046-1.101zm-10.053 0c-1.054.001-1.337.282-1.337.628-.001.345.317.842 1.337.624 1.125-.241 3.046-.149 3.046-.149s-1.992-1.099-3.046-1.103zm13.592-3.738s1.458 1.654 1.154 3.403c-.294 1.699-3.238 2.447-3.238 2.447s2.044-1.297 2.292-2.873c.116-.735-.208-2.977-.208-2.977zm-17.992-1.702s-1.063 2.316-.755 3.727c.558 2.547 3.625 3.565 3.625 3.565s-1.914-1.747-2.594-3.291c-.744-1.684-.276-4.001-.276-4.001z" fill="#c27b55"/><path d="M105.019 115.38c1.021-.761 1.124-1.195.912-1.479-.21-.284-.823-.464-1.678.453-.942 1.012-2.991 1.758-2.991 1.758s2.735.031 3.757-.732z" fill="#ffe4d6"/><path d="M119.74 133.21c-13.47 0-17.96-3.72-19.72-4.18-1.62.36-6.35 4.73-21.51 4.11-.45-.02-1.06-.04-1.43-.12-3.19-2.37-3-6.36 3.14-7.91 5.72-1.15 11.97-5.01 19.95-5.01 6.74 0 10.37 2.45 19.62 5.03 2.47.68 4.8 1.33 5.19 4.67-.14 1.27-.84 2.35-2.14 3.26-.58.09-1.73.15-3.1.15z" fill="#cac1b2"/><path d="M95.87 127.4c1.2-1.24 2.17-3.14 3-4-.86 1.3-1.32 2.84-3 4zm.17-4.16c-2.23 3.02-2.41 3.13-5.17 6.17 2.9-2.21 3.71-3.49 5.17-6.17zm-4 1.66c-3.69 2.96-3.23 2.22-6.33 4.83 4.12-2.34 4.96-3.34 6.33-4.83zm-4.34 1c-4.01 2.49-1.09.78-7.33 5.17 2.65-1.2 2.52-1.03 7.33-5.17zm-4.66 1.5c-1.97.88-3.9 1.9-5.67 3.17 1.99-.84 3.87-1.94 5.67-3.17zm18.09-4c.89 1.35 1.36 2.87 3 4-1.25-1.28-2.05-3.02-3-4zm2.83-.16c1.75 3.24 2.61 4.23 5.17 6.17-2.77-3.05-2.94-3.16-5.17-6.17zm4 1.66c1.03 1.13 1.74 2.24 6.33 4.83-2.07-1.74-3.5-2.56-6.33-4.83zm4.34 1c4.51 3.88 4.58 3.92 7.33 5.17-3.87-2.72-4.54-3.43-7.33-5.17zm4.66 1.5c1.73 1.19 3.65 2.32 5.67 3.17-1.79-1.28-3.73-2.31-5.67-3.17z" fill="#bbab92"/><path d="M119.41 124.92c-9.65-2.3-15.75-7.96-30.02-2.83-1.96.66-7.64 2.62-9.19 2.93-.75.19-1.58.37-2.43.77-2.68 1.31-4.41 4.61-.71 7.33.42.09 1.15.11 1.61.13 14.96.57 19.76-3.71 21.32-4.12.67.17.86.31 1.5.65 6.34 3.58 18.76 3.81 21.42 3.36 1.22-.85 2.03-1.92 2.18-3.35-.42-3.59-3.01-4.12-5.68-4.87zm-18 3.86c-2.68-1.07-2.49.84-10.97 2.27-6.92 1.03-12.4 1.13-13.4 1.06-.69-.79-1.29-1.77-.89-2.74 1.39-2.77.41-1.39 13.75-5.91 14.77-5.36 10.59-2.05 29.55 3 3.89 1 3.69 1.54 4.41 2.94.38.96-.23 1.94-.91 2.71-2.65.16-14.31-.47-21.54-3.33z" fill="#ab9775"/><path d="M45.066 90.479c-1.663-4.941-4.339-12.356-8.735-15.286-2.688-14.785-7.848-34.075 7.836-52.385 3.342-3.917 7.695-7.354 12.827-8.128C69.672-4.083 84.836-12.747 119.576-1.432c52.479 15.34 43.691 53.39 41.853 76.293-2.476 2.597-4.824 9.932-6.139 14.359-1.17-25.195-10.647-60.91-38.688-60.91-14.208 0-17.067 5.674-37.26 3.394-37.291-2.878-30.359 41.538-34.276 58.775z" fill="#cac1b2"/><path d="M102.566 19.442C88.011 22.011 80 16 83 5c-5.661 3.59-7.699 9.31-6.903 14.442C72.65 15.482 72.796 8.737 74.843 1c-8.02 8.578-9.465 16.139-7.549 23.801-5.012-5.458-8.708-12.687-3.697-18.978-2.321 2.513-4.498 5.343-6.603 8.459-.479.072-4.142 2.217-4.142 2.217 2.935 0 9.319 2.98 13.005 9.154-4.542-1.424-10.958.219-13.534 2.379-9.399 7.885-14.204 20.903-7.164 61.423 2.253-11.969 1.543-23.55 3.268-33.198 2.885-16.144 10.068-26.874 30.916-24.951 20.192 2.28 23.052-3.394 37.26-3.394 28.04 0 37.518 35.715 38.688 60.91 1.314-4.427 3.663-11.762 6.139-14.359.302-3.759.416-3.52.79-7.927-8.351-38.051-29.13-52.481-59.654-47.094z" fill="#ab9775"/><path d="M39.369 61.985c-3.731-41.197 18.025-41.045 21-38.75-4.147-.49-18.255-4.19-21 38.75zm47.25-52.5c1.66 4.085 4.553 6.995 10.868 7.394 0 0 1.125.776 17.403-2.094 2.292-.411 3.952-.545 4.729-.549-11.957-1.088-26.498 6.664-33-4.751zm63.772 17.107s-.389-.601-1.072-1.436c-9.444-11.944-25.151-12.229-24.199-11.171-.937-1.19 19.347 2.377 26.987 18.344 4.835 8.836 1.414 2.542 5.513 10.656-3.603-11.325-5.445-13.693-7.229-16.393zm-20.209-9.087s-1.276-.383-2.578-.662c-1.301-.277-2.615-.469-2.614-.469-3.583-.505-6.562-.275-8.37-.138 6.199.063 15.622 1.509 20.75 5.5-2.169-2.197-4.643-3.564-7.188-4.231zm-92.813 27.23c-1.341 9.794-1.69 21.234 3.25 29.75-3.289-8.111-3.363-20.993-3.25-29.75zm36.174-15.777c.823.173 1.125.078 1.125.078s-.278.029-1.063-.253c-6.856-2.076-9.987-15.147 1.013-27.297-13.182 10.291-9.689 26.328-1.075 27.472zm9.076-23.723C78.885 8.15 76.356 11.463 75.917 16c-.636 7.067 3.239 12.869 10.953 13.485-12.168-2.827-11.76-16.377-4.251-24.25zm26.801 5.125s-8.481.526-16.551-2.875c8.332 4.85 17.038 4.377 27 2.5-4.194.182-6.358.288-10.449.375z" fill="#bbab92"/><path d="M122.869 8.069c-10.39.727-12.784.221-17.333-2.333 5.777 2.53 7.943 1.873 17.333 2.333zm-36.502 8.445c-5.562-5.748-3.748-8.528-3.748-8.528s-2.659 7.062 6.636 11.581c5.177 2.818 14.232.009 16.864-.331-3.433-.012-14.556 2.451-19.752-2.722zm-26.998 8.721c-18.715.179-19.006 29.31-16.603 47.764.5-17.624.132-45.229 16.603-47.764zm101.368 37.131c-2.301-13.429-7.88-28.915-19.618-35.88 9.534 7.617 16.44 24.531 19.618 35.88zm-1.118-18.131c-.742-13.17-7.966-23.253-18.114-30.338 8.933 8.29 15.918 18.145 18.114 30.338zm-25.75-35.5c-11.854-6.716-22.503-11.642-36.5-7.5 12.801-2.116 23.475 1.819 36.5 7.5zm-51-10.75c-10.119.956-17.762 5.85-18.528 15.99C65.948 3.828 73.604-.092 82.869-2.015zM75.254 13.19C77.523 1.846 85.291-.489 94.426-2.125 84.84-1.67 75.651 1.79 75.254 13.19z" fill="#d9d8d5"/><path d="M119.669-2.115c-35.293-11.496-50.395-2.204-62.85 16.12-5.104.782-9.536 4.29-12.88 8.21-15.82 18.468-10.556 38.009-7.88 52.76 4.675 3.016 7.39 11.212 9.05 16.18 4.515-16.777-3.539-62.465 34.2-59.55 20.792 2.347 23.297-3.704 38.46-3.38 25.709-1.096 36.541 36.643 37.29 62.45 1.127-3.874 3.839-13.236 6.659-16.08 1.515-19.184 12.438-60.783-42.049-76.71zm41.07 77.11c-2.396 2.86-4.208 7.944-5.22 11.51.247-23.89-10.323-61.938-37.74-61.06-15.95-.254-17.956 5.64-38.19 3.59-18.563-1.35-28.966 9.705-32.23 26.71-1.966 9.824-.408 22.838-2.2 33.51-1.491-4.808-4.014-11.26-8.21-14.08-1.698-18.831-5.956-33.256 8.28-51.85 3.022-3.928 8.035-7.64 12.89-8.72C65.066 7.31 73.121-14.71 118.979.145c48.937 14.371 43.621 49.924 41.76 74.85z" fill="#9c845b"/><path d="M124.34 99.99c-.82 0-1.66-.03-2.49-.1-3.5-.26-15.01-2.23-16.05-16.5-.26-3.57 7.6-6.09 23.34-7.49.79-.07 1.61-.15 2.46-.23 3.85-.36 8.21-.77 11.65-.77 4.5 0 6.58.68 6.73 2.22.36 3.45-1.67 10.82-8.72 17-4.3 3.79-10.31 5.87-16.92 5.87z" fill="url(#k)"/><path d="M75.66 99.99c.82 0 1.66-.03 2.49-.1 3.5-.26 15.01-2.23 16.05-16.5.26-3.57-7.6-6.09-23.34-7.49-.79-.07-1.61-.15-2.46-.23-3.85-.36-8.21-.77-11.65-.77-4.5 0-6.58.68-6.73 2.22-.36 3.45 1.67 10.82 8.72 17 4.3 3.79 10.31 5.87 16.92 5.87z" fill="url(#l)"/><path d="M147.99 73.03c-5.98.68-19.67 1.5-27.04 2.16-4.68.41-12.81 2.65-20.95 2.65-8.14 0-16.27-2.23-20.95-2.65-7.37-.65-21.06-1.48-27.04-2.16-2.7-.31-6.42.95-5.97 3.51.34 1.91 3.15 10.2 11.86 18.2 5.94 5.45 15.9 8.17 26.2 5.12 9.68-2.87 11.7-11.13 12.66-13.23.85-1.85 1.76-2.67 3.24-2.67s2.4.82 3.24 2.67c.96 2.09 2.98 10.36 12.66 13.23 10.3 3.05 20.26.33 26.2-5.12 8.71-8 11.52-16.29 11.86-18.2.45-2.56-3.27-3.82-5.97-3.51zM78.11 99.4c-7.54.57-14.31-1.48-19.05-5.64-6.87-6.03-8.9-13.22-8.56-16.58.3-2.93 12.22-1.5 20.3-.78s23.21 2.55 22.89 6.96c-.86 11.98-9.24 15.56-15.58 16.04zm62.83-5.64c-4.74 4.16-11.51 6.21-19.05 5.64-6.34-.48-14.72-4.05-15.59-16.04-.32-4.41 14.81-6.24 22.89-6.96 8.08-.72 20-2.15 20.3.78.35 3.35-1.68 10.55-8.55 16.58z" fill="#edd218"/><path d="M73.61 99.42c-16.31-.67-21.96-14.11-23.63-18-1.6-3.73-.3-5.07 1.95-5.88-.89.62-1.62 1.23-1.64 2.61-.19 6.06 7.92 20.42 23.32 21.27zm19.97-12.2c.94-2.29 1.76-3.96 1.3-5.25-.74-2.1-5.84-2.97-7.71-3.36 6.45 1.87 8.26 2.45 6.41 8.61zM82.14 77.14c-4.22-1.31-16.69-2.69-20.76-2.42 4.32.41 16.18 1.29 20.76 2.42zm44.25 22.28c16.31-.67 21.96-14.11 23.63-18 1.6-3.73.3-5.07-1.94-5.88.89.62 1.62 1.23 1.64 2.61.18 6.06-7.93 20.42-23.33 21.27zM112.83 78.6c-1.87.39-6.97 1.26-7.71 3.36-.45 1.29.37 2.96 1.3 5.25-1.85-6.15-.04-6.73 6.41-8.61zm25.79-3.87c-4.07-.27-16.54 1.11-20.76 2.42 4.58-1.14 16.44-2.02 20.76-2.42z" fill="#fce333"/></svg>