<svg xmlns="http://www.w3.org/2000/svg" width="500" height="500" viewBox="0 0 200 200" overflow="hidden"><defs><radialGradient id="i" cx="100" cy="113" r="40" gradientUnits="userSpaceOnUse" class="svga-on-canvas-facehighlight-gradient-single-0"><stop stop-opacity=".5" stop-color="#e9bfa9" offset="0"/><stop stop-opacity="0" stop-color="#daa488" offset=".9"/></radialGradient><radialGradient id="j" cx="100" cy="57" r="36" gradientUnits="userSpaceOnUse" class="svga-on-canvas-facehighlight-gradient-single-1"><stop stop-opacity=".5" stop-color="#e9bfa9" offset="0"/><stop stop-opacity="0" stop-color="#daa488" offset=".9"/></radialGradient><radialGradient id="c" cx="125.523" cy="88.627" r="13.218" gradientTransform="matrix(-1.0975 .096 .0956 1.0928 203.228 -20.87)" gradientUnits="userSpaceOnUse" class="svga-on-canvas-eyesback-gradient-left-0"><stop stop-color="#fff" offset="0"/><stop stop-color="#fdfefe" offset=".544"/><stop stop-color="#f6f8f9" offset=".74"/><stop stop-color="#eaeff2" offset=".879"/><stop stop-color="#d9e3e8" offset=".992"/><stop stop-color="#d8e2e7" offset="1"/></radialGradient><radialGradient id="f" cx="125.523" cy="88.627" r="13.218" gradientTransform="matrix(1.0975 .096 -.0956 1.0928 -3.229 -20.87)" gradientUnits="userSpaceOnUse" class="svga-on-canvas-eyesback-gradient-right-0"><stop stop-color="#fff" offset="0"/><stop stop-color="#fdfefe" offset=".544"/><stop stop-color="#f6f8f9" offset=".74"/><stop stop-color="#eaeff2" offset=".879"/><stop stop-color="#d9e3e8" offset=".992"/><stop stop-color="#d8e2e7" offset="1"/></radialGradient><radialGradient id="d" cx="122.915" cy="85.507" fx="136.35" fy="84.425" r="17.038" gradientTransform="matrix(.9926 .1216 .1079 -.8805 -54.142 145.844)" gradientUnits="userSpaceOnUse" class="svga-on-canvas-eyesfront-gradient-left-3"><stop stop-color="#cb8b6a" offset="0"/><stop stop-opacity=".3" stop-color="#cb8b6a" offset=".7"/><stop stop-opacity="0" stop-color="#daa488" offset="1"/></radialGradient><radialGradient id="e" cx="78.447" cy="85.328" r="26.192" gradientTransform="matrix(.7158 -.1012 .1016 .7275 7.98 45.944)" gradientUnits="userSpaceOnUse" class="svga-on-canvas-eyesfront-gradient-left-4"><stop stop-opacity="0" offset=".9"/><stop stop-opacity=".3" offset="1"/></radialGradient><radialGradient id="g" cx="122.915" cy="85.507" fx="136.35" fy="84.425" r="17.038" gradientTransform="matrix(-.9926 .1216 -.1079 -.8805 254.142 145.844)" gradientUnits="userSpaceOnUse" class="svga-on-canvas-eyesfront-gradient-right-3"><stop stop-color="#cb8b6a" offset="0"/><stop stop-opacity=".3" stop-color="#cb8b6a" offset=".7"/><stop stop-opacity="0" stop-color="#daa488" offset="1"/></radialGradient><radialGradient id="h" cx="78.447" cy="85.328" r="26.192" gradientTransform="matrix(-.7158 -.1012 -.1016 .7275 192.02 45.944)" gradientUnits="userSpaceOnUse" class="svga-on-canvas-eyesfront-gradient-right-4"><stop stop-opacity="0" offset=".9"/><stop stop-opacity=".3" offset="1"/></radialGradient><linearGradient id="b" x1="100" y1="142" x2="100" y2="138" gradientUnits="userSpaceOnUse" class="svga-on-canvas-mouth-gradient-single-0"><stop stop-color="#d29779" offset=".1"/><stop stop-color="#cb8b6a" offset="1"/></linearGradient><linearGradient id="a" x1="99.98" y1="171.27" x2="99.98" y2="136.351" gradientUnits="userSpaceOnUse" class="svga-on-canvas-chinshadow-gradient-single-0"><stop stop-opacity=".8" stop-color="#cb8b6a" offset="0"/><stop stop-color="#ac5f38" offset=".7"/></linearGradient></defs><path d="M225 225H-25V-25h250v250z" fill="#036564"/><path d="M-25 62.366V48.224L48.224-25h14.142L-25 62.366zM90.649-25H76.507L-25 76.507v14.142L90.649-25zm28.285 0h-14.142L-25 104.792v14.143L118.934-25zm28.285 0h-14.143L-25 133.075v14.143L147.219-25zM225-25h-7.071L-25 217.929V225h7.071L225-17.929V-25zM5.796-25H-8.345L-25-8.345V5.796L5.796-25zm28.285 0H19.939L-25 19.939v14.142L34.081-25zm141.422 0H161.36L-25 161.36v14.143L175.503-25zM-25-22.487L-22.487-25H-25v2.513zm250 174.263v-14.143L137.635 225h14.142L225 151.776zm0 28.286v-14.143L165.919 225h14.143L225 180.062zm0 28.283v-14.143L194.203 225h14.143L225 208.345zm0-84.852V109.35L109.351 225h14.142L225 123.493zm0 98.994L222.487 225H225v-2.513zm0-183.847V24.497L24.497 225H38.64L225 38.64zm0 56.568V81.066L81.066 225h14.142L225 95.208zm0-84.853V-3.787L-3.787 225h14.142L225 10.355zM203.787-25h-14.143L-25 189.646v14.141L203.787-25zM225 66.924V52.782L52.782 225h14.142L225 66.924z" fill="#005655"/><path d="M100.5 100.5h-1v-1h1v1z" fill="#b79675"/><path d="M190.858 199.866c-6.008-10.158-13.474-11.973-19.628-13.936-6.323-2.016-19.346-3.178-26.449-4.6-6.86-1.373-23.153-5.789-23.339-13.488-.192-8.066 4.291-40.09 4.291-40.09H74.005s4.487 32.023 4.294 40.09c-.184 7.699-16.48 12.115-23.341 13.488-7.104 1.422-20.125 2.584-26.448 4.6-6.156 1.963-13.624 3.777-19.632 13.936-3.644 6.16-6.008 16.133-6.008 27.133h194c-.001-11-2.361-20.973-6.012-27.133z" fill="#daa488"/><path d="M121.442 167.843c2.495 10.929 18.165 13.698 26.293 15.325 21.909 4.379 33.772 5.134 42.297 19.539 2.903 4.916 5.459 15.864 5.962 24.153 1.835.291.531-17.432-5.136-26.994-9.742-16.472-29.089-15.135-46.077-18.535-6.86-1.373-23.153-5.789-23.339-13.488zm-42.884 0c-.186 7.699-16.479 12.115-23.339 13.488-16.988 3.4-36.335 2.063-46.077 18.535-5.667 9.563-6.971 27.285-5.136 26.994.503-8.289 3.059-19.237 5.962-24.153 8.524-14.405 20.388-15.16 42.297-19.539 8.128-1.627 23.798-4.397 26.293-15.325z" fill="#e9bfa9"/><path d="M51.206 189.513s28.641.299 33.473 1.885c2.314.758 8.372 5.633 8.372 5.633s-6.556-3.17-8.658-3.758c-4.883-1.364-33.187-3.76-33.187-3.76zm48.589 10.486c2.053-.041 7.887-3.799 7.887-3.799s-5.574 2.059-7.342 2.16c-1.491.086-6.366-1.238-6.366-1.238s4.138 2.91 5.821 2.877zm17.213-7.242c6.75-1.818 29.786-3.23 29.786-3.23s-23.791-.516-30.51 1.725c-2.252.752-7.562 5.16-7.562 5.16s6.064-3.058 8.286-3.655z" fill="#cb8b6a"/><path d="M190.858 199.866c-9.741-16.471-29.122-15.142-46.077-18.535-6.86-1.373-23.153-5.789-23.339-13.488-.192-8.066 4.291-40.09 4.291-40.09H74.005s4.487 32.023 4.294 40.09c-.184 7.699-16.48 12.115-23.341 13.488-7.104 1.422-20.125 2.584-26.448 4.6-6.156 1.963-13.624 3.777-19.632 13.936C5.234 206.027 2.87 216 2.87 227h194c-.001-11.001-2.361-20.974-6.012-27.134z" fill="none" stroke="#ac5f38" stroke-width="1.5"/><path d="M100.002 171.27c11.208 0 16.588-3.813 20.938-7.778.582-8.897 2.669-24.918 3.646-32.155-14.784-1.753-34.708-1.742-49.43.032.971 7.183 3.024 22.934 3.628 31.864 4.401 4.057 9.767 8.037 21.218 8.037z" fill="url(#a)"/><path d="M3.229 223.031c-.622-.007-.456-.006-.92-.006.025-17.784 6.689-31.059 17.837-35.518 1.466.314 3.037.725 4.514 1.033-13.109 6.346-20.129 20.274-21.431 34.491zm178.414-34.627c-1.855.251-3.683.491-5.504.729 13.353 5.75 17.424 20.534 19.434 33.854l.931-.002c-1.083-16.768-1.352-27.634-14.861-34.581z" fill="#4e688d"/><path d="M181.509 192.193c.734-.111 2.033-.324 2.761-.438-1.678-1.271-2.67-1.958-3.67-2.549-5.851 1.009-59.284 7.112-88.51 7.112-38.337 0-66.622-6.76-71.951-8.293-1.09.62-2.15 1.301-3.15 2.061 1 .257 2.201.598 3.218.841-10.338 7.09-15.825 19.518-16.978 32.104 30.39.341 61.447.514 92.321.514h.015c40.676 0 71.674-.298 88.328-.458 5.388-.052 9.327-.09 11.679-.1-1.722-11.415-4.937-23.828-14.063-30.794z" fill="#39557e"/><path d="M23.439 189.002a33.293 33.293 0 00-3.204 1.955c49.803 12.038 110.22 9.005 161.174 1.236a25.205 25.205 0 00-3.673-2.303c-48.73 8.216-106.674 11.927-154.297-.888z" fill="#27446f"/><path d="M181.629 188.306c-89.42 12.081-124.385 7.031-161.52-.891-13.279 5.312-17.9 21.352-17.9 35.71h.49c105.661 1.193 182.323-.04 193.91-.04-1.1-16.833-1.293-27.764-14.98-34.779zm-161.39-.181c49.132 14.134 109.964 10.021 160.36 1.28 1 .591 1.992 1.079 3.67 2.35-52.607 8.26-115.869 11.615-167.18-1.569 1-.76 2.06-1.441 3.15-2.061zm-17.47 34.48c1.961-14.393 4.62-24.719 13.97-32.15 50.694 14.553 116.182 11.469 168.26 1.86 8.309 6.651 7.884 13.707 11.01 30.32-55.042-.613-127.613-.788-193.24-.03z" fill="#0c2850"/><path d="M100.002.867C66.384.919 39.082 28.09 39.134 61.564a60.48 60.48 0 002.002 15.382h.001c.013.054 11.543 37.969 14.021 50.423 1.382 6.945 9.796 13.203 17.265 18.313 6.967 4.767 10.529 13.588 27.58 13.588s20.613-8.821 27.58-13.588c7.468-5.109 15.883-11.367 17.265-18.313 2.479-12.454 14.009-50.37 14.02-50.423h.002a60.48 60.48 0 002.002-15.382C160.923 28.09 133.62.919 100.002.867z" fill="#daa488"/><path d="M146.772 22.738c7.478 10.183 11.917 22.87 11.898 36.626a62.683 62.683 0 01-1.93 15.382h-.002c-.011.053-11.124 37.969-13.512 50.423-1.335 6.945-9.471 13.203-16.668 18.313-6.718 4.767-10.121 13.588-26.557 13.588-16.434 0-19.842-8.821-26.557-13.588-7.197-5.109-15.335-11.367-16.665-18.313-2.391-12.454-13.504-50.37-13.515-50.423a62.635 62.635 0 01-1.931-15.382c-.021-13.752 4.416-26.435 11.889-36.617C44.41 33.272 39.11 46.803 39.133 61.564a60.48 60.48 0 002.002 15.382h.001c.014.054 11.544 37.969 14.022 50.423 1.382 6.945 9.796 13.203 17.265 18.313 6.967 4.767 10.529 13.588 27.58 13.588s20.613-8.821 27.58-13.588c7.468-5.109 15.883-11.367 17.265-18.313 2.479-12.454 14.009-50.37 14.02-50.423h.002a60.48 60.48 0 002.002-15.382c.022-14.765-5.283-28.3-14.1-38.826z" fill="#d29779"/><path d="M100.002.867C66.384.919 39.082 28.09 39.134 61.564a60.48 60.48 0 002.002 15.382h.001c.013.054 11.543 37.969 14.021 50.423 1.382 6.945 9.796 13.203 17.265 18.313 6.967 4.767 10.529 13.588 27.58 13.588s20.613-8.821 27.58-13.588c7.468-5.109 15.883-11.367 17.265-18.313 2.479-12.454 14.009-50.37 14.02-50.423h.002a60.48 60.48 0 002.002-15.382C160.923 28.09 133.62.919 100.002.867z" fill="none" stroke="#ac5f38" stroke-width="1.5"/><path d="M100.356 140.602c-3.24 0-4.597-2.678-4.597-2.678l9.125-.188c0-.001-1.677 2.866-4.528 2.866z" fill="url(#b)"/><path d="M98.886 138c-1.668 0-2.938-.171-3.027-.184a.25.25 0 01-.213-.282.255.255 0 01.282-.214c.037.006 5.699.5 8.766-.195a.25.25 0 01.112.488c-1.321.299-4.724.387-5.92.387zm-13.517-4.444c-.341-.663 4.217-1.252 6.361-1.551 2.848-.396 5.715.208 8.556.479 2.232.213 4.496-.74 6.736-.436 2.484.338 7.716.804 7.347 1.594-.256.548-4.696-.308-7.049-.396-2.183-.084-4.387.556-6.563.73-2.703.217-5.375-1.096-8.07-.933-2.44.147-7.028 1.076-7.318.513z" fill="#ac5f38"/><path d="M76.925 80.872c4.607.618 8.048 3.822 11.044 9 .004.006.013.004.018.009.008.032.022.063.029.094.29 1.188-.752 2.198-2.068 2.988-4.747.924-9.302 2.162-14.155 1.625-9.719-1.074-10.042-6.145-10.551-7.458-.291-1.299-.374-2.626-.397-3.883 1.844.032 3.983-1.056 5.781-1.555 2.105-.584 6.818-1.288 10.299-.82z" fill="url(#c)"/><path d="M83.5 88.001c0 4.693-3.806 8.498-8.5 8.498s-8.5-3.805-8.5-8.498a8.5 8.5 0 1117 0z" fill="#00f0f1" stroke="#00c2c3" stroke-width=".5"/><path d="M70.058 91.974c1.241-.103.142-.434.142-.434-.613-.331-1.768-.839-1.768-1.306 0-1.461 2.002-1.839-.048-2.416-2.13-1.955 1.653-1.914 1.625-1.98-1.381-3.366.423-1.518 1.183-2.512 2.816-3.682.785.378 2.314 0 .554-.136-1.105-2.169.048-1.884.763.187.937.821.937.821.557-.109 1.428-.966 1.428-.966 1.061.32 1.806 1.827 1.478 1.545.522-.063 1.252-.313 1.822-.483 0 0 .1-.338.196-.047 1.3 3.77 4.652 3.5.792 4.589 0 0-.249 0 .542.627 3.839 3.066-2.978 2.117.638 3.527.147-.146-2.167 1.368-2.167 1.787 0 .71-1.477 2.576-2.757 1.841-.714-.408-.823.85-1.243.269-.823-1.138-2.467-.049-1.859-1.095.898-.737-.926.289-1.28.289-1.172 0 1.534-3.942 5.516-1.013 1.165.853-1.224-2.03.886-2.03.211.069.148-.739.148-.966-1.098-.215 1.969-.005 1.969-1.788.193.039.721-.495-2.316 0 0 0-.097-1.063-.048-1.256.156-.62 1.72-.422 1.28-1.063l-1.132-2.272c-3.645-.586-1.562-.952-3.841-.483-.108.535-4.881 2.811-4.729 3.866.142.995 2.997 1.328.295 3.091 4.048 7.757-2.991-.172-.051 1.742z" fill="#19feff"/><path d="M75 80.562l.243 6.223 2.603-5.656-2.158 5.84 4.572-4.229-4.229 4.57 5.842-2.157-5.655 2.604 6.222.242-6.222.242 5.655 2.604-5.842-2.157 4.229 4.57-4.572-4.229 2.158 5.84-2.603-5.656L75 95.437l-.243-6.223-2.604 5.656 2.156-5.84-4.57 4.229 4.229-4.57-5.842 2.157 5.655-2.604L67.562 88l6.219-.242-5.655-2.604 5.842 2.157-4.229-4.57 4.57 4.229-2.156-5.84 2.604 5.656.243-6.224z" fill="#00f0f1" stroke="#00e1e2" stroke-width=".5"/><path d="M76.128 82.428l-.764 4.697 2.808-3.841-2.501 4.047 4.065-2.476-3.859 2.783 4.702-.73L75.947 88l4.626 1.125-4.699-.762 3.842 2.808-4.05-2.5 2.476 4.064-2.783-3.86.73 4.702-1.092-4.632-1.126 4.625.764-4.697-2.811 3.841 2.504-4.048-4.064 2.476 3.86-2.783-4.702.73 4.631-1.093-4.625-1.125 4.697.761-3.842-2.808 4.05 2.5-2.475-4.064 2.782 3.86-.73-4.701 1.095 4.632 1.123-4.623z" fill="#00f0f1" stroke="#00d2d2" stroke-width=".5"/><path d="M78.188 88a3.187 3.187 0 11-6.375 0 3.187 3.187 0 016.375 0z" opacity=".9"/><path d="M71.653 94.108c-.469.469-1.396.304-2.069-.37-.674-.673-.84-1.6-.37-2.069.469-.469 1.396-.304 2.069.37s.84 1.599.37 2.069z" fill="#fff" opacity=".7"/><path d="M81.809 86.326c-.702.703-2.404.142-3.8-1.255-1.396-1.396-1.958-3.097-1.255-3.8.703-.703 2.404-.142 3.8 1.255 1.396 1.396 1.957 3.098 1.255 3.8z" fill="#fff" opacity=".9"/><path d="M55.5 88c0 13.808 8.283 24.999 18.5 24.999S92.5 101.808 92.5 88c0-13.809-8.283-25.001-18.5-25.001S55.5 74.191 55.5 88zm5.741-.868c-.291-1.299-.374-2.626-.397-3.883 1.844.032 3.983-1.056 5.781-1.555 2.106-.586 6.819-1.29 10.3-.822 4.607.618 8.048 3.822 11.044 9 .004.006.013.004.018.009.008.032.022.063.029.094.29 1.188-.752 2.198-2.068 2.988-4.747.924-9.302 2.162-14.155 1.625-9.72-1.072-10.043-6.143-10.552-7.456z" fill="#daa488"/><path d="M75.005 100.952c9.299 1.281 17.73-4.324 18.83-12.528 1.101-8.205-5.541-15.895-14.842-17.18-9.301-1.28-17.729 4.326-18.829 12.53-1.1 8.203 5.54 15.89 14.841 17.178zM60.844 83.249c1.844.032 3.983-1.056 5.781-1.555 2.106-.586 6.819-1.29 10.3-.822 4.607.618 8.048 3.822 11.044 9 .004.006.013.004.018.009.008.032.022.063.029.094.29 1.188-.752 2.198-2.068 2.988-4.747.924-9.302 2.162-14.155 1.625-9.719-1.074-10.042-6.145-10.551-7.458-.292-1.297-.375-2.624-.398-3.881z" fill="url(#d)"/><path d="M61.241 87.132c-.291-1.299-.374-2.626-.397-3.883 1.844.032 3.983-1.056 5.781-1.555 2.106-.586 6.819-1.29 10.3-.822 4.607.618 8.048 3.822 11.044 9 .004.006.013.004.018.009.008.032.022.063.029.094.29 1.188-.752 2.198-2.068 2.988-4.747.924-9.302 2.162-14.155 1.625-9.72-1.072-10.043-6.143-10.552-7.456z" fill="url(#e)"/><path d="M76.428 75.952c3.311.503 6.572 2.172 9.612 4.298.65.455 1.396.972 2.57 1.622-.834-.189-1.614-.667-2.343-1.106.76.798 1.475 1.76 2.063 2.694-2.63-3.653-7.485-6.286-11.574-7.082-3.927-.765-10.991.142-16.17 3.104 4.72-3.424 11.731-4.155 15.842-3.53z" fill="#ac5f38"/><path d="M88.054 89.86a.09.09 0 01-.084-.043c-2.996-5.044-6.437-8.167-11.045-8.769-3.479-.456-8.192.23-10.3.801-1.867.505-4.106 1.641-5.996 1.518-1.754-.115-3.748-1.511-4.801-2.513 1.128.843 4.185 1.027 5.099.811-.282-.073-1.853-1.056-2.157-1.348.741.422 3.617.862 4.542.628-.265-.14-1.585-1.042-1.891-1.398.14.122 3.378.74 5.034.188 9.938-3.31 18.034-.452 21.862 9.95a.115.115 0 01-.011.105.126.126 0 01-.091.055l-.161.015zm-27.05-3.014c-.644 2.483 1.093 7.881 10.4 8.505 6.612.442 15.696-2.737 14.568-2.526-4.756.9-9.318 2.112-14.181 1.589-11.022-1.187-9.959-7.387-10.787-7.568z" fill="#210d34"/><path d="M123.075 80.872c-4.607.618-8.048 3.822-11.044 9-.004.006-.013.004-.018.009-.008.032-.022.063-.029.094-.29 1.188.752 2.198 2.068 2.988 4.747.924 9.302 2.162 14.155 1.625 9.719-1.074 10.042-6.145 10.551-7.458.291-1.299.374-2.626.397-3.883-1.844.032-3.983-1.056-5.781-1.555-2.105-.584-6.818-1.288-10.299-.82z" fill="url(#f)"/><path d="M133.5 88.001a8.5 8.5 0 11-17-.004 8.5 8.5 0 0117 .004z" fill="#00f0f1" stroke="#00c2c3" stroke-width=".5"/><path d="M120.059 91.974c1.24-.103.142-.434.142-.434-.613-.33-1.768-.838-1.768-1.305 0-1.461 2.002-1.84-.048-2.416-2.131-1.956 1.652-1.915 1.625-1.981-1.382-3.366.423-1.518 1.182-2.512 2.816-3.682.785.378 2.314 0 .555-.136-1.104-2.169.048-1.884.763.186.938.821.938.821.557-.109 1.428-.966 1.428-.966 1.061.32 1.806 1.828 1.478 1.546.521-.063 1.252-.313 1.821-.483 0 0 .1-.338.196-.046 1.3 3.77 4.652 3.499.791 4.589 0 0-.249 0 .542.627 3.84 3.065-2.978 2.117.638 3.527.148-.147-2.167 1.367-2.167 1.786 0 .711-1.477 2.576-2.757 1.842-.714-.409-.822.85-1.243.269-.823-1.138-2.468-.049-1.859-1.095.898-.737-.926.288-1.28.288-1.172 0 1.534-3.942 5.516-1.013 1.165.854-1.225-2.029.886-2.029.212.069.148-.739.148-.967-1.097-.214 1.97-.004 1.97-1.787.193.038.721-.496-2.316 0 0 0-.097-1.064-.048-1.256.156-.619 1.721-.422 1.28-1.063l-1.133-2.271c-3.645-.587-1.562-.953-3.84-.483-.108.535-4.881 2.811-4.729 3.866.142.994 2.996 1.328.295 3.092 4.048 7.753-2.991-.176-.05 1.738z" fill="#19feff"/><path d="M125 80.562l.242 6.222 2.604-5.656-2.158 5.84 4.571-4.228-4.229 4.57 5.842-2.157-5.655 2.604 6.222.242-6.222.242 5.655 2.604-5.842-2.157 4.229 4.57-4.571-4.228 2.158 5.84-2.604-5.656-.242 6.223-.242-6.222-2.605 5.656 2.157-5.84-4.57 4.228 4.229-4.57-5.842 2.157 5.654-2.604-6.219-.242 6.219-.242-5.654-2.604 5.842 2.157-4.229-4.57 4.57 4.228-2.157-5.84 2.605 5.656.242-6.223z" fill="#00f0f1" stroke="#00e1e2" stroke-width=".5"/><path d="M126.128 82.428l-.764 4.697 2.808-3.841-2.501 4.047 4.064-2.475-3.859 2.782 4.702-.73-4.632 1.093 4.626 1.125-4.699-.762 3.843 2.808-4.05-2.5 2.476 4.063-2.783-3.86.73 4.702-1.092-4.632-1.126 4.625.764-4.697-2.812 3.841 2.505-4.047-4.065 2.475 3.86-2.782-4.702.73 4.631-1.094-4.624-1.124 4.696.761-3.842-2.808 4.05 2.501-2.476-4.063 2.782 3.86-.73-4.702 1.095 4.632 1.125-4.625z" fill="#00f0f1" stroke="#00d2d2" stroke-width=".5"/><path d="M128.188 88a3.187 3.187 0 11-6.375 0 3.187 3.187 0 016.375 0z" opacity=".9"/><path d="M121.653 94.108c-.47.469-1.396.304-2.069-.369-.674-.673-.84-1.601-.369-2.07.469-.47 1.395-.304 2.068.369.673.674.839 1.601.37 2.07z" fill="#fff" opacity=".7"/><path d="M131.809 86.326c-.702.703-2.403.142-3.8-1.254-1.396-1.396-1.957-3.098-1.256-3.8.703-.703 2.405-.142 3.8 1.254 1.396 1.396 1.959 3.098 1.256 3.8z" fill="#fff" opacity=".9"/><path d="M126 62.999c-10.217 0-18.5 11.193-18.5 25.001 0 13.808 8.283 24.999 18.5 24.999S144.5 101.808 144.5 88c0-13.809-8.283-25.001-18.5-25.001zm2.208 31.59c-4.854.537-9.408-.702-14.155-1.625-1.316-.791-2.358-1.8-2.068-2.988.007-.032.021-.063.029-.094.005-.005.014-.003.018-.009 2.996-5.178 6.437-8.382 11.044-9 3.48-.468 8.193.236 10.3.822 1.798.499 3.938 1.587 5.781 1.555-.023 1.257-.106 2.583-.397 3.883-.51 1.312-.833 6.383-10.552 7.456z" fill="#daa488"/><path d="M139.836 83.774c-1.101-8.205-9.528-13.811-18.829-12.53-9.301 1.285-15.942 8.976-14.842 17.18 1.1 8.204 9.531 13.809 18.83 12.528 9.301-1.288 15.941-8.975 14.841-17.178zm-1.077 3.358c-.509 1.313-.832 6.384-10.551 7.458-4.854.537-9.408-.702-14.155-1.625-1.316-.791-2.358-1.8-2.068-2.988.007-.032.021-.063.029-.094.005-.005.014-.003.018-.009 2.996-5.178 6.437-8.382 11.044-9 3.48-.468 8.193.236 10.3.822 1.798.499 3.938 1.587 5.781 1.555-.024 1.255-.107 2.582-.398 3.881z" fill="url(#g)"/><path d="M138.759 87.132c.291-1.299.374-2.626.397-3.883-1.844.032-3.983-1.056-5.781-1.555-2.106-.586-6.819-1.29-10.3-.822-4.607.618-8.048 3.822-11.044 9-.004.006-.013.004-.018.009-.008.032-.022.063-.029.094-.29 1.188.752 2.198 2.068 2.988 4.747.924 9.302 2.162 14.155 1.625 9.72-1.072 10.043-6.143 10.552-7.456z" fill="url(#h)"/><path d="M123.572 75.952c-3.311.503-6.572 2.172-9.612 4.298-.65.455-1.396.972-2.57 1.622.834-.189 1.614-.667 2.343-1.106-.76.798-1.475 1.76-2.063 2.694 2.63-3.653 7.485-6.286 11.574-7.082 3.927-.765 10.991.142 16.17 3.104-4.72-3.424-11.731-4.155-15.842-3.53z" fill="#ac5f38"/><path d="M111.784 89.846a.123.123 0 01-.091-.055.118.118 0 01-.011-.105c3.828-10.402 11.925-13.26 21.862-9.95 1.656.552 4.895-.067 5.034-.188-.306.355-1.626 1.258-1.891 1.398.925.234 3.801-.206 4.542-.628-.305.292-1.875 1.275-2.157 1.348.914.216 3.971.032 5.099-.811-1.053 1.002-3.047 2.398-4.801 2.513-1.89.124-4.129-1.012-5.996-1.518-2.107-.571-6.82-1.256-10.3-.801-4.608.602-8.049 3.725-11.045 8.769a.09.09 0 01-.084.043l-.161-.015zm16.424 4.567c-4.862.523-9.425-.688-14.181-1.589-1.128-.211 7.956 2.969 14.568 2.526 9.308-.624 11.044-6.021 10.4-8.505-.827.182.236 6.382-10.787 7.568z" fill="#210d34"/><path d="M140.204 113.007c.035 22.275-17.995 40.365-40.273 40.396-22.274.036-40.361-17.993-40.396-40.272-.034-22.274 17.995-40.361 40.273-40.396 22.275-.034 40.363 17.995 40.396 40.272z" fill="url(#i)"/><path d="M135 55.999c0 19.329-15.671 35-35 35s-35-15.671-35-35 15.671-35 35-35 35 15.671 35 35z" fill="url(#j)"/><path d="M54.964 78.999c3.142-11.595 35.115-1.16 36.543-11.207.047-1.179-.552-1.884-2.627-.392-5.62 4.769-32.741-.712-33.916 11.599zm90.072 0c-3.181-11.738-35.1-1.047-36.543-11.207-.047-1.179.553-1.884 2.627-.392 5.617 4.767 32.741-.703 33.916 11.599z" fill="#b79675"/><path d="M93.787 116.99s1.319-.969 5.75-.969c5.24 0 6.685.759 6.685.759s-3.71 2.4-6.937 1.925c-2.772-.41-5.498-1.715-5.498-1.715z" fill="#cb8b6a"/><path d="M100.06 120.097c-1.181 0-2.382-.529-3.423-1.045-.423-.208-.838-.374-1.304-.461-.582-.109-1.656.086-2.085-.356-.457-.473-.085-1.217.54-1.244.771.012 1.551.067 2.298.267 1.309.35 2.427 1.254 3.814 1.366 1.051.084 2.219-.58 3.159-.977.738-.312 3.209-1.475 3.805-.457.369.629-.222 1.075-.789 1.107-.702.039-1.394.277-2.043.534-1.255.496-2.591 1.266-3.972 1.266z" fill="#bb744f"/><path d="M99.989 116.076c.556 0 1.853-.647 1.64-1.902-1.26-7.41-1.64-20.245-1.64-20.245s-.964 15.033-1.788 20.245c-.2 1.269 1.159 1.902 1.788 1.902z" fill="#f9dccd" opacity=".2"/><path d="M57.629 133.691c-6.612-3.867-29.401-70.178-20.907-93.456 8.577-23.509 59.988-6.272 63.479-5.339 5.216 1.394 57.592-6.205 59.595-1.426 15.27 36.439-.262 64.927-15.002 99.421 10.664 14.58-5.301 16.382-4.299 15.942 1.534-.672 3.152-2.714 2.253-4.937-1.435-3.541-9.337-2.81-.948-16.064 5.208-8.226 6.732-19.776 6.704-22.499-1.836 2.651-4.881 6.507-7.36 8.521 2.591-5.767 3.497-14.369 3.957-19.014.236-2.495.911-.171-5.716-9.971-4.734-7.01-10.655-17.373-14.39-27.647-2.289 7.581-.315 17.827 1.54 25.841-18.055-11.912-26.62-35.292-28.39-38.325.165 8.301 4.133 20.484 7.891 29.271-9.71-8.269-18.747-16.72-22.333-29.279-4.13 15.52-1.364 35.925 6.667 55.27-19.49-19.372-15.099-43.574-14.334-49.603-3.372 4.796-18.619 26.506-14.329 53.511-.994-1.937-2.046-5.675-2.942-7.781-4.324-2.457-6.563-4.633-9.199-7.761-.53 17.986 2.282 21.945 4.545 31.428 2.186 9.158 10.366 12.117 10.875 12.883 1.083 1.632 1.007 3.749-.197 5.525-1.391 2.051-4.354 2.473-6.022 4.591-2.175 2.761-.206 4.587 1.102 6.041 1.686 1.875-10 0-2.24-15.143z" fill="#b79675" opacity=".1"/><path d="M61.75 161.102c-2.981-2.862-6.501-7.189-6.797-11.334-3.167-1.262-4.874-3.618-4.569-6.304.455-4.001 3.883-5.615 5.786-10.632-6.844-4.002-11.052-10.324-13.432-17.465-19.063-18.333-17-55.181-8.208-79.279C43.406 11.752 69.174-6.6 94.468-6.6c4.017 0 7.888.49 11.502 1.456 5.399 1.443 1.841.187 9.986.187 14.863 0 29.215 6.956 37.447 18.154 3.812 5.183 6.447 10.941 8.521 15.889 7.763 18.525 9.767 32.241 7.654 52.414-2.904 27.719-11.465 32.103-12.689 34.706-2.408 5.098-5.998 10.588-10.273 14.284-.761.66-.814.695-.221 1.515 3.078 4.173 4.189 6.233 4.585 8.313 1.146 6.041-5.797 8.527-6.807 9.094l-.314.019c.824 8.229-.423 10.485-7.871 11.144 9.562-9.181-2.143-9.896 5.657-13.314 1.588-.694 3.564-1.559 2.633-3.86-1.484-3.663-9.665-2.908-.981-16.631 5.392-8.514 6.969-20.472 6.939-23.289-1.901 2.744-5.052 6.735-7.618 8.821 2.681-5.969 3.618-12.804 4.095-17.613.246-2.583.943-.177-5.915-10.322-4.902-7.256-11.029-16.949-14.896-27.585l-.979.136c-.603 7.955-.991 15.73.76 23.296C106.994 67.88 99.94 45.235 98.108 42.095c.17 8.593 2.145 19.269 6.034 28.366-10.051-8.559-16.24-14.763-19.953-27.764-4.275 16.066-3.942 33.111 4.371 53.136C68.388 75.779 75.511 54.06 76.302 47.82c-3.364 4.785-7.067 10.404-9.17 14.275-4.99 9.181-8.57 27.128-6.811 38.203a97.153 97.153 0 01-2.975-6.352c-4.477-2.544-6.793-4.797-9.523-8.034-.548 18.62 2.361 22.718 4.705 32.535 2.262 9.478 10.73 12.542 11.257 13.335 1.121 1.689 1.043 3.881-.204 5.72-1.44 2.123-4.506 2.562-6.233 4.752-2.252 2.858 1.259 4.932 2.613 6.438 1.745 1.94 1.19 3.583.656 5.17-.856 2.533-.577 3.45 1.133 7.24z" fill="#b79675"/><path d="M161.924 29.085c-.062-.147-6.606-10.937-6.669-11.085 9.52 18.403 12.946 48.244 8.745 67 0-12 1.119-27.515-4.893-39.076 2.421 14.992 3.554 29.455-2.236 41.624.939-15.687.108-34.531-10.277-48.315 1.946 8.449 2.892 15.427 1.912 27.012-1.62-8.098-5.73-13.827-12.693-20.603C139.813 55.642 138 60 139 71c-4-13-10.329-25.513-5.104-40.418C125.896 36.582 122 44 122 54c-6-10-7.131-18.808-5-33-8.692 11.971-5.677 25.533-1.965 38.886C107.418 48.284 102.262 36.513 101 22c-1.688 7.597-5.508 13.772-7.862 20.925C91.393 34.602 91 25.831 91 18c-.822 7.396-5.691 13.442-9.067 20.356A51.774 51.774 0 0185 26c-12.479 9.805-17.909 25.266-23.878 39.821.901-12.124 7.522-24.509 13.645-35.085C61 37.958 52 55 49 71c-4-16-3.059-33.616 3.07-49C38.07 36 40 58 36 76c-4.214-20.229 2.938-39.748 9.482-58.556-20.211 23.94-25.154 76.372-2.745 97.923 2.38 7.141 6.588 13.463 13.432 17.465-1.903 5.017-5.331 6.631-5.786 10.632-.305 2.686 1.402 5.042 4.569 6.304.296 4.145 3.816 8.472 6.797 11.334-1.709-3.79-1.989-4.707-1.133-7.24.535-1.587 1.089-3.229-.656-5.17-1.436-1.597-6.407-4.529-.608-8.125.647-2.882 4.153-6.311.648-7.566-10.881-5.015-16.631-40.015-12.229-44.641.011-.79.026-1.599.051-2.447 2.73 3.237 5.046 5.49 9.523 8.034a97.397 97.397 0 002.975 6.352c-1.523-9.588-1.806-16.874-1.162-22.47 1.154-10.04 9.484-22.401 17.144-30.008-1.853 14.888 3.415 33.161 10.997 44.832-6.189-16.326-7.171-34.835-2.542-52.236.343 5.191 9.116 17.557 18.385 27.045-1.077-2.52-.993-2.165-1.779-4.849-2.051-7.006-4.08-15.606-3.255-22.517 4.636 10.154 12.939 23.72 27.574 40.116-2.043-8.826-1.298-19.285-.087-28.317.915 5.381 21.176 41.105 22.296 39.515-.477 4.809-2.594 14.921-5.274 20.89 5.702-4.636 6.839-8.812 9.164-12.299.092 4.507.827 7.33.305 11.733-1.546 13.021-9.388 19.206-9.808 22.38C141.971 136.438 147 144 145 145c-1.945 1.945-4.358 3.184-6.215 4.745-.045 2 4.079 4.224-2.798 10.827 7.448-.658 8.695-2.915 7.871-11.144l.314-.019c1.01-.566 7.952-3.053 6.807-9.094-.396-2.079-1.507-4.14-4.585-8.313-.594-.819-.54-.854.221-1.515 4.275-3.696 7.865-9.187 10.273-14.284 1.225-2.604 9.785-6.987 12.689-34.706 2.113-20.17.11-33.886-7.653-52.412z" fill="#a8815a"/><path d="M116.331 15.911c27.883 5.279 38.779 28.461 38.74 56.792.282 3.033.108-47.454-38.74-56.792zM55.224 39.538c11.383-17.409 19.6-25.868 42.357-33.47-19.105 3.911-35.48 14.97-42.357 33.47zm60.231 21.895c1.223 1.665 1.982 2.651 1.837 2.452-8.13-12.431-12.066-37.167-6.56-50.214-7.004 13.72-3.298 34.038 4.723 47.762z" fill="#986e43"/><path d="M55.277 28.081C58.86 11.696 75.536 7.805 82.56 5.426c1-.311-22.404 6.052-27.283 22.655zM85.206-.777C79.816.898 65.448 3.824 60.107 14.188 65.867 4.612 87.224-1.345 85.206-.777zM48.44 66.409c2.135-12.675 6.822-27.444 17.719-34.26-16.886 8.726-17.96 35.26-17.719 34.26zm37.463-44.456c-1.513 1.412-8.565 3.983-12.548 15.405 4.6-9.922 13.548-16.159 12.548-15.405zm11.353 3.735c2.316-4.29 3.218-13.392 3.048-12.391-3.959 15.553-5.708 13.756-7.069 20.74 1.088-3.755 2.531-5.472 4.021-8.349zm10.357 13.632c-.023-.065-4.192-18.694-4.409-22.083-.372 9.836 4.666 23.083 4.409 22.083zm-7.415-29.695C82.971 14.02 78.703 19.02 71.132 27.032c9.904-8.704 18.596-14.071 29.066-17.407zm42.775.692c1.316.855 2.118 1.371 1.963 1.264C131.648 1.616 124.671-.495 107.07 3c14.569-1.913 23.371-.561 35.903 7.317zm5.208 18.84c-3.91-8.005-15.645-17.562-37.848-21.723 14.172 3.787 28.965 10.191 37.848 21.723zm-26.873 12.291a426.675 426.675 0 00-.208 4.025c2.366-15.428 3.443-14.75 6.214-17.704-4.751 3.386-5.727 7.914-6.006 13.679zm22.498 8.703c.316 2.253.466 4.354.465 4.164-.37-3.783 1.774-12.464-6.8-18.022 3.998 2.814 5.472 7.305 6.335 13.858zm4.447 51.129c.352-1.571 8.625-12.909 2.194-33.467 4.873 20.322-2.615 34.467-2.194 33.467zM33.111 86.875c.239 8.471 3.932 14.917 3.452 13.826-3.363-8.695-2.721-16.015-3.531-24.3.082 4.36-.032 8.352.079 10.474zm14.235 31.557c1.779 4.057 5.413 8.021 4.629 7.032-2.057-4.475-8.883-9.73-8.056-34.409-.023-1.896-.091-3.388-.115-4.061-.348 9.881-2.721 16.964 3.542 31.438zm104.472-.799c2.697-4.391 2.674-7.602 3.082-9.792.174-1 .752-9.81 1.549-11.164-2.245 4.041-1.724 17.068-4.631 20.956zm-4.846 27.395c.033-.082.514-.981.839-2.011 1.17-3.478-.008-6.069-1.493-6.983 3.435 3.245.119 10.105.654 8.994zm-92.295 1.392c.651 1.356 1.38 2.517 1.323 2.407-.06-.105-.626-1.371-1.083-2.734-2.345-6.632.589-8.037 1.549-9.037-3.596 2.343-3.684 5.551-1.789 9.364zM50.68 44.15c1.049-3.877 1.082-13.003 12.174-22.999C49.391 31.723 50.591 45.15 50.68 44.15zm-4.841 27.522c2.536 7.313 5.401 12.11 5.041 11.381-4.983-11.22-6.331-20.062-7.061-32.261-.088 6.848-.05 14.276 2.02 20.88z" fill="#c6ac93"/><path d="M162.39 28.89c-2.34-5.58-4.981-11.101-8.579-15.993-9.956-13.54-27.921-19.924-43.237-18.034-2.844.351-.772.494-4.474-.495-25.911-6.924-60.966 11.171-72.045 41.547-8.02 21.979-11.963 60.397 8.243 79.732 2.147 6.442 7.023 13.698 13.569 17.234-1.386 3.654-5.504 6.291-5.985 10.522-.367 3.22 1.829 5.617 4.884 6.832 0 0-.207 5.388 8.204 12.659-.676-2.535-2.872-5.17-2.181-7.887.454-1.786 1.905-4.034-.453-6.654-1.434-1.598-4.527-3.329-2.592-5.787 1.648-2.09 4.725-2.523 6.255-4.782 1.291-1.9 1.447-4.288.206-6.281-1.002-1.609-4.499-2.601-7.917-6.589-3.229-5.582-4.885-13.804-4.827-13.553-1.069-4.619-3.577-10.359-3.171-24.114 2.413 2.865 5.402 5.2 8.659 7.052 1.488 3.492 3.236 6.972 4.759 9.608-3.563-10.35.415-31.537 5.869-41.572 2.38-4.382 5.115-8.56 7.982-12.638-4.456 17.954-.244 34.771 14.438 48.198-8.866-20.063-9.707-38.563-5.789-53.299 4.031 14.112 15.203 22.396 21.296 27.69-4.063-8.899-6.776-18.665-6.971-28.479 5.402 14.943 15.374 29.721 27.947 37.51-2.1-7.947-1.667-16.252-1.053-24.368 3.575 9.837 9.111 19.053 14.951 27.695 6.811 10.073 6.06 7.634 5.83 9.988-.645 6.535-1.892 13.59-4.99 19.363a35.362 35.362 0 008.537-8.677c-.508 3.692-2.669 13.719-4.604 17.366-3.176 5.99-9.864 12.83-4.158 18.1.903.834 2.336 1.615 2.815 2.8 1.538 3.796-6.441 2.563-5.353 7.087.514 2.117 3.698 3.725-3.864 10.504 9.149-.515 10.656-2.949 9.769-11.801 5.477-1.64 7.765-5.732 7.115-9.155-.589-3.118-2.894-5.619-4.953-8.411-.603-.819-.697-.259 1.308-2.167 6.722-6.366 9.543-13.409 9.686-13.564 5.021-5.484 10.325-13.163 12.564-34.528 2.223-21.208-.365-35.183-7.69-52.659zm-3.816 83.878c1.661-5.271 2.03-10.921 2.794-16.366.896-6.387 1.843-10.166.44-17.234.565 5.189-.134 10.053-1.259 15.117-3.18 14.343-4.411 29.346-18.271 39.829a37.835 37.835 0 003.567-2.707c2 3.382 5.05 7.096 4.246 11.309-1.061 5.587-7.55 6.776-8.561 7.25.642-.309 1.411-.166 2.081-.385-.058 6.452-.738 9.236-6.829 10.548 7.247-6.441 2.124-8.645 3.333-10.931.601-.869 2.277-.854 3.177-1.268 2.404-1.096 3.169-4.17 1.593-6.247-.65-.857-1.505-1.529-2.274-2.273-5.171-4.993 3.805-12.551 5.271-19.341 4.563-21.111 1.171-13.085 4.276-18.594 11.841-20.99 13.175-45.767.97-72.153-5.279-11.41-10.628-14.715-20.317-20.93 4.786 3.485 9.736 6.784 13.518 11.421 7.229 8.865 11.533 28.412 12.177 33.916 2.722 23.318-4.577 45.709-13.428 55.394 6.54-16.273 5.033-42.682-8.518-62.19 8.791 14.386 11.366 31.02 9.932 44.338-.675-1.027-21.199-33.052-20.847-36.851.714-7.752 2.072-15.83 6.944-21.854-5.18 5.642-6.914 13.307-7.919 20.692-1.357 9.937-2.328 16.275.059 25.525-8.288-6.677-20.146-21.677-26.207-37.479.051-4.832.538-9.673 1.203-14.477-3.002 15.009-3.305 27.538 2.606 40.984-26.581-28.434-15.647-19.905-11.77-48.57-3.842 19.629-19.459 40.447-4.022 73.432-19.058-24.849-8.68-49.005-3.536-64.129-9.467 22.398-4.172 15.077-9.085 21.599-2.896 3.842-5.744 7.767-8.241 11.911-5.444 9.521-7.562 24.729-5.84 35.559C47.935 69.202 54.137 54.737 73.941 31c-26.047 27.183-25.675 42.21-17.62 61.786-21.693-14.969-19.012-57.08-.556-74.949-13.788 11.945-18.728 34.762-16.603 48.841 1.638 10.852 8.192 19.83 8.192 19.83-1.28 14.277 1.008 19.091 2.357 25.23.493 2.243 1.729 6.635 2.379 8.874 1.766 6.076 8.313 10.572 9.051 11.04 8.5 5.389-8.639 7.313-4.613 14.558 1.521 2.735 4.081 2.396 3.302 6.821-.301 1.711-.717 3.248-.094 4.936-1.451-1.892-4.611-5.343-4.459-8.239-8.529-7.013-.6-10.765.983-16.634 1.566.837 3.204 1.54 4.87 2.153-9.07-4.363-14.533-8.839-18.78-24.976-2.253-8.563-2.969-26.577-2.76-35.943-.838 10.653-1.098 30.079 2.091 39.621-16.431-17.284-13.2-48.36-6.951-71.432C44.655 5.873 82.039-11.93 107.514-4.642 101.25-3.344 97.435-1.283 92.32 2.602 108.736-8.911 128.94-5.2 142.166 4.05c27.444 19.184 33.252 86.083 16.408 108.718z" fill="#895c2f"/><path d="M91.69 89.23c-3.71 7.46-14.12 8.15-17.78 8.15H61.79c-5.75 0-10.86-7.99-10.86-14.29v-6.16c0-.23.11-.46.29-.7l40.47 13zm18.68-12.58c-2.07 1.43-3.39 3.35-3.39 5.92v.5c0 2.44.5 4.47 1.34 6.15 3.71 7.46 14.12 8.15 17.78 8.15h12.12c4.09 0 7.85-4.05 9.68-8.66l-37.53-12.06z" fill="#fff" opacity=".2"/><path d="M91.69 89.23L51.21 76.22c.99-1.32 4.4-2.7 6.15-2.91 2.18-.26 6.63-.69 11.94-.69 8.86 0 23.72 1.29 23.72 9.96v.5c0 2.44-.5 4.47-1.33 6.15zm57.38-6.15v-6.16c0-.23-.11-.46-.29-.7-.99-1.32-4.4-2.7-6.15-2.91-2.18-.26-6.63-.69-11.94-.69-6.23 0-15.41.64-20.33 4.03l37.53 12.06c.75-1.86 1.18-3.81 1.18-5.63z" fill="#fff" opacity=".4"/><path d="M149.73 78.68v-1.76c0-2.1-4.9-3.99-7.01-4.25-9.42-1.12-31.52-2.02-35.7 6.76-2.78-.92-5.88-1.28-7.02-1.29-1.14.01-4.24.37-7.02 1.29-4.17-8.77-26.27-7.88-35.7-6.76-2.11.25-7.01 2.14-7.01 4.25v1.76H45.5v2.36h4.77v2.04c0 6.3 5.15 14.94 11.51 14.94H73.9c8.33 0 19.76-3.13 19.76-14.94v-.5c0-.76-.1-1.46-.29-2.12 3.46-1.07 5.55-1.29 6.62-1.31 1.07.01 3.16.24 6.62 1.31-.19.66-.29 1.36-.29 2.12v.5c0 11.81 11.44 14.94 19.76 14.94h12.12c6.36 0 11.51-8.64 11.51-14.94v-2.04h4.77v-2.36h-4.75zm-56.87 4.4c0 13.11-14.5 14.13-18.95 14.13H61.79c-5.66 0-10.7-7.9-10.7-14.13v-6.16c0-1.31 4.09-3.18 6.29-3.44 2.17-.26 6.62-.69 11.92-.69 8.8 0 23.55 1.27 23.55 9.79v.5zm56.05 0c0 6.23-5.04 14.13-10.7 14.13h-12.12c-4.45 0-18.95-1.02-18.95-14.13v-.5c0-8.52 14.76-9.79 23.55-9.79 5.31 0 9.75.43 11.92.69 2.2.26 6.3 2.13 6.3 3.44v6.16z" fill="#9b6db6"/></svg>