<svg xmlns="http://www.w3.org/2000/svg" width="500" height="500" viewBox="0 0 200 200" overflow="hidden"><defs><radialGradient id="k" cx="100" cy="113" r="40" gradientUnits="userSpaceOnUse" class="svga-on-canvas-facehighlight-gradient-single-0"><stop stop-opacity=".5" stop-color="#fff" offset="0"/><stop stop-opacity="0" stop-color="#f6e4e2" offset=".9"/></radialGradient><radialGradient id="l" cx="100" cy="57" r="36" gradientUnits="userSpaceOnUse" class="svga-on-canvas-facehighlight-gradient-single-1"><stop stop-opacity=".5" stop-color="#fff" offset="0"/><stop stop-opacity="0" stop-color="#f6e4e2" offset=".9"/></radialGradient><radialGradient id="c" cx="125.187" cy="87.442" r="12.841" gradientTransform="matrix(-1.0592 .0004 -.0004 1.0589 206.511 -6.126)" gradientUnits="userSpaceOnUse" class="svga-on-canvas-eyesback-gradient-left-0"><stop stop-color="#fff" offset="0"/><stop stop-color="#fdfefe" offset=".544"/><stop stop-color="#f6f8f9" offset=".74"/><stop stop-color="#eaeff2" offset=".879"/><stop stop-color="#d9e3e8" offset=".992"/><stop stop-color="#d8e2e7" offset="1"/></radialGradient><radialGradient id="g" cx="125.187" cy="87.442" r="12.841" gradientTransform="matrix(1.0592 .0004 .0004 1.0589 -6.511 -6.126)" gradientUnits="userSpaceOnUse" class="svga-on-canvas-eyesback-gradient-right-0"><stop stop-color="#fff" offset="0"/><stop stop-color="#fdfefe" offset=".544"/><stop stop-color="#f6f8f9" offset=".74"/><stop stop-color="#eaeff2" offset=".879"/><stop stop-color="#d9e3e8" offset=".992"/><stop stop-color="#d8e2e7" offset="1"/></radialGradient><radialGradient id="e" cx="123.519" cy="84.391" fx="136.103" fy="84.426" r="17.898" gradientTransform="matrix(.9998 .0208 .0166 -.7998 -48.415 149.318)" gradientUnits="userSpaceOnUse" class="svga-on-canvas-eyesfront-gradient-left-3"><stop stop-color="#e7c1bd" offset="0"/><stop stop-opacity=".3" stop-color="#e7c1bd" offset=".7"/><stop stop-opacity="0" stop-color="#f6e4e2" offset="1"/></radialGradient><radialGradient id="f" cx="81.644" cy="80.739" r="21.259" gradientTransform="matrix(.6987 -.0371 .0367 .7092 13.865 40.094)" gradientUnits="userSpaceOnUse" class="svga-on-canvas-eyesfront-gradient-left-4"><stop stop-opacity="0" offset=".9"/><stop stop-opacity=".3" offset="1"/></radialGradient><radialGradient id="i" cx="123.519" cy="84.391" fx="136.103" fy="84.426" r="17.898" gradientTransform="matrix(-.9998 .0208 -.0166 -.7998 248.415 149.318)" gradientUnits="userSpaceOnUse" class="svga-on-canvas-eyesfront-gradient-right-3"><stop stop-color="#e7c1bd" offset="0"/><stop stop-opacity=".3" stop-color="#e7c1bd" offset=".7"/><stop stop-opacity="0" stop-color="#f6e4e2" offset="1"/></radialGradient><radialGradient id="j" cx="81.644" cy="80.739" r="21.259" gradientTransform="matrix(-.6987 -.0371 -.0367 .7092 186.135 40.094)" gradientUnits="userSpaceOnUse" class="svga-on-canvas-eyesfront-gradient-right-4"><stop stop-opacity="0" offset=".9"/><stop stop-opacity=".3" offset="1"/></radialGradient><linearGradient id="d" x1="130" y1="81" x2="126" y2="85" gradientTransform="translate(-50)" gradientUnits="userSpaceOnUse" class="svga-on-canvas-eyesiris-gradient-left-1"><stop stop-color="#fff" offset="0"/><stop stop-opacity="0" stop-color="#fff" offset="1"/></linearGradient><linearGradient id="h" x1="130" y1="81" x2="126" y2="85" gradientUnits="userSpaceOnUse" class="svga-on-canvas-eyesiris-gradient-right-1"><stop stop-color="#fff" offset="0"/><stop stop-opacity="0" stop-color="#fff" offset="1"/></linearGradient><linearGradient id="b" x1="100" y1="141" x2="100" y2="138" gradientUnits="userSpaceOnUse" class="svga-on-canvas-mouth-gradient-single-0"><stop stop-color="#eed2cf" offset=".1"/><stop stop-color="#e7c1bd" offset="1"/></linearGradient><linearGradient id="a" x1="99.98" y1="171.27" x2="99.98" y2="136.351" gradientUnits="userSpaceOnUse" class="svga-on-canvas-chinshadow-gradient-single-0"><stop stop-opacity=".8" stop-color="#e7c1bd" offset="0"/><stop stop-color="#c8837c" offset=".7"/></linearGradient></defs><path d="M225 225H-25V-25h250v250z" fill="#45ada8"/><path d="M137.635-25h14.142L225 48.224v14.142L137.635-25zM225 90.649V76.507L123.492-25H109.35L225 90.649zm0 28.285v-14.142L95.208-25H81.065L225 118.934zm0 28.285v-14.143L66.925-25H52.782L225 147.219zM225 225v-7.071L-17.929-25H-25v7.071L217.929 225H225zm0-219.204V-8.345L208.345-25h-14.142L225 5.796zm0 28.285V19.939L180.061-25h-14.142L225 34.081zm0 141.422V161.36L38.64-25H24.497L225 175.503zM222.487-25L225-22.487V-25h-2.513zM48.224 225h14.143L-25 137.635v14.142L48.224 225zm-28.286 0h14.143L-25 165.919v14.143L19.938 225zm-28.283 0H5.798L-25 194.203v14.143L-8.345 225zm84.852 0H90.65L-25 109.351v14.142L76.507 225zm-98.994 0L-25 222.487V225h2.513zm183.847 0h14.143L-25 24.497V38.64L161.36 225zm-56.568 0h14.142L-25 81.066v14.142L104.792 225zm84.853 0h14.142L-25-3.787v14.142L189.645 225zM225 203.787v-14.143L10.354-25h-14.14L225 203.787zM133.076 225h14.142L-25 52.782v14.142L133.076 225z" fill="#2f9e98"/><path d="M151.582 41.064l-99.508-5.662S27 218.282 27 223.998c0 0 100.899.72 143.907 0-.804-7.919-19.325-182.934-19.325-182.934z" fill="#be8f5f"/><path d="M190.858 199.866c-6.008-10.158-13.474-11.973-19.628-13.936-6.323-2.016-19.346-3.178-26.449-4.6-6.86-1.373-23.153-5.789-23.339-13.488-.192-8.066 4.291-40.09 4.291-40.09H74.005s4.487 32.023 4.294 40.09c-.184 7.699-16.48 12.115-23.341 13.488-7.104 1.422-20.125 2.584-26.448 4.6-6.156 1.963-13.624 3.777-19.632 13.936-3.644 6.16-6.008 16.133-6.008 27.133h194c-.001-11-2.361-20.973-6.012-27.133z" fill="#f6e4e2"/><path d="M121.442 167.843c2.495 10.929 18.165 13.698 26.293 15.325 21.909 4.379 33.772 5.134 42.297 19.539 2.903 4.916 5.459 15.864 5.962 24.153 1.835.291.531-17.432-5.136-26.994-9.742-16.472-29.089-15.135-46.077-18.535-6.86-1.373-23.153-5.789-23.339-13.488zm-42.884 0c-.186 7.699-16.479 12.115-23.339 13.488-16.988 3.4-36.335 2.063-46.077 18.535-5.667 9.563-6.971 27.285-5.136 26.994.503-8.289 3.059-19.237 5.962-24.153 8.524-14.405 20.388-15.16 42.297-19.539 8.128-1.627 23.798-4.397 26.293-15.325z" fill="#fff"/><path d="M51.206 189.513s28.641.299 33.473 1.885c2.314.758 8.372 5.633 8.372 5.633s-6.556-3.17-8.658-3.758c-4.883-1.364-33.187-3.76-33.187-3.76zm48.589 10.486c2.053-.041 7.887-3.799 7.887-3.799s-5.574 2.059-7.342 2.16c-1.491.086-6.366-1.238-6.366-1.238s4.138 2.91 5.821 2.877zm17.213-7.242c6.75-1.818 29.786-3.23 29.786-3.23s-23.791-.516-30.51 1.725c-2.252.752-7.562 5.16-7.562 5.16s6.064-3.058 8.286-3.655z" fill="#e7c1bd"/><path d="M190.858 199.866c-9.741-16.471-29.122-15.142-46.077-18.535-6.86-1.373-23.153-5.789-23.339-13.488-.192-8.066 4.291-40.09 4.291-40.09H74.005s4.487 32.023 4.294 40.09c-.184 7.699-16.48 12.115-23.341 13.488-7.104 1.422-20.125 2.584-26.448 4.6-6.156 1.963-13.624 3.777-19.632 13.936C5.234 206.027 2.87 216 2.87 227h194c-.001-11.001-2.361-20.974-6.012-27.134z" fill="none" stroke="#c8837c" stroke-width="1.5"/><path d="M100.002 171.27c11.208 0 16.588-3.813 20.938-7.778.582-8.897 2.669-24.918 3.646-32.155-14.784-1.753-34.708-1.742-49.43.032.971 7.183 3.024 22.934 3.628 31.864 4.401 4.057 9.767 8.037 21.218 8.037z" fill="url(#a)"/><path d="M1.21 226.811c-.09-1.096.089-6.144.169-7.69 1.305-24.199 9.403-29.321 42.489-39.116 15.99-4.732 20.453-6.269 26.144-18.359 1.614-3.43 3.009-6.393 6.011-7.444 15.289 8.429 28.472 8.16 47.416 1.143 3.516.491 4.597 4.978 5.414 8.217 5.254 20.016 37.606 15.497 52.146 23.753 15.091 7.44 15.778 32.33 15.631 39.781a.675.675 0 01.006.056c-19.631.831-170.956 1.234-195.426-.341z" fill="#5f8528"/><path d="M176.786 216.725c.847-10.266 1.101-18.312 4.157-27.83-4.426 14.753 1.476 26.354-7.266 34.423 1.097-2.637 2.839-3.32 3.109-6.593zM24 203c-1.608-3.938-3.672-7.405-4.444-13.604-.28.134-.394-.626-.666-.492 1.111 11.097 4.736 15.713 5.84 31.829-.174-5.776.804-13.975-.73-17.733zm97.459-46.726c-.581.144-1.164.78-1.75.899 8.181 7.474 2.813 10.296 14.771 23.422.333-.167 1.415-.766 2.718-1.523-7.879-4.461-9.65-15.535-15.739-22.798zM126 180c.447 1.342 1.101 2.482 1.859 3.603-.457.174-.908.362-1.37.522-2.363-3.073-4.632-6.134-6.139-12.489-1.558-6.561-.884-5.584-5.94-12.752.319-.045.954-.411 1.448-.491 4.785 6.63 6.75 13.975 10.142 21.607zm7.719 1.005c-.481.25-.969.488-1.457.725-6.715-7.001-9.364-15.664-13.832-23.789.307-.059.907-.818 1.188-.876 3.964 4.215 3.947 6.305 5.151 10.061 1.569 4.702 5.834 10.763 8.95 13.879zm-22.507-20.98c3.591 9.259 5.941 16.57 6.595 26.388-.469.085-.937.17-1.407.242-.65-5.13-1.491-10.462-1.739-11.689-.992-4.915-2.781-11.482-4.401-14.82.318-.033.634-.083.952-.121zm14.407 24.401c-.555.185-1.115.352-1.676.519-5.889-7.32-5.781-16.893-10.411-26.211.182-.025.465-.041.646-.068 5.14 8.711 3.5 6.198 5.83 15.03 1.221 4.617 3.743 8.768 5.611 10.73zm-10.11 2.359c-.369.053-.746.089-1.12.133-1.339-9.809-1.877-17.542-5.437-26.651.249-.022.499-.037.747-.062 3.223 7.918 4.532 19.147 5.81 26.58zm-24.428-26.421c-3.267 8.975-3.961 15.986-4.586 25.452-.369-.063-.742-.123-1.105-.191.281-8.057 1.408-18.063 4.9-25.33.263.027.527.045.791.069zm-15.692 22.53c-.419-.152-.842-.297-1.26-.458 5.056-6.227 7.374-16.511 7.99-24.521.332.081.663.15.995.226.239 9.451-3.2 16.69-7.725 24.753zm14.39-22.649c-4.003 7.147-5.299 17.074-5.13 25.23-.319-.063-.618-.137-.93-.203-.337-9.561.856-17.051 5.107-25.256.32.04.629.196.953.229zM66.165 179.01c-.527-.256-1.054-.51-1.576-.774 2.807-1.871 5.653-4.711 7.56-7.97 1.716-2.93 5.611-11.628 6.41-14.44.269.104.543.189.816.282-2.063 9.022-6.466 17.247-13.21 22.902zm7.344 3.195c-.559-.215-1.106-.456-1.661-.682 4.743-7.656 6.889-16.213 7.854-25.317.614.203 1.23 1.398 1.847 1.56-1.419 8.741-2.916 17.095-8.04 24.439zm4.72-26.5c-.65 1.82-1.54 3.55-2.45 5.311-2.167 4.379-4.345 11.597-11.83 16.88a78.31 78.31 0 01-1.618-.854c6.891-5.698 10.479-14.131 14.154-21.908.563.212 1.145.332 1.744.571z" fill="#4f7618"/><path d="M60.172 177.15l-1.928-1.29c-16.809 6.537-42.125 8.875-52 25.125-3.719 6.119-4.913 15.014-4.913 26.014 2.027-5.485.759-14.439 6.636-23.292 11.434-17.226 31.804-15.387 52.205-26.557zm129.861 26.557c5.067 9.34 4.608 17.807 6.636 23.292 0-11-2.281-19.354-4.913-26.014-7.483-18.933-33.191-16.791-50-23.328l-1.928 1.29c20.401 11.17 38.375 2.955 50.205 24.76z" fill="#70943b"/><path d="M181.049 187.226c-14.496-8.229-46.88-3.804-52.1-23.69-.653-2.542-1.702-7.762-5.53-8.29-.188.037-.761-.129-.76-.129-15.076 5.88-30.845 7.63-46.67-1.011-7.111 2.493-5.169 15.246-18.61 21.22-5.86 2.654-13.6 4.395-24.6 7.98-25.782 8.41-30.463 16.581-31.5 35.81-.073 1.41-.273 6.859-.16 7.79 27.119 1.767 181.426.968 195.61.34.01-.05.01-.1 0-.149.288-14.425-2.905-33.573-15.68-39.871zm-57.25-31.402c7.203 2.412-.831 13.455 15.84 21.791-2.201 1.354-4.629 2.715-5.159 2.98-11.958-13.126-6.443-15.043-14.173-23.123 1.432-.646 2.152-1.228 3.492-1.648zm-3.882 1.739c3.964 4.215 3.648 5.807 4.853 9.563 1.568 4.703 5.833 10.764 8.949 13.88a54.134 54.134 0 01-7.229 3.12c-2.363-3.073-4.408-6.164-6.039-12.489-1.438-5.573-.936-6.018-5.741-12.652.999-.142 3.631-1.099 5.207-1.422zm-5.639 1.5c5.14 8.711 3.4 5.8 5.73 14.632 1.22 4.618 3.742 8.769 5.61 10.73-3.01 1-6.1 1.75-9.22 2.229-.65-5.13-1.414-10.458-1.64-11.689-1-5.454-2.881-11.482-4.501-14.82 1.282-.129 2.752-.891 4.021-1.082zm-4.579 1.142c3.223 7.918 4.532 19.146 5.81 26.58-2.942.418-6.063.57-8.979.57-.001-.025-1.897-15.809-2.641-26.162 2.028-.3 4.16-.531 5.81-.988zm-6.31 1.008c.05 11.677.956 14.712 2.41 26.152-3.489.01-6.97-.149-10.459-.45 2.365-19.61 3.55-25.632 3.55-25.632 1.842 0 3.513-.037 4.499-.07zm-5.12.07c-2.776 15.35-3.252 19.064-3.58 25.572-3.189-.268-6.325-.668-9.3-1.23.281-8.057 1.408-18.063 4.9-25.33 2.65.27 5.32.978 7.98.988zm-8.49-1.038c-4.003 7.147-5.299 17.074-5.13 25.23-3.873-.771-7.202-1.758-10.52-3.04 5.056-6.227 7.374-16.511 7.99-24.521 2.523.616 5.191 1.784 7.66 2.331zm-8.23-2.479c-1.419 8.741-2.916 17.096-8.04 24.439a96.06 96.06 0 01-8.92-3.97c2.807-1.871 5.653-4.711 7.56-7.97 1.716-2.93 5.511-11.429 6.31-14.241.98.38 2.09 1.481 3.09 1.742zm-5.76-2.962c.77.471 1.49.761 2.34 1.101-.65 1.82-1.44 3.351-2.35 5.111-2.167 4.379-4.345 11.597-11.83 16.88-1.39-.71-2.77-1.46-4.12-2.25 11.579-6.242 9.623-17.968 15.96-20.842zm-74.23 71.851c.136-3.996.887-16.321 3.59-22.41 2.73-6.149 8-10.39 13.88-13.52-.402 9.421 4.184 10.589 4.5 21.85.09 3.41.56 6.76 1.13 10.12-.26-3.53-.37-7.03-.35-10.57.058-10.247-4.58-12.021-4.58-21.779 7.43-3.782 15.967-6.216 24.41-8.761 4.94-1.479 9.94-3.029 14.56-5.359 13.184 8.692 25.449 13.279 47.35 13.149 15.873 0 25.119-4.104 34.9-11.109 13.149 6.077 30.126 5.28 39.46 10.91-1.655 4.925-2.791 7.494-3.1 10.18-.715 6.32.347 10.814-.561 16.62-.53 3.37-3.12 5.85-3.82 9.16 2.036-6.202 5.709-3.93 5.261-18.551-.257-8.245.476-8.458 2.779-17.069 11.486 7.199 14.441 24.116 15.091 37.58-33.237-.219-181.394-.161-194.5-.441z" fill="#345700"/><path d="M100.002.867C66.384.919 39.082 28.09 39.134 61.564a60.48 60.48 0 002.002 15.382h.001c.013.054 11.543 37.969 14.021 50.423 1.382 6.945 9.796 13.203 17.265 18.313 6.967 4.767 10.529 13.588 27.58 13.588s20.613-8.821 27.58-13.588c7.468-5.109 15.883-11.367 17.265-18.313 2.479-12.454 14.009-50.37 14.02-50.423h.002a60.48 60.48 0 002.002-15.382C160.923 28.09 133.62.919 100.002.867z" fill="#f6e4e2"/><path d="M146.772 22.738c7.478 10.183 11.917 22.87 11.898 36.626a62.683 62.683 0 01-1.93 15.382h-.002c-.011.053-11.124 37.969-13.512 50.423-1.335 6.945-9.471 13.203-16.668 18.313-6.718 4.767-10.121 13.588-26.557 13.588-16.434 0-19.842-8.821-26.557-13.588-7.197-5.109-15.335-11.367-16.665-18.313-2.391-12.454-13.504-50.37-13.515-50.423a62.635 62.635 0 01-1.931-15.382c-.021-13.752 4.416-26.435 11.889-36.617C44.41 33.272 39.11 46.803 39.133 61.564a60.48 60.48 0 002.002 15.382h.001c.014.054 11.544 37.969 14.022 50.423 1.382 6.945 9.796 13.203 17.265 18.313 6.967 4.767 10.529 13.588 27.58 13.588s20.613-8.821 27.58-13.588c7.468-5.109 15.883-11.367 17.265-18.313 2.479-12.454 14.009-50.37 14.02-50.423h.002a60.48 60.48 0 002.002-15.382c.022-14.765-5.283-28.3-14.1-38.826z" fill="#eed2cf"/><path d="M100.002.867C66.384.919 39.082 28.09 39.134 61.564a60.48 60.48 0 002.002 15.382h.001c.013.054 11.543 37.969 14.021 50.423 1.382 6.945 9.796 13.203 17.265 18.313 6.967 4.767 10.529 13.588 27.58 13.588s20.613-8.821 27.58-13.588c7.468-5.109 15.883-11.367 17.265-18.313 2.479-12.454 14.009-50.37 14.02-50.423h.002a60.48 60.48 0 002.002-15.382C160.923 28.09 133.62.919 100.002.867z" fill="none" stroke="#c8837c" stroke-width="1.5"/><path d="M100.091 139.322c-4.952 0-6.142-3.033-6.142-3.033 6.246 2.316 11.836-.124 11.836-.124s-1.339 3.157-5.694 3.157z" fill="url(#b)"/><path d="M85.595 129.671c2.677-.132 7.545-1.077 10.096-.988 1.319.046 2.63.953 4.007 1.242.958.202 3.935-1.1 4.915-1.162 2.572-.162 7.409.744 9.771.92.13.011 0 0 0 0s-5.776 7.727-14.463 7.725c-9.831-.002-14.326-7.737-14.326-7.737s-.132.007 0 0z" fill="#92002a" stroke="#830026" stroke-width=".75"/><path d="M114.739 129.405c-.045-.131-.461-.189-.624-.139-.3.094-.663.521-1.313.686-.748.191-5.021 1.431-6.193 1.49-2.365.118-4.438.943-6.76.938-2.323-.005-4.34-.929-6.716-1.058-1.18-.065-5.194-1.216-5.947-1.4-.65-.16-.89-.574-1.162-.686-.189-.077-.652-.02-.743.105-.079.107.088.609.2.75.271.336 1.103.506 1.667.647.779.199 4.759 1.366 5.949 1.433 2.305.13 4.308 1.125 6.612 1.127 2.306.003 4.405-.904 6.729-1.022 1.195-.062 5.53-1.313 6.332-1.513.58-.146 1.388-.399 1.672-.68.138-.133.343-.545.297-.678z" fill="#64001d"/><path d="M99.799 136.138c-3.914 0-7.707-1.246-10.289-3.693 1.36.19 2.83.207 4.269.403 1.773.242 3.429.921 5.248 1.034 1.968.125 3.916-.495 5.886-.841 1.644-.289 4.21-1.067 5.742-1.302-2.926 2.243-7.078 4.399-10.856 4.399zm5.457-5.095c1.49-.149 3.855-.879 5.226-1.04-1.406-.413-3.829-.279-5.576-.441-1.506-.139-3.244.861-4.817 1.016-1.774.175-2.94-1.233-4.607-1.369-1.809-.147-3.787.559-5.336.915 1.387.188 2.877.239 4.309.517 1.753.341 3.405.992 5.223 1.054 1.859.062 3.741-.469 5.578-.652z" fill="#a1103a"/><path d="M105.695 133.406c-.308.01-.625.025-.93.051a9.427 9.427 0 00-.961.123c-.538.099-1.074.233-1.638.369-.888.216-1.726.392-2.662.391-.15 0-.301-.007-.452-.017a10.715 10.715 0 01-2.191-.412c-.693-.204-1.353-.401-2.019-.492-.128-.017-.259-.029-.387-.042a20.669 20.669 0 00-1.255-.063c1.734 1.396 4.128 2.038 6.468 2.041 2.411.001 4.278-.843 6.027-1.949z" fill="#b1234c"/><path d="M60.606 84.841c9.825-9.869 20.004-8.215 25.751-1.317a8.05 8.05 0 01.875 4.343c-.187 2.243-2.023 4.452-2.862 4.886a18.776 18.776 0 01-7.547 2.09c-1.004.057-1.597.079-2.459 0-1.709-.157-3.145-.513-4.85-1.213-2.795-1.148-5.434-3.113-7.677-6.048-.033-.042-.081-.067-.132-.068s-.1.022-.134.062l-.089.108a.195.195 0 00-.021.211 10.298 10.298 0 01-.673-1.036l.018.01c-.462-.834-.441-1.676-.2-2.028z" fill="url(#c)"/><path d="M83.199 88.75c-1.231 4.522-5.896 7.187-10.429 5.944-4.528-1.241-7.203-5.918-5.97-10.442 1.23-4.526 5.905-7.19 10.434-5.947 4.527 1.24 7.199 5.918 5.965 10.445z" fill="#9fae70" stroke="#6c802c" stroke-width=".75"/><path d="M81.682 85.121c-.806 1.237-2.884 1.31-4.641.166-1.756-1.145-2.527-3.075-1.722-4.311.806-1.235 2.884-1.31 4.641-.166 1.755 1.146 2.525 3.077 1.722 4.311z" fill="url(#d)" opacity=".5" transform="translate(0 -.5)"/><path d="M55.5 87c0 13.808 8.283 24.999 18.5 24.999S92.5 100.808 92.5 87c0-13.809-8.283-25.001-18.5-25.001S55.5 73.191 55.5 87zm5.29-.14l.018.01c-.464-.835-.442-1.677-.201-2.029 9.825-9.869 20.004-8.215 25.751-1.317a8.05 8.05 0 01.875 4.343c-.187 2.243-2.023 4.452-2.862 4.886a18.776 18.776 0 01-7.547 2.09c-1.004.057-1.597.079-2.459 0-1.709-.157-3.145-.513-4.85-1.213-2.795-1.148-5.434-3.113-7.677-6.048-.033-.042-.081-.067-.132-.068s-.1.022-.134.062l-.089.108a.195.195 0 00-.021.211 10.45 10.45 0 01-.672-1.035z" fill="#f6e4e2"/><path d="M59.397 85.083c.023 8.56 7.646 15.459 17.038 15.416 9.389-.049 16.985-7.022 16.961-15.583-.023-8.562-7.647-15.463-17.04-15.417-9.391.05-16.983 7.023-16.959 15.584zm1.393 1.777l.018.01c-.464-.835-.442-1.677-.201-2.029 9.825-9.869 20.004-8.215 25.751-1.317a8.05 8.05 0 01.875 4.343c-.187 2.243-2.023 4.452-2.862 4.886a18.776 18.776 0 01-7.547 2.09c-1.004.057-1.597.079-2.459 0-1.709-.157-3.145-.513-4.85-1.213-2.795-1.148-5.434-3.113-7.677-6.048-.033-.042-.081-.067-.132-.068s-.1.022-.134.062l-.089.108a.195.195 0 00-.021.211 10.45 10.45 0 01-.672-1.035z" fill="url(#e)"/><path d="M86.366 83.544a8.059 8.059 0 01.866 4.323c-.187 2.243-2.023 4.452-2.862 4.886a18.776 18.776 0 01-7.547 2.09c-1.004.057-1.597.079-2.459 0-1.709-.157-3.145-.513-4.85-1.213-2.795-1.148-5.434-3.113-7.677-6.048-.033-.042-.081-.067-.132-.068s-.1.022-.134.062l-.089.108a.195.195 0 00-.021.211 10.298 10.298 0 01-.673-1.036l.018.01c-.464-.835-.442-1.677-.201-2.029 5.075-5.098 10.243-7.115 14.848-6.929 4.335.36 8.186 2.454 10.913 5.633z" fill="url(#f)"/><path d="M88.72 80.246c-10.614-5.735-17.602-6.912-29.764.871 5.904-4.377 15.198-10.215 29.764-.871z" fill="#c8837c"/><path d="M83.382 93.339l.818.22-2.012.25 1.579.635s-2.043-.21-2.587-.084c-6.677 1.549-13.526.203-17.381-3.689-.484-.149-1.645.105-1.645.105l1.156-.609c-.339-.63-.965-.497-2.986-.403.95-.306 1.928-.601 1.85-.834l-.707-1.09a.184.184 0 01.016-.221l.089-.102a.172.172 0 01.265.004c6.175 7.677 15.34 8.45 22.533 4.914l-.988.904zm4.931-10.617c-1.012-.981-1.752-1.504-2.806-2.059.774-.323 1.857-.513 1.857-.513l-3.095-.377c-6.089-3.332-9.937-3.585-16.336-1.394-.797.273-2.852-.338-4.646-.939l2.033 1.955c-1.244.038-2.207-.3-3.541-.559l2.2 1.259c-.95.699-1.94.65-4.954.562l2.444 1.316c-1.067.404-1.521.275-2.982-.047.489.504.92.862 1.498 1.162-.785.05-1.807.152-3.175-.278.675.699 1.281 1.296 1.756 1.469l-1.07.44 1.516.559-1.053.655c1.203.046 1.836.305 2.849.916-.464-.793-.442-1.594-.201-1.928 10.473-9.996 21.35-7.552 26.829.108l-.736-1.344 1.354 1.279-1.242-1.732 1.12.596-1.074-1.522 1.455.416z" fill="#131111"/><path d="M139.394 84.841c-9.825-9.869-20.004-8.215-25.751-1.317a8.05 8.05 0 00-.875 4.343c.187 2.243 2.023 4.452 2.862 4.886a18.776 18.776 0 007.547 2.09c1.004.057 1.597.079 2.459 0 1.709-.157 3.145-.513 4.85-1.213 2.795-1.148 5.434-3.113 7.677-6.048.033-.042.081-.067.132-.068s.1.022.134.062l.089.108c.05.06.054.142.021.211.252-.344.478-.689.673-1.036l-.018.01c.462-.834.441-1.676.2-2.028z" fill="url(#g)"/><path d="M133.199 88.75c-1.231 4.522-5.896 7.187-10.429 5.944-4.528-1.241-7.203-5.918-5.97-10.442 1.23-4.526 5.905-7.19 10.434-5.947 4.527 1.24 7.199 5.918 5.965 10.445z" fill="#9fae70" stroke="#6c802c" stroke-width=".75"/><path d="M131.682 85.121c-.806 1.237-2.884 1.31-4.641.166-1.756-1.145-2.527-3.075-1.722-4.311.806-1.235 2.884-1.31 4.641-.166 1.755 1.146 2.525 3.077 1.722 4.311z" fill="url(#h)" opacity=".5" transform="translate(0 -.5)"/><path d="M126 61.999c-10.217 0-18.5 11.192-18.5 25.001 0 13.808 8.283 24.999 18.5 24.999S144.5 100.808 144.5 87c0-13.809-8.283-25.001-18.5-25.001zm12.537 25.897a.195.195 0 00-.021-.211l-.089-.108c-.034-.04-.083-.063-.134-.062s-.099.026-.132.068c-2.243 2.935-4.882 4.9-7.677 6.048-1.705.701-3.141 1.056-4.85 1.213-.862.08-1.455.058-2.459 0a18.776 18.776 0 01-7.547-2.09c-.839-.434-2.676-2.643-2.862-4.886a8.05 8.05 0 01.875-4.343c5.747-6.898 15.926-8.551 25.751 1.317.241.352.263 1.194-.201 2.029l.018-.01c-.194.346-.42.69-.672 1.035z" fill="#f6e4e2"/><path d="M123.644 69.499c-9.393-.045-17.017 6.856-17.04 15.417-.024 8.56 7.572 15.533 16.961 15.583 9.392.043 17.015-6.856 17.038-15.416.024-8.561-7.568-15.534-16.959-15.584zm14.893 18.397a.195.195 0 00-.021-.211l-.089-.108c-.034-.04-.083-.063-.134-.062s-.099.026-.132.068c-2.243 2.935-4.882 4.9-7.677 6.048-1.705.701-3.141 1.056-4.85 1.213-.862.08-1.455.058-2.459 0a18.776 18.776 0 01-7.547-2.09c-.839-.434-2.676-2.643-2.862-4.886a8.05 8.05 0 01.875-4.343c5.747-6.898 15.926-8.551 25.751 1.317.241.352.263 1.194-.201 2.029l.018-.01c-.194.346-.42.69-.672 1.035z" fill="url(#i)"/><path d="M113.634 83.544a8.059 8.059 0 00-.866 4.323c.187 2.243 2.023 4.452 2.862 4.886a18.776 18.776 0 007.547 2.09c1.004.057 1.597.079 2.459 0 1.709-.157 3.145-.513 4.85-1.213 2.795-1.148 5.434-3.113 7.677-6.048.033-.042.081-.067.132-.068s.1.022.134.062l.089.108c.05.06.054.142.021.211.252-.344.478-.689.673-1.036l-.018.01c.464-.835.442-1.677.201-2.029-5.075-5.098-10.243-7.115-14.848-6.929-4.335.36-8.186 2.454-10.913 5.633z" fill="url(#j)"/><path d="M111.28 80.246c10.614-5.735 17.602-6.912 29.764.871-5.904-4.377-15.198-10.215-29.764-.871z" fill="#c8837c"/><path d="M115.63 92.437c7.193 3.537 16.358 2.764 22.533-4.914a.172.172 0 01.265-.004l.089.102a.184.184 0 01.016.221l-.707 1.09c-.078.233.899.528 1.85.834-2.021-.094-2.647-.227-2.986.403l1.156.609s-1.16-.254-1.645-.105c-3.854 3.892-10.704 5.238-17.381 3.689-.544-.126-2.587.084-2.587.084l1.579-.635-2.012-.25.818-.22-.988-.904zm-2.486-10.134l-1.074 1.522 1.12-.596-1.242 1.732 1.354-1.279-.736 1.344c5.479-7.66 16.356-10.104 26.829-.108.241.334.263 1.135-.201 1.928 1.013-.61 1.646-.87 2.849-.916l-1.053-.655 1.516-.559-1.07-.44c.475-.172 1.081-.77 1.756-1.469-1.368.43-2.39.328-3.175.278.578-.299 1.009-.657 1.498-1.162-1.461.322-1.915.452-2.982.047l2.444-1.316c-3.014.088-4.004.137-4.954-.562l2.2-1.259c-1.334.259-2.297.597-3.541.559l2.033-1.955c-1.795.601-3.85 1.212-4.646.939-6.399-2.191-10.247-1.938-16.336 1.394l-3.095.377s1.083.19 1.857.513c-1.054.554-1.794 1.077-2.806 2.059l1.455-.416z" fill="#131111"/><path d="M140.204 113.007c.035 22.275-17.995 40.365-40.273 40.396-22.274.036-40.361-17.993-40.396-40.272-.034-22.274 17.995-40.361 40.273-40.396 22.275-.034 40.363 17.995 40.396 40.272z" fill="url(#k)"/><path d="M135 55.999c0 19.329-15.671 35-35 35s-35-15.671-35-35 15.671-35 35-35 35 15.671 35 35z" fill="url(#l)"/><path d="M54 73.189c9.954-9.974 16.761-4.714 30.589-2.063.845.162 6.32.337 5.31 2.268-.483.924-2.036.814-2.903.798-13.688-.256-20.344-9.995-32.996-1.003zm90.519.305c-12.071-9.095-19.137.037-31.727.388-4.076.116-3.813-2.101-2.078-2.451 2.014-.407 2.563.033 8.451-1.382 11.342-2.725 17.181-5.221 25.354 3.445z" fill="#ddbc9b"/><path d="M92.281 116.235c-.745 2.063 5.028 4.289 7.218 4.426 2.374.147 9.024-2.899 7.896-4.991-1.185-2.197-5.63-.286-7.547-.286-1.908 0-6.572-1.905-7.567.851z" fill="#e7c1bd"/><path d="M102.207 117.221c-.243-.522 1.194-1.333 1.748-1.493.777-.226 2.505.238 2.438.831-.06.521-1.603-.169-2.105-.022-.521.15-1.853 1.175-2.081.684zm-6.993-.479c.706 0 1.753.457 1.945.057.229-.479-1.56-1.065-2.086-1-.434.052-1.991.958-1.777 1.338.2.353.988-.395 1.918-.395z" fill="#c8837c"/><path d="M99.857 113.479c.669 0 1.807-.637 1.978-1.9.754-5.575-.521-20.246-1.978-20.246-1.365 0-2.508 15.024-2.155 20.246.087 1.281 1.397 1.9 2.155 1.9" fill="#fff" opacity=".2"/><path d="M60.35 193.688c1.158-14.492.475-21.283-.77-33.608-2.595-25.694-3.31-42.128-4.043-68.959-.316-11.197-.641-22.776 3.313-33.606 3.554-10.115 11.301-18.694 20.722-22.95 7.624-3.447 14.646-3.392 22.43-3.392 9.351 0 15.884.73 21.614 4.47 16.191 10.58 17.635 25.628 19.629 46.457 2.178 22.685 1.116 25.168 1.134 46.728.03 49.463-3.013 57.144 2.977 99.22 6.649.343 26.664-167.79 4.624-195.021-12.594-15.575-87.972-7.296-98.007-.403-16.856 11.572 1.878 194.396 1.878 194.396.044-1.644 4.237-30.191 4.499-33.332z" fill="#ddbc9b" opacity=".1"/><path d="M58.48 202.358c1.212-15.154.495-22.254-.806-35.143-2.714-26.865-3.462-44.05-4.228-72.104-.33-11.708-.671-23.814 3.464-35.139 3.719-10.576 11.822-19.547 21.678-23.997 7.975-3.604 15.32-3.547 23.465-3.547 9.779 0 16.612.765 22.609 4.675 16.939 11.062 18.443 26.796 20.532 48.575 2.279 23.72 1.17 26.316 1.183 48.859.037 51.718-3.554 59.332 2.714 103.329 6.955.357 27.631 1.225 34.401.728 5.637-57.613-7.946-77.721-10.325-127.722-1.139-24.668-2.271-67.687-25.324-96.161-13.178-16.284-28.763-20.97-46.042-16.865-13.249-2.351-26.041.816-36.538 8.025C47.63 17.97 32.909 43.054 31.021 64.217c-2.411 27.16 2.334 39.43-2.501 66.618-5.761 32.415-14.864 57.097-10.235 104.528 5.256.388 35.999 1.845 35.999 1.845.044-1.717 3.922-31.565 4.196-34.85z" fill="#ddbc9b"/><path d="M156.514 238.203a749.525 749.525 0 01-7.423-.337c-6.268-43.997-2.677-51.611-2.714-103.329-.013-22.543 1.097-25.14-1.183-48.859-2.089-21.778-3.593-37.513-20.532-48.575-10.166-6.63-35.575-5.874-46.074-1.127-9.855 4.45-17.959 13.421-21.678 23.997-4.136 11.325-3.794 23.431-3.464 35.139.766 28.055 1.514 45.239 4.228 72.104 1.301 12.889 2.019 19.988.806 35.143-.274 3.284-4.152 33.133-4.197 34.85 0 0-3.401-.161-8.125-.391.354-11.398 5.847-22.797 6.771-34.195 1.944-48-11.669-94-.972-143 2.916-12 7.778-22 18.475-28 9.207-5.261 26.281-6.583 32.057-2.817.096-.611.196-1.222.289-1.869 1.514-8.9-1.219-12.378 1.395-18.231-2.012 5.547.221 9.073-.122 15.242-.069 1.079-.416 2.695-.861 4.65 6.292-2.681 20.152-1.896 26.556 3.025 33.178 25.495 17.501 112 22.364 169 .657 12.882 2.817 25.305 4.404 37.58zM53.269 39.909C60.691 29.864 72.2 20.585 84.275 18.63c2.96-.479 5.707-.608 5.531-.598-12.228.414-22.794 4.548-32.017 14.768-10.917 11.709-10.418 21.832-10.468 24.223.411-6.192 1.187-9.584 5.948-17.114zm56.48-18.005c1.317-.368 4.279-1.342 8.201-1.098 15.563.723 34.484 18.312 36.685 42.554.576 5.964 1.216 24.332.4 10.625-.497-8.323-1.369-12.445-2.197-16.1-4.167-18.454-23.161-40.319-41.44-36.366l-1.649.385zm-67.551 64.44c.791 27.147 2.753 45.85 2.237 58.753-1.471 16.183-3.123 29.451-3.123 29.451-.03.413.08-1.676.305-5.11 2.487-35.28.097-40.141.581-83.094zm114.619 1.777c.417 7.484 2.223 39.41 2.494 46.176.227 5.292.263 40.677.381 42.338.028.59-2.09-28.29-2.875-88.514zm7.689 9.191c.925 14.561 6.923 72.884 14.438 100.406.145.453-.622-1.821-1.851-5.594-9.436-30.896-11.508-63.088-12.587-94.812zM38.992 117.395c-1.623 6.133-.24 9.802-.187 15.916-.286 14.263-5.243 30.714-7.033 38.957-2.097 8.726-2.847 32.982-2.842 33.984-.033 1-.85-26.039 3.125-42.239 10.377-40.344 3.92-29.618 6.383-44.87l.554-1.748zM106.508 6.016c4.76-1.002 3.222-.752 7.014-1.173 16.098-1.667 26.966 10.983 29.381 12.878.138.13-.571-.515-1.729-1.582-14.461-11.863-23.675-12.031-34.666-10.123zM57.182 29.987c6.694-6.878 14.555-16.267 30.61-16.92 6.169-.293 9.09 1.436 10.062 1.682 0 0-8.626-4.578-25.444 3.183-5.418 2.36-11.492 8.513-15.228 12.055z" fill="#cea57c"/><path d="M184.627 202.31c-11.808-41.571-15.057-85.129-18.904-128.688C162.57 45.25 150.72 12.341 124.607.869c-2.839-1.247-27.424-2.821-39.59.753-41.812 10-53.492 58.916-50.563 100 2.212 31.021-9.32 67.609-17.325 101.74.902-28.354 7.081-48.278 11.391-72.527 4.835-27.188.09-39.458 2.501-66.618C32.909 43.054 47.63 17.97 65.263 5.871 75.76-1.338 88.552-4.505 101.801-2.154c12.718-3.021 24.514-1.269 35.107 6.351l.072.015c3.741 2.716 7.431 6.261 10.862 10.499 23.054 28.474 24.186 71.492 25.324 96.161 1.801 37.861 10.022 58.594 11.461 91.438zM55.419 27.308c-5.997 7.544-2.415 2.772 3.69-3.506C76.943 7.338 88.264 6.365 98.295 8.659c-16.823-4.635-31.689 5.115-42.876 18.649zm56.56-15.875c11.421-3.929 25.295-1.496 39.866 21.474 10.844 18.168 10.938 40.817 11.57 43.92.059.443-.307-1.789-.794-5.48-1.308-8.44-3.563-29.778-22.548-51.36-5.037-5.814-15.937-12.133-28.094-8.554zm45.726 54.777c3.031 29.726 4.887 72.826 4.887 72.826.056.683-.711-6.873-1.462-15.11-2.772-30.191-1.477-26.587-3.425-57.716zm-3.146 70.192c.332 21.587.059 17.159 2.332 48.097 1.977 16.713 2.607 19.68-.461 1.053-2.809-17.859-2.317-30.294-1.871-49.15zm9.739 7.712c3.975 29.918 3.572 29.703 4.521 45.704 1.172 16.188 1.584 18.725-.499.988-1.233-9.929-1.902-23.531-4.022-46.692zM48.856 38.604C42.754 50.786 41.06 60.74 39.84 74.385c-1.997 19.679-.178 21.159-1.365 34.119-.013.167.007-.172.046-.899.469-16.338-3.947-43.111 10.335-69.001zm11.241-1.524c-6.143 5.974-9.404 17.112-11.477 25.781-4.44 19.145-2.167 83.919-3.542 36.666-.629-17.744-1.211-32.394 7.84-52.141 1.955-4.285 4.054-7.627 7.179-10.306zM46.554 137.29c.157 11.389 1.336 12.657 2.418 25.876 1.28 12.79-2.299 33.213-2.422 35.392-.194 1.541 2.623-23.021 1.202-40.579-1.491-16.409-1.378-13.293-1.198-20.689zm-6.621 15.381c-2.873 11.796-1.906 13.18-5.192 60.408-.074 1-.283-41.191 5.192-60.408zm26.83-122.69c.972-.551 14.882-11.058 28.83-6.116 1.283.413 2.125.836 2.276.867.972.387-5.218-2.399-11.905-1.512-10.192.905-17.581 5.911-19.201 6.761zm39.805-10.827c2.092-.977 4.102-2.125 9.005-2.732 13.841-1.694 22.483 9.902 23.455 10.708.943 1.03-4.335-5.62-12.846-8.638-1.473-.502-.018-.072-2.558-.81-.412-.144-2.072-.543-3.782-.742-5.807-.537-8.548.245-13.274 2.214z" fill="#ecd5bd"/><path d="M173.267 110.867c-1.178-24.84-2.121-67.53-25.351-96.22-14.129-17.46-30.241-20.7-46.099-16.9-12.067-2.14-25.018.08-36.609 8.04-17.327 11.89-32.358 36.84-34.284 58.42-2.411 27.17 2.334 39.43-2.498 66.61-6.068 34.13-14.509 55.09-10.288 104.04l.058.6c.097.011.185.011.283.021 10.501.59 22.606 1.229 35.567 1.82.078 0 .156 0 .234.01 30.221 1.37 65.079 2.5 95.039 2.35a.677.677 0 01.201 0c12.37-.08 23.902-.37 33.927-.96.047 0 .097-.01.137-.01.029-.3.056-.6.085-.89 5.581-56.061-8.041-77.24-10.402-126.931zM54.416 236.268c1.536-12.28 4.005-32.04 4.161-33.9 2.44-30.52-3.004-29.06-4.958-104.48-.33-12.77-1.069-25.69 3.383-37.88 3.695-10.51 11.659-19.44 21.626-23.94 4.336-1.96 8.955-2.93 13.65-3.39 15.722-.35 24.649-.5 32.33 4.51 16.568 10.82 18.312 25.76 20.487 48.5 2.284 23.77 1.167 26.22 1.187 48.85.021 28.521-.205 2.311-.933 56.49-.089 6.42.037 12.82.517 19.23.651 8.819 2.155 20.34 3.256 28.05-29.599-.04-64.417-.96-94.706-2.04zm40.011-203.75a81.42 81.42 0 015.416-.2c-1.691.059-3.489.129-5.416.2zm89.086 205.29c-9.936.359-21.563.51-34.159.5-.688-5.96-1.488-12.95-1.506-13.23-.863-8.55-1.42-17.149-1.4-25.75 0-1 4.094-80.43 1.344-106.32-2.781-26.17-4.706-49.5-26.81-58.53-4.655-1.91-9.715-2.36-17.064-2.26h-.085c-5.331-.16-10.474-.18-15.472.55h-.038c-5.456.8-10.726 2.47-15.839 5.8-23.833 15.48-21.033 45.2-20.81 63.09.817 66.53 8.459 68.5 5.621 104.48-.03.34-1.936 18.43-3.141 30.12-13-.45-25.164-.931-35.705-1.391-.116-1.93-.184-3-.184-3.08-2.907-57.51 10.209-76.38 14.1-110.51 2.965-25.96-3.043-46.38 2.703-68.53 8.021-30.91 32.962-59.16 65.556-54.7 1.04.14 2.091.32 3.139.53.36-.08.73-.14 1.092-.2 11.869-2.08 23.353-.89 33.748 8.25 30.356 26.68 30.668 78.31 31.629 96.69 3.045 58.33 16.354 73.521 13.739 128.38-.001.101-.213 2.991-.458 6.111z" fill="#af7b46"/><path d="M52.7 78.99c11.69 3.22 28.34-.15 40.03 7.14-.08.44-.16.87-.25 1.31-.64 2.91-3.23 4.82-6.36 5.38-8.44 1.51-22.57 1.32-30.84.74-1.19-.08-2.16-.9-2.36-2-.81-4.36-1.12-8.02-.22-12.57zm53.99 1.36c.05 2.48.32 4.73.83 7.1.63 2.91 3.23 4.82 6.36 5.38 8.44 1.51 22.57 1.32 30.84.74 1.19-.08 2.16-.9 2.36-2 .31-1.69.55-3.28.67-4.85-11.7-8.04-28.85-4.44-40.84-7.71-.14.43-.23.88-.22 1.34z" fill="#fff" opacity=".2"/><path d="M93.31 80.35a37.48 37.48 0 01-.58 5.78c-11.69-7.3-28.35-3.92-40.03-7.14.03-.12.04-.24.07-.37.26-1.24 1.34-2.15 2.68-2.28 12.7-1.18 21.35-1.08 33.89-.11 2.27.19 4.02 1.99 3.97 4.12zm53.93-1.72c-.26-1.24-1.34-2.15-2.68-2.28-12.7-1.18-21.35-1.08-33.89-.11-1.78.14-3.22 1.27-3.75 2.78 11.98 3.27 29.14-.33 40.84 7.71.2-2.6.09-5.16-.52-8.1z" fill="#fff" opacity=".4"/><path d="M153 78.74h-5.22c-.02-.07-.02-.14-.04-.21-.3-1.44-1.57-2.52-3.13-2.67-12.9-1.2-21.6-1.07-33.98-.11-.15.01-.29.05-.43.07l.03-.03-.33.08-.28.06c-1.08.24-3.42.7-5.37.76-3.91.12-4.75.11-8.5 0-1.95-.06-4.29-.52-5.37-.76-.09-.03-.18-.04-.28-.06l-.33-.08.03.03c-.14-.02-.28-.06-.43-.07-12.39-.96-21.09-1.09-33.98.11-1.56.15-2.83 1.23-3.13 2.67-.02.07-.02.14-.04.21H47v2.92h4.79c-.17 1.7-.19 3.33-.07 4.97h1.06c-.2-2.54-.09-5.05.51-7.92.21-1.02 1.1-1.78 2.21-1.88 6.3-.59 11.69-.86 16.98-.86 4.97 0 9.99.22 16.81.75 2 .15 3.53 1.74 3.49 3.61-.05 2.2-.28 4.22-.69 6.29h1.07c.39-2.02.62-4.02.67-6.27.01-.66-.13-1.28-.39-1.85.33-.07.85-.16 1.51-.21 2.51-.18 8.07-.14 10.11 0 .66.05 1.19.14 1.51.21-.26.57-.41 1.19-.39 1.85.05 2.25.28 4.25.67 6.27h1.07a35.01 35.01 0 01-.68-6.29c-.04-1.87 1.49-3.46 3.49-3.61 6.82-.53 11.84-.75 16.81-.75 5.29 0 10.69.27 16.98.86 1.11.1 2 .86 2.21 1.88.6 2.87.71 5.38.51 7.92h1.05c.13-1.64.1-3.27-.07-4.97H153v-2.92z" fill="#107aa8"/></svg>