<svg xmlns="http://www.w3.org/2000/svg" width="500" height="500" viewBox="0 0 200 200" overflow="hidden"><defs><radialGradient id="i" cx="100" cy="113" r="40" gradientUnits="userSpaceOnUse" class="svga-on-canvas-facehighlight-gradient-single-0"><stop stop-opacity=".5" stop-color="#f8d3b8" offset="0"/><stop stop-opacity="0" stop-color="#e9b995" offset=".9"/></radialGradient><radialGradient id="j" cx="100" cy="57" r="36" gradientUnits="userSpaceOnUse" class="svga-on-canvas-facehighlight-gradient-single-1"><stop stop-opacity=".5" stop-color="#f8d3b8" offset="0"/><stop stop-opacity="0" stop-color="#e9b995" offset=".9"/></radialGradient><radialGradient id="c" cx="125.523" cy="88.627" r="13.218" gradientTransform="matrix(-1.0975 .096 .0956 1.0928 203.228 -20.87)" gradientUnits="userSpaceOnUse" class="svga-on-canvas-eyesback-gradient-left-0"><stop stop-color="#fff" offset="0"/><stop stop-color="#fdfefe" offset=".544"/><stop stop-color="#f6f8f9" offset=".74"/><stop stop-color="#eaeff2" offset=".879"/><stop stop-color="#d9e3e8" offset=".992"/><stop stop-color="#d8e2e7" offset="1"/></radialGradient><radialGradient id="f" cx="125.523" cy="88.627" r="13.218" gradientTransform="matrix(1.0975 .096 -.0956 1.0928 -3.229 -20.87)" gradientUnits="userSpaceOnUse" class="svga-on-canvas-eyesback-gradient-right-0"><stop stop-color="#fff" offset="0"/><stop stop-color="#fdfefe" offset=".544"/><stop stop-color="#f6f8f9" offset=".74"/><stop stop-color="#eaeff2" offset=".879"/><stop stop-color="#d9e3e8" offset=".992"/><stop stop-color="#d8e2e7" offset="1"/></radialGradient><radialGradient id="d" cx="122.915" cy="85.507" fx="136.35" fy="84.425" r="17.038" gradientTransform="matrix(.9926 .1216 .1079 -.8805 -54.142 145.844)" gradientUnits="userSpaceOnUse" class="svga-on-canvas-eyesfront-gradient-left-3"><stop stop-color="#daa075" offset="0"/><stop stop-opacity=".3" stop-color="#daa075" offset=".7"/><stop stop-opacity="0" stop-color="#e9b995" offset="1"/></radialGradient><radialGradient id="e" cx="78.447" cy="85.328" r="26.192" gradientTransform="matrix(.7158 -.1012 .1016 .7275 7.98 45.944)" gradientUnits="userSpaceOnUse" class="svga-on-canvas-eyesfront-gradient-left-4"><stop stop-opacity="0" offset=".9"/><stop stop-opacity=".3" offset="1"/></radialGradient><radialGradient id="g" cx="122.915" cy="85.507" fx="136.35" fy="84.425" r="17.038" gradientTransform="matrix(-.9926 .1216 -.1079 -.8805 254.142 145.844)" gradientUnits="userSpaceOnUse" class="svga-on-canvas-eyesfront-gradient-right-3"><stop stop-color="#daa075" offset="0"/><stop stop-opacity=".3" stop-color="#daa075" offset=".7"/><stop stop-opacity="0" stop-color="#e9b995" offset="1"/></radialGradient><radialGradient id="h" cx="78.447" cy="85.328" r="26.192" gradientTransform="matrix(-.7158 -.1012 -.1016 .7275 192.02 45.944)" gradientUnits="userSpaceOnUse" class="svga-on-canvas-eyesfront-gradient-right-4"><stop stop-opacity="0" offset=".9"/><stop stop-opacity=".3" offset="1"/></radialGradient><linearGradient id="b" x1="100" y1="143" x2="100" y2="140" gradientUnits="userSpaceOnUse" class="svga-on-canvas-mouth-gradient-single-0"><stop stop-color="#e1ac85" offset=".1"/><stop stop-color="#daa075" offset="1"/></linearGradient><linearGradient id="a" x1="99.98" y1="171.27" x2="99.98" y2="136.351" gradientUnits="userSpaceOnUse" class="svga-on-canvas-chinshadow-gradient-single-0"><stop stop-opacity=".8" stop-color="#daa075" offset="0"/><stop stop-color="#bb7440" offset=".7"/></linearGradient></defs><path d="M225 225H-25V-25h250v250z" fill="#cdb380"/><path d="M-25 62.366V48.224L48.224-25h14.142L-25 62.366zM90.649-25H76.507L-25 76.507v14.142L90.649-25zm28.285 0h-14.142L-25 104.792v14.143L118.934-25zm28.285 0h-14.143L-25 133.075v14.143L147.219-25zM225-25h-7.071L-25 217.929V225h7.071L225-17.929V-25zM5.796-25H-8.345L-25-8.345V5.796L5.796-25zm28.285 0H19.939L-25 19.939v14.142L34.081-25zm141.422 0H161.36L-25 161.36v14.143L175.503-25zM-25-22.487L-22.487-25H-25v2.513zm250 174.263v-14.143L137.635 225h14.142L225 151.776zm0 28.286v-14.143L165.919 225h14.143L225 180.062zm0 28.283v-14.143L194.203 225h14.143L225 208.345zm0-84.852V109.35L109.351 225h14.142L225 123.493zm0 98.994L222.487 225H225v-2.513zm0-183.847V24.497L24.497 225H38.64L225 38.64zm0 56.568V81.066L81.066 225h14.142L225 95.208zm0-84.853V-3.787L-3.787 225h14.142L225 10.355zM203.787-25h-14.143L-25 189.646v14.141L203.787-25zM225 66.924V52.782L52.782 225h14.142L225 66.924z" fill="#be9f63"/><path d="M151.582 41.064l-99.508-5.662S27 218.282 27 223.998c0 0 100.899.72 143.907 0-.804-7.919-19.325-182.934-19.325-182.934z" fill="#0c080c"/><path d="M190.858 199.866c-6.008-10.158-13.474-11.973-19.628-13.936-6.323-2.016-19.346-3.178-26.449-4.6-6.86-1.373-23.153-5.789-23.339-13.488-.192-8.066 4.291-40.09 4.291-40.09H74.005s4.487 32.023 4.294 40.09c-.184 7.699-16.48 12.115-23.341 13.488-7.104 1.422-20.125 2.584-26.448 4.6-6.156 1.963-13.624 3.777-19.632 13.936-3.644 6.16-6.008 16.133-6.008 27.133h194c-.001-11-2.361-20.973-6.012-27.133z" fill="#e9b995"/><path d="M121.442 167.843c2.495 10.929 18.165 13.698 26.293 15.325 21.909 4.379 33.772 5.134 42.297 19.539 2.903 4.916 5.459 15.864 5.962 24.153 1.835.291.531-17.432-5.136-26.994-9.742-16.472-29.089-15.135-46.077-18.535-6.86-1.373-23.153-5.789-23.339-13.488zm-42.884 0c-.186 7.699-16.479 12.115-23.339 13.488-16.988 3.4-36.335 2.063-46.077 18.535-5.667 9.563-6.971 27.285-5.136 26.994.503-8.289 3.059-19.237 5.962-24.153 8.524-14.405 20.388-15.16 42.297-19.539 8.128-1.627 23.798-4.397 26.293-15.325z" fill="#f8d3b8"/><path d="M51.206 189.513s28.641.299 33.473 1.885c2.314.758 8.372 5.633 8.372 5.633s-6.556-3.17-8.658-3.758c-4.883-1.364-33.187-3.76-33.187-3.76zm48.589 10.486c2.053-.041 7.887-3.799 7.887-3.799s-5.574 2.059-7.342 2.16c-1.491.086-6.366-1.238-6.366-1.238s4.138 2.91 5.821 2.877zm17.213-7.242c6.75-1.818 29.786-3.23 29.786-3.23s-23.791-.516-30.51 1.725c-2.252.752-7.562 5.16-7.562 5.16s6.064-3.058 8.286-3.655z" fill="#daa075"/><path d="M190.858 199.866c-9.741-16.471-29.122-15.142-46.077-18.535-6.86-1.373-23.153-5.789-23.339-13.488-.192-8.066 4.291-40.09 4.291-40.09H74.005s4.487 32.023 4.294 40.09c-.184 7.699-16.48 12.115-23.341 13.488-7.104 1.422-20.125 2.584-26.448 4.6-6.156 1.963-13.624 3.777-19.632 13.936C5.234 206.027 2.87 216 2.87 227h194c-.001-11.001-2.361-20.974-6.012-27.134z" fill="none" stroke="#bb7440" stroke-width="1.5"/><path d="M96.621 172.397c1.862 1.009 4.905 1.009 6.765.001 4.022-2.175 10.793-6.271 17.707-10.99.604-7.53 1.97-18.516 2.938-25.903-14.398-1.508-33.984-1.493-48.319.038.961 7.323 2.309 18.157 2.919 25.666 7.015 4.801 13.916 8.981 17.99 11.188z" fill="url(#a)"/><path d="M43.52 224.812c-25.518 0-39.538-.228-41.685-.677l-.006-.106c-1.693-26.63 13.847-40.759 47.508-43.193 12.458 7.729 32.47 11.655 59.42 11.655 28.606 0 56.588-4.536 67.29-6.486 15.393 8.005 21.154 18.146 21.173 37.391-3.973.296-97.133 1.417-153.692 1.417l-.008-.001z" fill="#d46fbb"/><path d="M197.22 223.395s.123-29.332-29.542-35.087c4.5-.689 5.727-1.822 8.369-2.304 15.392 8.005 21.154 18.146 21.173 37.391zm-48.141-33.413c-28.224 3.263-75.592 5.834-99.743-9.147-29.679 2.148-49.28 13.477-47.501 43.3.125.026.294.052.5.076 1.263-17.184 6.809-23.152 16.483-29.703 3.413 4.323 5.416 12.663 5.416 18.717 0-8.584.171-12.44-1.001-21.023 9.145-5.108 19.212-6.182 28.034-7.614 29.392 14.174 77.348 12.686 97.812 5.394z" fill="#e38ece"/><path d="M37.72 183.39c27.476 18.844 85.402 17.577 118.296 13.195 8.217-1.4-77.094 16.199-118.296-13.195z" fill="#c553a9"/><path d="M176.029 185.905c-34.551 6.296-97.805 12.705-126.7-5.17-30.352 2.195-49.475 13.813-47.6 43.3 0 .061.01.12.01.181 7.252 1.769 192.442-.348 195.58-.73 0-18.136-4.682-28.969-21.29-37.581zm-174.16 38.13c0-15.576 5.009-27.341 17.333-33.974 1.613 2.277 3.151 8.374 3.471 9.014 0 0-.755-7.2-2.224-9.776 3.821-2.025 8.463-4.228 17.2-6.094 25.036 18.93 93.373 20.543 130.85 10.5-.01 0-.03.011-.06.011-30.759 8.372-103.456 7.688-130.41-10.591 1.55-.478 9.214-1.622 11.12-1.89 41.865 26.274 125.692 5.373 126.692 5.373 15.153 8.502 20.633 18.511 21.219 36.707-69.006-2.146-157.695 1.551-195.191.72z" fill="#a62586"/><path d="M140.337 130.669c-6.672 9.572-28.551 24.338-37.142 29.263-1.757 1.008-4.626 1.008-6.383-.001-8.584-4.93-30.469-19.691-37.144-29.262C51.541 119.018 41.15 77 41.138 76.946a60.39 60.39 0 01-2.004-15.382C39.082 28.09 66.289.919 99.907.867 133.528.815 160.82 27.9 160.87 61.374a60.457 60.457 0 01-1.952 15.389c-.017.052-10.43 42.213-18.581 53.906z" fill="#e9b995"/><path d="M132.741 10.389c15.702 10.981 25.962 29.15 25.93 49.708a60.435 60.435 0 01-2.004 15.382c-.012.053-10.491 42.01-18.53 53.723-6.665 9.715-25.83 26.717-37.145 29.995-.475.138-1.505.138-1.98 0-11.314-3.278-30.479-20.28-37.144-29.995-8.039-11.713-18.519-53.669-18.53-53.723a60.39 60.39 0 01-2.004-15.382c-.032-20.559 10.227-38.727 25.929-49.708-16.937 10.783-28.162 29.672-28.129 51.175a60.39 60.39 0 002.004 15.382c.012.053 10.403 42.071 18.53 53.723 6.675 9.57 28.56 24.332 37.144 29.262l.002.001h-.005c.879.504 2.036.757 3.193.755 1.157.002 2.314-.251 3.193-.755h-.005l.002-.001c8.585-4.93 30.469-19.691 37.145-29.262 8.127-11.651 18.519-53.669 18.529-53.723a60.39 60.39 0 002.004-15.382c.034-21.503-11.191-40.392-28.129-51.175z" fill="#e1ac85"/><path d="M140.337 130.669c-6.672 9.572-28.551 24.338-37.142 29.263-1.757 1.008-4.626 1.008-6.383-.001-8.584-4.93-30.469-19.691-37.144-29.262C51.541 119.018 41.15 77 41.138 76.946a60.39 60.39 0 01-2.004-15.382C39.082 28.09 66.289.919 99.907.867 133.528.815 160.82 27.9 160.87 61.374a60.457 60.457 0 01-1.952 15.389c-.017.052-10.43 42.213-18.581 53.906z" fill="none" stroke="#bb7440" stroke-width="1.5"/><path d="M99.983 143.169c-3.24 0-4.753-2.8-4.753-2.8s4.797.78 9.279-.067c0 0-1.677 2.867-4.526 2.867z" fill="url(#b)"/><path d="M99.869 137.399c-6.552 0-9.471-2.347-12-5.399h24c-2.098 3.125-5.166 5.399-12 5.399z" fill="#fff"/><path d="M99.869 137.399c-6.552 0-9.471-2.347-12-5.399h24c-2.098 3.125-5.166 5.399-12 5.399z" fill="none" stroke="#c92066" stroke-width=".75"/><path d="M76.925 80.872c4.607.618 8.048 3.822 11.044 9 .004.006.013.004.018.009.008.032.022.063.029.094.29 1.188-.752 2.198-2.068 2.988-4.747.924-9.302 2.162-14.155 1.625-9.719-1.074-10.042-6.145-10.551-7.458-.291-1.299-.374-2.626-.397-3.883 1.844.032 3.983-1.056 5.781-1.555 2.105-.584 6.818-1.288 10.299-.82z" fill="url(#c)"/><path d="M83.5 88.001c0 4.693-3.806 8.498-8.5 8.498s-8.5-3.805-8.5-8.498a8.5 8.5 0 1117 0z" fill="#7b5c33" stroke="#4d3009" stroke-width=".5"/><path d="M70.058 91.974c1.241-.103.142-.434.142-.434-.613-.331-1.768-.839-1.768-1.306 0-1.461 2.002-1.839-.048-2.416-2.13-1.955 1.653-1.914 1.625-1.98-1.381-3.366.423-1.518 1.183-2.512 2.816-3.682.785.378 2.314 0 .554-.136-1.105-2.169.048-1.884.763.187.937.821.937.821.557-.109 1.428-.966 1.428-.966 1.061.32 1.806 1.827 1.478 1.545.522-.063 1.252-.313 1.822-.483 0 0 .1-.338.196-.047 1.3 3.77 4.652 3.5.792 4.589 0 0-.249 0 .542.627 3.839 3.066-2.978 2.117.638 3.527.147-.146-2.167 1.368-2.167 1.787 0 .71-1.477 2.576-2.757 1.841-.714-.408-.823.85-1.243.269-.823-1.138-2.467-.049-1.859-1.095.898-.737-.926.289-1.28.289-1.172 0 1.534-3.942 5.516-1.013 1.165.853-1.224-2.03.886-2.03.211.069.148-.739.148-.966-1.098-.215 1.969-.005 1.969-1.788.193.039.721-.495-2.316 0 0 0-.097-1.063-.048-1.256.156-.62 1.72-.422 1.28-1.063l-1.132-2.272c-3.645-.586-1.562-.952-3.841-.483-.108.535-4.881 2.811-4.729 3.866.142.995 2.997 1.328.295 3.091 4.048 7.757-2.991-.172-.051 1.742z" fill="#8a6d47"/><path d="M75 80.562l.243 6.223 2.603-5.656-2.158 5.84 4.572-4.229-4.229 4.57 5.842-2.157-5.655 2.604 6.222.242-6.222.242 5.655 2.604-5.842-2.157 4.229 4.57-4.572-4.229 2.158 5.84-2.603-5.656L75 95.437l-.243-6.223-2.604 5.656 2.156-5.84-4.57 4.229 4.229-4.57-5.842 2.157 5.655-2.604L67.562 88l6.219-.242-5.655-2.604 5.842 2.157-4.229-4.57 4.57 4.229-2.156-5.84 2.604 5.656.243-6.224z" fill="#7b5c33" stroke="#6c4c22" stroke-width=".5"/><path d="M76.128 82.428l-.764 4.697 2.808-3.841-2.501 4.047 4.065-2.476-3.859 2.783 4.702-.73L75.947 88l4.626 1.125-4.699-.762 3.842 2.808-4.05-2.5 2.476 4.064-2.783-3.86.73 4.702-1.092-4.632-1.126 4.625.764-4.697-2.811 3.841 2.504-4.048-4.064 2.476 3.86-2.783-4.702.73 4.631-1.093-4.625-1.125 4.697.761-3.842-2.808 4.05 2.5-2.475-4.064 2.782 3.86-.73-4.701 1.095 4.632 1.123-4.623z" fill="#7b5c33" stroke="#5c3d14" stroke-width=".5"/><path d="M78.188 88a3.187 3.187 0 11-6.375 0 3.187 3.187 0 016.375 0z" opacity=".9"/><path d="M71.653 94.108c-.469.469-1.396.304-2.069-.37-.674-.673-.84-1.6-.37-2.069.469-.469 1.396-.304 2.069.37s.84 1.599.37 2.069z" fill="#fff" opacity=".7"/><path d="M81.809 86.326c-.702.703-2.404.142-3.8-1.255-1.396-1.396-1.958-3.097-1.255-3.8.703-.703 2.404-.142 3.8 1.255 1.396 1.396 1.957 3.098 1.255 3.8z" fill="#fff" opacity=".9"/><path d="M55.5 88c0 13.808 8.283 24.999 18.5 24.999S92.5 101.808 92.5 88c0-13.809-8.283-25.001-18.5-25.001S55.5 74.191 55.5 88zm5.741-.868c-.291-1.299-.374-2.626-.397-3.883 1.844.032 3.983-1.056 5.781-1.555 2.106-.586 6.819-1.29 10.3-.822 4.607.618 8.048 3.822 11.044 9 .004.006.013.004.018.009.008.032.022.063.029.094.29 1.188-.752 2.198-2.068 2.988-4.747.924-9.302 2.162-14.155 1.625-9.72-1.072-10.043-6.143-10.552-7.456z" fill="#e9b995"/><path d="M75.005 100.952c9.299 1.281 17.73-4.324 18.83-12.528 1.101-8.205-5.541-15.895-14.842-17.18-9.301-1.28-17.729 4.326-18.829 12.53-1.1 8.203 5.54 15.89 14.841 17.178zM60.844 83.249c1.844.032 3.983-1.056 5.781-1.555 2.106-.586 6.819-1.29 10.3-.822 4.607.618 8.048 3.822 11.044 9 .004.006.013.004.018.009.008.032.022.063.029.094.29 1.188-.752 2.198-2.068 2.988-4.747.924-9.302 2.162-14.155 1.625-9.719-1.074-10.042-6.145-10.551-7.458-.292-1.297-.375-2.624-.398-3.881z" fill="url(#d)"/><path d="M61.241 87.132c-.291-1.299-.374-2.626-.397-3.883 1.844.032 3.983-1.056 5.781-1.555 2.106-.586 6.819-1.29 10.3-.822 4.607.618 8.048 3.822 11.044 9 .004.006.013.004.018.009.008.032.022.063.029.094.29 1.188-.752 2.198-2.068 2.988-4.747.924-9.302 2.162-14.155 1.625-9.72-1.072-10.043-6.143-10.552-7.456z" fill="url(#e)"/><path d="M76.428 75.952c3.311.503 6.572 2.172 9.612 4.298.65.455 1.396.972 2.57 1.622-.834-.189-1.614-.667-2.343-1.106.76.798 1.475 1.76 2.063 2.694-2.63-3.653-7.485-6.286-11.574-7.082-3.927-.765-10.991.142-16.17 3.104 4.72-3.424 11.731-4.155 15.842-3.53z" fill="#bb7440"/><path d="M88.054 89.86a.09.09 0 01-.084-.043c-2.996-5.044-6.437-8.167-11.045-8.769-3.479-.456-8.192.23-10.3.801-1.867.505-4.106 1.641-5.996 1.518-1.754-.115-3.748-1.511-4.801-2.513 1.128.843 4.185 1.027 5.099.811-.282-.073-1.853-1.056-2.157-1.348.741.422 3.617.862 4.542.628-.265-.14-1.585-1.042-1.891-1.398.14.122 3.378.74 5.034.188 9.938-3.31 18.034-.452 21.862 9.95a.115.115 0 01-.011.105.126.126 0 01-.091.055l-.161.015zm-27.05-3.014c-.644 2.483 1.093 7.881 10.4 8.505 6.612.442 15.696-2.737 14.568-2.526-4.756.9-9.318 2.112-14.181 1.589-11.022-1.187-9.959-7.387-10.787-7.568z" fill="#1b1929"/><path d="M123.075 80.872c-4.607.618-8.048 3.822-11.044 9-.004.006-.013.004-.018.009-.008.032-.022.063-.029.094-.29 1.188.752 2.198 2.068 2.988 4.747.924 9.302 2.162 14.155 1.625 9.719-1.074 10.042-6.145 10.551-7.458.291-1.299.374-2.626.397-3.883-1.844.032-3.983-1.056-5.781-1.555-2.105-.584-6.818-1.288-10.299-.82z" fill="url(#f)"/><path d="M133.5 88.001a8.5 8.5 0 11-17-.004 8.5 8.5 0 0117 .004z" fill="#7b5c33" stroke="#4d3009" stroke-width=".5"/><path d="M120.059 91.974c1.24-.103.142-.434.142-.434-.613-.33-1.768-.838-1.768-1.305 0-1.461 2.002-1.84-.048-2.416-2.131-1.956 1.652-1.915 1.625-1.981-1.382-3.366.423-1.518 1.182-2.512 2.816-3.682.785.378 2.314 0 .555-.136-1.104-2.169.048-1.884.763.186.938.821.938.821.557-.109 1.428-.966 1.428-.966 1.061.32 1.806 1.828 1.478 1.546.521-.063 1.252-.313 1.821-.483 0 0 .1-.338.196-.046 1.3 3.77 4.652 3.499.791 4.589 0 0-.249 0 .542.627 3.84 3.065-2.978 2.117.638 3.527.148-.147-2.167 1.367-2.167 1.786 0 .711-1.477 2.576-2.757 1.842-.714-.409-.822.85-1.243.269-.823-1.138-2.468-.049-1.859-1.095.898-.737-.926.288-1.28.288-1.172 0 1.534-3.942 5.516-1.013 1.165.854-1.225-2.029.886-2.029.212.069.148-.739.148-.967-1.097-.214 1.97-.004 1.97-1.787.193.038.721-.496-2.316 0 0 0-.097-1.064-.048-1.256.156-.619 1.721-.422 1.28-1.063l-1.133-2.271c-3.645-.587-1.562-.953-3.84-.483-.108.535-4.881 2.811-4.729 3.866.142.994 2.996 1.328.295 3.092 4.048 7.753-2.991-.176-.05 1.738z" fill="#8a6d47"/><path d="M125 80.562l.242 6.222 2.604-5.656-2.158 5.84 4.571-4.228-4.229 4.57 5.842-2.157-5.655 2.604 6.222.242-6.222.242 5.655 2.604-5.842-2.157 4.229 4.57-4.571-4.228 2.158 5.84-2.604-5.656-.242 6.223-.242-6.222-2.605 5.656 2.157-5.84-4.57 4.228 4.229-4.57-5.842 2.157 5.654-2.604-6.219-.242 6.219-.242-5.654-2.604 5.842 2.157-4.229-4.57 4.57 4.228-2.157-5.84 2.605 5.656.242-6.223z" fill="#7b5c33" stroke="#6c4c22" stroke-width=".5"/><path d="M126.128 82.428l-.764 4.697 2.808-3.841-2.501 4.047 4.064-2.475-3.859 2.782 4.702-.73-4.632 1.093 4.626 1.125-4.699-.762 3.843 2.808-4.05-2.5 2.476 4.063-2.783-3.86.73 4.702-1.092-4.632-1.126 4.625.764-4.697-2.812 3.841 2.505-4.047-4.065 2.475 3.86-2.782-4.702.73 4.631-1.094-4.624-1.124 4.696.761-3.842-2.808 4.05 2.501-2.476-4.063 2.782 3.86-.73-4.702 1.095 4.632 1.125-4.625z" fill="#7b5c33" stroke="#5c3d14" stroke-width=".5"/><path d="M128.188 88a3.187 3.187 0 11-6.375 0 3.187 3.187 0 016.375 0z" opacity=".9"/><path d="M121.653 94.108c-.47.469-1.396.304-2.069-.369-.674-.673-.84-1.601-.369-2.07.469-.47 1.395-.304 2.068.369.673.674.839 1.601.37 2.07z" fill="#fff" opacity=".7"/><path d="M131.809 86.326c-.702.703-2.403.142-3.8-1.254-1.396-1.396-1.957-3.098-1.256-3.8.703-.703 2.405-.142 3.8 1.254 1.396 1.396 1.959 3.098 1.256 3.8z" fill="#fff" opacity=".9"/><path d="M126 62.999c-10.217 0-18.5 11.193-18.5 25.001 0 13.808 8.283 24.999 18.5 24.999S144.5 101.808 144.5 88c0-13.809-8.283-25.001-18.5-25.001zm2.208 31.59c-4.854.537-9.408-.702-14.155-1.625-1.316-.791-2.358-1.8-2.068-2.988.007-.032.021-.063.029-.094.005-.005.014-.003.018-.009 2.996-5.178 6.437-8.382 11.044-9 3.48-.468 8.193.236 10.3.822 1.798.499 3.938 1.587 5.781 1.555-.023 1.257-.106 2.583-.397 3.883-.51 1.312-.833 6.383-10.552 7.456z" fill="#e9b995"/><path d="M139.836 83.774c-1.101-8.205-9.528-13.811-18.829-12.53-9.301 1.285-15.942 8.976-14.842 17.18 1.1 8.204 9.531 13.809 18.83 12.528 9.301-1.288 15.941-8.975 14.841-17.178zm-1.077 3.358c-.509 1.313-.832 6.384-10.551 7.458-4.854.537-9.408-.702-14.155-1.625-1.316-.791-2.358-1.8-2.068-2.988.007-.032.021-.063.029-.094.005-.005.014-.003.018-.009 2.996-5.178 6.437-8.382 11.044-9 3.48-.468 8.193.236 10.3.822 1.798.499 3.938 1.587 5.781 1.555-.024 1.255-.107 2.582-.398 3.881z" fill="url(#g)"/><path d="M138.759 87.132c.291-1.299.374-2.626.397-3.883-1.844.032-3.983-1.056-5.781-1.555-2.106-.586-6.819-1.29-10.3-.822-4.607.618-8.048 3.822-11.044 9-.004.006-.013.004-.018.009-.008.032-.022.063-.029.094-.29 1.188.752 2.198 2.068 2.988 4.747.924 9.302 2.162 14.155 1.625 9.72-1.072 10.043-6.143 10.552-7.456z" fill="url(#h)"/><path d="M123.572 75.952c-3.311.503-6.572 2.172-9.612 4.298-.65.455-1.396.972-2.57 1.622.834-.189 1.614-.667 2.343-1.106-.76.798-1.475 1.76-2.063 2.694 2.63-3.653 7.485-6.286 11.574-7.082 3.927-.765 10.991.142 16.17 3.104-4.72-3.424-11.731-4.155-15.842-3.53z" fill="#bb7440"/><path d="M111.784 89.846a.123.123 0 01-.091-.055.118.118 0 01-.011-.105c3.828-10.402 11.925-13.26 21.862-9.95 1.656.552 4.895-.067 5.034-.188-.306.355-1.626 1.258-1.891 1.398.925.234 3.801-.206 4.542-.628-.305.292-1.875 1.275-2.157 1.348.914.216 3.971.032 5.099-.811-1.053 1.002-3.047 2.398-4.801 2.513-1.89.124-4.129-1.012-5.996-1.518-2.107-.571-6.82-1.256-10.3-.801-4.608.602-8.049 3.725-11.045 8.769a.09.09 0 01-.084.043l-.161-.015zm16.424 4.567c-4.862.523-9.425-.688-14.181-1.589-1.128-.211 7.956 2.969 14.568 2.526 9.308-.624 11.044-6.021 10.4-8.505-.827.182.236 6.382-10.787 7.568z" fill="#1b1929"/><path d="M140.204 113.007c.035 22.275-17.995 40.365-40.273 40.396-22.274.036-40.361-17.993-40.396-40.272-.034-22.274 17.995-40.361 40.273-40.396 22.275-.034 40.363 17.995 40.396 40.272z" fill="url(#i)"/><path d="M135 55.999c0 19.329-15.671 35-35 35s-35-15.671-35-35 15.671-35 35-35 35 15.671 35 35z" fill="url(#j)"/><path d="M57.992 72.441c14.723-3.028 33.357 2.799 33.336-.649 0-.869-.892-1.128-1.755-1.194-14.881-1.265-21.274-2.175-31.581 1.843zm84.016 0c-4.028-.829-6.352-1.175-12.865-.904-7.413.219-20.486 2.799-20.471.254 0-.869.892-1.128 1.755-1.194 14.953-1.269 21.281-2.171 31.581 1.844z" fill="#2a232b"/><path d="M99.044 91.436s-.827 19.066-.713 23.254c.032 1.188 2.32 4.304 2.164 6.575 0 0-4.462-.325-5.914-.838-1.519-.538-3.869-1.588-2.94-4.521 1.323-4.171 7.403-24.47 7.403-24.47z" fill="#daa075"/><path d="M98.627 119.026s-1.851-.657-3.02-.624c-1.064.033-1.218-.676-1.11-1.079.108-.403.473-.654 1.501-.38 1.029.276 2.629 2.083 2.629 2.083zm2.755.002s1.847-.609 3.02-.622c1.064-.013 1.219-.677 1.11-1.079-.108-.404-.473-.657-1.501-.383-1.029.278-2.629 2.084-2.629 2.084z" fill="#bb7440"/><path d="M60.35 193.688c1.158-14.492.475-21.283-.77-33.608-2.595-25.694-3.31-42.128-4.043-68.959-.316-11.197-.641-22.776 3.313-33.606 3.554-10.115 11.301-18.694 20.722-22.95 7.624-3.447 14.646-3.392 22.43-3.392 9.351 0 15.884.73 21.614 4.47 16.191 10.58 17.635 25.628 19.629 46.457 2.178 22.685 1.116 25.168 1.134 46.728.03 49.463-3.013 57.144 2.977 99.22 6.649.343 26.664-167.79 4.624-195.021-12.594-15.575-87.972-7.296-98.007-.403-16.856 11.572 1.878 194.396 1.878 194.396.044-1.644 4.237-30.191 4.499-33.332z" fill="#2a232b" opacity=".1"/><path d="M58.48 202.358c1.212-15.154.495-22.254-.806-35.143-2.714-26.865-3.462-44.05-4.228-72.104-.33-11.708-.671-23.814 3.464-35.139 3.719-10.576 11.822-19.547 21.678-23.997 7.975-3.604 15.32-3.547 23.465-3.547 9.779 0 16.612.765 22.609 4.675 16.939 11.062 18.443 26.796 20.532 48.575 2.279 23.72 1.17 26.316 1.183 48.859.037 51.718-3.554 59.332 2.714 103.329 6.955.357 27.631 1.225 34.401.728 5.637-57.613-7.946-77.721-10.325-127.722-1.139-24.668-2.271-67.687-25.324-96.161-13.178-16.284-28.763-20.97-46.042-16.865-13.249-2.351-26.041.816-36.538 8.025C47.63 17.97 32.909 43.054 31.021 64.217c-2.411 27.16 2.334 39.43-2.501 66.618-5.761 32.415-14.864 57.097-10.235 104.528 5.256.388 35.999 1.845 35.999 1.845.044-1.717 3.922-31.565 4.196-34.85z" fill="#2a232b"/><path d="M156.514 238.203a749.525 749.525 0 01-7.423-.337c-6.268-43.997-2.677-51.611-2.714-103.329-.013-22.543 1.097-25.14-1.183-48.859-2.089-21.778-3.593-37.513-20.532-48.575-10.166-6.63-35.575-5.874-46.074-1.127-9.855 4.45-17.959 13.421-21.678 23.997-4.136 11.325-3.794 23.431-3.464 35.139.766 28.055 1.514 45.239 4.228 72.104 1.301 12.889 2.019 19.988.806 35.143-.274 3.284-4.152 33.133-4.197 34.85 0 0-3.401-.161-8.125-.391.354-11.398 5.847-22.797 6.771-34.195 1.944-48-11.669-94-.972-143 2.916-12 7.778-22 18.475-28 9.207-5.261 26.281-6.583 32.057-2.817.096-.611.196-1.222.289-1.869 1.514-8.9-1.219-12.378 1.395-18.231-2.012 5.547.221 9.073-.122 15.242-.069 1.079-.416 2.695-.861 4.65 6.292-2.681 20.152-1.896 26.556 3.025 33.178 25.495 17.501 112 22.364 169 .657 12.882 2.817 25.305 4.404 37.58zM53.269 39.909C60.691 29.864 72.2 20.585 84.275 18.63c2.96-.479 5.707-.608 5.531-.598-12.228.414-22.794 4.548-32.017 14.768-10.917 11.709-10.418 21.832-10.468 24.223.411-6.192 1.187-9.584 5.948-17.114zm56.48-18.005c1.317-.368 4.279-1.342 8.201-1.098 15.563.723 34.484 18.312 36.685 42.554.576 5.964 1.216 24.332.4 10.625-.497-8.323-1.369-12.445-2.197-16.1-4.167-18.454-23.161-40.319-41.44-36.366l-1.649.385zm-67.551 64.44c.791 27.147 2.753 45.85 2.237 58.753-1.471 16.183-3.123 29.451-3.123 29.451-.03.413.08-1.676.305-5.11 2.487-35.28.097-40.141.581-83.094zm114.619 1.777c.417 7.484 2.223 39.41 2.494 46.176.227 5.292.263 40.677.381 42.338.028.59-2.09-28.29-2.875-88.514zm7.689 9.191c.925 14.561 6.923 72.884 14.438 100.406.145.453-.622-1.821-1.851-5.594-9.436-30.896-11.508-63.088-12.587-94.812zM38.992 117.395c-1.623 6.133-.24 9.802-.187 15.916-.286 14.263-5.243 30.714-7.033 38.957-2.097 8.726-2.847 32.982-2.842 33.984-.033 1-.85-26.039 3.125-42.239 10.377-40.344 3.92-29.618 6.383-44.87l.554-1.748zM106.508 6.016c4.76-1.002 3.222-.752 7.014-1.173 16.098-1.667 26.966 10.983 29.381 12.878.138.13-.571-.515-1.729-1.582-14.461-11.863-23.675-12.031-34.666-10.123zM57.182 29.987c6.694-6.878 14.555-16.267 30.61-16.92 6.169-.293 9.09 1.436 10.062 1.682 0 0-8.626-4.578-25.444 3.183-5.418 2.36-11.492 8.513-15.228 12.055z" fill="#1b141c"/><path d="M184.627 202.31c-11.808-41.571-15.057-85.129-18.904-128.688C162.57 45.25 150.72 12.341 124.607.869c-2.839-1.247-27.424-2.821-39.59.753-41.812 10-53.492 58.916-50.563 100 2.212 31.021-9.32 67.609-17.325 101.74.902-28.354 7.081-48.278 11.391-72.527 4.835-27.188.09-39.458 2.501-66.618C32.909 43.054 47.63 17.97 65.263 5.871 75.76-1.338 88.552-4.505 101.801-2.154c12.718-3.021 24.514-1.269 35.107 6.351l.072.015c3.741 2.716 7.431 6.261 10.862 10.499 23.054 28.474 24.186 71.492 25.324 96.161 1.801 37.861 10.022 58.594 11.461 91.438zM55.419 27.308c-5.997 7.544-2.415 2.772 3.69-3.506C76.943 7.338 88.264 6.365 98.295 8.659c-16.823-4.635-31.689 5.115-42.876 18.649zm56.56-15.875c11.421-3.929 25.295-1.496 39.866 21.474 10.844 18.168 10.938 40.817 11.57 43.92.059.443-.307-1.789-.794-5.48-1.308-8.44-3.563-29.778-22.548-51.36-5.037-5.814-15.937-12.133-28.094-8.554zm45.726 54.777c3.031 29.726 4.887 72.826 4.887 72.826.056.683-.711-6.873-1.462-15.11-2.772-30.191-1.477-26.587-3.425-57.716zm-3.146 70.192c.332 21.587.059 17.159 2.332 48.097 1.977 16.713 2.607 19.68-.461 1.053-2.809-17.859-2.317-30.294-1.871-49.15zm9.739 7.712c3.975 29.918 3.572 29.703 4.521 45.704 1.172 16.188 1.584 18.725-.499.988-1.233-9.929-1.902-23.531-4.022-46.692zM48.856 38.604C42.754 50.786 41.06 60.74 39.84 74.385c-1.997 19.679-.178 21.159-1.365 34.119-.013.167.007-.172.046-.899.469-16.338-3.947-43.111 10.335-69.001zm11.241-1.524c-6.143 5.974-9.404 17.112-11.477 25.781-4.44 19.145-2.167 83.919-3.542 36.666-.629-17.744-1.211-32.394 7.84-52.141 1.955-4.285 4.054-7.627 7.179-10.306zM46.554 137.29c.157 11.389 1.336 12.657 2.418 25.876 1.28 12.79-2.299 33.213-2.422 35.392-.194 1.541 2.623-23.021 1.202-40.579-1.491-16.409-1.378-13.293-1.198-20.689zm-6.621 15.381c-2.873 11.796-1.906 13.18-5.192 60.408-.074 1-.283-41.191 5.192-60.408zm26.83-122.69c.972-.551 14.882-11.058 28.83-6.116 1.283.413 2.125.836 2.276.867.972.387-5.218-2.399-11.905-1.512-10.192.905-17.581 5.911-19.201 6.761zm39.805-10.827c2.092-.977 4.102-2.125 9.005-2.732 13.841-1.694 22.483 9.902 23.455 10.708.943 1.03-4.335-5.62-12.846-8.638-1.473-.502-.018-.072-2.558-.81-.412-.144-2.072-.543-3.782-.742-5.807-.537-8.548.245-13.274 2.214z" fill="#3a353a"/><path d="M173.267 110.867c-1.178-24.84-2.121-67.53-25.351-96.22-14.129-17.46-30.241-20.7-46.099-16.9-12.067-2.14-25.018.08-36.609 8.04-17.327 11.89-32.358 36.84-34.284 58.42-2.411 27.17 2.334 39.43-2.498 66.61-6.068 34.13-14.509 55.09-10.288 104.04l.058.6c.097.011.185.011.283.021 10.501.59 22.606 1.229 35.567 1.82.078 0 .156 0 .234.01 30.221 1.37 65.079 2.5 95.039 2.35a.677.677 0 01.201 0c12.37-.08 23.902-.37 33.927-.96.047 0 .097-.01.137-.01.029-.3.056-.6.085-.89 5.581-56.061-8.041-77.24-10.402-126.931zM54.416 236.268c1.536-12.28 4.005-32.04 4.161-33.9 2.44-30.52-3.004-29.06-4.958-104.48-.33-12.77-1.069-25.69 3.383-37.88 3.695-10.51 11.659-19.44 21.626-23.94 4.336-1.96 8.955-2.93 13.65-3.39 15.722-.35 24.649-.5 32.33 4.51 16.568 10.82 18.312 25.76 20.487 48.5 2.284 23.77 1.167 26.22 1.187 48.85.021 28.521-.205 2.311-.933 56.49-.089 6.42.037 12.82.517 19.23.651 8.819 2.155 20.34 3.256 28.05-29.599-.04-64.417-.96-94.706-2.04zm40.011-203.75a81.42 81.42 0 015.416-.2c-1.691.059-3.489.129-5.416.2zm89.086 205.29c-9.936.359-21.563.51-34.159.5-.688-5.96-1.488-12.95-1.506-13.23-.863-8.55-1.42-17.149-1.4-25.75 0-1 4.094-80.43 1.344-106.32-2.781-26.17-4.706-49.5-26.81-58.53-4.655-1.91-9.715-2.36-17.064-2.26h-.085c-5.331-.16-10.474-.18-15.472.55h-.038c-5.456.8-10.726 2.47-15.839 5.8-23.833 15.48-21.033 45.2-20.81 63.09.817 66.53 8.459 68.5 5.621 104.48-.03.34-1.936 18.43-3.141 30.12-13-.45-25.164-.931-35.705-1.391-.116-1.93-.184-3-.184-3.08-2.907-57.51 10.209-76.38 14.1-110.51 2.965-25.96-3.043-46.38 2.703-68.53 8.021-30.91 32.962-59.16 65.556-54.7 1.04.14 2.091.32 3.139.53.36-.08.73-.14 1.092-.2 11.869-2.08 23.353-.89 33.748 8.25 30.356 26.68 30.668 78.31 31.629 96.69 3.045 58.33 16.354 73.521 13.739 128.38-.001.101-.213 2.991-.458 6.111z"/></svg>