<svg xmlns="http://www.w3.org/2000/svg" width="500" height="500" viewBox="0 0 200 200" overflow="hidden"><defs><radialGradient id="h" cx="100" cy="113" r="40" gradientUnits="userSpaceOnUse" class="svga-on-canvas-facehighlight-gradient-single-0"><stop stop-opacity=".5" stop-color="#fff4f3" offset="0"/><stop stop-opacity="0" stop-color="#f3d4cf" offset=".9"/></radialGradient><radialGradient id="i" cx="100" cy="57" r="36" gradientUnits="userSpaceOnUse" class="svga-on-canvas-facehighlight-gradient-single-1"><stop stop-opacity=".5" stop-color="#fff4f3" offset="0"/><stop stop-opacity="0" stop-color="#f3d4cf" offset=".9"/></radialGradient><radialGradient id="b" cx="127" cy="87.834" r="14" gradientTransform="matrix(-1 0 0 1 200 0)" gradientUnits="userSpaceOnUse" class="svga-on-canvas-eyesback-gradient-left-0"><stop stop-color="#fff" offset="0"/><stop stop-color="#fdfefe" offset=".544"/><stop stop-color="#f6f8f9" offset=".74"/><stop stop-color="#eaeff2" offset=".879"/><stop stop-color="#d9e3e8" offset=".992"/><stop stop-color="#d8e2e7" offset="1"/></radialGradient><radialGradient id="e" cx="127" cy="87.834" r="14" gradientUnits="userSpaceOnUse" class="svga-on-canvas-eyesback-gradient-right-0"><stop stop-color="#fff" offset="0"/><stop stop-color="#fdfefe" offset=".544"/><stop stop-color="#f6f8f9" offset=".74"/><stop stop-color="#eaeff2" offset=".879"/><stop stop-color="#d9e3e8" offset=".992"/><stop stop-color="#d8e2e7" offset="1"/></radialGradient><radialGradient id="c" cx="125.16" cy="86.942" fx="138.734" fy="85.449" r="18.705" gradientTransform="matrix(.9998 .0208 .0131 -.6281 -51.43 138.948)" gradientUnits="userSpaceOnUse" class="svga-on-canvas-eyesfront-gradient-left-3"><stop stop-color="#e4b3ab" offset="0"/><stop stop-opacity=".3" stop-color="#e4b3ab" offset=".7"/><stop stop-opacity="0" stop-color="#f3d4cf" offset="1"/></radialGradient><radialGradient id="d" cx="67.721" cy="109.165" r="29.505" gradientTransform="rotate(-2.982 111.996 114.88) scale(1.0336)" gradientUnits="userSpaceOnUse" class="svga-on-canvas-eyesfront-gradient-left-4"><stop stop-opacity="0" offset=".95"/><stop stop-opacity=".3" offset="1"/></radialGradient><radialGradient id="f" cx="125.16" cy="86.942" fx="138.734" fy="85.449" r="18.705" gradientTransform="matrix(-.9998 .0208 -.0131 -.6281 251.43 138.948)" gradientUnits="userSpaceOnUse" class="svga-on-canvas-eyesfront-gradient-right-3"><stop stop-color="#e4b3ab" offset="0"/><stop stop-opacity=".3" stop-color="#e4b3ab" offset=".7"/><stop stop-opacity="0" stop-color="#f3d4cf" offset="1"/></radialGradient><radialGradient id="g" cx="67.721" cy="109.165" r="29.506" gradientTransform="scale(-1.0336 1.0336) rotate(-3 11.572 3805.503)" gradientUnits="userSpaceOnUse" class="svga-on-canvas-eyesfront-gradient-right-4"><stop stop-opacity="0" offset=".95"/><stop stop-opacity=".3" offset="1"/></radialGradient><linearGradient id="a" x1="99.98" y1="171.27" x2="99.98" y2="136.351" gradientUnits="userSpaceOnUse" class="svga-on-canvas-chinshadow-gradient-single-0"><stop stop-opacity=".8" stop-color="#e4b3ab" offset="0"/><stop stop-color="#c5796d" offset=".7"/></linearGradient></defs><path d="M225 225H-25V-25h250v250z" fill="#14305c"/><path d="M151.582 41.064l-99.508-5.662S27 218.282 27 223.998c0 0 100.899.72 143.907 0-.804-7.919-19.325-182.934-19.325-182.934z" fill="#982a13"/><path d="M190.858 199.866c-6.008-10.158-13.474-11.973-19.628-13.936-6.323-2.016-19.346-3.178-26.449-4.6-6.86-1.373-23.153-5.789-23.339-13.488-.192-8.066 4.291-40.09 4.291-40.09H74.005s4.487 32.023 4.294 40.09c-.184 7.699-16.48 12.115-23.341 13.488-7.104 1.422-20.125 2.584-26.448 4.6-6.156 1.963-13.624 3.777-19.632 13.936-3.644 6.16-6.008 16.133-6.008 27.133h194c-.001-11-2.361-20.973-6.012-27.133z" fill="#f3d4cf"/><path d="M121.442 167.843c2.495 10.929 18.165 13.698 26.293 15.325 21.909 4.379 33.772 5.134 42.297 19.539 2.903 4.916 5.459 15.864 5.962 24.153 1.835.291.531-17.432-5.136-26.994-9.742-16.472-29.089-15.135-46.077-18.535-6.86-1.373-23.153-5.789-23.339-13.488zm-42.884 0c-.186 7.699-16.479 12.115-23.339 13.488-16.988 3.4-36.335 2.063-46.077 18.535-5.667 9.563-6.971 27.285-5.136 26.994.503-8.289 3.059-19.237 5.962-24.153 8.524-14.405 20.388-15.16 42.297-19.539 8.128-1.627 23.798-4.397 26.293-15.325z" fill="#fff4f3"/><path d="M51.206 189.513s28.641.299 33.473 1.885c2.314.758 8.372 5.633 8.372 5.633s-6.556-3.17-8.658-3.758c-4.883-1.364-33.187-3.76-33.187-3.76zm48.589 10.486c2.053-.041 7.887-3.799 7.887-3.799s-5.574 2.059-7.342 2.16c-1.491.086-6.366-1.238-6.366-1.238s4.138 2.91 5.821 2.877zm17.213-7.242c6.75-1.818 29.786-3.23 29.786-3.23s-23.791-.516-30.51 1.725c-2.252.752-7.562 5.16-7.562 5.16s6.064-3.058 8.286-3.655z" fill="#e4b3ab"/><path d="M190.858 199.866c-9.741-16.471-29.122-15.142-46.077-18.535-6.86-1.373-23.153-5.789-23.339-13.488-.192-8.066 4.291-40.09 4.291-40.09H74.005s4.487 32.023 4.294 40.09c-.184 7.699-16.48 12.115-23.341 13.488-7.104 1.422-20.125 2.584-26.448 4.6-6.156 1.963-13.624 3.777-19.632 13.936C5.234 206.027 2.87 216 2.87 227h194c-.001-11.001-2.361-20.974-6.012-27.134z" fill="none" stroke="#c5796d" stroke-width="1.5"/><path d="M100.045 171.737c5.593-.009 13.488-3.608 20.908-8.44.448-6.688 1.717-17.243 2.734-25.146-13.955-1.813-33.739-1.771-47.623.105 1.008 7.831 2.258 18.226 2.713 24.89 7.533 4.917 15.593 8.6 21.268 8.591z" fill="url(#a)"/><path d="M1.21 226.811c-.09-1.096.089-6.144.169-7.69 1.305-24.199 9.403-29.321 42.489-39.116 15.99-4.732 20.453-6.269 26.144-18.359 1.614-3.43 3.009-6.393 6.011-7.444 15.289 8.429 28.472 8.16 47.416 1.143 3.516.491 4.597 4.978 5.414 8.217 5.254 20.016 37.606 15.497 52.146 23.753 15.091 7.44 15.778 32.33 15.631 39.781a.675.675 0 01.006.056c-19.631.831-170.956 1.234-195.426-.341z" fill="#601090"/><path d="M176.786 216.725c.847-10.266 1.101-18.312 4.157-27.83-4.426 14.753 1.476 26.354-7.266 34.423 1.097-2.637 2.839-3.32 3.109-6.593zM24 203c-1.608-3.938-3.672-7.405-4.444-13.604-.28.134-.394-.626-.666-.492 1.111 11.097 4.736 15.713 5.84 31.829-.174-5.776.804-13.975-.73-17.733zm97.459-46.726c-.581.144-1.164.78-1.75.899 8.181 7.474 2.813 10.296 14.771 23.422.333-.167 1.415-.766 2.718-1.523-7.879-4.461-9.65-15.535-15.739-22.798zM126 180c.447 1.342 1.101 2.482 1.859 3.603-.457.174-.908.362-1.37.522-2.363-3.073-4.632-6.134-6.139-12.489-1.558-6.561-.884-5.584-5.94-12.752.319-.045.954-.411 1.448-.491 4.785 6.63 6.75 13.975 10.142 21.607zm7.719 1.005c-.481.25-.969.488-1.457.725-6.715-7.001-9.364-15.664-13.832-23.789.307-.059.907-.818 1.188-.876 3.964 4.215 3.947 6.305 5.151 10.061 1.569 4.702 5.834 10.763 8.95 13.879zm-22.507-20.98c3.591 9.259 5.941 16.57 6.595 26.388-.469.085-.937.17-1.407.242-.65-5.13-1.491-10.462-1.739-11.689-.992-4.915-2.781-11.482-4.401-14.82.318-.033.634-.083.952-.121zm14.407 24.401c-.555.185-1.115.352-1.676.519-5.889-7.32-5.781-16.893-10.411-26.211.182-.025.465-.041.646-.068 5.14 8.711 3.5 6.198 5.83 15.03 1.221 4.617 3.743 8.768 5.611 10.73zm-10.11 2.359c-.369.053-.746.089-1.12.133-1.339-9.809-1.877-17.542-5.437-26.651.249-.022.499-.037.747-.062 3.223 7.918 4.532 19.147 5.81 26.58zm-24.428-26.421c-3.267 8.975-3.961 15.986-4.586 25.452-.369-.063-.742-.123-1.105-.191.281-8.057 1.408-18.063 4.9-25.33.263.027.527.045.791.069zm-15.692 22.53c-.419-.152-.842-.297-1.26-.458 5.056-6.227 7.374-16.511 7.99-24.521.332.081.663.15.995.226.239 9.451-3.2 16.69-7.725 24.753zm14.39-22.649c-4.003 7.147-5.299 17.074-5.13 25.23-.319-.063-.618-.137-.93-.203-.337-9.561.856-17.051 5.107-25.256.32.04.629.196.953.229zM66.165 179.01c-.527-.256-1.054-.51-1.576-.774 2.807-1.871 5.653-4.711 7.56-7.97 1.716-2.93 5.611-11.628 6.41-14.44.269.104.543.189.816.282-2.063 9.022-6.466 17.247-13.21 22.902zm7.344 3.195c-.559-.215-1.106-.456-1.661-.682 4.743-7.656 6.889-16.213 7.854-25.317.614.203 1.23 1.398 1.847 1.56-1.419 8.741-2.916 17.095-8.04 24.439zm4.72-26.5c-.65 1.82-1.54 3.55-2.45 5.311-2.167 4.379-4.345 11.597-11.83 16.88a78.31 78.31 0 01-1.618-.854c6.891-5.698 10.479-14.131 14.154-21.908.563.212 1.145.332 1.744.571z" fill="#510181"/><path d="M60.172 177.15l-1.928-1.29c-16.809 6.537-42.125 8.875-52 25.125-3.719 6.119-4.913 15.014-4.913 26.014 2.027-5.485.759-14.439 6.636-23.292 11.434-17.226 31.804-15.387 52.205-26.557zm129.861 26.557c5.067 9.34 4.608 17.807 6.636 23.292 0-11-2.281-19.354-4.913-26.014-7.483-18.933-33.191-16.791-50-23.328l-1.928 1.29c20.401 11.17 38.375 2.955 50.205 24.76z" fill="#70229f"/><path d="M181.049 187.226c-14.496-8.229-46.88-3.804-52.1-23.69-.653-2.542-1.702-7.762-5.53-8.29-.188.037-.761-.129-.76-.129-15.076 5.88-30.845 7.63-46.67-1.011-7.111 2.493-5.169 15.246-18.61 21.22-5.86 2.654-13.6 4.395-24.6 7.98-25.782 8.41-30.463 16.581-31.5 35.81-.073 1.41-.273 6.859-.16 7.79 27.119 1.767 181.426.968 195.61.34.01-.05.01-.1 0-.149.288-14.425-2.905-33.573-15.68-39.871zm-57.25-31.402c7.203 2.412-.831 13.455 15.84 21.791-2.201 1.354-4.629 2.715-5.159 2.98-11.958-13.126-6.443-15.043-14.173-23.123 1.432-.646 2.152-1.228 3.492-1.648zm-3.882 1.739c3.964 4.215 3.648 5.807 4.853 9.563 1.568 4.703 5.833 10.764 8.949 13.88a54.134 54.134 0 01-7.229 3.12c-2.363-3.073-4.408-6.164-6.039-12.489-1.438-5.573-.936-6.018-5.741-12.652.999-.142 3.631-1.099 5.207-1.422zm-5.639 1.5c5.14 8.711 3.4 5.8 5.73 14.632 1.22 4.618 3.742 8.769 5.61 10.73-3.01 1-6.1 1.75-9.22 2.229-.65-5.13-1.414-10.458-1.64-11.689-1-5.454-2.881-11.482-4.501-14.82 1.282-.129 2.752-.891 4.021-1.082zm-4.579 1.142c3.223 7.918 4.532 19.146 5.81 26.58-2.942.418-6.063.57-8.979.57-.001-.025-1.897-15.809-2.641-26.162 2.028-.3 4.16-.531 5.81-.988zm-6.31 1.008c.05 11.677.956 14.712 2.41 26.152-3.489.01-6.97-.149-10.459-.45 2.365-19.61 3.55-25.632 3.55-25.632 1.842 0 3.513-.037 4.499-.07zm-5.12.07c-2.776 15.35-3.252 19.064-3.58 25.572-3.189-.268-6.325-.668-9.3-1.23.281-8.057 1.408-18.063 4.9-25.33 2.65.27 5.32.978 7.98.988zm-8.49-1.038c-4.003 7.147-5.299 17.074-5.13 25.23-3.873-.771-7.202-1.758-10.52-3.04 5.056-6.227 7.374-16.511 7.99-24.521 2.523.616 5.191 1.784 7.66 2.331zm-8.23-2.479c-1.419 8.741-2.916 17.096-8.04 24.439a96.06 96.06 0 01-8.92-3.97c2.807-1.871 5.653-4.711 7.56-7.97 1.716-2.93 5.511-11.429 6.31-14.241.98.38 2.09 1.481 3.09 1.742zm-5.76-2.962c.77.471 1.49.761 2.34 1.101-.65 1.82-1.44 3.351-2.35 5.111-2.167 4.379-4.345 11.597-11.83 16.88-1.39-.71-2.77-1.46-4.12-2.25 11.579-6.242 9.623-17.968 15.96-20.842zm-74.23 71.851c.136-3.996.887-16.321 3.59-22.41 2.73-6.149 8-10.39 13.88-13.52-.402 9.421 4.184 10.589 4.5 21.85.09 3.41.56 6.76 1.13 10.12-.26-3.53-.37-7.03-.35-10.57.058-10.247-4.58-12.021-4.58-21.779 7.43-3.782 15.967-6.216 24.41-8.761 4.94-1.479 9.94-3.029 14.56-5.359 13.184 8.692 25.449 13.279 47.35 13.149 15.873 0 25.119-4.104 34.9-11.109 13.149 6.077 30.126 5.28 39.46 10.91-1.655 4.925-2.791 7.494-3.1 10.18-.715 6.32.347 10.814-.561 16.62-.53 3.37-3.12 5.85-3.82 9.16 2.036-6.202 5.709-3.93 5.261-18.551-.257-8.245.476-8.458 2.779-17.069 11.486 7.199 14.441 24.116 15.091 37.58-33.237-.219-181.394-.161-194.5-.441z" fill="#3d0062"/><path d="M158.918 76.762h-.005c-.012.053-8.517 40.707-16.719 53.285-6.452 9.894-30.366 29.938-42.04 29.956-11.671.02-35.637-19.958-42.119-29.833C49.794 117.618 41.15 77 41.138 76.946h-.001a60.48 60.48 0 01-2.002-15.382C39.082 28.09 66.289.919 99.907.867 133.528.815 160.82 27.9 160.87 61.374a60.45 60.45 0 01-1.952 15.388z" fill="#f3d4cf"/><path d="M125.898 6.622c19.104 10.248 32.075 30.355 32.039 53.476a60.48 60.48 0 01-2.003 15.382h-.001c-.012.053-8.656 40.672-16.898 53.224-5.946 9.061-26.755 29.522-39.033 29.522-12.279 0-33.086-20.462-39.033-29.522-8.242-12.552-16.887-53.17-16.898-53.224h-.001a60.48 60.48 0 01-2.002-15.382C42.031 36.977 55.003 16.87 74.105 6.622 53.411 16.324 39.096 37.28 39.134 61.564a60.48 60.48 0 002.002 15.382h.001c.013.054 8.657 40.672 16.899 53.224 4.416 6.728 18.123 20.495 28.7 25.782a52.391 52.391 0 01-1.599-.717c5.408 2.875 10.664 4.763 14.713 4.768.049 0 .103-.005.152-.005s.103.005.152.005c4.048-.005 9.304-1.893 14.713-4.768-.538.252-1.071.491-1.601.717 10.577-5.286 24.285-19.055 28.701-25.782 8.241-12.552 16.887-53.17 16.897-53.224h.002a60.48 60.48 0 002.002-15.382c.04-24.284-14.273-45.24-34.97-54.942z" fill="#ebc3bd"/><path d="M158.918 76.762h-.005c-.012.053-8.517 40.707-16.719 53.285-6.452 9.894-30.366 29.938-42.04 29.956-11.671.02-35.637-19.958-42.119-29.833C49.794 117.618 41.15 77 41.138 76.946h-.001a60.48 60.48 0 01-2.002-15.382C39.082 28.09 66.289.919 99.907.867 133.528.815 160.82 27.9 160.87 61.374a60.45 60.45 0 01-1.952 15.388z" fill="none" stroke="#c5796d" stroke-width="1.5"/><path d="M99.867 142.685c-4.159 0-7.651-3.162-7.651-3.162 7.261 1.131 16.154-.671 16.154-.671s-3.251 3.833-8.503 3.833z" fill="#e4b3ab"/><path d="M99.869 138.507c-2.691.025-8.86-1.635-11.18-2.938-1.374-.769-3.749-3.433-5.4-4.788-.635-.521-.371-1.528.466-1.569 2.036-.099 4.65.979 5.876 1.169 2.565.389 5.805 1.835 10.195 1.835 3.262 0 6.828-1.15 9.101-1.574 1.367-.254 4.529-1.376 6.755-1.501.838-.05 1.18.777.56 1.316-1.739 1.526-4.526 4.328-6.028 5.112-2.431 1.268-7.92 2.916-10.345 2.938z" opacity=".5"/><path d="M86.859 129.328s.286 2.427.722 3.12c.6.954 4.257 2.914 5.717 3.188.993.184 2.814.476 3.816.613 1.085.148 1.695.015 2.791-.021 1.179-.038 2.186.132 3.336-.135.819-.19 3.215-.834 3.997-1.145.604-.242 1.814-.643 2.364-.992.456-.288 1.866-1.333 2.146-1.795.366-.605.709-2.752.709-2.752l-25.598-.081z" fill="#fff"/><path d="M92.17 129.748s-.522 5.283-.568 5.375c-.047.092-.179-5.375-.179-5.375h.747zm2.194.587l.464 5.601.298-5.601h-.762zm5.121.826l.579 5.088.375-5.176-.954.088zm4.493-1.068c.973.088 1.298 5.446 1.298 5.446l.134-5.446h-1.432zm3.727-.655s.386 5.114.44 5.018c.053-.097.153-5.018.153-5.018h-.593zm-18.829-.002l.283 4.181.283-4.181h-.566zm21.499-.425l.086 4.38.432-4.413-.518.033z" opacity=".1"/><path d="M116.764 129.126c-1.218-.406-3.771-.125-5.061-.294-1.83-.239-5.542-.409-7.392-.356-1.161.034-3.449.457-4.608.484-1.191.027-3.562-.461-4.751-.471-1.888-.012-5.689.214-7.54.534-1.279.222-3.89-.113-4.914.475-.237.137-.095.75 0 .981.862 2.089 4.188 5.489 7.067 7.497a18.64 18.64 0 0010.643 3.381c4.035.003 8.785-2.247 12.762-5.639 1.758-1.5 3.982-4.091 4.353-5.537.189-.73-.244-.95-.559-1.055zm-16.948 7.226c-2.488.019-8.26-1.229-10.697-2.494-1.461-.759-3.7-2.577-5.226-3.708-.588-.435-.454-.789.321-.822 1.882-.084 5.042.944 6.177 1.1 2.371.324 5.366 1.531 9.425 1.531 3.013 0 6.312-.959 8.414-1.311 1.264-.213 4.833-1.278 6.89-1.384.775-.04.926.276.354.727-1.61 1.271-4.326 3.216-6.055 4.066-2.195 1.082-7.362 2.271-9.603 2.295z" fill="#f771a9" stroke="#e85391" stroke-width=".75"/><path d="M86.869 134.124c2.588.523 8.417 3.611 13.315 3.444 5.105-.175 12.685-4.745 13.685-4.244.373 1.199-9.853 6.985-13.685 7.077-3.437.081-14.398-4.916-13.315-6.277zm12.616-2.963c3.109-.042 6.909-.442 9.469-1.672-2.918-1.013-6.938.115-9.251.168-3 .07-5.51-.934-8.289.058 2.655.907 5.384 1.483 8.071 1.446z" fill="#ff8ebd"/><path d="M97.732 139.024c-1.881-.424-1.945-.596-.162-.42 1.09.106 2.18.132 3.238.03.141-.015.281-.029.419-.049 1.195-.157 2.479-.546 3.768-1.051 2.015-.792 2.051-.6.053.446-1.467.767-2.831 1.324-3.798 1.44l-.062.007c-.824.082-2.065-.087-3.456-.403z" fill="#ffa8cc"/><path d="M79.599 130.722s-.561-1.256-.482-1.724c.11-.657 1.521-1.958 1.521-1.958s-.854 1.498-.986 1.971c-.129.457-.053 1.711-.053 1.711zm40.564.159s.609-1.364.523-1.873c-.119-.714-1.652-2.127-1.652-2.127s.929 1.628 1.072 2.142c.139.496.057 1.858.057 1.858z" fill="#c5796d"/><path d="M79.063 92.229c-4.31.755-7.656.71-10.688-.204-3.127-.943-7.188-4.825-8.596-8.495 3.715-.277 11.349-.597 14.89-.154 4.688.586 9.474 2.406 12.305 5.236-.016.294-.053.583-.087.872-2.285 1.547-5.521 2.341-7.824 2.745z" fill="url(#b)"/><path d="M82.199 89.75c-1.231 4.522-5.896 7.187-10.429 5.944-4.528-1.241-7.203-5.918-5.97-10.442 1.23-4.526 5.905-7.19 10.434-5.947 4.527 1.24 7.199 5.918 5.965 10.445z" fill="#7b5c33" stroke="#4d3009" stroke-width=".5"/><path d="M81.994 88.026c-.625 5.021-4.353 7.638-8.432 7.365-3.765-.253-7.131-3.031-7.443-7.828 1.302-.374 3.031.234 4.549.002-.005.055-.023.104-.025.16-.12 1.842 1.357 3.446 3.299 3.577 1.946.13 3.62-1.263 3.74-3.104a3.325 3.325 0 00-.038-.702c1.353.204 3.004.003 4.35.53z" fill="#8a6d47"/><path d="M75.229 84.664c-1.869-.535-3.777.533-4.26 2.396-.483 1.853.642 3.793 2.51 4.329 1.873.537 3.781-.532 4.266-2.386.485-1.864-.644-3.803-2.516-4.339z" opacity=".9"/><path d="M75.229 84.664c-1.869-.535-3.777.533-4.26 2.396-.483 1.853.642 3.793 2.51 4.329 1.873.537 3.781-.532 4.266-2.386.485-1.864-.644-3.803-2.516-4.339z" fill="none" stroke="#4d3009" stroke-width=".75"/><path d="M69.977 92.681c-.177.619-1.142.356-.965-.266.171-.6.633-.967.926-1.495.313-.564 1.177-.06.863.505-.241.435-.687.771-.824 1.256zm1.539-.987c-.266.31-.614 1.458-.766 1.834-.241.598.727.856.965.266.082-.205.362-1.223.508-1.393.417-.486-.287-1.197-.707-.707zm2.082 2.957c.522-.602.47-1.292.459-2.041-.01-.644-1.01-.645-1 0 .006.415.13.992-.166 1.334-.421.485.284 1.195.707.707zm1.021-2.166c.008.621.084 1.226.268 1.82.19.614 1.155.352.965-.266a5.354 5.354 0 01-.232-1.555c-.009-.643-1.009-.644-1.001.001z" fill="#fff" opacity=".5"/><path d="M79.946 86.043c-.985.59-2.466.059-3.305-1.188-.838-1.248-.713-2.739.273-3.328.984-.593 2.467-.061 3.301 1.187.838 1.248.717 2.738-.269 3.329z" fill="#fff" opacity=".8"/><path d="M56 88c0 13.808 8.06 24.999 18 24.999S92 101.808 92 88c0-13.809-8.06-25.001-18-25.001S56 74.191 56 88zm3.78-4.47c3.715-.277 11.349-.597 14.89-.154 4.952.619 10.04 2.6 12.788 5.71-2.289 1.82-5.897 2.705-8.395 3.143-4.31.755-7.656.71-10.688-.204-3.126-.942-7.187-4.825-8.595-8.495z" fill="#f3d4cf"/><path d="M56.143 86.915c.027 8.284 8.484 14.962 18.902 14.919 10.414-.047 18.836-6.796 18.813-15.08-.027-8.285-8.486-14.963-18.902-14.92-10.417.047-18.837 6.796-18.813 15.081zm3.637-3.385c3.715-.277 11.349-.597 14.89-.154 4.952.619 10.04 2.6 12.788 5.71-2.289 1.82-5.897 2.705-8.395 3.143-4.31.755-7.656.71-10.688-.204-3.126-.942-7.187-4.825-8.595-8.495z" fill="url(#c)"/><path d="M59.78 83.53c3.715-.277 11.349-.597 14.89-.154 4.952.619 10.04 2.6 12.788 5.71-2.289 1.82-5.897 2.705-8.395 3.143-4.31.755-7.656.71-10.688-.204-3.126-.942-7.187-4.825-8.595-8.495z" fill="url(#d)"/><path d="M67.363 79.695c6.133-.278 8.613.088 12.986 1.384 1.662.602 1.852.772 2.555 1.214-3.785-2.037-14.074-2.652-15.541-2.598zm-7.967 7.057c2.854 5.494 4.797 4.894 7.531 6.058.025.009-1.51-.579-2.664-1.196-2.99-1.719-3.355-2.451-4.867-4.862z" fill="#c5796d"/><path d="M56 81.734c3.096 2.525 4.363 5.953 7.398 8.529 2.037 1.729 5.877 2.717 9.602 2.773 3.844.058 8.59-.434 10.258-.855 2.838-.718 3.539-1.278 6.742-1.472-1.986-3.039-3.836-4.399-6.268-5.841-2.977-1.764-5.074-2.279-8.719-2.564-4.853-.38-19.013-.57-19.013-.57zm4.705 2.092c3.467-.258 10.59-.557 13.895-.144 4.621.577 9.369 2.426 11.934 5.328-2.137 1.699-5.504 2.524-7.834 2.933-4.021.705-7.145.663-9.973-.19-2.918-.879-6.707-4.502-8.022-7.927z" fill="#210d34"/><path d="M120.937 92.229c4.31.755 7.656.71 10.688-.204 3.127-.943 7.188-4.825 8.596-8.495-3.715-.277-11.349-.597-14.89-.154-4.688.586-9.474 2.406-12.305 5.236.016.294.053.583.087.872 2.285 1.547 5.521 2.341 7.824 2.745z" fill="url(#e)"/><path d="M134.199 89.75c-1.231 4.522-5.896 7.187-10.429 5.944-4.528-1.241-7.203-5.918-5.97-10.442 1.23-4.526 5.905-7.19 10.434-5.947 4.527 1.24 7.199 5.918 5.965 10.445z" fill="#7b5c33" stroke="#4d3009" stroke-width=".5"/><path d="M133.994 88.026c-.625 5.021-4.353 7.638-8.432 7.365-3.765-.253-7.131-3.031-7.443-7.828 1.302-.374 3.031.234 4.549.002-.005.055-.023.104-.025.16-.12 1.842 1.357 3.446 3.299 3.577 1.946.13 3.62-1.263 3.74-3.104a3.325 3.325 0 00-.038-.702c1.353.204 3.004.003 4.35.53z" fill="#8a6d47"/><path d="M127.229 84.664c-1.869-.535-3.777.533-4.26 2.396-.483 1.853.642 3.793 2.51 4.329 1.873.537 3.781-.532 4.266-2.386.485-1.864-.644-3.803-2.516-4.339z" opacity=".9"/><path d="M127.229 84.664c-1.869-.535-3.777.533-4.26 2.396-.483 1.853.642 3.793 2.51 4.329 1.873.537 3.781-.532 4.266-2.386.485-1.864-.644-3.803-2.516-4.339z" fill="none" stroke="#4d3009" stroke-width=".75"/><path d="M121.977 92.681c-.177.619-1.142.356-.965-.266.171-.6.633-.967.926-1.495.313-.564 1.177-.06.863.505-.241.435-.687.771-.824 1.256zm1.539-.987c-.266.31-.614 1.458-.766 1.834-.241.598.727.856.965.266.082-.205.362-1.223.508-1.393.417-.486-.287-1.197-.707-.707zm2.082 2.957c.522-.602.47-1.292.459-2.041-.01-.644-1.01-.645-1 0 .006.415.13.992-.166 1.334-.421.485.284 1.195.707.707zm1.021-2.166c.008.621.084 1.226.268 1.82.19.614 1.155.352.965-.266a5.354 5.354 0 01-.232-1.555c-.009-.643-1.009-.644-1.001.001z" fill="#fff" opacity=".5"/><path d="M131.946 86.043c-.985.59-2.466.059-3.305-1.188-.839-1.248-.714-2.739.272-3.328.984-.593 2.467-.061 3.301 1.187.84 1.248.718 2.738-.268 3.329z" fill="#fff" opacity=".8"/><path d="M126 62.999c-9.94 0-18 11.193-18 25.001 0 13.808 8.06 24.999 18 24.999S144 101.808 144 88c0-13.809-8.06-25.001-18-25.001zm5.624 29.026c-3.031.914-6.378.959-10.688.204-2.497-.438-6.105-1.323-8.395-3.143 2.748-3.11 7.836-5.091 12.788-5.71 3.541-.443 11.175-.123 14.89.154-1.407 3.67-5.468 7.553-8.595 8.495z" fill="#f3d4cf"/><path d="M125.045 71.834c-10.416-.043-18.875 6.635-18.902 14.92-.023 8.284 8.398 15.033 18.813 15.08 10.418.043 18.875-6.635 18.902-14.919.023-8.285-8.397-15.034-18.813-15.081zm6.579 20.191c-3.031.914-6.378.959-10.688.204-2.497-.438-6.105-1.323-8.395-3.143 2.748-3.11 7.836-5.091 12.788-5.71 3.541-.443 11.175-.123 14.89.154-1.407 3.67-5.468 7.553-8.595 8.495z" fill="url(#f)"/><path d="M140.22 83.53c-3.715-.277-11.349-.597-14.89-.154-4.952.619-10.04 2.6-12.788 5.71 2.289 1.82 5.897 2.705 8.395 3.143 4.31.755 7.656.71 10.688-.204 3.126-.942 7.187-4.825 8.595-8.495z" fill="url(#g)"/><path d="M117.096 82.293c.703-.442.893-.613 2.555-1.214 4.373-1.295 6.854-1.662 12.986-1.384-1.467-.054-11.756.561-15.541 2.598zm18.64 9.321c-1.154.617-2.689 1.205-2.664 1.196 2.734-1.164 4.678-.564 7.531-6.058-1.511 2.411-1.876 3.143-4.867 4.862z" fill="#c5796d"/><path d="M124.986 82.304c-3.645.285-5.742.8-8.719 2.564-2.432 1.441-4.281 2.802-6.268 5.841 3.203.193 3.904.754 6.742 1.472 1.668.421 6.414.913 10.258.855 3.725-.056 7.564-1.044 9.602-2.773 3.035-2.576 4.303-6.003 7.398-8.529.001 0-14.159.19-19.013.57zm6.287 9.449c-2.828.853-5.951.895-9.973.19-2.33-.409-5.697-1.234-7.834-2.933 2.564-2.902 7.313-4.751 11.934-5.328 3.305-.413 10.428-.114 13.895.144-1.315 3.425-5.104 7.048-8.022 7.927z" fill="#210d34"/><path d="M140.204 113.007c.035 22.275-17.995 40.365-40.273 40.396-22.274.036-40.361-17.993-40.396-40.272-.034-22.274 17.995-40.361 40.273-40.396 22.275-.034 40.363 17.995 40.396 40.272z" fill="url(#h)"/><path d="M135 55.999c0 19.329-15.671 35-35 35s-35-15.671-35-35 15.671-35 35-35 35 15.671 35 35z" fill="url(#i)"/><path d="M57.004 67.78c11.555 9.335 37.156 4.096 34.985.54-.511-.85-1.357-.521-2.207-.27-7.815 2.715-24.76 4.228-32.778-.27zm85.992 0c-11.456 9.255-37.187 4.146-34.985.54.951-1.583 2.076.616 11.924 1.808 6.692.823 16.86 1.131 23.061-2.348z" fill="#b7513b"/><path d="M94.803 91.719s.661 2.089.679 2.718c.032 1.07-.102 1.907-.191 2.729-.579 5.369-3.579 13.137-3.418 16.845.07 1.597 1.125 3.926 1.125 3.926s-2.537-.654-3.094-5.178c-.23-1.866 1.717-5.479 2.397-7.23.646-1.664 1.906-7.059 2.348-8.798.186-.729.52-1.607.515-2.362-.002-.672-.361-2.65-.361-2.65zm-.289 26.667s.3 2.483 3.237 3.092c2.758.57 4.305-2.242 4.305-2.242s-2.292 1.442-4.052.925c-.929-.272-3.49-1.775-3.49-1.775zm10.568-5.346c-.02.595-.198 2.316-.198 2.316s.904-1.384.962-1.93c.104-.98-1.063-3.808-1.063-3.808s.326 2.558.299 3.422z" fill="#e4b3ab"/><path d="M92.489 108.932c-1.224 3.882-2.089 7.991 1.481 9.82a5.69 5.69 0 001.475.517c.276.054.479.288.722.441.557.357 1.475.408 2.113.518 2.454.424 4.93-.568 5.538-2.942-1.527 2.045-2.878 2.609-4.955 2.446-2.493-.196-4.573-2.28-5.227-4.726a13.09 13.09 0 01-.424-4.433c.108-1.302.487-2.593.707-3.883.412-2.326 1.408-7.191 1.401-9.62-.398 1.693-1.119 5.687-1.392 6.661-.204.726-.635 2.199-.811 2.933-.139.589-.45 1.7-.628 2.268zm-.282 6.473c-.163-1.144.045-2.348.294-3.457.088 2.204.708 4.771 2.122 6.399-1.222-.487-2.209-1.495-2.416-2.942-.146-1.023.251 1.758 0 0z" fill="#c5796d"/><path d="M95.57 113.331c.158.712.032 1.354-.281 1.438-.313.082-.634-.351-.792-1.063-.158-.711-.09-1.432.222-1.513.313-.083.694.427.851 1.138z" fill="#fff"/><path d="M38.854 237.82l9.88-202.719 105.496 1.162 1.025 203.314s-105.203-.463-116.401-1.757zm98.252-2.541c-4.241-47.633 1.152-84.777 5.499-114.713 2.44-16.806 4.572-31.486 4.458-44.428-2.542 1.415-21.941 1.903-21.941 1.903-14.513 2.338-25.333.387-25.782.438-1.982-12.335-2.297-14.256-2.726-17.048-1.333 11.235-.355 13.67-1.37 15.249-2.873.713-22.804-.167-23.806-.237-5.478 2.035-9.035-2.194-12.427-1.241-1.982 1.505-5.386 1.669-6.386 1.42-1.023 20.123 2.42 35.283 6.058 51.303 9 39.633 8.399 50.872 5.508 104.881.001 0 62.261 2.128 72.915 2.473z" fill="#b7513b" opacity=".1"/><path d="M177.393 209.541c-15.107-60.344 3.552-108.071-9.179-151.026-6.063-20.427-18.396-46.964-42.724-57.386-6.483-2.787-12.601-3.207-19.46-2.256C102.159-2.304 97.966-2.9 93.568-2.9c-30.232 0-49.746 25.833-59.244 54.789-5.943 18.135-7.341 33.902-5.755 64.884 3.633 70.935-3.103 88.369-14.274 117.075 17.224.024 36.536 4.694 63.515 4.779 22.28.08 102.989.006 109.574-.733-6.407-14.509-7.435-18.125-9.991-28.353zm-38.087 27.813c-44.235-1.525-58.379.504-77.335-.458 3.085-57.769 3.929-68.17-5.236-108.528-3.815-16.8-7.374-32.516-5.986-53.916 1.84-.071 3.204.365 4.861 1.224v.005c.079.043.154.086.23.131.05-.268.105-.577.162-.836l.118-.089-.098-.02c.638-3.158 1.735-6.719 3.175-10.297l.191.054a59.613 59.613 0 00-.838 8.586l-.03.053c3.296-.917 7.163 1.845 10.161 1.845.87-.06 1.588-.369 2.394-.662 1.102-15.937 2.326-22.387 4.625-27.361l.188.063c-1.329 6.207-1.753 14.946-1.297 26.715l-.012.016c2.685-.26 5.862.912 8.171.815 0-3.915.676-9.192.94-12.385l.199.002c.403 6.263 1.163 10.374 1.782 13.256 5.281-1.185 5.041-.413 7.762-.57.189-.009.377-.028.556-.064l.03-.046-.1.008c-.677-8.054 2.333-25.156 3.102-29.187l.198.019c-.008 7.96.718 11.325 3.793 30.548 1.722-.197 4.705.844 6.717 1.081 0-3.986-.013-3.709.01-5.85h.199c.033 2.019.142 3.989.735 5.933 3.159.066 5.395-1.403 8.343-1.122.369-16.421-1.055-25.078-1.897-32.829l.196-.037c4.08 15.22 5.452 31.663 5.565 33.095.38-.028 1.758-.133 2.461-.246.431-3.141 2.143-21.364 1.309-26.247l.194-.046c2.643 8.591 2.331 15.253 2.524 25.565 2.552-.785 6.706.343 9.615.015-.4-7.699-.557-14.668-2.451-21.243l.189-.063c2.292 5.971 4.105 13.197 4.986 20.951l.045-.025c6.444.5 5.332-.919 9.239-2.14 1.388 36.867-17.048 86.646-9.685 164.287z" fill="#b7513b"/><path d="M180.326 238.184c-13.273.212-38.624-.278-41.021-.829-2.923-30.82-1.775-57.236.579-80.211 3.563-34.778 9.895-61.65 9.112-83.836.153-1.482 2.837-.396 3.497-1.095-4.5-29.25-14.214-47.686-29.494-59.91 64.384 45.135 14.583 132.535 23.191 167.176 1.473-18.377 13.012-69.387 15.809-79.376-5 36-17 78 3 112-2.631-14.907-2.954-30.583-2.994-45.681.771 25.114 10.241 48.194 18.321 71.762zM58.674 65.947c.174-.459.336-.917.522-1.377l.191.054a59.613 59.613 0 00-.838 8.586l-.03.053c.829-.23 1.694-.228 2.572-.096.46-12.512 2.842-25.349 9.909-35.065-8.61 7.044-10.48 17.765-12.326 27.845zM101 31.102c-4.32 7.921-5.012 16.878-5.807 25.753a251.31 251.31 0 011.828-11.146l.198.019c-.008 7.96.718 11.325 3.793 30.548.581-.066 1.31.014 2.092.15C99.585 61.645 97.306 46.8 101 31.102zm6.107 46.153c.21.036.428.078.622.101 0-3.986-.013-3.709.01-5.85h.199c.033 2.019.142 3.989.735 5.933.322.007.628-.012.933-.033-.598-6.521-.606-12.56-.606-19.304-1.919 6.715-1.081 12.512-1.893 19.153zm9.565-.95c.116.006.227 0 .345.012.369-16.421-1.055-25.078-1.897-32.829l.196-.037c4.08 15.22 5.452 31.663 5.565 33.095a54.77 54.77 0 001.757-.156c-1.144-16.075-3.59-31.982-11.638-46.289 3.768 15.072 3.988 31.03 5.672 46.204zm19.307-.659c.347-.006.685-.021 1.005-.058-.4-7.699-.557-14.668-2.451-21.243l.189-.063c2.292 5.971 4.105 13.197 4.986 20.951l.045-.025a31.81 31.81 0 002.031.1c-1.098-13.198-6.537-25.602-12.785-37.206 3.852 12.514 6.768 25.029 6.98 37.544zM124.84 56.501c.076-2.761.039-5.108-.189-6.448l.194-.046c2.643 8.591 2.331 15.253 2.524 25.565.555-.17 1.193-.239 1.87-.264.08-12.715-1.994-25.322-6.239-37.208.654 5.894 1.731 12.213 1.84 18.401zM86 50.102c-3.781 7.562-3.098 16.018-4.701 24.521a9.47 9.47 0 001.45.07c0-3.915.676-9.192.94-12.385l.199.002c.403 6.263 1.163 10.374 1.782 13.256.642-.144 1.2-.258 1.694-.35C85.62 67.168 84.213 59.034 86 50.102zm-7-10c-8.426 9.362-8.087 23.107-8.83 34.67.297-.103.594-.213.904-.326 1.102-15.937 2.326-22.387 4.625-27.361l.188.063c-1.329 6.207-1.753 14.946-1.297 26.715l-.012.016c.748-.072 1.534-.029 2.329.063-.461-11.604-2.373-23.121 2.093-33.84zm2-23c-25.15 16.485-39 47-35 75 5 37 11 73 6 110 3-31-2-62-8-93 5 34 5 68-4 101 3.177-16.681.047-32.73-1.376-49.151.141 25.13-5.941 50.009-14.846 73.181 16.549.846 36.42 3.267 38.192 2.766 3.085-57.769 3.929-68.17-5.236-108.528-3.815-16.8-7.374-32.516-5.986-53.916 0-.001 2.159-29.259 30.252-57.352z" fill="#a83c25"/><path d="M64.672 42.118C74.59 24.24 80.38 19.473 94.632 11.415c.176-.104-.702.439-2.147 1.33-13.909 8.561-20.427 17.138-27.813 29.373zm71.07-5.005c9.163 18.181 9.775 30.657 9.025 24.705-.8-4.99-1.419-10.855-6.312-22.197-5.369-11.776-14.072-23.532-25.283-30.441 6.265 4.251 13.787 10.928 22.57 27.933zm-44.215 6.623c-1.861 13.125-1.499 23.37-1.487 22.57.06-9.996 2.285-23.7 4.771-33.506 2.673-9.599 5.599-14.82 6.494-16.746-3.897 7.315-8.106 16.715-9.778 27.682zm19.918 15.555c.067 1.53.117 2.458.109 2.274-.562-6.037 1.766-16.643-5.494-38.71 3.005 10.557 4.782 19.543 5.385 36.436zm18.82 4.629c.329 2.116.547 3.4.509 3.145-1.188-7.196-.94-20.108-7.805-34.964-4.252-9.161-8.862-13.611-10.668-15.707 6.751 8.26 13.186 16.734 17.964 47.526zm-50.962-3.106c.534-8.417 1.123-9.623 1.675-12.166 3.557-14.121 5.869-18.655 10.179-25.844-13.126 20.091-11.854 38.01-11.854 38.01zm-41.798 2.559c-.024.471-.016 2.812-.008 2.419.584-20.045 24.285-54.716 40.33-60.582-15.512 4.981-38.491 33.758-40.322 58.163zm.683 39.976c.687 5.613 1.616 9.97 1.536 9.472-3.8-17.919 1.102-58.568 12.54-73.07-8.319 9.994-16.889 36.062-14.076 63.598zm-3.931 54.972c-.697 3.996-.614 3.458-.165 1.388 3.824-18.365.212-50.656-1.332-66.366.001-1.006 2.915 49.069 1.497 64.978zM145.164 23.022c2.272 3.198 7.384 9.497 12.905 23.33 4.216 10.549-1.739-5.479-3.84-10.089-7.777-18.021-18.42-26.645-36.157-33.313 15.418 6.636 19.979 11.373 27.092 20.072zm15.185 77.712c-1.174 11.388 1.192-7.638 1.439-10.115 2.257-19.967-1.41-33.458-8.753-46.237 6.236 12.022 10.295 23.795 7.314 56.352zm6.256 71.737c.702 3.44 1.178 5.512 1.091 5.1-4.749-24.438-.502-87.206-.472-89.487-.281 6.191-7.091 54.755-.619 84.387z" fill="#c66854"/><path d="M177.489 209.517c-15.15-60.52 3.6-107.91-9.18-151.03-7.061-23.79-20.16-47.76-42.78-57.45-6.84-2.94-13.17-3.16-19.47-2.26-7.271-2.21-16.46-2.55-25.811.07-24.32 6.79-38.6 30.39-46.02 53.01-5.61 17.12-7.43 32.3-5.76 64.92 3.57 69.692-2.795 87.556-14.32 117.17 17.259 0 36.599 4.694 63.66 4.779 22.157.084 104.198.003 109.72-.75-6.386-14.459-7.451-18.108-10.039-28.459zm-50.48 27.379c-28.229-.85-46.33.71-64.63-.079-.101-.005-.202-.013-.303-.017.586-10.989 1.823-25.713 2.103-51.044.452-48.899-16.046-69.102-13.336-111.208.227-.008.457-.022.677-.012.25.01.49.04.72.08 1.22.17 2.3.61 3.27 1.12 0 .03 0 .06-.01.08.02-.02.03-.04.04-.06.13.07.25.14.38.22 0-.05.01-.1.02-.15.05-.27.1-.55.16-.83 0-.04.01-.07.02-.11.66-3.27 1.79-6.85 3.17-10.28a59.5 59.5 0 00-.84 8.6c0 .06-.01.12 0 .18.24-.07.48-.13.72-.16 3.13-.44 6.75 2.02 9.58 1.98.67-.05 1.31-.28 1.95-.51.16-.07.31-.12.47-.18.31-4.51.82-9.25 1.05-11.59.53-5.39 1.31-10.91 3.57-15.8-1.09 5.09-1.83 13.05-1.3 26.74 0 .04.01.08.01.12.2-.02.41-.04.62-.04.82-.03 1.67.06 2.52.19.1.01.2.03.29.04 1.53.25 3.07.6 4.57.62.12 0 .23 0 .35-.01v-.11c.01-2.05.18-4.74.59-8.73.14-1.21.25-2.42.35-3.63.39 6.06 1.1 10.09 1.79 13.3 0 .02.01.05.01.07.14-.03.27-.06.39-.09 1.93-.49 2.02-.59 4.55-.58 1.16 0 2.06.13 2.91.08.2-.01.4-.03.59-.07 0-.05-.01-.1-.01-.14-.17-2.02-.24-3.89-.18-5.14.14-3.1 1.56-15 3.28-24.02-.01 9.93 1.6 15.67 2.9 24.94.26 1.86.52 3.71.88 5.53.01.06.02.12.029.19.131-.02.271-.03.41-.03 1.84-.03 4 .75 6.11 1.06.13.02.26.04.38.05v-2.67c-.01-1.27 0-2.36.01-3.29.04 2.49.19 3.89.63 5.58.04.14.08.29.131.45.159 0 .319.01.47.01.149-.01.29-.01.43-.02 1.79-.11 3.5-.72 5.26-1.02.62-.11 1.2-.15 1.75-.12.2 0 .4.02.601.04.01-.08.01-.17 0-.25.029-1.56.029-3.4.01-5.6-.13-14.33-.6-15.11-1.9-27.1 4.295 16.023 5.57 33.176 5.57 33.176s1.846-.128 2.642-.266c.438-3.102 2.152-21.467 1.318-26.35 2.63 8.55 2.33 15.2 2.521 25.58.01.03.01.06.01.09.18-.06.359-.11.54-.14 2.67-.55 5.96.38 9 .14l.27-.03c0-.03-.01-.06-.01-.1-.4-8.32-.64-14.98-2.45-21.26 2.181 5.68 4.08 13 4.95 20.66 0 .02.01.04.01.07 0 .05.011.1.011.15.01.03.01.06.02.1.08.01.16.01.25.02 1.23.11 2.47.19 3.65.05 1.994-.247 3.513-1.582 5.379-2.165.667 15.533-3.643 42.797-5.319 54.003-.839 5.757-1.671 11.249-2.304 16.2-4.776 36.774-4.247 71.054-2.08 93.846-3.753-.104-7.801-.221-12.19-.354zm34.33.891c-1.8-7.09-3.66-14.75-4.26-17.54-4.78-22.08-6.68-57.7-2.35-79.69-4.511 19.601-5.551 53.73 1.359 80.94.95 3.74 2.66 9.79 4.641 16.28-5.631-.109-12.501-.275-20.942-.51-.994-13.384-1.845-33.824-.302-56.421 2.255-36.467 10.913-86.177 9.76-107.737.274-.075.549-.15.834-.203.24-.05.48-.09.72-.13.96-.15 1.94-.25 2.9-.38l.37-.06c-.021-.09-.03-.18-.03-.28-.74-6.93-2.86-22.16-9.47-35.44-1.13-2.28-2.32-4.61-3.88-6.63-3.04-3.91-13.34-16.09-17.87-17.71 5.41 2.95 13.46 13.25 17.09 18.32 3.9 5.53 11.52 24.85 13.56 40.08.061.47.131.95.19 1.42-.97.08-1.96.1-2.93.23a7.8 7.8 0 00-.7.11c-.42.08-.83.18-1.23.32-1.93.68-3.449 2.17-5.54 2.4-1.109.13-2.26.1-3.399.05 0-.09-.01-.18-.021-.27.011-.01.03-.01.04-.02-.01 0-.029 0-.04.01-.279-4.54-.79-8.8-1.95-13.38-.579-2.27-2.67-7.84-5.1-12.25-.4-.72-.8-1.4-1.21-2.04.3.67.59 1.35.85 2.05 2.421 6.29 3.271 14.06 4.381 26.28-2.79.02-6.21-.83-8.98-.13.23-8.92.4-16.72-3.11-26.27-.09-.27-.189-.53-.29-.8v.65c.018 10.723-.445 18.599-1.341 27.3l-1.868.208c-.281-6.221-.846-14.428-1.7-19.028-1.32-7.09-2.931-12.55-4.62-17.04-.29-.8-.58-1.55-.88-2.28.02.47.05.94.08 1.41l.06.89c1.37 19.23 2.05 29.71 2.33 35.64-.43-.02-.91-.01-1.45.05-1.93.2-3.81.71-5.75.89-.1.01-.2.02-.31.01-.641-3.39-.811-6.35-.92-9.67a.028.028 0 010-.04 9.525 9.525 0 01-.021-.56 37.702 37.702 0 00-.68 7.91c.01.39.04 1.22.08 2.26-1.971-.27-4.221-1-6.13-.84-.41-2.81-.541-5.15-.601-5.79-.5-5.21-2.49-17.76-2.67-28.99-.01-.83-.01-1.65 0-2.46-.03.08-.06.17-.09.26-.24.73-.49 1.52-.73 2.38-2.43 8.47-4.82 22.83-3.8 33.37-1.58.02-2.19-.74-7.46.6-.66-4.44-1.37-9.72-1.83-16.91-.05-.68-.09-1.39-.12-2.11-.13.69-.27 1.39-.4 2.12-.85 4.72-1.57 10.17-1.12 16.04-1.97-.09-3.37-.38-4.54-.6l-.28-.06c-.91-.17-1.7-.29-2.55-.22.04-9.19.5-23.44 1.29-27.48l.15-.72c.04-.19.08-.38.13-.57-.24.37-.46.73-.67 1.11v.01c-2.87 5.07-4 11.09-4.68 16.86-.26 2.15-.57 6.99-.64 11.66-.66.18-1.32.34-1.98.36-2.37.18-5.19-2.63-9.53-1.96.26-2.61.69-5.89 1.39-10.11.13-.77.27-1.54.43-2.3.12-.56.24-1.12.37-1.68 1.53-6.51 4.05-12.69 7.29-18.56-4.84 7.94-7.48 15.26-8.86 21.6-2.1 4.37-3.69 9.15-4.28 13.58-.96-.58-2.05-1.07-3.28-1.24a3.26 3.26 0 00-.7-.07c-.67-.05-1.38.01-2.14.2 1.06-5.01 2.81-10.72 4.72-16.16.05-.14.1-.27.14-.41 2.31-6.51 4.81-12.58 6.62-16.49 4.05-8.76 9.38-13.92 17.64-22.9-7.84 7.83-14.29 13.62-18.31 21.5-2.34 4.59-4.76 9.25-6.34 14.17-1.32 4.14-3.99 12.8-5.18 20.49-.02.08-.03.16-.04.23.24-.08.47-.13.7-.18a8.668 8.668 0 011.384-.166c-1.706 21.073 1.026 39.395 7.971 68.821 0 0 1.324 6.811 2.002 12.007 2.208 19.151 1.688 29.073 1.495 63.551.009 5.47-.461 11.988-.714 17.839-5.923-.293-11.821-.83-17.718-1.401.91-2.79 1.93-5.59 2.73-8.08 4.77-14.79 7.95-48.95 1.23-86.431 4.23 28.811 3.22 58.641-.75 81.271-.67 3.82-2.34 8.6-3.64 13.2-6.5-.63-12.99-1.271-19.51-1.61-3.19-.17-6.16-.24-9.08-.29 16.37-39.41 18.46-57.8 16.27-124.56-.68-20.86-1.4-40.54 8.37-65.61 16.17-41.49 46.03-49.89 65.84-44.35.189.04.38.1.57.15.27-.03.54-.07.81-.1 9.23-1.1 16.92.36 26.6 7.13 23.62 16.52 35.21 48.19 36.87 76.97 1.65 28.58-4.13 64.52.98 100.85 1.78 12.64 5.04 24.949 8.85 37.12.44 1.51 3.83 9.34 6.96 16.529-3.54.361-9.22.541-25.54.231z" fill="#891b03"/></svg>