<svg xmlns="http://www.w3.org/2000/svg" width="500" height="500" viewBox="0 0 200 200" overflow="hidden"><defs><radialGradient id="s" cx="100" cy="113" r="40" gradientUnits="userSpaceOnUse" class="svga-on-canvas-facehighlight-gradient-single-0"><stop stop-opacity=".5" stop-color="#e8c1b6" offset="0"/><stop stop-opacity="0" stop-color="#d9a494" offset=".9"/></radialGradient><radialGradient id="t" cx="100" cy="57" r="36" gradientUnits="userSpaceOnUse" class="svga-on-canvas-facehighlight-gradient-single-1"><stop stop-opacity=".5" stop-color="#e8c1b6" offset="0"/><stop stop-opacity="0" stop-color="#d9a494" offset=".9"/></radialGradient><radialGradient id="d" cx="-558.588" cy="-490.918" r="84.646" gradientTransform="matrix(.096 -.0248 .0245 .0961 140.548 120.358)" gradientUnits="userSpaceOnUse" class="svga-on-canvas-eyesiris-gradient-left-1"><stop stop-opacity=".8" stop-color="#fff" offset="0"/><stop stop-opacity="0" stop-color="#fff" offset="1"/></radialGradient><radialGradient id="e" cx="-565.337" cy="-492.691" r="84.644" gradientTransform="matrix(.0991 .00089 -.0011 .0991 130.377 136.353)" gradientUnits="userSpaceOnUse" class="svga-on-canvas-eyesiris-gradient-left-2"><stop stop-opacity=".8" stop-color="#fff" offset="0"/><stop stop-opacity="0" stop-color="#fff" offset="1"/></radialGradient><radialGradient id="l" cx="-578.76" cy="-490.73" r="84.646" gradientTransform="matrix(.096 -.0248 .0245 .0961 192.48 119.84)" gradientUnits="userSpaceOnUse" class="svga-on-canvas-eyesiris-gradient-right-1"><stop stop-opacity=".8" stop-color="#fff" offset="0"/><stop stop-opacity="0" stop-color="#fff" offset="1"/></radialGradient><radialGradient id="m" cx="-584.778" cy="-487.329" r="84.644" gradientTransform="matrix(.0991 .00089 -.0011 .0991 182.31 135.839)" gradientUnits="userSpaceOnUse" class="svga-on-canvas-eyesiris-gradient-right-2"><stop stop-opacity=".8" stop-color="#fff" offset="0"/><stop stop-opacity="0" stop-color="#fff" offset="1"/></radialGradient><radialGradient id="c" cx="126.391" cy="85.989" r="13.763" gradientTransform="matrix(-1.0172 0 0 1.0172 202.565 -1.469)" gradientUnits="userSpaceOnUse" class="svga-on-canvas-eyesback-gradient-left-0"><stop stop-color="#fff" offset="0"/><stop stop-color="#fdfefe" offset=".544"/><stop stop-color="#f6f8f9" offset=".74"/><stop stop-color="#eaeff2" offset=".879"/><stop stop-color="#d9e3e8" offset=".992"/><stop stop-color="#d8e2e7" offset="1"/></radialGradient><radialGradient id="k" cx="126.391" cy="85.989" r="13.763" gradientTransform="translate(-2.565 -1.469) scale(1.0172)" gradientUnits="userSpaceOnUse" class="svga-on-canvas-eyesback-gradient-right-0"><stop stop-color="#fff" offset="0"/><stop stop-color="#fdfefe" offset=".544"/><stop stop-color="#f6f8f9" offset=".74"/><stop stop-color="#eaeff2" offset=".879"/><stop stop-color="#d9e3e8" offset=".992"/><stop stop-color="#d8e2e7" offset="1"/></radialGradient><radialGradient id="i" cx="123.411" cy="85.41" fx="136.047" fy="85.446" r="17.971" gradientTransform="matrix(.9998 .0208 .0166 -.7998 -48.217 151.155)" gradientUnits="userSpaceOnUse" class="svga-on-canvas-eyesfront-gradient-left-3"><stop stop-color="#ca8975" offset="0"/><stop stop-opacity=".3" stop-color="#ca8975" offset=".7"/><stop stop-opacity="0" stop-color="#d9a494" offset="1"/></radialGradient><radialGradient id="j" cx="78.542" cy="109.585" r="29.473" gradientTransform="matrix(.9362 -.0488 .049 .9315 -2.54 10.689)" gradientUnits="userSpaceOnUse" class="svga-on-canvas-eyesfront-gradient-left-4"><stop stop-opacity="0" offset=".95"/><stop stop-opacity=".3" offset="1"/></radialGradient><radialGradient id="q" cx="123.411" cy="85.41" fx="136.047" fy="85.446" r="17.971" gradientTransform="matrix(-.9998 .0208 -.0166 -.7998 248.217 151.155)" gradientUnits="userSpaceOnUse" class="svga-on-canvas-eyesfront-gradient-right-3"><stop stop-color="#ca8975" offset="0"/><stop stop-opacity=".3" stop-color="#ca8975" offset=".7"/><stop stop-opacity="0" stop-color="#d9a494" offset="1"/></radialGradient><radialGradient id="r" cx="78.542" cy="109.585" r="29.473" gradientTransform="matrix(-.9362 -.0488 -.049 .9315 202.54 10.689)" gradientUnits="userSpaceOnUse" class="svga-on-canvas-eyesfront-gradient-right-4"><stop stop-opacity="0" offset=".95"/><stop stop-opacity=".3" offset="1"/></radialGradient><linearGradient id="f" x1="122.283" y1="93.047" x2="123.61" y2="91.466" gradientTransform="translate(-52)" gradientUnits="userSpaceOnUse" class="svga-on-canvas-eyesiris-gradient-left-5"><stop stop-color="#fff" offset="0"/><stop stop-opacity="0" stop-color="#fff" offset="1"/></linearGradient><linearGradient id="g" x1="127" y1="85" x2="125" y2="87" gradientTransform="translate(-50)" gradientUnits="userSpaceOnUse" class="svga-on-canvas-eyesiris-gradient-left-6"><stop stop-color="#fff" offset="0"/><stop stop-opacity="0" stop-color="#fff" offset="1"/></linearGradient><linearGradient id="h" x1="130" y1="81" x2="126" y2="85" gradientTransform="translate(-50)" gradientUnits="userSpaceOnUse" class="svga-on-canvas-eyesiris-gradient-left-7"><stop stop-color="#fff" offset="0"/><stop stop-opacity="0" stop-color="#fff" offset="1"/></linearGradient><linearGradient id="n" x1="120.284" y1="93.047" x2="121.611" y2="91.467" gradientUnits="userSpaceOnUse" class="svga-on-canvas-eyesiris-gradient-right-5"><stop stop-color="#fff" offset="0"/><stop stop-opacity="0" stop-color="#fff" offset="1"/></linearGradient><linearGradient id="o" x1="127" y1="85" x2="125" y2="87" gradientUnits="userSpaceOnUse" class="svga-on-canvas-eyesiris-gradient-right-6"><stop stop-color="#fff" offset="0"/><stop stop-opacity="0" stop-color="#fff" offset="1"/></linearGradient><linearGradient id="p" x1="130" y1="81" x2="126" y2="85" gradientUnits="userSpaceOnUse" class="svga-on-canvas-eyesiris-gradient-right-7"><stop stop-color="#fff" offset="0"/><stop stop-opacity="0" stop-color="#fff" offset="1"/></linearGradient><linearGradient id="b" x1="100" y1="142" x2="100" y2="138" gradientUnits="userSpaceOnUse" class="svga-on-canvas-mouth-gradient-single-0"><stop stop-color="#d19684" offset=".1"/><stop stop-color="#ca8975" offset="1"/></linearGradient><linearGradient id="a" x1="99.98" y1="171.27" x2="99.98" y2="136.351" gradientUnits="userSpaceOnUse" class="svga-on-canvas-chinshadow-gradient-single-0"><stop stop-opacity=".8" stop-color="#ca8975" offset="0"/><stop stop-color="#ab5a41" offset=".7"/></linearGradient></defs><path d="M225 225H-25V-25h250v250z" fill="#f9f2e7"/><path d="M103-37.266L99.131 71.999 96.536-37.598l6.464.332zm-29.797 1.001L91.025 71.904 79.65-36.835l-6.447.57zm-6.334 19.667l24.577 89.921-22.577-91.254-2 1.333zM26.203-29.931L87.817 74.773 32.243-32.257l-6.04 2.326zm-2.658 13.477l60.278 91.568-58.287-95.379-1.991 3.811zm-35.41-12.303l57.2 61.532L-6.7-32.658l-5.165 3.901zM-15.464-.265l94.073 82.174-89.74-88.174-4.333 6zm-14.667 2.334l85.667 64.667L-29.574-.77l-.557 2.839zm4.941 40.725l99.642 45.712-96.509-51.375-3.133 5.663zm-18.941.608L56.536 85.069-44.797 39.735l.666 3.667zm-10.644 32.116L53.607 91.994l-109.599-19.45 1.217 2.974zm10.673 22.048l109.62 1.232-109.063-7.68-.557 6.448zm-14.029-45.497l89 27.333-89.667-31 .667 3.667zM79.65 236.833l11.375-108.739-17.822 108.169 6.447.57zm-10.781-18.904l22.577-91.254-24.577 89.921 2 1.333zm-38.043 22.364l47.61-91.392-53.65 89.065 6.04 2.327zm-5.29-20.03l58.287-95.379-60.278 91.568 1.991 3.811zm-36.748 19.3l67.27-86.188-72.435 82.287 5.165 3.901zm.081-33.3l89.74-88.174-94.073 82.174 4.333 6zm-18.443-5.494l85.11-67.506-85.667 64.666.557 2.84zm7.516-37.902l96.509-51.376-99.642 45.713 3.133 5.663zm-22.739-2.604l101.333-45.334-100.667 41.667-.666 3.667zm-11.195-32.809l109.599-19.449-108.382 16.475-1.217 2.974zm-2.805 24.143l89.667-31.001-89 27.333-.667 3.668zM120.438-43.631L106.913 64.863l14.599-89.479-1.074-19.015zm21.375 11.761L113.32 73.685l34.767-103.968-6.274-1.587zm7.643 20.376L112.68 75.019 151.219-9.86l-1.763-1.634zm38.436-8.33l-71.859 96.851 77.454-93.596-5.595-3.255zm4.718 12.905l-72.688 84.917L193.971-2.84l-1.361-4.079zm33.869-12.54l-61.838 61.764 66.318-57.093-4.48-4.671zm.111 32.182L123.991 85.534l105.924-66.199-3.325-6.612zm17.336 8.352l-94.745 53.14 94.846-50.248-.101-2.892zm-13.437 36.228L127.048 92.708l105.635-29.315-2.194-6.09zm22.038 6.181L145.283 92.157l106.004-25.158 1.24-3.515zm3.278 32.892l-109.623-.937 112.19 2.214-2.567-1.277zm-16.515 13.403l-108.899-9.73 108.426 16.185.473-6.455zm2.008 16.304l-67.52-9.087 66.28 12.603 1.24-3.516zM104.827 238.789l-.426-109.627-6.031 109.166 6.457.461zm9.375-18.413l-9.991-92.682 7.806 93.681 2.185-.999zm48.408 17.236l-54.587-110.773 48.254 112.112 6.333-1.339zm5.361-12.955l-55.949-97.521L165.4 228.103l2.571-3.446zm30.113-7.337l-79.836-96.065 74.605 101.301 5.231-5.236zm14.852.024L138.621 139.9l73.314 80.159 1.001-2.715zm1.585-40.993l-91.122-60.95 87.131 66.045 3.991-5.095zm18.798 2.406l-92.776-57.118 92.852 60.845-.076-3.727zm15.607-30.019l-104.393-33.471 105.123 36.601-.73-3.13zm-.408 23.684l-83.533-41.113 83.608 44.841-.075-3.728z" fill="#eadac1"/><path d="M151.582 41.064l-99.508-5.662S27 218.282 27 223.998c0 0 100.899.72 143.907 0-.804-7.919-19.325-182.934-19.325-182.934z" fill="#85481f"/><path d="M190.858 199.866c-6.008-10.158-13.474-11.973-19.628-13.936-6.323-2.016-19.346-3.178-26.449-4.6-6.86-1.373-23.153-5.789-23.339-13.488-.192-8.066 4.291-40.09 4.291-40.09H74.005s4.487 32.023 4.294 40.09c-.184 7.699-16.48 12.115-23.341 13.488-7.104 1.422-20.125 2.584-26.448 4.6-6.156 1.963-13.624 3.777-19.632 13.936-3.644 6.16-6.008 16.133-6.008 27.133h194c-.001-11-2.361-20.973-6.012-27.133z" fill="#d9a494"/><path d="M121.442 167.843c2.495 10.929 18.165 13.698 26.293 15.325 21.909 4.379 33.772 5.134 42.297 19.539 2.903 4.916 5.459 15.864 5.962 24.153 1.835.291.531-17.432-5.136-26.994-9.742-16.472-29.089-15.135-46.077-18.535-6.86-1.373-23.153-5.789-23.339-13.488zm-42.884 0c-.186 7.699-16.479 12.115-23.339 13.488-16.988 3.4-36.335 2.063-46.077 18.535-5.667 9.563-6.971 27.285-5.136 26.994.503-8.289 3.059-19.237 5.962-24.153 8.524-14.405 20.388-15.16 42.297-19.539 8.128-1.627 23.798-4.397 26.293-15.325z" fill="#e8c1b6"/><path d="M51.206 189.513s28.641.299 33.473 1.885c2.314.758 8.372 5.633 8.372 5.633s-6.556-3.17-8.658-3.758c-4.883-1.364-33.187-3.76-33.187-3.76zm48.589 10.486c2.053-.041 7.887-3.799 7.887-3.799s-5.574 2.059-7.342 2.16c-1.491.086-6.366-1.238-6.366-1.238s4.138 2.91 5.821 2.877zm17.213-7.242c6.75-1.818 29.786-3.23 29.786-3.23s-23.791-.516-30.51 1.725c-2.252.752-7.562 5.16-7.562 5.16s6.064-3.058 8.286-3.655z" fill="#ca8975"/><path d="M190.858 199.866c-9.741-16.471-29.122-15.142-46.077-18.535-6.86-1.373-23.153-5.789-23.339-13.488-.192-8.066 4.291-40.09 4.291-40.09H74.005s4.487 32.023 4.294 40.09c-.184 7.699-16.48 12.115-23.341 13.488-7.104 1.422-20.125 2.584-26.448 4.6-6.156 1.963-13.624 3.777-19.632 13.936C5.234 206.027 2.87 216 2.87 227h194c-.001-11.001-2.361-20.974-6.012-27.134z" fill="none" stroke="#ab5a41" stroke-width="1.5"/><path d="M100.045 171.737c5.593-.009 13.488-3.608 20.908-8.44.448-6.688 1.717-17.243 2.734-25.146-13.955-1.813-33.739-1.771-47.623.105 1.008 7.831 2.258 18.226 2.713 24.89 7.533 4.917 15.593 8.6 21.268 8.591z" fill="url(#a)"/><path d="M2.258 224.437c-2.481-20.683 6.836-35.34 29.389-41.745 6.619-1.876 14.221-2.843 15.221-2.903-.032-.179-.039-.169-.039-.532h-.03c.074-6.837 7.69-5.493 9.87-5.953 8.623-1.833 11.551-10.877 21.398-8.496.242 2.074.063 4.47-1.168 13.335 9.286 19.972 19.359 18.247 22.939 29.43 3.245-10.001 14.771-11.587 23.26-29.433-.558-5.015-1.771-9.396-1.261-13.568l.05-.036c6.596-2.198 9.477.747 12.104 3.281 8.005 7.727 12.259 2.831 16.262 6.355 1.592 1.403 2.167 3.398 2.167 5.54 18.244 2.649 49.051 3.68 44.89 44.185l.079.09c-18.463-.002-142.967 4.622-195.131.45z" fill="#152c5e"/><path d="M100.187 206.617c3.609-9.059 14.44-11.18 22.618-27.884.08-.092.291-.507.557-1.056-.135-1.56-.313-3.188-1.034-4.899-.442-2.854-.796-5.524-.496-8.114 1.68.489 3.271 1.072 4.362 2.264 1.601 1.748.386 4.776-1.148 7.69-2.882 12.554-10.097 21.619-24.859 31.999zm68.682-9.215c2.5 8.834 4.167 18.167 2.165 27.128 1.67-.041 2.288-.081 3.84-.118.692-9.41-1.005-19.676-6.005-27.01zM132 199c-10.913 6.366-21.885 8.816-31.799 17.276-9.916-8.437-20.994-9.911-31.906-16.276-5-2-12.672-9.104-17.36-14.104 14.75 22.375 25.309 16.026 48.934 31.108 23.625-15.082 34.25-9.957 49-32.332C144.182 189.673 137 197 132 199zm-32.204 8.68c-3.609-9.059-14.018-12.242-22.196-28.946-.08-.092-.291-.507-.557-1.056.135-1.56-.22-3.273.5-4.985.442-2.854.635-5.185.335-7.774-1.68.489-2.577.818-3.667 2.01-1.601 1.748-.386 4.776 1.148 7.69 2.882 12.553 9.675 22.681 24.437 33.061zm-71.26-11.278c-3.667 8-3.697 18.6-3.005 28.01 1.552.037 2.17.077 3.84.118-2.002-8.961-1.502-19.128-.835-28.128zm71.333 13.007c13.958-4.18 28.804-11.829 41.144-30.515-11.142 15.02-27.705 23.887-40.827 29.327-13.536-4.901-29.742-14.66-39.19-27.776 11.07 18.122 24.915 24.784 38.873 28.964z" fill="#0a1f4f"/><path d="M197.389 223.985l-.318.001c-.359-7.608-1.073-15.39-5.076-22.251-8-15-25-15.375-40.994-18.735-2 0-3.032-5.541-4.506-7.015-1.25-1.25-10.875-1.25-13.926-9.508.494.438.963.895 1.423 1.338 8.005 7.727 12.259 2.831 16.262 6.355 1.592 1.403 2.167 3.398 2.167 5.54 18.244 2.649 49.051 3.68 44.89 44.185l.078.09zm-195.372 1l.318.001c.359-7.608 1.173-13.796 5.176-20.657 8-15 25.299-18.367 41.293-21.728 2.939-1.116 1.391-3.242 2.864-4.716 1.25-1.25 8.2-1.275 17.825-11.4-.494.438-2.62.887-3.08 1.33-8.005 7.727-14.045 5.545-16.262 6.355-2.735 1-3.158 3.423-3.158 5.564-18.244 2.649-46.994 8-44.898 45.16l-.078.091z" fill="#233b6d"/><path d="M196.159 204.835c-6.314-22.445-28.114-22.805-43.64-25.21 0-8.395-7.898-6.726-11.53-7.5-8.012-1.717-7.761-10.998-19.24-7.649-.483 3.964.445 7.44 1.26 13.62-8.416 17.668-20.089 19.653-23.169 29.149-3.372-10.536-13.67-9.479-22.84-29.09 1.274-9.228 1.403-11.365 1.16-13.43-8.753-1.998-10.727 3.679-18.64 7.47-4.8 2.249-6.159.228-10.28 2.24-1.71.83-2.57 3.08-2.51 4.91-.01.01 0 .01 0 .01 0 .12 0 .229.02.34-1 .065-8.597 1.049-15.13 2.9-22.821 6.48-31.958 21.382-29.45 41.939 10.13 0 20.114 3.728 175.28-.069a2335.22 2335.22 0 0119.939-.381c.18-.999 1.086-10.987-1.23-19.249zm-193.85 19.48c-1.146-27.296 17.235-39.776 44.34-44.05 15.316 25.402 34.063 21.702 53.02 35.91-17.183-14.276-35.189-12.385-52.5-36.25-.194-1.997.851-4.209 3.01-5.07 1.53-.601 3.17-.43 4.77-.42 6.04.05 10.69-4.681 15.16-8.15 2.13-1.42 5.3-1.49 7.84-1.1.198 3.302-1.077 8.271-1.5 11.79-.89-1.96-1.73-3.971-2.57-5.98 10.623 31.175 21.215 24.115 25.95 37.05-1-.279-17.902-6.352-31.37-19.739-2.86-2.831-8.527-9.069-8.96-9.65 16.676 22.564 27.331 23.715 40.38 29.53 0 .01.01.03.01.04.011.033.064.188.08.22.06-.03.13-.06.2-.08a.09.09 0 01.07-.03c1.807-.882 13.688-5.019 22.729-11.229 9.309-6.403 19.925-20.281 19.131-19.28-15.556 15.814-17.958 19.4-41.931 30.37-.02 0-.04-.01-.06-.02-.02-.11-.05-.221-.09-.33a.825.825 0 01.05-.15c4.212-11.556 16.587-7.09 26.84-38.78-1.05 2.74-2.15 5.44-3.39 8.08-.389-4.649-1.741-8.305-1.591-12.13 1.777-.593 6.598-.873 7.931.46 5.566 4.755 6.012 8.24 15.08 8.24 2.9.019 6.703.384 7.13 5.71-.53.786-4.503 5.471-8.26 9.2-13.155 13.082-24.923 13.333-43.13 27.25.45 0 1.37-.96 1.73-1.21 14.236-10.101 24.469-9.945 37.56-20.641 6.031-4.927 11.838-12.81 12.46-13.81.021.01.051.01.07.01 24.023 4.132 45.554 8.064 44.61 43.83-107.673-.673-141.546 2.188-194.799.409z" fill="#000f30"/><path d="M158.918 76.762h-.005c-.012.053-9.983 40.707-18.186 53.285-6.452 9.894-28.899 29.205-40.573 29.223-11.671.02-34.17-19.225-40.652-29.1C51.261 117.618 41.15 77 41.138 76.946h-.001a60.48 60.48 0 01-2.002-15.382C39.082 28.09 66.289.919 99.907.867 133.528.815 160.82 27.9 160.87 61.374a60.45 60.45 0 01-1.952 15.388z" fill="#d9a494"/><path d="M125.898 6.622c19.104 10.248 32.075 30.355 32.039 53.476a60.48 60.48 0 01-2.003 15.382h-.001c-.012.053-10.123 40.672-18.365 53.224-5.946 9.061-25.288 28.788-37.566 28.788-12.279 0-31.619-19.728-37.566-28.788-8.241-12.552-18.353-53.17-18.364-53.224h-.002a60.48 60.48 0 01-2.002-15.382C42.031 36.977 55.003 16.87 74.105 6.622 53.411 16.324 39.096 37.28 39.134 61.564a60.48 60.48 0 002.002 15.382h.001c.013.054 10.124 40.672 18.366 53.224 4.416 6.728 16.656 19.762 27.233 25.049a52.391 52.391 0 01-1.599-.717c5.408 2.875 10.664 4.763 14.713 4.768.049 0 .103-.005.152-.005s.103.005.152.005c4.048-.005 9.304-1.893 14.713-4.768-.538.253-1.071.491-1.601.718 10.577-5.287 22.818-18.322 27.234-25.05 8.242-12.552 18.354-53.17 18.364-53.224h.002a60.48 60.48 0 002.002-15.382c.04-24.284-14.273-45.24-34.97-54.942z" fill="#d19684"/><path d="M158.918 76.762h-.005c-.012.053-9.983 40.707-18.186 53.285-6.452 9.894-28.899 29.205-40.573 29.223-11.671.02-34.17-19.225-40.652-29.1C51.261 117.618 41.15 77 41.138 76.946h-.001a60.48 60.48 0 01-2.002-15.382C39.082 28.09 66.289.919 99.907.867 133.528.815 160.82 27.9 160.87 61.374a60.45 60.45 0 01-1.952 15.388z" fill="none" stroke="#ab5a41" stroke-width="1.5"/><path d="M100.356 140.602c-3.24 0-4.597-2.678-4.597-2.678l9.125-.188c0-.001-1.677 2.866-4.528 2.866z" fill="url(#b)"/><path d="M98.886 138c-1.668 0-2.938-.171-3.027-.184a.25.25 0 01-.213-.282.255.255 0 01.282-.214c.037.006 5.699.5 8.766-.195a.25.25 0 01.112.488c-1.321.299-4.724.387-5.92.387zm-13.517-4.444c-.341-.663 4.217-1.252 6.361-1.551 2.848-.396 5.715.208 8.556.479 2.232.213 4.496-.74 6.736-.436 2.484.338 7.716.804 7.347 1.594-.256.548-4.696-.308-7.049-.396-2.183-.084-4.387.556-6.563.73-2.703.217-5.375-1.096-8.07-.933-2.44.147-7.028 1.076-7.318.513z" fill="#ab5a41"/><path d="M80.854 79.416c2.436 1.371 4.469 3.053 6.65 5.942.047.184.088.364.1.534.218 3.267-1.324 6.223-3.851 8.345-2.66 1.242-9.155 4.42-18.706-.284-1.653-1.546-2.925-3.497-3.748-5.672.075.106.168.208.236.317-.439-.952-.988-2.855-.988-4.983 8.836-3.248 13.105-4.94 20.307-4.199z" fill="url(#c)"/><path d="M83.5 87.5a8.5 8.5 0 01-17 0c0-4.694 3.807-8.5 8.501-8.5a8.499 8.499 0 018.499 8.5z" fill="#4e60a3"/><path d="M74.048 78.595l-.101.012c.041.191.081.384.12.575l-.019-.587zm.018.585c.099 2.793.262 5.282.732 6.183.249-.986-.173-3.443-.732-6.183zm.734 6.185c-.061.236-.153.397-.294.452-.142.053-.319-.008-.521-.146.058.236.052.422-.051.537-.102.114-.285.142-.527.11.16.184.242.353.206.5-.039.148-.189.258-.415.343.225.088.376.199.411.347.036.148-.046.315-.205.498.241-.029.426.001.525.115.101.114.106.301.05.537.199-.137.376-.197.518-.142.143.053.234.216.291.454.114-.215.243-.353.396-.368.148-.02.307.084.466.267.002-.244.053-.423.181-.51.124-.086.311-.069.537.018-.11-.216-.148-.398-.078-.534.071-.135.245-.207.487-.235-.199-.14-.321-.283-.318-.436-.001-.153.119-.296.321-.434-.241-.03-.412-.103-.484-.237-.07-.135-.031-.319.081-.535-.229.085-.413.102-.538.016-.126-.086-.177-.267-.178-.51-.158.182-.316.282-.468.262-.152-.02-.282-.154-.393-.369zm.86.106c.679-.758 1.446-3.13 2.224-5.813-1.21 2.516-2.222 4.795-2.224 5.813zm2.223-5.814c.085-.172.172-.348.253-.524a1.707 1.707 0 01-.09-.037c-.054.188-.108.376-.163.561zm-1.506 6.308c.953-.357 2.736-2.101 4.671-4.115-2.24 1.667-4.197 3.215-4.671 4.115zm4.671-4.114c.142-.106.287-.213.433-.318-.021-.025-.043-.047-.06-.07-.124.127-.247.259-.373.388zm-4.271 4.887c1.01.125 3.399-.591 6.052-1.475-2.761.435-5.212.896-6.052 1.475zm6.052-1.475c.156-.022.318-.048.478-.073l-.02-.081-.458.154zm-6.054 2.343c.836.583 3.284 1.057 6.038 1.505-2.642-.897-5.027-1.627-6.038-1.505zm6.038 1.505c.135.047.271.095.404.138a.923.923 0 00.018-.071c-.137-.02-.281-.043-.422-.067zm-6.446-.736c.471.902 2.42 2.462 4.649 4.142-1.924-2.025-3.696-3.78-4.649-4.142zm4.651 4.139l.253.268a.468.468 0 01.043-.046c-.099-.074-.201-.149-.296-.222zm-5.366-3.647c-.004 1.019.995 3.302 2.191 5.827-.764-2.688-1.516-5.066-2.191-5.827zm2.192 5.827c.03.106.062.215.09.324.021-.008.036-.015.055-.02a29.277 29.277 0 00-.145-.304zm-3.056-5.726c-.476.902-.653 3.386-.768 6.178.574-2.733 1.011-5.188.768-6.178zm-.767 6.178c-.023.106-.044.214-.066.323.02.004.035.005.055.007l.011-.33zm-.042-6.489c-.844.576-2.154 2.697-3.553 5.114 1.778-2.154 3.307-4.126 3.553-5.114zm-3.552 5.114c-.074.09-.152.185-.229.274.018.012.034.02.053.034l.176-.308zm2.978-5.765c-1.015.119-3.16 1.385-5.522 2.875 2.577-1.08 4.843-2.113 5.522-2.875zm-5.522 2.878c-.122.051-.247.102-.372.156.009.019.021.038.033.057.114-.07.227-.143.339-.213zm5.315-3.723c-.951-.365-3.441-.238-6.227-.016 2.784.238 5.273.376 6.227.016zm-6.226-.016a85.865 85.865 0 00-.457-.041c-.001.027-.003.053-.001.08.155-.015.308-.028.458-.039zm6.435-.827c-.67-.763-2.932-1.809-5.499-2.905 2.351 1.502 4.489 2.783 5.499 2.905zm-5.499-2.905l-.446-.285c-.013.026-.026.053-.041.078.164.07.329.138.487.207zm6.077 2.257c-.239-.989-1.758-2.967-3.521-5.132 1.385 2.425 2.683 4.552 3.521 5.132zm-3.52-5.132c-.095-.163-.188-.329-.281-.494l-.079.054c.119.147.243.295.36.44z" fill="url(#d)" transform="translate(0 .5)"/><path d="M76.255 78.622l-.1-.014-.034.586c.043-.19.09-.382.134-.572zm-.135.571c-.627 2.724-1.114 5.17-.892 6.162.496-.888.722-3.371.892-6.162zm-.891 6.163c-.119.212-.25.344-.401.36-.15.014-.306-.091-.464-.276-.006.243-.06.421-.188.505-.128.083-.313.063-.539-.03.107.219.143.403.069.536-.075.133-.249.201-.489.224.194.144.312.289.308.441-.003.152-.126.292-.327.428.24.034.41.111.478.247.067.136.025.318-.091.532.229-.081.414-.093.537-.003.123.088.17.27.164.514.166-.177.325-.278.478-.253.148.02.274.16.382.379.064-.236.16-.396.306-.447.143-.051.318.014.515.157-.051-.237-.041-.423.063-.536s.29-.136.532-.102c-.157-.187-.238-.356-.195-.504.039-.148.192-.255.423-.336-.226-.091-.372-.206-.407-.354-.032-.149.053-.316.218-.495-.243.023-.427-.009-.524-.125-.099-.115-.102-.303-.039-.538-.201.134-.38.19-.521.132-.147-.056-.236-.219-.288-.456zm.804.327c.852-.558 2.206-2.65 3.652-5.04-1.82 2.117-3.387 4.056-3.652 5.04zm3.652-5.042c.126-.145.255-.292.38-.44-.027-.019-.052-.04-.078-.06l-.302.5zm-3.088 5.704c1.013-.099 3.187-1.322 5.577-2.767-2.596 1.031-4.887 2.02-5.577 2.767zm5.576-2.766c.165-.065.333-.131.501-.195-.014-.029-.029-.056-.04-.083-.153.091-.306.186-.461.278zm-5.39 3.615c.943.382 3.437.309 6.227.142-2.779-.294-5.265-.483-6.227-.142zm6.227.142c.158.019.32.036.48.053l.003-.083-.483.03zm-6.452.697c.655.78 2.898 1.871 5.442 3.017-2.321-1.551-4.435-2.873-5.442-3.017zM82 91.049c.117.08.236.161.354.238.013-.021.024-.042.035-.063a21.45 21.45 0 01-.389-.175zm-6.036-2.379c.221.993 1.699 3.004 3.419 5.205-1.335-2.456-2.592-4.609-3.419-5.205zm3.42 5.202c.059.106.117.217.176.325a.595.595 0 01.053-.034l-.229-.291zm-4.238-4.912c-.267.982.107 3.447.608 6.195-.043-2.794-.153-5.285-.608-6.195zm.608 6.195c.002.11.004.224.004.337a.39.39 0 01.058-.005l-.062-.332zm-1.469-6.321c-.693.748-1.508 3.102-2.341 5.769 1.261-2.493 2.321-4.75 2.341-5.769zm-2.341 5.769c-.05.096-.099.195-.147.295l.051.021.096-.316zm1.64-6.279c-.964.338-2.779 2.048-4.756 4.021 2.276-1.621 4.263-3.13 4.756-4.021zm-4.756 4.021l-.29.206c.014.016.027.028.041.045.082-.085.167-.168.249-.251zm4.369-4.799c-1.01-.148-3.409.521-6.078 1.349 2.77-.377 5.226-.789 6.078-1.349zm-6.078 1.351c-.131.018-.265.034-.4.054a.744.744 0 00.018.063c.128-.037.256-.078.382-.117zm6.098-2.22c-.824-.599-3.263-1.121-6.01-1.627 2.626.95 4.995 1.727 6.01 1.627zm-6.01-1.627l-.432-.158c-.008.026-.016.051-.021.077.153.026.306.053.453.081zm6.43.867c-.45-.911-2.363-2.506-4.561-4.23 1.883 2.06 3.617 3.851 4.561 4.23zm-4.561-4.229l-.355-.391-.061.065c.14.109.281.218.416.326zm5.287 3.752c.024-1.017-.93-3.321-2.073-5.868.709 2.701 1.414 5.091 2.073 5.868zm-2.073-5.868c-.049-.182-.096-.366-.144-.55l-.09.032c.078.173.158.347.234.518z" fill="url(#e)" transform="translate(0 .5)"/><path d="M78.334 87.5a3.334 3.334 0 11-6.667-.003 3.334 3.334 0 016.667.003z" fill="#4e60a3"/><path d="M78.334 87.5a3.334 3.334 0 11-6.667-.003 3.334 3.334 0 016.667.003z" opacity=".9"/><path d="M70.35 90.893a1.389 1.389 0 111.548 2.308 1.389 1.389 0 01-1.548-2.308z" fill="url(#f)" opacity=".5" transform="translate(0 .5)"/><path d="M77.635 86.536c-.356.53-1.373.468-2.275-.136-.903-.605-1.346-1.526-.991-2.055l.001-.001c.354-.53 1.372-.469 2.274.137.903.604 1.346 1.524.992 2.054l-.001.001z" fill="url(#g)" opacity=".5" transform="translate(0 .5)"/><path d="M81.682 85.121c-.806 1.237-2.884 1.31-4.641.166-1.756-1.145-2.527-3.075-1.722-4.311.806-1.235 2.884-1.31 4.641-.166 1.755 1.146 2.525 3.077 1.722 4.311z" fill="url(#h)" opacity=".75" transform="translate(0 .5)"/><path d="M56 88c0 13.808 8.06 24.999 18 24.999S92 101.808 92 88c0-13.809-8.06-25.001-18-25.001S56 74.191 56 88zm5.299.281c.075.106.168.208.236.317-.439-.952-.988-2.855-.988-4.983 8.836-3.248 13.105-4.939 20.307-4.199 2.436 1.371 4.469 3.053 6.65 5.942.047.184.088.364.1.534.218 3.267-1.324 6.223-3.851 8.345-2.66 1.242-9.155 4.42-18.706-.284-1.653-1.546-2.925-3.497-3.748-5.672z" fill="#d9a494"/><path d="M59.401 85.081c.024 8.284 7.916 14.961 17.639 14.918 9.72-.048 17.583-6.796 17.559-15.08-.024-8.286-7.918-14.964-17.641-14.92-9.722.048-17.581 6.796-17.557 15.082zm1.898 3.2c.075.106.168.208.236.317-.439-.952-.988-2.855-.988-4.983 8.836-3.248 13.105-4.939 20.307-4.199 2.436 1.371 4.469 3.053 6.65 5.942.047.184.088.364.1.534.218 3.267-1.324 6.223-3.851 8.345-2.66 1.242-9.155 4.42-18.706-.284-1.653-1.546-2.925-3.497-3.748-5.672z" fill="url(#i)"/><path d="M65.047 93.953c-1.653-1.546-2.925-3.497-3.748-5.672.075.106.168.208.236.317-.439-.952-.988-2.855-.988-4.983 8.836-3.248 13.105-4.939 20.307-4.199 2.436 1.371 4.469 3.053 6.65 5.942.047.184.088.364.1.534.218 3.267-1.324 6.223-3.851 8.345-2.66 1.242-9.155 4.42-18.706-.284z" fill="url(#j)"/><path d="M66.338 77.989c3.414-1.34 14.297-4.254 19.581-1.339-7.571-2.357-15.137.167-19.581 1.339z" fill="#ab5a41"/><path d="M84.036 93.981c-2.524 1.13-9.385 4.81-19.647-.458 5.214 4.994 14.742 4.712 19.647.458zm-.987-15.057c2.323 1.77 3.414 3.542 4.665 6.75-2.263-3.004-4.346-4.705-6.86-6.092-7.201-.726-11.471.933-20.307 4.116 0 2.086.549 3.952.988 4.885-1.601-2.492-5.104-4.364-10.209-6.147 2.632.313 6.078.089 7.684-.439-.786-.515-1.213-1.037-1.646-1.701 2.461.715 4.014.617 6.586-.055-1.376-.106-2.349-.687-3.622-1.701 0 0 4.934.549 6.586.549 2.305 0 4.83-1.976 15.313-1.701 1.563.041 6.146 1.152 6.146 1.152l-5.324.384z" fill="#09152e"/><path d="M119.146 79.416c-2.436 1.371-4.469 3.053-6.65 5.942a3.095 3.095 0 00-.1.534c-.218 3.267 1.324 6.223 3.851 8.345 2.66 1.242 9.155 4.42 18.706-.284 1.653-1.546 2.925-3.497 3.748-5.672-.075.106-.168.208-.236.317.439-.952.988-2.855.988-4.983-8.836-3.248-13.105-4.94-20.307-4.199z" fill="url(#k)"/><path d="M133.5 87.5a8.5 8.5 0 01-17 0c0-4.694 3.807-8.5 8.501-8.5a8.499 8.499 0 018.499 8.5z" fill="#4e60a3"/><path d="M124.048 78.595l-.101.012c.041.191.081.384.12.575l-.019-.587zm.018.585c.099 2.793.262 5.282.732 6.183.249-.986-.173-3.443-.732-6.183zm.734 6.185c-.061.236-.153.397-.294.452-.142.053-.319-.008-.521-.146.058.236.052.422-.051.537-.102.114-.285.142-.527.11.16.184.242.353.206.5-.039.148-.189.258-.415.343.225.088.376.199.411.347.036.148-.046.315-.205.498.241-.029.426.001.525.115.101.114.106.301.05.537.199-.137.376-.197.518-.142.143.053.234.216.291.454.114-.215.243-.353.396-.368.148-.02.307.084.466.267.002-.244.053-.423.181-.51.124-.086.311-.069.537.018-.11-.216-.148-.398-.078-.534.071-.135.245-.207.487-.235-.199-.14-.321-.283-.318-.436-.001-.153.119-.296.321-.434-.241-.03-.412-.103-.484-.237-.07-.135-.031-.319.081-.535-.229.085-.413.102-.538.016-.126-.086-.177-.267-.178-.51-.158.182-.316.282-.468.262-.152-.02-.282-.154-.393-.369zm.86.106c.679-.758 1.446-3.13 2.224-5.813-1.21 2.516-2.222 4.795-2.224 5.813zm2.223-5.814c.085-.172.172-.348.253-.524a1.707 1.707 0 01-.09-.037c-.054.188-.108.376-.163.561zm-1.506 6.308c.953-.357 2.736-2.101 4.671-4.115-2.24 1.667-4.197 3.215-4.671 4.115zm4.671-4.114c.142-.106.287-.213.433-.318-.021-.025-.043-.047-.06-.07-.124.127-.247.259-.373.388zm-4.271 4.887c1.01.125 3.399-.591 6.052-1.475-2.761.435-5.212.896-6.052 1.475zm6.052-1.475c.156-.022.318-.048.478-.073l-.02-.081-.458.154zm-6.054 2.343c.836.583 3.284 1.057 6.038 1.505-2.642-.897-5.027-1.627-6.038-1.505zm6.038 1.505c.135.047.271.095.404.138a.923.923 0 00.018-.071c-.137-.02-.281-.043-.422-.067zm-6.446-.736c.471.902 2.42 2.462 4.649 4.142-1.924-2.025-3.696-3.78-4.649-4.142zm4.651 4.139l.253.268a.468.468 0 01.043-.046c-.099-.074-.201-.149-.296-.222zm-5.366-3.647c-.004 1.019.995 3.302 2.191 5.827-.764-2.688-1.516-5.066-2.191-5.827zm2.192 5.827c.03.106.062.215.09.324.021-.008.036-.015.055-.02a29.277 29.277 0 00-.145-.304zm-3.056-5.726c-.476.902-.653 3.386-.768 6.178.574-2.733 1.011-5.188.768-6.178zm-.767 6.178c-.023.106-.044.214-.066.323.02.004.035.005.055.007l.011-.33zm-.042-6.489c-.844.576-2.154 2.697-3.553 5.114 1.778-2.154 3.307-4.126 3.553-5.114zm-3.552 5.114c-.074.09-.152.185-.229.274.018.012.034.02.053.034l.176-.308zm2.978-5.765c-1.015.119-3.16 1.385-5.522 2.875 2.577-1.08 4.843-2.113 5.522-2.875zm-5.522 2.878c-.122.051-.247.102-.372.156.009.019.021.038.033.057.114-.07.227-.143.339-.213zm5.315-3.723c-.951-.365-3.441-.238-6.227-.016 2.784.238 5.273.376 6.227.016zm-6.226-.016a85.865 85.865 0 00-.457-.041c-.001.027-.003.053-.001.08.155-.015.308-.028.458-.039zm6.435-.827c-.67-.763-2.932-1.809-5.499-2.905 2.351 1.502 4.489 2.783 5.499 2.905zm-5.499-2.905l-.446-.285c-.013.026-.026.053-.041.078.164.07.329.138.487.207zm6.077 2.257c-.239-.989-1.758-2.967-3.521-5.132 1.385 2.425 2.683 4.552 3.521 5.132zm-3.52-5.132c-.095-.163-.188-.329-.281-.494l-.079.054c.119.147.243.295.36.44z" fill="url(#l)" transform="translate(0 .5)"/><path d="M126.255 78.622l-.1-.014-.034.586c.043-.19.09-.382.134-.572zm-.135.571c-.627 2.724-1.114 5.17-.892 6.162.496-.888.722-3.371.892-6.162zm-.891 6.163c-.119.212-.25.344-.401.36-.15.014-.306-.091-.464-.276-.006.243-.06.421-.188.505-.128.083-.313.063-.539-.03.107.219.143.403.069.536-.075.133-.249.201-.489.224.194.144.312.289.308.441-.003.152-.126.292-.327.428.24.034.41.111.478.247.067.136.025.318-.091.532.229-.081.414-.093.537-.003.123.088.17.27.164.514.166-.177.325-.278.478-.253.148.02.274.16.382.379.064-.236.16-.396.306-.447.143-.051.318.014.515.157-.051-.237-.041-.423.063-.536s.29-.136.532-.102c-.157-.187-.238-.356-.195-.504.039-.148.192-.255.423-.336-.226-.091-.372-.206-.407-.354-.032-.149.053-.316.218-.495-.243.023-.427-.009-.524-.125-.099-.115-.102-.303-.039-.538-.201.134-.38.19-.521.132-.147-.056-.236-.219-.288-.456zm.804.327c.852-.558 2.206-2.65 3.652-5.04-1.82 2.117-3.387 4.056-3.652 5.04zm3.652-5.042c.126-.145.255-.292.38-.44-.027-.019-.052-.04-.078-.06l-.302.5zm-3.088 5.704c1.013-.099 3.187-1.322 5.577-2.767-2.596 1.031-4.887 2.02-5.577 2.767zm5.576-2.766c.165-.065.333-.131.501-.195-.014-.029-.029-.056-.04-.083-.153.091-.306.186-.461.278zm-5.39 3.615c.943.382 3.437.309 6.227.142-2.779-.294-5.265-.483-6.227-.142zm6.227.142c.158.019.32.036.48.053l.003-.083-.483.03zm-6.452.697c.655.78 2.898 1.871 5.442 3.017-2.321-1.551-4.435-2.873-5.442-3.017zM132 91.049c.117.08.236.161.354.238.013-.021.024-.042.035-.063a21.45 21.45 0 01-.389-.175zm-6.036-2.379c.221.993 1.699 3.004 3.419 5.205-1.335-2.456-2.592-4.609-3.419-5.205zm3.42 5.202c.059.106.117.217.176.325a.595.595 0 01.053-.034l-.229-.291zm-4.238-4.912c-.267.982.107 3.447.608 6.195-.043-2.794-.153-5.285-.608-6.195zm.608 6.195c.002.11.004.224.004.337a.39.39 0 01.058-.005l-.062-.332zm-1.469-6.321c-.693.748-1.508 3.102-2.341 5.769 1.261-2.493 2.321-4.75 2.341-5.769zm-2.341 5.769c-.05.096-.099.195-.147.295l.051.021.096-.316zm1.64-6.279c-.964.338-2.779 2.048-4.756 4.021 2.276-1.621 4.263-3.13 4.756-4.021zm-4.756 4.021l-.29.206c.014.016.027.028.041.045.082-.085.167-.168.249-.251zm4.369-4.799c-1.01-.148-3.409.521-6.078 1.349 2.77-.377 5.226-.789 6.078-1.349zm-6.078 1.351c-.131.018-.265.034-.4.054a.744.744 0 00.018.063c.128-.037.256-.078.382-.117zm6.098-2.22c-.824-.599-3.263-1.121-6.01-1.627 2.626.95 4.995 1.727 6.01 1.627zm-6.01-1.627l-.432-.158c-.008.026-.016.051-.021.077.153.026.306.053.453.081zm6.43.867c-.45-.911-2.363-2.506-4.561-4.23 1.883 2.06 3.617 3.851 4.561 4.23zm-4.561-4.229l-.355-.391-.061.065c.14.109.281.218.416.326zm5.287 3.752c.024-1.017-.93-3.321-2.073-5.868.709 2.701 1.414 5.091 2.073 5.868zm-2.073-5.868c-.049-.182-.096-.366-.144-.55l-.09.032c.078.173.158.347.234.518z" fill="url(#m)" transform="translate(0 .5)"/><path d="M128.334 87.5a3.334 3.334 0 11-6.667-.003 3.334 3.334 0 016.667.003z" fill="#4e60a3"/><path d="M128.334 87.5a3.334 3.334 0 11-6.667-.003 3.334 3.334 0 016.667.003z" opacity=".9"/><path d="M120.35 90.893a1.389 1.389 0 111.548 2.308 1.389 1.389 0 01-1.548-2.308z" fill="url(#n)" opacity=".5" transform="translate(0 .5)"/><path d="M127.635 86.536c-.356.53-1.373.468-2.275-.136-.903-.605-1.346-1.526-.991-2.055l.001-.001c.354-.53 1.372-.469 2.274.137.903.604 1.346 1.524.992 2.054l-.001.001z" fill="url(#o)" opacity=".5" transform="translate(0 .5)"/><path d="M131.682 85.121c-.806 1.237-2.884 1.31-4.641.166-1.756-1.145-2.527-3.075-1.722-4.311.806-1.235 2.884-1.31 4.641-.166 1.755 1.146 2.525 3.077 1.722 4.311z" fill="url(#p)" opacity=".75" transform="translate(0 .5)"/><path d="M126 62.999c-9.94 0-18 11.193-18 25.001 0 13.808 8.06 24.999 18 24.999S144 101.808 144 88c0-13.809-8.06-25.001-18-25.001zm8.953 30.954c-9.551 4.704-16.046 1.526-18.706.284-2.526-2.122-4.068-5.078-3.851-8.345.012-.17.053-.351.1-.534 2.182-2.889 4.215-4.572 6.65-5.942 7.201-.74 11.471.952 20.307 4.199 0 2.128-.549 4.031-.988 4.983.068-.109.161-.211.236-.317-.823 2.175-2.095 4.126-3.748 5.672z" fill="#d9a494"/><path d="M123.042 69.999c-9.723-.044-17.616 6.635-17.641 14.92-.024 8.284 7.839 15.032 17.559 15.08 9.723.042 17.614-6.635 17.639-14.918.024-8.286-7.835-15.034-17.557-15.082zm11.911 23.954c-9.551 4.704-16.046 1.526-18.706.284-2.526-2.122-4.068-5.078-3.851-8.345.012-.17.053-.351.1-.534 2.182-2.889 4.215-4.572 6.65-5.942 7.201-.74 11.471.952 20.307 4.199 0 2.128-.549 4.031-.988 4.983.068-.109.161-.211.236-.317-.823 2.175-2.095 4.126-3.748 5.672z" fill="url(#q)"/><path d="M134.953 93.953c1.653-1.546 2.925-3.497 3.748-5.672-.075.106-.168.208-.236.317.439-.952.988-2.855.988-4.983-8.836-3.248-13.105-4.939-20.307-4.199-2.436 1.371-4.469 3.053-6.65 5.942a3.095 3.095 0 00-.1.534c-.218 3.267 1.324 6.223 3.851 8.345 2.66 1.242 9.155 4.42 18.706-.284z" fill="url(#r)"/><path d="M114.081 76.65c5.284-2.915 16.167-.001 19.581 1.339-4.444-1.172-12.01-3.696-19.581-1.339z" fill="#ab5a41"/><path d="M135.611 93.522c-10.263 5.269-17.123 1.588-19.647.458 4.905 4.255 14.433 4.537 19.647-.458zM111.628 78.54s4.584-1.111 6.146-1.152c10.482-.274 13.008 1.701 15.313 1.701 1.652 0 6.586-.549 6.586-.549-1.273 1.015-2.246 1.595-3.622 1.701 2.572.672 4.125.77 6.586.055-.434.665-.86 1.186-1.646 1.701 1.605.528 5.052.751 7.684.439-5.105 1.783-8.608 3.655-10.209 6.147.439-.933.988-2.799.988-4.885-8.836-3.183-13.105-4.842-20.307-4.116-2.515 1.387-4.598 3.088-6.86 6.092 1.251-3.208 2.342-4.98 4.665-6.75l-5.324-.384z" fill="#09152e"/><path d="M140.204 113.007c.035 22.275-17.995 40.365-40.273 40.396-22.274.036-40.361-17.993-40.396-40.272-.034-22.274 17.995-40.361 40.273-40.396 22.275-.034 40.363 17.995 40.396 40.272z" fill="url(#s)"/><path d="M135 55.999c0 19.329-15.671 35-35 35s-35-15.671-35-35 15.671-35 35-35 35 15.671 35 35z" fill="url(#t)"/><path d="M54.351 74.996c9.743-15.115 36.491 5.148 38.018-1.191.299-1.271-.407-2.015-1.564-2.492-13.621-5.506-31.649-10.133-36.454 3.683zm91.298 0c-9.743-15.115-36.491 5.148-38.018-1.191-.299-1.271.407-2.015 1.564-2.492 13.621-5.506 31.649-10.133 36.454 3.683z" fill="#a46c47"/><path d="M99.774 119.881c-.868 0-1.793.006-2.595-.354-.858-.387-1.429-.54-2.317-.86-.858-.31-1.889.445-2.748.516-.694.057-1.487-.142-1.911-.685-1.43-1.829.273-2.953.273-2.953s-.557 1.283-.202 1.853c.304.485.752.882 1.306 1.015.923.225 1.802-.454 2.708-.525 1.013-.079 1.748-.097 2.482.495.732.591 1.532.704 2.463.752.865.045 1.771.082 2.583-.251.709-.289 1.303-.797 1.967-1.17 1.414-.792 2.525.202 4.001.604 1.182.323 2.456-.82 1.993-2.122-.264-.741-.221-1.183-.221-1.183s1.126.511 1.059 1.768c-.085 1.566-1.45 2.665-2.992 2.253-.758-.2-1.574-.771-2.378-.626-.818.146-1.446.147-2.126.594-1.027.671-2.115.879-3.345.879z" fill="#ab5a41"/><path d="M93.63 110.544s3.096-4.31 5.907-4.362c2.605-.048 6.032 3.786 6.032 3.786s-3.158-1.323-6.284-1.104c-2.79.196-5.655 1.68-5.655 1.68z" fill="#d19684"/><path d="M60.35 193.688c1.158-14.492.475-21.283-.77-33.608-2.595-25.694-3.31-42.128-4.043-68.959-.316-11.197-.641-22.776 3.313-33.606 3.554-10.115 11.301-18.694 20.722-22.95 7.624-3.447 14.646-3.392 22.43-3.392 9.351 0 15.884.73 21.614 4.47 16.191 10.58 17.635 25.628 19.629 46.457 2.178 22.685 1.116 25.168 1.134 46.728.03 49.463-3.013 57.144 2.977 99.22 6.649.343 26.664-167.79 4.624-195.021-12.594-15.575-87.972-7.296-98.007-.403-16.856 11.572 1.878 194.396 1.878 194.396.044-1.644 4.237-30.191 4.499-33.332z" fill="#a46c47" opacity=".1"/><path d="M58.48 202.358c1.212-15.154.495-22.254-.806-35.143-2.714-26.865-3.462-44.05-4.228-72.104-.33-11.708-.671-23.814 3.464-35.139 3.719-10.576 11.822-19.547 21.678-23.997 7.975-3.604 15.32-3.547 23.465-3.547 9.779 0 16.612.765 22.609 4.675 16.939 11.062 18.443 26.796 20.532 48.575 2.279 23.72 1.17 26.316 1.183 48.859.037 51.718-3.554 59.332 2.714 103.329 6.955.357 27.631 1.225 34.401.728 5.637-57.613-7.946-77.721-10.325-127.722-1.139-24.668-2.271-67.687-25.324-96.161-13.178-16.284-28.763-20.97-46.042-16.865-13.249-2.351-26.041.816-36.538 8.025C47.63 17.97 32.909 43.054 31.021 64.217c-2.411 27.16 2.334 39.43-2.501 66.618-5.761 32.415-14.864 57.097-10.235 104.528 5.256.388 35.999 1.845 35.999 1.845.044-1.717 3.922-31.565 4.196-34.85z" fill="#a46c47"/><path d="M156.514 238.203a749.525 749.525 0 01-7.423-.337c-6.268-43.997-2.677-51.611-2.714-103.329-.013-22.543 1.097-25.14-1.183-48.859-2.089-21.778-3.593-37.513-20.532-48.575-10.166-6.63-35.575-5.874-46.074-1.127-9.855 4.45-17.959 13.421-21.678 23.997-4.136 11.325-3.794 23.431-3.464 35.139.766 28.055 1.514 45.239 4.228 72.104 1.301 12.889 2.019 19.988.806 35.143-.274 3.284-4.152 33.133-4.197 34.85 0 0-3.401-.161-8.125-.391.354-11.398 5.847-22.797 6.771-34.195 1.944-48-11.669-94-.972-143 2.916-12 7.778-22 18.475-28 9.207-5.261 26.281-6.583 32.057-2.817.096-.611.196-1.222.289-1.869 1.514-8.9-1.219-12.378 1.395-18.231-2.012 5.547.221 9.073-.122 15.242-.069 1.079-.416 2.695-.861 4.65 6.292-2.681 20.152-1.896 26.556 3.025 33.178 25.495 17.501 112 22.364 169 .657 12.882 2.817 25.305 4.404 37.58zM53.269 39.909C60.691 29.864 72.2 20.585 84.275 18.63c2.96-.479 5.707-.608 5.531-.598-12.228.414-22.794 4.548-32.017 14.768-10.917 11.709-10.418 21.832-10.468 24.223.411-6.192 1.187-9.584 5.948-17.114zm56.48-18.005c1.317-.368 4.279-1.342 8.201-1.098 15.563.723 34.484 18.312 36.685 42.554.576 5.964 1.216 24.332.4 10.625-.497-8.323-1.369-12.445-2.197-16.1-4.167-18.454-23.161-40.319-41.44-36.366l-1.649.385zm-67.551 64.44c.791 27.147 2.753 45.85 2.237 58.753-1.471 16.183-3.123 29.451-3.123 29.451-.03.413.08-1.676.305-5.11 2.487-35.28.097-40.141.581-83.094zm114.619 1.777c.417 7.484 2.223 39.41 2.494 46.176.227 5.292.263 40.677.381 42.338.028.59-2.09-28.29-2.875-88.514zm7.689 9.191c.925 14.561 6.923 72.884 14.438 100.406.145.453-.622-1.821-1.851-5.594-9.436-30.896-11.508-63.088-12.587-94.812zM38.992 117.395c-1.623 6.133-.24 9.802-.187 15.916-.286 14.263-5.243 30.714-7.033 38.957-2.097 8.726-2.847 32.982-2.842 33.984-.033 1-.85-26.039 3.125-42.239 10.377-40.344 3.92-29.618 6.383-44.87l.554-1.748zM106.508 6.016c4.76-1.002 3.222-.752 7.014-1.173 16.098-1.667 26.966 10.983 29.381 12.878.138.13-.571-.515-1.729-1.582-14.461-11.863-23.675-12.031-34.666-10.123zM57.182 29.987c6.694-6.878 14.555-16.267 30.61-16.92 6.169-.293 9.09 1.436 10.062 1.682 0 0-8.626-4.578-25.444 3.183-5.418 2.36-11.492 8.513-15.228 12.055z" fill="#955932"/><path d="M184.627 202.31c-11.808-41.571-15.057-85.129-18.904-128.688C162.57 45.25 150.72 12.341 124.607.869c-2.839-1.247-27.424-2.821-39.59.753-41.812 10-53.492 58.916-50.563 100 2.212 31.021-9.32 67.609-17.325 101.74.902-28.354 7.081-48.278 11.391-72.527 4.835-27.188.09-39.458 2.501-66.618C32.909 43.054 47.63 17.97 65.263 5.871 75.76-1.338 88.552-4.505 101.801-2.154c12.718-3.021 24.514-1.269 35.107 6.351l.072.015c3.741 2.716 7.431 6.261 10.862 10.499 23.054 28.474 24.186 71.492 25.324 96.161 1.801 37.861 10.022 58.594 11.461 91.438zM55.419 27.308c-5.997 7.544-2.415 2.772 3.69-3.506C76.943 7.338 88.264 6.365 98.295 8.659c-16.823-4.635-31.689 5.115-42.876 18.649zm56.56-15.875c11.421-3.929 25.295-1.496 39.866 21.474 10.844 18.168 10.938 40.817 11.57 43.92.059.443-.307-1.789-.794-5.48-1.308-8.44-3.563-29.778-22.548-51.36-5.037-5.814-15.937-12.133-28.094-8.554zm45.726 54.777c3.031 29.726 4.887 72.826 4.887 72.826.056.683-.711-6.873-1.462-15.11-2.772-30.191-1.477-26.587-3.425-57.716zm-3.146 70.192c.332 21.587.059 17.159 2.332 48.097 1.977 16.713 2.607 19.68-.461 1.053-2.809-17.859-2.317-30.294-1.871-49.15zm9.739 7.712c3.975 29.918 3.572 29.703 4.521 45.704 1.172 16.188 1.584 18.725-.499.988-1.233-9.929-1.902-23.531-4.022-46.692zM48.856 38.604C42.754 50.786 41.06 60.74 39.84 74.385c-1.997 19.679-.178 21.159-1.365 34.119-.013.167.007-.172.046-.899.469-16.338-3.947-43.111 10.335-69.001zm11.241-1.524c-6.143 5.974-9.404 17.112-11.477 25.781-4.44 19.145-2.167 83.919-3.542 36.666-.629-17.744-1.211-32.394 7.84-52.141 1.955-4.285 4.054-7.627 7.179-10.306zM46.554 137.29c.157 11.389 1.336 12.657 2.418 25.876 1.28 12.79-2.299 33.213-2.422 35.392-.194 1.541 2.623-23.021 1.202-40.579-1.491-16.409-1.378-13.293-1.198-20.689zm-6.621 15.381c-2.873 11.796-1.906 13.18-5.192 60.408-.074 1-.283-41.191 5.192-60.408zm26.83-122.69c.972-.551 14.882-11.058 28.83-6.116 1.283.413 2.125.836 2.276.867.972.387-5.218-2.399-11.905-1.512-10.192.905-17.581 5.911-19.201 6.761zm39.805-10.827c2.092-.977 4.102-2.125 9.005-2.732 13.841-1.694 22.483 9.902 23.455 10.708.943 1.03-4.335-5.62-12.846-8.638-1.473-.502-.018-.072-2.558-.81-.412-.144-2.072-.543-3.782-.742-5.807-.537-8.548.245-13.274 2.214z" fill="#b38160"/><path d="M173.267 110.867c-1.178-24.84-2.121-67.53-25.351-96.22-14.129-17.46-30.241-20.7-46.099-16.9-12.067-2.14-25.018.08-36.609 8.04-17.327 11.89-32.358 36.84-34.284 58.42-2.411 27.17 2.334 39.43-2.498 66.61-6.068 34.13-14.509 55.09-10.288 104.04l.058.6c.097.011.185.011.283.021 10.501.59 22.606 1.229 35.567 1.82.078 0 .156 0 .234.01 30.221 1.37 65.079 2.5 95.039 2.35a.677.677 0 01.201 0c12.37-.08 23.902-.37 33.927-.96.047 0 .097-.01.137-.01.029-.3.056-.6.085-.89 5.581-56.061-8.041-77.24-10.402-126.931zM54.416 236.268c1.536-12.28 4.005-32.04 4.161-33.9 2.44-30.52-3.004-29.06-4.958-104.48-.33-12.77-1.069-25.69 3.383-37.88 3.695-10.51 11.659-19.44 21.626-23.94 4.336-1.96 8.955-2.93 13.65-3.39 15.722-.35 24.649-.5 32.33 4.51 16.568 10.82 18.312 25.76 20.487 48.5 2.284 23.77 1.167 26.22 1.187 48.85.021 28.521-.205 2.311-.933 56.49-.089 6.42.037 12.82.517 19.23.651 8.819 2.155 20.34 3.256 28.05-29.599-.04-64.417-.96-94.706-2.04zm40.011-203.75a81.42 81.42 0 015.416-.2c-1.691.059-3.489.129-5.416.2zm89.086 205.29c-9.936.359-21.563.51-34.159.5-.688-5.96-1.488-12.95-1.506-13.23-.863-8.55-1.42-17.149-1.4-25.75 0-1 4.094-80.43 1.344-106.32-2.781-26.17-4.706-49.5-26.81-58.53-4.655-1.91-9.715-2.36-17.064-2.26h-.085c-5.331-.16-10.474-.18-15.472.55h-.038c-5.456.8-10.726 2.47-15.839 5.8-23.833 15.48-21.033 45.2-20.81 63.09.817 66.53 8.459 68.5 5.621 104.48-.03.34-1.936 18.43-3.141 30.12-13-.45-25.164-.931-35.705-1.391-.116-1.93-.184-3-.184-3.08-2.907-57.51 10.209-76.38 14.1-110.51 2.965-25.96-3.043-46.38 2.703-68.53 8.021-30.91 32.962-59.16 65.556-54.7 1.04.14 2.091.32 3.139.53.36-.08.73-.14 1.092-.2 11.869-2.08 23.353-.89 33.748 8.25 30.356 26.68 30.668 78.31 31.629 96.69 3.045 58.33 16.354 73.521 13.739 128.38-.001.101-.213 2.991-.458 6.111z" fill="#763810"/></svg>