<svg xmlns="http://www.w3.org/2000/svg" width="500" height="500" viewBox="0 0 200 200" overflow="hidden"><defs><radialGradient id="i" cx="100" cy="113" r="40" gradientUnits="userSpaceOnUse" class="svga-on-canvas-facehighlight-gradient-single-0"><stop stop-opacity=".5" stop-color="#ffe4d6" offset="0"/><stop stop-opacity="0" stop-color="#f0c7b1" offset=".9"/></radialGradient><radialGradient id="j" cx="100" cy="57" r="36" gradientUnits="userSpaceOnUse" class="svga-on-canvas-facehighlight-gradient-single-1"><stop stop-opacity=".5" stop-color="#ffe4d6" offset="0"/><stop stop-opacity="0" stop-color="#f0c7b1" offset=".9"/></radialGradient><radialGradient id="c" cx="129.05" cy="85.956" r="15.117" gradientTransform="scale(-1 1) rotate(5.981 22.869 -1851.746)" gradientUnits="userSpaceOnUse" class="svga-on-canvas-eyesback-gradient-left-0"><stop stop-color="#fff" offset="0"/><stop stop-color="#fcfdfd" offset=".316"/><stop stop-color="#f4f7f8" offset=".505"/><stop stop-color="#e5ecef" offset=".661"/><stop stop-color="#d8e2e7" offset=".76"/></radialGradient><radialGradient id="f" cx="129.049" cy="85.956" r="15.117" gradientTransform="rotate(5.981 122.875 62.424)" gradientUnits="userSpaceOnUse" class="svga-on-canvas-eyesback-gradient-right-0"><stop stop-color="#fff" offset="0"/><stop stop-color="#fcfdfd" offset=".316"/><stop stop-color="#f4f7f8" offset=".505"/><stop stop-color="#e5ecef" offset=".661"/><stop stop-color="#d8e2e7" offset=".76"/></radialGradient><radialGradient id="d" cx="121.786" cy="84.496" fx="133.039" fy="84.527" r="16.003" gradientTransform="matrix(.9998 .0208 .0166 -.7998 -44.952 149.543)" gradientUnits="userSpaceOnUse" class="svga-on-canvas-eyesfront-gradient-left-3"><stop stop-color="#e1ac8f" offset="0"/><stop stop-opacity=".3" stop-color="#e1ac8f" offset=".7"/><stop stop-opacity="0" stop-color="#f0c7b1" offset="1"/></radialGradient><radialGradient id="e" cx="69.124" cy="107.529" r="29.525" gradientTransform="translate(-1.68 1.728) scale(1.0336)" gradientUnits="userSpaceOnUse" class="svga-on-canvas-eyesfront-gradient-left-4"><stop stop-opacity="0" offset=".95"/><stop stop-opacity=".3" offset="1"/></radialGradient><radialGradient id="g" cx="121.786" cy="84.496" fx="133.039" fy="84.527" r="16.003" gradientTransform="matrix(-.9998 .0208 -.0166 -.7998 244.952 149.543)" gradientUnits="userSpaceOnUse" class="svga-on-canvas-eyesfront-gradient-right-3"><stop stop-color="#e1ac8f" offset="0"/><stop stop-opacity=".3" stop-color="#e1ac8f" offset=".7"/><stop stop-opacity="0" stop-color="#f0c7b1" offset="1"/></radialGradient><radialGradient id="h" cx="69.124" cy="107.529" r="29.525" gradientTransform="matrix(-1.0336 0 0 1.0336 201.68 1.728)" gradientUnits="userSpaceOnUse" class="svga-on-canvas-eyesfront-gradient-right-4"><stop stop-opacity="0" offset=".95"/><stop stop-opacity=".3" offset="1"/></radialGradient><linearGradient id="b" x1="100" y1="142" x2="100" y2="139" gradientUnits="userSpaceOnUse" class="svga-on-canvas-mouth-gradient-single-0"><stop stop-color="#e8b9a0" offset=".1"/><stop stop-color="#e1ac8f" offset="1"/></linearGradient><linearGradient id="a" x1="99.98" y1="171.27" x2="99.98" y2="136.351" gradientUnits="userSpaceOnUse" class="svga-on-canvas-chinshadow-gradient-single-0"><stop stop-opacity=".8" stop-color="#e1ac8f" offset="0"/><stop stop-color="#c27b55" offset=".7"/></linearGradient></defs><path d="M225 225H-25V-25h250v250z" fill="#594f4f"/><path d="M16 9.999a6 6 0 01-12 0 6 6 0 0112 0zm12-6a6 6 0 000 12 6 6 0 000-12zm18 0a6 6 0 000 12 6 6 0 000-12zm18 0a6 6 0 000 12 6 6 0 000-12zm18 0a6 6 0 000 12 6 6 0 000-12zm18 0a6 6 0 000 12 6 6 0 000-12zm18 0a6 6 0 000 12 6 6 0 000-12zm18 0a6 6 0 000 12 6 6 0 000-12zm18 0a6 6 0 000 12 6 6 0 000-12zm18 0a6 6 0 000 12 6 6 0 000-12zm18 0a6 6 0 000 12 6 6 0 000-12zm-174 24a6 6 0 01-12 0 6 6 0 0112 0zm12-6a6 6 0 000 12 6 6 0 000-12zm18 0a6 6 0 000 12 6 6 0 000-12zm18 0a6 6 0 000 12 6 6 0 000-12zm18 0a6 6 0 000 12 6 6 0 000-12zm18 0a6 6 0 000 12 6 6 0 000-12zm18 0a6 6 0 000 12 6 6 0 000-12zm18 0a6 6 0 000 12 6 6 0 000-12zm18 0a6 6 0 000 12 6 6 0 000-12zm18 0a6 6 0 000 12 6 6 0 000-12zm18 0a6 6 0 000 12 6 6 0 000-12zm-174 24a6 6 0 01-12 0 6 6 0 0112 0zm12-6a6 6 0 000 12 6 6 0 000-12zm18 0a6 6 0 000 12 6 6 0 000-12zm18 0a6 6 0 000 12 6 6 0 000-12zm18 0a6 6 0 000 12 6 6 0 000-12zm18 0a6 6 0 000 12 6 6 0 000-12zm18 0a6 6 0 000 12 6 6 0 000-12zm18 0a6 6 0 000 12 6 6 0 000-12zm18 0a6 6 0 000 12 6 6 0 000-12zm18 0a6 6 0 000 12 6 6 0 000-12zm18 0a6 6 0 000 12 6 6 0 000-12zm-174 24a6 6 0 01-12 0 6 6 0 0112 0zm12-6a6 6 0 000 12 6 6 0 000-12zm18 0a6 6 0 000 12 6 6 0 000-12zm18 0a6 6 0 000 12 6 6 0 000-12zm18 0a6 6 0 000 12 6 6 0 000-12zm18 0a6 6 0 000 12 6 6 0 000-12zm18 0a6 6 0 000 12 6 6 0 000-12zm18 0a6 6 0 000 12 6 6 0 000-12zm18 0a6 6 0 000 12 6 6 0 000-12zm18 0a6 6 0 000 12 6 6 0 000-12zm18 0a6 6 0 000 12 6 6 0 000-12zm-174 24a6 6 0 01-12 0 6 6 0 0112 0zm12-6a6 6 0 000 12 6 6 0 000-12zm18 0a6 6 0 000 12 6 6 0 000-12zm18 0a6 6 0 000 12 6 6 0 000-12zm18 0a6 6 0 000 12 6 6 0 000-12zm18 0a6 6 0 000 12 6 6 0 000-12zm18 0a6 6 0 000 12 6 6 0 000-12zm18 0a6 6 0 000 12 6 6 0 000-12zm18 0a6 6 0 000 12 6 6 0 000-12zm18 0a6 6 0 000 12 6 6 0 000-12zm18 0a6 6 0 000 12 6 6 0 000-12zm-174 24a6 6 0 01-12 0 6 6 0 0112 0zm12-6a6 6 0 000 12 6 6 0 000-12zm18 0a6 6 0 000 12 6 6 0 000-12zm18 0a6 6 0 000 12 6 6 0 000-12zm18 0a6 6 0 000 12 6 6 0 000-12zm18 0a6 6 0 000 12 6 6 0 000-12zm18 0a6 6 0 000 12 6 6 0 000-12zm18 0a6 6 0 000 12 6 6 0 000-12zm18 0a6 6 0 000 12 6 6 0 000-12zm18 0a6 6 0 000 12 6 6 0 000-12zm18 0a6 6 0 000 12 6 6 0 000-12zm-174 78a6 6 0 01-12 0 6 6 0 0112 0zm12-6a6 6 0 000 12 6 6 0 000-12zm18 0a6 6 0 000 12 6 6 0 000-12zm18 0a6 6 0 000 12 6 6 0 000-12zm18 0a6 6 0 000 12 6 6 0 000-12zm18 0a6 6 0 000 12 6 6 0 000-12zm18 0a6 6 0 000 12 6 6 0 000-12zm18 0a6 6 0 000 12 6 6 0 000-12zm18 0a6 6 0 000 12 6 6 0 000-12zm18 0a6 6 0 000 12 6 6 0 000-12zm18 0a6 6 0 000 12 6 6 0 000-12zm-174 24a6 6 0 01-12 0 6 6 0 0112 0zm12-6a6 6 0 000 12 6 6 0 000-12zm18 0a6 6 0 000 12 6 6 0 000-12zm18 0a6 6 0 000 12 6 6 0 000-12zm18 0a6 6 0 000 12 6 6 0 000-12zm18 0a6 6 0 000 12 6 6 0 000-12zm18 0a6 6 0 000 12 6 6 0 000-12zm18 0a6 6 0 000 12 6 6 0 000-12zm18 0a6 6 0 000 12 6 6 0 000-12zm18 0a6 6 0 000 12 6 6 0 000-12zm18 0a6 6 0 000 12 6 6 0 000-12zm-174-66a6 6 0 01-12 0 6 6 0 0112 0zm12-6a6 6 0 000 12 6 6 0 000-12zm18 0a6 6 0 000 12 6 6 0 000-12zm18 0a6 6 0 000 12 6 6 0 000-12zm18 0a6 6 0 000 12 6 6 0 000-12zm18 0a6 6 0 000 12 6 6 0 000-12zm18 0a6 6 0 000 12 6 6 0 000-12zm18 0a6 6 0 000 12 6 6 0 000-12zm18 0a6 6 0 000 12 6 6 0 000-12zm18 0a6 6 0 000 12 6 6 0 000-12zm18 0a6 6 0 000 12 6 6 0 000-12zm-174 24a6 6 0 01-12 0 6 6 0 0112 0zm12-6a6 6 0 000 12 6 6 0 000-12zm18 0a6 6 0 000 12 6 6 0 000-12zm18 0a6 6 0 000 12 6 6 0 000-12zm18 0a6 6 0 000 12 6 6 0 000-12zm18 0a6 6 0 000 12 6 6 0 000-12zm18 0a6 6 0 000 12 6 6 0 000-12zm18 0a6 6 0 000 12 6 6 0 000-12zm18 0a6 6 0 000 12 6 6 0 000-12zm18 0a6 6 0 000 12 6 6 0 000-12zm18 0a6 6 0 000 12 6 6 0 000-12zm-174 24a6 6 0 01-12 0 6 6 0 0112 0zm12-6a6 6 0 000 12 6 6 0 000-12zm18 0a6 6 0 000 12 6 6 0 000-12zm18 0a6 6 0 000 12 6 6 0 000-12zm18 0a6 6 0 000 12 6 6 0 000-12zm18 0a6 6 0 000 12 6 6 0 000-12zm18 0a6 6 0 000 12 6 6 0 000-12zm18 0a6 6 0 000 12 6 6 0 000-12zm18 0a6 6 0 000 12 6 6 0 000-12zm18 0a6 6 0 000 12 6 6 0 000-12zm18 0a6 6 0 000 12 6 6 0 000-12z" fill="#4a3a3a"/><path d="M41.279 215.266c-.033-.044-.063-.094-.095-.14 3.872-1.418 107.984 7.4 115.031 6.323-.001.108-.007.217-.007.325.282-.064.24-.075.254-.359.259-.032 1.051-.167.027-.457 3.485-63.467 43.554-53.333 20.529-111.343-5.448-13.536-5.042-26.26-6.357-42.117-1.84 1.797-1.238 11.106-3.489 28.325 17.078 53.526 2.414 51.246-11.503 76.872-4.604 8.467-8.295 17.095-9.091 26.65-22.673-39.208-16.05-38.328-6.981-62.078-1.56 2.201-7.898 6.916-13.709 8.025 14.211-10.797 22.683-10.831 22.98-76.708-13.031-6.03-24.886-17.239-32.2-29.8-9.476 19.65-26.281 27.875-47.75 31.14-5.35 2.72-10.92 5-16.55 7.08-.476 27.679 6.753 46.579 21.26 66.64-5.091-3.645-10.294-9.649-13.96-14.758 4.4 8.811 10.944 16.104 9.16 31.867-1.972 17.313-18.629 29.105-18.629 51.372-16.264-25.388-21.752-14.633-17.979-42.312-6.177-10.806-9.18-18.142-11.68-25.979-.605-.005-1.578.138-2.133.204-7.074 26.657 3.058 46.46 22.872 71.228z" fill="#644e45"/><path d="M142.489 227.847h-90V97.24h90v130.607z" fill="#543c32"/><path d="M156.49 220.958c3.485-63.467 43.554-53.333 20.529-111.343-4.317-10.726-4.958-20.946-5.692-32.615h-.641c.342 11.384.54 21.512 3.883 31.266 20.946 61.4-17.667 48.849-18.343 112.635-4.423-.602-111.114-7.244-115.042-5.775-14.061-20.667-24.449-40.831-22.283-63.372-.668-.594-1.228-1.297-1.759-2.028-4.286 23.862 5.757 42.566 24.137 65.541-.033-.044-.063-.094-.095-.14 3.872-1.418 107.984 7.4 115.031 6.323-.001.108-.007.217-.007.325.282-.064.24-.075.254-.359.26-.033 1.052-.168.028-.458z" fill="#452c22"/><path d="M190.858 199.866c-6.008-10.158-13.474-11.973-19.628-13.936-6.323-2.016-19.346-3.178-26.449-4.6-6.86-1.373-23.153-5.789-23.339-13.488-.192-8.066 4.291-40.09 4.291-40.09H74.005s4.487 32.023 4.294 40.09c-.184 7.699-16.48 12.115-23.341 13.488-7.104 1.422-20.125 2.584-26.448 4.6-6.156 1.963-13.624 3.777-19.632 13.936-3.644 6.16-6.008 16.133-6.008 27.133h194c-.001-11-2.361-20.973-6.012-27.133z" fill="#f0c7b1"/><path d="M121.442 167.843c2.495 10.929 18.165 13.698 26.293 15.325 21.909 4.379 33.772 5.134 42.297 19.539 2.903 4.916 5.459 15.864 5.962 24.153 1.835.291.531-17.432-5.136-26.994-9.742-16.472-29.089-15.135-46.077-18.535-6.86-1.373-23.153-5.789-23.339-13.488zm-42.884 0c-.186 7.699-16.479 12.115-23.339 13.488-16.988 3.4-36.335 2.063-46.077 18.535-5.667 9.563-6.971 27.285-5.136 26.994.503-8.289 3.059-19.237 5.962-24.153 8.524-14.405 20.388-15.16 42.297-19.539 8.128-1.627 23.798-4.397 26.293-15.325z" fill="#ffe4d6"/><path d="M51.206 189.513s28.641.299 33.473 1.885c2.314.758 8.372 5.633 8.372 5.633s-6.556-3.17-8.658-3.758c-4.883-1.364-33.187-3.76-33.187-3.76zm48.589 10.486c2.053-.041 7.887-3.799 7.887-3.799s-5.574 2.059-7.342 2.16c-1.491.086-6.366-1.238-6.366-1.238s4.138 2.91 5.821 2.877zm17.213-7.242c6.75-1.818 29.786-3.23 29.786-3.23s-23.791-.516-30.51 1.725c-2.252.752-7.562 5.16-7.562 5.16s6.064-3.058 8.286-3.655z" fill="#e1ac8f"/><path d="M190.858 199.866c-9.741-16.471-29.122-15.142-46.077-18.535-6.86-1.373-23.153-5.789-23.339-13.488-.192-8.066 4.291-40.09 4.291-40.09H74.005s4.487 32.023 4.294 40.09c-.184 7.699-16.48 12.115-23.341 13.488-7.104 1.422-20.125 2.584-26.448 4.6-6.156 1.963-13.624 3.777-19.632 13.936C5.234 206.027 2.87 216 2.87 227h194c-.001-11.001-2.361-20.974-6.012-27.134z" fill="none" stroke="#c27b55" stroke-width="1.5"/><path d="M74.767 128.517c.594 4.297 3.11 22.794 3.929 33.496 6.172 3.567 11.423 8.992 21.307 8.992 9.736 0 14.976-5.264 21.031-8.831.805-10.679 3.341-29.34 3.938-33.657l.017-.113H74.751l.016.113z" fill="url(#a)"/><path d="M93.589 228.292c-8.632 0-18.516-.143-30.217-.437-5.24-.133-10.38-.197-15.713-.197-8.082 0-15.041.146-21.771.288-5.62.118-10.929.229-16.081.229-4.201 0-7.974-.075-11.533-.23l-.612-.026-.023-.281c-.55-6.277-.329-11.201.657-14.635 2.739-9.57 11.779-22.221 13.349-22.804 17.165-5.583 22.101-5.852 26.671-6.81 1.788-.086 3.637-.176 6.081-.586 1.753-.305 3.492-1.017 5.174-1.705 2.067-.846 4.019-1.645 5.835-1.645.592 0 1.129.084 1.643.256.212.077.427.165.632.282l-.024.12.026.198c.479 4.203.973 7.772 1.408 10.921l.011.079.081.015c11.784 1.007 26.305 2.259 40.89 2.259 14.972 0 29.065-1.255 40.758-2.309l.079-.007.011-.079c.422-3.005.913-6.566 1.4-10.813l.061-.52c.146-.037.349-.126.57-.196a4.838 4.838 0 011.557-.242c1.702 0 3.576.752 5.561 1.547 1.637.656 3.33 1.336 5.133 1.697 1.221.247 2.486.299 3.71.349.322.014.645.026.965.043 11.05 1.62 12.476 1.811 27.626 6.813.092.038.205.077.328.119.38.13.9.308 1.043.567 1.617 2.864 3.238 5.418 4.806 7.889 5.13 8.081 9.56 15.062 10.143 27.528.008.11.015.203.019.295h-.778c-40.024.014-59.705.721-75.52 1.289-11.024.397-20.54.739-33.956.739z" fill="#152c5e"/><path d="M203.838 226.266l-.906.001c-3.369-15.058-15.396-31.068-18.229-32.479-9.956-4.956-30.352-7.399-40.493-11.396-.742 12.815-3.105 19.729-4.671 34.673-1.357-7.705 2.116-31.016 2.697-35.99l.143-1.218c1.688-.431 2.109-1.127 7.688 1.108 4.488 1.8 5.622 1.925 8.843 2.046 13.716.514 15.933 3.408 28.591 6.855 2.022.551.082-1.032 6.177 8.575 5.205 8.202 9.623 15.195 10.16 27.825zm-207.676 0l.906.001c3.369-15.058 15.396-31.068 18.229-32.479 9.956-4.956 30.256-7.399 40.397-11.396.742 12.815 3.201 19.729 4.767 34.673 1.357-7.705-2.116-31.016-2.697-35.99l-.143-1.218c-1.688-.431-2.109-1.127-7.688 1.108-4.488 1.8-5.622 1.915-8.843 2.046-11.774 1.875-13.637 2.176-28.591 6.855-1.936.804-.082-1.032-6.177 8.575-5.205 8.202-9.623 15.195-10.16 27.825z" fill="#233b6d"/><path d="M100.071 195.291c-14.397 0-28.77-.943-40.47-1.926-.103-1.298.002.355-.45-1.647l.131.019c12.446 1.671 26.582 2.555 40.878 2.555h.004c14.571 0 28.595-.894 40.561-2.584l.132-.02-.02.133c-.122.829-.229 1.131-.329 1.91-12.239 1.007-39.437 1.56-40.437 1.56zm40.034 2.015c.098-.799.199-1.606.313-2.437l.019-.131-.131.019c-11.884 1.659-25.772 2.536-40.166 2.536-14.12 0-28.104-.866-40.438-2.507l-.13-.017.018.13c.104.76.199 1.503.289 2.238 26.742 1.949 48.289 3.023 80.226.169z" fill="#0a1f4f"/><path d="M203.919 225.966c-.76-16.261-7.99-23.11-14.96-35.461-.21-.38-1.019-.603-1.42-.729-12.39-3.909-15.91-6.21-27.66-6.82-1.55-.08-3.13-.08-4.66-.39-4.729-.95-8.85-4.15-12.3-3-.22.07-.43.16-.64.28-.021.18-.04.35-.061.52-.479 4.18-.96 7.68-1.399 10.811-24.459 2.949-57.911 2.638-81.63.05-.44-3.181-.93-6.721-1.41-10.931-.02-.13-.03-.26-.05-.39-.21-.12-.43-.21-.65-.29-3.7-1.24-8.16 1.901-12.7 2.691-8.426 1.466-8.81-.086-32.77 7.799-1.67.62-10.74 13.54-13.41 22.87-1.16 4.04-1.11 9.54-.66 14.67l.03.37.7.029c18.55.811 35.87-.829 65.1-.09 62.13 1.561 54.81-1.56 139.69-1.59h.88c0-.139-.01-.269-.02-.399zm-63.18-34.16c-.12.83-.23 1.63-.33 2.41-26.396 2.747-55.546 2.747-80.8.05-.11-.79-.22-1.601-.34-2.431 26.88 3.61 58.55 3.21 81.47-.029zm-.9 6.889c-23.66 2.05-55.979 1.99-79.67.04-.14-1.25-.3-2.53-.48-3.85 26.63 3.54 57.86 3.149 80.63-.03-.18 1.321-.34 2.6-.48 3.84zm32.931 26.64c-6.54.07-13.091.131-19.631.21-14.439.171-40.329 1.511-49.81 1.521-43.15.09-33.54-.41-52.82-.49-19.22-.04-34.91 1.53-52.25 1.09-.1-7.37.5-12.37 2.95-17.479 3.34-6.91 6.22-12.351 11.11-18.22.14-.16.4-.2.59-.271 5.14-1.9 11.21-4.22 17.85-5.69 8.16-1.81 12.65-1.109 17.87-3.46 3.45-1.55 6.08-3.189 8.45-2.51.06 4.23.32 7.69.68 11.07l.06.53c.09.83.19 1.659.3 2.5l.06.55c.16 1.28.33 2.569.5 3.93.03.19.06.38.08.58.6 4.72 1.24 10.19 1.7 17.87.57-7.17.36-12.3-.21-17.67 26.29 3.42 56.96 3.05 79.521-.03-.601 5.4-.801 10.49-.23 17.7.46-7.55 1.12-13.061 1.73-17.91.02-.2.05-.4.069-.59.17-1.35.34-2.64.5-3.92l.061-.57c.1-.83.2-1.66.279-2.49.03-.18.051-.359.061-.54.36-3.369.62-6.84.67-10.96 3.87-1.17 8.32 3.391 14.25 4.021 5.85.63 11.84 1.457 17.47 3.308 4.15 1.359 11.21 3.362 12.891 4.372.34.21.77 1.49.96 1.891 4.87 9.71 12.439 15.149 14.52 32.26-24.941-.623-25.472-.653-30.231-.603z" fill="#000f30"/><path d="M100.002.867C66.384.919 39.082 28.09 39.134 61.564a60.524 60.524 0 002.002 15.382h.001c.012.053 8.12 35.231 11.82 46.756 2.775 8.646 14.288 21.634 22.398 24.913 7.826 3.165 13.039 10.654 24.646 10.654s16.82-7.489 24.646-10.654c8.11-3.279 19.624-16.268 22.398-24.913 3.7-11.524 11.809-46.703 11.819-46.756h.002a60.48 60.48 0 002.002-15.382C160.923 28.09 133.62.919 100.002.867z" fill="#f0c7b1"/><path d="M140.727 16.481c10.424 10.984 16.867 26.145 16.844 42.883a63.802 63.802 0 01-1.894 15.382h-.001c-.011.053-7.681 35.231-11.18 46.756-2.623 8.646-13.515 21.634-21.184 24.913-7.403 3.164-12.333 10.654-23.31 10.654-10.978 0-15.908-7.49-23.309-10.654-7.671-3.279-18.56-16.268-21.184-24.913-3.5-11.524-11.168-46.703-11.18-46.756h-.001a63.703 63.703 0 01-1.894-15.382c-.025-16.736 6.418-31.896 16.84-42.88-12.382 11.111-20.168 27.193-20.141 45.08a60.524 60.524 0 002.002 15.382h.001c.012.053 8.12 35.231 11.82 46.756 2.775 8.646 14.288 21.634 22.398 24.913 7.826 3.165 13.039 10.654 24.646 10.654s16.82-7.489 24.646-10.654c8.11-3.279 19.624-16.268 22.398-24.913 3.7-11.524 11.809-46.703 11.819-46.756h.002a60.48 60.48 0 002.002-15.382c.031-17.888-7.756-33.971-20.14-45.083z" fill="#e8b9a0"/><path d="M100.002.867C66.384.919 39.082 28.09 39.134 61.564a60.524 60.524 0 002.002 15.382h.001c.012.053 8.12 35.231 11.82 46.756 2.775 8.646 14.288 21.634 22.398 24.913 7.826 3.165 13.039 10.654 24.646 10.654s16.82-7.489 24.646-10.654c8.11-3.279 19.624-16.268 22.398-24.913 3.7-11.524 11.809-46.703 11.819-46.756h.002a60.48 60.48 0 002.002-15.382C160.923 28.09 133.62.919 100.002.867z" fill="none" stroke="#c27b55" stroke-width="1.5"/><path d="M100.126 141.95c-2.835 0-3.5-2.934-3.5-2.934s3.898.763 7 0c0 .001-1.005 2.934-3.5 2.934z" fill="url(#b)"/><path d="M100.523 139.779c-1.987 0-3.757-.267-3.868-.283a.248.248 0 01-.209-.284.255.255 0 01.285-.209c.041.005 4.071.61 6.747.002.133-.025.27.055.3.189s-.054.268-.188.299c-.947.215-2.036.286-3.067.286z" fill="#c27b55"/><path d="M84 130s11.487 1.189 15.325 1.199C103.499 131.208 117 130 117 130c-3.903 2.826-8.199 5.543-17.926 5.597-8.701.049-10.929-2.708-15.074-5.597z" fill="#fff"/><path d="M84 130s11.487 1.189 15.325 1.199C103.499 131.208 117 130 117 130c-3.903 2.826-8.199 5.543-17.926 5.597-8.701.049-10.929-2.708-15.074-5.597z" fill="none" stroke="#9b0025" stroke-width=".75"/><path d="M61.952 84.523c-.506-2.285 5.191-3.973 12.711-3.051 7.518.923 12.738 5.524 12.052 7.844-.38 1.286-10.639 3.245-14.253 2.847-3.664-.405-9.288-2.123-10.51-7.64z" fill="url(#c)"/><path d="M82.449 88.75c-1.231 4.522-5.896 7.187-10.429 5.944-4.528-1.241-7.203-5.918-5.97-10.442 1.23-4.526 5.905-7.19 10.434-5.947 4.527 1.24 7.199 5.918 5.965 10.445z" fill="#3c8d8e" stroke="#0c5f60" stroke-width=".5"/><path d="M82.244 87.026c-.625 5.021-4.353 7.638-8.432 7.365-3.765-.253-7.131-3.031-7.443-7.828 1.302-.374 3.031.234 4.549.002-.005.055-.023.104-.025.16-.12 1.842 1.357 3.446 3.299 3.577 1.946.13 3.62-1.263 3.74-3.104a3.325 3.325 0 00-.038-.702c1.353.204 3.004.003 4.35.53z" fill="#529c9d"/><path d="M75.479 83.664c-1.869-.535-3.777.533-4.26 2.396-.483 1.853.642 3.793 2.51 4.329 1.873.537 3.781-.532 4.266-2.386.485-1.864-.644-3.803-2.516-4.339z" opacity=".9"/><path d="M75.479 83.664c-1.869-.535-3.777.533-4.26 2.396-.483 1.853.642 3.793 2.51 4.329 1.873.537 3.781-.532 4.266-2.386.485-1.864-.644-3.803-2.516-4.339z" fill="none" stroke="#0c5f60" stroke-width=".75"/><path d="M70.227 91.681c-.177.619-1.142.356-.965-.266.171-.6.633-.967.926-1.495.313-.564 1.177-.06.863.505-.241.435-.687.771-.824 1.256zm1.539-.987c-.266.31-.614 1.458-.766 1.834-.241.598.727.856.965.266.082-.205.362-1.223.508-1.393.417-.486-.287-1.197-.707-.707zm2.082 2.957c.522-.602.47-1.292.459-2.041-.01-.644-1.01-.645-1 0 .006.415.13.992-.166 1.334-.421.485.284 1.195.707.707zm1.021-2.166c.008.621.084 1.226.268 1.82.19.614 1.155.352.965-.266a5.354 5.354 0 01-.232-1.555c-.009-.643-1.009-.644-1.001.001z" fill="#fff" opacity=".5"/><path d="M80.196 85.043c-.985.59-2.466.059-3.305-1.188-.838-1.248-.713-2.739.273-3.328.984-.593 2.467-.061 3.301 1.187.838 1.248.717 2.738-.269 3.329z" fill="#fff" opacity=".8"/><path d="M55.5 88c0 13.807 8.06 24.999 18 24.999s18-11.192 18-24.999c0-13.808-8.06-25-18-25s-18 11.192-18 25zm6.452-3.477c-.506-2.285 5.191-3.973 12.711-3.051 7.518.923 12.738 5.524 12.052 7.844-.38 1.286-10.639 3.245-14.253 2.847-3.664-.405-9.288-2.123-10.51-7.64z" fill="#f0c7b1"/><path d="M72.462 92.163c3.614.398 13.873-1.561 14.253-2.847.687-2.32-4.534-6.921-12.052-7.844-6.46-.792-11.563.345-12.556 2.128.898-6.4 7.7-11.397 15.987-11.434 8.911-.037 16.148 5.676 16.172 12.765.021 7.088-7.185 12.862-16.095 12.902-8.913.037-16.149-5.676-16.173-12.764 0-.105.016-.208.019-.313 1.331 5.327 6.835 7.008 10.445 7.407z" fill="url(#d)"/><path d="M61.952 84.523c-.506-2.285 5.191-3.973 12.711-3.051 7.518.923 12.738 5.524 12.052 7.844-.38 1.286-10.639 3.245-14.253 2.847-3.664-.405-9.288-2.123-10.51-7.64z" fill="url(#e)"/><path d="M62.349 79.417c4.208-1.978 9.35-2.16 13.838-1.005 2.404.561 4.965 1.285 7.063 2.638 1.945 1.135 3.525 2.5 5.002 4.19-1.342-1.701-2.773-3.118-4.623-4.27-2.276-1.416-4.769-2.294-7.364-2.916-4.587-1.126-9.723-.87-13.916 1.363z" fill="#c27b55"/><path d="M57.318 80.972s2.328.881 3.595.62c-.39-.459-1.096-1.604-1.096-1.604s1.853.551 3.151.032c.88-.352 4.065-1 5.456-1.066 1.687-.082 5.073.125 6.735.424 3.374.608 8.985 2.63 11.678 7.184.255.572 1.407.921 1.407.921s-1.02-.215-1.149.042c-.282.561 1.298 2.016 1.496 2.197-.161-.145-1.289-1.135-1.722-.967-.061.022-.137.388-.155.482.3-2.426-4.838-6.746-12.052-7.604-7.52-.894-13.217.743-12.711 2.958 1.222 5.348 6.846 7.013 10.51 7.405 2.526.271 8.298-.577 11.675-1.537l1.011-.317c-1.999 1.009-7.524 2.195-9.767 2.403-.744.07-2.24.104-2.986.085-5.949-.158-10.16-3.179-11.729-7.26-.125-.328-.494-.619-.838-.696-1.604-.361-5.096-1.811-5.096-1.811 2.32.361 3.483.674 5.305.059-1.779-.666-2.718-1.95-2.718-1.95z"/><path d="M138.048 84.523c.506-2.285-5.191-3.973-12.711-3.051-7.518.923-12.738 5.524-12.052 7.844.38 1.286 10.639 3.245 14.253 2.847 3.664-.405 9.288-2.123 10.51-7.64z" fill="url(#f)"/><path d="M133.949 88.75c-1.231 4.522-5.896 7.187-10.429 5.944-4.528-1.241-7.203-5.918-5.97-10.442 1.23-4.526 5.905-7.19 10.434-5.947 4.527 1.24 7.199 5.918 5.965 10.445z" fill="#3c8d8e" stroke="#0c5f60" stroke-width=".5"/><path d="M133.744 87.026c-.625 5.021-4.353 7.638-8.432 7.365-3.765-.253-7.131-3.031-7.443-7.828 1.302-.374 3.031.234 4.549.002-.005.055-.023.104-.025.16-.12 1.842 1.357 3.446 3.299 3.577 1.946.13 3.62-1.263 3.74-3.104a3.325 3.325 0 00-.038-.702c1.353.204 3.004.003 4.35.53z" fill="#529c9d"/><path d="M126.979 83.664c-1.869-.535-3.777.533-4.26 2.396-.483 1.853.642 3.793 2.51 4.329 1.873.537 3.781-.532 4.266-2.386.485-1.864-.644-3.803-2.516-4.339z" opacity=".9"/><path d="M126.979 83.664c-1.869-.535-3.777.533-4.26 2.396-.483 1.853.642 3.793 2.51 4.329 1.873.537 3.781-.532 4.266-2.386.485-1.864-.644-3.803-2.516-4.339z" fill="none" stroke="#0c5f60" stroke-width=".75"/><path d="M121.727 91.681c-.177.619-1.142.356-.965-.266.171-.6.633-.967.926-1.495.313-.564 1.177-.06.863.505-.241.435-.687.771-.824 1.256zm1.539-.987c-.266.31-.614 1.458-.766 1.834-.241.598.727.856.965.266.082-.205.362-1.223.508-1.393.417-.486-.287-1.197-.707-.707zm2.082 2.957c.522-.602.47-1.292.459-2.041-.01-.644-1.01-.645-1 0 .006.415.13.992-.166 1.334-.421.485.284 1.195.707.707zm1.021-2.166c.008.621.084 1.226.268 1.82.19.614 1.155.352.965-.266a5.354 5.354 0 01-.232-1.555c-.009-.643-1.009-.644-1.001.001z" fill="#fff" opacity=".5"/><path d="M131.696 85.043c-.985.59-2.466.059-3.305-1.188-.839-1.248-.714-2.739.272-3.328.984-.593 2.467-.061 3.301 1.187.84 1.248.718 2.738-.268 3.329z" fill="#fff" opacity=".8"/><path d="M126.5 63c-9.94 0-18 11.192-18 25 0 13.807 8.06 24.999 18 24.999s18-11.192 18-24.999c0-13.808-8.06-25-18-25zm1.038 29.163c-3.614.398-13.873-1.561-14.253-2.847-.687-2.32 4.534-6.921 12.052-7.844 7.52-.922 13.217.767 12.711 3.051-1.222 5.517-6.846 7.235-10.51 7.64z" fill="#f0c7b1"/><path d="M127.538 92.163c-3.614.398-13.873-1.561-14.253-2.847-.687-2.32 4.534-6.921 12.052-7.844 6.46-.792 11.563.345 12.556 2.128-.898-6.4-7.7-11.397-15.987-11.434-8.911-.037-16.148 5.676-16.172 12.765-.021 7.088 7.185 12.862 16.095 12.902 8.913.037 16.149-5.676 16.173-12.764 0-.105-.016-.208-.019-.313-1.331 5.327-6.835 7.008-10.445 7.407z" fill="url(#g)"/><path d="M138.048 84.523c.506-2.285-5.191-3.973-12.711-3.051-7.518.923-12.738 5.524-12.052 7.844.38 1.286 10.639 3.245 14.253 2.847 3.664-.405 9.288-2.123 10.51-7.64z" fill="url(#h)"/><path d="M137.651 79.417c-4.208-1.978-9.35-2.16-13.838-1.005-2.404.561-4.965 1.285-7.063 2.638-1.945 1.135-3.525 2.5-5.002 4.19 1.342-1.701 2.773-3.118 4.623-4.27 2.276-1.416 4.769-2.294 7.364-2.916 4.587-1.126 9.723-.87 13.916 1.363z" fill="#c27b55"/><path d="M142.682 80.972s-2.328.881-3.595.62c.39-.459 1.096-1.604 1.096-1.604s-1.853.551-3.151.032c-.88-.352-4.065-1-5.456-1.066-1.687-.082-5.073.125-6.735.424-3.374.608-8.985 2.63-11.678 7.184-.255.572-1.407.921-1.407.921s1.02-.215 1.149.042c.282.561-1.298 2.016-1.496 2.197.161-.145 1.289-1.135 1.722-.967.061.022.137.388.155.482-.3-2.426 4.838-6.746 12.052-7.604 7.52-.894 13.217.743 12.711 2.958-1.222 5.348-6.846 7.013-10.51 7.405-2.526.271-8.298-.577-11.675-1.537l-1.011-.317c1.999 1.009 7.524 2.195 9.767 2.403.744.07 2.24.104 2.986.085 5.949-.158 10.16-3.179 11.729-7.26.125-.328.494-.619.838-.696 1.604-.361 5.096-1.811 5.096-1.811-2.32.361-3.483.674-5.305.059 1.779-.666 2.718-1.95 2.718-1.95z"/><path d="M140.204 113.007c.035 22.275-17.995 40.365-40.273 40.396-22.274.036-40.361-17.993-40.396-40.272-.034-22.274 17.995-40.361 40.273-40.396 22.275-.034 40.363 17.995 40.396 40.272z" fill="url(#i)"/><path d="M135 55.999c0 19.329-15.671 35-35 35s-35-15.671-35-35 15.671-35 35-35 35 15.671 35 35z" fill="url(#j)"/><path d="M57.004 67.78c11.555 9.335 37.156 4.096 34.985.54-.511-.85-1.357-.521-2.207-.27-7.815 2.715-24.76 4.228-32.778-.27zm85.992 0c-11.456 9.255-37.187 4.146-34.985.54.951-1.583 2.076.616 11.924 1.808 6.692.823 16.86 1.131 23.061-2.348z" fill="#73625b"/><path d="M94.803 91.719s.661 2.089.679 2.718c.032 1.07-.102 1.907-.191 2.729-.579 5.369-3.579 13.137-3.418 16.845.07 1.597 1.125 3.926 1.125 3.926s-2.537-.654-3.094-5.178c-.23-1.866 1.717-5.479 2.397-7.23.646-1.664 1.906-7.059 2.348-8.798.186-.729.52-1.607.515-2.362-.002-.672-.361-2.65-.361-2.65zm-.289 26.667s.3 2.483 3.237 3.092c2.758.57 4.305-2.242 4.305-2.242s-2.292 1.442-4.052.925c-.929-.272-3.49-1.775-3.49-1.775zm10.568-5.346c-.02.595-.198 2.316-.198 2.316s.904-1.384.962-1.93c.104-.98-1.063-3.808-1.063-3.808s.326 2.558.299 3.422z" fill="#e1ac8f"/><path d="M92.489 108.932c-1.224 3.882-2.089 7.991 1.481 9.82a5.69 5.69 0 001.475.517c.276.054.479.288.722.441.557.357 1.475.408 2.113.518 2.454.424 4.93-.568 5.538-2.942-1.527 2.045-2.878 2.609-4.955 2.446-2.493-.196-4.573-2.28-5.227-4.726a13.09 13.09 0 01-.424-4.433c.108-1.302.487-2.593.707-3.883.412-2.326 1.408-7.191 1.401-9.62-.398 1.693-1.119 5.687-1.392 6.661-.204.726-.635 2.199-.811 2.933-.139.589-.45 1.7-.628 2.268zm-.282 6.473c-.163-1.144.045-2.348.294-3.457.088 2.204.708 4.771 2.122 6.399-1.222-.487-2.209-1.495-2.416-2.942-.146-1.023.251 1.758 0 0z" fill="#c27b55"/><path d="M95.57 113.331c.158.712.032 1.354-.281 1.438-.313.082-.634-.351-.792-1.063-.158-.711-.09-1.432.222-1.513.313-.083.694.427.851 1.138z" fill="#fff5ef"/><path d="M51.396 214.38c-15.723-25.105-21.321-14.91-17.672-42.457-5.209-9.411-9.375-18.77-12.191-28.824-5.598-21.481.132-35.265 5.142-50.948C21.889 26.813 59.341-9.001 100.71-9.001c32.28 0 67.16 23.47 67.471 75.221-.514 9.459-1.932 25.343-3.003 32.165 17.769 55.029 2.501 50.649-11.07 76.357-3.681 6.968-8.012 17.267-8.919 27.573-18.66-33.246-16.96-38.325-10.676-53.39 7.504-17.985 4.547-4.07-10.03-2.422 13.563-10.49 22.717-10.462 23.003-75.823a.099.099 0 00-.054-.091c-12.352-5.881-24.037-17.006-31.256-29.76a.094.094 0 00-.082-.05h-.003a.095.095 0 00-.085.057C107.671 58.623 93.38 68.21 69.67 71.92c-4.629 2.417-9.738 4.666-16.104 7.085a.1.1 0 00-.063.092c-.428 25.658 5.466 43.881 20.327 65.193-7.085-3.254-12.746-12.711-12.746-12.711-.355 0 2.484 4.965 2.662 5.281 19.809 35.294-12.119 46.623-12.35 77.52z" fill="#73625b" opacity=".1"/><path d="M50.101 212.286c-16.177-25.105-21.937-14.91-18.182-42.457-5.36-9.411-9.647-18.77-12.543-28.824-5.76-21.481.135-35.265 5.29-50.948C19.741 24.72 58.275-11.095 100.841-11.095c33.21 0 69.099 23.47 69.419 75.221-.527 9.459-1.984 25.343-3.089 32.165 18.283 55.029 2.573 50.649-11.39 76.357-3.789 6.968-8.242 17.267-9.175 27.573-19.202-33.246-17.451-38.325-10.984-53.39 7.718-17.985 2.953-4.116-10.321-1.223 13.954-10.49 23.373-11.661 23.668-77.022a.097.097 0 00-.058-.091c-12.709-5.881-24.729-17.006-32.156-29.76a.1.1 0 00-.086-.05h-.004a.098.098 0 00-.086.057c-8.577 17.787-23.281 27.374-47.675 31.084-4.764 2.417-10.02 4.666-16.569 7.085a.1.1 0 00-.065.092c-.441 25.657 5.624 44.881 20.914 66.193-7.322-5.419-13.113-13.711-13.113-13.711-.366 0 2.556 4.965 2.738 5.281 20.38 35.295-12.471 46.624-12.708 77.52z" fill="#73625b"/><path d="M27.34 109.853c-.751-7.729-12.676-57.451 16.781-93.862-13.992 27.157-18.065 63.81-16.781 93.862zm140.181-15.812c4.414-30.432 5.609-63.063-19.443-86.74 12.375 24.191 21.013 41.89 19.443 86.74zM143.14 22.856c-2.382 11.089 1.711 25.652 3.052 35.713-6.99-5.635-11.156-13.569-15.962-24.596 1.055 6.228 3.485 17.428 16.972 31.263-21.798-19.468-26.475-29.291-22.914-52.455-.198.877-.389 1.705-.573 2.49.477-2.542.913-5.288 1.285-8.271-3.201 18-27.117 50.049-47.061 56.902-3.01 3.013-5.737 3.154-8.993 5.917 27.231-4.152 44.396-19.706 48.078-30.866 7.436 12.238 20.931 23.546 33.167 29.331 1.848-16.192-4-26.142-7.051-45.428zm-41.604.713c-9 15-14.354 24.5-28.354 33.5 4.545-3.637 7.687-9.667 9.531-14.927C77.203 50.297 68.565 55.381 61 62c7.516-8.268 17.645-19.858 24.036-30.931-6.442 8.582-16.813 15.337-26.036 23 7.256-6.029 13-13.667 17-21.667-2.775 3.7-7.862 6.459-14 12.598 8.972-11.966 9.88-17.484 12.419-22.405-6.216 10.474-11.655 14.106-17.794 19.295-4.221 17.702-4.461 25.388-5.256 35.113-.039.469 17.113-6.963 17.535-7.177l.042-.007c15.992-13.57 22.556-27.725 32.59-46.25zM60 137c2.788 11.151 1.226 21.095-2.464 32.735-.488-10.761-8.475-21.806-14.417-31.462 1.364 20.726 3.566 30.364.083 46.129-1.866-28.597-7.833-38.269-16.583-59.417-3.527 13.393-2.659 30.866 5.299 44.844-3.755 27.547 2.005 17.352 18.182 42.457.238-30.896 33.088-42.226 12.707-77.52-.183-.316-3.104-5.281-2.738-5.281 0 0 5.792 8.292 13.113 13.711-22.233-24.211-28.063-54.711-28.7-87.711C39.495 95.233 54 117 60 137zm109.126-35.544c.865 16.928 5.439 38.169-9.257 51.947 6-10 3.131-23.403.131-33.403.376 26.762-10.812 42.834-13.809 60.402-.456-8.086-2.304-17.859 1.473-31.015-3.663 6.402-7.795 13.848-9.388 22.723-5.241-9.827-2.367-17.266-.533-26.834 7.778-8.19 13.157-23.839 14.294-33.894-.935 8.266-6.287 20.703-12.478 25.897-.001.009-.536 1.809-1.124 3.782.044-.333.086-.668.125-1.008-8.928 21.01-13.345 23.131 8.046 60.166.845-9.357 4.724-19.388 9.175-27.573 13.455-24.772 28.62-22.169 13.345-71.19z" fill="#644e45"/><path d="M155.339 79.777c4.269-17.414-2.295-44.215-5.664-49.444 5.253 8.148 12.299 30.132 5.664 49.444zm4.102 7.922c.458-2.363 14.095-28.735-8.994-65.914 20.885 38.017 9.458 63.518 8.994 65.914zM34.086 55.382c1-.447 7.361-47.259 48.429-56.088-43.069 7.589-47.429 55.643-48.429 56.088zm5.67 44.385c-.024-1.003-8.152-47.383 14.691-77.104-26.451 31.304-14.715 76.104-14.691 77.104zm3.257 31.389c-1.428-1.897-13.106-33.317-7.671-69.134-10.056 37.562 6.919 68.134 7.671 69.134zM153.395 30.807c-1-.295-13.057-35.017-37.847-31.593 21.684-1.229 36.847 31.295 37.847 31.593zm-20.632 17.99s-9.419-14.771-6.004-39.082c-3.152 14.84-2.821 25.098 6.004 39.082zm2.661-11.495c2.568 7.16 8.104 14.888 9.026 15.499-1.001-.663-9.66-13.341-11.684-34.227.18 6.269.518 12.76 2.658 18.728zM88.142 57.415c7.993-7.77 25.836-15.403 35.973-52.374-10.877 34.152-27.518 44.155-35.973 52.374zm.025-30.406c6.991-6.677 9.494-13.522 9.407-19.946-.716 6.447-4.207 14.98-9.407 19.946zm-10.021 3.329c.377-.013 1.333-1.137 1.603-1.373 7.977-6.959 11.625-12.581 12.388-22.236-1.171 11.009-12.989 23.575-13.991 23.609zm-1.343-1.979s8.23-9.662 11.186-23.308c-3.13 10.887-11.186 23.308-11.186 23.308zm-20.4 125.376c.581-1 1.925-20.274-7.62-28.24 6.005 6.094 8.2 27.239 7.62 28.24zm.017-.01c-.46-7.765-7.55-13.918-8.99-23.647.536 12.408 8.195 16.828 8.99 23.647zm-15.325 6.677c-.959-2.241 3.723-12.528-10.313-34.283 11.433 20.579 9.851 33.203 10.313 34.283zm.02-1.321c-1.186-4.379.906-13.748-4.325-28.989 2.734 10.111 2.791 23.317 4.325 28.989zm108.909-27.792c-4.108 8.074-12.523 13.667-10.338 33.775-.201-1.853.16-3.941.305-5.79 1.957-24.953 8.672-5.729 16.046-52.242-1.784 7.138-3.142 18.616-6.013 24.257zm-2.295 36.44c.371-1.456.345-3.097.603-4.586 2.182-12.614 6.991-19.381 7.411-39.744-.962 16.481-8.222 30.106-8.014 44.33zm17.378-26.702c.469-3.128 6.825-7.942 1.996-32.945 2.746 25.659-1.535 29.869-1.996 32.945zm.001.031c.438-1 3.109-17.928-3.651-30.616 4.719 10.273 4.09 29.616 3.651 30.616z" fill="#827874"/><path d="M18.901 151.753a64.006 64.006 0 011.238-7.817c2.5 7.838 5.503 15.074 11.68 25.88-3.773 27.679 2.116 17.422 18.38 42.81 0-22.267 17.058-34.558 19.03-51.87 1.784-15.764-4.759-22.359-9.16-31.17 3.666 5.108 8.469 10.416 13.56 14.061-14.507-20.062-21.735-38.961-21.26-66.64 5.63-2.08 11.2-4.36 16.55-7.08 21.469-3.266 38.274-11.49 47.75-31.14 7.314 12.562 19.169 23.77 32.2 29.8-.298 65.876-9.77 66.413-23.98 77.209 5.811-1.109 12.751-5.729 14.311-7.93-9.068 23.75-15.193 23.472 7.479 62.68.796-9.556 4.586-19.383 9.19-27.85 13.917-25.626 29.741-22.284 11.45-77.29 1.544-9.539 2.827-18.686 3-27.83.175 3.245.276 6.377.367 9.425h.641c-.257-4.086-.525-8.347-.968-12.875-.657-106.408-155.465-102.179-145.79 25.9-5.227 15.913-11.063 29.484-5.29 50.95a74.169 74.169 0 00-2.137 8.749c.532.731 1.091 1.434 1.759 2.028zm6.058-57.468c.095 1 3.72 27.654 1.32 8.13-17.743-144.346 166.257-154.346 139.86-.519-1.794 10.454-.768 5.549.961-5.12 17.259 58.25-3.75 45.563-18.32 87.37-1.37 3.939-2.34 9-2.74 13.13-21.623-38.089-11.207-41.533-5.64-60.7 6.599-7.292 10.615-15.871 11.71-26.52-2.591 17.989-14.384 30.05-24.181 34.06 5.116-3.371 10.438-6.975 13.601-12.39 2.034-2.136 11.762-26.173 8.12-72.03-1.673-20.141-8.437-26.107-6.931-34.66-1.396 6.717 2.429 11.257 4.71 25.08 1.055 6.458 1.431 15.847 1.431 17.57-10.923-5.965-24.91-18.89-31.76-29.79 4.461-9.145 6.782-23.075 8.6-31.87-5.416 22.088-9.213 52.515-53.76 62.3 7.232-3.953 22.987-12.243 39.25-45.36.02-.01.029-.02.029-.04 8.711-17.095.602-2.034-.09-.8-.013-.026-.01-.103-.01.01-20.156 36.093-36.387 45.333-58.75 54.6.01-.68.02-1.36.05-2.04 27.481-8.941 44.618-41.674 39.07-33.58-8.877 13.02-24.155 28.015-39.06 33.34.017-1 .183-4.32.46-7.14 19.215-13.644 23.448-20.838 30.89-33.8.556-.979 1.037-1.813 1.454-2.526-4.483 6.824-16.303 23.2-32.294 35.725.44-4.62 1.1-9.22 1.89-13.79.921-1.218 8.834-7.552 15.32-20.74 3.094-6.249 4.27-9.59 4.27-9.59-.871 1.578-6.035 13.404-19.31 28.78 2.19-12.138 5.188-23.076 8.57-35.03-5.756 17.895-11.357 37.272-13.01 56.8-.488 1-1.416 37.987 17.235 63.969-28.77-30.95-24.066-68.987-23.885-81.719-.09 0-.75 10.35-.8 11.05-3.867 51.415 25.597 63.853 24 90.61-1.172 19.548-17.347 30.422-17.49 53.89-12.637-21.956-19.809-15.55-16.85-39.3.077-1 1.134-8.253.08-15.33-1.696-11.256-4.121-14.498-3.766-16.86-.269 1.428.351 2.886 1.417 6.7 1.909 6.668 2.163 15.704 1.33 22.73-16.523-32.548-14.211-49.843-6.981-74.6z" fill="#452c22"/><path d="M91.69 89.23c-3.71 7.46-14.12 8.15-17.78 8.15H61.79c-5.75 0-10.86-7.99-10.86-14.29v-6.16c0-.23.11-.46.29-.7l40.47 13zm18.68-12.58c-2.07 1.43-3.39 3.35-3.39 5.92v.5c0 2.44.5 4.47 1.34 6.15 3.71 7.46 14.12 8.15 17.78 8.15h12.12c4.09 0 7.85-4.05 9.68-8.66l-37.53-12.06z" fill="#fff" opacity=".2"/><path d="M91.69 89.23L51.21 76.22c.99-1.32 4.4-2.7 6.15-2.91 2.18-.26 6.63-.69 11.94-.69 8.86 0 23.72 1.29 23.72 9.96v.5c0 2.44-.5 4.47-1.33 6.15zm57.38-6.15v-6.16c0-.23-.11-.46-.29-.7-.99-1.32-4.4-2.7-6.15-2.91-2.18-.26-6.63-.69-11.94-.69-6.23 0-15.41.64-20.33 4.03l37.53 12.06c.75-1.86 1.18-3.81 1.18-5.63z" fill="#fff" opacity=".4"/><path d="M149.73 78.68v-1.76c0-2.1-4.9-3.99-7.01-4.25-9.42-1.12-31.52-2.02-35.7 6.76-2.78-.92-5.88-1.28-7.02-1.29-1.14.01-4.24.37-7.02 1.29-4.17-8.77-26.27-7.88-35.7-6.76-2.11.25-7.01 2.14-7.01 4.25v1.76H45.5v2.36h4.77v2.04c0 6.3 5.15 14.94 11.51 14.94H73.9c8.33 0 19.76-3.13 19.76-14.94v-.5c0-.76-.1-1.46-.29-2.12 3.46-1.07 5.55-1.29 6.62-1.31 1.07.01 3.16.24 6.62 1.31-.19.66-.29 1.36-.29 2.12v.5c0 11.81 11.44 14.94 19.76 14.94h12.12c6.36 0 11.51-8.64 11.51-14.94v-2.04h4.77v-2.36h-4.75zm-56.87 4.4c0 13.11-14.5 14.13-18.95 14.13H61.79c-5.66 0-10.7-7.9-10.7-14.13v-6.16c0-1.31 4.09-3.18 6.29-3.44 2.17-.26 6.62-.69 11.92-.69 8.8 0 23.55 1.27 23.55 9.79v.5zm56.05 0c0 6.23-5.04 14.13-10.7 14.13h-12.12c-4.45 0-18.95-1.02-18.95-14.13v-.5c0-8.52 14.76-9.79 23.55-9.79 5.31 0 9.75.43 11.92.69 2.2.26 6.3 2.13 6.3 3.44v6.16z" fill="#092e0c"/></svg>